<svg width="41" height="41" viewBox="0 0 41 41" fill="none" xmlns="http://www.w3.org/2000/svg">
<g clip-path="url(#clip0_331_2341)">
<path d="M24.8714 21.0143C25.4208 21.7697 25.9646 22.786 26.686 23.6333L29.3238 26.4065C30.3874 27.5247 31.675 28.3448 30.8664 29.5399C30.3279 30.3076 29.1901 30.6231 28.674 30.3473C28.0728 29.982 28.0451 29.2415 27.5383 28.5308C26.4045 26.6274 24.8635 25.452 23.5927 23.8493C22.999 23.1361 22.6716 22.1695 21.767 21.752C18.1944 24.0427 14.6973 28.9026 11.38 31.4617C10.8601 31.3598 10.1645 31.3398 9.82975 30.7211C9.07695 29.3072 12.1962 27.8738 13.2601 26.947C13.7467 26.5694 14.1094 25.8836 14.5978 25.419C16.4684 23.3841 19.0716 21.6748 20.1466 20.2263C18.8702 18.8844 17.2979 17.1425 15.6756 15.7037C15.3334 15.4328 14.8598 15.2017 14.562 14.8886C14.2216 14.5308 14.1014 14.0488 13.7611 13.6909C12.6956 12.6597 10.6143 12.339 10.7366 10.6891C10.7922 10.1251 11.5952 9.19089 12.2501 9.07912C13.2103 8.93259 13.8392 10.0384 14.3904 10.7068C16.6009 13.1196 20.0175 16.0892 22.0172 18.1914C23.4437 16.5789 25.6935 15.1205 27.2958 13.426C28.3189 12.3676 28.9611 10.8197 30.3246 10.1191C32.0617 10.2558 32.722 11.9281 31.0846 13.23C30.598 13.6077 29.945 13.6325 29.5046 13.8809C29.2382 14.1343 28.9699 14.4747 28.5721 14.7679C27.1086 16.0748 24.8514 17.881 23.6876 19.414C23.8041 20.07 24.4053 20.4353 24.8714 21.0143Z" fill="black"/>
</g>
<defs>
<clipPath id="clip0_331_2341">
<rect width="27.9025" height="29.6464" fill="white" transform="translate(21.4809) rotate(46.433)"/>
</clipPath>
</defs>
</svg>
