<svg width="42" height="84" viewBox="0 0 42 84" fill="none" xmlns="http://www.w3.org/2000/svg">
<path d="M41.7834 9.58319C40.9131 5.10985 37.2735 1.3425 32.8245 0.356542C31.5282 0.0339741 30.1162 0.0644109 28.7955 0.0583247L21.1695 0.0339748L13.5374 0.00964346C12.2411 -0.0207874 10.8108 0.00963307 9.50839 0.265253C8.139 0.569562 6.82439 1.11731 5.64975 1.87809C2.1076 4.12389 -0.0712538 8.28683 0.00178031 12.4498V16.278C0.026125 18.8281 0.0565522 25.2247 0.0930693 27.7078C0.0565522 33.228 4.00039 38.4499 9.42927 39.6367C10.5309 39.8802 11.6568 39.9654 12.7767 39.9167L12.8193 76.2634V76.5068L12.9836 76.6833C13.6896 77.4441 16.404 80.262 17.0431 80.968V79.4404L17.0613 42.406L17.8465 42.4607L17.9925 81.7288V81.9053C18.4307 82.6356 18.9907 82.9825 19.721 83.2807C20.7739 83.6702 21.8633 83.019 22.6302 82.3252C22.9528 82.0209 24.0726 80.8767 24.3891 80.5907L29.0572 75.9834L29.1728 75.8678C29.4954 75.1253 29.5745 74.4497 29.6171 73.6889C29.5989 72.8308 29.6841 72.2404 29.0389 71.3884L26.3123 68.7044C27.2983 67.7123 29.6354 65.3813 29.7084 65.29L29.3006 64.864L26.2332 61.6505C27.2131 60.6463 29.5745 58.2361 29.6171 58.1813L29.1911 57.7614L26.0871 54.6696C27.0914 53.8297 29.3859 51.9004 29.392 51.9004L29.7084 51.6326C29.7084 51.6326 29.7023 51.1396 29.7023 51.1336L29.2581 39.9472C34.4678 40.221 39.6837 36.971 41.3087 31.9012C42.179 29.6189 41.8321 26.4602 41.9295 24.0683C41.9477 21.6156 41.9782 14.9816 41.9964 12.6263C42.0147 11.689 41.966 10.5205 41.7834 9.58319ZM28.0469 38.663L28.0165 39.2838L27.5357 50.7379L27.8217 50.3789C27.7913 50.4641 27.5235 51.1275 27.5174 51.1275L27.5357 50.7379L24.7604 54.2071C24.7604 54.2071 24.3709 54.6696 24.3709 54.6757L24.7604 55.0652L27.9069 58.1935C28.1321 57.9683 28.2843 57.8101 28.3269 57.7675V58.6195L27.9069 58.1935C26.9331 59.1916 24.6386 61.5409 24.5473 61.6383C24.6751 61.7844 27.0305 64.2432 28.0104 65.2717L28.4303 64.8518L28.4182 65.7038C28.3695 65.6491 28.2234 65.4969 28.0104 65.2717L25.0221 68.2783C25.0221 68.2783 24.6326 68.6678 24.6326 68.6739C24.7421 68.8321 27.5539 72.21 27.7913 72.5325C27.8704 73.0803 27.7548 74.1211 27.493 74.754C27.5357 74.7053 27.5722 74.6627 27.6148 74.6201C27.5783 74.6749 27.4322 74.894 27.4261 74.894C27.4505 74.8514 27.4687 74.8027 27.493 74.754C26.2271 76.1721 22.5998 80.1525 21.5895 81.2967C21.2852 81.6375 20.7678 81.9661 20.3418 82.0696C20.1044 82.0452 19.7819 81.9296 19.5506 81.7653C19.4228 81.6922 19.295 81.5949 19.2158 81.5218V81.7288L19.1306 81.4245C19.1306 81.4245 19.1793 81.4792 19.2158 81.5218L19.3254 41.773C19.3254 41.773 19.2889 40.994 19.2828 40.9879C18.7959 41.0183 16.9822 41.1157 16.4527 41.1461H15.8441V41.7547L15.8258 77.9127L16.8788 79.0204L15.8258 79.4404V77.9127L14.0365 76.0199V76.2634L13.8661 75.8434L14.0365 76.0199C14.0304 72.8247 13.9878 39.2716 13.9939 39.2655V38.6325C12.5819 38.7238 11.1273 38.6508 9.76401 38.2917C5.08374 37.0927 1.82763 32.4794 1.9311 27.7078L1.97979 23.8918L2.07108 16.2536L2.10151 12.4559C2.05282 8.98675 3.89084 5.54197 6.82438 3.71003C7.786 3.10141 8.85717 2.66321 9.96486 2.41977C11.1395 2.19458 12.3202 2.21891 13.5374 2.21891L21.1634 2.20675C22.5267 2.21283 29.4528 2.16414 30.664 2.20675C34.7295 2.29195 38.4117 5.31679 39.5863 9.15717C39.8237 9.8936 39.9819 10.9343 40.0062 11.7012C40.0427 12.115 40.0306 16.0528 40.061 16.4545C40.0793 18.9985 40.1584 25.4133 40.1766 27.8965C40.4444 34.6704 34.6078 39.302 28.0469 38.6691V38.663Z" fill="black"/>
<path d="M40.1766 27.8904C40.1584 25.4072 40.0793 18.9924 40.061 16.4484C40.0306 16.0467 40.0428 12.1089 40.0062 11.6951C39.9819 10.9282 39.8237 9.88746 39.5863 9.15103C38.4117 5.31066 34.7295 2.28582 30.664 2.20061C29.4528 2.16409 22.5267 2.21278 21.1634 2.20061L13.5374 2.21279C12.3202 2.21279 11.1395 2.18844 9.96486 2.41363C8.85718 2.65708 7.78601 3.09528 6.82439 3.7039C3.89085 5.53584 2.05283 8.98061 2.10152 12.4497L2.07109 16.2475L1.9798 23.8857L1.93111 27.7017C1.82764 32.4733 5.08375 37.0866 9.76402 38.2856C11.1273 38.6447 12.5819 38.7177 14 38.6264V39.2594C14 39.2594 14.0304 72.8186 14.0365 76.0138L15.8259 77.9066L15.8441 41.7486V41.14H16.4527C16.9822 41.1096 18.7959 41.0122 19.2828 40.9818C19.2828 40.9878 19.3254 41.7608 19.3254 41.7669L19.2159 81.5157C19.295 81.5887 19.4228 81.6861 19.5506 81.7592C19.7819 81.9235 20.1044 82.0391 20.3418 82.0635C20.7678 81.96 21.2852 81.6313 21.5895 81.2905C22.5998 80.1463 26.2271 76.166 27.4931 74.7479C27.7548 74.1149 27.8704 73.0742 27.7913 72.5264C27.5539 72.2039 24.7421 68.826 24.6326 68.6678C24.6326 68.6617 25.016 68.2783 25.0221 68.2722L28.0104 65.2656C27.0305 64.2371 24.6752 61.7782 24.5473 61.6322C24.6386 61.5348 26.9331 59.1855 27.9069 58.1874L24.7604 55.0591L24.3709 54.6696C24.3709 54.6696 24.7543 54.2009 24.7604 54.2009L27.5357 50.7318L28.0165 39.2776L28.0469 38.6568C34.6078 39.2898 40.4444 34.6582 40.1766 27.8843V27.8904ZM20.9991 32.6072C18.0108 32.6072 15.5885 30.1849 15.5885 27.1966C15.5885 24.2082 18.0108 21.792 20.9991 21.792C23.9874 21.792 26.4097 24.2143 26.4097 27.1966C26.4097 30.1788 23.9874 32.6072 20.9991 32.6072ZM29.3859 14.4217C28.6068 15.2007 27.5357 15.6815 26.361 15.6815H15.6372C13.2818 15.6815 11.3525 13.7522 11.3525 11.3968C11.3525 10.2222 11.8333 9.15104 12.6124 8.372C13.3914 7.59297 14.4625 7.11216 15.6372 7.11216H26.361C28.7164 7.11216 30.6457 9.04149 30.6457 11.3968C30.6457 12.5715 30.1649 13.6426 29.3859 14.4217Z" fill="#EDCA69"/>
<path d="M31.2846 11.3969C31.2846 14.5374 28.5823 16.6615 25.5331 16.3876L24.0238 16.3998C22.5205 16.4119 19.4835 16.4424 17.9802 16.4606H16.4708C13.4156 16.7467 10.6646 14.5374 10.7133 11.3969C10.7924 8.32341 13.5008 6.27237 16.4708 6.64362L17.9802 6.66188C19.7634 6.67405 22.2649 6.77751 24.0238 6.63144C25.0523 6.57666 26.1113 6.41844 27.1399 6.55233C29.477 6.85664 31.3089 9.04157 31.2846 11.3908V11.3969ZM30.0126 11.3969C30.0369 9.40675 28.2719 7.69653 26.2939 7.72087L25.5392 7.69045C23.19 7.45917 20.3599 7.52002 17.9863 7.56262C17.4994 7.58088 16.1969 7.57481 15.7222 7.59916C13.7016 7.56873 11.9062 9.38849 12.0096 11.3969C12.0462 13.3445 13.7807 15.006 15.7283 14.9026C16.1969 14.9026 17.5055 14.9026 17.9924 14.9026C19.4956 14.9208 22.5326 14.9512 24.0359 14.9634C24.5228 14.9573 25.8253 14.9878 26.3 14.9817C28.2597 15.073 30.0369 13.3628 30.0187 11.3969H30.0126Z" fill="black"/>
<path d="M26.7688 27.1968C26.921 32.4613 20.4696 35.261 16.7814 31.4267C14.5234 29.2174 14.633 25.2431 16.9518 23.1555C20.4635 19.7229 26.6836 22.2974 26.7688 27.2029V27.1968ZM26.0567 27.1968C26.2211 24.458 23.7866 21.8713 20.9991 22.0174C16.5501 22.0539 14.3773 27.5863 17.5787 30.6294C20.5792 33.5751 25.9898 31.4632 26.0567 27.1968Z" fill="black"/>
</svg>
