<svg width="53" height="82" viewBox="0 0 53 82" fill="none" xmlns="http://www.w3.org/2000/svg">
<path d="M28.2468 41.9738C25.5327 38.0696 25.7755 34.2503 26.3402 29.8117C26.4131 29.2531 25.6966 28.9556 25.3505 29.4049L21.6648 34.2442C17.5359 39.6665 16.9469 46.121 21.8895 51.2154C12.9273 48.738 7.11033 40.1401 8.40366 31.0261C9.29017 24.7598 14.1235 20.5702 14.7307 15.0022C14.7853 14.5225 15.3986 14.3464 15.6718 14.7411C16.9773 16.6052 17.3052 18.8397 17.4509 21.3717C21.9441 15.154 25.6177 9.40991 24.294 1.401C24.2151 0.939531 24.7372 0.623778 25.1137 0.897017C33.6509 7.13292 36.7111 16.0769 34.9624 26.6543C38.0591 25.5553 39.146 22.3007 39.2614 18.7486C39.2796 18.2446 39.9414 18.0564 40.2147 18.4814C42.3399 21.7481 43.785 25.2334 44.4893 29.0831C46.2805 38.8225 40.8158 48.4648 31.0339 51.2639C34.4645 47.9851 35.2599 43.6861 33.6023 39.9701C33.408 39.5268 32.7704 39.5633 32.5883 40.0126C32.2057 40.9537 31.7321 41.6277 31.0217 42.2835C30.2749 42.9696 28.8601 42.8786 28.2408 41.986L28.2468 41.9738Z" fill="#EDCA69"/>
<path d="M27.8886 42.2228C25.393 38.7678 25.0651 34.3171 25.6055 30.2246L25.6662 29.7388C25.6662 29.7935 25.7148 29.8542 25.7452 29.8603C25.7695 29.8785 25.8484 29.8724 25.8909 29.836C25.8241 29.921 25.6784 30.1092 25.6116 30.1942C23.954 32.4105 21.2034 35.4829 20.0618 37.9785C17.633 43.0182 18.7928 48.0458 22.8853 51.7983L21.8105 51.5007C11.9315 48.9748 5.19767 38.0028 8.36723 28.0873C9.75164 23.3754 13.3402 19.5744 13.9109 14.6682C14.1842 13.5753 15.7264 13.2596 16.3701 14.2129L16.4065 14.2675L16.6433 14.65C17.8213 16.7206 17.6452 19.0947 17.7666 21.3352L17.2019 21.1713C19.7339 17.7224 22.1202 13.9943 23.2071 9.84103C23.96 7.07222 23.9661 4.20626 23.5228 1.40101C23.4257 0.508435 24.3729 -0.238417 25.223 0.0712527C29.9166 3.18617 33.4687 8.14088 34.9017 13.5753C36.0372 17.8864 35.9582 22.3736 35.2721 26.6907L34.8653 26.3507C37.9559 25.2638 38.5145 21.6389 38.5631 18.7607C38.5206 17.7649 39.7775 17.1335 40.5486 17.7771C40.7429 17.935 40.834 18.0989 40.9433 18.2689C42.9713 21.4688 44.4408 25.0574 45.0844 28.8038C46.8999 38.7557 40.9129 48.7866 31.1249 51.5432L29.9834 51.8772L30.8274 51.015C33.8634 48.1976 34.4463 43.7104 32.8797 40.3769C32.9951 40.5227 33.2137 40.5348 33.3351 40.3951C33.0558 41.1541 31.8111 42.8482 30.627 43.1397C29.613 43.3947 28.4897 43.0789 27.8886 42.2046V42.2228ZM28.6051 41.7249C28.9451 42.2107 29.7405 42.3624 30.2566 42.0771C31.0278 41.5549 31.4407 40.6077 31.7807 39.7697C32.1086 38.6221 33.8755 38.4157 34.3856 39.5876C36.3043 43.7469 34.507 48.5801 31.2585 51.4825L30.961 50.9603C39.2371 48.7137 44.7808 40.5894 44.2343 32.113C43.9671 27.4133 42.2245 22.8107 39.6439 18.8883C39.6196 18.8518 39.656 18.9065 39.6682 18.9125C39.7107 18.949 39.7775 18.9672 39.82 18.9611C39.8989 18.9611 39.99 18.8518 39.9779 18.7729C39.8989 22.246 38.2231 26.1625 34.586 27.1218L34.671 26.6057C36.4015 16.5505 33.0072 7.51548 24.6947 1.55281C24.6522 1.52245 24.6704 1.53458 24.6826 1.54066C24.8708 1.65602 25.0833 1.4921 25.0712 1.29172C25.0712 1.29172 25.0712 1.27349 25.0712 1.27957V1.33421L25.0894 1.43744C26.4495 9.16098 22.0413 15.6398 17.718 21.5539L17.208 22.2764C17.1776 19.8962 16.4976 17.3338 15.2103 15.5608L15.0039 15.2633C15.0039 15.2572 14.9796 15.2269 14.9857 15.239C15.1435 15.4819 15.5382 15.4212 15.605 15.1419C15.0039 20.1391 11.3425 23.9766 9.75772 28.5487C6.46064 37.8571 12.5022 48.4465 21.9866 50.9178L21.683 51.4279C19.3514 49.0659 17.8395 45.7992 17.9913 42.4292C18.0884 39.0532 19.6186 35.8472 21.6345 33.2666L24.5308 29.3685C24.5976 29.2835 24.7433 29.0831 24.804 29.0041C25.4477 28.0751 27.0142 28.5366 27.0446 29.6721C26.9596 30.7589 26.7774 31.7062 26.6863 32.7688C26.3159 35.8958 26.7288 39.1443 28.6172 41.7249H28.6051Z" fill="black"/>
<path d="M51.7879 78.0108C50.5614 80.5064 47.7743 82.2065 45.1391 80.8525L3.26078 59.3213C0.655909 57.9855 -0.09094 55.332 1.16596 52.6543C1.74279 51.4217 2.89646 50.1952 3.88619 49.7883C5.47705 49.1386 6.88574 49.4301 8.36122 50.1769L49.7234 71.1859C52.3769 72.5339 53.1298 75.2845 51.7879 78.0108ZM48.2601 79.0795C49.9481 78.1019 50.8346 75.9099 50.2031 74.1855C49.6931 72.7889 48.2176 72.3578 47.0275 73.0439C45.3152 74.0276 44.4226 76.0435 45.0237 77.9562C45.4427 79.2859 46.8939 79.8688 48.2601 79.0795Z" fill="#EDCA69"/>
<path d="M52.0612 78.1445C50.944 80.6705 47.8473 82.6256 45.127 81.3323C42.7286 80.1726 40.397 79.0189 38.0471 77.8227C29.9168 73.7059 18.2647 67.5975 10.0554 63.3411L3.06655 59.6979C1.82787 59.0664 0.740995 57.9492 0.358461 56.5466C-0.364102 53.7656 1.20246 50.7418 3.69804 49.4606C6.37577 48.2098 9.02314 50.1892 11.3548 51.3004C16.777 54.0692 23.4926 57.3602 29.006 60.0501C33.1592 62.0903 39.0794 64.9258 43.1536 66.9964C45.1999 68.0529 48.1812 69.4677 50.191 70.5789C52.9902 72.024 53.6217 75.5882 52.0612 78.1445ZM51.5147 77.8774C52.5712 75.6125 51.788 72.9105 49.4806 71.9147C47.1429 70.7853 44.8113 69.5345 42.4736 68.3505C36.0009 65.0291 28.0284 60.7423 21.5435 57.3541C18.1797 55.5811 14.4454 53.6685 11.039 51.9319C8.88956 50.93 6.41828 48.987 3.9895 50.1406C1.8886 51.2275 0.467756 54.0206 1.13567 56.328C1.46356 57.4816 2.36827 58.3985 3.46122 58.9511L10.4865 62.5153C18.7747 66.7171 30.4207 72.6312 38.5511 76.8573C40.8766 78.0595 43.2083 79.3346 45.4974 80.5369C47.7926 81.7148 50.4582 80.039 51.5147 77.8895V77.8774Z" fill="black"/>
<path d="M48.1084 78.8184C49.5778 77.6465 50.695 74.7866 49.0192 73.4204C47.7866 72.6068 46.2078 73.8151 45.6371 74.9688C45.0299 76.1832 45.2363 78.2355 46.6997 78.6241C47.1733 78.6362 47.5497 78.9095 48.1084 78.8184ZM48.412 79.3406C47.6651 80.2635 46.645 80.4821 45.5824 79.8142C43.0929 78.0655 44.6231 74.0458 46.7725 72.7525C47.9323 71.9085 49.851 72.291 50.525 73.639C51.6665 75.7156 50.525 78.4662 48.412 79.3406Z" fill="black"/>
<path d="M49.4382 59.5037L42.4676 63.0741C41.7632 63.4323 40.9374 63.4323 40.2331 63.0741L32.2242 58.9998C31.2466 58.5019 31.2466 57.1053 32.2242 56.6074L46.0925 49.5518C48.3452 48.4042 50.9804 50.7358 51.8366 52.5756C53.1542 55.4173 52.1887 58.089 49.4382 59.4977V59.5037Z" fill="#EDCA69"/>
<path d="M49.6567 59.9347L43.694 62.825L42.9472 63.1893C42.1578 63.6447 41.1681 63.8087 40.3119 63.4383C38.29 62.4303 36.3894 61.4042 34.3857 60.4144L32.9041 59.6737C32.4305 59.4065 31.714 59.1879 31.4287 58.6596C30.8518 57.7671 31.374 56.5344 32.3152 56.1944L33.0499 55.8058L35.9826 54.2575C37.9257 53.2313 42.8986 50.6082 44.7748 49.6124C45.2241 49.3878 45.8617 49.0113 46.3414 48.8352C46.9789 48.6227 47.6711 48.6288 48.2905 48.7806C53.4759 50.3046 55.0061 57.4756 49.6688 59.9226L49.6567 59.9347ZM49.2134 59.0725C53.4456 56.9838 52.0187 51.2336 47.999 49.9221C47.5497 49.8007 47.0943 49.7946 46.6753 49.9221C46.2746 50.0557 45.6492 50.4018 45.2545 50.5839C43.3661 51.5008 38.2718 53.9964 36.3227 54.9497L33.3474 56.4069C33.0256 56.5952 32.2362 56.8745 32.0237 57.1477C31.5804 57.6578 31.7808 58.5078 32.4245 58.775C34.1064 59.6372 35.8976 60.5784 37.5856 61.4163C38.5632 61.9021 39.5772 62.4303 40.5305 62.8857C41.0952 63.1104 41.751 63.0861 42.2853 62.8007C42.9229 62.4607 48.4423 59.4854 49.2134 59.0665V59.0725Z" fill="black"/>
<path d="M7.77845 80.9984C4.97928 81.9942 2.4837 80.4823 1.25717 78.0657C-0.0847381 75.4183 0.643898 72.3398 3.43093 71.095L10.8873 67.3244C11.4216 67.0511 12.0592 67.0572 12.5935 67.3365L22.0111 72.2305C22.5515 72.5098 22.5515 73.2809 22.0111 73.5663L7.77845 80.9984ZM7.36557 78.9765C8.93213 77.2035 8.21564 74.9629 6.75837 73.5542C6.04188 72.862 4.85784 72.5705 4.05634 72.8923C3.21234 73.2385 2.42905 74.3132 2.52013 75.3272C2.65372 76.7966 3.37628 77.9867 4.45101 78.9461C5.07643 79.4987 6.75836 79.6505 7.35949 78.9765H7.36557Z" fill="#EDCA69"/>
<path d="M8.00901 81.5326C1.32985 84.0525 -3.50343 73.4751 3.26073 70.5059C5.13089 69.5769 8.23974 68.0347 10.116 67.1056C10.3831 66.9842 10.5775 66.8567 10.9539 66.717C11.634 66.4863 12.393 66.6077 13.0002 66.9781L13.747 67.3849L19.7157 70.6699L21.2216 71.4713C21.2944 71.5199 22.0899 71.9268 22.1688 71.9753C22.8185 72.3154 22.8975 73.3112 22.2963 73.7483C20.918 74.483 9.63629 80.64 8.00293 81.5387L8.00901 81.5326ZM7.54146 80.464L19.7097 74.4041C20.1711 74.1612 21.4948 73.4994 21.932 73.2565C22.181 73.0865 22.1627 72.6554 21.8774 72.5218L21.6952 72.4307L20.9362 72.0421L19.4182 71.271C18.6167 70.8824 12.8605 68.0468 12.2047 67.7432C11.6097 67.5307 11.1725 67.7917 10.6139 68.0953L7.5779 69.6619C7.04357 69.9412 4.26869 71.3682 3.78293 71.6171C-1.54218 73.8941 2.38636 82.2916 7.54146 80.4822V80.464Z" fill="black"/>
<path d="M6.92823 78.5877C7.85117 77.4826 7.79651 76.0071 7.0193 74.8292C6.40603 73.7605 4.9609 72.7707 3.78902 73.639C1.90671 74.9688 3.25469 77.6405 4.77875 78.6727C5.33737 78.9945 6.49104 79.0431 6.92215 78.5877H6.92823ZM7.80259 79.3588C6.91001 80.1543 5.90813 80.0086 4.93055 79.705C4.08047 79.3831 3.534 78.5573 3.06039 77.8287C2.42891 76.7175 1.87635 75.2967 2.36818 74.0398C2.72643 73.1472 3.47328 72.3457 4.49944 72.2243C7.9726 71.8903 10.3103 76.8936 7.80259 79.3588Z" fill="black"/>
<path d="M48.2599 79.0796C46.8937 79.869 45.4425 79.2861 45.0235 77.9563C44.4224 76.0436 45.315 74.0277 47.0273 73.0441C48.2174 72.3579 49.6929 72.7951 50.2029 74.1856C50.8344 75.91 49.9418 78.102 48.2599 79.0796Z" fill="#EDCA69"/>
<path d="M7.36539 78.9764C6.76426 79.6565 5.07625 79.5047 4.45691 78.9461C3.38218 77.9928 2.65962 76.8027 2.52603 75.3272C2.43495 74.3132 3.21824 73.2384 4.06224 72.8923C4.85767 72.5644 6.04776 72.862 6.76425 73.5542C8.22152 74.9568 8.93801 77.2034 7.37145 78.9764H7.36539Z" fill="#EDCA69"/>
</svg>
