<svg width="72" height="67" viewBox="0 0 72 67" fill="none" xmlns="http://www.w3.org/2000/svg">
<path d="M47.1205 65.8129C42.1001 58.6719 39.0723 50.9186 36.7068 42.581C36.5287 41.9464 35.6326 41.952 35.4545 42.581C33.1057 51.0244 29.922 58.7776 25.0519 65.8073H13.5473L10.692 55.516L4.65302 62.401L5.37102 65.5067L3.06118 65.9854L0.656738 58.3936L3.08902 57.5086L3.38401 58.2934C3.64004 58.978 4.54171 59.145 5.02037 58.5884C16.3358 45.5587 26.3376 32.0392 34.9202 16.4826C35.4267 15.5587 36.7458 15.5587 37.2578 16.4826C43.8756 28.4437 51.2504 39.5977 59.9499 50.0448L68.1706 59.9186L68.9999 57.4474L71.4656 58.4158L69.1502 65.991L66.6901 65.4678L67.5306 62.5012L61.4526 55.5494L58.6252 65.7962L47.1317 65.8129H47.1205Z" fill="#EDCA69"/>
<path d="M46.7532 66.5198C41.6716 59.7406 38.6549 51.62 36.3228 43.5439L36.1002 42.7535C36.0835 42.7257 36.1169 42.7535 36.0835 42.7368C36.0501 42.7424 36.0723 42.7201 36.0557 42.748L35.8274 43.5161C33.4898 51.5699 30.1558 59.3955 25.2913 66.2637H25.052H13.5473H13.1967L13.102 65.9242L10.2412 55.6385L11.0427 55.8222L5.00372 62.7072L5.10947 62.2897L5.82746 65.3899C5.82746 65.3955 5.93321 65.8352 5.93321 65.8463L5.46011 65.9688L3.18367 66.5587C3.18367 66.5587 2.66606 66.6923 2.65493 66.6923C2.51021 66.2137 0.150278 58.555 0 58.0597C1.12987 57.6589 2.27088 57.2415 3.39518 56.8129L3.58999 57.3138L3.8961 58.1098C3.99072 58.3547 4.32468 58.4437 4.52505 58.2934C5.44342 57.2471 6.31725 56.1506 7.20223 55.0764C16.9926 43.0152 25.8033 30.1747 33.974 16.9836L34.4193 16.2433C34.9926 15.1135 36.7124 14.7628 37.603 15.8092C38.0371 16.3658 38.2264 16.8723 38.5547 17.4122C42.4898 24.4252 46.7811 31.299 51.4397 37.85C56.0371 44.4177 63.4731 53.2285 68.666 59.4734L68.6828 59.4901L67.5473 59.7016C67.692 59.401 68.6716 57.1413 68.7718 56.8964L69.1558 57.0467L71.6271 58.004L72 58.1487L71.8831 58.5328L69.59 66.1135L69.4731 66.5086L69.0668 66.4252L66.6011 65.9075L66.1225 65.8074L66.256 65.3343L67.0909 62.3676L67.1855 62.8018L61.0909 55.8611L61.9258 55.6719L59.1262 65.902L59.1206 65.9242L59.0204 66.2916L58.6252 66.3027C54.718 66.4029 50.7495 66.4808 46.7644 66.5142L46.7532 66.5198ZM47.4879 65.106C51.167 65.1283 54.8571 65.1951 58.6141 65.2842L58.1187 65.6626C58.1354 65.6459 60.9573 55.4437 60.974 55.4215L61.2189 54.5476C61.6698 55.0374 67.5028 61.7888 68.0427 62.3899L67.9759 62.6292L67.1299 65.5903L66.7848 65.017L69.2449 65.5458L68.7217 65.8519L71.0538 58.2823L71.3098 58.8111L68.8441 57.837L69.4007 57.5754L69.3952 57.5977L68.7996 60.1246L68.5158 61.3213L67.6586 60.3361C58.8868 50.0782 49.5473 38.6014 42.6512 27.0523C40.7254 23.9409 38.7328 20.5179 36.9518 17.312C36.6345 16.722 36.4564 16.26 35.7662 16.4326C35.449 16.4771 35.1484 17.3009 34.9926 17.5458L34.1855 19.0819C33.1892 20.9242 31.8757 23.401 30.8627 25.1933C25.7588 34.2879 19.3692 42.6422 12.6846 50.6181C10.4471 53.273 8.17625 55.9001 5.86085 58.4827L5.57143 58.8055C5.18739 59.3287 4.48052 59.6014 3.86271 59.3955C3.43414 59.2675 3.06124 58.9279 2.89983 58.5105L2.59927 57.6867L3.28387 58.004C2.47126 58.2879 1.65863 58.5829 0.851576 58.8834C0.851576 58.889 1.17441 58.1988 1.17441 58.2378L3.63451 65.8018L2.94992 65.401L5.28201 65.0393C5.28201 65.0337 4.9091 65.6404 4.91467 65.6014L4.20224 62.5012L4.14657 62.2675L4.30799 62.0838L10.3525 55.2044L10.9202 54.5532L11.1484 55.3825L13.9982 65.6738L13.5529 65.3343L25.0575 65.3454C25.0575 65.3398 24.6568 65.5624 24.6902 65.5346C29.3321 58.761 32.4712 51.0634 34.6531 43.171C34.7922 42.7313 34.8924 41.9743 35.3488 41.7072C36.0278 41.1951 37.102 41.568 37.3135 42.3806L37.5529 43.1766C38.0204 44.7517 38.5158 46.3157 39.0557 47.8686C40.8312 53.0226 43.0631 58.0263 45.9685 62.6404C46.3636 63.2805 47.1762 64.4048 47.4991 65.0949L47.4879 65.106Z" fill="black"/>
<path d="M19.2188 13.3657C20.8051 16.2711 23.4433 18.1356 26.538 18.631C27.1669 18.7312 27.3283 19.5438 26.7829 19.8777C23.3209 22.0261 18.9962 21.8313 15.6623 19.5326C11.9276 16.9556 10.2467 12.0577 11.8942 7.49925C13.2522 3.74229 16.9869 0.803513 21.256 0.78125C21.6066 0.78125 21.7569 1.22095 21.4897 1.44359C17.8886 4.45472 16.9535 9.2191 19.2188 13.3601V13.3657Z" fill="#EDCA69"/>
<path d="M19.5696 13.171C20.9722 15.8537 23.6549 17.6515 26.5882 18.0856C27.8739 18.2693 28.0575 19.9836 26.8331 20.4845C20.36 24.3305 11.833 19.8333 10.9815 12.4641C10.0186 6.36392 14.8275 0.085644 21.1503 0.00772192C22.2078 -0.114727 22.8423 1.2489 22.0575 1.9836C18.7347 4.61625 17.4323 9.33054 19.5696 13.171ZM18.8683 13.555C16.4472 9.43629 17.2097 3.93164 20.9666 0.864852C20.705 1.11532 20.8943 1.54389 21.2393 1.56059C21.3061 1.56059 21.1837 1.56059 21.1781 1.56059C15.6457 1.58285 10.9536 6.8092 11.7329 12.3639C12.501 19.1932 20.4156 23.0726 26.2765 19.5272L26.4768 19.4103C26.5158 19.3825 26.5158 19.3769 26.5325 19.3658C26.5826 19.2712 26.5659 19.1765 26.41 19.1543C23.1596 18.6311 20.3933 16.3547 18.8683 13.5495V13.555Z" fill="black"/>
</svg>
