<svg width="55" height="77" viewBox="0 0 55 77" fill="none" xmlns="http://www.w3.org/2000/svg">
<path d="M39.2511 63.062L39.3119 50.2598C39.3119 49.5899 40.1176 49.2433 40.6048 49.7023L42.9657 51.918L42.9282 70.7021C42.9235 73.5876 40.6048 75.9906 37.5272 75.9813L6.29698 75.911C3.53792 75.9063 1.65015 73.0442 1.65015 70.5615V6.81286C1.65015 4.15217 3.88456 1.65076 6.63893 1.65076L37.8645 1.63202C40.6563 1.63202 42.8767 4.14749 42.8861 6.7707L42.961 23.5358L40.9421 25.4658C40.3284 26.0513 39.3119 25.6203 39.3073 24.7678L39.2745 12.8369C39.2745 11.5627 38.2392 10.5322 36.9651 10.5322H7.59453C6.31571 10.5322 5.28517 11.5674 5.28517 12.8416V62.9542C5.28517 63.877 6.03465 64.6265 6.96215 64.6265H37.6724C38.5437 64.6265 39.251 63.9239 39.2557 63.0526L39.2511 63.062Z" fill="#EDCA69"/>
<path d="M38.5486 63.0573C38.572 61.3288 38.6048 53.4451 38.6189 51.918C38.6142 51.5152 38.6282 50.6251 38.6235 50.241C38.6376 48.8873 40.3427 48.3251 41.1999 49.3182L41.4013 49.5103L41.8089 49.8897L43.4343 51.4121L43.6545 51.6182C43.6404 55.7451 43.6264 66.074 43.6076 70.0931C43.8653 73.7 41.0828 76.7308 37.4431 76.6652C31.9859 76.6464 21.7975 76.6183 16.2419 76.609L10.1851 76.5996C9.39349 76.5668 6.75154 76.6324 5.97395 76.5809C4.65298 76.5153 3.40695 75.7986 2.56378 74.8149C1.43954 73.5501 0.868058 71.8544 0.919585 70.1681C0.891479 60.1249 0.807162 49.9084 0.568262 39.8793C0.343416 29.349 0.0670421 18.622 0.00614611 8.07761C-0.0079068 6.93464 -0.0360126 5.61367 0.418365 4.51754C1.36459 1.86154 4.04402 -0.129288 6.91549 0.0065564C7.11223 0.00187209 7.83362 0.015925 8.0491 0.0065564C11.0752 0.0299779 17.1413 0.0533994 20.1627 0.100242C23.1794 0.170507 29.2596 0.25014 32.2763 0.31572C33.2506 0.343826 35.8692 0.385985 36.8201 0.414091C38.5439 0.334458 40.4785 0.756045 41.7854 2.03018C43.1205 3.24809 43.9402 5.0656 43.884 6.86438L43.8606 8.37741L43.8184 11.4082L43.6451 23.5264V23.8309C43.0455 24.3884 42.4366 24.9458 41.8463 25.5173L41.4576 25.8967C40.8158 26.604 39.6307 26.5759 38.9983 25.8639C38.6048 25.4657 38.5392 24.8896 38.5392 24.3556L38.4877 23.2641L38.3612 21.0859C38.2113 18.8047 37.9631 15.1696 37.9115 12.9118C37.9209 12.4153 37.5321 11.9703 37.0309 11.9375C36.9747 11.9375 36.9278 11.9281 36.8576 11.9328L35.7661 11.9281C27.4234 11.9047 17.9751 11.4456 9.60428 11.2864C9.31386 11.2957 8.26926 11.2536 7.96946 11.2629C7.26682 11.1974 6.62038 11.3894 6.23627 11.9984C5.88495 12.4809 6.00674 13.1601 5.988 13.7409V15.9191C5.94584 30.1688 6.32059 47.4492 6.34401 61.6988V62.7903V62.9261C6.34869 63.0432 6.37211 63.1744 6.44238 63.2728C6.66254 63.6288 7.08413 63.5632 7.4495 63.5679C16.5417 63.5772 26.6739 63.7833 35.7895 63.877C36.1081 63.863 37.1058 63.9005 37.4244 63.8958H37.6867C37.7382 63.8958 37.7851 63.8958 37.8319 63.8817C38.2254 63.8208 38.5486 63.4554 38.5486 63.0432V63.0573ZM39.9539 63.062C39.982 64.3923 38.7407 65.4884 37.4197 65.362C37.1058 65.376 36.1221 65.3713 35.7849 65.3807C27.4421 65.4463 17.9423 65.6758 9.62302 65.6758C9.25765 65.6618 7.21529 65.7039 6.85928 65.6852C5.4212 65.6664 4.18923 64.3736 4.2267 62.9355C4.23139 60.94 4.24076 57.2113 4.25949 55.1689C4.30634 49.6555 4.47029 34.7172 4.53587 29.0071C4.57334 24.8006 4.59676 20.1537 4.58271 15.9285V13.7503C4.56866 12.9305 4.53587 11.989 5.02304 11.2629C5.59921 10.2511 6.83586 9.71243 7.96478 9.80143C8.27863 9.78738 9.26702 9.79207 9.5996 9.77801C18.3733 9.62343 28.1073 9.11753 36.8529 9.13158C38.9046 9.02384 40.769 10.8695 40.6425 12.9212L40.6284 13.4646L40.5956 14.556C40.5394 15.9566 40.3286 19.6291 40.2396 21.0953C40.2115 21.8541 40.0944 23.6389 40.0757 24.3649C40.0757 24.4586 40.0288 24.8427 40.0897 24.9224C40.1647 25.0582 40.3661 25.0723 40.4785 24.9739C41.1578 24.3509 41.837 23.6857 42.4928 23.0393L42.282 23.5405L42.0009 11.4269L41.9307 8.39614C41.8932 7.76845 41.9588 6.28821 41.6918 5.67925C41.1999 4.18027 39.8227 2.93893 38.2254 2.82651L26.2289 3.06072C20.3782 3.20125 12.7662 3.26215 6.92018 3.29025C4.7935 3.16378 3.08373 5.22955 3.28516 7.31407V8.07293C3.13058 28.979 2.29209 49.9646 2.38109 70.8707C2.51225 72.8709 3.9597 75.0585 6.08169 75.2224C6.76091 75.2599 9.45907 75.2505 10.1992 75.2552C14.0263 75.2693 24.4067 75.288 28.3696 75.302L34.4264 75.3114H37.4572C39.7103 75.377 41.8229 73.7281 42.1696 71.489C42.2586 71.03 42.2351 70.5709 42.2445 70.0931C42.2445 66.3082 42.2632 55.8528 42.2726 51.9227L42.4928 52.4333L40.872 50.9062L40.1225 50.2036C40.1038 50.1801 40.0523 50.1895 40.0195 50.2176C40.0101 50.2317 40.0054 50.2363 40.0007 50.2691V50.8219C39.9867 53.1781 39.9679 60.6214 39.9633 63.076L39.9539 63.062Z" fill="black"/>
<path d="M49.7021 51.4578L42.1401 44.1914C41.2489 43.3336 39.8373 43.3336 38.9462 44.1914L31.4092 51.4703L27.0619 47.302L34.4365 40.2022C35.415 39.2612 35.415 37.6954 34.4365 36.7502L27.0327 29.5921L31.3884 25.4364L39.0336 32.7985C39.8789 33.6146 41.224 33.6105 42.0651 32.7901L49.6729 25.3947L54.0161 29.5546L46.2542 37.1083C45.5005 37.8412 45.5046 39.0571 46.2625 39.7858L54.0327 47.2479L49.7021 51.4536V51.4578Z" fill="#EDCA69"/>
<path d="M49.702 52.0825C47.0495 49.6964 44.1888 47.0064 41.5779 44.533C40.9907 44.0624 40.0955 44.0582 39.5083 44.533C39.2543 44.7578 38.7213 45.2783 38.4465 45.5448C37.0307 46.9148 33.2997 50.5168 31.8381 51.9242C31.8381 51.9242 31.4217 52.3323 31.4175 52.3323L30.9678 51.9284L26.4914 47.9017C26.4914 47.9017 25.8501 47.3271 25.8501 47.3229L26.4872 46.7191C27.9779 45.3075 31.6882 41.7888 33.1248 40.4313C33.3122 40.2481 33.7702 39.8275 33.9409 39.6526C34.5281 39.0988 34.6072 38.1078 34.1117 37.4665C33.866 37.1625 33.3996 36.7419 33.1206 36.4588C31.7173 35.0805 28.0362 31.4619 26.5913 30.0461L26.1249 29.5922L26.5913 29.1466C26.8078 28.9176 31.3467 24.6244 31.4133 24.5536C32.9082 26.2318 34.4698 27.8558 36.0646 29.4339C36.7933 30.1543 37.5221 30.8706 38.2633 31.5743C38.6297 31.9199 39.017 32.2988 39.3626 32.6111C40.008 33.1775 41.049 33.1691 41.6903 32.5987C41.9943 32.3155 42.469 31.8408 42.7688 31.5451C44.8675 29.4381 47.1911 27.1062 49.2273 24.9575L49.6396 24.5245L50.0935 24.9534C50.4016 25.2532 54.7989 29.3715 54.9821 29.5547C54.8947 29.6463 50.3017 34.0852 50.0601 34.3226L47.8532 36.4588C47.5825 36.7586 46.5748 37.5914 46.4374 37.9454C46.2208 38.4034 46.325 38.9822 46.6997 39.3278L47.8074 40.3938L50.0185 42.5259C50.1851 42.6799 54.9196 47.2604 54.9155 47.2479C53.2332 48.9094 51.4385 50.5459 49.6895 52.0825H49.702ZM49.6979 50.8332C50.9971 49.4258 52.2505 48.1016 53.5955 46.8024V47.7018L53.5871 47.6893C52.0922 46.2569 48.3654 42.6966 46.9246 41.3224L45.8128 40.2606C45.0466 39.5527 44.8175 38.3451 45.2631 37.3999C45.5171 36.7669 46.4957 35.9966 46.9496 35.5135C48.3654 34.131 52.0839 30.4958 53.5413 29.0717V30.0461L53.533 30.0377L49.2357 25.8487H50.1018L50.0935 25.857C47.8907 27.8224 45.4963 30.0835 43.331 32.1156C43.1353 32.2988 42.6855 32.7361 42.5023 32.911C41.6029 33.9395 39.9122 34.0977 38.8879 33.1691C38.4798 32.7902 38.1425 32.4487 37.7677 32.0865C35.5608 29.9461 33.3122 27.8599 30.9511 25.8861C30.947 25.8903 31.8464 25.8778 31.8089 25.8945L27.4616 30.0419C27.4658 30.0461 27.4533 29.1133 27.4699 29.1466C28.9565 30.5624 32.6626 34.0852 34.095 35.4511L34.6488 35.9757C35.948 36.9876 36.3103 38.9614 35.3109 40.3064C35.0111 40.7186 34.5197 41.135 34.1658 41.4973L31.988 43.6293L27.6323 47.8934C27.6323 47.8934 27.624 46.6983 27.6323 46.7149L31.8422 51.0206H30.9761C32.4627 49.5882 36.1562 46.0195 37.5845 44.6371L38.1342 44.1041C39.1627 42.859 41.0407 42.4842 42.3566 43.5461C42.7022 43.8459 43.1394 44.2873 43.4725 44.6037C45.5171 46.59 47.7033 48.7845 49.702 50.8291L49.6979 50.8332Z" fill="black"/>
</svg>
