<svg width="48" height="68" viewBox="0 0 48 68" fill="none" xmlns="http://www.w3.org/2000/svg">
<path d="M42.4869 66.742L5.11975 66.7322C2.91015 66.7322 0.955322 65.184 0.955322 62.8862V31.8392C0.955322 29.6639 2.76317 28.0422 4.82579 28.0275L7.16277 28.0128L7.18727 17.2245C7.20686 8.13135 14.8743 1.07632 23.7372 0.988129C32.605 0.899941 40.4439 7.89618 40.4978 16.9991L40.5566 28.0177L42.6241 28.003C44.9464 27.9834 46.7493 29.5904 46.7493 32.0107V62.7344C46.7444 65.1448 44.9072 66.7518 42.482 66.7518L42.4869 66.742ZM34.55 28.0226L34.5255 16.9991C34.0209 11.3453 29.5331 7.06819 23.9675 7.0192C18.4018 6.97021 13.6789 11.0954 13.2869 16.8032L13.1938 28.0373L34.55 28.0275V28.0226ZM28.0878 57.0217L26.3583 47.0418C29.2195 45.3809 29.587 41.6819 27.5685 39.4038C25.5499 37.1256 22.0028 37.1452 20.0235 39.5262C18.0442 41.9073 18.6174 45.327 21.3561 47.0418L19.5973 57.0511L28.0927 57.0217H28.0878Z" fill="#EDCA69"/>
<path d="M42.4869 67.9669C32.1003 67.9131 21.7137 67.2027 11.3272 67.2271C9.15186 67.2271 6.96676 67.3643 4.79146 67.428C2.71904 67.428 0.646624 66.0121 0.186087 63.9103C-0.0441813 62.9304 0.0881006 60.8286 0.0440066 59.8292C-0.0294833 52.3822 0.00481201 41.3391 0.034208 33.8627V32.5644V31.9128C0.0146107 30.5851 0.607429 29.2231 1.61179 28.3608C2.49367 27.5573 3.6989 27.1409 4.87964 27.1605C5.62924 27.1849 6.41313 27.2094 7.15783 27.2731L6.42783 28.008L6.32005 18.8561C6.29065 17.3373 6.30535 15.6568 6.58951 14.1331C7.42239 9.3416 10.5041 5.06448 14.6636 2.58542C24.9081 -3.769 38.9986 2.15918 41.0955 14.1527C41.3845 15.6568 41.36 17.3422 41.3502 18.861L41.2963 28.0129C41.2963 28.0129 40.5517 27.2829 40.5565 27.2829L41.9872 27.2584C43.6333 27.1311 45.3726 27.5769 46.4798 28.9193C47.9202 30.4675 47.5332 33.0494 47.6067 34.9455L47.7586 46.3952C47.7929 49.4132 47.9839 59.2413 47.979 62.1368C48.2534 65.4732 45.8037 68.0111 42.4918 67.9768L42.4869 67.9669ZM42.4869 65.5173C44.5397 65.4879 45.6861 64.1357 45.5196 62.127C45.5245 61.2794 45.5441 58.7317 45.5637 57.8351C45.6616 50.7507 45.8772 39.1344 45.9311 32.0745C46.0389 30.2078 44.5397 28.738 42.7025 28.7527C41.9088 28.7429 40.6398 28.738 39.8412 28.7625C39.8217 27.4397 39.6747 18.9835 39.66 17.7194C39.66 16.4554 39.5326 15.1522 39.2827 13.9225C39.1896 13.4913 38.9447 12.7858 38.8369 12.3694C34.4079 0.405224 18.4459 -1.6378 10.945 8.592C9.48011 10.635 8.53454 13.0357 8.20139 15.5294C7.98582 17.7537 7.98582 25.627 7.90743 28.008L7.89273 28.7478C7.25582 28.7184 6.50622 28.8017 5.87421 28.8409L5.2275 28.8752C4.36521 28.8752 3.46374 29.1104 2.82682 29.713C2.19481 30.2813 1.85676 31.075 1.87636 31.9177V32.5693V33.8676L1.91555 44.2542C1.91555 47.6298 1.90085 56.5515 1.87146 59.8341C1.90085 60.3681 1.78817 63.0137 1.90575 63.5331C2.21931 65.14 3.89978 66.1101 5.48226 66.066C17.8139 66.6735 30.1553 65.5369 42.4869 65.5271V65.5173Z" fill="black"/>
<path d="M33.6828 27.1604L33.8788 22.2414C33.9474 20.5414 33.9964 18.7825 34.0356 16.9991C33.9621 16.3671 33.7416 15.2697 33.335 14.5789C32.2228 12.3546 30.6844 10.3116 28.4552 9.14063C26.2897 7.94519 23.7078 7.68063 21.3022 8.23915C20.342 8.28325 19.4993 8.77318 18.6958 9.24841C18.1128 9.65016 17.4856 10.1009 17.0104 10.6349C15.2908 12.4085 14.3011 14.8189 14.2864 17.2931C14.2521 20.8794 14.2227 24.4608 14.0463 28.0471L13.1889 27.1799C16.1775 27.4347 20.484 27.2387 23.5167 27.1897C26.9218 27.1408 30.2925 27.1359 33.6779 27.1604H33.6828ZM35.4172 28.8849C31.6839 28.9143 27.9359 28.9143 24.2222 28.8702C20.6408 28.782 15.8983 28.6595 12.3659 28.9486C12.2189 25.0389 12.2434 21.1244 12.2728 17.2147C12.2483 16.7885 12.3463 16.2594 12.405 15.7645C12.9342 12.3693 15.2173 9.38559 18.2156 7.76881C19.0485 7.26908 19.9794 7.03881 20.8466 6.56358C21.5374 6.32351 22.2674 6.22063 22.9925 6.14714C27.6322 5.6866 32.4482 8.40083 34.2022 12.7661C35.2849 16.0291 34.986 19.3606 35.1869 22.7853L35.4074 28.8898L35.4172 28.8849Z" fill="black"/>
<path d="M27.1519 56.233C27.0343 55.0572 26.7648 53.0876 26.6178 51.8628C26.3827 50.2999 26.3043 48.6489 25.6821 47.1546L25.5694 46.8704L26.0152 46.4393C27.3821 45.2487 28.2689 43.4899 27.7349 41.6771C27.4164 40.3935 26.417 39.2813 25.1676 38.811C24.9815 38.7375 24.7463 38.5317 24.5503 38.4974C21.5029 37.8997 18.9455 41.4468 20.1948 44.2101C20.5917 45.2634 21.4931 46.013 22.4044 46.6352C22.3309 46.9929 21.8606 49.2809 21.7773 49.6875C21.2188 52.1715 20.6798 54.6554 20.4643 57.1933L19.5922 56.1595C22.179 56.0223 24.5797 56.0517 27.1519 56.2281V56.233ZM29.0234 57.8057C25.5449 58.0262 21.9292 58.0458 18.4604 57.8939C19.504 54.3419 19.8666 50.5302 20.4153 46.8753L20.8464 47.8405C15.1681 44.3766 18.2645 36.0723 24.7953 37.0325C27.0833 37.057 28.9646 39.0707 29.5868 41.1774C30.2874 43.627 29.1753 46.6989 26.706 47.6347L27.0392 46.9194C26.9804 48.737 27.4948 50.4126 27.8329 52.1911L29.0283 57.8057H29.0234Z" fill="black"/>
</svg>
