<svg width="64" height="64" viewBox="0 0 64 64" fill="none" xmlns="http://www.w3.org/2000/svg">
<path d="M27.7935 0.280427C45.7104 -2.06439 61.4643 10.5724 63.7259 27.8278C66.0136 45.2791 53.7284 61.329 36.3804 63.6938C18.9477 66.071 2.9147 54.0324 0.346348 36.7369C-2.22201 19.4413 9.74875 2.6422 27.7935 0.280427ZM33.4868 34.9794L39.1276 34.9501L40.2962 27.7461L33.496 27.7384L33.4313 22.6156C33.4112 21.0431 34.6276 19.3797 36.3758 19.3458L40.4997 19.2656L40.4781 13.2625L34.5474 12.928C30.3002 12.6875 26.571 15.5025 25.9467 19.9408C25.5967 22.4337 25.6923 24.9434 25.6599 27.7122L19.2221 27.7292L19.219 35.0118L25.6846 34.9702L25.6815 52.665L33.4559 52.7806L33.4852 34.9794H33.4868Z" fill="#E3CC9F"/>
<path d="M33.4865 34.9796L33.4572 52.7808L25.6827 52.6652L25.6858 34.9703L19.2202 35.012L19.2233 27.7293L25.6611 27.7123C25.6935 24.9436 25.5979 22.4338 25.9479 19.941C26.5723 15.5026 30.3015 12.6876 34.5486 12.9281L40.4793 13.2626L40.5009 19.2657L36.377 19.3459C34.6288 19.3798 33.4125 21.0448 33.4325 22.6157L33.4973 27.7385L40.2974 27.7463L39.1288 34.9503L33.488 34.9796H33.4865Z" fill="black"/>
</svg>
