<svg width="65" height="65" viewBox="0 0 65 65" fill="none" xmlns="http://www.w3.org/2000/svg">
<path d="M28.4414 0.265659C46.5463 -2.03444 62.5076 10.8752 64.7341 28.371C67.0154 46.2943 54.3532 62.5828 36.3908 64.7655C18.7995 66.9028 2.5563 54.466 0.274987 36.7165C-2.00632 18.9671 10.1283 2.59238 28.4414 0.265659ZM42.8761 51.455C48.051 50.3511 51.4941 46.1111 51.5019 40.9895L51.527 24.4175C51.5364 18.5741 47.1569 13.667 41.1726 13.6654L23.9242 13.6623C17.5954 13.6623 13.3835 18.8356 13.4321 24.8653L13.5714 41.86C13.609 46.4227 17.6659 51.2812 22.432 51.3141L42.8746 51.455H42.8761Z" fill="#E3CC9F"/>
<path d="M42.876 51.4553L22.4335 51.3144C17.6673 51.2815 13.6104 46.423 13.5729 41.8603L13.4335 24.8656C13.385 18.8359 17.5969 13.661 23.9257 13.6626L41.1741 13.6657C47.1584 13.6657 51.5363 18.5744 51.5284 24.4178L51.5034 40.9898C51.4955 46.1114 48.0524 50.353 42.8776 51.4553H42.876ZM40.8985 48.175C44.7643 48.1985 48.09 45.3598 48.0838 41.4141L48.0556 23.6083C48.0493 19.7315 44.5655 16.9789 40.8797 16.9836L23.8364 17.0086C20.0535 17.0149 17.2728 19.8411 16.8281 23.519L16.886 41.4752C16.8954 44.591 19.6684 48.0498 22.875 48.0686L40.9001 48.175H40.8985Z" fill="black"/>
<path d="M40.8986 48.1744L22.8736 48.0679C19.6669 48.0491 16.8956 44.5904 16.8846 41.4745L16.8267 23.5184C17.2713 19.8404 20.0521 17.0142 23.835 17.008L40.8783 16.9829C44.5641 16.9782 48.0479 19.7308 48.0541 23.6076L48.0823 41.4134C48.0886 45.3592 44.7629 48.1979 40.8971 48.1744H40.8986ZM41.442 20.6217C40.1909 21.5095 40.2034 23.2303 41.038 24.0335C41.6737 24.6442 43.1549 24.8775 43.7828 24.4077C44.8052 23.6421 45.1168 22.1405 44.6017 21.3373C43.9973 20.3931 42.4065 19.9359 41.4404 20.6217H41.442ZM30.7181 22.4302C24.8199 23.4824 21.3392 29.1849 22.3741 34.4818C23.4796 40.1342 28.8298 43.8858 34.515 42.7459C39.8057 41.6859 43.7327 36.4656 42.7588 30.9761C41.7911 25.5241 36.7227 21.3592 30.7181 22.4302Z" fill="#E3CC9F"/>
<path d="M30.718 22.4303C36.7227 21.3593 41.791 25.5242 42.7587 30.9762C43.7326 36.4657 39.8057 41.686 34.515 42.746C28.8297 43.8859 23.4795 40.1343 22.3741 34.4819C21.3391 29.1849 24.8198 23.4825 30.718 22.4303ZM31.1893 26.0331C27.0792 26.8379 25.1627 30.7131 25.9049 34.103C26.7269 37.8561 30.2373 39.9292 33.754 39.2825C37.5009 38.5936 39.9059 34.9861 39.0979 31.1782C38.3871 27.8274 35.1616 25.2565 31.1893 26.0331Z" fill="black"/>
<path d="M41.4421 20.6218C42.4082 19.936 43.999 20.3932 44.6034 21.3374C45.117 22.1406 44.8069 23.6422 43.7845 24.4078C43.1566 24.8776 41.6754 24.6458 41.0397 24.0336C40.2052 23.2304 40.1911 21.5096 41.4437 20.6218H41.4421Z" fill="black"/>
<path d="M31.1892 26.034C35.1615 25.2573 38.3869 27.8283 39.0978 31.179C39.9057 34.987 37.4992 38.5945 33.7539 39.2834C30.2356 39.9301 26.7267 37.857 25.9047 34.1039C25.1625 30.714 27.079 26.8388 31.1892 26.034Z" fill="#E3CC9F"/>
</svg>
