<svg width="737" height="7" viewBox="0 0 737 7" preserveAspectRatio="none" fill="none" xmlns="http://www.w3.org/2000/svg">
<path d="M61.1992 0.676724C59.5339 0.361053 65.0928 0.567983 61.4016 0.0965528C62.1712 0.0647012 62.9457 0.0318512 63.7154 -6.81513e-09C63.9106 0.174592 64.1105 0.348759 64.3058 0.52335C63.2722 0.574763 62.238 0.626167 61.1992 0.677579C61.1992 0.677294 61.1992 0.677009 61.1992 0.676724ZM59.7878 2.86326C60.7352 2.36529 63.7447 2.23252 60.4935 1.77298C60.235 1.94389 59.9703 2.11475 59.7119 2.28565C58.583 2.1531 57.4474 2.02059 56.3185 1.88876C55.9125 1.95392 55.5071 2.01914 55.1011 2.08358C54.5842 1.78659 54.0718 1.48881 53.5549 1.1911C54.0138 1.23457 54.4792 1.27879 54.9381 1.32226C56.7527 1.08109 58.3673 1.01514 60.8309 0.970228C60.6144 0.899956 60.3978 0.830305 60.1814 0.760033C61.4316 0.879556 62.6813 0.999379 63.9262 1.1189C62.845 1.23623 61.636 1.36671 60.634 1.47606C62.2375 1.94171 65.066 1.68255 66.538 1.58543C68.5427 1.45286 68.0897 1.67428 69.5772 1.58159C69.8146 1.5671 69.8416 1.39355 70.311 1.39062C72.6798 1.37685 77.2807 1.46884 74.59 1.87381C70.6912 1.82165 67.366 2.14685 63.5411 2.02804C64.5529 2.49629 62.5379 2.65563 59.7878 2.86326ZM131.412 1.37225C130.23 1.59967 127.824 1.50789 126.194 1.35003C126.192 1.35003 126.19 1.35003 126.188 1.35003C125.829 1.31526 125.017 1.01302 126.188 1.02534C128.097 1.04644 129.021 1.5222 130.023 1.19922C130.471 1.25935 130.942 1.31284 131.412 1.37225ZM135.561 1.34405C136.733 1.46068 136.201 1.81916 134.735 1.72214C134.735 1.72243 134.735 1.72271 134.735 1.723C134.123 1.68243 135.324 1.39908 133.13 1.68668C132.681 1.46293 132.24 1.25937 131.797 1.04286C132.334 1.03923 132.824 1.03336 133.388 1.03047C133.009 1.39825 134.39 1.22833 135.561 1.34405ZM76.5692 1.6713C76.7535 1.34043 75.9821 1.34252 74.6687 1.11292C75.9084 1.12379 77.1482 1.13538 78.3826 1.14624C77.776 1.32149 77.1757 1.49606 76.5692 1.6713ZM47.4456 1.62004C47.4438 1.62004 47.4419 1.62004 47.44 1.62004C47.0338 1.67219 46.6264 1.72454 46.2255 1.77597C45.9827 1.65789 45.743 1.54032 45.5001 1.42223C44.0651 1.53307 42.6226 1.6439 41.1874 1.75547C41.3619 1.39476 43.9375 1.45345 45.3568 1.20136C47.4669 1.31003 48.4836 1.5194 48.6208 1.8251C48.2306 1.75704 47.8412 1.68811 47.4456 1.62004ZM392.56 3.05808C393.04 2.95813 393.513 2.85811 393.993 2.75816C393.355 2.71255 392.722 2.67773 392.079 2.62487C390.396 3.05948 390.238 2.67504 388.033 2.70177C381.275 2.78435 383.068 3.45938 376.965 2.47064C381.865 2.51768 379.982 2.05309 382.936 1.69523C383.548 1.96762 380.621 2.58196 382.604 2.70946C386.022 2.42118 389.31 2.15268 393.102 1.96652C392.991 1.91943 392.881 1.87219 392.77 1.8251C392.169 1.85481 391.573 1.88469 390.971 1.91439C391.62 1.78834 392.254 1.66338 392.914 1.53587C392.08 1.822 394.205 1.66212 393.92 1.99087C393.794 2.13721 392.855 2.34022 392.301 2.48004C393.73 2.55609 395.196 2.62576 396.642 2.69963C395.893 2.81622 395.145 2.93294 394.401 3.04953C393.789 3.05315 393.182 3.05574 392.571 3.05936C392.567 3.05893 392.563 3.0585 392.56 3.05808ZM700.231 1.53673C698.416 1.87722 695.118 1.93356 693.382 1.55467C695.667 1.54888 697.947 1.54252 700.231 1.53673ZM48.7586 2.07717C48.5531 2.01928 48.354 1.96202 48.1485 1.90414C49.0558 1.79695 49.9683 1.69049 50.8756 1.5833C51.0496 1.75057 51.2278 1.91788 51.4069 2.08443C50.5262 2.08226 49.6393 2.07934 48.7586 2.07717ZM106.803 1.8909C106.14 1.90102 106.081 1.89554 105.254 1.87167C105.255 1.87181 105.256 1.87196 105.257 1.8721C104.929 1.86319 102.188 1.76548 102.493 1.6367C103.854 1.63453 105.306 1.6367 106.699 1.6367C106.742 1.72141 106.751 1.80546 106.803 1.8909ZM90.781 1.81571C90.7791 1.81542 90.7773 1.81514 90.7754 1.81485C90.2798 1.79529 89.8107 1.75546 89.2994 1.7482C91.14 1.54551 91.4311 1.90917 93.1032 1.80631C94.7754 1.70272 95.8087 1.50207 97.2276 2.00027C96.7 2.07488 96.132 2.18163 95.5885 2.26856C93.2147 2.06936 92.5755 2.25683 90.6713 2.45313C90.7083 2.24017 90.744 2.02866 90.781 1.81571ZM362.472 2.05025C362.018 2.29654 361.512 2.05487 361.46 2.05196C361.461 2.05168 361.461 2.05139 361.462 2.05111C357.444 2.2792 361.985 1.91478 358.193 1.87637C358.757 1.81481 359.312 1.74982 359.871 1.68754C360.736 1.80631 361.628 1.9409 362.472 2.05025ZM231.901 2.02718C231.864 1.95546 231.819 1.88358 231.782 1.81186C234.062 1.82852 234.643 1.54619 236.537 1.80332C234.991 1.87864 233.446 1.95343 231.901 2.02804C231.901 2.02775 231.901 2.02747 231.901 2.02718ZM118.291 2.41254C115.764 2.54946 113.894 2.60979 111.467 2.39246C111.466 2.39217 111.464 2.39189 111.462 2.39161C111.322 2.37823 111.999 2.22818 111.816 2.19038C111.315 2.21282 110.798 2.24733 110.292 2.27412C110.224 2.15396 110.158 2.03383 110.09 1.91439C111.514 1.94844 112.939 1.98246 114.369 2.0165C114.158 1.94623 113.942 1.87658 113.731 1.80631C114.944 1.77009 116.153 1.73401 117.366 1.69779C116.944 1.89477 116.523 2.0918 116.106 2.2895C116.834 2.33077 117.563 2.37054 118.291 2.41254ZM269.844 2.81199C269.443 2.73375 270.185 2.60253 269.562 2.53515C268.94 2.46863 267.792 2.61464 268.061 2.39374C268.899 2.36406 269.78 2.33002 270.634 2.2989C267.885 1.90056 265.143 2.26101 265.101 1.76914C267.738 1.89664 269.908 1.8374 272.461 1.70121C272.356 2.09165 269.801 2.42923 271.41 2.79576C270.893 2.80083 270.35 2.80824 269.849 2.81114C269.847 2.81142 269.845 2.81171 269.844 2.81199ZM11.8389 6.97316C10.2773 6.94346 6.69928 7.10281 4.72601 6.87533C4.2406 6.81927 2.62329 6.0931 2.63147 5.99738C2.67908 5.67501 4.65399 5.63113 2.5387 5.42106C3.25031 5.41888 3.94092 5.40677 4.64728 5.40098C4.52063 5.18437 4.39471 4.96834 4.27338 4.75245C3.41345 4.78505 2.55231 4.81781 1.6925 4.85114C1.65015 4.77942 1.60822 4.70754 1.56598 4.63582C4.65759 4.63437 2.83246 4.35755 4.43646 4.09965C2.95935 3.96928 1.47168 3.83954 0 3.70917C0.849304 3.7251 1.85138 3.7369 2.60059 3.75573C2.70068 3.38847 0.913635 3.47604 0.607239 3.40797C-1.1178 3.02332 7.66498 3.21746 8.38367 2.68297C6.98071 2.62358 5.50848 2.56562 4.07373 2.50696C4.48535 2.44103 4.90204 2.37507 5.3136 2.30915C8.56836 2.67779 12.2184 2.80839 16.011 3.038C16.3538 3.0228 16.697 3.00719 17.0344 2.99271C16.9343 2.82688 16.8394 2.66168 16.7393 2.49585C17.2562 2.47629 17.7797 2.45688 18.2968 2.43732C16.7725 2.98349 18.8834 2.97605 21.4315 3.30928C20.0759 3.50123 18.4036 3.38486 18.5189 3.74249C23.1716 3.46734 28.6206 3.85619 33.1467 3.54554C34.2702 3.46876 34.2668 3.00741 36.9084 3.04996C36.8187 3.10067 36.8034 3.19222 36.7454 3.25887C41.3141 3.03791 44.0863 2.90583 48.8345 3.13113C48.5602 2.96532 48.2906 2.7988 48.0164 2.63299C47.0087 2.71557 45.9993 2.79947 44.9969 2.88206C44.3113 2.60824 45.3245 2.4874 42.3176 2.49029C39.8537 2.49247 41.3205 2.61337 40.6505 2.69451C39.7431 2.80528 38.947 2.58737 37.9711 2.71117C37.2167 2.80607 38.0328 3.032 36.065 2.97477C36.8563 2.68209 37.6636 2.37988 38.4603 2.08358C38.9404 2.1495 39.4169 2.21644 39.897 2.28309C39.4116 2.36133 38.9344 2.43854 38.4491 2.51678C40.1582 2.37625 41.7733 2.2437 43.5406 2.0981C42.9655 2.52118 44.7921 2.36256 45.7841 2.31257C47.3291 2.23441 46.0054 2.52558 47.0183 2.47705C48.0312 2.42777 49.1237 2.10247 50.9543 2.17201C49.9733 2.36034 51.3078 2.52922 51.0499 2.70305C50.7914 2.87688 48.8552 2.91537 50.7153 3.10507C54.2922 2.96091 50.4109 2.29891 52.8267 2.19166C55.7281 2.06272 56.4187 3.14183 55.5538 3.3738C54.8732 3.55636 52.5314 3.51964 51.8455 3.70148C56.0396 4.02963 56.0762 3.3818 56.7936 3.25503C59.3998 2.79359 57.649 4.02519 60.7353 3.57972C60.6773 3.81003 60.6302 4.01718 60.5722 4.23807C61.1048 4.19606 61.4581 4.14022 62.1016 4.10691C60.2044 3.65816 61.7572 3.6774 62.5543 3.6767C63.8099 3.67525 61.8704 3.45636 62.2028 3.39986C63.0998 3.24864 64.5181 3.3173 63.6479 3.1196C64.0383 3.2116 64.4615 3.30388 64.8624 3.39516C66.3293 3.28052 69.7771 2.31923 66.4958 2.51336C66.8018 2.15621 67.8633 2.32787 68.6916 2.38221C69.5198 2.43649 69.5042 2.20903 70.2322 2.25105C73.1283 2.41913 71.2339 2.8082 70.7748 3.11319C74.5995 2.90311 70.8551 2.76412 76.3668 2.62359C76.8995 2.37511 74.353 2.10996 76.4736 1.96652C76.8643 2.3982 78.4257 2.7083 81.4695 2.85173C81.7651 2.75248 82.0596 2.65235 82.3552 2.5531C84.017 2.95154 83.1675 3.36587 86.2433 2.87181C84.5919 3.78096 85.7275 3.19933 88.4813 3.56946C89.0403 3.64408 87.7484 3.83271 88.5291 3.92833C88.8829 3.97146 89.7424 3.82908 90.6067 3.93901C91.0286 3.99334 93.002 4.3439 94.3683 4.1774C93.366 3.73694 95.9622 3.36223 93.7358 2.99784C97.8508 3.08767 100.731 2.87619 96.1199 3.47676C97.1646 3.61005 98.2099 3.74278 99.2546 3.87536C99.9827 3.77031 100.717 3.66609 101.45 3.56177C101.561 3.92378 101.45 4.02534 104.318 3.96166C103.073 4.0471 101.834 4.13396 100.584 4.22013C100.542 4.29323 100.368 4.36921 100.41 4.44015C101.941 4.30111 106.251 4.24127 107.295 4.14494C108.34 4.04858 106.323 4.02221 106.623 3.92876C109.129 3.15813 108.93 3.7265 110.728 3.59424C111.783 3.516 109.264 3.43104 109.828 3.39772C111.922 3.27558 112.893 3.68515 114.748 3.69037C114.089 3.45789 113.435 3.2218 112.792 2.98716C114.738 2.99947 116.909 3.00154 118.718 2.92692C119.428 2.89779 118.892 2.72489 119.008 2.71331C119.583 2.6539 121.925 2.5598 122.173 2.55908C124.04 2.5577 124.093 2.79717 125.907 2.81029C125.195 2.83056 124.526 2.84884 123.829 2.86839C123.513 3.25664 123.19 3.64488 122.873 4.03386C124.651 4.06211 126.429 4.08977 128.212 4.11802C126.909 3.98837 125.602 3.85933 124.299 3.72967C126.335 3.416 128.372 3.10161 130.408 2.78722C131.469 2.97991 132.525 3.17256 133.585 3.36525C136.465 3.31442 135.885 2.53222 137.251 3.21743C138.1 3.1595 138.949 3.10161 139.798 3.0444C139.677 3.14217 139.557 3.24014 139.436 3.33791C140.459 3.27778 141.482 3.21805 142.506 3.15719C141.43 2.81095 140.375 2.44659 139.309 2.11049C141.323 2.03525 141.362 2.32898 141.662 2.40229C142.459 2.59644 144.04 2.33456 144.673 2.51422C144.887 2.5759 142.913 2.76927 143.594 2.99228C143.727 3.03551 146.369 3.85531 148.055 3.66602C148.024 3.5175 147.893 3.33541 147.825 3.17385C150.093 3.08365 151.249 3.85886 150.948 4.07615C152.156 3.92403 153.922 3.91132 154.17 3.67371C154.787 3.66791 155.4 3.66241 156.017 3.65662C155.374 4.23532 157.949 4.1295 158.117 3.63184C157.057 3.61952 155.995 3.60656 154.935 3.59424C155.737 2.98427 152.514 2.61609 159.22 3.18112C160.502 3.49843 156.941 3.13789 157.985 3.3755C159.8 3.51381 161.504 3.39809 163.229 3.61902C165.375 3.89502 162.734 4.16047 167.735 3.80914C156.704 2.92895 169.248 3.21454 174.429 2.94144C175.854 3.81078 180.229 4.08614 186.254 3.82751C185.627 3.58556 183.731 3.71021 182.639 3.63056C181.547 3.55088 182.728 3.40734 181.368 3.29433C180.007 3.18135 177.117 3.02776 175.74 2.85685C176.906 2.71992 182.665 2.39617 178.857 2.78508C181.7 3.02482 183.035 3.27118 186.558 3.31612C187.613 2.9387 187.535 2.70369 190.969 2.6928C188.938 3.21726 192.84 3.58176 191.981 4.12357C189.546 3.99738 190.907 3.47077 189.499 3.21871C189.354 3.19352 187.085 3.32553 186.558 3.31612C188.847 3.78918 189.639 3.96526 188.231 4.52816C189.85 4.47889 190.858 4.54956 191.006 4.28079C191.343 4.39739 191.683 4.51409 192.015 4.63069C192.542 4.62779 193.016 4.61699 193.575 4.61916C192.806 4.21373 194.297 4.46331 195.358 4.27951C196.418 4.0955 194.995 3.77546 197.908 3.77111C196.937 3.67621 196.049 3.59478 195.11 3.50495C196.988 3.40065 198.872 3.29568 200.75 3.19137C199.431 2.94365 196.573 2.57569 196.651 2.24977C197.516 2.37282 200.479 2.15656 200.803 2.14766C202.059 2.11433 201.375 2.31989 201.47 2.32496C203.442 2.42485 205.067 2.35486 205.816 2.66631C207.299 2.52578 208.416 2.6059 209.988 2.59795C210.853 2.59361 210.685 2.36485 211.192 2.40827C214.557 2.69802 211.351 2.99364 217.843 2.43091C217.057 2.27155 216.282 2.10853 215.496 1.94772C216.229 1.88759 216.958 1.82713 217.692 1.767C218.182 1.79598 218.668 1.82518 219.159 1.85416C219.149 2.19968 219.136 2.54593 219.125 2.89146C219.664 2.91029 220.204 2.92859 220.742 2.94742C219.819 2.98147 218.893 3.01548 217.97 3.04953C217.886 3.11033 217.807 3.17116 217.723 3.23196C219.094 3.32613 220.461 3.42116 221.833 3.51606C221.859 3.39586 221.885 3.27483 221.912 3.15463C225.003 3.32197 225.077 3.42372 228.015 3.09268C230.279 3.0963 232.122 2.59374 233.43 2.38221C233.899 2.44956 234.369 2.51778 234.844 2.58514C235.145 2.48516 235.449 2.38563 235.749 2.28565C236.346 2.42473 236.95 2.56384 237.546 2.7022C237.878 2.38651 238.05 2.28795 235.724 2.17714C236.521 1.7845 240.616 1.95771 242.283 2.08956C243.548 2.18961 242.145 2.51711 242.303 2.55694C242.831 2.69228 244.915 2.5755 245.353 2.59795C247.205 2.6914 248.502 2.67504 250.175 2.74748C250.5 2.76198 251.41 2.96954 251.488 2.97605C252.089 3.01155 253.574 3.11243 253.743 3.11532C262.451 3.27026 253.146 2.36978 261.243 2.46466C261.001 2.34591 260.778 2.22796 260.541 2.10921C261.152 2.10197 261.77 2.09509 262.382 2.08785C263.158 2.18709 262.219 2.36758 263.76 2.222C263.659 2.36833 263.559 2.51472 263.453 2.66033C264.123 2.58136 264.769 2.50304 265.455 2.42407C266.531 2.93189 270.46 3.04722 270.181 3.64337C270.086 3.84622 267.301 4.05436 268.772 4.27097C269.968 4.31361 269.159 4.07135 269.647 4.05864C273.171 3.97025 272.966 4.30983 274.407 4.21927C274.633 4.07374 274.872 3.92536 275.104 3.77838C275.647 3.8211 276.192 3.86383 276.74 3.90654C276.867 3.80874 276.999 3.71084 277.125 3.61304C276.613 3.60652 276.037 3.59991 275.568 3.59339C276.222 3.21459 282.235 3.04444 279.942 3.36739C279.009 3.49849 277.298 3.44279 278.379 3.89031C279.988 3.82584 281.814 3.75997 283.507 3.6955C283.56 3.79185 283.609 3.88838 283.662 3.98473C285.944 3.92236 283.868 3.53712 283.873 3.33065C284.395 3.32485 284.922 3.31978 285.444 3.31398C285.665 3.40734 285.876 3.50506 286.108 3.59552C286.129 3.44695 286.421 3.10162 287.977 3.22982C288.978 3.31326 287.402 3.68809 289.31 3.63611C289.167 3.40433 288.478 3.12204 290.603 3.0474C290.814 3.2893 291.106 3.51091 291.269 3.76513C293.912 3.53274 295.115 3.9063 298.217 3.63611C300.184 3.46513 302.88 2.85822 304.151 3.79333C305.591 3.81795 305.134 3.58508 305.56 3.53272C307.57 3.28496 309.065 3.72837 309.44 3.75445C311.829 3.92163 312.9 3.76814 314.846 3.97746C314.741 3.80432 314.683 3.64043 314.599 3.47163C312.815 3.73098 311.912 3.71881 309.412 3.66303C310.25 3.62826 311.089 3.59269 311.928 3.55793C311.791 3.41742 311.655 3.27689 311.523 3.13711C303.789 3.69059 305.593 2.81612 312.077 2.62487C312.636 2.8849 313.215 3.14423 313.769 3.40498C317.515 3.0109 319.278 3.35301 323.514 3.43489C324.017 3.44425 325.852 3.29446 326.64 3.28707C326.627 3.28607 326.614 3.28507 326.601 3.28408C327.091 3.03853 326.427 2.92552 326.348 2.70604C326.775 2.67852 327.202 2.65111 327.63 2.62359C328.584 2.79089 328.248 2.9283 330.126 2.88847C329.873 2.72186 329.623 2.55522 329.37 2.38861C331.428 2.38282 332.774 2.56384 334.689 2.48559C334.367 2.54862 334.049 2.61183 333.728 2.67486C337.896 2.83568 334.579 3.81521 337.728 3.32765C337.929 3.41311 338.124 3.49939 338.324 3.58484C337.027 3.60585 335.729 3.62621 334.436 3.64722C334.41 3.76815 334.381 3.88857 334.36 4.00951C335.748 3.97328 337.142 3.93593 338.53 3.89971C337.517 3.98085 336.498 4.06209 335.485 4.14323C337.094 4.20117 338.703 4.25916 340.312 4.31711C338.603 3.8724 340.818 3.81802 340.402 3.37764C343.251 3.74421 345.489 4.22742 349.905 3.91808C350.78 3.85646 350.305 3.54871 352.789 3.92321C352.188 3.43355 355.3 3.20377 354.901 2.73808C354.035 2.76053 353.139 2.77466 352.3 2.80217C353.255 2.96371 353.413 3.4081 351.963 3.53999C350.111 3.70805 347.41 3.40006 347.521 3.8933C346.782 3.87013 346.095 3.85646 345.378 3.83691C345.673 3.71455 345.963 3.59142 346.253 3.46907C344.212 3.6609 342.929 3.59851 341.948 3.29006C344.38 3.21908 346.807 3.14884 349.238 3.07858C348.88 3.0576 348.517 3.03646 348.159 3.01621C350 2.70107 348.101 2.40259 351.535 2.33521C351.514 2.47934 351.497 2.62357 351.476 2.76842C352.727 2.38301 356.15 2.3851 355.058 1.94174C356.092 2.07792 356.303 2.16405 356.888 1.92508C359.616 2.26194 361.368 2.68793 360.397 3.1965C361.41 3.11465 362.423 3.03269 363.43 2.95084C362.845 2.81178 362.259 2.67336 361.673 2.5343C363.435 2.54299 365.21 2.55154 366.967 2.5595C367.136 2.97093 363.575 2.68432 364.603 3.05209C364.808 3.12592 365.757 2.96779 366.006 3.00937C368.633 3.45921 364.509 3.13421 365.283 3.47889C369.198 3.58539 366.065 4.16293 371.457 3.67755C371.599 3.79633 371.752 3.91751 371.884 4.03557C373.756 4.0427 373.604 3.77439 375.213 3.72369C376.221 3.69215 377.485 4.16329 378.598 3.84246C378.796 3.78331 376.924 3.20747 380.858 3.23281C383.912 3.25245 382.641 3.65939 384.291 3.80358C385.943 3.94775 389.72 3.38349 390.833 4.02318C389.968 3.93845 388.867 3.89274 387.907 3.82324C387.516 3.94782 387.136 4.07106 386.751 4.19492C388.946 4.0341 391.215 4.22364 392.692 3.92662C395.62 4.38085 398.894 3.95933 398.008 3.44642C397.044 3.52037 398.093 3.74403 396.754 3.60151C396.617 3.48197 396.473 3.36303 396.335 3.24349C398.614 3.25798 400.197 3.25462 399.158 3.61902C399.512 3.62772 399.862 3.63639 400.215 3.64508C400.278 3.38138 400.335 3.11671 400.398 2.85301C400.82 2.82331 401.244 2.79385 401.666 2.76415C402.135 2.82207 402.605 2.88066 403.08 2.93931C402.442 3.35659 401.354 3.37037 404.952 3.60364C404.963 3.45948 404.978 3.31588 404.989 3.17172C408.001 3.35499 408.081 3.70422 411.863 3.69122C408.961 4.19175 407.374 3.3045 407.384 4.30856C406.656 4.24264 405.922 4.17583 405.194 4.1099C405.083 4.25552 404.973 4.40134 404.868 4.54695C408.777 4.47015 415.271 3.51252 417.888 4.1475C418.204 4.07001 418.522 4.00265 418.844 3.91936C421.408 4.30259 422.515 3.44221 425.116 3.93773C425.384 3.98974 424.823 4.79808 428.208 4.76911C428.124 4.66405 428.08 4.48723 428.012 4.3547C428.745 4.41916 429.474 4.48661 430.202 4.55251C430.334 4.45547 430.472 4.35847 430.604 4.26071C429.353 4.22304 428.107 4.18474 426.856 4.14707C427.895 4.11376 428.941 4.08041 429.98 4.0471C428.624 3.8885 428.013 3.88682 428.83 3.63269C430.006 3.61748 431.184 3.60134 432.361 3.58613C432.482 3.52101 432.602 3.45514 432.724 3.39003C432.154 3.19589 431.578 3.00604 431.009 2.809C434.074 2.96765 436.739 2.97626 439.092 3.35799C439.492 3.42246 438.075 3.67538 440.806 3.44728C440.849 3.58123 440.922 3.69 440.97 3.81384C444.314 3.43857 445.413 3.55058 448.901 3.82153C446.643 3.56869 448.657 3.73313 449.232 3.59766C449.626 3.50433 448.088 3.51812 448.262 3.42036C448.437 3.32329 450.435 2.93134 448.726 2.8842C444.537 3.68761 443.396 2.72706 438.015 3.11319C438.843 3.00959 439.677 2.90576 440.506 2.80217C440.116 2.73195 439.766 2.66825 439.345 2.59368C442.346 2.75086 440.886 2.64875 442.119 2.5249C443.354 2.40102 445.598 2.29578 447.101 2.26173C447.575 2.25103 447.075 2.43123 448.144 2.448C448.872 2.45959 450.862 2.19246 451.321 2.50738C451.622 2.71238 448.426 3.27688 452.845 3.27553C453.677 3.47651 451.558 3.41409 451.512 3.43831C451.127 3.67737 453.844 3.85712 455.1 3.67456C455.202 3.65881 454.21 3.47252 455.288 3.39943C457.847 3.22484 459.325 3.43848 460.981 3.72754C461.161 3.3885 463.314 2.98359 465.994 3.10892C466.131 3.01189 466.262 2.91401 466.399 2.81627C465.983 2.86762 465.567 2.91829 465.151 2.96964C464.697 2.90879 464.216 2.86449 463.773 2.79277C466.468 2.70939 466.85 2.24214 468.142 2.07119C472.565 1.48719 469.884 2.72253 469.087 2.93546C468.512 2.84925 467.955 2.75302 467.386 2.66247C467.449 2.78055 467.513 2.89953 467.571 3.01834C474.192 3.01473 468.58 3.78487 471.94 4.00438C472.805 3.42341 475.274 3.36742 478.418 3.73608C478.766 3.73318 479.115 3.73244 479.464 3.72882C479.522 3.64411 479.521 3.51463 479.615 3.45881C483.403 3.36029 484.078 4.25499 484.437 4.33975C486.03 4.71568 487.271 4.19553 487.74 4.19108C489.719 4.17297 490.294 4.40392 492.177 4.30472C494.202 4.19752 492.817 4.02031 493.434 3.86169C493.928 3.73572 495.526 3.71328 496.186 3.58271C495.924 3.6895 495.632 3.79422 495.371 3.90142C497.47 4.047 499.186 4.18891 501.57 4.2244C504.26 3.443 506.549 4.76112 505.621 3.69208C503.363 3.61891 502.101 3.49709 500.892 3.22469C502.374 3.18993 503.858 3.15607 505.34 3.12131C505.772 3.23863 506.079 3.35298 506.591 3.47248C507.699 3.22332 510.267 3.33024 511.275 3.25716C515.997 2.91451 514.536 2.48951 518.846 3.20376C515.74 3.27335 515.744 3.62026 512.664 3.57245C513.329 3.82021 514.894 3.76888 513.881 4.0659C516.862 3.99274 515.898 3.72756 517.058 3.49214C518.059 3.28918 520.073 3.27782 519.959 3.01407C520.165 3.15908 520.325 3.29946 520.53 3.44429C522.461 3.44284 524.391 3.44274 526.322 3.4413C525.499 3.59268 524.676 3.74435 523.853 3.89501C524.475 3.95219 525.098 4.00915 525.72 4.06633C530.468 3.59544 538.656 4.45845 537.348 3.27553C539.638 3.23787 539.924 3.38623 541.169 3.61005C541.306 3.52025 541.439 3.44555 541.576 3.3456C543.053 3.43961 544.187 3.10245 545.49 3.19009C546.793 3.27706 547.116 3.59553 547.306 3.06021C548.15 3.21377 548.989 3.34132 549.828 3.48402C550.334 3.36241 550.84 3.24219 551.341 3.12131C552.132 3.18505 552.925 3.24853 553.716 3.31227C554.139 3.05674 557.251 3.16689 558.622 2.99527C559.924 3.27073 559.888 4.138 562.952 3.98259C562.873 3.76749 562.795 3.55301 562.716 3.33791C563.417 3.38281 564.12 3.42758 564.827 3.47248C564.869 3.54269 564.906 3.6129 564.948 3.68311C564.589 3.66138 564.235 3.63976 563.877 3.61731C564.188 3.73612 564.493 3.85438 564.799 3.97319C565.87 3.79718 566.942 3.62115 568.018 3.44514C566.567 3.31188 565.116 3.17852 563.666 3.04526C565.486 2.88733 566.753 3.04486 568.336 2.86882C569.712 3.16579 569.204 3.33691 568.645 3.65918C569.156 3.63166 569.674 3.6051 570.186 3.57758C569.848 3.8999 570.713 4.09195 567.723 4.0659C567.928 4.15783 568.138 4.24548 568.338 4.34103C568.829 4.32655 569.147 4.40425 569.685 4.3688C571.152 4.27173 572.276 3.70559 572.176 3.50709C572.122 3.40311 570.676 3.60196 570.734 3.45497C570.877 3.09651 574.194 3.25745 569.41 2.89744C570.998 2.66924 571.352 2.84134 573.104 2.90727C572.967 2.78782 572.834 2.66913 572.702 2.54968C573.514 2.60471 574.327 2.65955 575.139 2.71459C574.01 3.32816 579.998 3.55862 574.608 4.09538C576.201 4.1229 577.788 4.15057 579.376 4.17954C579.049 4.24255 578.722 4.30493 578.395 4.36795C577.678 4.33463 576.964 4.30185 576.247 4.26926C577.091 4.38441 577.936 4.49888 578.78 4.61403C580.774 4.47131 581.556 4.25182 582.469 3.98088C580.148 3.78317 580.906 4.05324 579.098 4.10691C579.161 3.93533 579.077 3.7775 579.236 3.59723C580.17 3.95264 583.218 3.69408 583.925 3.6767C586.076 3.62391 584.389 3.97311 585.828 3.98045C587.269 3.9877 588.967 3.77985 590.144 4.12614C590.123 3.93205 590.029 3.73123 589.944 3.55451C592.187 3.49076 591.739 3.72005 591.971 3.74975C595.675 4.23801 597.684 3.8258 601.921 3.77581C601.383 3.7157 600.839 3.66142 600.296 3.60492C603.492 3.19283 601.339 3.31901 598.564 3.18283C601.165 3.22412 602.655 2.87317 604.491 2.76884C606.326 2.6647 609.475 2.84495 610.625 2.98545C607.993 3.21148 605.153 3.06242 602.23 3.12472C602.562 3.32244 602.885 3.48978 603.228 3.70703C605.006 3.29205 606.036 3.56952 606.622 3.62458C608.341 3.78605 608.287 3.42987 609.326 3.81298C609.284 3.68119 609.253 3.57037 609.211 3.44728C612.761 3.50233 616.591 3.73533 618.902 3.24862C619.113 3.56517 619.272 3.87014 619.515 4.19321C621.018 3.95493 622.306 4.19894 623.572 4.14323C624.833 4.08745 624.353 3.83162 625.835 3.73309C626.109 3.71498 626.681 3.8751 627.356 3.75702C628.038 3.63831 630.553 2.75566 630.853 3.52674C632.125 3.53037 633.328 3.55856 634.573 3.5716C633.36 3.61506 632.146 3.65716 630.938 3.70062C631.972 3.88751 632.999 4.07383 634.033 4.26071C634.165 4.09409 634.297 3.92446 634.424 3.76001C637.209 3.55717 639.231 3.82959 642.043 3.76513C642.512 3.75427 641.405 3.42484 643.488 3.5088C645.572 3.59283 647.118 4.20769 650.668 3.9702C650.848 3.95789 651.899 3.48698 653.17 3.81298C653.46 3.88687 652.242 3.9962 652.906 4.09324C653.571 4.19032 656.537 4.27014 656.769 4.50124C656.737 4.4194 656.552 4.3346 656.463 4.25131C656.969 4.21221 657.48 4.17307 657.992 4.13468C658.04 4.27883 658.091 4.42319 658.138 4.56661C661.05 4.2312 662.555 3.68407 666.871 3.8651C665.657 3.65576 664.443 3.44557 663.235 3.23623C662.903 3.38329 662.57 3.53134 662.243 3.67841C660.254 3.61974 658.26 3.56149 656.271 3.50282C655.944 3.67016 655.623 3.83703 655.296 4.00438C654.768 3.98265 654.246 3.9616 653.719 3.93987C653.851 3.81889 653.984 3.69856 654.121 3.57758C653.076 3.60728 652.031 3.6376 650.992 3.6673C653.107 2.95321 656.899 3.72804 656.626 3.1307C657.095 3.22338 657.565 3.31671 658.034 3.41011C658.24 3.12047 659.194 3.20383 660.877 3.24947C660.491 3.10676 660.066 2.96599 659.713 2.82182C661.348 3.02319 664.249 3.00364 665.943 3.08115C666.687 3.11519 665.944 3.32518 666.165 3.34987C667.299 3.47882 669.467 3.11241 669.921 3.14138C672.633 3.31383 674.395 4.0085 677.354 3.55067C674.3 3.43765 675.962 3.48538 674.875 3.2311C674.534 3.15138 670.588 2.98506 675.53 3.05893C676.109 3.06817 685.076 3.54814 682.128 3.91594C683.579 3.79858 684.715 3.66288 686.044 3.53828C689.294 4.50759 688.17 3.59699 687.225 3.09567C687.758 3.0935 688.265 3.08841 688.814 3.08841C687.648 3.61508 693.588 3.64778 695.603 3.38191C696.279 3.29353 694.39 3.12495 695.952 3.04526C696.696 3.08219 697.539 3.13002 698.325 3.17129C697.185 2.83807 699.422 2.70966 699.39 2.37067C700.82 2.67274 701.913 3.313 701.128 3.66004C702.309 3.51952 703.497 3.37918 704.679 3.23794C704.13 3.15753 703.574 3.07782 703.026 2.99741C706.887 3.2104 711.853 2.72575 712.66 3.43788C713.172 3.43281 713.689 3.42842 714.201 3.42335C714.359 3.30309 714.512 3.18261 714.67 3.06235C716.986 3.16664 719.296 3.27163 721.612 3.37593C719.55 3.45056 719.059 3.62173 716.897 3.48274C717.73 3.62105 718.579 3.76012 719.396 3.89843C722.652 3.52607 723.096 3.28134 727.997 3.39217C728.218 3.39724 731.921 3.7095 732.048 3.73993C732.628 3.87901 731.747 4.08106 732.006 4.15134C732.723 4.34839 737.083 4.84317 736.999 4.91779C735.933 5.83349 721.264 5.84562 717.296 5.89271C676.145 6.38096 635.9 5.72775 595.008 5.83931C594.587 5.84104 594.771 5.97621 594.592 5.982C593.479 6.01595 592.386 5.80528 591.974 5.79659C591.095 5.77867 591.579 5.97332 590.937 5.97346C584.3 5.97128 578.037 5.85683 571.394 5.89015C570.962 5.89232 571.404 5.73659 570.644 5.76412C570.252 5.77919 569.024 6.01812 568.139 6.02173C565.047 6.03404 562.45 5.95745 559.19 5.96107C557.407 5.96323 554.732 5.94292 552.738 5.94654C551.857 5.94808 550.94 6.05739 550.07 6.06104C548.835 6.06611 549.087 5.84453 548.897 5.83077C548.064 5.77065 547.949 6.01385 547.157 6.00806C545.685 5.99647 545.606 5.8341 543.738 5.84785C542.404 5.858 539.349 5.9862 537.666 6.02387C533.73 5.83553 528.771 5.9103 525.099 5.9726C522.925 6.00954 522.724 5.78219 521.837 5.78292C518.715 5.78732 516.345 6.07768 513.412 6.0871C509.519 6.09937 506.069 5.90737 502.298 5.89357C501.686 5.8914 501.827 6.0997 501.227 6.10504C499.006 6.1246 496.165 6.16252 494.187 6.13281C491.982 6.10017 491.169 5.79782 489.011 5.85939C488.379 5.87767 488.193 6.14278 487.133 6.17682C485.44 6.23034 483.583 5.99656 482.402 5.97047C480.782 5.93569 482.19 6.20578 480.006 6.16955C479.916 6.16799 479.59 5.97493 479.121 5.98414C477.754 6.01022 477.89 6.16226 475.89 6.14777C475.699 6.14577 473.047 5.96181 472.784 5.96107C471.233 5.95817 468.11 5.89377 467.192 5.93287C463.91 6.07197 466.494 6.36235 463.703 5.73208C462.474 5.88634 461.255 6.0427 459.952 6.19263C460.822 6.05281 457.293 5.85105 457.045 5.86409C454.994 5.96916 456.216 6.21439 453.615 6.17383C457.05 5.60731 450.26 6.10081 448.746 6.1153C441.455 6.18555 434.828 6.04417 427.5 6.0478C425.047 6.04928 421.759 6.16903 419.164 6.16614C418.559 6.16597 419.016 6.03189 418.484 6.029C417.953 6.02701 418.542 6.17752 417.936 6.16955C414.164 6.11738 411.208 5.83339 407.753 6.18835C407.584 6.13703 407.59 6.09648 407.311 6.04011C404.483 6.35811 399.037 5.93046 396.99 5.87178C393.789 5.78055 392.971 5.9955 390.645 5.9521C387.569 5.89414 382.951 5.47422 385.014 6.16742C382.904 6.18914 380.873 6.19514 378.741 6.13068C378.504 6.12337 378.668 5.94717 378.573 5.94355C377.971 5.91826 377.776 6.07601 377.369 6.08326C376.268 6.10274 378.065 5.91385 376.495 5.96662C375.667 5.99487 375.197 6.13247 372.896 6.13538C359.032 6.15059 343.979 6.10131 329.766 6.07813C328.79 6.07668 329.433 6.24707 328.209 6.2362C323.957 6.1985 316.345 5.91174 312.678 5.95082C309.012 5.98993 309.839 6.2391 307.545 6.34344C307.102 6.36372 307.465 6.22171 307.064 6.21954C304.368 6.20649 301.154 5.98499 298.97 5.95167C297.526 5.92934 297.641 6.15274 296.639 6.1687C295.146 6.19188 293.61 5.96618 292.813 5.95893C289.068 5.92711 286.493 6.1089 282.995 6.01618C283.132 6.06535 283.223 6.11086 283.338 6.1593C279.197 6.15133 275.061 6.14334 270.92 6.13538C271.116 6.18029 271.304 6.22559 271.499 6.27123C266.641 6.24658 267.195 5.75978 267.623 6.78775C267.269 6.82396 266.895 6.86594 266.557 6.89925C266.694 6.36972 263.755 5.9822 260.015 5.84743C259.74 5.83728 257.9 6.3536 258.1 5.74361C257.62 5.89284 257.334 5.99571 256.928 6.12683C256.137 5.94216 255.335 5.75966 254.544 5.57571C254.117 5.60323 253.683 5.62979 253.256 5.65731C253.193 5.77685 253.242 5.90096 253.104 6.01832C251.121 6.03643 247.053 5.88865 245.485 5.90382C241.592 5.94222 237.628 6.26539 234.6 5.91621C233.124 5.95181 234.589 6.18642 232.395 6.15674C232.148 6.03796 231.914 5.92411 231.656 5.80171C229.863 6.33242 229.488 6.00958 227.031 5.89869C225.37 5.82336 224.281 5.95307 222.699 5.92775C222.298 5.92123 222.355 5.76546 222.08 5.77053C221.161 5.78659 218.54 6.00099 217.891 6.00678C212.015 6.06328 206.966 6.03923 201.368 5.982C200.767 5.97621 201.547 6.12993 200.924 6.12341C199.923 6.11318 200.512 5.87696 199.932 5.86537C198.313 5.83437 198.301 6.08346 196.044 6.0965C188.61 6.13921 180.064 5.9521 172.298 5.93544C172.056 5.93544 172.07 6.08138 171.806 6.08283C170.087 6.08996 168.346 5.89268 166.785 5.89485C164.195 5.89775 162.248 6.10278 159.689 6.10205C154.688 6.10133 150.219 5.99635 145.075 5.99055C140.865 5.98548 137.209 6.00494 132.593 6.00422C112.428 6.00132 91.8522 6.46457 71.5508 6.21826C71.0341 6.21174 71.2446 6.0828 71.0869 6.08838C69.5887 6.14416 69.455 6.31814 68.9221 5.95381C67.0134 6.02561 66.4113 6.29933 64.1061 6.27978C62.8777 6.26953 63.7949 5.84528 61.7164 6.06403C59.8397 6.26179 61.9109 6.49429 56.3298 6.25671C56.1821 6.25018 55.4547 5.99158 54.2943 6.0589C53.1282 6.12555 54.478 6.31072 51.6712 6.36651C45.082 6.49689 36.7416 6.27336 29.0814 6.34215C28.6013 6.3465 23.9777 6.48475 23.0649 6.5485C21.2986 6.67238 21.6677 6.86455 19.3735 6.91164C17.601 6.94787 16.1382 6.73018 14.0543 6.77365C13.8116 6.77893 13.405 7.00285 11.8389 6.97316ZM400.21 2.62402C400.642 2.40432 401.423 1.59568 404.039 1.84177C404.287 1.86495 402.948 2.42104 404.393 2.50952C402.979 2.5682 401.602 2.5872 400.21 2.62487C400.21 2.62458 400.21 2.6243 400.21 2.62402ZM0.500427 1.81699C2.45782 1.85756 4.42175 1.89775 6.37915 1.93832C5.02856 2.03612 3.67596 2.13373 2.33069 2.23225C1.71887 2.09391 1.11224 1.95533 0.500427 1.81699ZM244.156 2.20106C244.154 2.20106 244.152 2.20106 244.15 2.20106C246.207 2.09674 248.266 1.99223 250.324 1.88791C250.107 1.9647 249.891 2.04182 249.674 2.11861C248.05 2.23957 246.424 2.36036 244.805 2.48132C244.589 2.38789 244.372 2.29449 244.156 2.20106ZM227.9 3.01407C226.586 2.92279 226.908 2.76885 226.185 2.61889C226.185 2.61917 226.185 2.61946 226.185 2.61974C225.994 2.5807 225.106 2.54655 224.762 2.54071C224.889 2.63706 225.052 2.73217 225.19 2.8278C222.124 3.06107 216.13 2.23213 223.891 1.89816C223.775 2.01984 223.664 2.1409 223.548 2.26258C227.404 2.22854 231.704 2.49247 227.9 3.01407ZM431.22 2.27369C434.512 1.87525 435.567 1.79124 439.561 2.06435C438.997 2.17729 438.433 2.29021 437.869 2.40314C437.209 2.28795 436.554 2.17356 435.895 2.05837C435.893 2.05837 435.891 2.05837 435.889 2.05837C435.757 2.17935 435.625 2.30054 435.499 2.42151C434.074 2.37225 432.644 2.32295 431.22 2.27369ZM101.88 2.72612C100.963 1.93034 101.228 2.3929 103.849 2.21345C104.756 2.15115 103.872 2.01191 104.436 1.98873C107.484 1.86211 107.728 2.39528 107.048 2.67272C105.323 2.69155 103.58 2.70874 101.886 2.72612C101.884 2.72612 101.882 2.72612 101.88 2.72612ZM22.7866 2.89146C22.7847 2.89146 22.7828 2.89146 22.781 2.89146C22.702 2.69736 23.9308 2.64515 22.5449 2.46124C23.5991 2.46197 24.6536 2.46351 25.7133 2.46423C25.4025 2.48231 25.0851 2.49955 24.7743 2.51764C25.0486 2.58429 25.3237 2.65178 25.598 2.71843C25.9727 2.49532 26.3206 2.62501 27.4283 2.69963C27.1223 2.4613 26.8177 2.22279 26.5118 1.98446C27.7986 2.05544 29.0906 2.12667 30.3774 2.19764C30.3934 2.25771 30.4093 2.31787 30.4253 2.37793C30.9105 2.30117 31.3907 2.22357 31.876 2.14681C32.0078 2.21851 32.1349 2.28957 32.2667 2.36127C32.8521 2.30696 33.4386 2.25268 34.0239 2.19764C34.2021 2.37134 32.9117 2.44641 35.1991 2.40229C34.4975 2.58048 33.7973 2.75813 33.0905 2.93632C29.656 2.92183 26.2211 2.90667 22.7866 2.89146ZM125.724 2.48132C121.942 2.51464 123.007 2.38876 123.883 1.99471C124.494 2.15694 125.112 2.3191 125.724 2.48132ZM320.607 2.83207C321.704 2.5633 322.806 2.29721 323.93 2.03786C326.167 1.8879 328.405 2.37778 326.722 2.56976C324.696 2.80011 322.58 2.5423 320.607 2.83207ZM371.555 2.71245C368.819 2.58782 371.394 2.26846 372.011 2.08229C372.768 2.38149 373.824 2.3551 375.52 2.3899C373.927 2.40929 372.008 2.73361 371.555 2.71331C371.555 2.71302 371.555 2.71274 371.555 2.71245ZM276.563 2.53003C275.466 2.53806 274.375 2.61313 273.394 2.52191C273.69 2.26491 275.652 2.49872 274.249 2.11775C274.951 2.11124 275.653 2.10492 276.349 2.09767C275.907 2.25552 276.502 2.37349 276.56 2.52917C276.561 2.52946 276.562 2.52974 276.563 2.53003ZM162.374 2.17842C164.527 2.48269 164.934 2.35249 167.103 2.14168C167.408 2.38941 164.823 2.80438 163.203 2.89573C162.929 2.65668 162.654 2.41747 162.374 2.17842ZM671.515 2.30531C670.998 2.62108 667.185 2.66225 665.291 2.5689C665.516 2.52207 665.742 2.47461 665.968 2.42706C667.815 2.3865 669.669 2.34587 671.515 2.30531ZM376.326 2.41126C376.043 2.40201 375.774 2.39511 375.52 2.3899C375.802 2.38646 376.075 2.39183 376.326 2.41126ZM490.931 3.78179C490.03 4.07951 492.71 4.17953 489.455 4.06291C489.455 4.06319 489.455 4.06348 489.455 4.06376C487.303 3.98697 486.828 3.96647 484.833 3.94329C485.551 3.56083 489.597 3.42413 484.021 3.34517C483.947 3.34482 484.094 3.57239 483.203 3.54127C482.928 3.53159 482.048 3.34482 480.709 3.29049C480.276 3.2731 477.026 3.2155 481.457 3.21188C481.325 2.94528 481.563 2.67544 481.553 2.41681C483.282 2.34165 484.612 2.86368 486.442 2.85087C489.159 2.83059 490.541 2.3027 491.064 2.99527C488.779 3.16543 484.856 3.16952 484.344 2.75304C482.134 2.74797 481.499 3.08919 483.282 3.25802C490.916 3.04358 485.377 3.76452 492.062 3.49214C492.141 3.39582 492.416 3.29216 492.374 3.20162C494.414 3.54058 491.253 3.67531 490.931 3.78179ZM474.968 3.04526C476.287 2.84169 477.602 2.63649 478.915 2.43219C478.915 2.76398 478.191 3.06172 476.112 3.24862C475.733 3.18058 475.348 3.11258 474.968 3.04526ZM585.918 2.95811C586.108 2.77772 586.615 2.61242 586.984 2.44074C587.385 2.59286 596.882 2.73881 592.05 2.88804C591.348 2.90977 587.068 2.59081 585.918 2.95811ZM147.428 2.45013C148.547 2.57112 149.661 2.69229 150.774 2.81328C149.061 2.89002 147.345 2.96878 145.632 3.04697C146.232 2.84807 146.828 2.64903 147.428 2.45013ZM338.814 3.14865C338.341 3.14187 339.91 2.8938 338.049 2.9329C339.436 2.77425 340.736 2.63996 342.092 2.49072C342.498 2.60808 342.908 2.72497 343.315 2.84233C343.631 2.76698 343.954 2.6921 344.271 2.61675C344.081 2.78772 343.911 2.9547 343.711 3.12857C341.427 2.762 340.903 3.17763 338.814 3.14865ZM270.887 3.81725C270.476 3.44569 273.784 3.22472 270.53 3.16531C271.147 2.92119 272.139 2.79314 274.044 2.77141C274.35 2.86477 274.655 2.95745 274.96 3.05081C275.003 2.80098 275.493 2.70812 276.563 2.53003C276.564 2.53031 276.565 2.5306 276.566 2.53088C279.461 2.51279 279.288 2.59609 279.984 3.00681C276.919 2.77499 276.828 3.15024 274.738 3.37337C273.303 3.5268 271.43 3.45731 270.887 3.81725ZM575.8 2.96238C577.968 2.64872 576.022 2.35616 579.868 2.68938C579.62 2.76907 579.371 2.84808 579.123 2.92777C578.015 2.94008 576.908 2.95151 575.8 2.96238ZM260.189 2.5437C260.437 3.11887 262.478 3.5666 262.826 2.63085C260.837 2.44032 261.809 2.97037 260.189 2.5437ZM370.622 3.61304C366.797 3.5862 367.52 2.93702 369.093 2.61248C369.335 2.73057 369.578 2.84886 369.815 2.96622C370.485 2.91261 371.155 2.8589 371.825 2.80601C371.424 3.07478 371.023 3.34427 370.622 3.61304ZM192.763 3.17556C195.685 2.7648 189.608 2.94712 191.649 2.69066C193.28 2.48567 195.428 2.89955 194.615 3.1589C194.051 3.16615 193.422 3.17122 192.768 3.17556C192.766 3.17556 192.765 3.17556 192.763 3.17556ZM209.676 3.05808C209.196 2.6192 209.888 2.74713 207.579 2.82609C206.919 2.84855 201.679 2.68372 203.879 3.0474C205.752 3.0474 207.73 3.05373 209.676 3.05808ZM414.832 2.97092C414.867 3.16204 410.832 3.5817 410.314 3.47676C410.314 3.47704 410.314 3.47733 410.314 3.47761C408.916 3.19146 413.172 3.1508 411.326 2.75816C415.414 3.10366 416.638 2.26796 416.353 3.3691C413.944 3.4174 415.085 3.19042 414.832 2.97092ZM721.581 3.20504C721.583 3.20504 721.585 3.20504 721.587 3.20504C721.316 3.19605 719.083 2.91556 719.354 2.8184C722.039 2.9017 721.561 3.08634 724.061 2.78294C724.198 2.88066 724.315 2.97544 724.463 3.07388C723.471 3.13184 722.921 3.24923 721.581 3.20504ZM596.186 3.34346C595.199 3.39345 593.399 3.18632 592.275 3.19863C595.852 2.4032 600.126 3.14495 596.186 3.34346ZM59.7794 2.86412C59.7822 2.86383 59.785 2.86355 59.7878 2.86326C59.787 2.86369 59.7858 2.86411 59.785 2.86454C59.7831 2.8644 59.7812 2.86426 59.7794 2.86412ZM519.735 2.86625C519.862 2.91789 519.934 2.96274 519.959 3.00211C519.959 3.00581 519.959 3.00951 519.959 3.01322C519.891 2.96487 519.817 2.91597 519.735 2.86625ZM423.218 2.91325C424.899 3.17979 419.299 3.60354 417.489 3.50239C417.615 3.38073 417.635 3.27044 417.93 3.1307C419.391 3.44575 422.939 2.86833 423.218 2.91325ZM295.551 3.01108C299.978 3.01833 294.217 4.07074 293.98 3.2311C293.989 3.21483 295.437 3.01251 295.551 3.01108ZM388.312 3.02347C387.184 3.3421 389.45 3.42671 385.826 3.37166C385.615 3.28913 385.405 3.2064 385.194 3.12387C386.233 3.09055 387.273 3.05679 388.312 3.02347ZM324.548 4.39273C330.119 4.21524 335.447 3.90214 331.819 3.02347C331.397 3.05169 330.97 3.07898 330.548 3.10721C330.485 3.53588 328.929 3.30188 326.651 3.28792C326.327 3.45811 325.064 3.49746 324.827 3.64209C324.368 3.92166 325.82 4.11821 324.548 4.39273ZM89.3472 3.69507C89.4368 3.6219 89.5246 3.54835 89.6143 3.4759C90.4952 3.39331 91.3788 3.31113 92.2598 3.22854C92.1176 3.36896 91.9747 3.50936 91.8325 3.64978C91.0046 3.66499 90.1807 3.68029 89.3528 3.6955C89.351 3.69535 89.3491 3.69521 89.3472 3.69507ZM469.539 3.94969C470.045 3.14433 468.277 3.29266 464.69 3.69977C466.304 3.78308 467.925 3.86638 469.539 3.94969ZM235.027 4.06633C234.911 3.83753 234.797 3.60943 234.675 3.38063C232.771 3.61897 233.125 3.88099 234.037 4.18381C234.369 4.14473 234.695 4.10541 235.027 4.06633ZM207.593 4.16373C208.383 4.21147 207.98 4.02673 208.062 4.03044C210.062 4.12752 210.344 4.21226 212.797 4.07316C213.098 4.02464 213.393 3.97361 213.694 3.92363C212.56 3.4442 211.736 3.7055 209.336 3.42378C209.769 3.58823 210.2 3.75291 210.632 3.91808C209.298 3.88331 207.969 3.84903 206.634 3.81426C206.476 3.86497 206.317 3.91522 206.159 3.96593C206.634 4.03111 207.124 4.10435 207.593 4.16373ZM79.1586 3.48701C77.8607 3.46817 76.5569 3.4486 75.2591 3.42976C75.2115 3.54784 75.1661 3.66671 75.1185 3.78479C76.4635 3.68556 77.8134 3.58624 79.1586 3.48701ZM496.186 3.58271C496.289 3.54082 496.389 3.49868 496.478 3.45582C496.47 3.50806 496.357 3.54883 496.186 3.58271ZM725.005 3.85271C726.477 3.93529 728.598 3.88107 730.212 3.89843C730.085 3.60221 725.982 3.68409 724.541 3.50453C724.31 3.55768 724.383 3.81797 725.005 3.85271ZM365.331 3.58698C364.962 3.73475 364.593 3.88182 364.229 4.02958C363.337 4.01365 362.444 3.99682 361.547 3.98088C361.52 4.10186 361.494 4.22389 361.468 4.34488C365.419 4.1877 364.508 4.53656 366.464 4.88062C366.084 4.44965 365.711 4.01867 365.331 3.58698ZM37.8643 4.25431C40.7184 4.17244 41.731 4.01955 40.1219 3.65662C39.1146 3.7399 38.1013 3.82326 37.094 3.90654C37.3525 4.02243 37.611 4.13842 37.8643 4.25431ZM548.166 3.85613C550.555 3.72052 550.595 4.2076 552.929 3.9356C551.679 3.84579 550.429 3.75497 549.184 3.66516C548.848 3.72866 548.503 3.79262 548.166 3.85613ZM431.026 5.19377C432.033 5.36322 433.917 4.55776 436.75 5.15233C437.425 4.97488 437.848 4.80538 438.428 4.63155C438.766 4.82063 439.149 5.01212 439.471 5.19975C439.473 5.19975 439.475 5.19975 439.477 5.19975C442.046 5.136 440.38 4.89886 440.438 4.69819C440.465 4.615 442.372 4.75406 441.776 4.57302C440.748 4.26223 436.904 4.44094 436.893 4.06205C438.244 4.18588 440.881 4.08241 440.101 3.82964C439.246 3.5522 436.761 4.01716 435.178 3.78692C437.446 4.39249 432.762 4.20543 432.229 3.74035C429.48 4.0975 432.007 4.24319 434.824 4.22654C433.104 4.58295 435.636 4.39039 436.052 4.68666C434.279 4.8655 428.193 4.71642 431.026 5.19377ZM301.346 4.53713C303.245 4.51415 306.213 4.71787 307.514 4.41708C308.271 4.24183 305.297 4.10613 307.348 3.83093C305.497 3.85776 305.075 3.96526 305.391 4.20646C304.969 4.23542 304.542 4.26366 304.12 4.2919C303.925 4.24484 303.725 4.1984 303.53 4.15134C303.309 4.25058 303.086 4.34903 302.869 4.44827C302.421 4.42872 301.968 4.40915 301.52 4.38888C301.467 4.43878 301.377 4.48221 301.346 4.53713ZM616.746 3.84118C616.218 3.84408 615.696 3.84696 615.168 3.85058C615.227 3.90932 615.296 3.97049 615.362 4.03087C615.41 4.07857 615.458 4.12628 615.506 4.17399C615.2 4.00354 612.687 3.72025 611.629 3.90227C611.097 3.99359 612.308 4.31777 610.052 4.37436C611.687 4.35768 613.201 4.31344 614.789 4.28592C614.646 4.38227 614.51 4.47965 614.367 4.57601C614.368 4.57615 614.369 4.57629 614.37 4.57643C614.897 4.59816 615.431 4.62093 615.958 4.64265C616.222 4.37533 616.482 4.1085 616.746 3.84118ZM236.573 4.51876C238.372 4.32968 238.975 4.23149 238.125 3.92577C238.123 3.92563 238.121 3.92548 238.119 3.92534C237.45 4.06079 236.779 4.19619 236.109 4.33163C236.262 4.39394 236.415 4.45646 236.573 4.51876ZM511.683 4.59181C515.507 3.43056 506.894 4.14243 508.534 4.53798C508.608 4.55609 511.324 4.46359 511.683 4.59181ZM371.325 3.9702C370.275 3.97962 369.223 3.98813 368.168 3.99754C368.41 4.14026 368.659 4.28248 368.901 4.4252C369.709 4.27379 370.518 4.12161 371.325 3.9702ZM50.2908 4.7815C51.3958 5.10026 54.2323 5.21575 55.6185 4.86908C54.8904 4.82851 54.1622 4.78789 53.434 4.74732C54.8105 4.70749 56.1713 4.66365 57.5583 4.62599C57.6323 4.1819 56.0337 4.43954 53.628 4.31711C53.2554 4.29736 50.8742 3.74613 50.0518 4.1616C49.8865 4.24699 52.4196 4.30506 50.6591 4.55336C51.429 4.5729 52.0934 4.56857 52.8211 4.57942C52.8739 4.68519 52.9261 4.79108 52.9841 4.89685C52.0844 4.85856 51.1906 4.8198 50.2908 4.7815ZM312.406 4.50252C315.015 4.52703 315.337 4.34959 315.881 4.03599C314.667 4.07149 313.453 4.10645 312.24 4.14195C312.298 4.26189 312.348 4.38186 312.406 4.50252ZM73.6144 4.88318C75.0431 4.93447 74.4311 4.67922 75.006 4.63069C77.1796 4.44816 78.6619 4.63059 80.8088 4.51619C80.6664 4.56546 80.5356 4.6115 80.3984 4.65931C80.4003 4.65931 80.4022 4.65931 80.404 4.65931C90.5701 4.87445 85.2302 4.29556 79.1473 4.38974C79.0048 4.29483 78.868 4.19981 78.7256 4.10563C76.0034 4.27152 73.4931 4.43115 73.6144 4.88318ZM477.701 4.63155C477.817 4.69095 476.83 5.06846 478.682 4.89173C480.148 4.34055 477.744 4.61412 477.141 4.40213C477.643 4.34924 478.155 4.29779 478.651 4.24491C475.654 4.08915 475.217 4.22021 476.309 4.623C476.387 4.65007 477.585 4.57233 477.701 4.63155ZM497.395 4.90326C497.806 4.09115 494.025 4.45634 494.162 4.70845C494.684 4.7185 495.09 4.58099 495.643 4.6418C496.203 4.70264 496.346 4.89234 497.395 4.90326ZM389.045 4.7046C389.156 4.70822 390.269 5.04954 390.159 4.78236C388.782 4.14991 386.007 4.557 386.493 4.77723C387.41 4.76634 388.022 4.67144 389.045 4.70545C389.045 4.70517 389.045 4.70489 389.045 4.7046ZM33.0792 4.9729C33.132 4.99556 35.9091 5.13275 36.2674 5.00537C36.5628 4.86195 36.7094 4.70825 36.9309 4.55977C35.4009 4.69742 32.304 4.59256 33.0849 4.9729C33.083 4.9729 33.0812 4.9729 33.0792 4.9729Z" fill="#AF6743"/>
</svg>
