<svg width="7" height="601" viewBox="0 0 7 601" preserveAspectRatio="none" fill="none" xmlns="http://www.w3.org/2000/svg">
<path d="M0.676748 551.094C0.361078 552.452 0.568007 547.919 0.0965769 550.929C0.0647253 550.301 0.0318752 549.67 2.39926e-05 549.042C0.174616 548.883 0.348783 548.72 0.523374 548.561C0.574787 549.404 0.626191 550.247 0.677603 551.094C0.677318 551.094 0.677033 551.094 0.676748 551.094ZM2.86329 552.245C2.36531 551.473 2.23254 549.018 1.77301 551.669C1.94391 551.88 2.11477 552.096 2.28568 552.307C2.15313 553.227 2.02061 554.153 1.88879 555.074C1.95394 555.405 2.01917 555.736 2.0836 556.067C1.78662 556.488 1.48883 556.906 1.19113 557.328C1.23459 556.953 1.27882 556.574 1.32229 556.2C1.08112 554.72 1.01516 553.403 0.970252 551.394C0.89998 551.571 0.830329 551.748 0.760057 551.924C0.87958 550.905 0.999403 549.885 1.11893 548.87C1.23625 549.752 1.36673 550.738 1.47609 551.555C1.94174 550.247 1.68258 547.941 1.58546 546.74C1.45289 545.105 1.6743 545.475 1.58161 544.262C1.56712 544.068 1.39357 544.046 1.39064 543.664C1.37688 541.732 1.46887 537.98 1.87383 540.174C1.82167 543.354 2.14687 546.065 2.02806 549.184C2.49631 548.359 2.65566 550.002 2.86329 552.245ZM1.37227 493.838C1.59969 494.801 1.50791 496.764 1.35005 498.093C1.35005 498.094 1.35005 498.096 1.35005 498.098C1.31528 498.39 1.01305 499.053 1.02536 498.098C1.04647 496.541 1.52222 495.788 1.19924 494.97C1.25937 494.605 1.31287 494.221 1.37227 493.838ZM1.34407 490.454C1.4607 489.499 1.81919 489.932 1.72217 491.128C1.72245 491.128 1.72273 491.128 1.72302 491.128C1.68245 491.627 1.3991 490.647 1.68671 492.437C1.46295 492.803 1.25939 493.163 1.04288 493.524C1.03926 493.086 1.03339 492.686 1.03049 492.226C1.39827 492.536 1.22835 491.409 1.34407 490.454ZM1.67133 538.56C1.34046 538.41 1.34255 539.039 1.11294 540.11C1.12381 539.099 1.1354 538.088 1.14627 537.081C1.32151 537.576 1.49609 538.066 1.67133 538.56ZM1.62006 562.31C1.62006 562.311 1.62006 562.313 1.62006 562.314C1.67222 562.645 1.72457 562.978 1.776 563.305C1.65791 563.503 1.54034 563.698 1.42226 563.896C1.5331 565.066 1.64393 566.243 1.75549 567.413C1.39478 567.271 1.45348 565.17 1.20138 564.013C1.31005 562.292 1.51943 561.463 1.82513 561.351C1.75706 561.669 1.68813 561.987 1.62006 562.31ZM3.05809 280.88C2.95815 280.489 2.85812 280.102 2.75818 279.711C2.71256 280.231 2.67775 280.748 2.62488 281.272C3.05949 282.645 2.67505 282.773 2.70178 284.571C2.78437 290.082 3.45939 288.62 2.47065 293.597C2.51769 289.601 2.0531 291.137 1.69524 288.728C1.96763 288.229 2.58197 290.616 2.70947 288.998C2.42119 286.211 2.15269 283.53 1.96653 280.438C1.91945 280.528 1.8722 280.618 1.82512 280.708C1.85482 281.199 1.8847 281.685 1.91441 282.176C1.78835 281.646 1.66339 281.129 1.53589 280.591C1.82201 281.271 1.66213 279.539 1.99088 279.771C2.13722 279.874 2.34023 280.639 2.48005 281.091C2.5561 279.925 2.62577 278.73 2.69965 277.551C2.81623 278.162 2.93296 278.772 3.04954 279.378C3.05316 279.877 3.05575 280.372 3.05937 280.871C3.05894 280.874 3.05852 280.877 3.05809 280.88ZM1.53673 29.984C1.87722 31.464 1.93356 34.1534 1.55467 35.5688C1.54888 33.706 1.54252 31.8468 1.53673 29.984ZM2.07719 561.239C2.01931 561.406 1.96205 561.569 1.90417 561.736C1.79697 560.997 1.69051 560.252 1.58332 559.513C1.7506 559.371 1.9179 559.226 2.08445 559.079C2.08228 559.798 2.07936 560.521 2.07719 561.239ZM1.89092 513.905C1.90104 514.446 1.89556 514.495 1.87169 515.169C1.87184 515.168 1.87198 515.167 1.87212 515.166C1.86321 515.433 1.76551 517.669 1.63672 517.42C1.63455 516.31 1.63672 515.126 1.63672 513.99C1.72144 513.956 1.80548 513.948 1.89092 513.905ZM1.81573 526.971C1.81544 526.973 1.81516 526.974 1.81487 526.976C1.79531 527.38 1.75549 527.762 1.74823 528.179C1.54553 526.678 1.90919 526.441 1.80633 525.077C1.70274 523.714 1.50209 522.871 2.00029 521.714C2.07491 522.144 2.18165 522.607 2.26859 523.051C2.06939 524.986 2.25685 525.508 2.45315 527.06C2.24019 527.03 2.02868 527.001 1.81573 526.971ZM2.05027 305.416C2.29655 305.786 2.05489 306.198 2.05197 306.241C2.05169 306.24 2.0514 306.24 2.05112 306.239C2.27921 309.516 1.91479 305.812 1.87639 308.905C1.81483 308.445 1.74983 307.992 1.68755 307.537C1.80633 306.831 1.94091 306.104 2.05027 305.416ZM2.0272 411.892C1.95548 411.923 1.8836 411.959 1.81188 411.989C1.82854 410.13 1.5462 409.656 1.80333 408.112C1.87866 409.372 1.95345 410.632 2.02805 411.892C2.02777 411.892 2.02749 411.892 2.0272 411.892ZM2.41256 504.538C2.54948 506.598 2.60981 508.123 2.39248 510.102C2.3922 510.103 2.39191 510.105 2.39163 510.106C2.37825 510.22 2.2282 509.669 2.1904 509.818C2.21285 510.226 2.24735 510.647 2.27414 511.06C2.15398 511.116 2.03385 511.169 1.91442 511.225C1.94846 510.064 1.98248 508.902 2.01652 507.736C1.94626 507.908 1.8766 508.084 1.80633 508.256C1.77011 507.267 1.73403 506.281 1.69781 505.292C1.89479 505.636 2.09182 505.979 2.28952 506.319C2.3308 505.726 2.37056 505.131 2.41256 504.538ZM2.81201 380.951C2.73377 381.278 2.60254 380.673 2.53517 381.18C2.46865 381.688 2.61466 382.624 2.39376 382.405C2.36408 381.721 2.33004 381.003 2.29891 380.307C1.90058 382.548 2.26103 384.784 1.76916 384.819C1.89665 382.668 1.83742 380.899 1.70123 378.817C2.09166 378.903 2.42925 380.986 2.79578 379.674C2.80085 380.096 2.80826 380.538 2.81116 380.947C2.81144 380.948 2.81173 380.95 2.81201 380.951ZM6.97319 591.346C6.94349 592.619 7.10283 595.537 6.87536 597.146C6.8193 597.542 6.09313 598.861 5.99741 598.854C5.67504 598.815 5.63116 597.205 5.42108 598.93C5.4189 598.349 5.4068 597.786 5.401 597.21C5.18439 597.314 4.96836 597.416 4.75248 597.515C4.78508 598.216 4.81784 598.919 4.85116 599.62C4.77944 599.654 4.70756 599.689 4.63584 599.723C4.63439 597.202 4.35758 598.69 4.09968 597.382C3.9693 598.587 3.83956 599.8 3.70919 601C3.72513 600.308 3.73693 599.49 3.75576 598.879C3.3885 598.797 3.47606 600.255 3.408 600.505C3.02335 601.911 3.21749 594.75 2.683 594.163C2.62361 595.307 2.56565 596.508 2.50698 597.678C2.44106 597.342 2.3751 597.002 2.30918 596.667C2.67782 594.013 2.80842 591.036 3.03802 587.943C3.02282 587.664 3.00721 587.384 2.99274 587.109C2.8269 587.191 2.66171 587.268 2.49587 587.35C2.47631 586.928 2.4569 586.501 2.43734 586.08C2.98352 587.323 2.97608 585.601 3.30931 583.523C3.50125 584.629 3.38488 585.992 3.74252 585.898C3.46736 582.104 3.85622 577.661 3.54556 573.97C3.46879 573.054 3.00744 573.057 3.04998 570.902C3.10069 570.976 3.19225 570.988 3.2589 571.035C3.03794 567.31 2.90585 565.049 3.13116 561.177C2.96534 561.401 2.79883 561.621 2.63301 561.844C2.7156 562.666 2.7995 563.489 2.88208 564.306C2.60827 564.866 2.48742 564.039 2.49032 566.491C2.49249 568.5 2.61339 567.304 2.69453 567.851C2.8053 568.591 2.58739 569.24 2.71119 570.036C2.8061 570.651 3.03202 569.985 2.97479 571.59C2.68212 570.945 2.3799 570.286 2.0836 569.637C2.14953 569.245 2.21647 568.857 2.28311 568.465C2.36136 568.861 2.43857 569.25 2.51681 569.646C2.37628 568.252 2.24373 566.935 2.09813 565.494C2.5212 565.963 2.36258 564.473 2.31259 563.665C2.23444 562.405 2.52561 563.484 2.47707 562.658C2.42779 561.832 2.10249 560.941 2.17204 559.448C2.36036 560.248 2.52924 559.16 2.70308 559.37C2.87691 559.581 2.9154 561.16 3.1051 559.643C2.96093 556.726 2.29894 559.891 2.19169 557.922C2.06275 555.555 3.14185 554.992 3.37382 555.698C3.55638 556.253 3.51966 558.162 3.7015 558.722C4.02966 555.301 3.38183 555.272 3.25505 554.687C2.79362 552.561 4.02521 553.989 3.57974 551.472C3.81005 551.52 4.0172 551.558 4.2381 551.605C4.19608 551.171 4.14025 550.883 4.10694 550.358C3.65819 551.905 3.67742 550.639 3.67672 549.989C3.67527 548.965 3.45639 550.547 3.39988 550.276C3.24867 549.544 3.31733 548.387 3.11962 549.097C3.21163 548.779 3.3039 548.434 3.39518 548.107C3.28054 546.911 2.31926 544.099 2.51339 546.775C2.15624 546.525 2.3279 545.66 2.38223 544.984C2.43651 544.309 2.20906 544.321 2.25107 543.728C2.41915 541.366 2.80823 542.911 3.11321 543.285C2.90314 540.167 2.76415 543.22 2.62361 538.725C2.37513 538.291 2.10998 540.367 1.96654 538.638C2.39822 538.32 2.70833 537.046 2.85175 534.564C2.7525 534.323 2.65237 534.083 2.55312 533.842C2.95156 532.487 3.36589 533.18 2.87183 530.671C3.78099 532.018 3.19935 531.092 3.56949 528.846C3.64411 528.39 3.83273 529.444 3.92836 528.807C3.97148 528.519 3.8291 527.818 3.93904 527.113C3.99336 526.769 4.34392 525.16 4.17743 524.046C3.73696 524.863 3.36226 522.746 2.99786 524.561C3.08769 521.206 2.87621 518.857 3.47678 522.617C3.61008 521.765 3.74281 520.913 3.87538 520.061C3.77033 519.467 3.66612 518.869 3.5618 518.27C3.92381 518.18 4.02536 518.271 3.96168 515.932C4.04712 516.947 4.13398 517.957 4.22015 518.977C4.29325 519.011 4.36923 519.153 4.44017 519.119C4.30113 517.871 4.24129 514.356 4.14496 513.504C4.04861 512.652 4.02224 514.297 3.92878 514.052C3.15815 512.009 3.72652 512.171 3.59427 510.705C3.51602 509.844 3.43107 511.899 3.39774 511.438C3.27561 509.732 3.68517 508.94 3.69039 507.426C3.45792 507.964 3.22182 508.497 2.98718 509.022C2.99949 507.434 3.00156 505.665 2.92694 504.189C2.89781 503.61 2.72491 504.048 2.71333 503.953C2.65392 503.484 2.55982 501.574 2.5591 501.371C2.55772 499.849 2.7972 499.806 2.81031 498.327C2.83058 498.907 2.84886 499.453 2.86841 500.021C3.25666 500.279 3.6449 500.543 4.03388 500.801C4.06213 499.351 4.08979 497.901 4.11804 496.447C3.98839 497.509 3.85935 498.576 3.72969 499.638C3.41602 497.978 3.10163 496.317 2.78724 494.656C2.97993 493.792 3.17258 492.93 3.36527 492.066C3.31444 489.717 2.53224 490.19 3.21745 489.076C3.15952 488.384 3.10163 487.691 3.04443 486.999C3.14219 487.098 3.24016 487.196 3.33793 487.295C3.2778 486.46 3.21807 485.626 3.15721 484.791C2.81097 485.669 2.44661 486.529 2.11051 487.398C2.03527 485.755 2.329 485.724 2.40231 485.479C2.59646 484.829 2.33458 483.54 2.51424 483.024C2.57592 482.849 2.76929 484.459 2.9923 483.904C3.03553 483.796 3.85533 481.641 3.66604 480.266C3.51753 480.291 3.33543 480.398 3.17387 480.454C3.08367 478.604 3.85888 477.661 4.07617 477.906C3.92405 476.921 3.91134 475.481 3.67373 475.279C3.66793 474.776 3.66243 474.276 3.65664 473.773C4.23534 474.297 4.12952 472.198 3.63186 472.06C3.61954 472.925 3.60658 473.791 3.59426 474.655C2.98429 474.002 2.61611 476.629 3.18114 471.162C3.49845 470.116 3.13791 473.02 3.37552 472.168C3.51383 470.688 3.39811 469.299 3.61904 467.892C3.89504 466.142 4.16049 468.296 3.80916 464.217C2.92897 473.213 3.21456 462.983 2.94146 458.758C3.8108 457.597 4.08616 454.029 3.82753 449.116C3.58558 449.628 3.71023 451.173 3.63058 452.064C3.5509 452.954 3.40736 451.991 3.29435 453.1C3.18137 454.21 3.02778 456.567 2.85687 457.69C2.71994 456.739 2.39619 452.042 2.7851 455.148C3.02484 452.829 3.2712 451.741 3.31614 448.868C2.93872 448.008 2.70371 448.071 2.69282 445.271C3.21728 446.927 3.58178 443.745 4.12359 444.445C3.9974 446.431 3.47079 445.321 3.21873 446.47C3.19354 446.588 3.32555 448.438 3.31614 448.868C3.7892 447.001 3.96528 446.355 4.52818 447.504C4.47891 446.183 4.54958 445.362 4.28081 445.241C4.39741 444.966 4.51411 444.689 4.63071 444.418C4.62781 443.988 4.61701 443.601 4.61917 443.146C4.21375 443.773 4.46333 442.557 4.27953 441.692C4.09552 440.827 3.77548 441.987 3.77113 439.613C3.67623 440.404 3.5948 441.128 3.50497 441.894C3.40067 440.362 3.2957 438.826 3.19139 437.295C2.94367 438.37 2.57571 440.701 2.24979 440.637C2.37284 439.932 2.15658 437.516 2.14768 437.251C2.11435 436.227 2.31991 436.785 2.32498 436.708C2.42486 435.099 2.35488 433.774 2.66633 433.164C2.5258 431.955 2.60592 431.043 2.59797 429.761C2.59363 429.056 2.36487 429.193 2.40829 428.78C2.69804 426.035 2.99366 428.65 2.43093 423.356C2.27157 423.997 2.10855 424.629 1.94774 425.27C1.88761 424.672 1.82715 424.078 1.76702 423.479C1.796 423.079 1.8252 422.683 1.85417 422.283C2.1997 422.291 2.54595 422.302 2.89148 422.31C2.91031 421.871 2.92861 421.431 2.94744 420.992C2.98149 421.745 3.0155 422.5 3.04955 423.252C3.11035 423.321 3.17118 423.386 3.23197 423.454C3.32615 422.336 3.42118 421.221 3.51608 420.102C3.39588 420.081 3.27484 420.06 3.15465 420.038C3.32199 417.517 3.42374 417.457 3.0927 415.061C3.09632 413.215 2.59376 411.712 2.38222 410.645C2.44958 410.262 2.5178 409.879 2.58516 409.492C2.48518 409.247 2.38565 408.999 2.28567 408.754C2.42475 408.268 2.56386 407.775 2.70222 407.289C2.38653 407.018 2.28797 406.878 2.17716 408.775C1.78452 408.125 1.95773 404.785 2.08957 403.426C2.18963 402.394 2.51712 403.539 2.55696 403.41C2.6923 402.979 2.57552 401.279 2.59797 400.922C2.69142 399.412 2.67506 398.354 2.7475 396.99C2.762 396.725 2.96955 395.983 2.97607 395.92C3.01156 395.429 3.11244 394.219 3.11534 394.081C3.27027 386.98 2.3698 394.568 2.46468 387.964C2.34593 388.162 2.22797 388.344 2.10923 388.537C2.10199 388.039 2.0951 387.535 2.08787 387.036C2.18711 386.403 2.3676 387.168 2.22201 385.912C2.36834 385.994 2.51474 386.076 2.66035 386.162C2.58138 385.616 2.50306 385.089 2.42409 384.53C2.93191 383.652 3.04723 380.448 3.64339 380.676C3.84624 380.753 4.05437 383.025 4.27098 381.825C4.31362 380.849 4.07136 381.509 4.05865 381.112C3.97027 378.238 4.30984 378.405 4.21929 377.23C4.07376 377.045 3.92537 376.851 3.77839 376.662C3.82111 376.219 3.86384 375.775 3.90656 375.327C3.80876 375.224 3.71086 375.116 3.61306 375.013C3.60654 375.431 3.59992 375.9 3.59341 376.283C3.21461 375.749 3.04445 370.846 3.3674 372.716C3.49851 373.477 3.44281 374.872 3.89033 373.991C3.82585 372.679 3.75998 371.19 3.69551 369.809C3.79186 369.766 3.88839 369.726 3.98474 369.683C3.92237 367.822 3.53714 369.514 3.33066 369.511C3.32487 369.085 3.31979 368.655 3.314 368.229C3.40736 368.049 3.50508 367.877 3.59554 367.688C3.44697 367.671 3.10164 367.433 3.22984 366.164C3.31328 365.348 3.68811 366.633 3.63613 365.077C3.40435 365.193 3.12206 365.755 3.04741 364.022C3.28931 363.85 3.51092 363.612 3.76515 363.479C3.53275 361.324 3.90632 360.343 3.63613 357.814C3.46515 356.209 2.85823 354.011 3.79335 352.974C3.81796 351.8 3.58509 352.173 3.53274 351.826C3.28498 350.186 3.72839 348.967 3.75447 348.662C3.92165 346.714 3.76816 345.84 3.97748 344.253C3.80434 344.339 3.64044 344.386 3.47164 344.455C3.731 345.909 3.71882 346.645 3.66304 348.685C3.62828 348.001 3.59271 347.317 3.55794 346.633C3.41744 346.745 3.27691 346.855 3.13713 346.963C3.69061 353.27 2.81614 351.799 2.62488 346.511C2.88491 346.055 3.14425 345.583 3.405 345.131C3.01092 342.077 3.35302 340.639 3.4349 337.185C3.44427 336.774 3.29448 335.278 3.28708 334.635C3.28609 334.646 3.28509 334.657 3.28409 334.668C3.03854 334.268 2.92553 334.809 2.70606 334.874C2.67854 334.525 2.65113 334.177 2.6236 333.828C2.7909 333.05 2.92832 333.324 2.88848 331.793C2.72188 331.999 2.55523 332.203 2.38863 332.409C2.38283 330.731 2.56385 329.633 2.48561 328.072C2.54864 328.334 2.61184 328.593 2.67487 328.856C2.8357 325.457 3.81522 328.162 3.32767 325.593C3.41312 325.43 3.49941 325.271 3.58486 325.107C3.60586 326.165 3.62623 327.224 3.64723 328.278C3.76817 328.299 3.88859 328.323 4.00952 328.34C3.9733 327.208 3.93595 326.071 3.89972 324.94C3.98086 325.766 4.0621 326.597 4.14324 327.423C4.20119 326.111 4.25917 324.798 4.31712 323.486C3.87242 324.88 3.81804 323.073 3.37765 323.413C3.74422 321.09 4.22743 319.265 3.91809 315.664C3.85647 314.95 3.54873 315.338 3.92322 313.312C3.43356 313.802 3.20379 311.264 2.7381 311.59C2.76055 312.295 2.77467 313.027 2.80218 313.711C2.96372 312.932 3.40812 312.803 3.54 313.986C3.70806 315.496 3.40007 317.698 3.89331 317.608C3.87014 318.21 3.85647 318.77 3.83692 319.355C3.71456 319.114 3.59144 318.879 3.46908 318.642C3.66091 320.306 3.59853 321.352 3.29007 322.152C3.21909 320.169 3.14886 318.19 3.0786 316.207C3.05762 316.499 3.03648 316.796 3.01622 317.088C2.70109 315.586 2.4026 317.135 2.33523 314.334C2.47935 314.351 2.62358 314.365 2.76843 314.382C2.38302 313.363 2.38511 310.571 1.94175 311.462C2.07793 310.618 2.16407 310.447 1.92509 309.969C2.26196 307.745 2.68795 306.316 3.19651 307.108C3.11466 306.282 3.0327 305.456 2.95086 304.634C2.81179 305.112 2.67338 305.59 2.53431 306.067C2.543 304.63 2.55155 303.183 2.55952 301.75C2.97094 301.612 2.68434 304.516 3.05211 303.678C3.12593 303.51 2.9678 302.737 3.00939 302.534C3.45923 300.392 3.13423 303.755 3.47891 303.123C3.5854 299.931 4.16295 302.486 3.67756 298.089C3.79635 297.973 3.91752 297.848 4.03558 297.74C4.04271 296.214 3.77441 296.338 3.72371 295.026C3.69216 294.204 4.1633 293.173 3.84247 292.265C3.78332 292.104 3.20748 293.63 3.23282 290.422C3.25246 287.932 3.65941 288.969 3.8036 287.623C3.94776 286.276 3.3835 283.196 4.02319 282.288C3.93846 282.993 3.89276 283.892 3.82325 284.674C3.94783 284.993 4.07107 285.303 4.19493 285.617C4.03412 283.827 4.22366 281.977 3.92664 280.772C4.38086 278.385 3.95934 275.714 3.44644 276.437C3.52039 277.223 3.74404 276.368 3.60152 277.46C3.48198 277.571 3.36304 277.689 3.2435 277.801C3.25799 275.943 3.25464 274.652 3.61903 275.499C3.62773 275.211 3.6364 274.926 3.64509 274.637C3.3814 274.586 3.11672 274.54 2.85302 274.488C2.82332 274.144 2.79386 273.798 2.76416 273.454C2.82208 273.072 2.88067 272.688 2.93932 272.301C3.3566 272.822 3.37038 273.708 3.60365 270.774C3.45949 270.766 3.31589 270.753 3.17173 270.744C3.355 268.288 3.70423 268.223 3.69123 265.139C4.19176 267.505 3.30451 268.8 4.30857 268.791C4.24265 269.385 4.17584 269.983 4.10992 270.577C4.25553 270.667 4.40135 270.757 4.54697 270.843C4.47016 267.655 3.51253 262.36 4.14751 260.226C4.07002 259.968 4.00266 259.709 3.91937 259.446C4.30261 257.355 3.44222 256.453 3.93774 254.332C3.98975 254.113 4.79809 254.571 4.76912 251.81C4.66406 251.878 4.48724 251.914 4.35471 251.97C4.41917 251.372 4.48662 250.778 4.55252 250.184C4.45548 250.077 4.35849 249.964 4.26072 249.856C4.22305 250.876 4.18475 251.893 4.14708 252.912C4.11377 252.065 4.08042 251.212 4.04711 250.365C3.88852 251.471 3.88683 251.969 3.6327 251.303C3.61749 250.344 3.60135 249.383 3.58614 248.423C3.52102 248.325 3.45515 248.226 3.39004 248.128C3.19591 248.592 3.00605 249.062 2.80901 249.526C2.96766 247.027 2.97628 244.854 3.358 242.935C3.42247 242.608 3.67539 243.764 3.44729 241.536C3.58124 241.502 3.69001 241.442 3.81385 241.403C3.43858 238.676 3.55059 237.78 3.82154 234.936C3.5687 236.777 3.73314 235.134 3.59767 234.665C3.50434 234.344 3.51813 235.598 3.42037 235.456C3.32331 235.314 2.93135 233.685 2.88421 235.078C3.68762 238.494 2.72707 239.425 3.1132 243.813C3.0096 243.137 2.90577 242.457 2.80218 241.782C2.73196 242.1 2.66826 242.385 2.59369 242.729C2.75087 240.281 2.64876 241.471 2.52491 240.466C2.40103 239.459 2.29579 237.629 2.26174 236.403C2.25104 236.017 2.43124 236.424 2.44801 235.553C2.4596 234.959 2.19247 233.337 2.50739 232.962C2.71239 232.717 3.27689 235.323 3.27554 231.719C3.47652 231.041 3.4141 232.769 3.43832 232.806C3.67738 233.12 3.85713 230.905 3.67457 229.881C3.65882 229.798 3.47253 230.606 3.39944 229.727C3.22485 227.64 3.43849 226.435 3.72755 225.084C3.38851 224.938 2.9836 223.182 3.10893 220.997C3.0119 220.885 2.91402 220.778 2.81628 220.667C2.86763 221.006 2.9183 221.345 2.96965 221.684C2.9088 222.054 2.8645 222.446 2.79278 222.808C2.7094 220.61 2.24215 220.299 2.0712 219.245C1.4872 215.638 2.72254 217.824 2.93547 218.475C2.84926 218.944 2.75303 219.397 2.66248 219.862C2.78056 219.81 2.89954 219.758 3.01835 219.711C3.01474 214.311 3.78488 218.888 4.00439 216.148C3.42342 215.442 3.36742 213.429 3.73609 210.866C3.73319 210.582 3.73245 210.297 3.72883 210.013C3.64412 209.966 3.51464 209.966 3.45882 209.889C3.3603 206.8 4.255 206.25 4.33976 205.957C4.71569 204.658 4.19554 203.646 4.19109 203.263C4.17297 201.65 4.40393 201.181 4.30473 199.645C4.19753 197.994 4.02032 199.123 3.86169 198.621C3.73572 198.218 3.71329 196.914 3.58272 196.376C3.68951 196.59 3.79423 196.828 3.90143 197.041C4.04701 195.329 4.18892 193.93 4.22441 191.986C3.44301 189.792 4.76113 187.925 3.69209 188.682C3.61892 190.523 3.49709 191.553 3.2247 192.538C3.18994 191.33 3.15608 190.12 3.12131 188.911C3.23864 188.559 3.35299 188.308 3.47249 187.891C3.22333 186.988 3.33025 184.894 3.25717 184.072C2.91451 180.221 2.48952 181.412 3.20377 177.898C3.27336 180.431 3.62027 180.427 3.57246 182.939C3.82022 182.397 3.76889 181.12 4.06591 181.946C3.99275 179.516 3.72757 180.302 3.49214 179.356C3.28919 178.54 3.27783 176.897 3.01408 176.99C3.15909 176.822 3.29947 176.692 3.4443 176.524C3.44285 174.95 3.44275 173.376 3.4413 171.801C3.59269 172.472 3.74435 173.143 3.89502 173.814C3.9522 173.307 4.00916 172.799 4.06633 172.292C3.59545 168.42 4.45846 161.743 3.27554 162.81C3.23787 160.943 3.38624 160.709 3.61006 159.694C3.52025 159.582 3.44556 159.473 3.34561 159.362C3.43962 158.157 3.10245 157.233 3.1901 156.17C3.27706 155.108 3.59554 154.844 3.06022 154.689C3.21377 154.001 3.34133 153.317 3.48403 152.633C3.36241 152.22 3.2422 151.808 3.12131 151.399C3.18506 150.754 3.24854 150.107 3.31228 149.462C3.05675 149.117 3.16689 146.58 2.99528 145.461C3.27073 144.4 4.13801 144.429 3.9826 141.931C3.76749 141.995 3.55302 142.059 3.33791 142.123C3.38282 141.551 3.42758 140.978 3.47249 140.402C3.5427 140.367 3.61291 140.337 3.68311 140.303C3.66138 140.596 3.63977 140.884 3.61732 141.177C3.73613 140.923 3.85439 140.674 3.9732 140.425C3.79719 139.551 3.62116 138.677 3.44515 137.799C3.31188 138.982 3.17853 140.166 3.04527 141.348C2.88734 139.864 3.04486 138.831 2.86882 137.54C3.16579 136.418 3.33691 136.832 3.65919 137.288C3.63167 136.871 3.6051 136.449 3.57759 136.032C3.89991 136.307 4.09196 135.601 4.06591 138.04C4.15784 137.873 4.24549 137.701 4.34104 137.538C4.32655 137.138 4.40426 136.879 4.36881 136.44C4.27173 135.244 3.70559 134.327 3.5071 134.409C3.40312 134.453 3.60197 135.632 3.45497 135.585C3.09652 135.468 3.25746 132.763 2.89745 136.665C2.66925 135.37 2.84134 135.08 2.90727 133.652C2.78782 133.764 2.66913 133.872 2.54968 133.98C2.60472 133.318 2.65956 132.655 2.71459 131.992C3.32817 132.913 3.55863 128.03 4.09538 132.426C4.12291 131.127 4.15058 129.832 4.17955 128.537C4.24256 128.804 4.30494 129.071 4.36795 129.337C4.33463 129.922 4.30186 130.504 4.26926 131.089C4.38441 130.401 4.49888 129.711 4.61403 129.023C4.47132 127.397 4.25182 126.76 3.98089 126.015C3.78317 127.908 4.05324 127.29 4.10692 128.764C3.93534 128.713 3.77751 128.781 3.59724 128.652C3.95265 127.89 3.69409 125.404 3.6767 124.828C3.62391 123.074 3.97312 124.449 3.98046 123.276C3.9877 122.101 3.77986 120.716 4.12614 119.756C3.93205 119.774 3.73124 119.85 3.55452 119.919C3.49076 118.091 3.72006 118.456 3.74976 118.266C4.23802 115.246 3.82581 113.607 3.77582 110.153C3.7157 110.591 3.66143 111.035 3.60493 111.478C3.19284 108.871 3.31902 110.627 3.18283 112.89C3.22412 110.769 2.87317 109.554 2.76885 108.057C2.66471 106.56 2.84496 103.993 2.98545 103.055C3.21148 105.201 3.06243 107.517 3.12473 109.9C3.32245 109.63 3.48979 109.366 3.70704 109.087C3.29205 107.637 3.56953 106.797 3.62458 106.319C3.78605 104.917 3.42987 104.961 3.81299 104.114C3.68119 104.148 3.57038 104.173 3.44728 104.208C3.50234 101.313 3.73534 98.1896 3.24862 96.3052C3.56517 96.1331 3.87015 96.0033 4.19322 95.8054C3.95493 94.5794 4.19894 93.5295 4.14323 92.4971C4.08745 91.4689 3.83163 91.8603 3.7331 90.6515C3.71498 90.4278 3.8751 89.9619 3.75702 89.4112C3.63831 88.8552 2.75567 86.8044 3.52675 86.5592C3.53037 85.5224 3.55856 84.5413 3.5716 83.5261C3.61507 84.5155 3.65716 85.5053 3.70063 86.4904C3.88751 85.6473 4.07383 84.8094 4.26072 83.9662C4.09409 83.8587 3.92446 83.7508 3.76001 83.6476C3.55717 81.376 3.82959 79.7276 3.76514 77.4345C3.75427 77.0517 3.42484 77.955 3.5088 76.2561C3.59283 74.5568 4.20769 73.2958 3.9702 70.4007C3.95789 70.2545 3.48698 69.3972 3.81299 68.3603C3.88687 68.1244 3.9962 69.1174 4.09324 68.5758C4.19032 68.0337 4.27015 65.6151 4.50124 65.4257C4.4194 65.4516 4.33461 65.6025 4.25132 65.6756C4.21221 65.2627 4.17307 64.8456 4.13469 64.4285C4.27883 64.3897 4.42319 64.348 4.56661 64.3092C4.23121 61.9345 3.68407 60.7072 3.86511 57.1883C3.65576 58.1778 3.44558 59.1676 3.23623 60.1527C3.38329 60.4237 3.53135 60.6952 3.67841 60.962C3.61974 62.5837 3.56149 64.2099 3.50282 65.8315C3.67017 66.0983 3.83703 66.3603 4.00438 66.6271C3.98265 67.0572 3.9616 67.4831 3.93987 67.9132C3.8189 67.8057 3.69856 67.6973 3.57758 67.5854C3.60728 68.437 3.63761 69.2898 3.6673 70.1371C2.95321 68.412 3.72804 65.3196 3.13071 65.5427C3.22339 65.16 3.31671 64.7767 3.41011 64.3941C3.12047 64.2262 3.20383 63.448 3.24948 62.0762C3.10676 62.3903 2.96599 62.7371 2.82182 63.0254C3.0232 61.6917 3.00364 59.3259 3.08115 57.9449C3.11519 57.3384 3.32519 57.9442 3.34987 57.7638C3.47882 56.8388 3.11241 55.0708 3.14139 54.7008C3.31383 52.4896 4.0085 51.0526 3.55067 48.6391C3.43765 51.1301 3.48539 49.7749 3.2311 50.6612C3.15138 50.9387 2.98507 54.1568 3.05893 50.127C3.06818 49.6546 3.54814 42.3427 3.91595 44.7462C3.79858 43.5631 3.66288 42.6368 3.53828 41.5526C4.50759 38.9024 3.59699 39.8196 3.09567 40.5897C3.0935 40.1552 3.08841 39.7418 3.08841 39.2944C3.61508 40.2452 3.64779 35.4011 3.38191 33.7577C3.29353 33.207 3.12495 34.7467 3.04526 33.4734C3.0822 32.867 3.13002 32.1791 3.17129 31.5384C2.83807 32.4676 2.70966 30.6439 2.37067 30.6695C2.67274 29.5037 3.313 28.6119 3.66004 29.2526C3.51952 28.2891 3.37918 27.3206 3.23794 26.3571C3.15753 26.8045 3.07782 27.2577 2.99741 27.7051C3.2104 24.5559 2.72575 20.5065 3.43788 19.8483C3.43281 19.431 3.42842 19.0092 3.42335 18.5919C3.3031 18.4628 3.18261 18.3381 3.06235 18.209C3.16664 16.3208 3.27164 14.4368 3.37593 12.5485C3.45056 14.2299 3.62173 14.6301 3.48274 16.3933C3.62105 15.7138 3.76012 15.0217 3.89843 14.3551C3.52607 11.7007 3.28134 11.3386 3.39217 7.34198C3.39724 7.16129 3.7095 4.14156 3.73993 4.03831C3.87901 3.56525 4.08106 4.28333 4.15134 4.0727C4.34839 3.48759 4.84317 -0.0678504 4.91779 0.000986074C5.83349 0.870057 5.84562 12.8324 5.89271 16.0677C6.38097 49.6251 5.72775 82.4436 5.83931 115.79C5.84104 116.133 5.97622 115.983 5.98201 116.13C6.01596 117.037 5.80528 117.928 5.79659 118.264C5.77868 118.981 5.97332 118.586 5.97346 119.11C5.97129 124.522 5.85683 129.629 5.89016 135.046C5.89233 135.399 5.7366 135.039 5.76412 135.658C5.7792 135.978 6.01812 136.979 6.02174 137.701C6.03405 140.222 5.95745 142.34 5.96108 144.998C5.96324 146.452 5.94293 148.634 5.94655 150.26C5.94809 150.978 6.05739 151.726 6.06105 152.436C6.06612 153.442 5.84454 153.237 5.83077 153.392C5.77066 154.071 6.01386 154.165 6.00807 154.811C5.99648 156.011 5.8341 156.076 5.84786 157.599C5.858 158.687 5.98621 161.178 6.02388 162.551C5.83554 165.76 5.91031 169.804 5.97261 172.799C6.00954 174.571 5.7822 174.735 5.78292 175.458C5.78733 178.005 6.07769 179.937 6.08711 182.329C6.09938 185.503 5.90738 188.317 5.89358 191.392C5.8914 191.891 6.09971 191.776 6.10505 192.265C6.12461 194.077 6.16252 196.393 6.13282 198.006C6.10018 199.804 5.79783 200.467 5.8594 202.227C5.87768 202.743 6.14279 202.894 6.17683 203.758C6.23035 205.139 5.99657 206.653 5.97048 207.617C5.9357 208.938 6.20579 207.789 6.16956 209.57C6.168 209.643 5.97494 209.91 5.98415 210.292C6.01023 211.407 6.16226 211.296 6.14778 212.927C6.14577 213.083 5.96182 215.245 5.96108 215.46C5.95818 216.725 5.89378 219.271 5.93288 220.02C6.07198 222.696 6.36236 220.589 5.73209 222.865C5.88635 223.867 6.04271 224.861 6.19263 225.924C6.05282 225.215 5.85106 228.092 5.8641 228.294C5.96917 229.967 6.2144 228.97 6.17384 231.091C5.60732 228.29 6.10082 233.827 6.11531 235.062C6.18556 241.007 6.04418 246.412 6.04781 252.387C6.04929 254.388 6.16905 257.069 6.16615 259.185C6.16598 259.678 6.03191 259.306 6.02901 259.74C6.02702 260.173 6.17753 259.692 6.16957 260.187C6.11739 263.263 5.8334 265.673 6.18836 268.491C6.13704 268.628 6.09649 268.624 6.04012 268.851C6.35812 271.157 5.93047 275.598 5.87179 277.267C5.78056 279.878 5.99551 280.545 5.95211 282.441C5.89416 284.95 5.47423 288.715 6.16743 287.034C6.18916 288.754 6.19515 290.411 6.13069 292.148C6.12338 292.342 5.94719 292.209 5.94357 292.286C5.91827 292.776 6.07602 292.936 6.08327 293.267C6.10275 294.165 5.91386 292.7 5.96664 293.98C5.99489 294.656 6.13248 295.039 6.13539 296.915C6.1506 308.221 6.10132 320.496 6.07814 332.086C6.07669 332.882 6.24708 332.358 6.23622 333.356C6.19851 336.824 5.91176 343.031 5.95083 346.021C5.98995 349.01 6.23912 348.336 6.34345 350.207C6.36374 350.568 6.22173 350.272 6.21956 350.599C6.2065 352.797 5.98501 355.418 5.95169 357.2C5.92936 358.377 6.15276 358.283 6.16872 359.1C6.1919 360.318 5.96619 361.571 5.95895 362.22C5.92712 365.274 6.10892 367.374 6.0162 370.226C6.06536 370.115 6.11088 370.041 6.15932 369.947C6.15135 373.323 6.14336 376.696 6.13539 380.073C6.18031 379.914 6.22561 379.76 6.27125 379.601C6.2466 383.563 5.7598 383.111 6.78777 382.762C6.82398 383.051 6.86596 383.356 6.89927 383.631C6.36974 383.519 5.98222 385.916 5.84744 388.966C5.8373 389.19 6.35361 390.691 5.74363 390.527C5.89286 390.919 5.99573 391.152 6.12685 391.483C5.94217 392.129 5.75968 392.782 5.57573 393.428C5.60325 393.776 5.62981 394.129 5.65733 394.478C5.77686 394.529 5.90097 394.49 6.01833 394.601C6.03644 396.219 5.88867 399.536 5.90384 400.814C5.94223 403.99 6.26541 407.222 5.91623 409.692C5.95183 410.895 6.18644 409.7 6.15676 411.489C6.03798 411.691 5.92413 411.881 5.80173 412.092C6.33244 413.554 6.0096 413.86 5.89871 415.863C5.82338 417.218 5.95309 418.106 5.92776 419.396C5.92124 419.723 5.76547 419.677 5.77054 419.901C5.78661 420.65 6.00101 422.788 6.0068 423.317C6.0633 428.109 6.03925 432.226 5.98202 436.79C5.97623 437.281 6.12995 436.645 6.12343 437.153C6.1132 437.969 5.87698 437.489 5.86539 437.962C5.83439 439.282 6.08348 439.292 6.09652 441.133C6.13923 447.194 5.95212 454.164 5.93546 460.496C5.93546 460.694 6.0814 460.682 6.08285 460.897C6.08998 462.299 5.8927 463.719 5.89487 464.992C5.89777 467.104 6.1028 468.692 6.10207 470.779C6.10135 474.857 5.99637 478.501 5.99057 482.696C5.9855 486.129 6.00496 489.111 6.00424 492.875C6.00134 509.318 6.46459 526.097 6.21828 542.653C6.21177 543.074 6.08282 542.902 6.08841 543.031C6.14419 544.253 6.31817 544.362 5.95383 544.796C6.02563 546.353 6.29936 546.844 6.2798 548.723C6.26955 549.725 5.8453 548.977 6.06405 550.672C6.26181 552.203 6.49432 550.514 6.25673 555.065C6.2502 555.185 5.99161 555.778 6.05893 556.725C6.12558 557.676 6.31075 556.575 6.36653 558.864C6.49692 564.237 6.27338 571.038 6.34218 577.285C6.34653 577.676 6.48478 581.447 6.54853 582.191C6.6724 583.632 6.86457 583.331 6.91167 585.201C6.94789 586.647 6.73021 587.84 6.77368 589.539C6.77896 589.737 7.00287 590.069 6.97319 591.346ZM2.62403 274.642C2.40433 274.289 1.59569 273.652 1.84178 271.519C1.86496 271.317 2.42106 272.409 2.50953 271.23C2.56821 272.383 2.58721 273.506 2.62488 274.642C2.6246 274.642 2.62431 274.642 2.62403 274.642ZM1.81701 600.592C1.85758 598.996 1.89778 597.394 1.93835 595.798C2.03614 596.899 2.13375 598.002 2.23228 599.099C2.09393 599.598 1.95536 600.093 1.81701 600.592ZM2.20108 401.899C2.20108 401.9 2.20108 401.902 2.20108 401.904C2.09676 400.226 1.99224 398.547 1.88792 396.869C1.96472 397.045 2.04183 397.222 2.11863 397.398C2.23958 398.723 2.36038 400.049 2.48134 401.369C2.38791 401.546 2.29451 401.723 2.20108 401.899ZM3.01409 415.155C2.92281 416.226 2.76887 415.964 2.61891 416.553C2.61919 416.553 2.61948 416.553 2.61976 416.553C2.58072 416.709 2.54656 417.433 2.54072 417.713C2.63708 417.61 2.73219 417.477 2.82782 417.365C3.06109 419.865 2.23215 424.753 1.89818 418.424C2.01986 418.519 2.14092 418.609 2.2626 418.704C2.22856 415.559 2.49249 412.053 3.01409 415.155ZM2.2737 249.354C1.87526 246.67 1.79125 245.809 2.06436 242.552C2.1773 243.012 2.29022 243.472 2.40315 243.932C2.28796 244.47 2.17357 245.004 2.05838 245.542C2.05838 245.543 2.05838 245.545 2.05838 245.546C2.17936 245.654 2.30055 245.762 2.42152 245.865C2.37226 247.026 2.32296 248.193 2.2737 249.354ZM2.72614 517.92C1.93036 518.668 2.39292 518.452 2.21347 516.315C2.15117 515.575 2.01194 516.296 1.98875 515.836C1.86213 513.35 2.3953 513.151 2.67274 513.706C2.69158 515.113 2.70876 516.534 2.72614 517.915C2.72614 517.917 2.72614 517.918 2.72614 517.92ZM2.89148 582.418C2.89148 582.42 2.89148 582.421 2.89148 582.423C2.69738 582.487 2.64517 581.485 2.46127 582.615C2.46199 581.756 2.46353 580.896 2.46426 580.032C2.48234 580.285 2.49958 580.544 2.51766 580.797C2.58431 580.574 2.65181 580.349 2.71846 580.126C2.49535 579.82 2.62504 579.536 2.69966 578.633C2.46132 578.883 2.22282 579.131 1.98448 579.38C2.05546 578.331 2.12669 577.278 2.19767 576.228C2.25773 576.215 2.3179 576.202 2.37796 576.189C2.3012 575.794 2.22359 575.402 2.14683 575.006C2.21854 574.899 2.28959 574.795 2.3613 574.687C2.30698 574.21 2.25271 573.732 2.19767 573.255C2.37137 573.109 2.44644 574.161 2.40231 572.296C2.5805 572.869 2.75815 573.439 2.93634 574.016C2.92185 576.816 2.9067 579.617 2.89148 582.418ZM2.48134 498.476C2.51467 501.56 2.38878 500.692 1.99473 499.978C2.15696 499.479 2.31912 498.975 2.48134 498.476ZM2.83209 339.555C2.56332 338.661 2.29723 337.762 2.03788 336.846C1.88792 335.021 2.37779 333.197 2.56977 334.569C2.80012 336.221 2.54232 337.946 2.83209 339.555ZM2.71246 298.008C2.58783 300.24 2.26847 298.14 2.08231 297.637C2.38151 297.02 2.35511 296.159 2.38991 294.776C2.40931 296.074 2.73362 297.639 2.71332 298.008C2.71303 298.008 2.71275 298.008 2.71246 298.008ZM2.53004 375.472C2.53808 376.366 2.61314 377.256 2.52193 378.056C2.26492 377.814 2.49874 376.214 2.11777 377.359C2.11125 376.786 2.10493 376.214 2.09769 375.646C2.25554 376.007 2.37351 375.522 2.52919 375.474C2.52947 375.473 2.52976 375.473 2.53004 375.472ZM2.17844 468.589C2.48271 466.834 2.35251 466.501 2.1417 464.733C2.38943 464.484 2.8044 466.592 2.89575 467.913C2.6567 468.137 2.41749 468.361 2.17844 468.589ZM2.30531 53.4009C2.62108 53.8224 2.66226 56.9318 2.56891 58.4768C2.52207 58.2928 2.47461 58.1082 2.42707 57.9243C2.3865 56.4185 2.34588 54.9067 2.30531 53.4009ZM2.41127 294.118C2.40202 294.349 2.39512 294.569 2.38991 294.776C2.38647 294.546 2.39185 294.323 2.41127 294.118ZM3.7818 200.661C4.07952 201.396 4.17954 199.211 4.06292 201.865C4.0632 201.865 4.06349 201.865 4.06377 201.865C3.98698 203.62 3.96648 204.008 3.94329 205.634C3.56084 205.048 3.42414 201.749 3.34518 206.296C3.34483 206.356 3.5724 206.237 3.54128 206.964C3.5316 207.188 3.34483 207.906 3.2905 208.997C3.27311 209.35 3.21551 212.001 3.21189 208.387C2.94529 208.495 2.67545 208.301 2.41682 208.309C2.34166 206.899 2.86369 205.815 2.85088 204.322C2.8306 202.107 2.30271 200.979 2.99528 200.553C3.16544 202.416 3.16953 205.615 2.75305 206.033C2.74798 207.835 3.0892 208.353 3.25803 206.899C3.04359 200.674 3.76453 205.19 3.49215 199.739C3.39583 199.675 3.29217 199.451 3.20163 199.485C3.54059 197.821 3.67532 200.399 3.7818 200.661ZM3.04527 213.679C2.8417 212.603 2.6365 211.531 2.4322 210.46C2.76399 210.46 3.06172 211.05 3.24863 212.746C3.18059 213.055 3.11259 213.369 3.04527 213.679ZM2.95811 123.202C2.77773 123.047 2.61243 122.635 2.44074 122.333C2.59287 122.006 2.73882 114.262 2.88805 118.202C2.90978 118.774 2.59082 122.264 2.95811 123.202ZM2.45016 480.777C2.57114 479.865 2.69231 478.956 2.8133 478.049C2.89004 479.446 2.9688 480.844 3.04699 482.242C2.84809 481.752 2.64905 481.266 2.45016 480.777ZM3.14866 324.708C3.14189 325.094 2.89381 323.814 2.93291 325.332C2.77426 324.2 2.63997 323.141 2.49074 322.035C2.6081 321.704 2.72498 321.369 2.84234 321.038C2.767 320.78 2.69211 320.517 2.61677 320.258C2.78774 320.413 2.95471 320.551 3.12858 320.715C2.76201 322.578 3.17764 323.005 3.14866 324.708ZM3.81727 380.101C3.4457 380.436 3.22474 377.738 3.16533 380.392C2.92121 379.888 2.79316 379.079 2.77142 377.526C2.86479 377.277 2.95747 377.028 3.05083 376.779C2.801 376.744 2.70814 376.345 2.53004 375.472C2.53033 375.471 2.53061 375.47 2.5309 375.469C2.51281 373.108 2.59611 373.249 3.00683 372.682C2.775 375.181 3.15025 375.256 3.37338 376.96C3.52682 378.13 3.45733 379.658 3.81727 380.101ZM2.96238 131.453C2.64873 129.686 2.35617 131.272 2.68939 128.136C2.76908 128.338 2.84809 128.541 2.92778 128.744C2.94009 129.647 2.95152 130.55 2.96238 131.453ZM2.54371 388.824C3.11889 388.622 3.56662 386.958 2.63087 386.674C2.44034 388.295 2.97039 387.503 2.54371 388.824ZM3.61305 298.77C3.58622 301.888 2.93704 301.299 2.61249 300.017C2.73058 299.819 2.84888 299.621 2.96624 299.428C2.91263 298.881 2.85891 298.335 2.80603 297.788C3.07479 298.115 3.34429 298.443 3.61305 298.77ZM3.17558 443.808C2.76482 441.425 2.94714 446.381 2.69068 444.716C2.48569 443.387 2.89957 441.635 3.15892 442.297C3.16616 442.758 3.17124 443.27 3.17558 443.804C3.17558 443.805 3.17558 443.807 3.17558 443.808ZM3.05809 430.016C2.61922 430.407 2.74715 429.843 2.82611 431.726C2.84857 432.264 2.68374 436.537 3.04741 434.743C3.04741 433.216 3.05375 431.603 3.05809 430.016ZM2.97093 262.718C3.16205 262.689 3.58172 265.98 3.47677 266.402C3.47705 266.402 3.47734 266.402 3.47762 266.402C3.19147 267.542 3.15081 264.071 2.75818 265.577C3.10368 262.243 2.26797 261.245 3.36911 261.478C3.41741 263.442 3.19043 262.512 2.97093 262.718ZM3.20504 12.5738C3.20504 12.5722 3.20504 12.5707 3.20504 12.5692C3.19605 12.7901 2.91556 14.6109 2.8184 14.3895C2.90171 12.1999 3.08634 12.5901 2.78294 10.5517C2.88066 10.4399 2.97544 10.3442 3.07388 10.2238C3.13184 11.0326 3.24923 11.481 3.20504 12.5738ZM3.34347 114.83C3.39345 115.634 3.18632 117.102 3.19864 118.019C2.40321 115.102 3.14495 111.616 3.34347 114.83ZM2.86414 552.252C2.86386 552.25 2.86357 552.247 2.86329 552.245C2.86372 552.246 2.86413 552.247 2.86457 552.247C2.86442 552.249 2.86428 552.25 2.86414 552.252ZM2.86626 177.173C2.91789 177.069 2.96275 177.011 3.00212 176.99C3.00582 176.99 3.00952 176.99 3.01322 176.99C2.96488 177.046 2.91598 177.105 2.86626 177.173ZM2.91326 255.879C3.1798 254.509 3.60355 259.075 3.5024 260.551C3.38074 260.448 3.27045 260.432 3.13072 260.191C3.44576 259 2.86834 256.107 2.91326 255.879ZM3.0111 359.987C3.01834 356.378 4.07075 361.075 3.23112 361.269C3.21485 361.262 3.01253 360.081 3.0111 359.987ZM3.02348 284.344C3.34211 285.264 3.42672 283.416 3.37167 286.371C3.28914 286.543 3.20641 286.715 3.12388 286.887C3.09057 286.04 3.0568 285.192 3.02348 284.344ZM4.39274 336.341C4.21526 331.798 3.90215 327.453 3.02349 330.412C3.05171 330.756 3.079 331.105 3.10722 331.449C3.5359 331.5 3.3019 332.769 3.28794 334.626C3.45813 334.891 3.49748 335.921 3.64211 336.114C3.92167 336.488 4.11822 335.305 4.39274 336.341ZM3.69509 528.14C3.62192 528.067 3.54837 527.996 3.47592 527.922C3.39334 527.204 3.31115 526.484 3.22856 525.765C3.36898 525.881 3.50939 525.998 3.64981 526.114C3.66501 526.789 3.68031 527.461 3.69552 528.136C3.69538 528.137 3.69523 528.139 3.69509 528.14ZM3.9497 218.106C3.14434 217.693 3.29267 219.135 3.69978 222.06C3.78309 220.744 3.86639 219.422 3.9497 218.106ZM4.06634 409.343C3.83755 409.438 3.60945 409.531 3.38065 409.63C3.61899 411.183 3.88101 410.894 4.18383 410.15C4.14475 409.879 4.10543 409.614 4.06634 409.343ZM4.16375 431.715C4.21149 431.07 4.02675 431.399 4.03046 431.332C4.12753 429.701 4.21227 429.472 4.07318 427.471C4.02465 427.226 3.97363 426.985 3.92365 426.74C3.44422 427.664 3.70552 428.336 3.4238 430.293C3.58825 429.94 3.75292 429.589 3.9181 429.236C3.88333 430.324 3.84905 431.408 3.81428 432.496C3.86499 432.625 3.91524 432.755 3.96595 432.884C4.03113 432.497 4.10437 432.097 4.16375 431.715ZM3.48703 536.449C3.4682 537.507 3.44862 538.57 3.42979 539.629C3.54786 539.667 3.66673 539.704 3.78481 539.743C3.68558 538.646 3.58626 537.546 3.48703 536.449ZM3.58272 196.376C3.54083 196.292 3.49869 196.21 3.45583 196.138C3.50806 196.145 3.54884 196.236 3.58272 196.376ZM3.85271 9.78134C3.93529 8.58122 3.88107 6.8518 3.89843 5.53539C3.60221 5.63888 3.68409 8.98473 3.50453 10.1596C3.55768 10.3484 3.81797 10.2886 3.85271 9.78134ZM3.58699 303.084C3.73476 303.385 3.88183 303.686 4.0296 303.983C4.01366 304.71 3.99683 305.439 3.98089 306.17C4.10188 306.192 4.22391 306.213 4.34489 306.234C4.18771 303.013 4.53658 303.755 4.88063 302.16C4.44967 302.47 4.01868 302.775 3.58699 303.084ZM4.25433 570.123C4.17247 567.795 4.01957 566.97 3.65664 568.282C3.73993 569.103 3.82329 569.93 3.90657 570.751C4.02245 570.54 4.13845 570.329 4.25433 570.123ZM3.85614 153.988C3.72053 152.04 4.2076 152.008 3.9356 150.104C3.84579 151.123 3.75498 152.143 3.66517 153.158C3.72867 153.432 3.79263 153.713 3.85614 153.988ZM5.19378 249.512C5.36323 248.691 4.55778 247.155 5.15234 244.845C4.97489 244.294 4.80539 243.949 4.63156 243.476C4.82064 243.201 5.01213 242.888 5.19976 242.625C5.19976 242.624 5.19976 242.622 5.19976 242.621C5.13601 240.526 4.89887 241.884 4.6982 241.837C4.61501 241.814 4.75407 240.259 4.57303 240.745C4.26224 241.584 4.44095 244.719 4.06206 244.728C4.18589 243.626 4.08242 241.476 3.82965 242.112C3.55221 242.809 4.01717 244.836 3.78693 246.126C4.3925 244.277 4.20544 248.097 3.74036 248.531C4.09751 250.773 4.2432 248.712 4.22655 246.415C4.58297 247.818 4.3904 245.753 4.68667 245.413C4.86551 246.859 4.71643 251.822 5.19378 249.512ZM4.53714 355.262C4.51416 353.713 4.71788 351.293 4.41709 350.232C4.24185 349.615 4.10615 352.04 3.83094 350.367C3.85777 351.877 3.96528 352.221 4.20647 351.963C4.23543 352.307 4.26368 352.655 4.29192 352.999C4.24486 353.158 4.19842 353.322 4.15136 353.481C4.2506 353.662 4.34904 353.843 4.44828 354.02C4.42874 354.385 4.40916 354.755 4.3889 355.12C4.4388 355.163 4.48222 355.236 4.53714 355.262ZM3.84118 98.0636C3.84408 98.4937 3.84696 98.9197 3.85058 99.3498C3.90933 99.3024 3.9705 99.246 4.03087 99.1916C4.07858 99.1526 4.12628 99.1137 4.17399 99.0747C4.00355 99.3239 3.72025 101.373 3.90228 102.236C3.99359 102.67 4.31777 101.683 4.37436 103.522C4.35769 102.189 4.31345 100.954 4.28592 99.6593C4.38228 99.7755 4.47966 99.887 4.57601 100.003C4.57615 100.002 4.57629 100.002 4.57644 100.001C4.59816 99.5708 4.62093 99.1356 4.64266 98.7056C4.37534 98.4904 4.1085 98.2787 3.84118 98.0636ZM4.51878 408.082C4.32969 406.615 4.2315 406.124 3.92579 406.817C3.92564 406.818 3.9255 406.82 3.92536 406.821C4.06081 407.367 4.1962 407.914 4.33165 408.46C4.39395 408.336 4.45647 408.211 4.51878 408.082ZM4.59182 183.739C3.43057 180.62 4.14243 187.644 4.53799 186.307C4.5561 186.247 4.46359 184.032 4.59182 183.739ZM3.97021 298.196C3.97963 299.053 3.98814 299.911 3.99756 300.771C4.14027 300.573 4.28249 300.371 4.42521 300.173C4.2738 299.514 4.12162 298.855 3.97021 298.196ZM4.78153 559.989C5.10029 559.088 5.21577 556.775 4.86911 555.645C4.82854 556.239 4.78792 556.833 4.74735 557.426C4.70752 556.304 4.66367 555.194 4.62602 554.063C4.18193 554.003 4.43956 555.306 4.31713 557.268C4.29739 557.572 3.74615 559.514 4.16162 560.184C4.24702 560.319 4.30508 558.253 4.55339 559.689C4.57293 559.061 4.56859 558.519 4.57945 557.926C4.68522 557.883 4.79111 557.841 4.89688 557.793C4.85858 558.527 4.81982 559.256 4.78153 559.989ZM4.50254 346.243C4.52704 344.115 4.3496 343.852 4.03601 343.409C4.07151 344.399 4.10646 345.389 4.14196 346.378C4.2619 346.331 4.38188 346.29 4.50254 346.243ZM4.8832 540.97C4.9345 539.805 4.67924 540.304 4.63071 539.835C4.44818 538.063 4.63061 536.854 4.51622 535.103C4.56548 535.219 4.61152 535.326 4.65934 535.438C4.65934 535.436 4.65934 535.435 4.65934 535.433C4.87447 527.143 4.29558 531.497 4.38976 536.458C4.29486 536.574 4.19983 536.686 4.10565 536.802C4.27154 539.022 4.43117 541.069 4.8832 540.97ZM4.63155 211.45C4.69096 211.356 5.06846 212.16 4.89173 210.65C4.34056 209.454 4.61413 211.415 4.40213 211.906C4.34925 211.498 4.2978 211.08 4.24492 210.675C4.08916 213.119 4.22022 213.476 4.62301 212.585C4.65008 212.521 4.57234 211.545 4.63155 211.45ZM4.90327 195.39C4.09116 195.055 4.45635 198.139 4.70845 198.027C4.71851 197.601 4.581 197.27 4.64181 196.819C4.70265 196.363 4.89234 196.246 4.90327 195.39ZM4.70461 283.746C4.70823 283.656 5.04955 282.748 4.78237 282.838C4.14992 283.961 4.55701 286.223 4.77724 285.828C4.76635 285.079 4.67145 284.58 4.70547 283.746C4.70518 283.746 4.7049 283.746 4.70461 283.746ZM4.97292 574.025C4.99558 573.982 5.13277 571.717 5.00539 571.425C4.86198 571.184 4.70828 571.065 4.5598 570.884C4.69744 572.132 4.59259 574.657 4.97292 574.02C4.97292 574.022 4.97292 574.023 4.97292 574.025Z" fill="#AF6743"/>
</svg>
