<svg width="90" height="90" viewBox="0 0 90 90" fill="none" xmlns="http://www.w3.org/2000/svg">
<circle cx="45" cy="45" r="45" fill="#E0CEA5"/>
<path d="M25.2215 58.3812C23.1569 56.9719 21.1434 55.1465 21.0997 53.3649L9.88672 61.2872C9.88672 61.2872 28.7124 63.6749 41.8367 82.9075C41.8367 82.9075 39.5678 76.6281 34.2933 67.9208C31.9953 64.1239 28.8801 60.8856 25.2179 58.3848L25.2215 58.3812Z" fill="#474019"/>
<path d="M25.0344 58.6513C23.2835 57.3078 21.0329 55.7489 20.7338 53.3722L21.3101 53.6606L10.4072 62.0174L10.0023 60.3891C19.8984 62.2948 28.9374 67.7309 35.9117 74.9158C38.2134 77.3217 40.2999 79.9284 42.1383 82.6921L41.4926 83.0207C40.6245 80.7024 39.5813 78.417 38.4614 76.1899C36.7653 72.8859 34.9743 69.5418 32.8367 66.497C31.3594 64.5182 29.6049 62.7841 27.7847 61.1339C26.8837 60.3015 26.0484 59.3632 25.0344 58.644V58.6513ZM25.4028 58.111C26.4533 58.8083 27.6023 59.4034 28.5908 60.2175C31.5309 62.6563 33.683 65.9676 35.536 69.2351C38.0237 73.6125 40.3254 78.092 42.1784 82.7797L43.145 85.3207C40.7303 81.9327 38.1842 78.5082 35.1968 75.6204C27.73 68.3297 17.9542 62.9849 7.5 61.875C8.30978 61.1594 19.6467 53.8833 20.8833 53.0619L21.445 52.6968L21.4596 53.3503C21.5764 55.4824 23.7832 56.9756 25.4028 58.1037V58.111Z" fill="black"/>
<path d="M61.7731 57.6547C63.8376 56.2455 65.8512 54.4201 65.8949 52.6385L77.1079 60.5608C77.1079 60.5608 57.1661 64.7155 44.0381 83.9444C44.0381 83.9444 47.4231 75.898 52.6977 67.1907C54.9957 63.3938 58.1108 60.1555 61.7731 57.6547Z" fill="#474019"/>
<path d="M61.4786 57.2165C63.1638 56.0556 65.4947 54.9055 65.7172 52.6347L65.7391 52.3171L66.0054 52.4923C66.6547 52.9049 78.495 60.7067 78.7503 60.8674C64.8855 63.8209 52.3412 72.4807 44.196 84.0502C44.196 84.0502 43.3132 85.2842 43.3096 85.2842L43.875 83.875C45.9031 78.8989 48.2886 74.0834 50.9113 69.3921C53.4282 64.5766 56.9664 60.2796 61.4823 57.2165H61.4786ZM62.0732 58.0927C58.8012 60.3051 55.9342 63.1345 53.7383 66.4239C51.5752 69.7827 49.6164 73.2839 47.7597 76.8288C46.5122 79.1909 45.3267 81.5932 44.2105 84.0173C44.2105 84.0173 43.8859 83.8458 43.8932 83.8421C51.619 72.3127 63.5614 63.5653 76.9776 59.9291L76.7368 61.0901L65.7938 52.7917L66.082 52.6457C66.02 53.8431 65.3123 54.8581 64.5682 55.7343C63.8241 56.6032 63.0289 57.4575 62.0768 58.0964L62.0732 58.0927Z" fill="black"/>
<path d="M65.7498 49.0716C63.6779 52.4194 59.3372 57.0669 50.2326 62.2438C50.2326 62.2438 59.691 52.9342 63.3934 47.812C64.101 46.8336 64.3855 45.6179 64.1959 44.4241C63.5065 40.1635 58.1699 30.5947 43.2801 20.1094C28.3903 30.5947 24.3159 39.7619 23.6301 44.0225C23.4368 45.2163 23.7213 46.432 24.4289 47.4104C28.1313 52.5289 37.5897 61.8422 37.5897 61.8422C28.4888 56.6653 24.1444 52.0142 22.0762 48.67C20.5734 46.2385 18.8298 42.197 19.6651 39.4626C21.9996 31.8433 28.6055 23.7931 31.7571 17.9445L25.9318 24.0049C27.0224 8.74802 40.8325 4.5094 42.722 4.00923C42.722 4.00923 56.1236 4.42908 59.6107 17.4297C61.285 23.669 64.1521 32.5187 66.7274 40.9375C67.5663 43.6683 67.249 46.6438 65.7498 49.0716Z" fill="#474019"/>
<path d="M66.0598 49.2614C62.3027 55.1429 56.3534 59.1442 50.4733 62.6636L47.2123 64.5913C49.649 62.1233 52.3701 59.3998 54.7119 56.8734C57.2908 54.1389 59.8369 51.3679 62.1751 48.4254L62.693 47.7426C63.3533 46.9504 63.7253 45.9355 63.656 44.9023C63.4919 43.2813 62.7806 41.6895 62.0364 40.2146C60.9859 38.1957 59.7056 36.279 58.2866 34.4718C53.9897 29.0211 48.7297 24.4101 43.1269 20.3212H43.4333C39.7018 22.9096 36.0468 25.6843 32.877 28.9518C31.3194 30.6238 30.0865 32.5478 28.6384 34.282C26.5264 36.8996 24.9506 40.0175 24.1481 43.2813C23.4331 45.8734 24.677 47.2096 26.2163 49.0898C30.433 54.1718 35.1531 58.8887 39.8331 63.5471C35.0108 60.8528 30.2215 57.9321 26.1616 54.1243C23.6192 51.7586 21.3831 48.9365 20.0736 45.6763C19.3113 43.7705 18.6766 41.6092 19.1617 39.5319C20.9272 33.6906 24.4435 28.583 27.814 23.5814C29.1089 21.6902 30.4367 19.8283 31.6623 17.8897L31.8301 18.0102L26.0303 24.0925L25.8333 24.3627C25.2606 19.5545 27.5988 14.5492 30.692 10.975C33.8764 7.4483 38.1223 4.88176 42.7293 3.75C49.8532 4.16255 56.8203 8.48149 59.3043 15.3487C60.0229 17.2727 60.7014 20.1131 61.3142 22.0955C62.6383 26.5751 64.0427 31.0327 65.4288 35.4977C65.7571 36.582 66.6653 39.4698 66.9827 40.5249C67.9566 43.3835 67.6721 46.6803 66.0635 49.265L66.0598 49.2614ZM65.4397 48.8781C66.9353 46.4722 67.1979 43.4127 66.286 40.7367C65.965 39.6998 65.0713 36.7938 64.7357 35.7131C62.5982 29.0576 60.654 22.289 58.6514 15.6006C56.2914 8.93785 49.5833 4.78319 42.7147 4.26842C37.6846 5.904 32.286 9.50008 29.4263 14.3703C28.6967 15.5787 28.0657 16.8675 27.6097 18.2073C26.9276 20.1131 26.6249 22.0517 26.0704 24.0158C26.0704 24.0158 25.8297 23.91 25.8333 23.91C26.0047 23.7201 32.235 17.3165 32.1985 17.3421C31.0714 19.6312 29.8494 21.8801 28.4815 24.0231C25.3518 29.0868 21.8464 34.0483 20.059 39.7729C19.6177 41.6494 20.1977 43.588 20.8798 45.3586C22.12 48.5276 24.2247 51.2365 26.6869 53.5803C29.9844 56.7274 33.8254 59.2574 37.7721 61.5209L37.3271 62.1087C32.9025 57.6583 28.4377 53.1751 24.5639 48.2209C23.3164 46.8263 22.8787 44.9169 23.4331 43.1207C23.9839 40.8535 25.0381 38.7689 26.22 36.7865C26.8109 35.7971 27.4821 34.8661 28.0803 33.8804C29.3168 31.9345 31.0932 30.4084 32.7274 28.8167C35.941 25.5638 39.4063 22.5664 43.1233 19.894L43.2728 19.7845L43.4297 19.894C47.2743 22.5263 50.9658 25.4104 54.3435 28.6524C58.0058 32.0659 66.2933 41.5435 64.5789 46.7788C64.3235 47.6696 63.656 48.44 63.1198 49.1701C62.2188 50.3165 61.2558 51.4519 60.2929 52.5362C57.185 56.0264 53.924 59.3523 50.5682 62.5906L49.9882 61.8239C55.8245 58.5017 61.6972 54.588 65.4361 48.8817L65.4397 48.8781Z" fill="black"/>
</svg>
