<svg width="65" height="93" viewBox="0 0 65 93" fill="none" xmlns="http://www.w3.org/2000/svg">
<g opacity="0.87" filter="url(#filter0_d_186_6167)">
<path d="M8.80803 50.8794C8.26503 51.1012 7.52571 51.3018 7.16135 50.8794C5.71101 49.2055 8.09523 45.4256 11.1799 45.0882C14.6943 44.7044 17.2731 45.6358 20.3277 47.2866C23.009 48.7349 25.1014 50.8331 26.9126 53.4231C29.1217 56.582 30.7649 60.1671 31.1434 64.3268C28.9059 59.4497 26.1184 55.2128 21.9018 52.3798C20.1437 51.1976 17.7135 51.1378 15.943 51.9767C14.6978 52.5669 13.8966 53.8223 14.1796 55.1761C15.7573 53.5813 18.092 54.4626 19.5211 56.0844C20.669 57.3862 22.1088 58.2829 23.5379 59.2028L26.8666 61.3473C29.2951 62.9113 31.7129 67.8001 31.7695 70.741L31.8473 74.7581C30.0645 69.96 26.3961 63.7618 22.1777 61.7137C20.2835 60.7938 18.3113 60.2442 16.2932 60.3329C13.9408 60.4371 12.1527 61.5537 10.5219 63.2874C8.14299 65.8176 7.32584 69.7691 9.20422 72.9087C11.0826 76.0483 15.3169 77.3635 18.2353 74.7388C19.6803 73.439 20.3967 71.1923 19.3779 69.2812C18.8791 68.3478 17.5968 67.8791 16.6311 68.2436C17.4181 68.9398 17.7188 69.5531 17.6923 70.4286C17.6551 71.7361 17.0555 72.8778 15.7325 73.0629C14.498 73.2365 13.1148 72.5403 12.4763 71.5568C11.7016 70.3592 11.4293 68.9996 11.8626 67.6593C12.0165 67.1849 11.9316 66.5735 12.181 66.076C13.6331 63.1852 16.3958 62.0146 19.3372 62.5295C21.992 62.9943 24.3267 64.3616 26.1096 66.643C27.5193 68.4461 28.676 70.446 29.6665 72.5808C30.657 74.7157 31.8013 76.7618 32.0136 79.2476C30.9806 76.0425 28.8529 72.9704 25.671 73.6453C24.3763 73.9192 23.3929 75.0204 23.0656 76.3414C22.8658 77.1494 22.9312 77.8803 23.4866 78.3972C23.8209 77.6431 24.2772 76.9045 25.0395 76.567C28.1348 75.192 31.6651 79.0509 31.8402 83.8606C31.8544 84.2675 32.3974 84.74 32.5353 84.4449C33.1756 83.0622 32.7016 80.5956 35.3281 77.7723C36.515 76.4976 38.3279 75.919 39.8454 76.9238C39.9852 77.1745 40.0754 77.591 40.5954 77.6759L41.4391 78.4126C42.1713 76.4532 41.0729 74.2008 39.0884 73.6704C37.4312 73.2269 35.8906 74.0812 34.6967 75.4196L33.0607 77.9768C33.0783 76.8486 33.6549 76.0907 33.9432 75.1573C34.8028 72.361 36.2532 70.0236 37.9122 67.7287C40.3814 64.3133 43.5951 62.0994 47.626 62.4948C49.1471 62.6433 50.3622 63.297 51.4111 64.4599C51.9452 65.052 52.4033 65.5129 52.7005 66.3441C53.4203 68.3651 53.2364 70.5193 51.8444 72.1218C50.6081 73.5431 48.3707 73.6569 47.3713 72.0119C46.5489 70.6581 46.9804 69.1249 48.3317 68.3478C47.412 67.7557 46.5188 68.0739 45.7989 68.6891C45.1693 69.2272 44.7306 70.0834 44.7519 71.1614C44.7802 72.7081 45.5354 74.2393 46.793 75.0744C50.2349 77.3596 54.8477 75.6896 56.1636 71.47C57.2761 67.9061 55.7091 63.9797 52.888 62.1033L51.7949 61.3762C48.7969 59.3822 43.2255 60.5412 40.3018 63.1948L36.8156 67.3044C35.0717 69.3602 33.9503 71.8981 33.0164 74.4129C32.6096 74.1622 32.9917 73.7128 32.9439 73.5238C32.783 72.8855 33.1261 71.9155 33.089 71.3292C33.0041 69.9986 33.0713 68.9109 33.6496 67.6979C34.2616 66.4173 34.7551 65.0134 35.6147 63.8756C37.1588 61.8294 39.1344 60.4178 41.2905 59.2665C44.4017 57.6041 45.2878 55.7045 46.8938 54.7364C48.0947 54.0132 49.515 54.1425 50.5992 55.2166C50.792 53.6353 50.0279 52.1966 48.6413 51.7338C46.8142 51.1224 44.9606 51.4213 43.2485 52.3798C40.0418 54.1733 37.6452 56.9966 35.7013 60.2905C34.9868 61.5016 34.672 62.8998 33.6266 63.9546C35.5386 54.3044 41.6053 46.4998 50.5727 45.1171C52.1062 44.8799 54.3489 44.9937 55.6648 45.7573C57.8297 47.0109 58.5178 50.3491 57.1046 50.9951C56.6429 51.2073 56.061 51.0048 55.5198 50.6885C55.2916 51.2709 55.5623 51.8051 56.0363 52.1117C57.0038 52.7346 58.1304 52.6633 59.1121 52.0307C59.8832 51.5332 60.5182 50.5304 60.6226 49.3636C60.925 45.956 58.7831 43.1288 55.7179 42.4596C53.9686 42.0778 52.2035 42.261 50.4312 42.718C48.3777 43.2484 46.7063 44.4344 44.7076 45.4584C45.1127 44.4807 45.997 44.1509 46.724 43.6167C49.1737 41.8194 51.5402 40.1396 53.7705 38.0125C59.1846 32.8461 60.7251 25.4927 57.8987 18.2743C57.0975 16.2282 53.935 13.1291 52.0938 11.9064L48.2522 9.35502C46.6302 8.27892 45.0419 4.15965 47.0229 2.62071C47.6685 2.1193 48.6819 1.9978 49.4283 2.64192C49.66 2.84248 49.7768 3.15104 49.7343 3.43068C49.653 3.9533 48.6855 3.81252 48.5634 4.25607C48.5175 4.42771 48.6094 4.74977 48.7651 4.93683C49.4054 5.7063 50.3905 5.43053 50.9176 4.66877C51.6622 3.59267 51.7701 2.23115 50.9565 1.21869C50.0403 0.0770187 48.7651 -0.214184 47.4721 0.144516C45.3762 0.726922 44.0833 2.47414 44.0674 4.90212C44.0515 7.58852 45.493 9.84679 47.6402 11.1871C51.1051 13.3509 52.9304 14.1146 55.6684 18.041C56.2627 18.8953 56.6146 20.062 56.9224 21.115C57.6299 23.543 57.3982 26.0172 57.0922 28.5069C56.6624 32.0129 55.1731 34.9809 52.7164 37.2546C51.5154 38.3673 50.433 39.5225 49.0764 40.4193C48.9243 40.5195 48.8358 40.7336 48.7226 40.7722C48.5316 40.8358 48.2592 40.5273 48.452 40.3325C50.8575 37.8949 52.6987 34.9327 53.2771 31.4151C53.6273 29.288 53.0206 26.8426 51.4305 25.566C49.8405 24.2893 47.6844 24.7386 46.2783 26.0462C47.8736 26.1233 49.5345 26.4203 50.1093 28.1521C51.7259 33.0158 48.7315 37.4282 45.6398 41.0942L40.3937 47.3136C39.2582 48.6597 38.3969 50.1003 37.4382 51.6161C35.8375 54.1463 34.4137 56.7016 33.4179 59.5017C33.0607 59.4092 32.9828 59.1778 33.0041 58.9984C33.4179 55.4982 33.9751 52.0655 35.1973 48.8159C35.8658 47.0359 37.0792 45.7149 37.9759 44.1046C39.0884 42.1067 39.6279 39.8774 40.3796 37.7367C41.264 35.2181 43.5792 35.625 43.443 34.8748C43.2396 33.7582 40.0011 33.1045 38.1581 35.6809C36.6971 37.7232 35.6571 40.0953 35.0575 42.6428L33.096 50.9778C32.6539 50.621 33.02 50.0772 32.9899 49.6741C32.783 46.8527 32.9068 44.1567 32.9687 41.3507L33.089 35.9259C33.6496 35.3473 34.3748 34.655 34.389 33.7544C34.4031 32.8538 34.2174 32.1325 33.4975 31.446C34.939 31.2088 35.8181 30.5434 36.7962 29.6833C38.9204 27.8185 39.5695 23.6317 42.7231 20.9761C43.9188 19.9695 45.5124 19.4198 46.9698 19.9733C47.2705 20.0871 47.8011 20.9048 48.1407 20.496C48.7881 19.7188 48.2415 18.4884 47.4209 17.9156C45.4257 16.5252 42.7904 16.4538 40.6255 17.4894C39.3078 18.12 38.5419 19.1595 37.2136 20.0138C38.1386 18.203 38.9098 16.7142 39.52 14.9747C41.0553 10.6047 37.3321 9.40516 35.9136 6.84026C34.9921 5.17404 34.1573 3.44032 32.6857 2.22729C31.4334 1.19555 29.2102 5.7333 28.1171 7.70423C27.0718 9.5903 24.5726 10.5719 24.7035 12.9825C24.7937 14.6237 25.2978 16.3188 26.1273 17.6263C26.9568 18.9339 27.5847 20.1238 28.4744 21.3021C28.584 21.4486 28.6176 21.5836 28.5522 21.7225C28.5133 21.8035 28.4319 21.898 28.2692 21.8536C28.1843 21.8305 26.9993 19.5143 24.9794 17.9696C23.0957 16.5271 20.7292 16.6274 18.589 17.393C16.624 18.0969 15.7874 19.6706 16.3463 20.5075C16.44 20.6483 16.7407 20.9337 16.9105 20.7447L17.6198 19.9502C19.3 19.3697 21.0157 20.0003 22.3758 21.2346C24.9016 23.5256 25.7559 27.6912 27.537 29.4172L29.0669 30.9002C29.5745 31.392 30.3174 31.3688 31.0319 31.5154C30.4323 32.1152 30.1511 32.9174 30.2466 33.7216C30.3492 34.5952 30.8091 35.2509 31.5572 35.7658C31.8562 40.3151 31.704 44.957 31.7129 49.5507C31.7129 50.0367 31.9021 50.4494 31.5219 50.7811L29.9017 43.7961C29.2332 40.9149 28.1684 38.2671 26.6101 35.8468C25.4463 34.0359 23.3009 33.2028 21.5056 34.4178C21.3199 34.5451 21.1625 34.7919 21.1873 34.9404C21.2792 35.5247 22.6889 35.0696 23.667 36.759C24.0119 37.3549 24.4612 37.8833 24.6557 38.591C25.25 40.749 25.8372 42.9147 27.1213 44.7487C29.3693 47.9578 30.9824 51.6084 31.2636 55.7026C31.3609 57.1123 31.6651 58.3254 31.4847 59.9993C28.9873 53.4752 25.0608 47.5663 20.3666 42.3767L19.0029 40.8686C15.9607 37.5072 12.8708 32.3138 14.8217 27.9014C15.4425 26.4974 17.0308 26.0867 18.2936 26.2988C18.5696 26.3451 18.6881 26.1329 18.7111 26.0095C18.8862 25.0723 13.7109 23.3077 11.9369 27.2727C9.97892 31.6485 13.1874 36.9325 16.2755 40.1917C15.8493 40.5369 15.4195 40.2843 15.1471 40.0606C13.3784 38.5988 11.707 37.0348 10.2283 35.247C8.6966 33.3957 7.84761 31.3283 7.49033 28.8868C7.04816 25.8552 6.90666 22.7754 8.00857 19.8846C9.28912 16.5252 11.8361 14.1358 14.8464 12.7125C18.6138 10.9306 21.5499 7.76787 20.218 3.32847C19.8201 2.00359 19.0931 0.977627 18.0673 0.49936C16.8486 -0.0695471 15.5309 -0.0290487 14.5174 0.75585C13.3642 1.64874 12.9486 3.01991 13.6278 4.38528C14.1036 5.34375 15.2426 5.68702 16.0987 5.0159C16.3428 4.82305 16.4436 4.04008 16.1659 3.93787C15.7131 3.77202 15.2638 3.74116 15.1666 3.23204C15.0817 2.7827 15.2515 2.29286 15.7042 2.07687C16.3728 1.75095 17.0149 1.75674 17.7365 2.22537C19.7316 3.82988 18.6332 7.93565 16.5638 9.55366L13.7374 11.3105C12.0536 12.3577 10.3804 13.2872 8.99374 14.8281C6.04176 18.093 4.94338 22.6539 5.37318 27.2033C5.94448 33.2491 10.0903 37.7425 14.4927 41.1463C14.8889 41.4529 15.1754 41.7557 15.6123 42.0488L19.3743 44.5829L19.2098 44.8317L16.8097 43.6283C14.3848 42.4114 11.7246 41.8676 9.10517 42.4693C6.4857 43.0709 4.20583 45.3755 4.01127 48.3608C3.92991 49.6105 4.2925 50.6924 4.9876 51.4059C5.77468 52.2159 6.67496 52.5129 7.90775 52.3451C8.63823 52.2448 9.09279 51.5351 8.80803 50.8775V50.8794ZM31.1381 20.7197C30.2838 19.0496 30.404 17.1789 30.8232 15.3391C31.1381 13.9545 31.5148 12.6026 32.3302 11.4995C33.2251 12.6663 33.5205 13.9603 33.8407 15.2832C34.7409 19.0014 33.1155 20.9839 32.3302 24.3259L31.1381 20.7177V20.7197Z" fill="#E0CEA5"/>
</g>
<defs>
<filter id="filter0_d_186_6167" x="0" y="0" width="64.6509" height="92.5371" filterUnits="userSpaceOnUse" color-interpolation-filters="sRGB">
<feFlood flood-opacity="0" result="BackgroundImageFix"/>
<feColorMatrix in="SourceAlpha" type="matrix" values="0 0 0 0 0 0 0 0 0 0 0 0 0 0 0 0 0 0 127 0" result="hardAlpha"/>
<feOffset dy="4"/>
<feGaussianBlur stdDeviation="2"/>
<feComposite in2="hardAlpha" operator="out"/>
<feColorMatrix type="matrix" values="0 0 0 0 0 0 0 0 0 0 0 0 0 0 0 0 0 0 0.25 0"/>
<feBlend mode="normal" in2="BackgroundImageFix" result="effect1_dropShadow_186_6167"/>
<feBlend mode="normal" in="SourceGraphic" in2="effect1_dropShadow_186_6167" result="shape"/>
</filter>
</defs>
</svg>
