<svg width="30" height="30" viewBox="0 0 30 30" fill="none" xmlns="http://www.w3.org/2000/svg">
<g clip-path="url(#clip0_206_8494)">
<path d="M5.6704 30L10.0785 17.8664L2.27417 17.9467L9.35215 14.6408L0 5.63222L12.1723 10.1038L12.0822 2.38151L15.3882 9.35522L24.3647 0L19.9115 12.1939L27.796 12.0533L20.6479 15.3994L30.005 24.4431L17.8277 19.9514L17.9078 27.734L14.6118 20.7001L5.67541 29.995L5.6704 30ZM7.18818 27.6436L15.0927 19.4691C15.273 19.2832 15.3632 18.9315 15.3732 18.6602C16.4552 18.4793 17.457 17.9166 18.0932 16.9419L27.5806 22.8052L19.6761 15.1583C19.3805 14.8719 19.0149 14.6759 18.5841 14.5403C18.4037 13.5103 17.8978 12.5657 16.921 11.9277L22.7267 2.43678L14.722 10.767L14.5316 11.3951C13.4046 11.6011 12.563 12.1789 11.8918 13.0782L2.33428 7.13951L10.4942 15.0678C10.7397 15.304 11.0002 15.4246 11.3859 15.4195C11.5462 16.4545 12.0321 17.4142 13.0589 18.1226L7.18317 27.6486L7.18818 27.6436ZM19.3605 13.9926L25.8223 12.4351C23.6634 12.3547 21.8751 12.4351 19.8464 12.4703C19.5959 12.9777 19.4006 13.5003 19.3605 13.9926ZM14.0007 10.767L13.5498 8.72216C13.2092 7.16463 12.8736 5.71764 12.4128 4.13499L12.4578 10.1892L14.0007 10.7721V10.767ZM17.5522 25.6992C17.6674 23.594 17.5622 21.8154 17.5372 19.8409L16.0194 19.2882L17.5522 25.6942V25.6992ZM10.2438 17.5498L10.7497 15.9973L4.04742 17.6151C6.25647 17.6955 8.15996 17.6151 10.2488 17.5498H10.2438Z" fill="black"/>
<path d="M16.2848 12.2542C17.8928 12.9828 18.4187 14.8618 17.7926 16.2636C17.0662 17.8764 15.2529 18.5396 13.6901 17.8061C12.2324 17.1177 11.5361 15.3643 12.1923 13.8067C12.8485 12.2492 14.5917 11.4905 16.2848 12.2593V12.2542ZM15.6587 12.6361C14.201 12.2291 12.8435 13.1636 12.568 14.5101C12.3075 15.7763 13.0639 17.0826 14.3062 17.4192C15.6236 17.7759 17.0312 17.0273 17.3768 15.731C17.7224 14.4348 17.0512 13.028 15.6587 12.6361Z" fill="black"/>
<path d="M15.6737 13.224C16.7406 13.626 17.1063 14.7816 16.8058 15.6608C16.4351 16.741 15.323 17.2133 14.2811 16.8114C13.3695 16.4597 12.8435 15.4448 13.1841 14.3897C13.4797 13.4853 14.5466 12.802 15.6687 13.224H15.6737Z" fill="black"/>
</g>
<defs>
<clipPath id="clip0_206_8494">
<rect width="30" height="30" fill="white"/>
</clipPath>
</defs>
</svg>
