<svg width="67" height="67" viewBox="0 0 67 67" fill="none" xmlns="http://www.w3.org/2000/svg">
<path d="M33.0662 0.00282804C51.946 -0.237669 66.8439 14.8927 67.0085 33.2011C67.1732 51.6596 52.3043 66.8029 33.8571 66.9933C15.4098 67.1838 0.323066 52.5264 0.00509354 34.1357C-0.311265 15.7885 14.146 0.244939 33.0662 0.00282804ZM40.3424 40.3708L40.4183 27.3985C43.3365 29.3903 45.982 30.2667 49.2408 30.0569L49.265 23.72C43.9499 23.8734 40.5393 19.5444 40.2891 14.6974L33.8312 14.7329L33.8038 40.5597C33.8006 44.0235 30.5014 46.175 27.4363 45.6004C24.3889 45.029 22.2551 42.093 23.28 38.6922C24.0451 36.1549 26.7939 34.3132 30.1076 35.2429L30.0721 28.5041C23.4608 27.7697 17.5743 32.1503 16.6317 38.6922C15.6229 45.7005 20.9429 51.6887 27.7365 52.1213C34.2412 52.5345 40.3021 47.5082 40.344 40.3724L40.3424 40.3708Z" fill="#E3CC9F"/>
<path d="M40.3424 40.3699C40.3004 47.5057 34.2396 52.5303 27.7348 52.1187C20.9412 51.6878 15.6212 45.6979 16.63 38.6896C17.5726 32.1478 23.4592 27.7672 30.0704 28.5016L30.1059 35.2404C26.7922 34.3107 24.0451 36.1539 23.2784 38.6896C22.2518 42.0905 24.3873 45.0265 27.4346 45.5979C30.4997 46.1725 33.7989 44.0209 33.8021 40.5571L33.8296 14.7303L40.2875 14.6948C40.5377 19.5435 43.9482 23.8724 49.2634 23.7175L49.2391 30.0543C45.9819 30.2658 43.3365 29.3894 40.4166 27.396L40.3407 40.3683L40.3424 40.3699Z" fill="black"/>
</svg>
