<svg width="63" height="63" viewBox="0 0 63 63" fill="none" xmlns="http://www.w3.org/2000/svg">
<path d="M26.2389 0.447422C43.8125 -2.49088 59.8214 9.36857 62.5898 26.4626C65.3687 43.6129 53.7263 59.9147 36.3514 62.6253C19.5442 65.2464 3.39873 53.9743 0.466493 36.9668C-2.45208 20.0427 8.58628 3.39939 26.2389 0.447422ZM44.494 43.6827C46.9178 43.452 48.7497 41.8296 49.0927 39.6122C49.9138 34.3077 49.8667 28.9608 49.1716 23.6169C48.8681 21.2842 47.0681 19.4993 44.6625 19.255C35.9447 18.3702 27.2436 18.3869 18.5304 19.2337C15.7287 19.5069 13.9271 21.5953 13.7192 24.3302C13.3565 29.1004 13.3474 33.7932 13.7147 38.5604C13.9256 41.2984 15.7241 43.3761 18.5319 43.6569C27.104 44.5114 35.6639 44.5235 44.494 43.6796V43.6827Z" fill="#E3CC9F"/>
<path d="M44.4943 43.6835C35.6642 44.5258 27.1058 44.5152 18.5322 43.6607C15.7244 43.3814 13.9259 41.3022 13.7149 38.5642C13.3477 33.797 13.3552 29.1027 13.7195 24.3341C13.9274 21.5991 15.729 19.5092 18.5307 19.2376C27.2439 18.3892 35.945 18.3725 44.6627 19.2588C47.0668 19.5032 48.8684 21.288 49.1719 23.6207C49.867 28.9631 49.9125 34.3116 49.093 39.616C48.75 41.8349 46.9181 43.4558 44.4943 43.6865V43.6835ZM37.2942 31.4264L27.9238 26.1037L27.9208 36.9068L37.2957 31.4264H37.2942Z" fill="black"/>
<path d="M37.2938 31.4254L27.9204 36.9059L27.9234 26.1028L37.2938 31.4254Z" fill="#E3CC9F"/>
</svg>
