<svg xmlns="http://www.w3.org/2000/svg" xmlns:xlink="http://www.w3.org/1999/xlink" width="306" height="62" fill="none" viewBox="0 0 306 62"><path fill="#e0cea5" fill-opacity=".56" d="M24.446 60.18 1.821 48.29v-4.06l4.427-16.82L1.82 6.53l85.091-4.35 121.489 4.35 89.518-4.35-7.378 17.4 13.28 24.65-5.902 15.95-73.779-6.67c-26.56 1.063-87.846 2.552-120.505 0-22.035-1.392-61.974 3.867-79.189 6.67"/><use xlink:href="#a" transform="matrix(-.00028 .0084 .0084 .00028 .46 46.872)"/><use xlink:href="#a" transform="rotate(-167.423 5.702 23.33)scale(.01382 -.01382)"/><use xlink:href="#a" transform="rotate(141.576 -6.601 26.53)scale(-.00595 .00595)"/><use xlink:href="#a" transform="rotate(-71.639 39.342 21.22)scale(.0076 -.0076)"/><use xlink:href="#a" transform="rotate(173.125 2.297 25.259)scale(.00556 -.00556)"/><use xlink:href="#a" transform="rotate(76.405 -28.387 32.93)scale(-.01074 .01074)"/><use xlink:href="#a" transform="rotate(31.873 -89.358 39.1)scale(.011 -.011)"/><use xlink:href="#a" transform="rotate(169.426 2.575 27.61)scale(-.00636 .00636)"/><use xlink:href="#a" transform="matrix(.00644 .00885 .00885 -.00644 9.749 53.33)"/><use xlink:href="#a" transform="rotate(-83.123 39.333 19.722)scale(.00939 -.00939)"/><use xlink:href="#a" transform="rotate(-54.41 58.91 12.14)scale(-.0103 .0103)"/><use xlink:href="#a" transform="rotate(178.762 8.303 27.625)scale(.00552 -.00552)"/><use xlink:href="#a" transform="matrix(.0047 .00734 .00734 -.0047 15.404 56.088)"/><use xlink:href="#a" transform="matrix(.001 .00553 .00553 -.001 17.303 56.446)"/><use xlink:href="#a" transform="rotate(-46.623 73.383 4.467)scale(-.0122 .0122)"/><use xlink:href="#a" transform="rotate(-176.516 12.906 27.968)scale(.0141 -.0141)"/><use xlink:href="#a" transform="rotate(56.646 -44.02 49.855)scale(.00614 -.00614)"/><use xlink:href="#a" transform="rotate(-69.842 56.574 12.936)scale(.00728 -.00728)"/><use xlink:href="#a" transform="rotate(142.02 2.811 33.456)scale(.00806 -.00806)"/><use xlink:href="#a" transform="rotate(62.957 -34.85 54.141)scale(-.01023 .01023)"/><use xlink:href="#a" transform="matrix(-.00138 .0055 .0055 .00138 27.533 58.389)"/><use xlink:href="#a" transform="rotate(-172 17.268 28.173)scale(.00655 -.00655)"/><use xlink:href="#a" transform="rotate(144.944 5.435 35.193)scale(-.00727 .00727)"/><use xlink:href="#a" transform="rotate(-63.068 65.45 4.173)scale(.007 -.007)"/><use xlink:href="#a" transform="matrix(-.00975 .00378 .00378 .00975 33.936 56.54)"/><use xlink:href="#a" transform="matrix(-.003 -.01402 -.01402 .003 37.87 60.377)"/><use xlink:href="#a" transform="rotate(-55.85 74.861 -5.03)scale(.00598 -.00598)"/><use xlink:href="#a" transform="rotate(-67.553 63.87 1.149)scale(.0069 -.0069)"/><use xlink:href="#a" transform="rotate(-100.922 44.184 12.85)scale(.00578 -.00578)"/><use xlink:href="#a" transform="rotate(-73.29 56.834 1.605)scale(-.0114 .0114)"/><use xlink:href="#a" transform="rotate(149.39 13.325 33.863)scale(.00622 -.00622)"/><use xlink:href="#a" transform="rotate(-79.8 56.698 3.319)scale(.00545 -.00545)"/><use xlink:href="#a" transform="rotate(149.71 13.626 35.616)scale(-.00857 .00857)"/><use xlink:href="#a" transform="rotate(-179.178 23.956 27.435)scale(.01203 -.01203)"/><use xlink:href="#a" transform="rotate(138.393 12.398 37.99)scale(-.00554 .00554)"/><use xlink:href="#a" transform="rotate(175.21 23.405 28.884)scale(.0073 -.0073)"/><use xlink:href="#a" transform="rotate(206.317 30.098 23.463)scale(-.0143 .0143)"/><use xlink:href="#a" transform="rotate(41.996 -45.5 100.294)scale(-.01397 .01397)"/><use xlink:href="#a" transform="rotate(209.903 33.408 21.637)scale(-.0123 .0123)"/><use xlink:href="#a" transform="rotate(92.966 1.652 56.542)scale(-.01188 .01188)"/><use xlink:href="#a" transform="rotate(-166.419 33.413 23.668)scale(.0107 -.0107)"/><use xlink:href="#a" transform="rotate(226.242 40.778 15.4)scale(-.00814 .00814)"/><use xlink:href="#a" transform="rotate(77.768 -3.815 63.37)scale(.01303 -.01303)"/><use xlink:href="#a" transform="rotate(83.817 .89 61.305)scale(.00826 -.00826)"/><use xlink:href="#a" transform="matrix(.0094 -.0067 -.0067 -.0094 64.512 57.746)"/><use xlink:href="#a" transform="rotate(17.59 -149.8 235.845)scale(.01307 -.01307)"/><use xlink:href="#a" transform="rotate(-126.511 48.9 9.808)scale(.00655 -.00655)"/><use xlink:href="#a" transform="rotate(94.928 9.905 60.77)scale(-.00924 .00924)"/><use xlink:href="#a" transform="rotate(-146.574 45.584 15.479)scale(.0143 -.0143)"/><use xlink:href="#a" transform="rotate(95.262 12.177 62.502)scale(-.01064 .01064)"/><use xlink:href="#a" transform="rotate(74.433 1.911 75.429)scale(.00604 -.00604)"/><use xlink:href="#a" transform="rotate(76.632 3.923 73.452)scale(.0113 -.0113)"/><use xlink:href="#a" transform="rotate(-165.823 43.809 21.096)scale(.01219 -.01219)"/><use xlink:href="#a" transform="rotate(105.756 19.73 58.49)scale(-.00838 .00838)"/><use xlink:href="#a" transform="rotate(88.807 13.62 66.765)scale(.01152 -.01152)"/><use xlink:href="#a" transform="rotate(172.011 39.287 30.683)scale(-.01025 .01025)"/><use xlink:href="#a" transform="rotate(-131.516 56.255 6.904)scale(.01151 -.01151)"/><use xlink:href="#a" transform="rotate(152.651 36.662 38.158)scale(-.00775 .00775)"/><use xlink:href="#a" transform="rotate(110.91 25.943 56.357)scale(.00593 -.00593)"/><use xlink:href="#a" transform="rotate(125.802 30.869 50.83)scale(-.01005 .01005)"/><use xlink:href="#a" transform="rotate(152.832 38.695 38.503)scale(-.00729 .00729)"/><use xlink:href="#a" transform="rotate(114.634 29.324 55.278)scale(.0069 -.0069)"/><use xlink:href="#a" transform="rotate(167.473 43.153 33.008)scale(-.01299 .01299)"/><use xlink:href="#a" transform="rotate(104.258 27.152 65.405)scale(-.01027 .01027)"/><use xlink:href="#a" transform="matrix(-.00698 .00098 .00098 .00698 98.388 51.97)"/><use xlink:href="#a" transform="rotate(94.47 24.689 71.053)scale(.0078 -.0078)"/><use xlink:href="#a" transform="rotate(149.069 43.101 39.68)scale(.00852 -.00852)"/><use xlink:href="#a" transform="rotate(69.413 12.787 102.555)scale(-.01204 .01204)"/><use xlink:href="#a" transform="matrix(0 -.00579 -.00579 0 104.171 54.476)"/><use xlink:href="#a" transform="rotate(118.598 36.732 56.382)scale(.0104 -.0104)"/><use xlink:href="#a" transform="rotate(173.155 52.396 29.109)scale(.0111 -.0111)"/><use xlink:href="#a" transform="rotate(82.561 23.313 86.404)scale(.01213 -.01213)"/><use xlink:href="#a" transform="rotate(231.896 67.193 .544)scale(-.00691 .00691)"/><use xlink:href="#a" transform="rotate(135.124 44.02 50.802)scale(-.00766 .00766)"/><use xlink:href="#a" transform="rotate(91.788 29.95 82.358)scale(-.00622 .00622)"/><use xlink:href="#a" transform="rotate(149.322 48.727 44.019)scale(-.0132 .0132)"/><use xlink:href="#a" transform="rotate(151.787 51.985 40.328)scale(.01323 -.01323)"/><use xlink:href="#a" transform="rotate(-155.22 66.3 13.324)scale(.0126 -.0126)"/><use xlink:href="#a" transform="rotate(183.25 60.11 26.022)scale(-.00622 .00622)"/><use xlink:href="#a" transform="rotate(188.8 61.888 23.126)scale(-.00713 .00713)"/><use xlink:href="#a" transform="rotate(105.037 40.039 75.832)scale(-.01106 .01106)"/><use xlink:href="#a" transform="rotate(155.01 57.048 39.588)scale(.0137 -.0137)"/><use xlink:href="#a" transform="rotate(-171.719 66.246 21.893)scale(.01153 -.01153)"/><use xlink:href="#a" transform="rotate(-178.49 65.383 25.619)scale(.01032 -.01032)"/><use xlink:href="#a" transform="rotate(-177.561 66.37 25.175)scale(.00955 -.00955)"/><use xlink:href="#a" transform="rotate(71.674 27.492 116.76)scale(.0086 -.0086)"/><use xlink:href="#a" transform="rotate(178.52 67.027 27.356)scale(.01042 -.01042)"/><use xlink:href="#a" transform="rotate(154.8 60.597 43.698)scale(-.01247 .01247)"/><use xlink:href="#a" transform="rotate(211.527 75.235 8.574)scale(-.008 .008)"/><use xlink:href="#a" transform="rotate(172.334 68.397 30.8)scale(.01318 -.01318)"/><use xlink:href="#a" transform="rotate(75.739 35 118.824)scale(-.00695 .00695)"/><use xlink:href="#a" transform="rotate(131.984 58.157 59.543)scale(-.00616 .00616)"/><use xlink:href="#a" transform="rotate(118.219 54.895 69.183)scale(.00582 -.00582)"/><use xlink:href="#a" transform="rotate(118.963 56.143 68.095)scale(.0127 -.0127)"/><use xlink:href="#a" transform="rotate(57.526 22.213 158.2)scale(.00736 -.00736)"/><use xlink:href="#a" transform="matrix(.0073 .01212 .01212 -.0073 144.002 54.316)"/><use xlink:href="#a" transform="rotate(106.225 53.709 84.503)scale(-.0073 .0073)"/><use xlink:href="#a" transform="rotate(172.19 72.481 33.745)scale(-.01332 .01332)"/><use xlink:href="#a" transform="rotate(160.418 71.884 39.901)scale(.00632 -.00632)"/><use xlink:href="#a" transform="matrix(-.0019 .00643 .00643 .0019 152.686 53.418)"/><use xlink:href="#a" transform="rotate(82.715 46.01 114.008)scale(.00722 -.00722)"/><use xlink:href="#a" transform="rotate(117.687 61.132 75.68)scale(-.00861 .00861)"/><use xlink:href="#a" transform="rotate(113.016 60.511 78.699)scale(.00585 -.00585)"/><use xlink:href="#a" transform="rotate(143.142 69.546 54.871)scale(-.00912 .00912)"/><use xlink:href="#a" transform="rotate(148.015 72.776 49.247)scale(.01088 -.01088)"/><use xlink:href="#a" transform="rotate(-169.07 84.075 19.186)scale(.00739 -.00739)"/><use xlink:href="#a" transform="rotate(90.735 54.324 106.604)scale(.00692 -.00692)"/><use xlink:href="#a" transform="rotate(147.242 73.469 52.391)scale(-.00723 .00723)"/><use xlink:href="#a" transform="matrix(-.00079 -.01 -.01 .00079 167.177 56.255)"/><use xlink:href="#a" transform="rotate(57.551 32.939 177.509)scale(.0079 -.0079)"/><use xlink:href="#a" transform="rotate(124.984 69.55 72.312)scale(-.00902 .00902)"/><use xlink:href="#a" transform="rotate(154.661 79.75 45.114)scale(.01324 -.01324)"/><use xlink:href="#a" transform="rotate(146.663 77.264 54.224)scale(-.00971 .00971)"/><use xlink:href="#a" transform="rotate(178.717 86.9 27.841)scale(.00637 -.00637)"/><use xlink:href="#a" transform="rotate(44.94 20.29 236.623)scale(.0056 -.0056)"/><use xlink:href="#a" transform="matrix(-.0054 -.00478 -.00478 .0054 177.13 54.78)"/><use xlink:href="#a" transform="rotate(109.328 68.718 91.048)scale(-.00709 .00709)"/><use xlink:href="#a" transform="rotate(136.738 78.848 61.302)scale(.01203 -.01203)"/><use xlink:href="#a" transform="rotate(56.65 38.71 192.599)scale(.00629 -.00629)"/><use xlink:href="#a" transform="rotate(178.874 89.652 28.677)scale(-.00562 .00562)"/><use xlink:href="#a" transform="rotate(122.138 76.427 76.12)scale(.01149 -.01149)"/><use xlink:href="#a" transform="matrix(.00913 .0109 .0109 -.00913 181.001 54.422)"/><use xlink:href="#a" transform="rotate(49.267 34.046 231.94)scale(-.00659 .00659)"/><use xlink:href="#a" transform="matrix(-.01305 -.0022 -.0022 .01305 190.194 52.77)"/><use xlink:href="#a" transform="matrix(.00475 .00379 .00379 -.00475 187.9 54.824)"/><use xlink:href="#a" transform="rotate(197.761 98.852 12.787)scale(-.00581 .00581)"/><use xlink:href="#a" transform="rotate(196.799 98.792 13.98)scale(-.01195 .01195)"/><use xlink:href="#a" transform="rotate(154.323 91.348 48.111)scale(.01112 -.01112)"/><use xlink:href="#a" transform="rotate(66.138 55.432 175.194)scale(.01023 -.01023)"/><use xlink:href="#a" transform="rotate(159.176 92.96 46.126)scale(-.00827 .00827)"/><use xlink:href="#a" transform="rotate(133.103 87.787 69.195)scale(.00829 -.00829)"/><use xlink:href="#a" transform="rotate(138.328 90.537 63.62)scale(.01468 -.01468)"/><use xlink:href="#a" transform="rotate(35.236 14.104 342.761)scale(.00805 -.00805)"/><use xlink:href="#a" transform="rotate(138.887 91.22 66.08)scale(-.00758 .00758)"/><use xlink:href="#a" transform="rotate(-179.407 102.91 26.1)scale(.0057 -.0057)"/><use xlink:href="#a" transform="matrix(.0054 -.0068 -.0068 -.0054 206.043 56.035)"/><use xlink:href="#a" transform="rotate(-7.18 553.844 -1611.1)scale(.014 -.014)"/><use xlink:href="#a" transform="rotate(104.429 83.791 110.605)scale(-.01432 .01432)"/><use xlink:href="#a" transform="rotate(81.302 74.748 151.925)scale(-.00873 .00873)"/><use xlink:href="#a" transform="rotate(171.777 104.21 35.16)scale(-.00574 .00574)"/><use xlink:href="#a" transform="matrix(-.0036 .00602 .00602 .0036 213.81 52.157)"/><use xlink:href="#a" transform="rotate(61.74 62.205 204.68)scale(.01242 -.01242)"/><use xlink:href="#a" transform="matrix(-.00544 .00193 .00193 .00544 217.929 52.44)"/><use xlink:href="#a" transform="matrix(.00344 .0051 .0051 -.00344 216.94 53.592)"/><use xlink:href="#a" transform="rotate(84.744 80.26 148.059)scale(-.00558 .00558)"/><use xlink:href="#a" transform="matrix(.01255 .00349 .00349 -.01255 218.24 54.988)"/><use xlink:href="#a" transform="rotate(157.759 105.52 49.5)scale(-.00867 .00867)"/><use xlink:href="#a" transform="rotate(84.205 82.291 149.54)scale(.0064 -.0064)"/><use xlink:href="#a" transform="rotate(83.703 83.014 154.999)scale(-.01316 .01316)"/><use xlink:href="#a" transform="rotate(100.973 91.885 118.8)scale(.01283 -.01283)"/><use xlink:href="#a" transform="rotate(191.283 116.496 16.602)scale(-.01143 .01143)"/><use xlink:href="#a" transform="matrix(-.0054 .01208 .01208 .0054 230.605 51.424)"/><use xlink:href="#a" transform="rotate(71.286 78.998 190.964)scale(-.00566 .00566)"/><use xlink:href="#a" transform="rotate(81.518 85.915 165.569)scale(-.0118 .0118)"/><use xlink:href="#a" transform="rotate(21.189 -25.6 662.133)scale(-.00624 .00624)"/><use xlink:href="#a" transform="rotate(86.695 89.88 151.112)scale(.01315 -.01315)"/><use xlink:href="#a" transform="rotate(12.325 -124.703 1149.9)scale(-.01297 .01297)"/><use xlink:href="#a" transform="rotate(107.68 100.667 118.296)scale(-.01474 .01474)"/><use xlink:href="#a" transform="rotate(175.754 122.251 31.134)scale(.01248 -.01248)"/><use xlink:href="#a" transform="rotate(-166.326 127.543 12.236)scale(.0105 -.0105)"/><use xlink:href="#a" transform="rotate(148.15 115.648 63.8)scale(-.00556 .00556)"/><use xlink:href="#a" transform="rotate(72.76 86.384 195.594)scale(.00565 -.00565)"/><use xlink:href="#a" transform="rotate(64.807 81.959 227.971)scale(-.01353 .01353)"/><use xlink:href="#a" transform="rotate(198.977 130.064 7.44)scale(-.00662 .00662)"/><use xlink:href="#a" transform="rotate(133.542 114.255 82.987)scale(-.00578 .00578)"/><use xlink:href="#a" transform="rotate(-170.62 130.69 16.649)scale(.01242 -.01242)"/><use xlink:href="#a" transform="rotate(181.68 127.703 27.357)scale(-.01225 .01225)"/><use xlink:href="#a" transform="matrix(-.0118 .00207 .00207 .0118 260.198 54.31)"/><use xlink:href="#a" transform="rotate(31.115 25.629 491.965)scale(.01184 -.01184)"/><use xlink:href="#a" transform="matrix(-.0124 -.0036 -.0036 .0124 265.264 55.597)"/><use xlink:href="#a" transform="rotate(59.352 81.621 259.1)scale(.00553 -.00553)"/><use xlink:href="#a" transform="rotate(43.967 61 355.093)scale(.0068 -.0068)"/><use xlink:href="#a" transform="matrix(-.0089 -.00088 -.00088 .0089 268.115 55.86)"/><use xlink:href="#a" transform="rotate(60.17 85.351 263.102)scale(-.01256 .01256)"/><use xlink:href="#a" transform="rotate(-36.719 225.354 -376.6)scale(.0104 -.0104)"/><use xlink:href="#a" transform="rotate(8.84 -244.48 1778.666)scale(.0059 -.0059)"/><use xlink:href="#a" transform="rotate(-77.15 173.964 -141.76)scale(.00696 -.00696)"/><use xlink:href="#a" transform="rotate(98.472 112.06 149.069)scale(-.0125 .0125)"/><use xlink:href="#a" transform="rotate(68.417 95.555 233.622)scale(-.00796 .00796)"/><use xlink:href="#a" transform="rotate(169.891 135.53 41.909)scale(-.00553 .00553)"/><use xlink:href="#a" transform="rotate(93.077 111.266 161.817)scale(-.0055 .0055)"/><use xlink:href="#a" transform="rotate(79.469 104.137 195.894)scale(.00635 -.00635)"/><use xlink:href="#a" transform="rotate(140.128 130.06 78.948)scale(.01006 -.01006)"/><use xlink:href="#a" transform="rotate(199.596 145.007 5.902)scale(-.01169 .01169)"/><use xlink:href="#a" transform="rotate(144.632 132.053 75.431)scale(-.00698 .00698)"/><use xlink:href="#a" transform="rotate(57.735 88.332 285.596)scale(.01071 -.01071)"/><use xlink:href="#a" transform="rotate(112.363 123.8 124.388)scale(.00845 -.00845)"/><use xlink:href="#a" transform="rotate(165.893 140.88 46.72)scale(.00739 -.00739)"/><use xlink:href="#a" transform="rotate(149.75 137.695 67.384)scale(.01397 -.01397)"/><use xlink:href="#a" transform="rotate(68.394 102.64 247.23)scale(-.01257 .01257)"/><use xlink:href="#a" transform="rotate(68.661 102.808 243.557)scale(.0059 -.0059)"/><use xlink:href="#a" transform="matrix(-.00725 -.0004 -.0004 .00725 295.877 58.645)"/><use xlink:href="#a" transform="matrix(-.0069 .004 .004 .0069 296.344 58.106)"/><use xlink:href="#a" transform="matrix(-.0057 .00374 .00374 .0057 297.407 58.58)"/><use xlink:href="#a" transform="rotate(84.054 116.072 196.905)scale(-.0099 .0099)"/><use xlink:href="#a" transform="rotate(54.367 91.96 317.991)scale(.0077 -.0077)"/><use xlink:href="#a" transform="rotate(82.115 116.633 198.822)scale(.00745 -.00745)"/><use xlink:href="#a" transform="matrix(-.00152 .0056 .0056 .00152 298.649 54.84)"/><use xlink:href="#a" transform="rotate(29.097 42.004 601.292)scale(.00936 -.00936)"/><use xlink:href="#a" transform="rotate(28.176 41.362 620.922)scale(.01056 -.01056)"/><use xlink:href="#a" transform="matrix(-.00568 .0031 .0031 .00568 301.517 50.58)"/><use xlink:href="#a" transform="rotate(169.38 147.78 40.153)scale(-.00762 .00762)"/><use xlink:href="#a" transform="rotate(83.117 122.66 194.016)scale(.0057 -.0057)"/><use xlink:href="#a" transform="rotate(74.89 119.006 220.337)scale(.00737 -.00737)"/><use xlink:href="#a" transform="rotate(147.116 145.2 66.896)scale(.01319 -.01319)"/><use xlink:href="#a" transform="matrix(.00331 -.012 -.012 -.00331 304.939 47.73)"/><use xlink:href="#a" transform="matrix(-.00726 -.0002 -.0002 .00726 304.836 42.483)"/><use xlink:href="#a" transform="rotate(127.458 140.405 97.309)scale(-.0113 .0113)"/><use xlink:href="#a" transform="rotate(166.766 147.977 38.778)scale(-.00843 .00843)"/><use xlink:href="#a" transform="rotate(157.31 147.475 48.408)scale(.0144 -.0144)"/><use xlink:href="#a" transform="matrix(.0064 .0051 .0051 -.0064 298.386 37.784)"/><use xlink:href="#a" transform="rotate(109.3 136.721 125.449)scale(-.00654 .00654)"/><use xlink:href="#a" transform="rotate(17.27 38.471 1008.485)scale(-.01096 .01096)"/><use xlink:href="#a" transform="rotate(15.194 29.713 1142.51)scale(-.0115 .0115)"/><use xlink:href="#a" transform="rotate(37.238 102.734 460.303)scale(-.00964 .00964)"/><use xlink:href="#a" transform="rotate(146.182 143.073 61.424)scale(-.01001 .01001)"/><use xlink:href="#a" transform="rotate(-73.02 166 -185.308)scale(-.00826 .00826)"/><use xlink:href="#a" transform="rotate(126.953 140.75 86.943)scale(.0064 -.0064)"/><use xlink:href="#a" transform="matrix(-.004 .00384 .00384 .004 294.848 25.906)"/><use xlink:href="#a" transform="rotate(91.344 134.37 158.482)scale(-.01116 .01116)"/><use xlink:href="#a" transform="rotate(184.297 146.408 7.468)scale(-.0086 .0086)"/><use xlink:href="#a" transform="rotate(142.506 142.615 60.72)scale(.00637 -.00637)"/><use xlink:href="#a" transform="rotate(170.935 144.763 23.408)scale(-.00547 .00547)"/><use xlink:href="#a" transform="rotate(153.062 144.096 44.047)scale(.01398 -.01398)"/><use xlink:href="#a" transform="rotate(170.464 143.795 22.734)scale(-.00943 .00943)"/><use xlink:href="#a" transform="matrix(.00934 .00346 .00346 -.00934 289.082 19)"/><use xlink:href="#a" transform="rotate(94.462 138.565 141.105)scale(.0133 -.0133)"/><use xlink:href="#a" transform="rotate(-74.364 157.969 -185.53)scale(.01099 -.01099)"/><use xlink:href="#a" transform="rotate(151.075 144.563 45.278)scale(-.00938 .00938)"/><use xlink:href="#a" transform="rotate(140.617 144.561 59.13)scale(-.0065 .0065)"/><use xlink:href="#a" transform="rotate(29.87 130.931 562.208)scale(-.01197 .01197)"/><use xlink:href="#a" transform="rotate(183.9 146.708 .107)scale(-.01238 .01238)"/><use xlink:href="#a" transform="rotate(42.783 139.912 382.71)scale(-.00582 .00582)"/><use xlink:href="#a" transform="matrix(-.00468 -.0063 -.0063 .00468 298.336 6.174)"/><use xlink:href="#a" transform="rotate(68.309 144.775 218.42)scale(.01215 -.01215)"/><use xlink:href="#a" transform="matrix(.00683 .0004 .0004 -.00683 296.455 3.955)"/><use xlink:href="#a" transform="matrix(.00316 .0089 .0089 -.00316 295.313 1.332)"/><use xlink:href="#a" transform="matrix(.00388 .00391 .00391 -.00388 294.781 2.215)"/><use xlink:href="#a" transform="matrix(.00428 .00997 .00997 -.00428 292.341 1.387)"/><use xlink:href="#a" transform="rotate(110.175 145.34 104.976)scale(-.01093 .01093)"/><use xlink:href="#a" transform="matrix(-.0106 .00908 .00908 .0106 291.035 -.862)"/><use xlink:href="#a" transform="rotate(94.422 143.295 136.211)scale(-.00674 .00674)"/><use xlink:href="#a" transform="rotate(160.75 142.905 26.686)scale(-.01055 .01055)"/><use xlink:href="#a" transform="matrix(-.00158 .00984 .00984 .00158 284.571 .83)"/><use xlink:href="#a" transform="rotate(64.596 139.15 223.932)scale(.0112 -.0112)"/><use xlink:href="#a" transform="rotate(37.61 138.359 419.212)scale(-.0089 .0089)"/><use xlink:href="#a" transform="matrix(.0056 .00064 .00064 -.0056 280.3 3.787)"/><use xlink:href="#a" transform="matrix(.00792 -.0088 -.0088 -.00792 280.057 5.946)"/><use xlink:href="#a" transform="rotate(163.487 137.78 22.969)scale(-.0129 .0129)"/><use xlink:href="#a" transform="rotate(31.71 134.158 491.209)scale(-.01026 .01026)"/><use xlink:href="#a" transform="matrix(.00544 .00757 .00757 -.00544 272.095 2.886)"/><use xlink:href="#a" transform="matrix(.0108 .0025 .0025 -.0108 270.374 4.726)"/><use xlink:href="#a" transform="rotate(68.91 133.251 200.704)scale(-.00704 .00704)"/><use xlink:href="#a" transform="rotate(101.792 133.57 110.53)scale(.0066 -.0066)"/><use xlink:href="#a" transform="rotate(78.695 132.331 167.452)scale(-.0109 .0109)"/><use xlink:href="#a" transform="rotate(159.788 132.653 26.31)scale(-.00743 .00743)"/><use xlink:href="#a" transform="rotate(91.584 131.096 130.178)scale(.006 -.006)"/><use xlink:href="#a" transform="rotate(112.083 130.88 92.077)scale(-.00762 .00762)"/><use xlink:href="#a" transform="matrix(-.00437 .01057 .01057 .00437 262.046 1.308)"/><use xlink:href="#a" transform="rotate(144.427 129.691 44.818)scale(-.00767 .00767)"/><use xlink:href="#a" transform="rotate(81.785 128.04 153.402)scale(-.00664 .00664)"/><use xlink:href="#a" transform="matrix(.0073 .0099 .0099 -.0073 255.9 3.655)"/><use xlink:href="#a" transform="rotate(9.156 115.79 1619.586)scale(-.01404 .01404)"/><use xlink:href="#a" transform="rotate(130.334 125.7 62.495)scale(-.01148 .01148)"/><use xlink:href="#a" transform="rotate(51.144 120.57 263.27)scale(.01122 -.01122)"/><use xlink:href="#a" transform="rotate(165.51 125.925 16.94)scale(.01386 -.01386)"/><use xlink:href="#a" transform="rotate(77.312 121.569 159.213)scale(-.0075 .0075)"/><use xlink:href="#a" transform="matrix(.00704 -.0049 -.0049 -.00704 247.018 6.526)"/><use xlink:href="#a" transform="matrix(.00517 .01 .01 -.00517 243.185 3.92)"/><use xlink:href="#a" transform="matrix(-.0028 .00593 .00593 .0028 243.687 3.403)"/><use xlink:href="#a" transform="matrix(-.0048 -.00302 -.00302 .0048 244.495 4.544)"/><use xlink:href="#a" transform="rotate(8.966 84.547 1540.757)scale(.00586 -.00586)"/><use xlink:href="#a" transform="matrix(-.003 -.00738 -.00738 .003 242.829 5.792)"/><use xlink:href="#a" transform="rotate(22.841 109.984 599.502)scale(-.00687 .00687)"/><use xlink:href="#a" transform="rotate(91.904 117 118.914)scale(-.0057 .0057)"/><use xlink:href="#a" transform="matrix(.00293 .00592 .00592 -.00293 236.325 4.6)"/><use xlink:href="#a" transform="rotate(48.172 113.284 269.347)scale(-.0079 .0079)"/><use xlink:href="#a" transform="rotate(131.661 116.797 53.936)scale(.0121 -.0121)"/><use xlink:href="#a" transform="matrix(-.0052 .00164 .00164 .0052 234.046 4.303)"/><use xlink:href="#a" transform="rotate(182.263 115.453 1.08)scale(-.00883 .00883)"/><use xlink:href="#a" transform="matrix(.00073 .0145 .0145 -.00073 227.781 3.067)"/><use xlink:href="#a" transform="rotate(99.021 111.566 101.999)scale(-.01183 .01183)"/><use xlink:href="#a" transform="matrix(.00445 .00314 .00314 -.00445 225.451 5.816)"/><use xlink:href="#a" transform="rotate(15.802 98.232 822.478)scale(-.01193 .01193)"/><use xlink:href="#a" transform="matrix(-.0003 .00574 .00574 .0003 222.878 4.786)"/><use xlink:href="#a" transform="rotate(77.113 107.675 144.758)scale(-.01247 .01247)"/><use xlink:href="#a" transform="matrix(.0059 -.01312 -.01312 -.0059 221.273 9.1)"/><use xlink:href="#a" transform="rotate(148.661 107.78 34.452)scale(-.00803 .00803)"/><use xlink:href="#a" transform="matrix(.00516 .0035 .0035 -.00516 215.571 6.573)"/><use xlink:href="#a" transform="matrix(-.0127 .0013 .0013 .0127 217.258 3.72)"/><use xlink:href="#a" transform="rotate(143.797 105.036 39.357)scale(-.01136 .01136)"/><use xlink:href="#a" transform="matrix(.00146 -.0066 -.0066 -.00146 212.755 7.508)"/><use xlink:href="#a" transform="rotate(170.82 103.696 12.952)scale(-.0147 .0147)"/><use xlink:href="#a" transform="matrix(-.006 .00944 .00944 .006 207.357 3.967)"/><use xlink:href="#a" transform="rotate(142.167 102.573 36.93)scale(.0139 -.0139)"/><use xlink:href="#a" transform="rotate(85.395 98.645 114.933)scale(-.00598 .00598)"/><use xlink:href="#a" transform="rotate(93.518 98.647 97.465)scale(.00724 -.00724)"/><use xlink:href="#a" transform="rotate(90.129 97.748 102.393)scale(.0086 -.0086)"/><use xlink:href="#a" transform="rotate(181.91 99.81 1.896)scale(-.00629 .00629)"/><use xlink:href="#a" transform="matrix(.01171 .0005 .0005 -.01171 197.058 8.2)"/><use xlink:href="#a" transform="rotate(94.882 95.743 95.214)scale(-.00973 .00973)"/><use xlink:href="#a" transform="rotate(158.582 96.599 22.514)scale(-.00986 .00986)"/><use xlink:href="#a" transform="rotate(150.38 96.725 28.069)scale(.0059 -.0059)"/><use xlink:href="#a" transform="rotate(40.31 87.966 264.654)scale(.00552 -.00552)"/><use xlink:href="#a" transform="rotate(15.046 69.75 725.606)scale(.00763 -.00763)"/><use xlink:href="#a" transform="matrix(.0082 .0076 .0076 -.0082 188.114 5.974)"/><use xlink:href="#a" transform="rotate(173.901 95.1 7.011)scale(.00992 -.00992)"/><use xlink:href="#a" transform="rotate(86.966 90.484 99.963)scale(.0101 -.0101)"/><use xlink:href="#a" transform="rotate(163.716 91.757 17.071)scale(-.00952 .00952)"/><use xlink:href="#a" transform="rotate(31.18 84.98 337.055)scale(-.0133 .0133)"/><use xlink:href="#a" transform="rotate(76.96 87.645 119.59)scale(-.01467 .01467)"/><use xlink:href="#a" transform="rotate(102.783 87.542 75.477)scale(-.00682 .00682)"/><use xlink:href="#a" transform="matrix(-.00752 .00868 .00868 .00752 177.9 2.884)"/><use xlink:href="#a" transform="matrix(-.00613 .0007 .0007 .00613 177.54 4.363)"/><use xlink:href="#a" transform="matrix(-.00417 .0038 .0038 .00417 175.724 3.966)"/><use xlink:href="#a" transform="matrix(.0106 .00046 .00046 -.0106 172.508 7.15)"/><use xlink:href="#a" transform="rotate(35.398 79.637 275.934)scale(-.00758 .00758)"/><use xlink:href="#a" transform="rotate(154.536 84.486 22.934)scale(-.0098 .0098)"/><use xlink:href="#a" transform="rotate(134.096 84.277 36.845)scale(.01302 -.01302)"/><use xlink:href="#a" transform="rotate(17.828 73.137 543.84)scale(-.0133 .0133)"/><use xlink:href="#a" transform="rotate(141.764 80.908 32.613)scale(-.01417 .01417)"/><use xlink:href="#a" transform="rotate(3.813 39.445 2480.797)scale(-.01378 .01378)"/><use xlink:href="#a" transform="rotate(68.7 77.265 122.59)scale(-.01438 .01438)"/><use xlink:href="#a" transform="rotate(178.574 78.772 3.845)scale(-.00623 .00623)"/><use xlink:href="#a" transform="rotate(91.959 76.132 75.8)scale(.01466 -.01466)"/><use xlink:href="#a" transform="matrix(.0027 .0098 .0098 -.0027 152.721 3.353)"/><use xlink:href="#a" transform="rotate(153.16 76.58 19.835)scale(.00684 -.00684)"/><use xlink:href="#a" transform="rotate(56.786 71.634 141.5)scale(.00653 -.00653)"/><use xlink:href="#a" transform="matrix(.00594 .0026 .0026 -.00594 149.781 5.128)"/><use xlink:href="#a" transform="rotate(136.77 74.538 30.382)scale(.01258 -.01258)"/><use xlink:href="#a" transform="rotate(74.02 71.265 102.286)scale(-.0116 .0116)"/><use xlink:href="#a" transform="rotate(167.686 73.537 8.615)scale(.0146 -.0146)"/><use xlink:href="#a" transform="matrix(.00902 .00768 .00768 -.00902 140.45 4.451)"/><use xlink:href="#a" transform="matrix(.004 -.0057 -.0057 -.004 141.95 5.566)"/><use xlink:href="#a" transform="rotate(34.176 65.071 232.801)scale(-.00644 .00644)"/><use xlink:href="#a" transform="rotate(160.11 69.988 12.848)scale(.01328 -.01328)"/><use xlink:href="#a" transform="rotate(171.608 69.08 6.089)scale(.00967 -.00967)"/><use xlink:href="#a" transform="rotate(45.84 62.194 160.294)scale(.0073 -.0073)"/><use xlink:href="#a" transform="matrix(-.00562 .0047 .0047 .00562 134.482 2.158)"/><use xlink:href="#a" transform="rotate(159.6 65.905 14.476)scale(-.00572 .00572)"/><use xlink:href="#a" transform="rotate(28.067 59.957 268.88)scale(-.00554 .00554)"/><use xlink:href="#a" transform="rotate(6.21 19.508 1199.54)scale(.00752 -.00752)"/><use xlink:href="#a" transform="rotate(108.492 63.135 50.404)scale(-.0143 .0143)"/><use xlink:href="#a" transform="rotate(13.478 52.531 546.878)scale(-.00589 .00589)"/><use xlink:href="#a" transform="rotate(193.233 62.836 -5.02)scale(-.0075 .0075)"/><use xlink:href="#a" transform="rotate(77.326 59.9 77.03)scale(.01451 -.01451)"/><use xlink:href="#a" transform="rotate(126.775 60.949 31.43)scale(.00821 -.00821)"/><use xlink:href="#a" transform="matrix(-.00274 .0075 .0075 .00274 120.753 1.721)"/><use xlink:href="#a" transform="rotate(117.27 59.364 36.94)scale(.00956 -.00956)"/><use xlink:href="#a" transform="rotate(45.619 54.21 139.922)scale(.00948 -.00948)"/><use xlink:href="#a" transform="rotate(149.566 58.523 16.852)scale(.00738 -.00738)"/><use xlink:href="#a" transform="matrix(.00098 .0098 .0098 -.00098 113.872 1.942)"/><use xlink:href="#a" transform="rotate(178.077 56.607 3.106)scale(-.00653 .00653)"/><use xlink:href="#a" transform="rotate(169.094 56.935 6.39)scale(.0061 -.0061)"/><use xlink:href="#a" transform="rotate(109.44 54.846 42.21)scale(-.00714 .00714)"/><use xlink:href="#a" transform="rotate(91.574 54.088 56.49)scale(-.00593 .00593)"/><use xlink:href="#a" transform="matrix(-.01096 .0089 .0089 .01096 109.705 -.37)"/><use xlink:href="#a" transform="rotate(16.661 41.24 365.215)scale(.00623 -.00623)"/><use xlink:href="#a" transform="rotate(135.884 52.318 23.944)scale(-.00767 .00767)"/><use xlink:href="#a" transform="rotate(64.411 50.772 87.6)scale(-.01403 .01403)"/><use xlink:href="#a" transform="rotate(64.246 48.865 81.819)scale(.0074 -.0074)"/><use xlink:href="#a" transform="rotate(5.702 42.397 1038.734)scale(-.01094 .01094)"/><use xlink:href="#a" transform="rotate(38.174 47.096 147.735)scale(-.00573 .00573)"/><use xlink:href="#a" transform="matrix(.0025 -.00906 -.00906 -.0025 99.91 4.35)"/><use xlink:href="#a" transform="rotate(84.734 47.448 55.713)scale(-.00566 .00566)"/><use xlink:href="#a" transform="matrix(.00664 .00534 .00534 -.00664 94.388 2.626)"/><use xlink:href="#a" transform="rotate(160.14 46.521 10.44)scale(-.0102 .0102)"/><use xlink:href="#a" transform="matrix(-.00086 .0064 .0064 .00086 92.48 1.316)"/><use xlink:href="#a" transform="matrix(-.00547 .01228 .01228 .00547 90.594 -.465)"/><use xlink:href="#a" transform="rotate(166.733 43.661 7.628)scale(-.0134 .0134)"/><use xlink:href="#a" transform="matrix(.0031 -.00946 -.00946 -.0031 88.665 4.13)"/><use xlink:href="#a" transform="matrix(-.00358 .0054 .0054 .00358 85.89 .622)"/><use xlink:href="#a" transform="matrix(.0025 -.0066 -.0066 -.0025 85.782 3.699)"/><use xlink:href="#a" transform="matrix(-.00247 .00836 .00836 .00247 82.779 .516)"/><use xlink:href="#a" transform="matrix(-.0069 -.01069 -.01069 .0069 84.914 3.1)"/><use xlink:href="#a" transform="rotate(81.038 38.6 50.327)scale(-.0126 .0126)"/><use xlink:href="#a" transform="rotate(139.44 38.37 16.497)scale(-.00605 .00605)"/><use xlink:href="#a" transform="rotate(93.785 37.18 35.258)scale(.0126 -.0126)"/><use xlink:href="#a" transform="rotate(170.571 37.027 5.081)scale(-.00625 .00625)"/><use xlink:href="#a" transform="rotate(178.12 37.602 1.49)scale(.00707 -.00707)"/><use xlink:href="#a" transform="rotate(25.205 25.583 157.4)scale(.01344 -.01344)"/><use xlink:href="#a" transform="rotate(-58.262 39.45 -61.668)scale(.0055 -.0055)"/><use xlink:href="#a" transform="rotate(81.87 33.207 43.4)scale(-.0105 .0105)"/><use xlink:href="#a" transform="matrix(-.0094 .00799 .00799 .0094 67.806 .4)"/><use xlink:href="#a" transform="rotate(173.8 33.424 2.795)scale(.00628 -.00628)"/><use xlink:href="#a" transform="rotate(94.79 31 32.514)scale(-.00661 .00661)"/><use xlink:href="#a" transform="rotate(119.797 31.166 19.354)scale(.0067 -.0067)"/><use xlink:href="#a" transform="rotate(11.952 20.717 307.278)scale(-.00697 .00697)"/><use xlink:href="#a" transform="matrix(-.0108 .0078 .0078 .0108 61.506 .396)"/><use xlink:href="#a" transform="rotate(44.224 26.783 78.118)scale(-.01418 .01418)"/><use xlink:href="#a" transform="rotate(34.156 24.157 97.417)scale(-.00878 .00878)"/><use xlink:href="#a" transform="rotate(168.302 28.242 3.68)scale(.01204 -.01204)"/><use xlink:href="#a" transform="rotate(36.09 22.626 87.254)scale(-.01101 .01101)"/><use xlink:href="#a" transform="matrix(-.0064 .00625 .00625 .0064 51.534 1.751)"/><use xlink:href="#a" transform="rotate(176.956 23.597 3.997)scale(-.01446 .01446)"/><use xlink:href="#a" transform="matrix(-.0134 .00359 .00359 .0134 48.837 1.546)"/><use xlink:href="#a" transform="rotate(138.213 20.98 12.3)scale(-.01357 .01357)"/><use xlink:href="#a" transform="rotate(159.493 20.922 6.64)scale(-.00552 .00552)"/><use xlink:href="#a" transform="rotate(70.038 18.137 33.973)scale(-.00738 .00738)"/><use xlink:href="#a" transform="rotate(159.817 19.82 6.44)scale(-.00577 .00577)"/><use xlink:href="#a" transform="rotate(15.655 6.348 152.97)scale(-.00656 .00656)"/><use xlink:href="#a" transform="rotate(137.823 18.284 10.604)scale(-.0073 .0073)"/><use xlink:href="#a" transform="rotate(179.314 18.423 3.01)scale(-.0063 .0063)"/><use xlink:href="#a" transform="matrix(-.01227 .0046 .0046 .01227 37.51 1.88)"/><use xlink:href="#a" transform="matrix(.00358 .01118 .01118 -.00358 31.76 3.669)"/><use xlink:href="#a" transform="rotate(146.113 15.292 8.07)scale(-.00597 .00597)"/><use xlink:href="#a" transform="matrix(.00249 .006 .006 -.00249 30.293 4.334)"/><use xlink:href="#a" transform="rotate(43.49 9.94 42.7)scale(-.00634 .00634)"/><use xlink:href="#a" transform="rotate(-89.957 14.67 -11.9)scale(-.01418 .01418)"/><use xlink:href="#a" transform="rotate(49.627 8.729 33.519)scale(-.00575 .00575)"/><use xlink:href="#a" transform="rotate(68.453 8.51 19.038)scale(.0124 -.0124)"/><use xlink:href="#a" transform="matrix(.00458 -.005 -.005 -.00458 24.268 7.09)"/><use xlink:href="#a" transform="rotate(126.9 10.444 6.5)scale(.01419 -.01419)"/><use xlink:href="#a" transform="rotate(124.21 9.1 6.83)scale(.01067 -.01067)"/><use xlink:href="#a" transform="rotate(118.583 7.577 9.318)scale(-.00641 .00641)"/><use xlink:href="#a" transform="matrix(-.00751 .0052 .0052 .00751 18.011 3.775)"/><use xlink:href="#a" transform="rotate(80.132 4.854 13.945)scale(-.008 .008)"/><use xlink:href="#a" transform="rotate(139.483 6.02 6.559)scale(-.00715 .00715)"/><use xlink:href="#a" transform="matrix(.01428 .0038 .0038 -.01428 10.173 7.743)"/><use xlink:href="#a" transform="rotate(154.036 4.55 5.061)scale(-.00677 .00677)"/><use xlink:href="#a" transform="rotate(238.996 6.19 .343)scale(-.00548 .00548)"/><use xlink:href="#a" transform="rotate(157.185 2.955 5.269)scale(-.01276 .01276)"/><use xlink:href="#a" transform="rotate(212.162 2.68 2.967)scale(-.0141 .0141)"/><use xlink:href="#a" transform="rotate(112.256 .475 3.455)scale(.00877 -.00877)"/><use xlink:href="#a" transform="rotate(-43.159 12.358 .31)scale(.00927 -.00927)"/><use xlink:href="#a" transform="matrix(-.00382 .00926 .00926 .00382 1.085 4.59)"/><use xlink:href="#a" transform="rotate(-153.779 2.59 3.412)scale(.00594 -.00594)"/><use xlink:href="#a" transform="rotate(-49.344 9.33 1.443)scale(-.00654 .00654)"/><use xlink:href="#a" transform="rotate(-88.532 8.817 3.94)scale(.01217 -.01217)"/><use xlink:href="#a" transform="rotate(-87.128 8.809 4.368)scale(.00544 -.00544)"/><use xlink:href="#a" transform="rotate(225.533 2.856 6.844)scale(-.01454 .01454)"/><use xlink:href="#a" transform="rotate(248.206 5.875 6.776)scale(-.0099 .0099)"/><use xlink:href="#a" transform="rotate(163.52 .143 9.94)scale(-.01036 .01036)"/><use xlink:href="#a" transform="rotate(-28.095 42.31 2.318)scale(.00662 -.00662)"/><use xlink:href="#a" transform="rotate(87.271 -8.294 10.77)scale(.00975 -.00975)"/><use xlink:href="#a" transform="rotate(-132.386 7.973 9.3)scale(.00687 -.00687)"/><use xlink:href="#a" transform="rotate(97.46 -7.138 12.394)scale(.0081 -.0081)"/><use xlink:href="#a" transform="rotate(20.58 -60.05 31.329)scale(-.0075 .0075)"/><use xlink:href="#a" transform="rotate(71.39 -14.302 17.946)scale(-.00709 .00709)"/><use xlink:href="#a" transform="rotate(209.829 5.823 12.669)scale(-.00633 .00633)"/><use xlink:href="#a" transform="matrix(-.00279 .0118 .0118 .00279 4.755 25.284)"/><use xlink:href="#a" transform="rotate(98.645 -9.818 18.63)scale(-.0093 .0093)"/><use xlink:href="#a" transform="rotate(-80.088 23 12.533)scale(.01084 -.01084)"/><use xlink:href="#a" transform="matrix(.0024 .00628 .00628 -.0024 3.63 31.83)"/><use xlink:href="#a" transform="matrix(.00534 .00193 .00193 -.00534 3.3 33.945)"/><use xlink:href="#a" transform="matrix(.00761 -.00268 -.00268 -.00761 3.6 36.236)"/><use xlink:href="#a" transform="rotate(54.083 -32.401 23.966)scale(-.00848 .00848)"/><use xlink:href="#a" transform="matrix(-.00346 .01187 .01187 .00346 2.089 34.993)"/><use xlink:href="#a" transform="rotate(81.544 -21.49 19.511)scale(.0111 -.0111)"/><use xlink:href="#a" transform="matrix(-.00838 .00575 .00575 .00838 3.111 38.808)"/><use xlink:href="#a" transform="matrix(-.00316 .00694 .00694 .00316 1.704 40.926)"/><use xlink:href="#a" transform="rotate(174 -.66 22.434)scale(-.00623 .00623)"/><use xlink:href="#a" transform="rotate(-158.628 6.068 21.666)scale(.00974 -.00974)"/><use xlink:href="#a" transform="matrix(-.00216 .006 .006 .00216 1.023 44.994)"/><use xlink:href="#a" transform="rotate(-19.84 142.49 22.107)scale(.00948 -.00948)"/><defs><path id="a" fill="#000" d="M215.823 333.963c0-.733.3-1.033.667-.667a.95.95 0 0 1 0 1.334c-.367.366-.667.066-.667-.667M143.424 3.977c4.632-.653 8.099 4.826 5.302 8.382-1.951 2.48-2.551 5.604-1.078 5.604.905.004 11.175 12.34 11.175 13.423 0 1.076-4.344 5.111-6.316 5.868-1.898.728-1.434 2.71.633 2.71.661 0 1.78.924 2.486 2.056 1.284 2.054 1.286 2.054 2.991.057.938-1.1 2.606-2.139 3.706-2.307s2.33-.757 2.734-1.307c.415-.565.741-.238.75.75.018 2.14.447 2.169 3.408.229 1.623-1.063 2.19-2.212 1.884-3.81-1.049-5.489 4.864-5.512 14.402-.058 5.289 3.024 5.527 3.005 7.663-.61 3.023-5.119 9.966-1.694 8.152 4.02-.515 1.623-.183 2.247 1.417 2.666 1.15.3 2.09.945 2.09 1.43.001.485.9.883 2 .883 2.405 0 2.51-.633.446-2.697-1.937-1.936-1.511-6.247.756-7.667 2.444-1.53 3.085-.336 1.976 3.68-.844 3.057-.725 3.569.927 4 1.042.274 1.895 1.215 1.895 2.09.001 2.117 3.922 2.083 5.479-.046 1.634-2.235 4.962-.366 4.996 2.806.022 2.026.585 2.375 4.275 2.641 3.903.283 4.25.113 4.25-2.089q0-2.397 2.547-3.556c5.794-2.64 9.087-.056 7.912 6.206-.627 3.341-.627 3.341 7.125 4.043 13.323 1.209 21.701 9.211 10.916 10.427-1.65.187-3.533.779-4.183 1.316-.772.639-2.504.61-5-.082-4.664-1.295-5.317-1.318-5.317-.18 0 .89 3.547 2.107 7.692 2.639 3.814.489 4.527 1.472 3.864 5.335-1.584 9.224-1.538 9.134-4.694 9.134-1.732 0-2.721-.419-2.362-1 .34-.55.194-1-.324-1-.519 0-1.178-.9-1.466-2-.316-1.208-1.364-2-2.648-2-1.169 0-2.425-.787-2.793-1.75-.688-1.803-.846-2.03-4.339-6.25-2.069-2.5-2.069-2.5-1.491.21.443 2.079.097 2.968-1.49 3.817-3.053 1.634-2.358 6.6.861 6.15 1.27-.178 2.952.21 3.737.862.841.698 2.53.908 4.115.51 2.465-.619 2.57-.53 1.263 1.08-.904 1.113-.968 1.48-.175 1.004 1.207-.725 1.687.683 1.482 4.336-.045.808 1.226 3.249 2.826 5.425 2.411 3.278 2.808 4.595 2.313 7.686-.499 3.124-.251 3.915 1.528 4.868 1.738.93 1.934 1.496 1.067 3.115-.582 1.088-.743 2.489-.358 3.114 1.359 2.199-6.627-.001-11.342-3.124-8.698-5.762-10.731-2.813-8.924 12.947.221 1.925-.023 4.035-.543 4.69-2.291 2.887-.482 6.804 3.201 6.932 1.925.067 3.95.231 4.5.365s1.77.166 2.711.072c2.294-.23 5.828 1.736 5.529 3.076-.429 1.92 7.577 1.339 13.716-.996 3.275-1.246 6.763-2.054 7.75-1.795 1.097.287 1.794-.077 1.794-.937 0-.773-.9-1.407-2-1.407-2.468 0-2.532-1.121-.227-3.967 1.774-2.19 1.774-2.191 3.655-.112 3.099 3.423 8.159.85 5.79-2.944-.993-1.589-.581-2.041 3.321-3.645 2.449-1.007 4.455-2.169 4.457-2.582s.443-.75.979-.75c1.288 0 .183 5.855-1.664 8.817-1.092 1.751-1.167 2.651-.309 3.686 1.283 1.545-.226 5.368-2.692 6.822-.804.474-1.149 1.608-.812 2.669.406 1.279-.025 2.039-1.405 2.477-1.193.378-1.772 1.202-1.445 2.054.599 1.563-1.168 3.716-3.898 4.75-.962.364-1.75 1.619-1.75 2.789 0 2.226-3.33 7.595-5.963 9.615-1.366 1.047-1.342 1.254.215 1.857 1.184.459 2.39-.086 3.717-1.678 2.104-2.526 2.666-1.913 1.038 1.131-.844 1.574-.541 1.954 2 2.512 3.869.85 4.064 4.832.493 10.094-3.324 4.898-3.182 6.036 1.488 11.905 2.188 2.75 5.447 7.129 7.244 9.732 2.93 4.244 6.768 6.38 6.768 3.768 0-.55 1.035-1 2.3-1s2.746-.446 3.29-.99c.62-.62 2.15-.657 4.088-.101 2.392.686 3.469.516 4.728-.744 4.803-4.802 6.925 3.04 2.546 9.405-3.724 5.412-1.48 4.855 3.795-.941 1.786-1.963 3.851-3.336 4.59-3.052.738.282 1.92-.181 2.625-1.031 1.934-2.33 4.935-1.866 6.224.963 1.583 3.475-.177 6.436-7.813 13.14-6.161 5.409-6.161 5.409-3.267 8.303q6.73 6.731-2.936 8.665c-2.37.473-3.292.23-3.762-.995-.888-2.314-2.696-2.009-5.448.92-2.037 2.169-2.206 2.834-1.151 4.523 1.864 2.986.028 5.71-3.506 5.2-4.597-.663-9.708 5.273-8.219 9.547.611 1.753 1.63 3.202 2.264 3.219s.361.49-.606 1.054c-.967.563-2.166.771-2.665.463-.498-.308-1.136-.096-1.417.471-.28.567-.375.457-.21-.244a1.32 1.32 0 0 1 1.594-.969c1.051.249 1.054.018.019-1.229-.82-.989-2.396-1.39-4.419-1.124a92 92 0 0 1-6.144.558c-1.65.081-2.437.374-1.75.651.688.279 1.25 1.087 1.25 1.799s.675 1.854 1.5 2.539c5.107 4.238-.167 9.564-11.856 11.977-5.805 1.198-5.851 1.236-5.25 4.241.333 1.668.606 4.11.606 5.428 0 1.565.84 2.78 2.421 3.5 1.427.65 2.204 1.669 1.892 2.481-1.315 3.427.629 6.545 3.665 5.878 3.965-.871 7.62 1.069 5.906 3.134-.684.825-2.082 1.281-3.105 1.013-1.464-.382-1.732-.077-1.254 1.431.545 1.717.081 1.917-4.459 1.917-5.146 0-6.794-1.89-2.64-3.028 2.787-.763 3.151-3.008.595-3.677-1.452-.379-1.789-.821-.999-1.309 1.624-1.003.253-6.985-1.601-6.986-.782 0-1.421-.392-1.421-.872s-1.851-1.168-4.114-1.53c-2.276-.364-4.845-1.556-5.75-2.669-1.563-1.921-1.645-1.764-1.848 3.531-.199 5.212-.072 5.54 2.143 5.54 5.607 0 3.707 7.564-2.136 8.502-2.087.335-5.28 1.263-7.096 2.062-2.486 1.094-3.803 1.183-5.335.363-2.367-1.266-3.36-.663-2.519 1.53.326.849 1.676 1.543 3.001 1.543 3.904 0 5.075 2.286 3.115 6.077-1.665 3.218-1.666 3.218-13.063 2.607s-11.398-.611-11.398 2.418c0 8.621-10.579 8.949-12.836.398-1.025-3.886-7.44-4.574-7.971-.856-.417 2.928-5.229 3.934-5.933 1.241-.544-2.077-1.366-2.361-2.81-.97-.522.504-2.075 1.066-3.45 1.25-1.71.229-2.602 1.053-2.823 2.609-.261 1.844-.83 2.2-3 1.878-1.472-.218-2.582-.851-2.467-1.405.116-.555-.672-1.807-1.75-2.783-1.881-1.703-1.962-1.698-2.002.131-.024 1.048-1.416 3.03-3.095 4.405a541 541 0 0 0-5.708 4.749c-4.916 4.164-8.422 2.715-9.677-3.999-.385-2.061-.881-3.749-1.102-3.75s-3.649.9-7.619 2c-14.524 4.025-29-2.533-15.77-7.145 1.657-.578 3.013-1.445 3.013-1.928s-1.155-.438-2.566.098c-2.123.807-3.159.524-6-1.643-3.139-2.394-4.983-5.457-2.279-3.787.716.443.883.275.439-.443-1.049-1.697-4.913.576-4.188 2.464.811 2.113-2.281 2.937-3.707.987-1.831-2.504-6.976.008-6.236 3.044 1.341 5.502-5.446 8.159-7.44 2.914-.95-2.498-5.437-1.816-9.523 1.446-1.865 1.489-6.803 1.559-7.292.104-.259-.768-.013-1.108.549-.761.56.346.996.071.973-.61-.161-4.454.444-5.606 3.52-6.697 3.668-1.3 2.102-3.54-3.25-4.647-1.375-.284-3.306-.954-4.29-1.489-.986-.536-2.157-.749-2.603-.473-.448.276-1.667-.136-2.71-.916-1.793-1.341-1.767-1.385.487-.816 1.773.448 2.26.242 1.896-.8-.268-.771-1.228-1.27-2.134-1.108s-1.646-.113-1.646-.61c0-1.368-6.697-8.183-8.04-8.184-1.264 0-.447 5.053.968 5.991 1.274.844.882 7.15-.413 6.653-.657-.252-1.123.469-1.084 1.676.084 2.591-2.923 3.446-3.828 1.089-.357-.929.047-2.752.897-4.05 1.424-2.172 1.405-2.362-.227-2.394-.976-.02-2.897-.658-4.27-1.418-1.696-.939-2.884-1.061-3.702-.382-1.603 1.33-5.582.011-4.95-1.641.545-1.42-1.94-5.524-3.343-5.524-1.258 0-10.008-8.116-10.008-9.282 0-.581 1.664-.708 4.125-.314 3.832.613 4.086.511 3.58-1.429-.45-1.717-.294-1.879.874-.91 2.272 1.886 1.639-.557-.69-2.659-1.16-1.048-2.975-3.744-4.033-5.992-1.69-3.592-9.922-9.936-15.158-11.681-3.332-1.111 3.063-11.87 6.517-10.966 1.767.462 1.998.235 1.38-1.356-1.235-3.177-1.163-3.926.35-3.596 2.291.498 6.055-1.977 6.055-3.984 0-1.079.72-1.831 1.755-1.831 2.437 0 4.522-6.525 2.596-8.124-.743-.616-1.35-1.939-1.35-2.939-.001-1.001-.451-2.097-1-2.437-.55-.34-1-1.518-1-2.618s-.404-1.752-.895-1.448c-.49.303-1.843-1.357-3.005-3.691s-2.66-5.143-3.328-6.243-2.239-3.678-3.493-5.729c-2.852-4.664-2.888-7.741-.126-10.706 1.922-2.063 1.98-2.41.542-3.215-.887-.497-1.358-1.568-1.045-2.382.387-1.012-.573-1.955-3.043-2.987-1.984-.829-3.645-2.064-3.69-2.744-.242-3.637-1.198-7.557-2.465-10.115-.785-1.582-1.159-3.945-.832-5.25.405-1.611.16-2.392-.764-2.435-.746-.035-.333-.475.918-.977 2.606-1.047 2.206-5.5-.687-7.629-4.752-3.496-5.041-3.891-4.456-6.081.33-1.238 1.379-2.25 2.33-2.25.95 0 2.543-.9 3.538-2s2.231-2 2.745-2 1.779-1.012 2.81-2.25c1.615-1.934 1.883-2.003 1.912-.49.018.968-.867 2.53-1.967 3.472-2.538 2.173-2.518 2.899.1 3.584 1.157.303 1.805 1.029 1.442 1.617-.363.587-.445 1.067-.183 1.067.263 0 1.25.298 2.196.66 1.212.464 1.572.243 1.224-.75-.57-1.629 2.992-7.17 4.15-6.454.427.264 1.613-.132 2.636-.879 2.017-1.475.615-4.576-2.069-4.577-1.332 0-4.101-8.453-3.604-11 .162-.825.239-3.222.17-5.326-.108-3.399.22-3.954 2.949-4.984 2.134-.806 3.024-1.774 2.919-3.175-.26-3.456.036-4.654 1-4.058a1.09 1.09 0 0 0 1.502-.347c.313-.507 1.402-.705 2.42-.438 2.56.669 5.59-2.434 4.113-4.214-.807-.972-.795-1.907.043-3.472.63-1.178.9-2.782.6-3.564-.38-.993.2-1.422 1.923-1.422 1.358 0 2.469-.45 2.47-1 0-.55-.437-1-.97-1s-.71-.675-.393-1.5c.33-.861.02-1.5-.73-1.5-1.018 0-1.041-.267-.108-1.2.66-.66 1.2-1.948 1.2-2.862 0-1.277 1.32-1.818 5.684-2.331 3.126-.367 6.276-1.159 7-1.76 1.767-1.466 1.673-3.846-.153-3.847-.894 0-1.243.586-.893 1.5.363.945-.011 1.5-1.011 1.5-1.986 0-1.574-5.786.506-7.103 3.478-2.204-2.762-.68-7.275 1.776-3.573 1.945-5.211 2.374-6.012 1.573-.743-.743-1.913-.79-3.605-.148-4.224 1.606-6.24.29-6.24-4.07 0-4.477 3.34-6.913 15.25-11.124 7.366-2.604 7.512-2.802 5.108-6.871-1.99-3.368-1.188-7.635 1.6-8.52 2.676-.849 9.035.449 9.056 1.848.042 3.128 1.618 3.829 5.793 2.579 4.398-1.318 5.909-3.37 4.09-5.56-.88-1.063-.605-1.805 1.234-3.325 2.036-1.682 2.524-1.753 3.477-.506 1.928 2.52 17.01-1.493 15.954-4.243-.865-2.257 4.422-5.084 5.593-2.991 1.402 2.505 4.122 2.048 7.252-1.219 2.783-2.905 2.783-2.905.625-5.062-3.774-3.774-.756-10.609 4.56-10.326 5.589.297 6.264.495 5.822 1.71-.217.595-.005 1.692.47 2.437 1.046 1.642 5.668-.946 6.598-3.694.309-.914 3.365-3.792 6.79-6.397 3.42-2.6 6.265-4.737 6.328-4.75m65.339 318.986c.582 0 1.06.45 1.06 1s-.198 1-.441 1-.719-.45-1.059-1-.141-.999.44-1m-91.94-7.618c0-.825.45-1.222 1-.882s1 1.294 1 2.119c0 .824-.45 1.221-1 .881s-1-1.293-1-2.118m85.5-1.382c.275 0 .5.225.5.5s-.225.5-.5.5a.5.5 0 0 1-.5-.5c0-.275.225-.5.5-.5m-127.56-8c.582 0 1.06.45 1.06 1s-.198 1-.441 1-.72-.45-1.059-1c-.34-.55-.141-.999.44-1m-2.94-1c.55 0 1 .45 1 1s-.45 1-1 1-1-.45-1-1 .45-1 1-1m60 1.107c0-1.644-2.785-1.984-4.653-.57-1.705 1.292-1.597 1.402 1.403 1.431 1.787.018 3.25-.37 3.25-.861m-45-2.107c.733 0 1.033.3.667.667a.95.95 0 0 1-1.334 0c-.366-.367-.066-.667.667-.667m-9.583.079c1.054-.043 1.644.193 1.312.525s-1.195.368-1.916.079c-.798-.319-.56-.556.604-.604m1.583-3.079c.55 0 1 .45 1 1s-.45 1-1 1-1-.45-1-1 .45-1 1-1m-8.5-1c.825 0 1.5.661 1.5 1.469 0 .894-.586 1.243-1.5.893-.825-.317-1.5-.978-1.5-1.469s.675-.893 1.5-.893m-.5-8c.55 0 1 .198 1 .441s-.45.719-1 1.059-1 .141-1-.441.45-1.059 1-1.059m200.5-6c.825 0 1.5.17 1.5.378 0 .207-.675.938-1.5 1.622-1.229 1.02-1.5.951-1.5-.378 0-.892.675-1.622 1.5-1.622m5-1c.275 0 .5.225.5.5s-.225.5-.5.5a.5.5 0 0 1-.5-.5c0-.275.225-.5.5-.5m-1.808-3.641c.54-1.409.707-1.398 1.549.107 1.058 1.89.425 3.064-1.132 2.102-.561-.349-.749-1.342-.417-2.209m-3.534-.359c0-1.375.227-1.937.504-1.25.278.688.278 1.813 0 2.5-.277.688-.504.125-.504-1.25m2.342-1c.275 0 .5.225.5.5s-.225.5-.5.5a.5.5 0 0 1-.5-.5c0-.275.225-.5.5-.5m-5.844-1.455q-.555-1.444.895-.886c1.68.645 1.794 1.01.554 1.776-.493.305-1.145-.096-1.449-.89m6.844-.545c.275 0 .5.225.5.5s-.225.5-.5.5a.5.5 0 0 1-.5-.5c0-.275.225-.5.5-.5m39.5-3c0-.733.3-1.033.667-.667a.95.95 0 0 1 0 1.334c-.367.366-.667.066-.667-.667m-6-10.441c0-1.757.6-2.015 1.457-.628.317.512.118 1.214-.441 1.56-.559.344-1.016-.075-1.016-.932M39.241 257.57c-2.373-.911-2.69-.758-2.025.975.334.87.607 1.77.607 2s.675.418 1.5.418c1.99 0 1.928-2.622-.082-3.393m255.48-5.607c1.658 0 8.149 6.113 7.54 7.101-1.492 2.413-6.742-.804-7.918-4.851-.379-1.302-.22-2.249.378-2.25m-20.398 4c-.275 0-.5.225-.5.5s.225.5.5.5.5-.225.5-.5-.225-.5-.5-.5m-6-3c-.275 0-.5.225-.5.5s.225.5.5.5.5-.225.5-.5-.225-.5-.5-.5m-1.677-3.667c-.389-2.009-2.386-2.848-3.29-1.385-.88 1.423.242 3.052 2.099 3.052.876 0 1.378-.703 1.191-1.667m2.677.667c-.275 0-.5.225-.5.5s.225.5.5.5.5-.225.5-.5-.225-.5-.5-.5m-245-17c.275 0 .5.225.5.5s-.225.5-.5.5a.5.5 0 0 1-.5-.5c0-.275.225-.5.5-.5m2 0c.275 0 .5.225.5.5s-.225.5-.5.5a.5.5 0 0 1-.5-.5c0-.275.225-.5.5-.5m4-50c-.275 0-.5.225-.5.5s.225.5.5.5.5-.225.5-.5-.225-.5-.5-.5m-4.5 0c.733 0 1.033.3.667.667a.95.95 0 0 1-1.334 0c-.366-.367-.066-.667.667-.667m-1.281-14.918c.165-2.193-1.234-3.676-2.118-2.246-.295.478.026 1.64.713 2.579 1.154 1.578 1.263 1.552 1.405-.333m1.781-2.082c-.275 0-.5.225-.5.5s.225.5.5.5.5-.225.5-.5-.225-.5-.5-.5m251.7-11.799c3.351-3.351 7.363-.019 6.367 5.289-.771 4.111-2.856 4.579-5.624 1.26-2.183-2.616-2.436-4.856-.743-6.549m-277.2 2.799c.733 0 1.033.3.667.667a.95.95 0 0 1-1.334 0c-.366-.367-.066-.667.667-.667m286.094-9c.498 0 .906.9.906 2s-.173 1.999-.383 2-.619-.9-.907-2c-.287-1.1-.115-2 .384-2m-1.594-2c.275 0 .5.225.5.5s-.225.5-.5.5a.5.5 0 0 1-.5-.5c0-.275.225-.5.5-.5m7.882-3c.275 0 .778.45 1.118 1s.393 1 .118 1-.778-.45-1.118-1-.393-1-.118-1M18.68 133.08c.195-.064.119.503-.172 1.261s0 1.909.643 2.557c.9.904.602.968-1.277.276-3.058-1.127-3.74-2.892-1.356-3.51.992-.257 1.965-.52 2.162-.584m8.81-1.45c1.116-1.117 2-.749 2 .833 0 .825-.6 1.5-1.334 1.5-1.419 0-1.77-1.229-.666-2.333m266.273.333c.582 0 1.06.45 1.06 1s-.198 1-.441 1-.719-.45-1.059-1-.141-.999.44-1m2.56 1c.275 0 .5.225.5.5s-.225.5-.5.5a.5.5 0 0 1-.5-.5c0-.275.225-.5.5-.5m-275.5-4c.55 0 1 .675 1 1.5s-.45 1.5-1 1.5-1-.675-1-1.5.45-1.5 1-1.5m282 .128c3.258-1.305 5-1.362 5-.163 0 1.749-3.891 3.196-5.763 2.142-1.557-.876-1.478-1.081.763-1.979m-288.434-3.23c3.127-1.225 4.078-.943 2.037.602-1.044.79-2.364 1.148-2.934.795-.598-.369-.218-.96.896-1.397m276.493-.898c.518 0 .941.45.941 1s-.703 1-1.56 1c-.856 0-1.28-.45-.94-1s1.041-1 1.559-1m-37.559-20c-.275 0-.5.225-.5.5s.225.5.5.5.5-.225.5-.5-.225-.5-.5-.5m-215-3c.275 0 .5.225.5.5s-.225.5-.5.5a.5.5 0 0 1-.5-.5c0-.275.225-.5.5-.5m5-1c.275 0 .5.225.5.5s-.225.5-.5.5a.5.5 0 0 1-.5-.5c0-.275.225-.5.5-.5m-11.25-5.017c1.787-1.093 3.85-1.76 4.582-1.485.732.276 2.082.538 3 .581.999.047 1.176.279.442.576-.673.272-1.452.35-1.73.17-.278-.178-1.215.687-2.081 1.925-1.028 1.467-2.602 2.25-4.52 2.25-3.852 0-3.733-1.546.307-4.017m228.25 3.017c.275 0 .5.225.5.5s-.225.5-.5.5a.5.5 0 0 1-.5-.5c0-.275.225-.5.5-.5m-218-1c.275 0 .5.225.5.5s-.225.5-.5.5a.5.5 0 0 1-.5-.5c0-.275.225-.5.5-.5m12.32-8.171c-.347-2.352-2.271-3.527-3.232-1.972-.907 1.468.44 4.143 2.089 4.143.932 0 1.346-.787 1.143-2.171m184.68-14.829c.275 0 .5.225.5.5s-.225.5-.5.5a.5.5 0 0 1-.5-.5c0-.275.225-.5.5-.5m34.5-2.004c0-.513.675-.721 1.5-.464.825.258 2.25.709 3.167 1.001 1.174.376 1.353.846.607 1.592-1.18 1.18-5.273-.473-5.274-2.129M69.807 71.213c.022-1.797-1.658-1.54-2.39.364-.392 1.023-1.345 1.423-2.606 1.093-1.092-.285-1.987-.16-1.988.278s1.195 1.099 2.655 1.466c2.667.668 4.296-.536 4.33-3.2m174.575-2.25c-.243 0-.719.45-1.059 1s-.141 1 .44 1c.582 0 1.06-.45 1.06-1s-.198-1-.441-1m-3.059-1c-.275 0-.5.225-.5.5s.225.5.5.5.5-.225.5-.5-.225-.5-.5-.5m-97.083-21.92c-1.165.047-1.402.284-.604.603.721.289 1.584.253 1.916-.08.332-.331-.258-.567-1.312-.524m37.583-2.08c-.733 0-1.033.3-.667.667a.95.95 0 0 0 1.334 0c.366-.367.066-.667-.667-.667m-34.478-9.63c-1.136-.435-1.813.026-2.198 1.5-.307 1.172-1.18 2.13-1.941 2.13-.76 0-1.383.45-1.383 1 0 1.52 2.594 1.195 4-.5.685-.825 2.288-1.5 3.563-1.5s2.597-.45 2.937-1-.272-1-1.359-1c-1.088 0-2.717-.283-3.619-.63m-8.398 2.363c-.988-.98-1.102-.865-.56.56.376.986.935 1.54 1.243 1.233s.001-1.114-.683-1.793m21.376-6.733c.275 0 .5.225.5.5s-.225.5-.5.5a.5.5 0 0 1-.5-.5c0-.275.225-.5.5-.5m45.5-1c.733 0 1.033.3.667.667a.95.95 0 0 1-1.334 0c-.366-.367-.066-.667.667-.667m5-4c.55 0 1 .198 1 .44 0 .244-.45.72-1 1.06s-1 .14-1-.441c0-.582.45-1.059 1-1.059m-34.5 0c.275 0 .5.225.5.5s-.225.5-.5.5a.5.5 0 0 1-.5-.5c0-.275.225-.5.5-.5m-3.5-6c.733 0 1.033.3.667.667a.95.95 0 0 1-1.334 0c-.366-.367-.066-.667.667-.667m1-3c0-.733.3-1.033.667-.667a.95.95 0 0 1 0 1.334c-.367.366-.667.066-.667-.667m35-2c.733 0 1.033.3.667.667a.95.95 0 0 1-1.334 0c-.366-.367-.066-.667.667-.667m-31.5-1c.275 0 .5.225.5.5s-.225.5-.5.5a.5.5 0 0 1-.5-.5c0-.275.225-.5.5-.5m-11-2c.275 0 .5.225.5.5s-.225.5-.5.5a.5.5 0 0 1-.5-.5c0-.275.225-.5.5-.5m9.5 0c0-.733.3-1.033.667-.667a.95.95 0 0 1 0 1.334c-.367.366-.667.066-.667-.667m-4.5-1c.275 0 .5.225.5.5s-.225.5-.5.5a.5.5 0 0 1-.5-.5c0-.275.225-.5.5-.5m-38.941-3c.243 0 .441.45.441 1s-.478 1-1.06 1c-.581 0-.78-.45-.44-1s.816-1 1.059-1m-9.559 1c.733 0 1.033.3.667.667a.95.95 0 0 1-1.334 0c-.366-.367-.066-.667.667-.667m44.381-5.652c2.929-2.519 5.619-3.082 5.619-1.177 0 1.726-3.081 4.829-4.795 4.83-.816 0-2.026.74-2.688 1.645-1.062 1.452-1.184 1.375-1.035-.65.093-1.265 1.398-3.356 2.899-4.648" data-figma-scatter="f0.51_w0.06_aj180_sj0.65_r0_s17656661811333049531_sw3" data-figma-scatter-ref="stroke0_204_7094_ref"/></defs></svg>