<svg xmlns="http://www.w3.org/2000/svg" xmlns:xlink="http://www.w3.org/1999/xlink" width="114" height="106" fill="none" viewBox="0 0 114 106"><path fill="#e0cea5" fill-opacity=".56" d="M10.513 2.574 2.347 23.28v7.07l1.598 29.29L2.347 96l30.712 7.575L76.907 96l32.31 7.574-2.663-30.3 4.793-42.924-2.13-27.776L82.588 14.19c-9.586-1.852-31.706-4.445-43.493 0-7.953 2.423-22.368-6.734-28.582-11.616"/><use xlink:href="#a" transform="rotate(227.353 6.655 12.13)scale(.0084)"/><use xlink:href="#a" transform="rotate(126.67 -2.173 12.149)scale(.01382)"/><use xlink:href="#a" transform="rotate(-2.329 469.152 -51.943)scale(.00595)"/><use xlink:href="#a" transform="rotate(30.886 -29.433 15.507)scale(.0076)"/><use xlink:href="#a" transform="rotate(146.122 .019 9.93)scale(.00556)"/><use xlink:href="#a" transform="rotate(62.842 -8.826 11.948)scale(.01074)"/><use xlink:href="#a" transform="rotate(-72.626 12.63 5.85)scale(.011)"/><use xlink:href="#a" transform="rotate(-30.18 27.028 -2.189)scale(.00636)"/><use xlink:href="#a" transform="rotate(-94.698 9.112 4.811)scale(.01095)"/><use xlink:href="#a" transform="rotate(42.37 -7.43 13.36)scale(.00939)"/><use xlink:href="#a" transform="rotate(193.657 5.217 5.098)scale(.0103)"/><use xlink:href="#a" transform="rotate(140.485 3.332 5.773)scale(.00552)"/><use xlink:href="#a" transform="rotate(-98.136 7.461 .98)scale(.00872)"/><use xlink:href="#a" transform="rotate(239.521 6.375 .995)scale(.00562)"/><use xlink:href="#a" transform="rotate(185.87 6.027 3.05)scale(.0122)"/><use xlink:href="#a" transform="rotate(242.173 6.609 -.083)scale(.0141)"/><use xlink:href="#a" transform="rotate(7.527 -14.323 85.964)scale(.00614)"/><use xlink:href="#a" transform="rotate(133.169 6.375 5.343)scale(.00728)"/><use xlink:href="#a" transform="rotate(243.575 8.814 -.658)scale(.00806)"/><use xlink:href="#a" transform="rotate(141.811 7.745 6.169)scale(.01023)"/><use xlink:href="#a" transform="rotate(-80.075 12.073 -5.304)scale(.00567)"/><use xlink:href="#a" transform="rotate(195.465 9.55 3.083)scale(.00655)"/><use xlink:href="#a" transform="rotate(57.85 3.626 19.91)scale(.00727)"/><use xlink:href="#a" transform="rotate(85.136 6.207 14.648)scale(.007)"/><use xlink:href="#a" transform="rotate(222.337 12.519 1.881)scale(.01046)"/><use xlink:href="#a" transform="rotate(121.677 10.144 11.846)scale(.01433)"/><use xlink:href="#a" transform="rotate(74.1 5.825 21.073)scale(.00598)"/><use xlink:href="#a" transform="rotate(84.828 7.375 19.197)scale(.0069)"/><use xlink:href="#a" transform="rotate(117.148 9.944 14.017)scale(.00578)"/><use xlink:href="#a" transform="rotate(-92.073 19.495 -5.01)scale(.0114)"/><use xlink:href="#a" transform="rotate(223.367 17.072 1.564)scale(.00622)"/><use xlink:href="#a" transform="rotate(91.14 9.018 21.033)scale(.00545)"/><use xlink:href="#a" transform="rotate(39.694 -.728 47.72)scale(.00857)"/><use xlink:href="#a" transform="rotate(185.169 17.296 7.349)scale(.01203)"/><use xlink:href="#a" transform="rotate(43.953 .411 48.083)scale(.00554)"/><use xlink:href="#a" transform="rotate(183.909 18.116 7.207)scale(.0073)"/><use xlink:href="#a" transform="rotate(-34.099 39.093 -47.041)scale(.0143)"/><use xlink:href="#a" transform="rotate(117.26 16.852 19.395)scale(.01397)"/><use xlink:href="#a" transform="rotate(-53.112 32.794 -30.967)scale(.0123)"/><use xlink:href="#a" transform="rotate(67.565 13.95 38.102)scale(.01188)"/><use xlink:href="#a" transform="rotate(149.813 21.684 12.945)scale(.0107)"/><use xlink:href="#a" transform="rotate(-60.793 33.18 -31.251)scale(.00814)"/><use xlink:href="#a" transform="rotate(-90.29 30.018 -15.518)scale(.01303)"/><use xlink:href="#a" transform="rotate(-94.54 30.488 -15.508)scale(.00826)"/><use xlink:href="#a" transform="rotate(26.268 5.321 112.683)scale(.01155)"/><use xlink:href="#a" transform="rotate(-25.12 49.231 -107.86)scale(.01307)"/><use xlink:href="#a" transform="rotate(120.213 24.958 21.878)scale(.00655)"/><use xlink:href="#a" transform="rotate(79.705 22.733 39.473)scale(.00924)"/><use xlink:href="#a" transform="rotate(142.512 28.657 16.636)scale(.0143)"/><use xlink:href="#a" transform="rotate(81.974 25.25 40.484)scale(.01064)"/><use xlink:href="#a" transform="rotate(-76.367 38.274 -32.112)scale(.00604)"/><use xlink:href="#a" transform="rotate(-77.728 38.698 -31.119)scale(.0113)"/><use xlink:href="#a" transform="rotate(165.832 32.9 11.005)scale(.01219)"/><use xlink:href="#a" transform="rotate(75.202 27.043 49.28)scale(.00838)"/><use xlink:href="#a" transform="rotate(-86.94 40.655 -27.956)scale(.01152)"/><use xlink:href="#a" transform="rotate(10.851 -20.04 368.026)scale(.01025)"/><use xlink:href="#a" transform="rotate(135.385 34.755 21.688)scale(.01151)"/><use xlink:href="#a" transform="rotate(32.13 17.51 132.698)scale(.00775)"/><use xlink:href="#a" transform="rotate(254.538 42.388 -21.153)scale(.00593)"/><use xlink:href="#a" transform="rotate(60.45 28.899 71.35)scale(.01005)"/><use xlink:href="#a" transform="rotate(34.341 19.97 130.75)scale(.00729)"/><use xlink:href="#a" transform="rotate(253.336 44.545 -21.462)scale(.0069)"/><use xlink:href="#a" transform="rotate(21.717 10.975 211.807)scale(.01299)"/><use xlink:href="#a" transform="rotate(86.597 35.291 50.713)scale(.01027)"/><use xlink:href="#a" transform="rotate(165.106 41.534 12.854)scale(.00704)"/><use xlink:href="#a" transform="rotate(243.111 46.642 -18.342)scale(.0078)"/><use xlink:href="#a" transform="rotate(189.09 44.08 3.647)scale(.00852)"/><use xlink:href="#a" transform="rotate(89.563 39.684 50.14)scale(.01204)"/><use xlink:href="#a" transform="rotate(69.822 37.424 69.168)scale(.00579)"/><use xlink:href="#a" transform="rotate(222.111 47.719 -10.642)scale(.0104)"/><use xlink:href="#a" transform="rotate(167.198 46.297 11.013)scale(.0111)"/><use xlink:href="#a" transform="rotate(257.45 50.732 -30.969)scale(.01213)"/><use xlink:href="#a" transform="rotate(-72.142 53.29 -59.447)scale(.00691)"/><use xlink:href="#a" transform="rotate(24.451 32.39 223.704)scale(.00766)"/><use xlink:href="#a" transform="rotate(67.625 43.952 76.293)scale(.00622)"/><use xlink:href="#a" transform="rotate(9.877 20.93 563.31)scale(.0132)"/><use xlink:href="#a" transform="rotate(187.148 51.527 1.178)scale(.01323)"/><use xlink:href="#a" transform="rotate(133.918 51.628 25.203)scale(.0126)"/><use xlink:href="#a" transform="rotate(-24.712 61.083 -232.235)scale(.00622)"/><use xlink:href="#a" transform="rotate(-30.371 58.957 -188.622)scale(.00713)"/><use xlink:href="#a" transform="rotate(53.253 52.313 107.076)scale(.01106)"/><use xlink:href="#a" transform="rotate(183.101 55.336 1.255)scale(.0137)"/><use xlink:href="#a" transform="rotate(258.841 56.398 -41.382)scale(.01153)"/><use xlink:href="#a" transform="rotate(-94.527 57.322 -46.14)scale(.01032)"/><use xlink:href="#a" transform="rotate(-95.574 58.102 -44.594)scale(.00955)"/><use xlink:href="#a" transform="rotate(15.087 28.213 414.36)scale(.0086)"/><use xlink:href="#a" transform="rotate(-91.863 59.89 -46.318)scale(.01042)"/><use xlink:href="#a" transform="rotate(111.738 52.521 43.679)scale(.01247)"/><use xlink:href="#a" transform="rotate(54.908 43.605 112.254)scale(.008)"/><use xlink:href="#a" transform="rotate(-86 63.315 -48.934)scale(.01318)"/><use xlink:href="#a" transform="rotate(190.504 56.467 4.22)scale(.00695)"/><use xlink:href="#a" transform="rotate(134.2 51.97 32.799)scale(.00616)"/><use xlink:href="#a" transform="rotate(-32.086 87.735 -180.227)scale(.00582)"/><use xlink:href="#a" transform="rotate(-32.908 88.15 -172.087)scale(.0127)"/><use xlink:href="#a" transform="rotate(28.447 13.823 227.972)scale(.00736)"/><use xlink:href="#a" transform="rotate(26.978 10.827 240.042)scale(.01415)"/><use xlink:href="#a" transform="rotate(159.583 53.937 23.588)scale(.0073)"/><use xlink:href="#a" transform="rotate(93.543 44.564 66.233)scale(.01332)"/><use xlink:href="#a" transform="rotate(-74.755 74.698 -56.759)scale(.00632)"/><use xlink:href="#a" transform="rotate(-10.133 222.215 -605.045)scale(.00671)"/><use xlink:href="#a" transform="rotate(13.613 -71.703 477.362)scale(.00722)"/><use xlink:href="#a" transform="rotate(158.589 53.18 27.59)scale(.00861)"/><use xlink:href="#a" transform="rotate(-16.787 168.76 -355.393)scale(.00585)"/><use xlink:href="#a" transform="rotate(133.039 48.772 42.251)scale(.00912)"/><use xlink:href="#a" transform="rotate(-51.896 92.503 -92.374)scale(.01088)"/><use xlink:href="#a" transform="rotate(-94.867 73.025 -30.232)scale(.00739)"/><use xlink:href="#a" transform="rotate(5.286 -363.143 1201.804)scale(.00692)"/><use xlink:href="#a" transform="rotate(128.738 46.196 47.297)scale(.00723)"/><use xlink:href="#a" transform="rotate(190.421 57.617 17.115)scale(.01003)"/><use xlink:href="#a" transform="rotate(38.328 -5.724 178.768)scale(.0079)"/><use xlink:href="#a" transform="rotate(150.848 49.815 37.459)scale(.00902)"/><use xlink:href="#a" transform="rotate(-58.89 95.54 -70.241)scale(.01324)"/><use xlink:href="#a" transform="rotate(129.048 44.134 51.001)scale(.00971)"/><use xlink:href="#a" transform="rotate(-83.05 82.942 -35.308)scale(.00637)"/><use xlink:href="#a" transform="rotate(50.698 1.716 140.235)scale(.0056)"/><use xlink:href="#a" transform="rotate(234.132 68.192 -.72)scale(.00721)"/><use xlink:href="#a" transform="rotate(166.241 51.84 33.908)scale(.00709)"/><use xlink:href="#a" transform="rotate(-41.217 125.99 -113.127)scale(.01203)"/><use xlink:href="#a" transform="rotate(38.825 -24.286 181.174)scale(.00629)"/><use xlink:href="#a" transform="rotate(96.573 29.277 77.152)scale(.00562)"/><use xlink:href="#a" transform="rotate(-26.734 175.255 -192.747)scale(.01149)"/><use xlink:href="#a" transform="rotate(45.298 -15.42 158.384)scale(.01422)"/><use xlink:href="#a" transform="rotate(226.028 67.583 9.376)scale(.00659)"/><use xlink:href="#a" transform="rotate(-94.325 83.788 -15.446)scale(.01324)"/><use xlink:href="#a" transform="rotate(56.595 -6.332 132.496)scale(.00607)"/><use xlink:href="#a" transform="rotate(77.414 12.76 100.381)scale(.00581)"/><use xlink:href="#a" transform="rotate(78.335 13.631 99.908)scale(.01195)"/><use xlink:href="#a" transform="rotate(-59.242 114.712 -56.09)scale(.01112)"/><use xlink:href="#a" transform="rotate(28.894 -82.886 240.917)scale(.01023)"/><use xlink:href="#a" transform="rotate(104.42 25.906 78.455)scale(.00827)"/><use xlink:href="#a" transform="rotate(-49.545 134.057 -75.844)scale(.00829)"/><use xlink:href="#a" transform="rotate(-54.824 126.697 -61.042)scale(.01468)"/><use xlink:href="#a" transform="rotate(48.215 -32.563 158.445)scale(.00805)"/><use xlink:href="#a" transform="rotate(124.527 33.38 68.636)scale(.00758)"/><use xlink:href="#a" transform="rotate(-97.21 89.59 -5.695)scale(.0057)"/><use xlink:href="#a" transform="rotate(134.88 37.48 64.032)scale(.00869)"/><use xlink:href="#a" transform="rotate(90.472 14.118 95.58)scale(.014)"/><use xlink:href="#a" transform="rotate(158.792 47.214 54.501)scale(.01432)"/><use xlink:href="#a" transform="rotate(181.859 55.344 44.255)scale(.00873)"/><use xlink:href="#a" transform="rotate(91.345 11.044 97.794)scale(.00574)"/><use xlink:href="#a" transform="rotate(-37.763 185.938 -110.088)scale(.00701)"/><use xlink:href="#a" transform="rotate(21.291 -185.765 329.835)scale(.01242)"/><use xlink:href="#a" transform="rotate(-77.448 112.728 -19.38)scale(.00577)"/><use xlink:href="#a" transform="rotate(26.964 -141.447 272.467)scale(.00614)"/><use xlink:href="#a" transform="rotate(178.158 54 49.384)scale(.00558)"/><use xlink:href="#a" transform="rotate(67.313 -16.385 129.818)scale(.01302)"/><use xlink:href="#a" transform="rotate(104.998 17.499 91.65)scale(.00867)"/><use xlink:href="#a" transform="rotate(-1.51 3836.83 -4044.875)scale(.0064)"/><use xlink:href="#a" transform="rotate(186.44 58.422 49.258)scale(.01316)"/><use xlink:href="#a" transform="rotate(97.388 10.829 99.372)scale(.01283)"/><use xlink:href="#a" transform="rotate(187.078 57.227 49.253)scale(.01143)"/><use xlink:href="#a" transform="rotate(84.293 -2.173 108.828)scale(.01323)"/><use xlink:href="#a" transform="rotate(-52.926 153.43 -50.882)scale(.00566)"/><use xlink:href="#a" transform="rotate(-63.157 132.887 -29.011)scale(.0118)"/><use xlink:href="#a" transform="rotate(-2.828 2083.555 -1952.673)scale(.00624)"/><use xlink:href="#a" transform="rotate(111.665 16.753 84.253)scale(.01315)"/><use xlink:href="#a" transform="rotate(6.035 -882.333 944.604)scale(.01297)"/><use xlink:href="#a" transform="rotate(-89.32 97.612 4.952)scale(.01474)"/><use xlink:href="#a" transform="rotate(22.606 -196.758 275.375)scale(.01248)"/><use xlink:href="#a" transform="rotate(4.686 -1143.74 1128.537)scale(.0105)"/><use xlink:href="#a" transform="rotate(230.211 67.7 29.31)scale(.00556)"/><use xlink:href="#a" transform="rotate(125.601 19.26 72.045)scale(.00565)"/><use xlink:href="#a" transform="rotate(-46.446 155.809 -47.746)scale(.01353)"/><use xlink:href="#a" transform="rotate(179.383 42.55 49.697)scale(.00662)"/><use xlink:href="#a" transform="rotate(244.819 72.877 22.964)scale(.00578)"/><use xlink:href="#a" transform="rotate(8.98 -562.636 559.455)scale(.01242)"/><use xlink:href="#a" transform="rotate(196.681 47.976 43.677)scale(.01225)"/><use xlink:href="#a" transform="rotate(28.309 -146.874 200.122)scale(.01197)"/><use xlink:href="#a" transform="rotate(144.25 23.867 61.04)scale(.01184)"/><use xlink:href="#a" transform="rotate(-20.785 295.518 -147.041)scale(.01291)"/><use xlink:href="#a" transform="rotate(116.013 6.84 71.221)scale(.00553)"/><use xlink:href="#a" transform="rotate(131.397 14.75 64.89)scale(.0068)"/><use xlink:href="#a" transform="rotate(-10.277 566.902 -333.48)scale(.00894)"/><use xlink:href="#a" transform="rotate(-64.805 110.367 -2.636)scale(.01256)"/><use xlink:href="#a" transform="rotate(212.083 47.973 40.38)scale(.0104)"/><use xlink:href="#a" transform="rotate(166.525 27.42 53.334)scale(.0059)"/><use xlink:href="#a" transform="rotate(252.514 68.336 26.569)scale(.00696)"/><use xlink:href="#a" transform="rotate(256.893 70.53 26.13)scale(.0125)"/><use xlink:href="#a" transform="rotate(-73.053 96.85 9.708)scale(.00796)"/><use xlink:href="#a" transform="rotate(185.473 32.742 48.53)scale(.00553)"/><use xlink:href="#a" transform="rotate(-97.712 72.87 24.663)scale(.0055)"/><use xlink:href="#a" transform="rotate(95.896 -14.79 75.902)scale(.00635)"/><use xlink:href="#a" transform="rotate(35.237 -124.724 137.165)scale(.01006)"/><use xlink:href="#a" transform="rotate(155.768 17.891 56.64)scale(.01169)"/><use xlink:href="#a" transform="rotate(210.733 40.837 43.445)scale(.00698)"/><use xlink:href="#a" transform="rotate(117.629 -2.98 66.202)scale(.01071)"/><use xlink:href="#a" transform="rotate(63.002 -54.97 90.858)scale(.00845)"/><use xlink:href="#a" transform="rotate(9.471 -575.313 339.52)scale(.00739)"/><use xlink:href="#a" transform="rotate(25.614 -192.38 150.656)scale(.01397)"/><use xlink:href="#a" transform="rotate(-73.03 90.69 22.722)scale(.01257)"/><use xlink:href="#a" transform="rotate(106.703 -15.19 67.186)scale(.0059)"/><use xlink:href="#a" transform="rotate(-7.834 756.724 -250.064)scale(.00727)"/><use xlink:href="#a" transform="rotate(25.477 -201.544 140.036)scale(.00798)"/><use xlink:href="#a" transform="rotate(28.68 -177.485 127.923)scale(.00682)"/><use xlink:href="#a" transform="rotate(196.451 27.432 49.433)scale(.0099)"/><use xlink:href="#a" transform="rotate(46.138 -99.986 94.29)scale(.0077)"/><use xlink:href="#a" transform="rotate(18.39 -295.622 159.444)scale(.00745)"/><use xlink:href="#a" transform="rotate(-4.682 1267.562 -362.93)scale(.0058)"/><use xlink:href="#a" transform="rotate(71.408 -53.256 74.816)scale(.00936)"/><use xlink:href="#a" transform="rotate(95.986 -28.843 66.187)scale(.01056)"/><use xlink:href="#a" transform="rotate(-27.21 226.69 -8.957)scale(.00647)"/><use xlink:href="#a" transform="rotate(134.782 -5.758 57.902)scale(.00762)"/><use xlink:href="#a" transform="rotate(41.045 -120.703 88.421)scale(.0057)"/><use xlink:href="#a" transform="rotate(49.272 -95.87 80.27)scale(.00737)"/><use xlink:href="#a" transform="rotate(-22.954 259.426 -5.908)scale(.01319)"/><use xlink:href="#a" transform="rotate(198.717 21.012 49.895)scale(.01245)"/><use xlink:href="#a" transform="rotate(253.933 49.141 43.235)scale(.00726)"/><use xlink:href="#a" transform="rotate(128.083 -12.742 55.675)scale(.0113)"/><use xlink:href="#a" transform="rotate(88.776 -40.163 59.692)scale(.00843)"/><use xlink:href="#a" transform="rotate(-81.768 65.812 42.388)scale(.0144)"/><use xlink:href="#a" transform="rotate(36.997 -137.968 71.143)scale(.00818)"/><use xlink:href="#a" transform="rotate(146.241 -7.247 51.962)scale(.00654)"/><use xlink:href="#a" transform="rotate(238.273 34.177 47.094)scale(.01096)"/><use xlink:href="#a" transform="rotate(240.348 34.349 47.454)scale(.0115)"/><use xlink:href="#a" transform="rotate(218.304 22.05 48.338)scale(.00964)"/><use xlink:href="#a" transform="rotate(109.36 -29.316 51.626)scale(.01001)"/><use xlink:href="#a" transform="rotate(-31.438 173.339 40.658)scale(.00826)"/><use xlink:href="#a" transform="rotate(-51.41 102.14 44.758)scale(.0064)"/><use xlink:href="#a" transform="rotate(-60.668 84.116 46.18)scale(.00555)"/><use xlink:href="#a" transform="rotate(164.197 -4.35 49.073)scale(.01116)"/><use xlink:href="#a" transform="rotate(149.906 -10.674 48.141)scale(.0086)"/><use xlink:href="#a" transform="rotate(11.696 -448.773 54.76)scale(.00637)"/><use xlink:href="#a" transform="rotate(163.267 -5 46.771)scale(.00547)"/><use xlink:href="#a" transform="rotate(1.14 -4439.858 54.914)scale(.01398)"/><use xlink:href="#a" transform="rotate(215.03 15.838 45.026)scale(.00943)"/><use xlink:href="#a" transform="rotate(185.149 4.113 44.408)scale(.00996)"/><use xlink:href="#a" transform="rotate(111.032 -26.082 43.923)scale(.0133)"/><use xlink:href="#a" transform="rotate(-80.142 50.726 41.89)scale(.01099)"/><use xlink:href="#a" transform="rotate(234.419 22.729 41.227)scale(.00938)"/><use xlink:href="#a" transform="rotate(244.877 27.192 40.034)scale(.0065)"/><use xlink:href="#a" transform="rotate(-4.376 1006.038 27.53)scale(.01197)"/><use xlink:href="#a" transform="rotate(201.594 9.774 39.248)scale(.01238)"/><use xlink:href="#a" transform="rotate(-17.289 246.131 30.087)scale(.00582)"/><use xlink:href="#a" transform="rotate(-27.888 148.6 33.918)scale(.00784)"/><use xlink:href="#a" transform="rotate(137.185 -11.01 37.506)scale(.01215)"/><use xlink:href="#a" transform="rotate(202.066 9.067 35.731)scale(.00684)"/><use xlink:href="#a" transform="rotate(19.296 -196.97 41.439)scale(.00944)"/><use xlink:href="#a" transform="rotate(44.508 -79.969 37.729)scale(.00551)"/><use xlink:href="#a" transform="matrix(.01 .00424 -.00424 .01 2.67 64.445)"/><use xlink:href="#a" transform="rotate(159.559 -2.933 33.591)scale(.01093)"/><use xlink:href="#a" transform="rotate(-49.692 68.398 31.127)scale(.01396)"/><use xlink:href="#a" transform="rotate(175.312 1.285 31.227)scale(.00674)"/><use xlink:href="#a" transform="rotate(108.983 -17.932 31.503)scale(.01055)"/><use xlink:href="#a" transform="rotate(-15.01 216.758 21.627)scale(.00997)"/><use xlink:href="#a" transform="rotate(19.5 -155.476 35.217)scale(.0112)"/><use xlink:href="#a" transform="rotate(226.485 13.998 27.573)scale(.0089)"/><use xlink:href="#a" transform="rotate(77.566 -30.41 28.836)scale(.00563)"/><use xlink:href="#a" transform="rotate(132.13 -8.3 27.355)scale(.01184)"/><use xlink:href="#a" transform="rotate(100.609 -17.058 26.58)scale(.0129)"/><use xlink:href="#a" transform="rotate(232.385 13.941 24.411)scale(.01026)"/><use xlink:href="#a" transform="rotate(29.777 -81.95 26.937)scale(.00932)"/><use xlink:href="#a" transform="rotate(71.091 -27.534 24.123)scale(.01108)"/><use xlink:href="#a" transform="rotate(195.185 4.909 22.038)scale(.00704)"/><use xlink:href="#a" transform="rotate(-17.696 133.497 15.102)scale(.0066)"/><use xlink:href="#a" transform="rotate(185.4 3.188 21.176)scale(.0109)"/><use xlink:href="#a" transform="rotate(104.308 -12.722 20.732)scale(.00743)"/><use xlink:href="#a" transform="rotate(-7.489 284 5.872)scale(.006)"/><use xlink:href="#a" transform="rotate(152.013 -2.462 19.217)scale(.00762)"/><use xlink:href="#a" transform="rotate(-28.37 68.066 17.302)scale(.01144)"/><use xlink:href="#a" transform="rotate(119.669 -7.456 17.851)scale(.00767)"/><use xlink:href="#a" transform="rotate(182.31 2.006 16.765)scale(.00664)"/><use xlink:href="#a" transform="rotate(30.49 -50.665 17.072)scale(.0123)"/><use xlink:href="#a" transform="rotate(258.062 12.975 15.495)scale(.01404)"/><use xlink:href="#a" transform="rotate(136.884 -2.672 14.357)scale(.01148)"/><use xlink:href="#a" transform="rotate(36.074 -32.842 14.176)scale(.01122)"/><use xlink:href="#a" transform="rotate(-78.293 15.26 12.65)scale(.01386)"/><defs><path id="a" fill="#000" d="M215.823 333.963c0-.733.3-1.033.667-.667a.95.95 0 0 1 0 1.334c-.367.366-.667.066-.667-.667M143.424 3.977c4.632-.653 8.099 4.826 5.302 8.382-1.951 2.48-2.551 5.604-1.078 5.604.905.004 11.175 12.34 11.175 13.423 0 1.076-4.344 5.111-6.316 5.868-1.898.728-1.434 2.71.633 2.71.661 0 1.78.924 2.486 2.056 1.284 2.054 1.286 2.054 2.991.057.938-1.1 2.606-2.139 3.706-2.307s2.33-.757 2.734-1.307c.415-.565.741-.238.75.75.018 2.14.447 2.169 3.408.229 1.623-1.063 2.19-2.212 1.884-3.81-1.049-5.489 4.864-5.512 14.402-.058 5.289 3.024 5.527 3.005 7.663-.61 3.023-5.119 9.966-1.694 8.152 4.02-.515 1.623-.183 2.247 1.417 2.666 1.15.3 2.09.945 2.09 1.43.001.485.9.883 2 .883 2.405 0 2.51-.633.446-2.697-1.937-1.936-1.511-6.247.756-7.667 2.444-1.53 3.085-.336 1.976 3.68-.844 3.057-.725 3.569.927 4 1.042.274 1.895 1.215 1.895 2.09.001 2.117 3.922 2.083 5.479-.046 1.634-2.235 4.962-.366 4.996 2.806.022 2.026.585 2.375 4.275 2.641 3.903.283 4.25.113 4.25-2.089q0-2.397 2.547-3.556c5.794-2.64 9.087-.056 7.912 6.206-.627 3.341-.627 3.341 7.125 4.043 13.323 1.209 21.701 9.211 10.916 10.427-1.65.187-3.533.779-4.183 1.316-.772.639-2.504.61-5-.082-4.664-1.295-5.317-1.318-5.317-.18 0 .89 3.547 2.107 7.692 2.639 3.814.489 4.527 1.472 3.864 5.335-1.584 9.224-1.538 9.134-4.694 9.134-1.732 0-2.721-.419-2.362-1 .34-.55.194-1-.324-1-.519 0-1.178-.9-1.466-2-.316-1.208-1.364-2-2.648-2-1.169 0-2.425-.787-2.793-1.75-.688-1.803-.846-2.03-4.339-6.25-2.069-2.5-2.069-2.5-1.491.21.443 2.079.097 2.968-1.49 3.817-3.053 1.634-2.358 6.6.861 6.15 1.27-.178 2.952.21 3.737.862.841.698 2.53.908 4.115.51 2.465-.619 2.57-.53 1.263 1.08-.904 1.113-.968 1.48-.175 1.004 1.207-.725 1.687.683 1.482 4.336-.045.808 1.226 3.249 2.826 5.425 2.411 3.278 2.808 4.595 2.313 7.686-.499 3.124-.251 3.915 1.528 4.868 1.738.93 1.934 1.496 1.067 3.115-.582 1.088-.743 2.489-.358 3.114 1.359 2.199-6.627-.001-11.342-3.124-8.698-5.762-10.731-2.813-8.924 12.947.221 1.925-.023 4.035-.543 4.69-2.291 2.887-.482 6.804 3.201 6.932 1.925.067 3.95.231 4.5.365s1.77.166 2.711.072c2.294-.23 5.828 1.736 5.529 3.076-.429 1.92 7.577 1.339 13.716-.996 3.275-1.246 6.763-2.054 7.75-1.795 1.097.287 1.794-.077 1.794-.937 0-.773-.9-1.407-2-1.407-2.468 0-2.532-1.121-.227-3.967 1.774-2.19 1.774-2.191 3.655-.112 3.099 3.423 8.159.85 5.79-2.944-.993-1.589-.581-2.041 3.321-3.645 2.449-1.007 4.455-2.169 4.457-2.582s.443-.75.979-.75c1.288 0 .183 5.855-1.664 8.817-1.092 1.751-1.167 2.651-.309 3.686 1.283 1.545-.226 5.368-2.692 6.822-.804.474-1.149 1.608-.812 2.669.406 1.279-.025 2.039-1.405 2.477-1.193.378-1.772 1.202-1.445 2.054.599 1.563-1.168 3.716-3.898 4.75-.962.364-1.75 1.619-1.75 2.789 0 2.226-3.33 7.595-5.963 9.615-1.366 1.047-1.342 1.254.215 1.857 1.184.459 2.39-.086 3.717-1.678 2.104-2.526 2.666-1.913 1.038 1.131-.844 1.574-.541 1.954 2 2.512 3.869.85 4.064 4.832.493 10.094-3.324 4.898-3.182 6.036 1.488 11.905 2.188 2.75 5.447 7.129 7.244 9.732 2.93 4.244 6.768 6.38 6.768 3.768 0-.55 1.035-1 2.3-1s2.746-.446 3.29-.99c.62-.62 2.15-.657 4.088-.101 2.392.686 3.469.516 4.728-.744 4.803-4.802 6.925 3.04 2.546 9.405-3.724 5.412-1.48 4.855 3.795-.941 1.786-1.963 3.851-3.336 4.59-3.052.738.282 1.92-.181 2.625-1.031 1.934-2.33 4.935-1.866 6.224.963 1.583 3.475-.177 6.436-7.813 13.14-6.161 5.409-6.161 5.409-3.267 8.303q6.73 6.731-2.936 8.665c-2.37.473-3.292.23-3.762-.995-.888-2.314-2.696-2.009-5.448.92-2.037 2.169-2.206 2.834-1.151 4.523 1.864 2.986.028 5.71-3.506 5.2-4.597-.663-9.708 5.273-8.219 9.547.611 1.753 1.63 3.202 2.264 3.219s.361.49-.606 1.054c-.967.563-2.166.771-2.665.463-.498-.308-1.136-.096-1.417.471-.28.567-.375.457-.21-.244a1.32 1.32 0 0 1 1.594-.969c1.051.249 1.054.018.019-1.229-.82-.989-2.396-1.39-4.419-1.124a92 92 0 0 1-6.144.558c-1.65.081-2.437.374-1.75.651.688.279 1.25 1.087 1.25 1.799s.675 1.854 1.5 2.539c5.107 4.238-.167 9.564-11.856 11.977-5.805 1.198-5.851 1.236-5.25 4.241.333 1.668.606 4.11.606 5.428 0 1.565.84 2.78 2.421 3.5 1.427.65 2.204 1.669 1.892 2.481-1.315 3.427.629 6.545 3.665 5.878 3.965-.871 7.62 1.069 5.906 3.134-.684.825-2.082 1.281-3.105 1.013-1.464-.382-1.732-.077-1.254 1.431.545 1.717.081 1.917-4.459 1.917-5.146 0-6.794-1.89-2.64-3.028 2.787-.763 3.151-3.008.595-3.677-1.452-.379-1.789-.821-.999-1.309 1.624-1.003.253-6.985-1.601-6.986-.782 0-1.421-.392-1.421-.872s-1.851-1.168-4.114-1.53c-2.276-.364-4.845-1.556-5.75-2.669-1.563-1.921-1.645-1.764-1.848 3.531-.199 5.212-.072 5.54 2.143 5.54 5.607 0 3.707 7.564-2.136 8.502-2.087.335-5.28 1.263-7.096 2.062-2.486 1.094-3.803 1.183-5.335.363-2.367-1.266-3.36-.663-2.519 1.53.326.849 1.676 1.543 3.001 1.543 3.904 0 5.075 2.286 3.115 6.077-1.665 3.218-1.666 3.218-13.063 2.607s-11.398-.611-11.398 2.418c0 8.621-10.579 8.949-12.836.398-1.025-3.886-7.44-4.574-7.971-.856-.417 2.928-5.229 3.934-5.933 1.241-.544-2.077-1.366-2.361-2.81-.97-.522.504-2.075 1.066-3.45 1.25-1.71.229-2.602 1.053-2.823 2.609-.261 1.844-.83 2.2-3 1.878-1.472-.218-2.582-.851-2.467-1.405.116-.555-.672-1.807-1.75-2.783-1.881-1.703-1.962-1.698-2.002.131-.024 1.048-1.416 3.03-3.095 4.405a541 541 0 0 0-5.708 4.749c-4.916 4.164-8.422 2.715-9.677-3.999-.385-2.061-.881-3.749-1.102-3.75s-3.649.9-7.619 2c-14.524 4.025-29-2.533-15.77-7.145 1.657-.578 3.013-1.445 3.013-1.928s-1.155-.438-2.566.098c-2.123.807-3.159.524-6-1.643-3.139-2.394-4.983-5.457-2.279-3.787.716.443.883.275.439-.443-1.049-1.697-4.913.576-4.188 2.464.811 2.113-2.281 2.937-3.707.987-1.831-2.504-6.976.008-6.236 3.044 1.341 5.502-5.446 8.159-7.44 2.914-.95-2.498-5.437-1.816-9.523 1.446-1.865 1.489-6.803 1.559-7.292.104-.259-.768-.013-1.108.549-.761.56.346.996.071.973-.61-.161-4.454.444-5.606 3.52-6.697 3.668-1.3 2.102-3.54-3.25-4.647-1.375-.284-3.306-.954-4.29-1.489-.986-.536-2.157-.749-2.603-.473-.448.276-1.667-.136-2.71-.916-1.793-1.341-1.767-1.385.487-.816 1.773.448 2.26.242 1.896-.8-.268-.771-1.228-1.27-2.134-1.108s-1.646-.113-1.646-.61c0-1.368-6.697-8.183-8.04-8.184-1.264 0-.447 5.053.968 5.991 1.274.844.882 7.15-.413 6.653-.657-.252-1.123.469-1.084 1.676.084 2.591-2.923 3.446-3.828 1.089-.357-.929.047-2.752.897-4.05 1.424-2.172 1.405-2.362-.227-2.394-.976-.02-2.897-.658-4.27-1.418-1.696-.939-2.884-1.061-3.702-.382-1.603 1.33-5.582.011-4.95-1.641.545-1.42-1.94-5.524-3.343-5.524-1.258 0-10.008-8.116-10.008-9.282 0-.581 1.664-.708 4.125-.314 3.832.613 4.086.511 3.58-1.429-.45-1.717-.294-1.879.874-.91 2.272 1.886 1.639-.557-.69-2.659-1.16-1.048-2.975-3.744-4.033-5.992-1.69-3.592-9.922-9.936-15.158-11.681-3.332-1.111 3.063-11.87 6.517-10.966 1.767.462 1.998.235 1.38-1.356-1.235-3.177-1.163-3.926.35-3.596 2.291.498 6.055-1.977 6.055-3.984 0-1.079.72-1.831 1.755-1.831 2.437 0 4.522-6.525 2.596-8.124-.743-.616-1.35-1.939-1.35-2.939-.001-1.001-.451-2.097-1-2.437-.55-.34-1-1.518-1-2.618s-.404-1.752-.895-1.448c-.49.303-1.843-1.357-3.005-3.691s-2.66-5.143-3.328-6.243-2.239-3.678-3.493-5.729c-2.852-4.664-2.888-7.741-.126-10.706 1.922-2.063 1.98-2.41.542-3.215-.887-.497-1.358-1.568-1.045-2.382.387-1.012-.573-1.955-3.043-2.987-1.984-.829-3.645-2.064-3.69-2.744-.242-3.637-1.198-7.557-2.465-10.115-.785-1.582-1.159-3.945-.832-5.25.405-1.611.16-2.392-.764-2.435-.746-.035-.333-.475.918-.977 2.606-1.047 2.206-5.5-.687-7.629-4.752-3.496-5.041-3.891-4.456-6.081.33-1.238 1.379-2.25 2.33-2.25.95 0 2.543-.9 3.538-2s2.231-2 2.745-2 1.779-1.012 2.81-2.25c1.615-1.934 1.883-2.003 1.912-.49.018.968-.867 2.53-1.967 3.472-2.538 2.173-2.518 2.899.1 3.584 1.157.303 1.805 1.029 1.442 1.617-.363.587-.445 1.067-.183 1.067.263 0 1.25.298 2.196.66 1.212.464 1.572.243 1.224-.75-.57-1.629 2.992-7.17 4.15-6.454.427.264 1.613-.132 2.636-.879 2.017-1.475.615-4.576-2.069-4.577-1.332 0-4.101-8.453-3.604-11 .162-.825.239-3.222.17-5.326-.108-3.399.22-3.954 2.949-4.984 2.134-.806 3.024-1.774 2.919-3.175-.26-3.456.036-4.654 1-4.058a1.09 1.09 0 0 0 1.502-.347c.313-.507 1.402-.705 2.42-.438 2.56.669 5.59-2.434 4.113-4.214-.807-.972-.795-1.907.043-3.472.63-1.178.9-2.782.6-3.564-.38-.993.2-1.422 1.923-1.422 1.358 0 2.469-.45 2.47-1 0-.55-.437-1-.97-1s-.71-.675-.393-1.5c.33-.861.02-1.5-.73-1.5-1.018 0-1.041-.267-.108-1.2.66-.66 1.2-1.948 1.2-2.862 0-1.277 1.32-1.818 5.684-2.331 3.126-.367 6.276-1.159 7-1.76 1.767-1.466 1.673-3.846-.153-3.847-.894 0-1.243.586-.893 1.5.363.945-.011 1.5-1.011 1.5-1.986 0-1.574-5.786.506-7.103 3.478-2.204-2.762-.68-7.275 1.776-3.573 1.945-5.211 2.374-6.012 1.573-.743-.743-1.913-.79-3.605-.148-4.224 1.606-6.24.29-6.24-4.07 0-4.477 3.34-6.913 15.25-11.124 7.366-2.604 7.512-2.802 5.108-6.871-1.99-3.368-1.188-7.635 1.6-8.52 2.676-.849 9.035.449 9.056 1.848.042 3.128 1.618 3.829 5.793 2.579 4.398-1.318 5.909-3.37 4.09-5.56-.88-1.063-.605-1.805 1.234-3.325 2.036-1.682 2.524-1.753 3.477-.506 1.928 2.52 17.01-1.493 15.954-4.243-.865-2.257 4.422-5.084 5.593-2.991 1.402 2.505 4.122 2.048 7.252-1.219 2.783-2.905 2.783-2.905.625-5.062-3.774-3.774-.756-10.609 4.56-10.326 5.589.297 6.264.495 5.822 1.71-.217.595-.005 1.692.47 2.437 1.046 1.642 5.668-.946 6.598-3.694.309-.914 3.365-3.792 6.79-6.397 3.42-2.6 6.265-4.737 6.328-4.75m65.339 318.986c.582 0 1.06.45 1.06 1s-.198 1-.441 1-.719-.45-1.059-1-.141-.999.44-1m-91.94-7.618c0-.825.45-1.222 1-.882s1 1.294 1 2.119c0 .824-.45 1.221-1 .881s-1-1.293-1-2.118m85.5-1.382c.275 0 .5.225.5.5s-.225.5-.5.5a.5.5 0 0 1-.5-.5c0-.275.225-.5.5-.5m-127.56-8c.582 0 1.06.45 1.06 1s-.198 1-.441 1-.72-.45-1.059-1c-.34-.55-.141-.999.44-1m-2.94-1c.55 0 1 .45 1 1s-.45 1-1 1-1-.45-1-1 .45-1 1-1m60 1.107c0-1.644-2.785-1.984-4.653-.57-1.705 1.292-1.597 1.402 1.403 1.431 1.787.018 3.25-.37 3.25-.861m-45-2.107c.733 0 1.033.3.667.667a.95.95 0 0 1-1.334 0c-.366-.367-.066-.667.667-.667m-9.583.079c1.054-.043 1.644.193 1.312.525s-1.195.368-1.916.079c-.798-.319-.56-.556.604-.604m1.583-3.079c.55 0 1 .45 1 1s-.45 1-1 1-1-.45-1-1 .45-1 1-1m-8.5-1c.825 0 1.5.661 1.5 1.469 0 .894-.586 1.243-1.5.893-.825-.317-1.5-.978-1.5-1.469s.675-.893 1.5-.893m-.5-8c.55 0 1 .198 1 .441s-.45.719-1 1.059-1 .141-1-.441.45-1.059 1-1.059m200.5-6c.825 0 1.5.17 1.5.378 0 .207-.675.938-1.5 1.622-1.229 1.02-1.5.951-1.5-.378 0-.892.675-1.622 1.5-1.622m5-1c.275 0 .5.225.5.5s-.225.5-.5.5a.5.5 0 0 1-.5-.5c0-.275.225-.5.5-.5m-1.808-3.641c.54-1.409.707-1.398 1.549.107 1.058 1.89.425 3.064-1.132 2.102-.561-.349-.749-1.342-.417-2.209m-3.534-.359c0-1.375.227-1.937.504-1.25.278.688.278 1.813 0 2.5-.277.688-.504.125-.504-1.25m2.342-1c.275 0 .5.225.5.5s-.225.5-.5.5a.5.5 0 0 1-.5-.5c0-.275.225-.5.5-.5m-5.844-1.455q-.555-1.444.895-.886c1.68.645 1.794 1.01.554 1.776-.493.305-1.145-.096-1.449-.89m6.844-.545c.275 0 .5.225.5.5s-.225.5-.5.5a.5.5 0 0 1-.5-.5c0-.275.225-.5.5-.5m39.5-3c0-.733.3-1.033.667-.667a.95.95 0 0 1 0 1.334c-.367.366-.667.066-.667-.667m-6-10.441c0-1.757.6-2.015 1.457-.628.317.512.118 1.214-.441 1.56-.559.344-1.016-.075-1.016-.932M39.241 257.57c-2.373-.911-2.69-.758-2.025.975.334.87.607 1.77.607 2s.675.418 1.5.418c1.99 0 1.928-2.622-.082-3.393m255.48-5.607c1.658 0 8.149 6.113 7.54 7.101-1.492 2.413-6.742-.804-7.918-4.851-.379-1.302-.22-2.249.378-2.25m-20.398 4c-.275 0-.5.225-.5.5s.225.5.5.5.5-.225.5-.5-.225-.5-.5-.5m-6-3c-.275 0-.5.225-.5.5s.225.5.5.5.5-.225.5-.5-.225-.5-.5-.5m-1.677-3.667c-.389-2.009-2.386-2.848-3.29-1.385-.88 1.423.242 3.052 2.099 3.052.876 0 1.378-.703 1.191-1.667m2.677.667c-.275 0-.5.225-.5.5s.225.5.5.5.5-.225.5-.5-.225-.5-.5-.5m-245-17c.275 0 .5.225.5.5s-.225.5-.5.5a.5.5 0 0 1-.5-.5c0-.275.225-.5.5-.5m2 0c.275 0 .5.225.5.5s-.225.5-.5.5a.5.5 0 0 1-.5-.5c0-.275.225-.5.5-.5m4-50c-.275 0-.5.225-.5.5s.225.5.5.5.5-.225.5-.5-.225-.5-.5-.5m-4.5 0c.733 0 1.033.3.667.667a.95.95 0 0 1-1.334 0c-.366-.367-.066-.667.667-.667m-1.281-14.918c.165-2.193-1.234-3.676-2.118-2.246-.295.478.026 1.64.713 2.579 1.154 1.578 1.263 1.552 1.405-.333m1.781-2.082c-.275 0-.5.225-.5.5s.225.5.5.5.5-.225.5-.5-.225-.5-.5-.5m251.7-11.799c3.351-3.351 7.363-.019 6.367 5.289-.771 4.111-2.856 4.579-5.624 1.26-2.183-2.616-2.436-4.856-.743-6.549m-277.2 2.799c.733 0 1.033.3.667.667a.95.95 0 0 1-1.334 0c-.366-.367-.066-.667.667-.667m286.094-9c.498 0 .906.9.906 2s-.173 1.999-.383 2-.619-.9-.907-2c-.287-1.1-.115-2 .384-2m-1.594-2c.275 0 .5.225.5.5s-.225.5-.5.5a.5.5 0 0 1-.5-.5c0-.275.225-.5.5-.5m7.882-3c.275 0 .778.45 1.118 1s.393 1 .118 1-.778-.45-1.118-1-.393-1-.118-1M18.68 133.08c.195-.064.119.503-.172 1.261s0 1.909.643 2.557c.9.904.602.968-1.277.276-3.058-1.127-3.74-2.892-1.356-3.51.992-.257 1.965-.52 2.162-.584m8.81-1.45c1.116-1.117 2-.749 2 .833 0 .825-.6 1.5-1.334 1.5-1.419 0-1.77-1.229-.666-2.333m266.273.333c.582 0 1.06.45 1.06 1s-.198 1-.441 1-.719-.45-1.059-1-.141-.999.44-1m2.56 1c.275 0 .5.225.5.5s-.225.5-.5.5a.5.5 0 0 1-.5-.5c0-.275.225-.5.5-.5m-275.5-4c.55 0 1 .675 1 1.5s-.45 1.5-1 1.5-1-.675-1-1.5.45-1.5 1-1.5m282 .128c3.258-1.305 5-1.362 5-.163 0 1.749-3.891 3.196-5.763 2.142-1.557-.876-1.478-1.081.763-1.979m-288.434-3.23c3.127-1.225 4.078-.943 2.037.602-1.044.79-2.364 1.148-2.934.795-.598-.369-.218-.96.896-1.397m276.493-.898c.518 0 .941.45.941 1s-.703 1-1.56 1c-.856 0-1.28-.45-.94-1s1.041-1 1.559-1m-37.559-20c-.275 0-.5.225-.5.5s.225.5.5.5.5-.225.5-.5-.225-.5-.5-.5m-215-3c.275 0 .5.225.5.5s-.225.5-.5.5a.5.5 0 0 1-.5-.5c0-.275.225-.5.5-.5m5-1c.275 0 .5.225.5.5s-.225.5-.5.5a.5.5 0 0 1-.5-.5c0-.275.225-.5.5-.5m-11.25-5.017c1.787-1.093 3.85-1.76 4.582-1.485.732.276 2.082.538 3 .581.999.047 1.176.279.442.576-.673.272-1.452.35-1.73.17-.278-.178-1.215.687-2.081 1.925-1.028 1.467-2.602 2.25-4.52 2.25-3.852 0-3.733-1.546.307-4.017m228.25 3.017c.275 0 .5.225.5.5s-.225.5-.5.5a.5.5 0 0 1-.5-.5c0-.275.225-.5.5-.5m-218-1c.275 0 .5.225.5.5s-.225.5-.5.5a.5.5 0 0 1-.5-.5c0-.275.225-.5.5-.5m12.32-8.171c-.347-2.352-2.271-3.527-3.232-1.972-.907 1.468.44 4.143 2.089 4.143.932 0 1.346-.787 1.143-2.171m184.68-14.829c.275 0 .5.225.5.5s-.225.5-.5.5a.5.5 0 0 1-.5-.5c0-.275.225-.5.5-.5m34.5-2.004c0-.513.675-.721 1.5-.464.825.258 2.25.709 3.167 1.001 1.174.376 1.353.846.607 1.592-1.18 1.18-5.273-.473-5.274-2.129M69.807 71.213c.022-1.797-1.658-1.54-2.39.364-.392 1.023-1.345 1.423-2.606 1.093-1.092-.285-1.987-.16-1.988.278s1.195 1.099 2.655 1.466c2.667.668 4.296-.536 4.33-3.2m174.575-2.25c-.243 0-.719.45-1.059 1s-.141 1 .44 1c.582 0 1.06-.45 1.06-1s-.198-1-.441-1m-3.059-1c-.275 0-.5.225-.5.5s.225.5.5.5.5-.225.5-.5-.225-.5-.5-.5m-97.083-21.92c-1.165.047-1.402.284-.604.603.721.289 1.584.253 1.916-.08.332-.331-.258-.567-1.312-.524m37.583-2.08c-.733 0-1.033.3-.667.667a.95.95 0 0 0 1.334 0c.366-.367.066-.667-.667-.667m-34.478-9.63c-1.136-.435-1.813.026-2.198 1.5-.307 1.172-1.18 2.13-1.941 2.13-.76 0-1.383.45-1.383 1 0 1.52 2.594 1.195 4-.5.685-.825 2.288-1.5 3.563-1.5s2.597-.45 2.937-1-.272-1-1.359-1c-1.088 0-2.717-.283-3.619-.63m-8.398 2.363c-.988-.98-1.102-.865-.56.56.376.986.935 1.54 1.243 1.233s.001-1.114-.683-1.793m21.376-6.733c.275 0 .5.225.5.5s-.225.5-.5.5a.5.5 0 0 1-.5-.5c0-.275.225-.5.5-.5m45.5-1c.733 0 1.033.3.667.667a.95.95 0 0 1-1.334 0c-.366-.367-.066-.667.667-.667m5-4c.55 0 1 .198 1 .44 0 .244-.45.72-1 1.06s-1 .14-1-.441c0-.582.45-1.059 1-1.059m-34.5 0c.275 0 .5.225.5.5s-.225.5-.5.5a.5.5 0 0 1-.5-.5c0-.275.225-.5.5-.5m-3.5-6c.733 0 1.033.3.667.667a.95.95 0 0 1-1.334 0c-.366-.367-.066-.667.667-.667m1-3c0-.733.3-1.033.667-.667a.95.95 0 0 1 0 1.334c-.367.366-.667.066-.667-.667m35-2c.733 0 1.033.3.667.667a.95.95 0 0 1-1.334 0c-.366-.367-.066-.667.667-.667m-31.5-1c.275 0 .5.225.5.5s-.225.5-.5.5a.5.5 0 0 1-.5-.5c0-.275.225-.5.5-.5m-11-2c.275 0 .5.225.5.5s-.225.5-.5.5a.5.5 0 0 1-.5-.5c0-.275.225-.5.5-.5m9.5 0c0-.733.3-1.033.667-.667a.95.95 0 0 1 0 1.334c-.367.366-.667.066-.667-.667m-4.5-1c.275 0 .5.225.5.5s-.225.5-.5.5a.5.5 0 0 1-.5-.5c0-.275.225-.5.5-.5m-38.941-3c.243 0 .441.45.441 1s-.478 1-1.06 1c-.581 0-.78-.45-.44-1s.816-1 1.059-1m-9.559 1c.733 0 1.033.3.667.667a.95.95 0 0 1-1.334 0c-.366-.367-.066-.667.667-.667m44.381-5.652c2.929-2.519 5.619-3.082 5.619-1.177 0 1.726-3.081 4.829-4.795 4.83-.816 0-2.026.74-2.688 1.645-1.062 1.452-1.184 1.375-1.035-.65.093-1.265 1.398-3.356 2.899-4.648" data-figma-scatter="f0.51_w0.06_aj180_sj0.65_r0_s17656661811333049531_sw3" data-figma-scatter-ref="stroke0_184_5669_ref"/></defs></svg>