<svg xmlns="http://www.w3.org/2000/svg" xmlns:xlink="http://www.w3.org/1999/xlink" width="444" height="63" fill="none" viewBox="0 0 444 63"><path fill="#e0cea5" fill-opacity=".56" d="m35.374 60.434-32.89-11.89v-4.06l6.436-16.82-6.435-20.88 123.692-4.35 176.601 4.35 130.127-4.35-10.725 17.4 19.305 24.65-8.58 15.95-107.247-6.67c-38.61 1.063-127.697 2.552-175.172 0-32.031-1.392-90.087 3.866-115.112 6.67"/><use xlink:href="#a" transform="rotate(84.047 -25.786 24.186)scale(.0084 -.0084)"/><use xlink:href="#a" transform="rotate(-175.27 4.311 23.366)scale(.01382 -.01382)"/><use xlink:href="#a" transform="rotate(-46.27 62.858 18.861)scale(.00595 -.00595)"/><use xlink:href="#a" transform="rotate(-79.485 34.875 20.946)scale(.0076 -.0076)"/><use xlink:href="#a" transform="rotate(165.278 1.028 25.3)scale(.00556 -.00556)"/><use xlink:href="#a" transform="matrix(-.00393 -.01 -.01 .00393 11.49 51.835)"/><use xlink:href="#a" transform="rotate(204.026 9.813 25.38)scale(-.011 .011)"/><use xlink:href="#a" transform="rotate(161.58 1.464 27.607)scale(-.00636 .00636)"/><use xlink:href="#a" transform="matrix(.0076 .00789 .00789 -.0076 11.026 52.454)"/><use xlink:href="#a" transform="rotate(89.03 -19.513 35.88)scale(-.00939 .00939)"/><use xlink:href="#a" transform="rotate(117.743 -7.56 30.524)scale(.0103 -.0103)"/><use xlink:href="#a" transform="rotate(170.915 7.211 27.318)scale(.00552 -.00552)"/><use xlink:href="#a" transform="rotate(49.536 -50.465 45.636)scale(.00872 -.00872)"/><use xlink:href="#a" transform="rotate(71.88 -28.128 40.315)scale(.00562 -.00562)"/><use xlink:href="#a" transform="rotate(125.53 -2.95 31.676)scale(.0122 -.0122)"/><use xlink:href="#a" transform="rotate(175.637 11.82 27.391)scale(.0141 -.0141)"/><use xlink:href="#a" transform="rotate(228.799 24.742 22.92)scale(-.00614 .00614)"/><use xlink:href="#a" transform="rotate(102.311 -9.98 40.231)scale(-.00728 .00728)"/><use xlink:href="#a" transform="rotate(171.001 12.081 29.116)scale(.00806 -.00806)"/><use xlink:href="#a" transform="rotate(91.739 -13.78 44.748)scale(-.01023 .01023)"/><use xlink:href="#a" transform="rotate(132.74 2.542 35.161)scale(.00567 -.00567)"/><use xlink:href="#a" transform="rotate(36.515 -72.553 78.742)scale(-.00655 .00655)"/><use xlink:href="#a" transform="rotate(173.339 13.816 31.194)scale(-.00727 .00727)"/><use xlink:href="#a" transform="rotate(145.209 6.91 35.823)scale(-.007 .007)"/><use xlink:href="#a" transform="rotate(-173.076 20.07 28.177)scale(.01046 -.01046)"/><use xlink:href="#a" transform="matrix(-.00255 -.0141 -.0141 .00255 39.43 62.179)"/><use xlink:href="#a" transform="rotate(125.892 3.582 40.612)scale(-.00598 .00598)"/><use xlink:href="#a" transform="rotate(114.16 .074 43.728)scale(-.0069 .0069)"/><use xlink:href="#a" transform="rotate(80.765 -14.8 54.698)scale(-.00578 .00578)"/><use xlink:href="#a" transform="rotate(108.355 -.393 43.38)scale(.0114 -.0114)"/><use xlink:href="#a" transform="rotate(150.99 14.344 34.729)scale(.00622 -.00622)"/><use xlink:href="#a" transform="rotate(-78.233 59.7 2.57)scale(.00545 -.00545)"/><use xlink:href="#a" transform="rotate(151.238 14.595 36.49)scale(-.00857 .00857)"/><use xlink:href="#a" transform="rotate(-177.711 25.181 28.147)scale(.01203 -.01203)"/><use xlink:href="#a" transform="rotate(139.805 13.248 38.983)scale(-.00554 .00554)"/><use xlink:href="#a" transform="rotate(176.58 24.554 29.666)scale(.0073 -.0073)"/><use xlink:href="#a" transform="rotate(207.614 31.516 24.006)scale(-.0143 .0143)"/><use xlink:href="#a" transform="rotate(-136.809 40.113 17.919)scale(.01397 -.01397)"/><use xlink:href="#a" transform="rotate(210.998 34.834 22.22)scale(-.0123 .0123)"/><use xlink:href="#a" transform="rotate(93.962 1.883 57.973)scale(-.01188 .01188)"/><use xlink:href="#a" transform="rotate(-165.52 34.63 24.476)scale(.0107 -.0107)"/><use xlink:href="#a" transform="rotate(227.055 42.349 15.93)scale(-.00814 .00814)"/><use xlink:href="#a" transform="rotate(258.48 53.176 3.22)scale(-.01303 .01303)"/><use xlink:href="#a" transform="rotate(264.422 57.19 -.7)scale(-.00826 .00826)"/><use xlink:href="#a" transform="rotate(145.013 23.622 40.483)scale(-.01155 .01155)"/><use xlink:href="#a" transform="rotate(197.95 37.607 24.12)scale(-.01307 .01307)"/><use xlink:href="#a" transform="rotate(53.731 -20.692 99.548)scale(-.00655 .00655)"/><use xlink:href="#a" transform="rotate(95.07 9.719 62.66)scale(-.00924 .00924)"/><use xlink:href="#a" transform="rotate(-146.59 46.787 16.427)scale(.0143 -.0143)"/><use xlink:href="#a" transform="rotate(95.065 11.848 64.592)scale(-.01064 .01064)"/><use xlink:href="#a" transform="rotate(74.107 .964 78.032)scale(.00604 -.00604)"/><use xlink:href="#a" transform="rotate(76.164 2.96 76.122)scale(.0113 -.0113)"/><use xlink:href="#a" transform="rotate(-166.497 44.627 22.402)scale(.01219 -.01219)"/><use xlink:href="#a" transform="matrix(.00215 -.0081 -.0081 -.00215 83.097 57.7)"/><use xlink:href="#a" transform="rotate(87.732 12.73 69.57)scale(.01152 -.01152)"/><use xlink:href="#a" transform="rotate(170.694 39.74 32.38)scale(-.01025 .01025)"/><use xlink:href="#a" transform="rotate(-133.1 57.12 8.341)scale(.01151 -.01151)"/><use xlink:href="#a" transform="rotate(150.813 36.777 40.218)scale(-.00775 .00775)"/><use xlink:href="#a" transform="rotate(108.875 25.3 59.184)scale(.00593 -.00593)"/><use xlink:href="#a" transform="rotate(-56.477 99.58 -56.78)scale(.01005 -.01005)"/><use xlink:href="#a" transform="rotate(150.264 38.643 40.839)scale(-.00729 .00729)"/><use xlink:href="#a" transform="matrix(-.00256 .0064 .0064 .00256 93.39 53.66)"/><use xlink:href="#a" transform="rotate(164.258 43.13 35.432)scale(-.01299 .01299)"/><use xlink:href="#a" transform="rotate(100.527 25.866 69.592)scale(-.01027 .01027)"/><use xlink:href="#a" transform="rotate(167.83 47.121 32.111)scale(.00704 -.00704)"/><use xlink:href="#a" transform="rotate(89.893 22.63 76.418)scale(.0078 -.0078)"/><use xlink:href="#a" transform="matrix(-.0069 .00501 .00501 .0069 101.964 52.983)"/><use xlink:href="#a" transform="rotate(63.614 8.244 113.277)scale(-.01204 .01204)"/><use xlink:href="#a" transform="rotate(83.442 21.848 87.152)scale(-.00579 .00579)"/><use xlink:href="#a" transform="rotate(111.235 34.737 62.088)scale(.0104 -.0104)"/><use xlink:href="#a" transform="rotate(166.26 51.508 32.752)scale(.0111 -.0111)"/><use xlink:href="#a" transform="rotate(76.132 19.976 95.062)scale(.01213 -.01213)"/><use xlink:href="#a" transform="rotate(45.83 -9.24 157.118)scale(.00691 -.00691)"/><use xlink:href="#a" transform="rotate(129.321 43.214 54.713)scale(-.00766 .00766)"/><use xlink:href="#a" transform="rotate(86.23 28.12 88.9)scale(-.00622 .00622)"/><use xlink:href="#a" transform="rotate(144.096 48.281 47.147)scale(-.0132 .0132)"/><use xlink:href="#a" transform="matrix(-.0111 .0072 .0072 .0111 118.298 50.988)"/><use xlink:href="#a" transform="rotate(-159.603 65.983 15.275)scale(.0126 -.0126)"/><use xlink:href="#a" transform="rotate(179.16 60.005 27.92)scale(-.00622 .00622)"/><use xlink:href="#a" transform="matrix(.0071 .00061 .00061 -.0071 121.253 54.932)"/><use xlink:href="#a" transform="matrix(.0022 -.01085 -.01085 -.0022 125.5 56.048)"/><use xlink:href="#a" transform="rotate(151.78 57.143 41.202)scale(.0137 -.0137)"/><use xlink:href="#a" transform="rotate(-174.563 66.367 22.936)scale(.01153 -.01153)"/><use xlink:href="#a" transform="rotate(179.002 65.607 26.5)scale(.01032 -.01032)"/><use xlink:href="#a" transform="rotate(-179.76 66.676 25.86)scale(.00955 -.00955)"/><use xlink:href="#a" transform="rotate(69.764 27.757 120.639)scale(.0086 -.0086)"/><use xlink:href="#a" transform="rotate(176.918 67.491 27.7)scale(.01042 -.01042)"/><use xlink:href="#a" transform="rotate(153.579 61.291 44.043)scale(-.01247 .01247)"/><use xlink:href="#a" transform="rotate(210.662 75.685 8.268)scale(-.008 .008)"/><use xlink:href="#a" transform="rotate(171.85 69.167 30.503)scale(.01318 -.01318)"/><use xlink:href="#a" transform="rotate(75.636 36.62 119.43)scale(-.00695 .00695)"/><use xlink:href="#a" transform="rotate(132.14 59.335 59.152)scale(-.00616 .00616)"/><use xlink:href="#a" transform="rotate(118.617 56.252 68.701)scale(.00582 -.00582)"/><use xlink:href="#a" transform="rotate(119.76 57.626 67.285)scale(.0127 -.0127)"/><use xlink:href="#a" transform="matrix(.00381 .0063 .0063 -.00381 145.44 53.234)"/><use xlink:href="#a" transform="rotate(60.693 27.582 150.954)scale(.01415 -.01415)"/><use xlink:href="#a" transform="rotate(109.088 55.975 81.645)scale(-.0073 .0073)"/><use xlink:href="#a" transform="rotate(174.957 73.965 31.402)scale(-.01332 .01332)"/><use xlink:href="#a" transform="rotate(163.1 73.454 37.719)scale(.00632 -.00632)"/><use xlink:href="#a" transform="matrix(-.0022 .00634 .00634 .0022 154.419 52.46)"/><use xlink:href="#a" transform="matrix(.0006 .0072 .0072 -.0006 154.953 52.98)"/><use xlink:href="#a" transform="rotate(120.215 62.98 73.406)scale(-.00861 .00861)"/><use xlink:href="#a" transform="rotate(115.498 62.43 76.437)scale(.00585 -.00585)"/><use xlink:href="#a" transform="rotate(145.58 71.11 52.898)scale(-.00912 .00912)"/><use xlink:href="#a" transform="rotate(150.4 74.312 47.372)scale(.01088 -.01088)"/><use xlink:href="#a" transform="matrix(-.0072 -.0017 -.0017 .0072 164.66 53.449)"/><use xlink:href="#a" transform="rotate(93.041 56.49 103.973)scale(.00692 -.00692)"/><use xlink:href="#a" transform="rotate(149.519 74.93 50.602)scale(-.00723 .00723)"/><use xlink:href="#a" transform="rotate(87.752 55.307 115.704)scale(-.01003 .01003)"/><use xlink:href="#a" transform="rotate(59.762 36.333 172.088)scale(.0079 -.0079)"/><use xlink:href="#a" transform="rotate(127.166 71.092 70.533)scale(-.00902 .00902)"/><use xlink:href="#a" transform="rotate(156.81 81.153 43.514)scale(.01324 -.01324)"/><use xlink:href="#a" transform="rotate(148.78 78.636 52.628)scale(-.00971 .00971)"/><use xlink:href="#a" transform="rotate(-179.185 88.232 26.198)scale(.00637 -.00637)"/><use xlink:href="#a" transform="rotate(47.023 24.531 228.13)scale(.0056 -.0056)"/><use xlink:href="#a" transform="rotate(-136.458 100.323 -8.3)scale(.00721 -.00721)"/><use xlink:href="#a" transform="rotate(111.383 70.245 89.233)scale(-.00709 .00709)"/><use xlink:href="#a" transform="rotate(138.775 80.236 59.835)scale(.01203 -.01203)"/><use xlink:href="#a" transform="rotate(58.672 41.55 187.331)scale(.00629 -.00629)"/><use xlink:href="#a" transform="rotate(180.887 90.941 27.146)scale(-.00562 .00562)"/><use xlink:href="#a" transform="rotate(124.14 77.831 74.613)scale(.01149 -.01149)"/><use xlink:href="#a" transform="rotate(52.031 35.414 214.4)scale(.01421 -.01421)"/><use xlink:href="#a" transform="rotate(51.242 37.084 224.861)scale(-.00659 .00659)"/><use xlink:href="#a" transform="rotate(-168.461 98.633 16.927)scale(.01324 -.01324)"/><use xlink:href="#a" transform="rotate(40.567 20.062 284.005)scale(.00607 -.00607)"/><use xlink:href="#a" transform="rotate(19.717 -64.478 576.497)scale(.00581 -.00581)"/><use xlink:href="#a" transform="rotate(18.75 -75.214 606.373)scale(.01195 -.01195)"/><use xlink:href="#a" transform="rotate(156.27 92.603 46.869)scale(.01112 -.01112)"/><use xlink:href="#a" transform="rotate(68.083 57.33 171.347)scale(.01023 -.01023)"/><use xlink:href="#a" transform="rotate(161.12 94.183 44.878)scale(-.00827 .00827)"/><use xlink:href="#a" transform="rotate(135.047 89.01 67.937)scale(.00829 -.00829)"/><use xlink:href="#a" transform="matrix(-.0113 .00938 .00938 .0113 202.207 51.767)"/><use xlink:href="#a" transform="rotate(37.187 18.534 327.925)scale(.00805 -.00805)"/><use xlink:href="#a" transform="rotate(140.843 92.388 64.853)scale(-.00758 .00758)"/><use xlink:href="#a" transform="rotate(2.553 -1113.7 4676.25)scale(-.0057 .0057)"/><use xlink:href="#a" transform="rotate(130.433 90.642 76.452)scale(-.00869 .00869)"/><use xlink:href="#a" transform="rotate(174.796 102.324 33.503)scale(-.014 .014)"/><use xlink:href="#a" transform="rotate(106.422 84.892 108.872)scale(-.01432 .01432)"/><use xlink:href="#a" transform="rotate(83.313 75.948 149.13)scale(-.00873 .00873)"/><use xlink:href="#a" transform="rotate(173.8 105.466 33.935)scale(-.00574 .00574)"/><use xlink:href="#a" transform="matrix(-.0038 .00589 .00589 .0038 215.509 53.437)"/><use xlink:href="#a" transform="rotate(63.798 63.798 199.613)scale(.01242 -.01242)"/><use xlink:href="#a" transform="matrix(-.0055 .00174 .00174 .0055 219.613 53.869)"/><use xlink:href="#a" transform="rotate(58.074 59.776 224.367)scale(.00614 -.00614)"/><use xlink:href="#a" transform="rotate(86.86 81.353 145.277)scale(-.00558 .00558)"/><use xlink:href="#a" transform="matrix(.0124 .00395 .00395 -.0124 219.838 56.424)"/><use xlink:href="#a" transform="rotate(159.955 106.716 48.226)scale(-.00867 .00867)"/><use xlink:href="#a" transform="rotate(86.438 83.398 146.518)scale(.0064 -.0064)"/><use xlink:href="#a" transform="rotate(78.458 80.123 169.131)scale(-.01316 .01316)"/><use xlink:href="#a" transform="matrix(-.00127 .01276 .01276 .00127 227.45 52.71)"/><use xlink:href="#a" transform="rotate(185.962 116.157 22.54)scale(-.01143 .01143)"/><use xlink:href="#a" transform="rotate(108.712 97.2 109.451)scale(.01323 -.01323)"/><use xlink:href="#a" transform="rotate(65.903 75.271 210.033)scale(-.00566 .00566)"/><use xlink:href="#a" transform="rotate(76.11 83.264 180.876)scale(-.0118 .0118)"/><use xlink:href="#a" transform="matrix(-.006 -.0017 -.0017 .006 239.249 54.425)"/><use xlink:href="#a" transform="matrix(.002 .013 .013 -.002 237.096 53.277)"/><use xlink:href="#a" transform="rotate(-173.17 123.65 19.244)scale(.01297 -.01297)"/><use xlink:href="#a" transform="rotate(102.148 99.538 128.38)scale(-.01474 .01474)"/><use xlink:href="#a" transform="matrix(-.0123 .00213 .00213 .0123 248 52.69)"/><use xlink:href="#a" transform="rotate(8.079 -254.56 1798.34)scale(-.0105 .0105)"/><use xlink:href="#a" transform="rotate(142.534 115.161 70.496)scale(-.00556 .00556)"/><use xlink:href="#a" transform="matrix(.0022 .0052 .0052 -.0022 249.306 54.56)"/><use xlink:href="#a" transform="rotate(59.154 78.594 252.652)scale(-.01353 .01353)"/><use xlink:href="#a" transform="rotate(193.3 129.508 13.233)scale(-.00662 .00662)"/><use xlink:href="#a" transform="rotate(127.849 113.758 90.51)scale(-.00578 .00578)"/><use xlink:href="#a" transform="matrix(-.0124 -.0008 -.0008 .0124 258.517 52.895)"/><use xlink:href="#a" transform="rotate(175.935 127.267 33.142)scale(-.01225 .01225)"/><use xlink:href="#a" transform="rotate(164.28 127.26 44.32)scale(.01197 -.01197)"/><use xlink:href="#a" transform="rotate(25.315 5.373 606.441)scale(.01184 -.01184)"/><use xlink:href="#a" transform="matrix(-.0127 -.00231 -.00231 .0127 266.939 53.267)"/><use xlink:href="#a" transform="rotate(53.503 78.103 289.939)scale(.00553 -.00553)"/><use xlink:href="#a" transform="rotate(38.104 53.102 411.846)scale(.0068 -.0068)"/><use xlink:href="#a" transform="rotate(179.76 134.847 26.9)scale(.00894 -.00894)"/><use xlink:href="#a" transform="rotate(54.264 82.628 294.039)scale(-.01256 .01256)"/><use xlink:href="#a" transform="rotate(137.35 124.828 81.678)scale(-.0104 .0104)"/><use xlink:href="#a" transform="matrix(.00589 .0003 .0003 -.00589 272.404 55.82)"/><use xlink:href="#a" transform="rotate(96.888 112.855 150.204)scale(-.00696 .00696)"/><use xlink:href="#a" transform="rotate(92.487 111.895 161.506)scale(-.0125 .0125)"/><use xlink:href="#a" transform="rotate(62.41 94.23 258.375)scale(-.00796 .00796)"/><use xlink:href="#a" transform="rotate(163.87 135.203 47.661)scale(-.00553 .00553)"/><use xlink:href="#a" transform="rotate(87.043 111.119 175.67)scale(-.0055 .0055)"/><use xlink:href="#a" transform="rotate(73.422 103.504 214.47)scale(.00635 -.00635)"/><use xlink:href="#a" transform="matrix(-.007 .00723 .00723 .007 282.133 52.244)"/><use xlink:href="#a" transform="matrix(.01137 .00273 .00273 -.01137 281.702 56.25)"/><use xlink:href="#a" transform="rotate(138.524 132.098 82.177)scale(-.00698 .00698)"/><use xlink:href="#a" transform="rotate(231.608 155.4 -41.65)scale(-.01071 .01071)"/><use xlink:href="#a" transform="matrix(-.00236 .0081 .0081 .00236 287.651 52.722)"/><use xlink:href="#a" transform="matrix(-.00693 .00256 .00256 .00693 290.66 52.872)"/><use xlink:href="#a" transform="matrix(-.01124 .0083 .0083 .01124 292.187 51.231)"/><use xlink:href="#a" transform="rotate(62.175 102.518 273.736)scale(-.01257 .01257)"/><use xlink:href="#a" transform="rotate(62.422 102.536 269.746)scale(.0059 -.0059)"/><use xlink:href="#a" transform="rotate(176.944 148.146 30.501)scale(.00727 -.00727)"/><use xlink:href="#a" transform="rotate(143.616 140.432 75.22)scale(.00798 -.00798)"/><use xlink:href="#a" transform="matrix(-.00525 .00434 .00434 .00525 299.2 52.83)"/><use xlink:href="#a" transform="rotate(152.605 143.013 64.796)scale(-.0099 .0099)"/><use xlink:href="#a" transform="rotate(122.898 136.475 108.317)scale(.0077 -.0077)"/><use xlink:href="#a" transform="matrix(-.0065 .00365 .00365 .0065 303.646 52.52)"/><use xlink:href="#a" transform="rotate(173.685 151.095 34.96)scale(.0058 -.0058)"/><use xlink:href="#a" transform="matrix(-.00123 .00927 .00927 .00123 304.216 52.44)"/><use xlink:href="#a" transform="rotate(96.63 129.56 162.24)scale(.01056 -.01056)"/><use xlink:href="#a" transform="rotate(39.805 80.23 455.414)scale(-.00647 .00647)"/><use xlink:href="#a" transform="rotate(57.795 105.262 305.986)scale(.00762 -.00762)"/><use xlink:href="#a" transform="matrix(-.005 .00272 .00272 .005 311.294 52.734)"/><use xlink:href="#a" transform="matrix(-.0059 .0044 .0044 .0059 312.247 52.49)"/><use xlink:href="#a" transform="rotate(35.469 74.483 522.049)scale(-.01319 .01319)"/><use xlink:href="#a" transform="rotate(173.76 155.503 36.72)scale(-.01245 .01245)"/><use xlink:href="#a" transform="rotate(-61.484 205.811 -239.49)scale(.00726 -.00726)"/><use xlink:href="#a" transform="rotate(64.336 116.195 278.105)scale(.0113 -.0113)"/><use xlink:href="#a" transform="matrix(-.00198 .0082 .0082 .00198 319.642 52.101)"/><use xlink:href="#a" transform="rotate(94.116 136.263 179.234)scale(-.0144 .0144)"/><use xlink:href="#a" transform="matrix(-.00744 .00342 .00342 .00744 325.119 52.05)"/><use xlink:href="#a" transform="matrix(.0041 .0051 .0051 -.0041 324.148 53.592)"/><use xlink:href="#a" transform="rotate(139.142 153.003 89.047)scale(-.01096 .01096)"/><use xlink:href="#a" transform="rotate(137.066 153.3 93.052)scale(-.0115 .0115)"/><use xlink:href="#a" transform="matrix(.009 -.00344 -.00344 -.009 329.851 56.165)"/><use xlink:href="#a" transform="matrix(.00034 .01 .01 -.00034 330.643 52.705)"/><use xlink:href="#a" transform="rotate(48.853 108.125 396.875)scale(-.00826 .00826)"/><use xlink:href="#a" transform="rotate(-111.175 187.03 -87.84)scale(.0064 -.0064)"/><use xlink:href="#a" transform="rotate(78.082 134.519 235.534)scale(-.00555 .00555)"/><use xlink:href="#a" transform="rotate(33.217 74.968 589.067)scale(.01116 -.01116)"/><use xlink:href="#a" transform="rotate(126.17 156.015 112.366)scale(.0086 -.0086)"/><use xlink:href="#a" transform="rotate(84.379 140.168 216.156)scale(-.00637 .00637)"/><use xlink:href="#a" transform="rotate(-67.192 210.71 -229.81)scale(-.00547 .00547)"/><use xlink:href="#a" transform="rotate(94.935 146.207 187.023)scale(-.01398 .01398)"/><use xlink:href="#a" transform="rotate(61.045 125.236 317.937)scale(.00943 -.00943)"/><use xlink:href="#a" transform="rotate(90.926 146.186 196.383)scale(.00996 -.00996)"/><use xlink:href="#a" transform="rotate(165.043 171.545 49.268)scale(.0133 -.0133)"/><use xlink:href="#a" transform="rotate(176.217 173.467 34.4)scale(-.01099 .01099)"/><use xlink:href="#a" transform="matrix(.00701 .00624 .00624 -.00701 349.989 55.74)"/><use xlink:href="#a" transform="rotate(31.198 75.92 658.406)scale(.0065 -.0065)"/><use xlink:href="#a" transform="rotate(100.45 154.163 177.467)scale(-.01197 .01197)"/><use xlink:href="#a" transform="matrix(.00331 .01192 .01192 -.00331 354.537 54.22)"/><use xlink:href="#a" transform="matrix(.0023 -.00535 -.00535 -.0023 359.105 56.957)"/><use xlink:href="#a" transform="rotate(123.963 164.647 124.73)scale(-.00784 .00784)"/><use xlink:href="#a" transform="rotate(138.89 170.842 94.271)scale(.01215 -.01215)"/><use xlink:href="#a" transform="rotate(74.009 144.06 267.526)scale(.00684 -.00684)"/><use xlink:href="#a" transform="matrix(-.00216 -.0092 -.0092 .00216 366.202 57.26)"/><use xlink:href="#a" transform="rotate(51.567 124.994 407.913)scale(-.00551 .00551)"/><use xlink:href="#a" transform="rotate(73.089 145.768 277.812)scale(-.01085 .01085)"/><use xlink:href="#a" transform="rotate(116.516 167.239 140.79)scale(.01093 -.01093)"/><use xlink:href="#a" transform="rotate(145.767 175.88 86.962)scale(-.01396 .01396)"/><use xlink:href="#a" transform="matrix(-.00126 .00662 .00662 .00126 371.611 55.332)"/><use xlink:href="#a" transform="rotate(167.092 184.511 48.626)scale(.01055 -.01055)"/><use xlink:href="#a" transform="matrix(.00265 -.0096 -.0096 -.00265 376.823 58.946)"/><use xlink:href="#a" transform="rotate(70.937 149.244 295.495)scale(-.0112 .0112)"/><use xlink:href="#a" transform="rotate(43.951 117.75 495.681)scale(.0089 -.0089)"/><use xlink:href="#a" transform="rotate(-167.13 193.882 6.73)scale(.00563 -.00563)"/><use xlink:href="#a" transform="matrix(-.00884 .00787 .00787 .00884 381.875 54.36)"/><use xlink:href="#a" transform="matrix(-.0127 .00228 .00228 .0127 385.491 54.88)"/><use xlink:href="#a" transform="rotate(38.051 108.046 584.704)scale(.01026 -.01026)"/><use xlink:href="#a" transform="rotate(60.659 144.917 361.978)scale(-.00932 .00932)"/><use xlink:href="#a" transform="rotate(19.345 29.519 1176.422)scale(-.01108 .01108)"/><use xlink:href="#a" transform="matrix(.0018 .0068 .0068 -.0018 389.122 56.961)"/><use xlink:href="#a" transform="rotate(108.132 174.774 171.77)scale(-.0066 .0066)"/><use xlink:href="#a" transform="rotate(85.036 164.78 241.544)scale(.0109 -.0109)"/><use xlink:href="#a" transform="rotate(166.128 194.32 52.388)scale(.00743 -.00743)"/><use xlink:href="#a" transform="rotate(97.925 172.538 202.24)scale(-.006 .006)"/><use xlink:href="#a" transform="matrix(-.00363 .0067 .0067 .00363 396.377 56.507)"/><use xlink:href="#a" transform="rotate(118.807 181.609 148.524)scale(-.01144 .01144)"/><use xlink:href="#a" transform="matrix(-.0067 .00374 .00374 .0067 400.552 56.557)"/><use xlink:href="#a" transform="rotate(88.126 170.308 235.5)scale(.00664 -.00664)"/><use xlink:href="#a" transform="rotate(59.947 151.402 381.314)scale(-.0123 .0123)"/><use xlink:href="#a" transform="rotate(195.497 205.205 2.825)scale(-.01404 .01404)"/><use xlink:href="#a" transform="matrix(-.00835 .00788 .00788 .00835 407.208 55.987)"/><use xlink:href="#a" transform="rotate(57.485 151.647 404.955)scale(-.01122 .01122)"/><use xlink:href="#a" transform="rotate(171.851 202.42 45.342)scale(-.01386 .01386)"/><use xlink:href="#a" transform="rotate(83.652 173.38 258.901)scale(.0075 -.0075)"/><use xlink:href="#a" transform="rotate(151.507 200.097 81.372)scale(.00857 -.00857)"/><use xlink:href="#a" transform="rotate(68.99 165.166 334.593)scale(-.01125 .01125)"/><use xlink:href="#a" transform="rotate(121.56 191.837 147.282)scale(-.00656 .00656)"/><use xlink:href="#a" transform="matrix(.00444 .00353 .00353 -.00444 417.065 59.68)"/><use xlink:href="#a" transform="rotate(15.306 -9.103 1594.2)scale(-.00586 .00586)"/><use xlink:href="#a" transform="rotate(74.168 170.65 306.385)scale(.00797 -.00797)"/><use xlink:href="#a" transform="matrix(.006 .00335 .00335 -.006 420.176 60.254)"/><use xlink:href="#a" transform="rotate(98.245 185.514 212.022)scale(.0057 -.0057)"/><use xlink:href="#a" transform="rotate(70.017 169.387 333.787)scale(-.0066 .0066)"/><use xlink:href="#a" transform="rotate(54.513 153.747 440.502)scale(.0079 -.0079)"/><use xlink:href="#a" transform="rotate(-41.998 295.024 -524.25)scale(.0121 -.0121)"/><use xlink:href="#a" transform="rotate(168.83 210.726 51.434)scale(-.00546 .00546)"/><use xlink:href="#a" transform="rotate(-171.397 217.691 13.31)scale(.00883 -.00883)"/><use xlink:href="#a" transform="rotate(93.465 187.109 235.526)scale(-.01452 .01452)"/><use xlink:href="#a" transform="rotate(40.08 132.626 620.074)scale(.01183 -.01183)"/><use xlink:href="#a" transform="rotate(156.222 211.11 74.49)scale(.00545 -.00545)"/><use xlink:href="#a" transform="rotate(136.86 205.326 115.98)scale(-.01193 .01193)"/><use xlink:href="#a" transform="rotate(34.053 127.06 740.68)scale(-.00575 .00575)"/><use xlink:href="#a" transform="rotate(198.171 221.1 -6.6)scale(-.01247 .01247)"/><use xlink:href="#a" transform="matrix(.0082 .01183 .01183 -.0082 433.675 52.265)"/><use xlink:href="#a" transform="rotate(89.72 193.216 244.317)scale(.00803 -.00803)"/><use xlink:href="#a" transform="rotate(155.15 214.028 72.68)scale(.00623 -.00623)"/><use xlink:href="#a" transform="rotate(115.181 203.798 165.58)scale(-.01276 .01276)"/><use xlink:href="#a" transform="rotate(84.855 194.234 262.183)scale(.01136 -.01136)"/><use xlink:href="#a" transform="rotate(43.501 162.333 573.6)scale(.00676 -.00676)"/><use xlink:href="#a" transform="matrix(.0103 .0105 .0105 -.0103 437.808 44.088)"/><use xlink:href="#a" transform="rotate(172.31 219.36 34.994)scale(.01119 -.01119)"/><use xlink:href="#a" transform="rotate(12.05 36.113 2110.048)scale(-.0139 .0139)"/><use xlink:href="#a" transform="matrix(.00425 -.0042 -.0042 -.00425 437.485 40.934)"/><use xlink:href="#a" transform="rotate(143.401 212.498 90.721)scale(.00724 -.00724)"/><use xlink:href="#a" transform="rotate(140.012 211.645 97.137)scale(.0086 -.0086)"/><use xlink:href="#a" transform="matrix(.0039 .00494 .00494 -.0039 433.957 36.34)"/><use xlink:href="#a" transform="rotate(232.318 224.415 -88.4)scale(-.01172 .01172)"/><use xlink:href="#a" transform="rotate(144.765 210.67 86.873)scale(-.00973 .00973)"/><use xlink:href="#a" transform="matrix(.00866 .0047 .0047 -.00866 430.068 33.401)"/><use xlink:href="#a" transform="rotate(20.262 129.417 1226.385)scale(-.0059 .0059)"/><use xlink:href="#a" transform="rotate(90.194 200.138 229.28)scale(.00552 -.00552)"/><use xlink:href="#a" transform="rotate(64.93 191.168 351.547)scale(.00763 -.00763)"/><use xlink:href="#a" transform="rotate(92.705 200.92 217.333)scale(.01117 -.01117)"/><use xlink:href="#a" transform="rotate(43.785 181.32 549.398)scale(-.00992 .00992)"/><use xlink:href="#a" transform="rotate(136.85 208.831 96.363)scale(.0101 -.0101)"/><use xlink:href="#a" transform="rotate(33.6 169.961 714.709)scale(.00952 -.00952)"/><use xlink:href="#a" transform="rotate(81.064 199.157 262.58)scale(-.0133 .0133)"/><use xlink:href="#a" transform="matrix(.0088 -.01174 -.01174 -.0088 424.131 24.842)"/><use xlink:href="#a" transform="rotate(152.666 208.354 62.114)scale(-.00682 .00682)"/><use xlink:href="#a" transform="rotate(70.519 198.483 310.625)scale(-.01148 .01148)"/><use xlink:href="#a" transform="rotate(-66.833 226.31 -311.894)scale(.00617 -.00617)"/><use xlink:href="#a" transform="rotate(77.267 201.694 274.784)scale(-.00564 .00564)"/><use xlink:href="#a" transform="matrix(-.00564 .009 .009 .00564 424.084 13.116)"/><use xlink:href="#a" transform="rotate(154.995 210.75 55.134)scale(-.00758 .00758)"/><use xlink:href="#a" transform="rotate(94.134 207.133 203.334)scale(.0098 -.0098)"/><use xlink:href="#a" transform="rotate(73.693 206.422 293.486)scale(-.01302 .01302)"/><use xlink:href="#a" transform="matrix(.0098 -.009 -.009 -.0098 428.293 12.643)"/><use xlink:href="#a" transform="matrix(.00213 .01401 .01401 -.00213 427.096 5.78)"/><use xlink:href="#a" transform="matrix(.00759 -.0115 -.0115 -.00759 431.488 8.75)"/><use xlink:href="#a" transform="matrix(.01423 .00208 .00208 -.01423 429.511 5.742)"/><use xlink:href="#a" transform="rotate(174.61 215.781 11.908)scale(-.00623 .00623)"/><use xlink:href="#a" transform="matrix(.00051 .01465 .01465 -.00051 428.373 .29)"/><use xlink:href="#a" transform="rotate(70.596 212.31 302.06)scale(.01017 -.01017)"/><use xlink:href="#a" transform="matrix(-.00588 .0035 .0035 .00588 427.795 .984)"/><use xlink:href="#a" transform="matrix(.00395 .0052 .0052 -.00395 424.79 2.298)"/><use xlink:href="#a" transform="matrix(.0061 .00218 .00218 -.0061 423.871 3.433)"/><use xlink:href="#a" transform="matrix(-.00855 .00923 .00923 .00855 423.493 -.214)"/><use xlink:href="#a" transform="matrix(-.00396 -.0109 -.0109 .00396 424.1 3.904)"/><use xlink:href="#a" transform="matrix(-.01402 .0041 .0041 .01402 421.053 -.16)"/><use xlink:href="#a" transform="rotate(36.448 202.09 631.197)scale(.01185 -.01185)"/><use xlink:href="#a" transform="rotate(121.116 206.8 119.634)scale(-.00696 .00696)"/><use xlink:href="#a" transform="rotate(30.21 203.389 771.874)scale(-.00644 .00644)"/><use xlink:href="#a" transform="matrix(-.01214 .00537 .00537 .01214 414.008 .097)"/><use xlink:href="#a" transform="rotate(167.642 206.044 22.88)scale(.00967 -.00967)"/><use xlink:href="#a" transform="rotate(41.874 199.494 534.775)scale(.0073 -.0073)"/><use xlink:href="#a" transform="matrix(-.00528 .00508 .00508 .00528 408.402 1.528)"/><use xlink:href="#a" transform="rotate(155.634 202.932 46.196)scale(-.00572 .00572)"/><use xlink:href="#a" transform="rotate(24.102 197.13 955.975)scale(-.00554 .00554)"/><use xlink:href="#a" transform="matrix(.00751 .0003 .0003 -.00751 404.005 4.61)"/><use xlink:href="#a" transform="rotate(104.526 200.228 159.85)scale(-.0143 .0143)"/><use xlink:href="#a" transform="matrix(-.0058 -.00097 -.00097 .0058 402.891 2.571)"/><use xlink:href="#a" transform="matrix(.0074 .0012 .0012 -.0074 399.256 4.487)"/><use xlink:href="#a" transform="matrix(.00416 .0139 .0139 -.00416 395.828 1.93)"/><use xlink:href="#a" transform="matrix(-.00445 .0069 .0069 .00445 396.511 1.62)"/><use xlink:href="#a" transform="matrix(-.00222 .00766 .00766 .00222 394.676 2.041)"/><use xlink:href="#a" transform="matrix(-.00378 .00878 .00878 .00378 393.281 1.514)"/><use xlink:href="#a" transform="matrix(.00708 .0063 .0063 -.00708 390.341 3.937)"/><use xlink:href="#a" transform="matrix(-.00609 .00417 .00417 .00609 391.451 2.282)"/><use xlink:href="#a" transform="matrix(.00166 .0097 .0097 -.00166 387.827 2.737)"/><use xlink:href="#a" transform="matrix(.0065 -.00067 -.00067 -.0065 387.407 5.141)"/><use xlink:href="#a" transform="rotate(165.13 193.826 26.656)scale(.0061 -.0061)"/><use xlink:href="#a" transform="matrix(.0019 -.00689 -.00689 -.0019 387.04 5.393)"/><use xlink:href="#a" transform="rotate(87.61 190.521 203.746)scale(-.00593 .00593)"/><use xlink:href="#a" transform="matrix(-.01032 .00965 .00965 .01032 383.51 .719)"/><use xlink:href="#a" transform="matrix(.00607 .00137 .00137 -.00607 380.524 4.814)"/><use xlink:href="#a" transform="matrix(.00513 -.0057 -.0057 -.00513 380.712 6.01)"/><use xlink:href="#a" transform="matrix(-.00692 -.0122 -.0122 .00692 381.961 5.18)"/><use xlink:href="#a" transform="rotate(60.281 184.29 325.173)scale(.0074 -.0074)"/><use xlink:href="#a" transform="rotate(-178.264 188.676 -1.635)scale(.01094 -.01094)"/><use xlink:href="#a" transform="rotate(34.21 180.965 612.033)scale(-.00573 .00573)"/><use xlink:href="#a" transform="rotate(101.43 184.536 156.057)scale(-.0094 .0094)"/><use xlink:href="#a" transform="matrix(-.0009 -.00558 -.00558 .0009 372.66 5.202)"/><use xlink:href="#a" transform="matrix(.007 .00487 .00487 -.007 368.437 4.767)"/><use xlink:href="#a" transform="rotate(156.176 183.3 42.132)scale(-.0102 .0102)"/><use xlink:href="#a" transform="matrix(-.00041 .00645 .00645 .00041 366.443 3.592)"/><use xlink:href="#a" transform="matrix(-.00461 .01263 .01263 .00461 364.438 1.946)"/><use xlink:href="#a" transform="rotate(162.768 180.493 31.244)scale(-.0134 .0134)"/><use xlink:href="#a" transform="rotate(104.163 178.82 144.655)scale(-.00996 .00996)"/><use xlink:href="#a" transform="rotate(124.568 179.12 96.185)scale(.00648 -.00648)"/><use xlink:href="#a" transform="rotate(111.765 177.749 125.048)scale(-.00706 .00706)"/><use xlink:href="#a" transform="matrix(-.00261 .00831 .00831 .00261 356.845 3.102)"/><use xlink:href="#a" transform="matrix(-.0067 -.0108 -.0108 .0067 358.934 5.723)"/><use xlink:href="#a" transform="rotate(82.05 174.164 208.223)scale(-.0126 .0126)"/><use xlink:href="#a" transform="rotate(140.452 174.943 66.613)scale(-.00605 .00605)"/><use xlink:href="#a" transform="rotate(94.797 173.094 161.881)scale(.0126 -.0126)"/><use xlink:href="#a" transform="rotate(171.583 173.958 16.051)scale(-.00625 .00625)"/><use xlink:href="#a" transform="matrix(-.00707 .0001 .0001 .00707 349.279 4.198)"/><use xlink:href="#a" transform="matrix(.01205 .00594 .00594 -.01205 343.471 6.442)"/><use xlink:href="#a" transform="rotate(122.75 170.744 97.54)scale(-.0055 .0055)"/><use xlink:href="#a" transform="rotate(82.881 168.9 199.038)scale(-.0105 .0105)"/><use xlink:href="#a" transform="matrix(-.00954 .00782 .00782 .00954 341.876 2.723)"/><use xlink:href="#a" transform="matrix(-.00625 .00057 .00057 .00625 340.996 4.27)"/><use xlink:href="#a" transform="rotate(95.802 167 156.91)scale(-.00661 .00661)"/><use xlink:href="#a" transform="rotate(120.81 167.562 97.93)scale(.0067 -.0067)"/><use xlink:href="#a" transform="matrix(-.0068 -.00156 -.00156 .0068 338.122 4.627)"/><use xlink:href="#a" transform="rotate(145.174 167.38 53.926)scale(.01333 -.01333)"/><use xlink:href="#a" transform="rotate(45.235 161.233 406.19)scale(-.01418 .01418)"/><use xlink:href="#a" transform="rotate(35.168 157.915 527.905)scale(-.00878 .00878)"/><use xlink:href="#a" transform="matrix(-.01183 .00223 .00223 .01183 330.694 3.682)"/><use xlink:href="#a" transform="rotate(37.102 156.647 494.084)scale(-.01101 .01101)"/><use xlink:href="#a" transform="matrix(-.0065 .00614 .00614 .0065 325.583 3.785)"/><use xlink:href="#a" transform="rotate(177.968 160.59 7.197)scale(-.01446 .01446)"/><use xlink:href="#a" transform="matrix(-.01347 .00335 .00335 .01347 322.89 3.533)"/><use xlink:href="#a" transform="rotate(139.225 157.635 63.937)scale(-.01357 .01357)"/><use xlink:href="#a" transform="matrix(.0052 -.00184 -.00184 -.0052 316.829 7.41)"/><use xlink:href="#a" transform="rotate(71.05 153.871 226.223)scale(-.00738 .00738)"/><use xlink:href="#a" transform="matrix(.00545 -.0019 -.0019 -.00545 314.628 7.488)"/><use xlink:href="#a" transform="rotate(-163.333 158.189 -20.2)scale(.00656 -.00656)"/><use xlink:href="#a" transform="matrix(.0055 -.0048 -.0048 -.0055 312.926 7.998)"/><use xlink:href="#a" transform="rotate(180.326 155.441 3.345)scale(-.0063 .0063)"/><use xlink:href="#a" transform="rotate(160.472 155.464 28.641)scale(.0131 -.0131)"/><use xlink:href="#a" transform="matrix(.00339 .01124 .01124 -.00339 305.779 5.354)"/><use xlink:href="#a" transform="rotate(147.125 152.058 49.177)scale(-.00597 .00597)"/><use xlink:href="#a" transform="matrix(.00238 .00603 .00603 -.00238 304.299 5.992)"/><use xlink:href="#a" transform="rotate(-135.499 154.4 -59.334)scale(.00634 -.00634)"/><use xlink:href="#a" transform="matrix(-.00026 .01417 .01417 .00026 300.595 4.371)"/><use xlink:href="#a" transform="rotate(53.964 144.648 300.563)scale(-.00575 .00575)"/><use xlink:href="#a" transform="rotate(72.79 144.97 204.245)scale(.0124 -.0124)"/><use xlink:href="#a" transform="rotate(136.834 147.406 63.154)scale(-.00678 .00678)"/><use xlink:href="#a" transform="rotate(131.237 147.36 68.7)scale(.01419 -.01419)"/><use xlink:href="#a" transform="matrix(-.00665 .00834 .00834 .00665 294.034 4.108)"/><use xlink:href="#a" transform="rotate(122.92 144.442 83.762)scale(-.00641 .00641)"/><use xlink:href="#a" transform="matrix(-.00788 .00462 .00462 .00788 292.139 4.596)"/><use xlink:href="#a" transform="rotate(84.47 141.664 164.416)scale(-.008 .008)"/><use xlink:href="#a" transform="rotate(143.82 143.012 51.256)scale(-.00715 .00715)"/><use xlink:href="#a" transform="matrix(.01395 .00487 .00487 -.01395 284.023 7.96)"/><use xlink:href="#a" transform="matrix(.0063 -.0025 -.0025 -.0063 284.712 7.89)"/><use xlink:href="#a" transform="matrix(.00246 .0049 .0049 -.00246 283.082 5.964)"/><use xlink:href="#a" transform="rotate(161.522 140.01 27.397)scale(-.01276 .01276)"/><use xlink:href="#a" transform="rotate(36.5 128.628 423.78)scale(.0141 -.0141)"/><use xlink:href="#a" transform="matrix(-.00393 .00784 .00784 .00393 277.98 4.073)"/><use xlink:href="#a" transform="rotate(141.179 137.022 52.902)scale(-.00927 .00927)"/><use xlink:href="#a" transform="rotate(35.785 129.859 433.231)scale(-.01002 .01002)"/><use xlink:href="#a" transform="rotate(129.602 135.437 68.254)scale(-.00594 .00594)"/><use xlink:href="#a" transform="rotate(54.037 131.262 272.437)scale(-.00654 .00654)"/><use xlink:href="#a" transform="matrix(.01176 .00312 .00312 -.01176 269.173 7.457)"/><use xlink:href="#a" transform="matrix(.00523 .00152 .00152 -.00523 269.038 6.758)"/><use xlink:href="#a" transform="matrix(-.01245 .0075 .0075 .01245 269.262 2.666)"/><use xlink:href="#a" transform="rotate(171.587 133.75 11.93)scale(.0099 -.0099)"/><use xlink:href="#a" transform="rotate(86.9 129.16 140.97)scale(.01036 -.01036)"/><use xlink:href="#a" transform="matrix(.00168 .0064 .0064 -.00168 262.009 4.973)"/><use xlink:href="#a" transform="matrix(-.00958 -.0018 -.0018 .00958 263.86 4.348)"/><use xlink:href="#a" transform="matrix(.006 -.00333 -.00333 -.006 260.186 7.195)"/><use xlink:href="#a" transform="rotate(20.84 116.698 712.365)scale(-.0081 .0081)"/><use xlink:href="#a" transform="rotate(123.96 127.214 72.506)scale(-.0075 .0075)"/><use xlink:href="#a" transform="rotate(174.772 127.743 9.322)scale(-.00709 .00709)"/><use xlink:href="#a" transform="rotate(133.21 126.934 57.387)scale(.00633 -.00633)"/><use xlink:href="#a" transform="matrix(-.01212 0 0 .01212 256.173 3.65)"/><use xlink:href="#a" transform="rotate(175.31 125.362 8.792)scale(-.0093 .0093)"/><use xlink:href="#a" transform="rotate(176.578 124.431 7.383)scale(-.01084 .01084)"/><use xlink:href="#a" transform="matrix(-.00555 .00379 .00379 .00555 249.544 4.066)"/><use xlink:href="#a" transform="matrix(-.00065 .00564 .00564 .00065 247.41 4.233)"/><use xlink:href="#a" transform="rotate(57.29 118 227.016)scale(.00807 -.00807)"/><use xlink:href="#a" transform="rotate(130.75 121.254 60.046)scale(-.00848 .00848)"/><use xlink:href="#a" transform="rotate(2.93 58.609 4814.425)scale(-.01237 .01237)"/><use xlink:href="#a" transform="rotate(158.21 121.236 24.826)scale(.0111 -.0111)"/><use xlink:href="#a" transform="rotate(42.207 114.62 316.926)scale(-.01017 .01017)"/><use xlink:href="#a" transform="rotate(11.185 98.224 1228.953)scale(-.00763 .00763)"/><use xlink:href="#a" transform="matrix(.00206 .00588 .00588 -.00206 236.309 4.528)"/><use xlink:href="#a" transform="rotate(112.783 116.211 82.406)scale(-.00974 .00974)"/><use xlink:href="#a" transform="rotate(21.182 106.53 634.087)scale(-.00637 .00637)"/><use xlink:href="#a" transform="matrix(.003 .009 .009 -.003 231.643 4.165)"/><use xlink:href="#a" transform="rotate(47.31 109.15 264.766)scale(.00976 -.00976)"/><use xlink:href="#a" transform="matrix(-.0075 -.00349 -.00349 .0075 232.347 4.175)"/><use xlink:href="#a" transform="rotate(35.755 108.6 360.456)scale(-.0084 .0084)"/><use xlink:href="#a" transform="matrix(-.0066 .00185 .00185 .0066 228.65 3.46)"/><use xlink:href="#a" transform="rotate(7.033 89.14 1860.343)scale(-.01133 .01133)"/><use xlink:href="#a" transform="matrix(-.00702 .0069 .0069 .00702 224.598 2.447)"/><use xlink:href="#a" transform="matrix(-.00081 .0062 .0062 .00081 222.356 3.835)"/><use xlink:href="#a" transform="rotate(37.11 106.31 337.02)scale(-.01433 .01433)"/><use xlink:href="#a" transform="rotate(68.376 105.76 161.587)scale(.01123 -.01123)"/><use xlink:href="#a" transform="rotate(105.44 107.175 83.898)scale(.00948 -.00948)"/><use xlink:href="#a" transform="rotate(104.768 106.314 86.56)scale(-.00554 .00554)"/><use xlink:href="#a" transform="matrix(-.0054 .00384 .00384 .0054 215.677 3.072)"/><use xlink:href="#a" transform="rotate(144.61 106.76 35.934)scale(.0059 -.0059)"/><use xlink:href="#a" transform="rotate(139.731 106.2 39.94)scale(.01269 -.01269)"/><use xlink:href="#a" transform="rotate(89.634 103.282 109.804)scale(-.00746 .00746)"/><use xlink:href="#a" transform="matrix(.00348 .01073 .01073 -.00348 207.25 3.182)"/><use xlink:href="#a" transform="rotate(164.735 104.415 14.854)scale(.0126 -.0126)"/><use xlink:href="#a" transform="rotate(118.298 101.559 64.502)scale(-.00577 .00577)"/><use xlink:href="#a" transform="rotate(21.845 89.517 530.536)scale(.00597 -.00597)"/><use xlink:href="#a" transform="rotate(165.142 102.282 14.66)scale(.00916 -.00916)"/><use xlink:href="#a" transform="matrix(-.00443 .0043 .0043 .00443 202.588 2.723)"/><use xlink:href="#a" transform="matrix(.005 .00398 .00398 -.005 200.049 4.57)"/><use xlink:href="#a" transform="matrix(-.01213 .00073 .00073 .01213 201.852 1.96)"/><use xlink:href="#a" transform="rotate(41.61 91.697 258.187)scale(.01388 -.01388)"/><use xlink:href="#a" transform="matrix(-.01036 .00628 .00628 .01036 196.295 1.53)"/><use xlink:href="#a" transform="rotate(143.27 95.889 35.086)scale(-.00816 .00816)"/><use xlink:href="#a" transform="rotate(99.32 94.73 83.003)scale(.00591 -.00591)"/><use xlink:href="#a" transform="rotate(89.69 93.902 99.4)scale(-.00571 .00571)"/><use xlink:href="#a" transform="rotate(102.227 93.695 76.974)scale(.0122 -.0122)"/><use xlink:href="#a" transform="rotate(20.679 87.956 524.394)scale(-.01178 .01178)"/><use xlink:href="#a" transform="rotate(88.78 91.33 98.791)scale(-.00902 .00902)"/><use xlink:href="#a" transform="rotate(76.18 89.73 118.007)scale(.01045 -.01045)"/><use xlink:href="#a" transform="rotate(9.207 59.955 1132.424)scale(.008 -.008)"/><use xlink:href="#a" transform="matrix(.001 .00607 .00607 -.001 181.099 3.116)"/><use xlink:href="#a" transform="matrix(.0069 .01254 .01254 -.0069 177.348 3.02)"/><use xlink:href="#a" transform="rotate(108.086 87.764 67.943)scale(-.00846 .00846)"/><use xlink:href="#a" transform="rotate(21.048 84.21 485.11)scale(-.0144 .0144)"/><use xlink:href="#a" transform="rotate(44.084 84.267 220.572)scale(-.01071 .01071)"/><use xlink:href="#a" transform="rotate(140.39 85.282 34.056)scale(-.0108 .0108)"/><use xlink:href="#a" transform="matrix(-.0063 -.013 -.013 .0063 173.998 4.708)"/><use xlink:href="#a" transform="rotate(74.662 82.265 114.93)scale(-.0144 .0144)"/><use xlink:href="#a" transform="rotate(166.498 82.198 12.544)scale(-.01056 .01056)"/><use xlink:href="#a" transform="rotate(51.662 79.747 174.09)scale(-.00932 .00932)"/><use xlink:href="#a" transform="matrix(.00058 .014 .014 -.00058 160.278 1.197)"/><use xlink:href="#a" transform="rotate(121.444 79.368 47.61)scale(-.0063 .0063)"/><use xlink:href="#a" transform="rotate(146.246 78.977 26.794)scale(-.0077 .0077)"/><use xlink:href="#a" transform="rotate(132.02 78.95 35.31)scale(.01214 -.01214)"/><use xlink:href="#a" transform="matrix(-.00508 .01296 .01296 .00508 154.703 .2)"/><use xlink:href="#a" transform="rotate(6.324 28.656 1370.374)scale(.01423 -.01423)"/><use xlink:href="#a" transform="matrix(.0079 .0042 .0042 -.0079 149.779 3.582)"/><use xlink:href="#a" transform="matrix(.0092 .0058 .0058 -.0092 147.649 3.502)"/><use xlink:href="#a" transform="rotate(43.983 72.256 188.73)scale(-.01403 .01403)"/><use xlink:href="#a" transform="rotate(-64.748 77.75 -113.08)scale(.01089 -.01089)"/><use xlink:href="#a" transform="matrix(.0065 .00627 .00627 -.0065 142.205 2.877)"/><use xlink:href="#a" transform="rotate(144.334 70.725 25.113)scale(-.00622 .00622)"/><use xlink:href="#a" transform="rotate(58.015 68.972 131.876)scale(-.01218 .01218)"/><use xlink:href="#a" transform="matrix(-.0053 .00135 .00135 .0053 140.686 1.57)"/><use xlink:href="#a" transform="rotate(-25.018 81.62 -306.9)scale(.01335 -.01335)"/><use xlink:href="#a" transform="rotate(22.622 65.33 348.317)scale(-.01249 .01249)"/><use xlink:href="#a" transform="rotate(166.406 66.338 10.3)scale(-.0101 .0101)"/><use xlink:href="#a" transform="rotate(167.8 66.959 7.56)scale(.0098 -.0098)"/><use xlink:href="#a" transform="rotate(142.198 64.756 24.638)scale(-.00867 .00867)"/><use xlink:href="#a" transform="matrix(-.00719 .00464 .00464 .00719 130.213 .49)"/><use xlink:href="#a" transform="rotate(109.992 62.7 48.127)scale(-.01455 .01455)"/><use xlink:href="#a" transform="rotate(12.049 57.02 604.746)scale(-.00734 .00734)"/><use xlink:href="#a" transform="rotate(61.498 60.978 108.655)scale(-.01348 .01348)"/><use xlink:href="#a" transform="rotate(50.502 59.5 133.514)scale(-.00981 .00981)"/><use xlink:href="#a" transform="matrix(-.005 .01093 .01093 .005 119.561 -.112)"/><use xlink:href="#a" transform="matrix(-.0058 .00234 .00234 .0058 119.618 1.402)"/><use xlink:href="#a" transform="rotate(60.731 57.116 103.52)scale(-.00672 .00672)"/><use xlink:href="#a" transform="rotate(173.712 57.018 5.7)scale(-.01364 .01364)"/><use xlink:href="#a" transform="matrix(-.0116 .00662 .00662 .0116 114.822 -.267)"/><use xlink:href="#a" transform="rotate(75.184 54.572 75.536)scale(-.00597 .00597)"/><use xlink:href="#a" transform="rotate(73.207 53.809 78.306)scale(-.0104 .0104)"/><use xlink:href="#a" transform="rotate(-154.001 55.8 -11.552)scale(.00595 -.00595)"/><use xlink:href="#a" transform="matrix(-.00084 -.006 -.006 .00084 109.846 3.79)"/><use xlink:href="#a" transform="rotate(66.091 51.325 83.028)scale(.00587 -.00587)"/><use xlink:href="#a" transform="rotate(178.034 52.414 3.264)scale(-.00964 .00964)"/><use xlink:href="#a" transform="rotate(30.618 45.204 190.755)scale(.00702 -.00702)"/><use xlink:href="#a" transform="rotate(134.604 50.5 24.676)scale(-.01183 .01183)"/><use xlink:href="#a" transform="matrix(-.01036 -.0032 -.0032 .01036 103.813 2.03)"/><use xlink:href="#a" transform="rotate(149.556 49.215 16.05)scale(-.00656 .00656)"/><use xlink:href="#a" transform="matrix(.00297 -.0056 -.0056 -.00297 99.522 4.917)"/><use xlink:href="#a" transform="rotate(169.726 48.355 6.701)scale(-.00657 .00657)"/><use xlink:href="#a" transform="rotate(25.054 37.71 214.444)scale(.0102 -.0102)"/><use xlink:href="#a" transform="rotate(67.987 44.54 70.676)scale(.00794 -.00794)"/><use xlink:href="#a" transform="matrix(.00613 .004 .004 -.00613 92.144 3.896)"/><use xlink:href="#a" transform="rotate(134.964 45.31 21.72)scale(-.00633 .00633)"/><use xlink:href="#a" transform="matrix(-.01039 .00081 .00081 .01039 92.844 1.74)"/><use xlink:href="#a" transform="matrix(-.00664 .01185 .01185 .00664 88.384 .523)"/><use xlink:href="#a" transform="rotate(92.001 41.737 42.325)scale(.0109 -.0109)"/><use xlink:href="#a" transform="rotate(68.86 40.215 66.61)scale(-.01131 .01131)"/><use xlink:href="#a" transform="rotate(141.556 41.629 15.78)scale(.007 -.007)"/><use xlink:href="#a" transform="rotate(94.057 39.124 42.575)scale(-.01473 .01473)"/><use xlink:href="#a" transform="matrix(-.00514 .00278 .00278 .00514 80.735 2.801)"/><use xlink:href="#a" transform="rotate(140.838 39.35 14.725)scale(.01137 -.01137)"/><use xlink:href="#a" transform="rotate(-146.9 39.998 -9.81)scale(.00608 -.00608)"/><use xlink:href="#a" transform="rotate(-60.44 44.6 -62.244)scale(.01296 -.01296)"/><use xlink:href="#a" transform="rotate(-71.856 36.81 -49.09)scale(-.0147 .0147)"/><use xlink:href="#a" transform="matrix(.0065 .0016 .0016 -.0065 70.482 5.193)"/><use xlink:href="#a" transform="rotate(130.203 34.596 17.612)scale(.0083 -.0083)"/><use xlink:href="#a" transform="rotate(56.22 31.143 69.46)scale(-.01151 .01151)"/><use xlink:href="#a" transform="matrix(.001 .00856 .00856 -.001 65.645 3.408)"/><use xlink:href="#a" transform="rotate(39.156 28.428 98.3)scale(-.013 .013)"/><use xlink:href="#a" transform="rotate(18.28 20.307 204.874)scale(-.00745 .00745)"/><use xlink:href="#a" transform="rotate(132.82 30.566 14.42)scale(.01262 -.01262)"/><use xlink:href="#a" transform="matrix(-.0032 .00525 .00525 .0032 60.154 3.517)"/><use xlink:href="#a" transform="rotate(106.13 27.863 22.985)scale(.01165 -.01165)"/><use xlink:href="#a" transform="rotate(149.873 27.044 11.469)scale(-.01325 .01325)"/><use xlink:href="#a" transform="rotate(138.078 26.01 14.228)scale(-.01056 .01056)"/><use xlink:href="#a" transform="rotate(7.27 4.147 438.563)scale(-.01435 .01435)"/><use xlink:href="#a" transform="rotate(159.467 25.55 6.54)scale(.00636 -.00636)"/><use xlink:href="#a" transform="rotate(59.822 21.035 47.813)scale(-.008 .008)"/><use xlink:href="#a" transform="rotate(132.336 22.87 14.22)scale(-.0076 .0076)"/><use xlink:href="#a" transform="rotate(32.138 11.477 79.178)scale(.01344 -.01344)"/><use xlink:href="#a" transform="rotate(154.448 22.554 6.52)scale(.01232 -.01232)"/><use xlink:href="#a" transform="rotate(-67.91 27.14 -29.04)scale(.0076 -.0076)"/><use xlink:href="#a" transform="rotate(17.146 6.464 146.539)scale(-.00809 .00809)"/><use xlink:href="#a" transform="rotate(124.533 18.09 14.926)scale(-.01343 .01343)"/><use xlink:href="#a" transform="rotate(94.539 16.296 22.393)scale(-.01408 .01408)"/><use xlink:href="#a" transform="rotate(101.5 15.472 18.824)scale(-.00881 .00881)"/><use xlink:href="#a" transform="rotate(114.112 15.568 12.154)scale(.0123 -.0123)"/><use xlink:href="#a" transform="matrix(-.0081 .00772 .00772 .0081 32.163 3.22)"/><use xlink:href="#a" transform="rotate(53.728 10.2 34.99)scale(-.00793 .00793)"/><use xlink:href="#a" transform="rotate(138.229 12.801 9.782)scale(-.01088 .01088)"/><use xlink:href="#a" transform="rotate(23.061 2.888 75.512)scale(-.01311 .01311)"/><use xlink:href="#a" transform="rotate(56.512 7.567 28.031)scale(-.00606 .00606)"/><use xlink:href="#a" transform="rotate(65.936 6.99 19.247)scale(.01043 -.01043)"/><use xlink:href="#a" transform="matrix(-.00463 .0032 .0032 .00463 22.887 4.6)"/><use xlink:href="#a" transform="matrix(.0122 .00375 .00375 -.0122 18.519 7.437)"/><use xlink:href="#a" transform="rotate(87.243 6.258 15.403)scale(-.01371 .01371)"/><use xlink:href="#a" transform="rotate(102.432 6.3 9.18)scale(.00553 -.00553)"/><use xlink:href="#a" transform="rotate(-173.72 8.883 2.299)scale(.00595 -.00595)"/><use xlink:href="#a" transform="rotate(136.87 5.747 7.344)scale(-.0105 .0105)"/><use xlink:href="#a" transform="rotate(178.941 6.205 3.916)scale(-.00683 .00683)"/><use xlink:href="#a" transform="matrix(.0074 .00449 .00449 -.0074 10.321 6.966)"/><use xlink:href="#a" transform="rotate(130.138 3.648 6.72)scale(-.00708 .00708)"/><use xlink:href="#a" transform="matrix(-.00377 -.011 -.011 .00377 11.87 7.68)"/><use xlink:href="#a" transform="rotate(54.463 -2.948 9.805)scale(.00543 -.00543)"/><use xlink:href="#a" transform="matrix(-.0005 .0058 .0058 .0005 6.17 5.618)"/><use xlink:href="#a" transform="matrix(.01018 .0077 .0077 -.01018 2.562 7.095)"/><use xlink:href="#a" transform="rotate(186.415 1.69 3.636)scale(-.00562 .00562)"/><use xlink:href="#a" transform="rotate(61.45 -3.725 8.873)scale(-.01472 .01472)"/><use xlink:href="#a" transform="rotate(-41.017 14.657 .98)scale(.00548 -.00548)"/><use xlink:href="#a" transform="rotate(-132.314 5.538 3.614)scale(.01306 -.01306)"/><use xlink:href="#a" transform="rotate(63.418 -7.034 12.39)scale(-.0136 .0136)"/><use xlink:href="#a" transform="matrix(-.0084 .00292 .00292 .0084 5.734 12.035)"/><use xlink:href="#a" transform="matrix(.00203 .013 .013 -.00203 2.765 13.926)"/><use xlink:href="#a" transform="rotate(-71.013 17.646 5.096)scale(.01166 -.01166)"/><use xlink:href="#a" transform="rotate(-150.894 7.235 8.167)scale(.01416 -.01416)"/><use xlink:href="#a" transform="rotate(-142.619 7.933 9.116)scale(.00706 -.00706)"/><use xlink:href="#a" transform="rotate(154.632 1.757 11.278)scale(.0088 -.0088)"/><use xlink:href="#a" transform="matrix(-.01078 .0092 .0092 .01078 8.217 21.203)"/><use xlink:href="#a" transform="matrix(.0035 .00725 .00725 -.0035 6.788 25.673)"/><use xlink:href="#a" transform="rotate(-77.213 24.513 8.732)scale(.01362 -.01362)"/><use xlink:href="#a" transform="rotate(-50.782 32.766 5.42)scale(-.01118 .01118)"/><use xlink:href="#a" transform="matrix(.00363 .00432 .00432 -.00363 6.26 31.16)"/><use xlink:href="#a" transform="matrix(.007 .00837 .00837 -.007 4.523 32.347)"/><use xlink:href="#a" transform="rotate(74.507 -19.137 20.127)scale(.006 -.006)"/><use xlink:href="#a" transform="rotate(-60.07 36.002 12.997)scale(.01119 -.01119)"/><use xlink:href="#a" transform="rotate(-71.757 29.664 14.86)scale(.00827 -.00827)"/><use xlink:href="#a" transform="rotate(-54.375 42.62 15.271)scale(.0119 -.0119)"/><use xlink:href="#a" transform="matrix(.00565 -.0124 -.0124 -.00565 5.185 43.196)"/><use xlink:href="#a" transform="rotate(121.241 -9.83 20.247)scale(.01442 -.01442)"/><use xlink:href="#a" transform="matrix(-.00547 .0023 .0023 .00547 3.192 42.736)"/><use xlink:href="#a" transform="rotate(148.9 -4.429 22.014)scale(.0092 -.0092)"/><use xlink:href="#a" transform="matrix(-.0004 .00944 .00944 .0004 1.004 45.189)"/><use xlink:href="#a" transform="rotate(-174.611 3.669 23.065)scale(.01435 -.01435)"/><defs><path id="a" fill="#000" d="M215.823 333.963c0-.733.3-1.033.667-.667a.95.95 0 0 1 0 1.334c-.367.366-.667.066-.667-.667M143.424 3.977c4.632-.653 8.099 4.826 5.302 8.382-1.951 2.48-2.551 5.604-1.078 5.604.905.004 11.175 12.34 11.175 13.423 0 1.076-4.344 5.111-6.316 5.868-1.898.728-1.434 2.71.633 2.71.661 0 1.78.924 2.486 2.056 1.284 2.054 1.286 2.054 2.991.057.938-1.1 2.606-2.139 3.706-2.307s2.33-.757 2.734-1.307c.415-.565.741-.238.75.75.018 2.14.447 2.169 3.408.229 1.623-1.063 2.19-2.212 1.884-3.81-1.049-5.489 4.864-5.512 14.402-.058 5.289 3.024 5.527 3.005 7.663-.61 3.023-5.119 9.966-1.694 8.152 4.02-.515 1.623-.183 2.247 1.417 2.666 1.15.3 2.09.945 2.09 1.43.001.485.9.883 2 .883 2.405 0 2.51-.633.446-2.697-1.937-1.936-1.511-6.247.756-7.667 2.444-1.53 3.085-.336 1.976 3.68-.844 3.057-.725 3.569.927 4 1.042.274 1.895 1.215 1.895 2.09.001 2.117 3.922 2.083 5.479-.046 1.634-2.235 4.962-.366 4.996 2.806.022 2.026.585 2.375 4.275 2.641 3.903.283 4.25.113 4.25-2.089q0-2.397 2.547-3.556c5.794-2.64 9.087-.056 7.912 6.206-.627 3.341-.627 3.341 7.125 4.043 13.323 1.209 21.701 9.211 10.916 10.427-1.65.187-3.533.779-4.183 1.316-.772.639-2.504.61-5-.082-4.664-1.295-5.317-1.318-5.317-.18 0 .89 3.547 2.107 7.692 2.639 3.814.489 4.527 1.472 3.864 5.335-1.584 9.224-1.538 9.134-4.694 9.134-1.732 0-2.721-.419-2.362-1 .34-.55.194-1-.324-1-.519 0-1.178-.9-1.466-2-.316-1.208-1.364-2-2.648-2-1.169 0-2.425-.787-2.793-1.75-.688-1.803-.846-2.03-4.339-6.25-2.069-2.5-2.069-2.5-1.491.21.443 2.079.097 2.968-1.49 3.817-3.053 1.634-2.358 6.6.861 6.15 1.27-.178 2.952.21 3.737.862.841.698 2.53.908 4.115.51 2.465-.619 2.57-.53 1.263 1.08-.904 1.113-.968 1.48-.175 1.004 1.207-.725 1.687.683 1.482 4.336-.045.808 1.226 3.249 2.826 5.425 2.411 3.278 2.808 4.595 2.313 7.686-.499 3.124-.251 3.915 1.528 4.868 1.738.93 1.934 1.496 1.067 3.115-.582 1.088-.743 2.489-.358 3.114 1.359 2.199-6.627-.001-11.342-3.124-8.698-5.762-10.731-2.813-8.924 12.947.221 1.925-.023 4.035-.543 4.69-2.291 2.887-.482 6.804 3.201 6.932 1.925.067 3.95.231 4.5.365s1.77.166 2.711.072c2.294-.23 5.828 1.736 5.529 3.076-.429 1.92 7.577 1.339 13.716-.996 3.275-1.246 6.763-2.054 7.75-1.795 1.097.287 1.794-.077 1.794-.937 0-.773-.9-1.407-2-1.407-2.468 0-2.532-1.121-.227-3.967 1.774-2.19 1.774-2.191 3.655-.112 3.099 3.423 8.159.85 5.79-2.944-.993-1.589-.581-2.041 3.321-3.645 2.449-1.007 4.455-2.169 4.457-2.582s.443-.75.979-.75c1.288 0 .183 5.855-1.664 8.817-1.092 1.751-1.167 2.651-.309 3.686 1.283 1.545-.226 5.368-2.692 6.822-.804.474-1.149 1.608-.812 2.669.406 1.279-.025 2.039-1.405 2.477-1.193.378-1.772 1.202-1.445 2.054.599 1.563-1.168 3.716-3.898 4.75-.962.364-1.75 1.619-1.75 2.789 0 2.226-3.33 7.595-5.963 9.615-1.366 1.047-1.342 1.254.215 1.857 1.184.459 2.39-.086 3.717-1.678 2.104-2.526 2.666-1.913 1.038 1.131-.844 1.574-.541 1.954 2 2.512 3.869.85 4.064 4.832.493 10.094-3.324 4.898-3.182 6.036 1.488 11.905 2.188 2.75 5.447 7.129 7.244 9.732 2.93 4.244 6.768 6.38 6.768 3.768 0-.55 1.035-1 2.3-1s2.746-.446 3.29-.99c.62-.62 2.15-.657 4.088-.101 2.392.686 3.469.516 4.728-.744 4.803-4.802 6.925 3.04 2.546 9.405-3.724 5.412-1.48 4.855 3.795-.941 1.786-1.963 3.851-3.336 4.59-3.052.738.282 1.92-.181 2.625-1.031 1.934-2.33 4.935-1.866 6.224.963 1.583 3.475-.177 6.436-7.813 13.14-6.161 5.409-6.161 5.409-3.267 8.303q6.73 6.731-2.936 8.665c-2.37.473-3.292.23-3.762-.995-.888-2.314-2.696-2.009-5.448.92-2.037 2.169-2.206 2.834-1.151 4.523 1.864 2.986.028 5.71-3.506 5.2-4.597-.663-9.708 5.273-8.219 9.547.611 1.753 1.63 3.202 2.264 3.219s.361.49-.606 1.054c-.967.563-2.166.771-2.665.463-.498-.308-1.136-.096-1.417.471-.28.567-.375.457-.21-.244a1.32 1.32 0 0 1 1.594-.969c1.051.249 1.054.018.019-1.229-.82-.989-2.396-1.39-4.419-1.124a92 92 0 0 1-6.144.558c-1.65.081-2.437.374-1.75.651.688.279 1.25 1.087 1.25 1.799s.675 1.854 1.5 2.539c5.107 4.238-.167 9.564-11.856 11.977-5.805 1.198-5.851 1.236-5.25 4.241.333 1.668.606 4.11.606 5.428 0 1.565.84 2.78 2.421 3.5 1.427.65 2.204 1.669 1.892 2.481-1.315 3.427.629 6.545 3.665 5.878 3.965-.871 7.62 1.069 5.906 3.134-.684.825-2.082 1.281-3.105 1.013-1.464-.382-1.732-.077-1.254 1.431.545 1.717.081 1.917-4.459 1.917-5.146 0-6.794-1.89-2.64-3.028 2.787-.763 3.151-3.008.595-3.677-1.452-.379-1.789-.821-.999-1.309 1.624-1.003.253-6.985-1.601-6.986-.782 0-1.421-.392-1.421-.872s-1.851-1.168-4.114-1.53c-2.276-.364-4.845-1.556-5.75-2.669-1.563-1.921-1.645-1.764-1.848 3.531-.199 5.212-.072 5.54 2.143 5.54 5.607 0 3.707 7.564-2.136 8.502-2.087.335-5.28 1.263-7.096 2.062-2.486 1.094-3.803 1.183-5.335.363-2.367-1.266-3.36-.663-2.519 1.53.326.849 1.676 1.543 3.001 1.543 3.904 0 5.075 2.286 3.115 6.077-1.665 3.218-1.666 3.218-13.063 2.607s-11.398-.611-11.398 2.418c0 8.621-10.579 8.949-12.836.398-1.025-3.886-7.44-4.574-7.971-.856-.417 2.928-5.229 3.934-5.933 1.241-.544-2.077-1.366-2.361-2.81-.97-.522.504-2.075 1.066-3.45 1.25-1.71.229-2.602 1.053-2.823 2.609-.261 1.844-.83 2.2-3 1.878-1.472-.218-2.582-.851-2.467-1.405.116-.555-.672-1.807-1.75-2.783-1.881-1.703-1.962-1.698-2.002.131-.024 1.048-1.416 3.03-3.095 4.405a541 541 0 0 0-5.708 4.749c-4.916 4.164-8.422 2.715-9.677-3.999-.385-2.061-.881-3.749-1.102-3.75s-3.649.9-7.619 2c-14.524 4.025-29-2.533-15.77-7.145 1.657-.578 3.013-1.445 3.013-1.928s-1.155-.438-2.566.098c-2.123.807-3.159.524-6-1.643-3.139-2.394-4.983-5.457-2.279-3.787.716.443.883.275.439-.443-1.049-1.697-4.913.576-4.188 2.464.811 2.113-2.281 2.937-3.707.987-1.831-2.504-6.976.008-6.236 3.044 1.341 5.502-5.446 8.159-7.44 2.914-.95-2.498-5.437-1.816-9.523 1.446-1.865 1.489-6.803 1.559-7.292.104-.259-.768-.013-1.108.549-.761.56.346.996.071.973-.61-.161-4.454.444-5.606 3.52-6.697 3.668-1.3 2.102-3.54-3.25-4.647-1.375-.284-3.306-.954-4.29-1.489-.986-.536-2.157-.749-2.603-.473-.448.276-1.667-.136-2.71-.916-1.793-1.341-1.767-1.385.487-.816 1.773.448 2.26.242 1.896-.8-.268-.771-1.228-1.27-2.134-1.108s-1.646-.113-1.646-.61c0-1.368-6.697-8.183-8.04-8.184-1.264 0-.447 5.053.968 5.991 1.274.844.882 7.15-.413 6.653-.657-.252-1.123.469-1.084 1.676.084 2.591-2.923 3.446-3.828 1.089-.357-.929.047-2.752.897-4.05 1.424-2.172 1.405-2.362-.227-2.394-.976-.02-2.897-.658-4.27-1.418-1.696-.939-2.884-1.061-3.702-.382-1.603 1.33-5.582.011-4.95-1.641.545-1.42-1.94-5.524-3.343-5.524-1.258 0-10.008-8.116-10.008-9.282 0-.581 1.664-.708 4.125-.314 3.832.613 4.086.511 3.58-1.429-.45-1.717-.294-1.879.874-.91 2.272 1.886 1.639-.557-.69-2.659-1.16-1.048-2.975-3.744-4.033-5.992-1.69-3.592-9.922-9.936-15.158-11.681-3.332-1.111 3.063-11.87 6.517-10.966 1.767.462 1.998.235 1.38-1.356-1.235-3.177-1.163-3.926.35-3.596 2.291.498 6.055-1.977 6.055-3.984 0-1.079.72-1.831 1.755-1.831 2.437 0 4.522-6.525 2.596-8.124-.743-.616-1.35-1.939-1.35-2.939-.001-1.001-.451-2.097-1-2.437-.55-.34-1-1.518-1-2.618s-.404-1.752-.895-1.448c-.49.303-1.843-1.357-3.005-3.691s-2.66-5.143-3.328-6.243-2.239-3.678-3.493-5.729c-2.852-4.664-2.888-7.741-.126-10.706 1.922-2.063 1.98-2.41.542-3.215-.887-.497-1.358-1.568-1.045-2.382.387-1.012-.573-1.955-3.043-2.987-1.984-.829-3.645-2.064-3.69-2.744-.242-3.637-1.198-7.557-2.465-10.115-.785-1.582-1.159-3.945-.832-5.25.405-1.611.16-2.392-.764-2.435-.746-.035-.333-.475.918-.977 2.606-1.047 2.206-5.5-.687-7.629-4.752-3.496-5.041-3.891-4.456-6.081.33-1.238 1.379-2.25 2.33-2.25.95 0 2.543-.9 3.538-2s2.231-2 2.745-2 1.779-1.012 2.81-2.25c1.615-1.934 1.883-2.003 1.912-.49.018.968-.867 2.53-1.967 3.472-2.538 2.173-2.518 2.899.1 3.584 1.157.303 1.805 1.029 1.442 1.617-.363.587-.445 1.067-.183 1.067.263 0 1.25.298 2.196.66 1.212.464 1.572.243 1.224-.75-.57-1.629 2.992-7.17 4.15-6.454.427.264 1.613-.132 2.636-.879 2.017-1.475.615-4.576-2.069-4.577-1.332 0-4.101-8.453-3.604-11 .162-.825.239-3.222.17-5.326-.108-3.399.22-3.954 2.949-4.984 2.134-.806 3.024-1.774 2.919-3.175-.26-3.456.036-4.654 1-4.058a1.09 1.09 0 0 0 1.502-.347c.313-.507 1.402-.705 2.42-.438 2.56.669 5.59-2.434 4.113-4.214-.807-.972-.795-1.907.043-3.472.63-1.178.9-2.782.6-3.564-.38-.993.2-1.422 1.923-1.422 1.358 0 2.469-.45 2.47-1 0-.55-.437-1-.97-1s-.71-.675-.393-1.5c.33-.861.02-1.5-.73-1.5-1.018 0-1.041-.267-.108-1.2.66-.66 1.2-1.948 1.2-2.862 0-1.277 1.32-1.818 5.684-2.331 3.126-.367 6.276-1.159 7-1.76 1.767-1.466 1.673-3.846-.153-3.847-.894 0-1.243.586-.893 1.5.363.945-.011 1.5-1.011 1.5-1.986 0-1.574-5.786.506-7.103 3.478-2.204-2.762-.68-7.275 1.776-3.573 1.945-5.211 2.374-6.012 1.573-.743-.743-1.913-.79-3.605-.148-4.224 1.606-6.24.29-6.24-4.07 0-4.477 3.34-6.913 15.25-11.124 7.366-2.604 7.512-2.802 5.108-6.871-1.99-3.368-1.188-7.635 1.6-8.52 2.676-.849 9.035.449 9.056 1.848.042 3.128 1.618 3.829 5.793 2.579 4.398-1.318 5.909-3.37 4.09-5.56-.88-1.063-.605-1.805 1.234-3.325 2.036-1.682 2.524-1.753 3.477-.506 1.928 2.52 17.01-1.493 15.954-4.243-.865-2.257 4.422-5.084 5.593-2.991 1.402 2.505 4.122 2.048 7.252-1.219 2.783-2.905 2.783-2.905.625-5.062-3.774-3.774-.756-10.609 4.56-10.326 5.589.297 6.264.495 5.822 1.71-.217.595-.005 1.692.47 2.437 1.046 1.642 5.668-.946 6.598-3.694.309-.914 3.365-3.792 6.79-6.397 3.42-2.6 6.265-4.737 6.328-4.75m65.339 318.986c.582 0 1.06.45 1.06 1s-.198 1-.441 1-.719-.45-1.059-1-.141-.999.44-1m-91.94-7.618c0-.825.45-1.222 1-.882s1 1.294 1 2.119c0 .824-.45 1.221-1 .881s-1-1.293-1-2.118m85.5-1.382c.275 0 .5.225.5.5s-.225.5-.5.5a.5.5 0 0 1-.5-.5c0-.275.225-.5.5-.5m-127.56-8c.582 0 1.06.45 1.06 1s-.198 1-.441 1-.72-.45-1.059-1c-.34-.55-.141-.999.44-1m-2.94-1c.55 0 1 .45 1 1s-.45 1-1 1-1-.45-1-1 .45-1 1-1m60 1.107c0-1.644-2.785-1.984-4.653-.57-1.705 1.292-1.597 1.402 1.403 1.431 1.787.018 3.25-.37 3.25-.861m-45-2.107c.733 0 1.033.3.667.667a.95.95 0 0 1-1.334 0c-.366-.367-.066-.667.667-.667m-9.583.079c1.054-.043 1.644.193 1.312.525s-1.195.368-1.916.079c-.798-.319-.56-.556.604-.604m1.583-3.079c.55 0 1 .45 1 1s-.45 1-1 1-1-.45-1-1 .45-1 1-1m-8.5-1c.825 0 1.5.661 1.5 1.469 0 .894-.586 1.243-1.5.893-.825-.317-1.5-.978-1.5-1.469s.675-.893 1.5-.893m-.5-8c.55 0 1 .198 1 .441s-.45.719-1 1.059-1 .141-1-.441.45-1.059 1-1.059m200.5-6c.825 0 1.5.17 1.5.378 0 .207-.675.938-1.5 1.622-1.229 1.02-1.5.951-1.5-.378 0-.892.675-1.622 1.5-1.622m5-1c.275 0 .5.225.5.5s-.225.5-.5.5a.5.5 0 0 1-.5-.5c0-.275.225-.5.5-.5m-1.808-3.641c.54-1.409.707-1.398 1.549.107 1.058 1.89.425 3.064-1.132 2.102-.561-.349-.749-1.342-.417-2.209m-3.534-.359c0-1.375.227-1.937.504-1.25.278.688.278 1.813 0 2.5-.277.688-.504.125-.504-1.25m2.342-1c.275 0 .5.225.5.5s-.225.5-.5.5a.5.5 0 0 1-.5-.5c0-.275.225-.5.5-.5m-5.844-1.455q-.555-1.444.895-.886c1.68.645 1.794 1.01.554 1.776-.493.305-1.145-.096-1.449-.89m6.844-.545c.275 0 .5.225.5.5s-.225.5-.5.5a.5.5 0 0 1-.5-.5c0-.275.225-.5.5-.5m39.5-3c0-.733.3-1.033.667-.667a.95.95 0 0 1 0 1.334c-.367.366-.667.066-.667-.667m-6-10.441c0-1.757.6-2.015 1.457-.628.317.512.118 1.214-.441 1.56-.559.344-1.016-.075-1.016-.932M39.241 257.57c-2.373-.911-2.69-.758-2.025.975.334.87.607 1.77.607 2s.675.418 1.5.418c1.99 0 1.928-2.622-.082-3.393m255.48-5.607c1.658 0 8.149 6.113 7.54 7.101-1.492 2.413-6.742-.804-7.918-4.851-.379-1.302-.22-2.249.378-2.25m-20.398 4c-.275 0-.5.225-.5.5s.225.5.5.5.5-.225.5-.5-.225-.5-.5-.5m-6-3c-.275 0-.5.225-.5.5s.225.5.5.5.5-.225.5-.5-.225-.5-.5-.5m-1.677-3.667c-.389-2.009-2.386-2.848-3.29-1.385-.88 1.423.242 3.052 2.099 3.052.876 0 1.378-.703 1.191-1.667m2.677.667c-.275 0-.5.225-.5.5s.225.5.5.5.5-.225.5-.5-.225-.5-.5-.5m-245-17c.275 0 .5.225.5.5s-.225.5-.5.5a.5.5 0 0 1-.5-.5c0-.275.225-.5.5-.5m2 0c.275 0 .5.225.5.5s-.225.5-.5.5a.5.5 0 0 1-.5-.5c0-.275.225-.5.5-.5m4-50c-.275 0-.5.225-.5.5s.225.5.5.5.5-.225.5-.5-.225-.5-.5-.5m-4.5 0c.733 0 1.033.3.667.667a.95.95 0 0 1-1.334 0c-.366-.367-.066-.667.667-.667m-1.281-14.918c.165-2.193-1.234-3.676-2.118-2.246-.295.478.026 1.64.713 2.579 1.154 1.578 1.263 1.552 1.405-.333m1.781-2.082c-.275 0-.5.225-.5.5s.225.5.5.5.5-.225.5-.5-.225-.5-.5-.5m251.7-11.799c3.351-3.351 7.363-.019 6.367 5.289-.771 4.111-2.856 4.579-5.624 1.26-2.183-2.616-2.436-4.856-.743-6.549m-277.2 2.799c.733 0 1.033.3.667.667a.95.95 0 0 1-1.334 0c-.366-.367-.066-.667.667-.667m286.094-9c.498 0 .906.9.906 2s-.173 1.999-.383 2-.619-.9-.907-2c-.287-1.1-.115-2 .384-2m-1.594-2c.275 0 .5.225.5.5s-.225.5-.5.5a.5.5 0 0 1-.5-.5c0-.275.225-.5.5-.5m7.882-3c.275 0 .778.45 1.118 1s.393 1 .118 1-.778-.45-1.118-1-.393-1-.118-1M18.68 133.08c.195-.064.119.503-.172 1.261s0 1.909.643 2.557c.9.904.602.968-1.277.276-3.058-1.127-3.74-2.892-1.356-3.51.992-.257 1.965-.52 2.162-.584m8.81-1.45c1.116-1.117 2-.749 2 .833 0 .825-.6 1.5-1.334 1.5-1.419 0-1.77-1.229-.666-2.333m266.273.333c.582 0 1.06.45 1.06 1s-.198 1-.441 1-.719-.45-1.059-1-.141-.999.44-1m2.56 1c.275 0 .5.225.5.5s-.225.5-.5.5a.5.5 0 0 1-.5-.5c0-.275.225-.5.5-.5m-275.5-4c.55 0 1 .675 1 1.5s-.45 1.5-1 1.5-1-.675-1-1.5.45-1.5 1-1.5m282 .128c3.258-1.305 5-1.362 5-.163 0 1.749-3.891 3.196-5.763 2.142-1.557-.876-1.478-1.081.763-1.979m-288.434-3.23c3.127-1.225 4.078-.943 2.037.602-1.044.79-2.364 1.148-2.934.795-.598-.369-.218-.96.896-1.397m276.493-.898c.518 0 .941.45.941 1s-.703 1-1.56 1c-.856 0-1.28-.45-.94-1s1.041-1 1.559-1m-37.559-20c-.275 0-.5.225-.5.5s.225.5.5.5.5-.225.5-.5-.225-.5-.5-.5m-215-3c.275 0 .5.225.5.5s-.225.5-.5.5a.5.5 0 0 1-.5-.5c0-.275.225-.5.5-.5m5-1c.275 0 .5.225.5.5s-.225.5-.5.5a.5.5 0 0 1-.5-.5c0-.275.225-.5.5-.5m-11.25-5.017c1.787-1.093 3.85-1.76 4.582-1.485.732.276 2.082.538 3 .581.999.047 1.176.279.442.576-.673.272-1.452.35-1.73.17-.278-.178-1.215.687-2.081 1.925-1.028 1.467-2.602 2.25-4.52 2.25-3.852 0-3.733-1.546.307-4.017m228.25 3.017c.275 0 .5.225.5.5s-.225.5-.5.5a.5.5 0 0 1-.5-.5c0-.275.225-.5.5-.5m-218-1c.275 0 .5.225.5.5s-.225.5-.5.5a.5.5 0 0 1-.5-.5c0-.275.225-.5.5-.5m12.32-8.171c-.347-2.352-2.271-3.527-3.232-1.972-.907 1.468.44 4.143 2.089 4.143.932 0 1.346-.787 1.143-2.171m184.68-14.829c.275 0 .5.225.5.5s-.225.5-.5.5a.5.5 0 0 1-.5-.5c0-.275.225-.5.5-.5m34.5-2.004c0-.513.675-.721 1.5-.464.825.258 2.25.709 3.167 1.001 1.174.376 1.353.846.607 1.592-1.18 1.18-5.273-.473-5.274-2.129M69.807 71.213c.022-1.797-1.658-1.54-2.39.364-.392 1.023-1.345 1.423-2.606 1.093-1.092-.285-1.987-.16-1.988.278s1.195 1.099 2.655 1.466c2.667.668 4.296-.536 4.33-3.2m174.575-2.25c-.243 0-.719.45-1.059 1s-.141 1 .44 1c.582 0 1.06-.45 1.06-1s-.198-1-.441-1m-3.059-1c-.275 0-.5.225-.5.5s.225.5.5.5.5-.225.5-.5-.225-.5-.5-.5m-97.083-21.92c-1.165.047-1.402.284-.604.603.721.289 1.584.253 1.916-.08.332-.331-.258-.567-1.312-.524m37.583-2.08c-.733 0-1.033.3-.667.667a.95.95 0 0 0 1.334 0c.366-.367.066-.667-.667-.667m-34.478-9.63c-1.136-.435-1.813.026-2.198 1.5-.307 1.172-1.18 2.13-1.941 2.13-.76 0-1.383.45-1.383 1 0 1.52 2.594 1.195 4-.5.685-.825 2.288-1.5 3.563-1.5s2.597-.45 2.937-1-.272-1-1.359-1c-1.088 0-2.717-.283-3.619-.63m-8.398 2.363c-.988-.98-1.102-.865-.56.56.376.986.935 1.54 1.243 1.233s.001-1.114-.683-1.793m21.376-6.733c.275 0 .5.225.5.5s-.225.5-.5.5a.5.5 0 0 1-.5-.5c0-.275.225-.5.5-.5m45.5-1c.733 0 1.033.3.667.667a.95.95 0 0 1-1.334 0c-.366-.367-.066-.667.667-.667m5-4c.55 0 1 .198 1 .44 0 .244-.45.72-1 1.06s-1 .14-1-.441c0-.582.45-1.059 1-1.059m-34.5 0c.275 0 .5.225.5.5s-.225.5-.5.5a.5.5 0 0 1-.5-.5c0-.275.225-.5.5-.5m-3.5-6c.733 0 1.033.3.667.667a.95.95 0 0 1-1.334 0c-.366-.367-.066-.667.667-.667m1-3c0-.733.3-1.033.667-.667a.95.95 0 0 1 0 1.334c-.367.366-.667.066-.667-.667m35-2c.733 0 1.033.3.667.667a.95.95 0 0 1-1.334 0c-.366-.367-.066-.667.667-.667m-31.5-1c.275 0 .5.225.5.5s-.225.5-.5.5a.5.5 0 0 1-.5-.5c0-.275.225-.5.5-.5m-11-2c.275 0 .5.225.5.5s-.225.5-.5.5a.5.5 0 0 1-.5-.5c0-.275.225-.5.5-.5m9.5 0c0-.733.3-1.033.667-.667a.95.95 0 0 1 0 1.334c-.367.366-.667.066-.667-.667m-4.5-1c.275 0 .5.225.5.5s-.225.5-.5.5a.5.5 0 0 1-.5-.5c0-.275.225-.5.5-.5m-38.941-3c.243 0 .441.45.441 1s-.478 1-1.06 1c-.581 0-.78-.45-.44-1s.816-1 1.059-1m-9.559 1c.733 0 1.033.3.667.667a.95.95 0 0 1-1.334 0c-.366-.367-.066-.667.667-.667m44.381-5.652c2.929-2.519 5.619-3.082 5.619-1.177 0 1.726-3.081 4.829-4.795 4.83-.816 0-2.026.74-2.688 1.645-1.062 1.452-1.184 1.375-1.035-.65.093-1.265 1.398-3.356 2.899-4.648" data-figma-scatter="f0.51_w0.06_aj180_sj0.65_r0_s17656661811333049531_sw3" data-figma-scatter-ref="stroke0_186_6009_ref"/></defs></svg>