<svg xmlns="http://www.w3.org/2000/svg" xmlns:xlink="http://www.w3.org/1999/xlink" width="354" height="99" fill="none" viewBox="0 0 354 99"><path fill="#e0cea5" d="M58.788 1.863 2.17 29.98l6.41 65.603 50.207-14.058 59.821 14.058 144.213-14.058 88.664 14.058-8.546-26.944c-6.837-14.995 2.849-39.83 8.546-50.374l-68.368-16.4c-15.382 5.622-44.154 13.276-56.616 16.4h-84.391z"/><use xlink:href="#a" transform="rotate(102.452 -9.107 16.086)scale(.01241)"/><use xlink:href="#a" transform="rotate(-68.031 22.9 14.276)scale(.0139)"/><use xlink:href="#a" transform="rotate(-34.45 46.898 7.677)scale(.00864)"/><use xlink:href="#a" transform="rotate(94.58 -8.157 17.033)scale(.00683)"/><use xlink:href="#a" transform="rotate(138.167 -.497 15.336)scale(.0063)"/><use xlink:href="#a" transform="rotate(81.92 -9.92 18.373)scale(.00572)"/><use xlink:href="#a" transform="rotate(3.118 -431.462 163.448)scale(.01292)"/><use xlink:href="#a" transform="rotate(-35.913 43.575 -3.289)scale(.006)"/><use xlink:href="#a" transform="rotate(202.27 9.09 11.758)scale(.00606)"/><use xlink:href="#a" transform="rotate(-67.273 24.834 3.627)scale(.00817)"/><use xlink:href="#a" transform="rotate(118.437 2.049 16.598)scale(.01158)"/><use xlink:href="#a" transform="rotate(215.119 12.879 10.186)scale(.01461)"/><use xlink:href="#a" transform="rotate(-89.392 20.303 3.301)scale(.01333)"/><use xlink:href="#a" transform="rotate(28.596 -24.777 48.676)scale(.01266)"/><use xlink:href="#a" transform="rotate(-57.236 28.43 -7.93)scale(.01476)"/><use xlink:href="#a" transform="rotate(36.502 -13.96 45.695)scale(.00638)"/><use xlink:href="#a" transform="rotate(32.1 -13.061 51.579)scale(.0135)"/><use xlink:href="#a" transform="rotate(143.491 12.616 13.971)scale(.01259)"/><use xlink:href="#a" transform="rotate(-43.991 33.98 -26.434)scale(.00673)"/><use xlink:href="#a" transform="rotate(-77.009 25.049 -9.42)scale(.01153)"/><use xlink:href="#a" transform="rotate(124.156 14.08 16.541)scale(.01297)"/><use xlink:href="#a" transform="rotate(-23.18 47.477 -71.646)scale(.01225)"/><use xlink:href="#a" transform="rotate(253.57 22.918 -6.073)scale(.0056)"/><use xlink:href="#a" transform="rotate(96.49 15.31 23.03)scale(.01387)"/><use xlink:href="#a" transform="rotate(212.97 21.97 1.165)scale(.01128)"/><use xlink:href="#a" transform="rotate(46.937 10.77 51.33)scale(.00981)"/><use xlink:href="#a" transform="rotate(-63.813 28.763 -26.606)scale(.01148)"/><use xlink:href="#a" transform="rotate(38.411 13.174 66.11)scale(.01268)"/><use xlink:href="#a" transform="rotate(69.72 17.873 36.726)scale(.00548)"/><use xlink:href="#a" transform="rotate(-93.65 27.104 -16.767)scale(.00623)"/><use xlink:href="#a" transform="matrix(.012 -.0031 .0031 .012 45.333 5.704)"/><use xlink:href="#a" transform="rotate(-35.456 32.8 -70.572)scale(.01126)"/><use xlink:href="#a" transform="rotate(-68.362 29.532 -33.339)scale(.00611)"/><use xlink:href="#a" transform="rotate(186.846 26.48 1.602)scale(.0057)"/><use xlink:href="#a" transform="rotate(142.417 26.247 11.743)scale(.0066)"/><use xlink:href="#a" transform="rotate(188.605 27.692 .929)scale(.00783)"/><use xlink:href="#a" transform="rotate(-45.155 30.547 -61.54)scale(.01048)"/><use xlink:href="#a" transform="rotate(96.402 28.008 26.925)scale(.0073)"/><use xlink:href="#a" transform="rotate(213.656 29.769 -6.493)scale(.00918)"/><use xlink:href="#a" transform="rotate(241.526 30.117 -15.905)scale(.00574)"/><use xlink:href="#a" transform="rotate(-17.637 33.476 -188.34)scale(.00547)"/><use xlink:href="#a" transform="rotate(-85.797 31.58 -30.276)scale(.00724)"/><use xlink:href="#a" transform="rotate(-46.68 32.662 -67.234)scale(.01446)"/><use xlink:href="#a" transform="rotate(252.691 33.395 -21.141)scale(.00734)"/><use xlink:href="#a" transform="rotate(50.106 33.135 71.061)scale(.01405 .01406)"/><use xlink:href="#a" transform="rotate(209.269 35.465 -5.593)scale(.01353)"/><use xlink:href="#a" transform="rotate(75.608 33.269 46.992)scale(.00545)"/><use xlink:href="#a" transform="rotate(30.663 33.131 129.55)scale(.01333)"/><use xlink:href="#a" transform="rotate(36.182 32.068 112.992)scale(.00783)"/><use xlink:href="#a" transform="rotate(221.842 39.165 -10.212)scale(.01461)"/><use xlink:href="#a" transform="rotate(182.641 39.568 2.88)scale(.0118)"/><use xlink:href="#a" transform="rotate(98.916 38.9 36.92)scale(.01212)"/><use xlink:href="#a" transform="rotate(88.426 39.52 44.821)scale(.0129)"/><use xlink:href="#a" transform="rotate(240.535 43.874 -19.459)scale(.01162)"/><use xlink:href="#a" transform="rotate(63.618 40.03 71.553)scale(.0141)"/><use xlink:href="#a" transform="rotate(-56.595 49.829 -75.479)scale(.0067)"/><use xlink:href="#a" transform="rotate(-4.658 111.49 -1056.356)scale(.01412)"/><use xlink:href="#a" transform="rotate(148.043 44.625 17.282)scale(.00592)"/><use xlink:href="#a" transform="rotate(87.306 42.296 51.866)scale(.00552)"/><use xlink:href="#a" transform="rotate(-91.507 50.492 -38.803)scale(.01322)"/><use xlink:href="#a" transform="rotate(74.08 44.211 67.028)scale(.01366)"/><use xlink:href="#a" transform="rotate(-2.13 259.217 -2554.778)scale(.00998)"/><use xlink:href="#a" transform="rotate(236.075 52.04 -20.31)scale(.0079)"/><use xlink:href="#a" transform="rotate(224.47 52.313 -14.408)scale(.00914)"/><use xlink:href="#a" transform="rotate(207.557 52.853 -5.983)scale(.01333)"/><use xlink:href="#a" transform="rotate(213.829 53.979 -9.242)scale(.01063)"/><use xlink:href="#a" transform="rotate(185.494 53.519 3.796)scale(.00901)"/><use xlink:href="#a" transform="rotate(40.096 40.837 150.43)scale(.01002)"/><use xlink:href="#a" transform="rotate(-5.004 175.956 -1217.402)scale(.00643)"/><use xlink:href="#a" transform="rotate(6.153 -36.77 1007.658)scale(.01183)"/><use xlink:href="#a" transform="rotate(-98.901 61.106 -39.684)scale(.01186)"/><use xlink:href="#a" transform="rotate(112.089 54.49 45.074)scale(.01464)"/><use xlink:href="#a" transform="rotate(-71.852 66.389 -71.91)scale(.00601)"/><use xlink:href="#a" transform="rotate(-24.457 86.196 -258.759)scale(.00701)"/><use xlink:href="#a" transform="rotate(36.051 40.052 186.132)scale(.00547)"/><use xlink:href="#a" transform="rotate(-39.527 77.113 -156.042)scale(.00592)"/><use xlink:href="#a" transform="rotate(164.572 59.906 15.778)scale(.01072)"/><use xlink:href="#a" transform="rotate(23.183 28.993 300.275)scale(.00553)"/><use xlink:href="#a" transform="rotate(75.004 52.653 86.495)scale(.0057)"/><use xlink:href="#a" transform="rotate(129.792 59.65 36.675)scale(.01148)"/><use xlink:href="#a" transform="rotate(44.232 46.595 160.186)scale(.00843)"/><use xlink:href="#a" transform="rotate(19.989 24.012 363.03)scale(.0068)"/><use xlink:href="#a" transform="rotate(128.809 60.639 38.396)scale(.00577)"/><use xlink:href="#a" transform="rotate(-94.49 71.518 -50.018)scale(.00946)"/><use xlink:href="#a" transform="rotate(216.285 67.792 -12.748)scale(.00621)"/><use xlink:href="#a" transform="rotate(111.645 60.638 52.616)scale(.00567)"/><use xlink:href="#a" transform="rotate(.155 -5605.097 48369.914)scale(.00612)"/><use xlink:href="#a" transform="rotate(253.816 72.658 -40.654)scale(.0068)"/><use xlink:href="#a" transform="rotate(248.688 73.219 -35.727)scale(.01353)"/><use xlink:href="#a" transform="rotate(-51.618 84.739 -129.454)scale(.01274)"/><use xlink:href="#a" transform="rotate(39.547 47.546 199.829)scale(.00812)"/><use xlink:href="#a" transform="rotate(119.272 65.176 49.948)scale(.00563)"/><use xlink:href="#a" transform="rotate(1.495 -563.942 5342.291)scale(.00845)"/><use xlink:href="#a" transform="rotate(94.438 63.36 74.749)scale(.00611)"/><use xlink:href="#a" transform="rotate(-96.168 79.732 -53.637)scale(.0089)"/><use xlink:href="#a" transform="rotate(215.089 76.146 -12.162)scale(.01452)"/><use xlink:href="#a" transform="rotate(177.275 73.56 11.27)scale(.00574)"/><use xlink:href="#a" transform="rotate(161.747 73.354 21.759)scale(.00951)"/><use xlink:href="#a" transform="rotate(87.206 67.216 87.621)scale(.01157)"/><use xlink:href="#a" transform="rotate(-38.961 100.178 -202.064)scale(.00831)"/><use xlink:href="#a" transform="rotate(64.897 65.127 128.943)scale(.01388)"/><use xlink:href="#a" transform="rotate(200.148 79.66 -3.882)scale(.00842)"/><use xlink:href="#a" transform="rotate(8.053 -38.35 1109.856)scale(.01034)"/><use xlink:href="#a" transform="rotate(191.688 81.098 2.21)scale(.01275)"/><use xlink:href="#a" transform="rotate(-3.231 389.641 -2809.801)scale(.00597)"/><use xlink:href="#a" transform="rotate(196.437 82.431 -1.802)scale(.00773)"/><use xlink:href="#a" transform="rotate(50.409 65.706 180.981)scale(.0138)"/><use xlink:href="#a" transform="rotate(205.361 85.24 -8.297)scale(.01078)"/><use xlink:href="#a" transform="rotate(153.676 82.395 29.424)scale(.01118)"/><use xlink:href="#a" transform="rotate(116.121 79.348 61.864)scale(.00677)"/><use xlink:href="#a" transform="rotate(-49.262 103.635 -173.087)scale(.01157)"/><use xlink:href="#a" transform="rotate(157.422 84.44 26.596)scale(.00605)"/><use xlink:href="#a" transform="rotate(142.945 84.565 38.641)scale(.01118)"/><use xlink:href="#a" transform="rotate(-3.777 347.258 -2614.78)scale(.00774)"/><use xlink:href="#a" transform="rotate(150.022 86.12 33.017)scale(.00727)"/><use xlink:href="#a" transform="rotate(-45.272 109.424 -201.013)scale(.00635)"/><use xlink:href="#a" transform="rotate(1.416 -558.233 7139.272)scale(.01292)"/><use xlink:href="#a" transform="rotate(85.82 81.076 105.865)scale(.00569)"/><use xlink:href="#a" transform="rotate(7.071 -42.207 1462.742)scale(.01013)"/><use xlink:href="#a" transform="rotate(227.467 95.809 -29.953)scale(.00882)"/><use xlink:href="#a" transform="rotate(61.886 79.974 162.384)scale(.0131)"/><use xlink:href="#a" transform="rotate(216.012 96.427 -20.365)scale(.00617)"/><use xlink:href="#a" transform="rotate(172.646 93.871 15.762)scale(.00856)"/><use xlink:href="#a" transform="rotate(28.769 61.573 375.443)scale(.00767)"/><use xlink:href="#a" transform="rotate(189.179 96.673 2.517)scale(.01055)"/><use xlink:href="#a" transform="rotate(142.151 93.414 42.247)scale(.00614)"/><use xlink:href="#a" transform="rotate(168.164 95.994 19.54)scale(.00637)"/><use xlink:href="#a" transform="rotate(140.124 94.179 44.575)scale(.00565)"/><use xlink:href="#a" transform="rotate(10.832 6.7 1031.037)scale(.00673)"/><use xlink:href="#a" transform="rotate(50.05 82.36 218.296)scale(.01416)"/><use xlink:href="#a" transform="rotate(128.269 95.642 57.564)scale(.00761)"/><use xlink:href="#a" transform="rotate(188.83 101.05 2.114)scale(.0075)"/><use xlink:href="#a" transform="rotate(235.306 105.749 -42.168)scale(.01106)"/><use xlink:href="#a" transform="rotate(168.791 100.856 19.529)scale(.00564)"/><use xlink:href="#a" transform="rotate(14.066 33.885 829.717)scale(.00842)"/><use xlink:href="#a" transform="rotate(-16.25 163.431 -703.908)scale(.00715)"/><use xlink:href="#a" transform="rotate(60.222 90.749 186.549)scale(.01382)"/><use xlink:href="#a" transform="rotate(190.476 106.271 .811)scale(.01295)"/><use xlink:href="#a" transform="rotate(-42.083 127.747 -261.504)scale(.01212)"/><use xlink:href="#a" transform="rotate(14.083 40.847 864.738)scale(.01165)"/><use xlink:href="#a" transform="rotate(-34.407 135.67 -335.193)scale(.0057)"/><use xlink:href="#a" transform="rotate(15.167 44.18 814.868)scale(.00638)"/><use xlink:href="#a" transform="rotate(195.472 109.92 -5.054)scale(.00621)"/><use xlink:href="#a" transform="rotate(-91.247 117.804 -96)scale(.00838)"/><use xlink:href="#a" transform="rotate(35.257 86.125 352.159)scale(.01424)"/><use xlink:href="#a" transform="rotate(-59.173 126.362 -184.28)scale(.0065)"/><use xlink:href="#a" transform="rotate(136.257 109.011 54.4)scale(.01107)"/><use xlink:href="#a" transform="rotate(246.371 118.282 -63.3)scale(.0067)"/><use xlink:href="#a" transform="rotate(8.282 -.405 1557.032)scale(.01005)"/><use xlink:href="#a" transform="rotate(39.527 91.488 323.805)scale(.00898)"/><use xlink:href="#a" transform="rotate(-88.768 123.433 -105.854)scale(.01461)"/><use xlink:href="#a" transform="rotate(-49.257 133.612 -241.617)scale(.0056)"/><use xlink:href="#a" transform="rotate(139.684 113.36 51.319)scale(.00568)"/><use xlink:href="#a" transform="rotate(-66.938 128.605 -165.57)scale(.01148)"/><use xlink:href="#a" transform="rotate(-49.678 133.412 -242.528)scale(.01276)"/><use xlink:href="#a" transform="rotate(142.793 116.193 47.986)scale(.00546)"/><use xlink:href="#a" transform="rotate(149.67 117.895 40.474)scale(.01051)"/><use xlink:href="#a" transform="rotate(80.593 112.23 148.333)scale(.00761)"/><use xlink:href="#a" transform="rotate(118.617 117.005 78.913)scale(.00823)"/><use xlink:href="#a" transform="rotate(14.987 70.967 922.436)scale(.007)"/><use xlink:href="#a" transform="rotate(19.543 83.414 709.709)scale(.00556)"/><use xlink:href="#a" transform="rotate(80.255 114.778 151.271)scale(.00594)"/><use xlink:href="#a" transform="rotate(197.29 123.718 -11.267)scale(.00566)"/><use xlink:href="#a" transform="rotate(159.326 122.302 29.588)scale(.00718)"/><use xlink:href="#a" transform="rotate(-22.605 153.163 -607.208)scale(.00762)"/><use xlink:href="#a" transform="rotate(178.897 124.322 7.961)scale(.0055)"/><use xlink:href="#a" transform="rotate(185.759 125.25 .462)scale(.0069)"/><use xlink:href="#a" transform="rotate(-58.191 135.217 -217.184)scale(.00576)"/><use xlink:href="#a" transform="rotate(29.553 107.632 479.699)scale(.01114)"/><use xlink:href="#a" transform="rotate(-81.823 132.825 -138.953)scale(.00624)"/><use xlink:href="#a" transform="rotate(61.288 118.8 219.24)scale(.00596)"/><use xlink:href="#a" transform="rotate(194.867 128.995 -10.22)scale(.01129)"/><use xlink:href="#a" transform="rotate(49.633 119.575 281.825)scale(.00913)"/><use xlink:href="#a" transform="rotate(148.956 128.619 41.322)scale(.00897)"/><use xlink:href="#a" transform="rotate(109.28 127.013 96.885)scale(.00545)"/><use xlink:href="#a" transform="rotate(-85.585 135.108 -134.042)scale(.01316)"/><use xlink:href="#a" transform="rotate(172.6 131.557 13.273)scale(.0076)"/><use xlink:href="#a" transform="rotate(-63.466 137.858 -207.56)scale(.00672)"/><use xlink:href="#a" transform="rotate(126.379 132.428 71.42)scale(.01427)"/><use xlink:href="#a" transform="rotate(-88.198 136.989 -133.098)scale(.00612)"/><use xlink:href="#a" transform="rotate(220.819 135.547 -45.619)scale(.00703)"/><use xlink:href="#a" transform="rotate(43.257 129.337 341.418)scale(.00952)"/><use xlink:href="#a" transform="rotate(-33.195 142.644 -446.664)scale(.0143)"/><use xlink:href="#a" transform="rotate(209.883 137.812 -32.745)scale(.01044)"/><use xlink:href="#a" transform="rotate(108.845 136.433 100.708)scale(.00672)"/><use xlink:href="#a" transform="rotate(70.798 136.826 195.922)scale(.01032)"/><use xlink:href="#a" transform="rotate(48.763 135.762 307.17)scale(.00651)"/><use xlink:href="#a" transform="rotate(90.417 138.28 139.946)scale(.00642)"/><use xlink:href="#a" transform="rotate(138.371 139.768 55.105)scale(.00706)"/><use xlink:href="#a" transform="rotate(194.651 141.05 -15.708)scale(.00877)"/><use xlink:href="#a" transform="rotate(-68.477 142.227 -203.591)scale(.01231)"/><use xlink:href="#a" transform="rotate(157.527 143.02 30.067)scale(.0123)"/><use xlink:href="#a" transform="rotate(80.262 142.39 170.43)scale(.00566)"/><use xlink:href="#a" transform="rotate(102.26 144.104 117.267)scale(.0121)"/><use xlink:href="#a" transform="rotate(-92.506 145.743 -135.367)scale(.00682)"/><use xlink:href="#a" transform="rotate(-58.214 147.202 -256.086)scale(.01151)"/><use xlink:href="#a" transform="rotate(115.042 146.52 95.286)scale(.0132)"/><use xlink:href="#a" transform="rotate(149.48 147.175 42.793)scale(.00875)"/><use xlink:href="#a" transform="rotate(111.505 147.466 103.22)scale(.01062)"/><use xlink:href="#a" transform="rotate(76.071 146.9 192.103)scale(.00898)"/><use xlink:href="#a" transform="rotate(167.355 149.638 19.97)scale(.00882)"/><use xlink:href="#a" transform="rotate(26.895 143.31 627.096)scale(.01307)"/><use xlink:href="#a" transform="rotate(-32.216 159.703 -515.301)scale(.01246)"/><use xlink:href="#a" transform="rotate(-82.568 155.57 -168.424)scale(.0069)"/><use xlink:href="#a" transform="rotate(-34.165 162.258 -489.066)scale(.01084)"/><use xlink:href="#a" transform="rotate(253.985 156.16 -110.91)scale(.00622)"/><use xlink:href="#a" transform="rotate(225.259 155.803 -59.33)scale(.00765)"/><use xlink:href="#a" transform="rotate(-43.34 163.773 -382.695)scale(.00612)"/><use xlink:href="#a" transform="rotate(33.147 146.017 523.055)scale(.01282)"/><use xlink:href="#a" transform="rotate(19.66 135.231 901.518)scale(.00864)"/><use xlink:href="#a" transform="rotate(130.417 155.65 77.389)scale(.00878)"/><use xlink:href="#a" transform="rotate(156.223 157.766 38.766)scale(.01214)"/><use xlink:href="#a" transform="rotate(-37.916 171.458 -452.686)scale(.01142)"/><use xlink:href="#a" transform="rotate(79.775 154.193 195.539)scale(.00572)"/><use xlink:href="#a" transform="rotate(17.136 133.884 1061.05)scale(.01412)"/><use xlink:href="#a" transform="rotate(60.603 152.707 280.47)scale(.00638)"/><use xlink:href="#a" transform="rotate(44.303 149.965 401.283)scale(.00838)"/><use xlink:href="#a" transform="rotate(107.358 159.35 125.342)scale(.01013)"/><use xlink:href="#a" transform="rotate(124.943 161.635 91.63)scale(.01309)"/><use xlink:href="#a" transform="rotate(-59.135 174.74 -281.158)scale(.0059)"/><use xlink:href="#a" transform="rotate(21.005 134.549 890.695)scale(.0087)"/><use xlink:href="#a" transform="rotate(74.415 158.416 224.107)scale(.01037)"/><use xlink:href="#a" transform="rotate(-35.87 184.731 -502.229)scale(.01408)"/><use xlink:href="#a" transform="rotate(255.48 172.687 -121.294)scale(.0074)"/><use xlink:href="#a" transform="rotate(108.229 164.336 128.984)scale(.0116)"/><use xlink:href="#a" transform="rotate(.294 -2278.716 65478.518)scale(.01414)"/><use xlink:href="#a" transform="rotate(100.333 164.26 149.487)scale(.00652)"/><use xlink:href="#a" transform="rotate(252.706 176.646 -115.752)scale(.0128)"/><use xlink:href="#a" transform="rotate(-27.39 202.891 -692.218)scale(.00677)"/><use xlink:href="#a" transform="rotate(189.439 173.054 -5.38)scale(.00651)"/><use xlink:href="#a" transform="rotate(36.77 152.51 525.783)scale(.01446)"/><use xlink:href="#a" transform="rotate(96.878 167.59 162.737)scale(.00957)"/><use xlink:href="#a" transform="rotate(-80.826 184.9 -193.637)scale(.01458)"/><use xlink:href="#a" transform="rotate(43.943 156.141 443.402)scale(.01094)"/><use xlink:href="#a" transform="rotate(-65.493 190.323 -260.597)scale(.01043)"/><use xlink:href="#a" transform="rotate(60.96 159.367 307.368)scale(.01195)"/><use xlink:href="#a" transform="rotate(115.908 168.952 121.355)scale(.01322)"/><use xlink:href="#a" transform="rotate(187.627 175.792 2.024)scale(.01124)"/><use xlink:href="#a" transform="rotate(184.646 175.354 7.84)scale(.01464)"/><use xlink:href="#a" transform="rotate(202.644 176.821 -19.111)scale(.01017)"/><use xlink:href="#a" transform="rotate(213.014 177.911 -35.315)scale(.00678)"/><use xlink:href="#a" transform="rotate(-82.605 190.643 -179.981)scale(.00576)"/><use xlink:href="#a" transform="rotate(254.262 185.147 -113.196)scale(.00856)"/><use xlink:href="#a" transform="rotate(60.839 144.987 310.116)scale(.0055)"/><use xlink:href="#a" transform="rotate(226.519 179.98 -55.909)scale(.00687)"/><use xlink:href="#a" transform="rotate(-23.408 256.05 -809.547)scale(.00671)"/><use xlink:href="#a" transform="rotate(56.521 140.168 337.45)scale(.0124)"/><use xlink:href="#a" transform="rotate(75.026 147.767 242.953)scale(.00699)"/><use xlink:href="#a" transform="rotate(175.153 171.46 28.07)scale(.00932)"/><use xlink:href="#a" transform="rotate(96.5 154.046 173.717)scale(.00832)"/><use xlink:href="#a" transform="rotate(54.357 132.29 353.623)scale(.0142)"/><use xlink:href="#a" transform="rotate(-14.814 339.185 -1283.388)scale(.01214)"/><use xlink:href="#a" transform="matrix(.00773 0 0 .00773 340.132 45.83)"/><use xlink:href="#a" transform="rotate(-70.366 204.697 -214.647)scale(.01402)"/><use xlink:href="#a" transform="rotate(198.446 175.252 -1.366)scale(.00923)"/><use xlink:href="#a" transform="rotate(216.695 179.772 -28.913)scale(.01182)"/><use xlink:href="#a" transform="rotate(153.821 164.91 67.4)scale(.00974)"/><use xlink:href="#a" transform="rotate(36.677 88.718 540.559)scale(.00779)"/><use xlink:href="#a" transform="rotate(-.904 3702.379 -21471.064)scale(.00938)"/><use xlink:href="#a" transform="rotate(68.317 129.02 280.012)scale(.01064)"/><use xlink:href="#a" transform="rotate(66.582 126.248 289.469)scale(.00922)"/><use xlink:href="#a" transform="rotate(-27.007 297.504 -675.86)scale(.0075)"/><use xlink:href="#a" transform="rotate(-77.338 209.975 -180.37)scale(.00732)"/><use xlink:href="#a" transform="rotate(140.383 159.795 93.91)scale(.00563)"/><use xlink:href="#a" transform="rotate(-62.051 224.754 -249.16)scale(.01013)"/><use xlink:href="#a" transform="rotate(136.891 158.868 101.515)scale(.00846)"/><use xlink:href="#a" transform="rotate(-92.388 204.308 -128.109)scale(.01216)"/><use xlink:href="#a" transform="rotate(-96.723 203.164 -115.37)scale(.01275)"/><use xlink:href="#a" transform="rotate(214.93 183.95 -17.087)scale(.0088)"/><use xlink:href="#a" transform="rotate(95.063 140.237 194.697)scale(.01128)"/><use xlink:href="#a" transform="rotate(71.822 122.137 275.749)scale(.00796)"/><use xlink:href="#a" transform="rotate(210.563 184.25 -7.08)scale(.01477)"/><use xlink:href="#a" transform="rotate(-50.76 255.565 -323.894)scale(.0056)"/><use xlink:href="#a" transform="rotate(-71.597 228.278 -199.33)scale(.00549)"/><use xlink:href="#a" transform="rotate(236.401 195.666 -50.996)scale(.01202)"/><use xlink:href="#a" transform="rotate(183.073 175.424 37.239)scale(.00728)"/><use xlink:href="#a" transform="rotate(210.577 186.222 -3.872)scale(.01407)"/><use xlink:href="#a" transform="rotate(67.013 110.583 305.752)scale(.00653)"/><use xlink:href="#a" transform="rotate(123.21 151.818 138.106)scale(.0079)"/><use xlink:href="#a" transform="rotate(11.725 -247.426 1738.585)scale(.00929)"/><use xlink:href="#a" transform="rotate(133.09 156.65 121.398)scale(.01075)"/><use xlink:href="#a" transform="rotate(23.16 -44.427 897.53)scale(.00793)"/><use xlink:href="#a" transform="rotate(166.52 170.471 67.649)scale(.0076)"/><use xlink:href="#a" transform="rotate(214.161 190.283 -6.196)scale(.00707)"/><use xlink:href="#a" transform="rotate(53.821 83.936 393.052)scale(.00768)"/><use xlink:href="#a" transform="rotate(-67.687 246.079 -211.8)scale(.00936)"/><use xlink:href="#a" transform="rotate(68.874 106.612 302.067)scale(.0074)"/><use xlink:href="#a" transform="rotate(-73.923 236.745 -181.599)scale(.01025)"/><use xlink:href="#a" transform="rotate(128.828 151.642 130.606)scale(.00989)"/><use xlink:href="#a" transform="rotate(-31.54 336.679 -557.023)scale(.01355)"/><use xlink:href="#a" transform="rotate(51.825 76.695 398.575)scale(.00931)"/><use xlink:href="#a" transform="rotate(38.845 39.772 529.365)scale(.00728)"/><use xlink:href="#a" transform="rotate(97.847 129.985 195.075)scale(.00579)"/><use xlink:href="#a" transform="rotate(-84.768 220.418 -137.082)scale(.00985)"/><use xlink:href="#a" transform="rotate(223.28 187.486 -18.536)scale(.01439)"/><use xlink:href="#a" transform="rotate(-63.98 241.452 -220.413)scale(.00609)"/><use xlink:href="#a" transform="rotate(-45.45 275.83 -347.74)scale(.0135)"/><use xlink:href="#a" transform="rotate(125.421 143.457 132.119)scale(.01378)"/><use xlink:href="#a" transform="rotate(9.031 -402.969 2115.97)scale(.01288)"/><use xlink:href="#a" transform="rotate(-71.135 227.097 -180.027)scale(.01288)"/><use xlink:href="#a" transform="rotate(132.461 143.575 117.7)scale(.01072)"/><use xlink:href="#a" transform="rotate(174.937 160.244 53.194)scale(.00638)"/><use xlink:href="#a" transform="rotate(147.875 149.196 92.651)scale(.01347)"/><use xlink:href="#a" transform="rotate(45.87 54.726 423.043)scale(.00565)"/><use xlink:href="#a" transform="rotate(-27.67 340.982 -598.39)scale(.00932)"/><use xlink:href="#a" transform="rotate(9.258 -381.753 1989.307)scale(.0145)"/><use xlink:href="#a" transform="rotate(102.821 123.282 170.754)scale(.01118)"/><use xlink:href="#a" transform="rotate(22.522 -63.154 828.167)scale(.00951)"/><use xlink:href="#a" transform="rotate(-98.472 194.445 -88.61)scale(.00759)"/><use xlink:href="#a" transform="rotate(209.054 167.297 5.26)scale(.00876)"/><use xlink:href="#a" transform="rotate(241.688 181.338 -47.066)scale(.00635)"/><use xlink:href="#a" transform="rotate(118.18 128.578 136.761)scale(.00793)"/><use xlink:href="#a" transform="rotate(29.699 -10.115 620.966)scale(.00773)"/><use xlink:href="#a" transform="rotate(-81.098 204.035 -132.016)scale(.01173)"/><use xlink:href="#a" transform="rotate(-86.124 198.496 -115.821)scale(.0136)"/><use xlink:href="#a" transform="rotate(6.449 -614.229 2706.678)scale(.00819)"/><use xlink:href="#a" transform="rotate(-16.037 451.898 -1009.278)scale(.01477)"/><use xlink:href="#a" transform="rotate(-25.918 335.374 -599.723)scale(.00772)"/><use xlink:href="#a" transform="rotate(102.937 114.498 161.601)scale(.00633)"/><use xlink:href="#a" transform="rotate(167.714 143.586 59.702)scale(.00639)"/><use xlink:href="#a" transform="rotate(105.11 115.169 155.989)scale(.0078)"/><use xlink:href="#a" transform="rotate(82.813 98.816 209.158)scale(.00656)"/><use xlink:href="#a" transform="rotate(178.207 145.85 45.96)scale(.00721)"/><use xlink:href="#a" transform="rotate(-39.065 265.225 -364.431)scale(.00735)"/><use xlink:href="#a" transform="rotate(-54.505 227.002 -235.878)scale(.00906)"/><use xlink:href="#a" transform="rotate(.644 -7321.147 25502.877)scale(.01036)"/><use xlink:href="#a" transform="rotate(192.617 148.33 27.404)scale(.00603)"/><use xlink:href="#a" transform="rotate(24.351 -48.57 698.785)scale(.01274)"/><use xlink:href="#a" transform="rotate(107.533 112.11 146.277)scale(.0127)"/><use xlink:href="#a" transform="rotate(-65.612 205.404 -173.609)scale(.00986)"/><use xlink:href="#a" transform="rotate(36.315 13.953 467.074)scale(.00666)"/><use xlink:href="#a" transform="rotate(161.956 133.13 64.493)scale(.00572)"/><use xlink:href="#a" transform="rotate(125.668 118.082 113.352)scale(.0066)"/><use xlink:href="#a" transform="rotate(193.756 143.76 25.975)scale(.0081)"/><use xlink:href="#a" transform="rotate(188.481 141.256 32.37)scale(.01031)"/><use xlink:href="#a" transform="rotate(18.758 -111.657 866.337)scale(.00675)"/><use xlink:href="#a" transform="rotate(241.746 161.092 -38.27)scale(.0114)"/><use xlink:href="#a" transform="rotate(14.33 -188.7 1113.321)scale(.00628)"/><use xlink:href="#a" transform="rotate(145.235 122.88 84.035)scale(.01254)"/><use xlink:href="#a" transform="rotate(44.167 35.364 368.632)scale(.0117)"/><use xlink:href="#a" transform="rotate(-3.767 1363.003 -3980.076)scale(.00586)"/><use xlink:href="#a" transform="rotate(-40.192 241.741 -316.257)scale(.01201)"/><use xlink:href="#a" transform="rotate(199.527 138.846 19.572)scale(.0136)"/><use xlink:href="#a" transform="rotate(-97.896 165.542 -70.454)scale(.01162)"/><use xlink:href="#a" transform="rotate(167.384 125.14 55.601)scale(.0056)"/><use xlink:href="#a" transform="rotate(149.285 118.167 76.862)scale(.00807)"/><use xlink:href="#a" transform="rotate(245.71 154.703 -40.657)scale(.00666)"/><use xlink:href="#a" transform="rotate(182.493 129.08 39.518)scale(.01212)"/><use xlink:href="#a" transform="rotate(-40.973 235.947 -295.476)scale(.00587)"/><use xlink:href="#a" transform="rotate(50.628 40.273 307.051)scale(.00599)"/><use xlink:href="#a" transform="rotate(-59.806 196.999 -175.003)scale(.00735)"/><use xlink:href="#a" transform="rotate(176.683 124.497 46.206)scale(.01359)"/><use xlink:href="#a" transform="rotate(38.62 7.726 393.348)scale(.00713)"/><use xlink:href="#a" transform="rotate(-87.975 166.112 -84.688)scale(.00748)"/><use xlink:href="#a" transform="rotate(23.335 -73.017 629.12)scale(.01405)"/><use xlink:href="#a" transform="rotate(10.607 -322.105 1344.759)scale(.00556)"/><use xlink:href="#a" transform="rotate(-91.867 161.246 -73.546)scale(.00939)"/><use xlink:href="#a" transform="rotate(199.573 127.854 22.154)scale(.00934)"/><use xlink:href="#a" transform="rotate(-25.217 303.03 -484.724)scale(.01261)"/><use xlink:href="#a" transform="rotate(83.137 72.688 175.13)scale(.01195)"/><use xlink:href="#a" transform="rotate(-87.78 161.135 -78.867)scale(.00558)"/><use xlink:href="#a" transform="rotate(176.94 116.31 45.998)scale(.00785)"/><use xlink:href="#a" transform="rotate(193.626 121.678 28.917)scale(.00608)"/><use xlink:href="#a" transform="rotate(178.864 115.84 44.14)scale(.00744)"/><use xlink:href="#a" transform="rotate(89.817 74.47 157.61)scale(.0139)"/><use xlink:href="#a" transform="rotate(-2.362 2140.53 -5449.757)scale(.00755)"/><use xlink:href="#a" transform="rotate(226.57 131.835 -5.613)scale(.00592)"/><use xlink:href="#a" transform="rotate(213.177 125.97 10.577)scale(.01354)"/><use xlink:href="#a" transform="rotate(8.027 -488.671 1627.199)scale(.0065)"/><use xlink:href="#a" transform="rotate(167.171 107 55.897)scale(.00814)"/><use xlink:href="#a" transform="rotate(158.975 103.349 63.943)scale(.01013)"/><use xlink:href="#a" transform="rotate(223.345 126.98 .136)scale(.00689)"/><use xlink:href="#a" transform="rotate(237.453 132.763 -16.232)scale(.00548)"/><use xlink:href="#a" transform="rotate(253.441 140.817 -37.22)scale(.0056)"/><use xlink:href="#a" transform="rotate(-15.253 426.72 -760.489)scale(.006)"/><use xlink:href="#a" transform="rotate(61.73 36.902 222.89)scale(.00616)"/><use xlink:href="#a" transform="rotate(6.346 -661.062 1968.409)scale(.0055)"/><use xlink:href="#a" transform="rotate(-19.632 353.728 -570.254)scale(.00585)"/><use xlink:href="#a" transform="rotate(-5.166 1043.801 -2281.745)scale(.0124)"/><use xlink:href="#a" transform="rotate(38.999 -14.664 338.967)scale(.00755)"/><use xlink:href="#a" transform="rotate(27.236 -69.325 470.43)scale(.01313)"/><use xlink:href="#a" transform="rotate(-34.17 243.132 -289.936)scale(.00831)"/><use xlink:href="#a" transform="rotate(140.104 88.132 81.576)scale(.01346)"/><use xlink:href="#a" transform="rotate(-85.4 148.47 -63.661)scale(.01438)"/><use xlink:href="#a" transform="rotate(-29.046 268.079 -341.738)scale(.00584)"/><use xlink:href="#a" transform="rotate(226.271 119.025 2.442)scale(.01022)"/><use xlink:href="#a" transform="rotate(170.04 95.953 53.14)scale(.00838)"/><use xlink:href="#a" transform="rotate(47.709 1.43 265.307)scale(.00938)"/><use xlink:href="#a" transform="rotate(158.726 90.242 63.173)scale(.01095)"/><use xlink:href="#a" transform="rotate(222.544 114.334 8.232)scale(.0134)"/><use xlink:href="#a" transform="rotate(173.2 93.624 50.644)scale(.00791)"/><use xlink:href="#a" transform="rotate(151.35 84.335 69.027)scale(.00682)"/><use xlink:href="#a" transform="rotate(-82.021 144.913 -61.193)scale(.01453)"/><use xlink:href="#a" transform="rotate(92.85 52.011 133.168)scale(.00724)"/><use xlink:href="#a" transform="rotate(-95.1 133.35 -39.32)scale(.00576)"/><use xlink:href="#a" transform="rotate(134.576 74.554 83.678)scale(.01126)"/><use xlink:href="#a" transform="rotate(4.902 -933.371 2152.833)scale(.01033)"/><use xlink:href="#a" transform="rotate(147.727 78.339 71.482)scale(.01072)"/><use xlink:href="#a" transform="rotate(184.984 91.96 41.664)scale(.0082)"/><use xlink:href="#a" transform="rotate(11.13 -364.568 949.533)scale(.00762)"/><use xlink:href="#a" transform="rotate(59.199 10.852 199.437)scale(.0088)"/><use xlink:href="#a" transform="rotate(205.259 97.877 25.997)scale(.00547)"/><use xlink:href="#a" transform="rotate(-86.056 135.033 -46.364)scale(.0093)"/><use xlink:href="#a" transform="rotate(137.41 69.428 79.187)scale(.00818)"/><use xlink:href="#a" transform="rotate(-3.793 1430.816 -2509.499)scale(.00936)"/><use xlink:href="#a" transform="rotate(-60.641 161.804 -98.218)scale(.00617)"/><use xlink:href="#a" transform="rotate(-95.07 125.717 -30.832)scale(.00602)"/><use xlink:href="#a" transform="rotate(113.223 54.695 100.765)scale(.00663)"/><use xlink:href="#a" transform="rotate(10.17 -421.802 975.824)scale(.00557)"/><use xlink:href="#a" transform="rotate(-22.285 311.872 -371.024)scale(.00663)"/><use xlink:href="#a" transform="rotate(188.452 85.965 39.904)scale(.00554)"/><use xlink:href="#a" transform="rotate(-16.84 386.532 -501.814)scale(.0069)"/><use xlink:href="#a" transform="rotate(140.516 65.981 75.356)scale(.01371)"/><use xlink:href="#a" transform="rotate(2.233 -2213.112 4083.673)scale(.01279)"/><use xlink:href="#a" transform="rotate(84.54 29.526 132.647)scale(.00555)"/><use xlink:href="#a" transform="rotate(237.704 103.955 3.31)scale(.00555)"/><use xlink:href="#a" transform="rotate(-84.484 128.437 -38.4)scale(.00844)"/><use xlink:href="#a" transform="rotate(216.939 93.043 21.27)scale(.0097)"/><use xlink:href="#a" transform="rotate(-10.11 586.51 -803.443)scale(.01247)"/><use xlink:href="#a" transform="rotate(200.801 84.544 33.67)scale(.01182)"/><use xlink:href="#a" transform="rotate(41.1 -47.104 244.093)scale(.00717)"/><use xlink:href="#a" transform="rotate(81.744 21.808 131.55)scale(.00893)"/><use xlink:href="#a" transform="rotate(151.128 61.824 65.6)scale(.0056)"/><use xlink:href="#a" transform="rotate(127.308 50.727 82.797)scale(.00945)"/><use xlink:href="#a" transform="rotate(32.968 -82.7 287.932)scale(.00772)"/><use xlink:href="#a" transform="rotate(192.72 76.932 39.251)scale(.00656)"/><use xlink:href="#a" transform="rotate(-66.384 141.58 -59.803)scale(.0077)"/><use xlink:href="#a" transform="rotate(-67.92 138.897 -54.705)scale(.01116)"/><use xlink:href="#a" transform="rotate(36.505 -70.713 255.516)scale(.00645)"/><use xlink:href="#a" transform="rotate(213.457 83.217 27.903)scale(.01387)"/><use xlink:href="#a" transform="rotate(193.072 73.422 40.142)scale(.00998)"/><use xlink:href="#a" transform="rotate(-32.263 227.635 -179.671)scale(.00902)"/><use xlink:href="#a" transform="rotate(55.264 -22.098 172.19)scale(.00923)"/><use xlink:href="#a" transform="rotate(147.982 52.298 66.36)scale(.00692)"/><use xlink:href="#a" transform="rotate(207.181 76.42 32.424)scale(.00668)"/><use xlink:href="#a" transform="rotate(-2.717 2014.265 -2586.696)scale(.01465)"/><use xlink:href="#a" transform="rotate(27.648 -125.716 299.344)scale(.01053)"/><use xlink:href="#a" transform="rotate(58.274 -21.968 158.303)scale(.0066)"/><use xlink:href="#a" transform="rotate(-.204 26284.336 -33823.29)scale(.01195)"/><use xlink:href="#a" transform="rotate(159.704 52.525 58.957)scale(.00726)"/><use xlink:href="#a" transform="rotate(65.171 -13.61 141.068)scale(.00674)"/><use xlink:href="#a" transform="rotate(106.155 24.722 92.334)scale(.01028)"/><use xlink:href="#a" transform="rotate(-68.196 128.458 -37.628)scale(.00557)"/><use xlink:href="#a" transform="rotate(113.907 28.403 85.372)scale(.01129)"/><use xlink:href="#a" transform="rotate(212.048 70.987 31.662)scale(.00711)"/><use xlink:href="#a" transform="rotate(-17.768 350.969 -303.673)scale(.01394)"/><use xlink:href="#a" transform="rotate(-70.208 120.973 -28.538)scale(.0147)"/><use xlink:href="#a" transform="rotate(-66.04 125.54 -35.603)scale(.0057)"/><use xlink:href="#a" transform="rotate(180.581 54.752 47.21)scale(.01386)"/><use xlink:href="#a" transform="rotate(17.86 -232.411 372.754)scale(.0137)"/><use xlink:href="#a" transform="rotate(177.6 51.19 47.815)scale(.01044)"/><use xlink:href="#a" transform="rotate(211.782 64.073 32.661)scale(.01235)"/><use xlink:href="#a" transform="rotate(259.281 87.322 5.303)scale(.00647)"/><use xlink:href="#a" transform="rotate(5.175 -943.248 1122.51)scale(.0056)"/><use xlink:href="#a" transform="rotate(180.888 49.82 46.035)scale(.0146)"/><use xlink:href="#a" transform="rotate(174.651 45.922 47.856)scale(.00764)"/><use xlink:href="#a" transform="rotate(117.32 20.237 73.63)scale(.00577)"/><use xlink:href="#a" transform="rotate(-39.048 170.882 -82.617)scale(.00954)"/><use xlink:href="#a" transform="rotate(-15.17 374.018 -289.143)scale(.0105)"/><use xlink:href="#a" transform="rotate(136.13 27.572 62.713)scale(.00628)"/><use xlink:href="#a" transform="rotate(-55.332 127.5 -36.742)scale(.0119)"/><use xlink:href="#a" transform="rotate(197.551 50.53 38.1)scale(.00814)"/><use xlink:href="#a" transform="rotate(-26.095 229.04 -134.976)scale(.0098)"/><use xlink:href="#a" transform="rotate(245.111 69.782 18.813)scale(.0121)"/><use xlink:href="#a" transform="rotate(53.55 -42.103 122.64)scale(.01347)"/><use xlink:href="#a" transform="rotate(141.476 25.266 57.477)scale(.00601)"/><use xlink:href="#a" transform="rotate(94.636 .74 79.248)scale(.00816)"/><use xlink:href="#a" transform="rotate(224.738 56.541 28.595)scale(.01357)"/><use xlink:href="#a" transform="rotate(134.415 20.707 58.854)scale(.01166)"/><use xlink:href="#a" transform="rotate(-11.235 458.168 -316.807)scale(.01127)"/><use xlink:href="#a" transform="rotate(-4.092 1186.01 -913.162)scale(.01382)"/><use xlink:href="#a" transform="rotate(25.01 -148.476 192.18)scale(.0137)"/><use xlink:href="#a" transform="rotate(124.771 12.412 59.494)scale(.00742)"/><use xlink:href="#a" transform="rotate(69.688 -25.176 88.17)scale(.00898)"/><use xlink:href="#a" transform="rotate(-74.59 85.915 1.13)scale(.00928)"/><use xlink:href="#a" transform="rotate(120.261 9.066 59.483)scale(.01312)"/><use xlink:href="#a" transform="rotate(123.393 9.208 57.562)scale(.0092)"/><use xlink:href="#a" transform="rotate(-55.677 105.984 -12.82)scale(.00858)"/><use xlink:href="#a" transform="rotate(-38.496 143.956 -36.36)scale(.0135)"/><use xlink:href="#a" transform="rotate(68.903 -30.278 81.004)scale(.01237)"/><use xlink:href="#a" transform="rotate(254.191 58.25 23.187)scale(.01118)"/><use xlink:href="#a" transform="rotate(224.233 43.075 31.916)scale(.00596)"/><use xlink:href="#a" transform="rotate(213.071 38.25 35.787)scale(.01218)"/><use xlink:href="#a" transform="rotate(161.102 18.144 46.966)scale(.00957)"/><use xlink:href="#a" transform="rotate(-28.635 187.257 -45.034)scale(.01078)"/><use xlink:href="#a" transform="rotate(163.451 17.553 47.015)scale(.01418)"/><use xlink:href="#a" transform="rotate(31.495 -127.894 117.755)scale(.00815)"/><use xlink:href="#a" transform="rotate(112.693 -6.906 57.165)scale(.00577)"/><use xlink:href="#a" transform="rotate(-77.298 74.265 20.185)scale(.01176)"/><use xlink:href="#a" transform="rotate(179.76 19.986 44.102)scale(.00665)"/><use xlink:href="#a" transform="rotate(-70.204 80.947 17.971)scale(.00661)"/><use xlink:href="#a" transform="rotate(-85.69 65.619 24.857)scale(.00599)"/><use xlink:href="#a" transform="rotate(257.224 53.027 31.898)scale(.01374)"/><use xlink:href="#a" transform="rotate(55.437 -65.728 75.897)scale(.00602)"/><use xlink:href="#a" transform="rotate(21.144 -216.019 127.704)scale(.01045)"/><use xlink:href="#a" transform="rotate(9.265 -523.78 225.397)scale(.0102)"/><use xlink:href="#a" transform="rotate(215.579 29.598 41.491)scale(.0114)"/><use xlink:href="#a" transform="rotate(33.595 -131.56 87.934)scale(.01226)"/><use xlink:href="#a" transform="rotate(7.005 -713.812 240.358)scale(.01)"/><use xlink:href="#a" transform="rotate(9.59 -523.906 181.608)scale(.00817)"/><use xlink:href="#a" transform="rotate(-39.46 138.188 16.037)scale(.00653)"/><use xlink:href="#a" transform="rotate(63.536 -61.967 63.211)scale(.0056)"/><use xlink:href="#a" transform="rotate(117.996 -16.252 52.583)scale(.0081)"/><use xlink:href="#a" transform="rotate(159.658 2.149 48.498)scale(.00714)"/><use xlink:href="#a" transform="rotate(53.54 -79.61 62.914)scale(.01457)"/><use xlink:href="#a" transform="rotate(42.769 -109.784 66.807)scale(.00547)"/><use xlink:href="#a" transform="rotate(104.158 -27.578 53.004)scale(.01065)"/><use xlink:href="#a" transform="rotate(130.173 -13.877 50.738)scale(.01263)"/><use xlink:href="#a" transform="rotate(136.236 -12.129 50.297)scale(.0124)"/><use xlink:href="#a" transform="rotate(18.302 -284.182 69.827)scale(.0137)"/><use xlink:href="#a" transform="rotate(18.24 -280.672 68.261)scale(.01194)"/><use xlink:href="#a" transform="rotate(-49.098 103.693 39.779)scale(.01027)"/><use xlink:href="#a" transform="rotate(-15.76 327.642 20.833)scale(.00671)"/><use xlink:href="#a" transform="rotate(79.87 -46.948 49.173)scale(.01185)"/><use xlink:href="#a" transform="rotate(252.881 36.409 41.679)scale(.00597)"/><use xlink:href="#a" transform="rotate(153.292 -5.667 44.6)scale(.00729)"/><use xlink:href="#a" transform="rotate(225.745 22.096 42.045)scale(.00909)"/><use xlink:href="#a" transform="rotate(97.805 -30.994 45.116)scale(.01066)"/><use xlink:href="#a" transform="rotate(23.593 -190.029 56.294)scale(.006)"/><use xlink:href="#a" transform="rotate(85.413 -38.819 44.278)scale(.00823)"/><use xlink:href="#a" transform="rotate(37.162 -112.494 49.093)scale(.00723)"/><use xlink:href="#a" transform="rotate(15.736 -271.654 57.914)scale(.011)"/><use xlink:href="#a" transform="rotate(-53.989 76.807 34.847)scale(.014)"/><use xlink:href="#a" transform="rotate(256.267 32.476 35.737)scale(.00783)"/><use xlink:href="#a" transform="rotate(32.646 -117.131 45.196)scale(.01036)"/><use xlink:href="#a" transform="rotate(48.577 -71.48 40.643)scale(.01424)"/><use xlink:href="#a" transform="rotate(-7.846 498.28 -.717)scale(.00649)"/><use xlink:href="#a" transform="rotate(212.059 13.113 33.814)scale(.00707)"/><use xlink:href="#a" transform="rotate(-42.24 86.97 29.353)scale(.01192)"/><use xlink:href="#a" transform="rotate(134.039 -9.768 33.858)scale(.01025)"/><use xlink:href="#a" transform="rotate(217.97 14.038 31.814)scale(.01306)"/><use xlink:href="#a" transform="rotate(80.504 -31.892 33.385)scale(.00758)"/><use xlink:href="#a" transform="rotate(-72.02 42.88 28.332)scale(.01148)"/><use xlink:href="#a" transform="rotate(78.1 -30.685 31.386)scale(.01191)"/><use xlink:href="#a" transform="rotate(11.596 -264.14 44.039)scale(.00818)"/><use xlink:href="#a" transform="rotate(196.253 7.089 27.917)scale(.01452)"/><use xlink:href="#a" transform="rotate(-45.821 62.65 22.876)scale(.00765)"/><use xlink:href="#a" transform="rotate(220.21 11.715 25.395)scale(.0074)"/><use xlink:href="#a" transform="rotate(73.655 -28.617 26.861)scale(.01136)"/><use xlink:href="#a" transform="rotate(176.813 2.503 24.683)scale(.01428)"/><use xlink:href="#a" transform="rotate(-56.986 42.727 21.18)scale(.00804)"/><use xlink:href="#a" transform="rotate(-35.31 67.761 20.292)scale(.01215)"/><use xlink:href="#a" transform="rotate(135.15 -5.789 21.976)scale(.00966)"/><use xlink:href="#a" transform="rotate(36.696 -55.459 23.24)scale(.00972)"/><use xlink:href="#a" transform="rotate(248.364 14.735 19.992)scale(.01425)"/><use xlink:href="#a" transform="rotate(196.353 4.657 18.774)scale(.0102)"/><use xlink:href="#a" transform="rotate(126.434 -6.353 18.217)scale(.0088)"/><use xlink:href="#a" transform="rotate(26.006 -68.053 20.248)scale(.00592)"/><use xlink:href="#a" transform="rotate(108.767 -8.563 17.048)scale(.0112)"/><use xlink:href="#a" transform="rotate(-83.747 17.753 15.505)scale(.01016)"/><defs><path id="a" fill="#2b2816" d="M215.823 333.963c0-.733.3-1.033.667-.667a.95.95 0 0 1 0 1.334c-.367.366-.667.066-.667-.667M143.424 3.977c4.632-.653 8.099 4.826 5.302 8.382-1.951 2.48-2.551 5.604-1.078 5.604.905.004 11.175 12.34 11.175 13.423 0 1.076-4.344 5.111-6.316 5.868-1.898.728-1.434 2.71.633 2.71.661 0 1.78.924 2.486 2.056 1.284 2.054 1.286 2.054 2.991.057.938-1.1 2.606-2.139 3.706-2.307s2.33-.757 2.734-1.307c.415-.565.741-.238.75.75.018 2.14.447 2.169 3.408.229 1.623-1.063 2.19-2.212 1.884-3.81-1.049-5.489 4.864-5.512 14.402-.058 5.289 3.024 5.527 3.005 7.663-.61 3.023-5.119 9.966-1.694 8.152 4.02-.515 1.623-.183 2.247 1.417 2.666 1.15.3 2.09.945 2.09 1.43.001.485.9.883 2 .883 2.405 0 2.51-.633.446-2.697-1.937-1.936-1.511-6.247.756-7.667 2.444-1.53 3.085-.336 1.976 3.68-.844 3.057-.725 3.569.927 4 1.042.274 1.895 1.215 1.895 2.09.001 2.117 3.922 2.083 5.479-.046 1.634-2.235 4.962-.366 4.996 2.806.022 2.026.585 2.375 4.275 2.641 3.903.283 4.25.113 4.25-2.089q0-2.397 2.547-3.556c5.794-2.64 9.087-.056 7.912 6.206-.627 3.341-.627 3.341 7.125 4.043 13.323 1.209 21.701 9.211 10.916 10.427-1.65.187-3.533.779-4.183 1.316-.772.639-2.504.61-5-.082-4.664-1.295-5.317-1.318-5.317-.18 0 .89 3.547 2.107 7.692 2.639 3.814.489 4.527 1.472 3.864 5.335-1.584 9.224-1.538 9.134-4.694 9.134-1.732 0-2.721-.419-2.362-1 .34-.55.194-1-.324-1-.519 0-1.178-.9-1.466-2-.316-1.208-1.364-2-2.648-2-1.169 0-2.425-.787-2.793-1.75-.688-1.803-.846-2.03-4.339-6.25-2.069-2.5-2.069-2.5-1.491.21.443 2.079.097 2.968-1.49 3.817-3.053 1.634-2.358 6.6.861 6.15 1.27-.178 2.952.21 3.737.862.841.698 2.53.908 4.115.51 2.465-.619 2.57-.53 1.263 1.08-.904 1.113-.968 1.48-.175 1.004 1.207-.725 1.687.683 1.482 4.336-.045.808 1.226 3.249 2.826 5.425 2.411 3.278 2.808 4.595 2.313 7.686-.499 3.124-.251 3.915 1.528 4.868 1.738.93 1.934 1.496 1.067 3.115-.582 1.088-.743 2.489-.358 3.114 1.359 2.199-6.627-.001-11.342-3.124-8.698-5.762-10.731-2.813-8.924 12.947.221 1.925-.023 4.035-.543 4.69-2.291 2.887-.482 6.804 3.201 6.932 1.925.067 3.95.231 4.5.365s1.77.166 2.711.072c2.294-.23 5.828 1.736 5.529 3.076-.429 1.92 7.577 1.339 13.716-.996 3.275-1.246 6.763-2.054 7.75-1.795 1.097.287 1.794-.077 1.794-.937 0-.773-.9-1.407-2-1.407-2.468 0-2.532-1.121-.227-3.967 1.774-2.19 1.774-2.191 3.655-.112 3.099 3.423 8.159.85 5.79-2.944-.993-1.589-.581-2.041 3.321-3.645 2.449-1.007 4.455-2.169 4.457-2.582s.443-.75.979-.75c1.288 0 .183 5.855-1.664 8.817-1.092 1.751-1.167 2.651-.309 3.686 1.283 1.545-.226 5.368-2.692 6.822-.804.474-1.149 1.608-.812 2.669.406 1.279-.025 2.039-1.405 2.477-1.193.378-1.772 1.202-1.445 2.054.599 1.563-1.168 3.716-3.898 4.75-.962.364-1.75 1.619-1.75 2.789 0 2.226-3.33 7.595-5.963 9.615-1.366 1.047-1.342 1.254.215 1.857 1.184.459 2.39-.086 3.717-1.678 2.104-2.526 2.666-1.913 1.038 1.131-.844 1.574-.541 1.954 2 2.512 3.869.85 4.064 4.832.493 10.094-3.324 4.898-3.182 6.036 1.488 11.905 2.188 2.75 5.447 7.129 7.244 9.732 2.93 4.244 6.768 6.38 6.768 3.768 0-.55 1.035-1 2.3-1s2.746-.446 3.29-.99c.62-.62 2.15-.657 4.088-.101 2.392.686 3.469.516 4.728-.744 4.803-4.802 6.925 3.04 2.546 9.405-3.724 5.412-1.48 4.855 3.795-.941 1.786-1.963 3.851-3.336 4.59-3.052.738.282 1.92-.181 2.625-1.031 1.934-2.33 4.935-1.866 6.224.963 1.583 3.475-.177 6.436-7.813 13.14-6.161 5.409-6.161 5.409-3.267 8.303q6.73 6.731-2.936 8.665c-2.37.473-3.292.23-3.762-.995-.888-2.314-2.696-2.009-5.448.92-2.037 2.169-2.206 2.834-1.151 4.523 1.864 2.986.028 5.71-3.506 5.2-4.597-.663-9.708 5.273-8.219 9.547.611 1.753 1.63 3.202 2.264 3.219s.361.49-.606 1.054c-.967.563-2.166.771-2.665.463-.498-.308-1.136-.096-1.417.471-.28.567-.375.457-.21-.244a1.32 1.32 0 0 1 1.594-.969c1.051.249 1.054.018.019-1.229-.82-.989-2.396-1.39-4.419-1.124a92 92 0 0 1-6.144.558c-1.65.081-2.437.374-1.75.651.688.279 1.25 1.087 1.25 1.799s.675 1.854 1.5 2.539c5.107 4.238-.167 9.564-11.856 11.977-5.805 1.198-5.851 1.236-5.25 4.241.333 1.668.606 4.11.606 5.428 0 1.565.84 2.78 2.421 3.5 1.427.65 2.204 1.669 1.892 2.481-1.315 3.427.629 6.545 3.665 5.878 3.965-.871 7.62 1.069 5.906 3.134-.684.825-2.082 1.281-3.105 1.013-1.464-.382-1.732-.077-1.254 1.431.545 1.717.081 1.917-4.459 1.917-5.146 0-6.794-1.89-2.64-3.028 2.787-.763 3.151-3.008.595-3.677-1.452-.379-1.789-.821-.999-1.309 1.624-1.003.253-6.985-1.601-6.986-.782 0-1.421-.392-1.421-.872s-1.851-1.168-4.114-1.53c-2.276-.364-4.845-1.556-5.75-2.669-1.563-1.921-1.645-1.764-1.848 3.531-.199 5.212-.072 5.54 2.143 5.54 5.607 0 3.707 7.564-2.136 8.502-2.087.335-5.28 1.263-7.096 2.062-2.486 1.094-3.803 1.183-5.335.363-2.367-1.266-3.36-.663-2.519 1.53.326.849 1.676 1.543 3.001 1.543 3.904 0 5.075 2.286 3.115 6.077-1.665 3.218-1.666 3.218-13.063 2.607s-11.398-.611-11.398 2.418c0 8.621-10.579 8.949-12.836.398-1.025-3.886-7.44-4.574-7.971-.856-.417 2.928-5.229 3.934-5.933 1.241-.544-2.077-1.366-2.361-2.81-.97-.522.504-2.075 1.066-3.45 1.25-1.71.229-2.602 1.053-2.823 2.609-.261 1.844-.83 2.2-3 1.878-1.472-.218-2.582-.851-2.467-1.405.116-.555-.672-1.807-1.75-2.783-1.881-1.703-1.962-1.698-2.002.131-.024 1.048-1.416 3.03-3.095 4.405a541 541 0 0 0-5.708 4.749c-4.916 4.164-8.422 2.715-9.677-3.999-.385-2.061-.881-3.749-1.102-3.75s-3.649.9-7.619 2c-14.524 4.025-29-2.533-15.77-7.145 1.657-.578 3.013-1.445 3.013-1.928s-1.155-.438-2.566.098c-2.123.807-3.159.524-6-1.643-3.139-2.394-4.983-5.457-2.279-3.787.716.443.883.275.439-.443-1.049-1.697-4.913.576-4.188 2.464.811 2.113-2.281 2.937-3.707.987-1.831-2.504-6.976.008-6.236 3.044 1.341 5.502-5.446 8.159-7.44 2.914-.95-2.498-5.437-1.816-9.523 1.446-1.865 1.489-6.803 1.559-7.292.104-.259-.768-.013-1.108.549-.761.56.346.996.071.973-.61-.161-4.454.444-5.606 3.52-6.697 3.668-1.3 2.102-3.54-3.25-4.647-1.375-.284-3.306-.954-4.29-1.489-.986-.536-2.157-.749-2.603-.473-.448.276-1.667-.136-2.71-.916-1.793-1.341-1.767-1.385.487-.816 1.773.448 2.26.242 1.896-.8-.268-.771-1.228-1.27-2.134-1.108s-1.646-.113-1.646-.61c0-1.368-6.697-8.183-8.04-8.184-1.264 0-.447 5.053.968 5.991 1.274.844.882 7.15-.413 6.653-.657-.252-1.123.469-1.084 1.676.084 2.591-2.923 3.446-3.828 1.089-.357-.929.047-2.752.897-4.05 1.424-2.172 1.405-2.362-.227-2.394-.976-.02-2.897-.658-4.27-1.418-1.696-.939-2.884-1.061-3.702-.382-1.603 1.33-5.582.011-4.95-1.641.545-1.42-1.94-5.524-3.343-5.524-1.258 0-10.008-8.116-10.008-9.282 0-.581 1.664-.708 4.125-.314 3.832.613 4.086.511 3.58-1.429-.45-1.717-.294-1.879.874-.91 2.272 1.886 1.639-.557-.69-2.659-1.16-1.048-2.975-3.744-4.033-5.992-1.69-3.592-9.922-9.936-15.158-11.681-3.332-1.111 3.063-11.87 6.517-10.966 1.767.462 1.998.235 1.38-1.356-1.235-3.177-1.163-3.926.35-3.596 2.291.498 6.055-1.977 6.055-3.984 0-1.079.72-1.831 1.755-1.831 2.437 0 4.522-6.525 2.596-8.124-.743-.616-1.35-1.939-1.35-2.939-.001-1.001-.451-2.097-1-2.437-.55-.34-1-1.518-1-2.618s-.404-1.752-.895-1.448c-.49.303-1.843-1.357-3.005-3.691s-2.66-5.143-3.328-6.243-2.239-3.678-3.493-5.729c-2.852-4.664-2.888-7.741-.126-10.706 1.922-2.063 1.98-2.41.542-3.215-.887-.497-1.358-1.568-1.045-2.382.387-1.012-.573-1.955-3.043-2.987-1.984-.829-3.645-2.064-3.69-2.744-.242-3.637-1.198-7.557-2.465-10.115-.785-1.582-1.159-3.945-.832-5.25.405-1.611.16-2.392-.764-2.435-.746-.035-.333-.475.918-.977 2.606-1.047 2.206-5.5-.687-7.629-4.752-3.496-5.041-3.891-4.456-6.081.33-1.238 1.379-2.25 2.33-2.25.95 0 2.543-.9 3.538-2s2.231-2 2.745-2 1.779-1.012 2.81-2.25c1.615-1.934 1.883-2.003 1.912-.49.018.968-.867 2.53-1.967 3.472-2.538 2.173-2.518 2.899.1 3.584 1.157.303 1.805 1.029 1.442 1.617-.363.587-.445 1.067-.183 1.067.263 0 1.25.298 2.196.66 1.212.464 1.572.243 1.224-.75-.57-1.629 2.992-7.17 4.15-6.454.427.264 1.613-.132 2.636-.879 2.017-1.475.615-4.576-2.069-4.577-1.332 0-4.101-8.453-3.604-11 .162-.825.239-3.222.17-5.326-.108-3.399.22-3.954 2.949-4.984 2.134-.806 3.024-1.774 2.919-3.175-.26-3.456.036-4.654 1-4.058a1.09 1.09 0 0 0 1.502-.347c.313-.507 1.402-.705 2.42-.438 2.56.669 5.59-2.434 4.113-4.214-.807-.972-.795-1.907.043-3.472.63-1.178.9-2.782.6-3.564-.38-.993.2-1.422 1.923-1.422 1.358 0 2.469-.45 2.47-1 0-.55-.437-1-.97-1s-.71-.675-.393-1.5c.33-.861.02-1.5-.73-1.5-1.018 0-1.041-.267-.108-1.2.66-.66 1.2-1.948 1.2-2.862 0-1.277 1.32-1.818 5.684-2.331 3.126-.367 6.276-1.159 7-1.76 1.767-1.466 1.673-3.846-.153-3.847-.894 0-1.243.586-.893 1.5.363.945-.011 1.5-1.011 1.5-1.986 0-1.574-5.786.506-7.103 3.478-2.204-2.762-.68-7.275 1.776-3.573 1.945-5.211 2.374-6.012 1.573-.743-.743-1.913-.79-3.605-.148-4.224 1.606-6.24.29-6.24-4.07 0-4.477 3.34-6.913 15.25-11.124 7.366-2.604 7.512-2.802 5.108-6.871-1.99-3.368-1.188-7.635 1.6-8.52 2.676-.849 9.035.449 9.056 1.848.042 3.128 1.618 3.829 5.793 2.579 4.398-1.318 5.909-3.37 4.09-5.56-.88-1.063-.605-1.805 1.234-3.325 2.036-1.682 2.524-1.753 3.477-.506 1.928 2.52 17.01-1.493 15.954-4.243-.865-2.257 4.422-5.084 5.593-2.991 1.402 2.505 4.122 2.048 7.252-1.219 2.783-2.905 2.783-2.905.625-5.062-3.774-3.774-.756-10.609 4.56-10.326 5.589.297 6.264.495 5.822 1.71-.217.595-.005 1.692.47 2.437 1.046 1.642 5.668-.946 6.598-3.694.309-.914 3.365-3.792 6.79-6.397 3.42-2.6 6.265-4.737 6.328-4.75m65.339 318.986c.582 0 1.06.45 1.06 1s-.198 1-.441 1-.719-.45-1.059-1-.141-.999.44-1m-91.94-7.618c0-.825.45-1.222 1-.882s1 1.294 1 2.119c0 .824-.45 1.221-1 .881s-1-1.293-1-2.118m85.5-1.382c.275 0 .5.225.5.5s-.225.5-.5.5a.5.5 0 0 1-.5-.5c0-.275.225-.5.5-.5m-127.56-8c.582 0 1.06.45 1.06 1s-.198 1-.441 1-.72-.45-1.059-1c-.34-.55-.141-.999.44-1m-2.94-1c.55 0 1 .45 1 1s-.45 1-1 1-1-.45-1-1 .45-1 1-1m60 1.107c0-1.644-2.785-1.984-4.653-.57-1.705 1.292-1.597 1.402 1.403 1.431 1.787.018 3.25-.37 3.25-.861m-45-2.107c.733 0 1.033.3.667.667a.95.95 0 0 1-1.334 0c-.366-.367-.066-.667.667-.667m-9.583.079c1.054-.043 1.644.193 1.312.525s-1.195.368-1.916.079c-.798-.319-.56-.556.604-.604m1.583-3.079c.55 0 1 .45 1 1s-.45 1-1 1-1-.45-1-1 .45-1 1-1m-8.5-1c.825 0 1.5.661 1.5 1.469 0 .894-.586 1.243-1.5.893-.825-.317-1.5-.978-1.5-1.469s.675-.893 1.5-.893m-.5-8c.55 0 1 .198 1 .441s-.45.719-1 1.059-1 .141-1-.441.45-1.059 1-1.059m200.5-6c.825 0 1.5.17 1.5.378 0 .207-.675.938-1.5 1.622-1.229 1.02-1.5.951-1.5-.378 0-.892.675-1.622 1.5-1.622m5-1c.275 0 .5.225.5.5s-.225.5-.5.5a.5.5 0 0 1-.5-.5c0-.275.225-.5.5-.5m-1.808-3.641c.54-1.409.707-1.398 1.549.107 1.058 1.89.425 3.064-1.132 2.102-.561-.349-.749-1.342-.417-2.209m-3.534-.359c0-1.375.227-1.937.504-1.25.278.688.278 1.813 0 2.5-.277.688-.504.125-.504-1.25m2.342-1c.275 0 .5.225.5.5s-.225.5-.5.5a.5.5 0 0 1-.5-.5c0-.275.225-.5.5-.5m-5.844-1.455q-.555-1.444.895-.886c1.68.645 1.794 1.01.554 1.776-.493.305-1.145-.096-1.449-.89m6.844-.545c.275 0 .5.225.5.5s-.225.5-.5.5a.5.5 0 0 1-.5-.5c0-.275.225-.5.5-.5m39.5-3c0-.733.3-1.033.667-.667a.95.95 0 0 1 0 1.334c-.367.366-.667.066-.667-.667m-6-10.441c0-1.757.6-2.015 1.457-.628.317.512.118 1.214-.441 1.56-.559.344-1.016-.075-1.016-.932M39.241 257.57c-2.373-.911-2.69-.758-2.025.975.334.87.607 1.77.607 2s.675.418 1.5.418c1.99 0 1.928-2.622-.082-3.393m255.48-5.607c1.658 0 8.149 6.113 7.54 7.101-1.492 2.413-6.742-.804-7.918-4.851-.379-1.302-.22-2.249.378-2.25m-20.398 4c-.275 0-.5.225-.5.5s.225.5.5.5.5-.225.5-.5-.225-.5-.5-.5m-6-3c-.275 0-.5.225-.5.5s.225.5.5.5.5-.225.5-.5-.225-.5-.5-.5m-1.677-3.667c-.389-2.009-2.386-2.848-3.29-1.385-.88 1.423.242 3.052 2.099 3.052.876 0 1.378-.703 1.191-1.667m2.677.667c-.275 0-.5.225-.5.5s.225.5.5.5.5-.225.5-.5-.225-.5-.5-.5m-245-17c.275 0 .5.225.5.5s-.225.5-.5.5a.5.5 0 0 1-.5-.5c0-.275.225-.5.5-.5m2 0c.275 0 .5.225.5.5s-.225.5-.5.5a.5.5 0 0 1-.5-.5c0-.275.225-.5.5-.5m4-50c-.275 0-.5.225-.5.5s.225.5.5.5.5-.225.5-.5-.225-.5-.5-.5m-4.5 0c.733 0 1.033.3.667.667a.95.95 0 0 1-1.334 0c-.366-.367-.066-.667.667-.667m-1.281-14.918c.165-2.193-1.234-3.676-2.118-2.246-.295.478.026 1.64.713 2.579 1.154 1.578 1.263 1.552 1.405-.333m1.781-2.082c-.275 0-.5.225-.5.5s.225.5.5.5.5-.225.5-.5-.225-.5-.5-.5m251.7-11.799c3.351-3.351 7.363-.019 6.367 5.289-.771 4.111-2.856 4.579-5.624 1.26-2.183-2.616-2.436-4.856-.743-6.549m-277.2 2.799c.733 0 1.033.3.667.667a.95.95 0 0 1-1.334 0c-.366-.367-.066-.667.667-.667m286.094-9c.498 0 .906.9.906 2s-.173 1.999-.383 2-.619-.9-.907-2c-.287-1.1-.115-2 .384-2m-1.594-2c.275 0 .5.225.5.5s-.225.5-.5.5a.5.5 0 0 1-.5-.5c0-.275.225-.5.5-.5m7.882-3c.275 0 .778.45 1.118 1s.393 1 .118 1-.778-.45-1.118-1-.393-1-.118-1M18.68 133.08c.195-.064.119.503-.172 1.261s0 1.909.643 2.557c.9.904.602.968-1.277.276-3.058-1.127-3.74-2.892-1.356-3.51.992-.257 1.965-.52 2.162-.584m8.81-1.45c1.116-1.117 2-.749 2 .833 0 .825-.6 1.5-1.334 1.5-1.419 0-1.77-1.229-.666-2.333m266.273.333c.582 0 1.06.45 1.06 1s-.198 1-.441 1-.719-.45-1.059-1-.141-.999.44-1m2.56 1c.275 0 .5.225.5.5s-.225.5-.5.5a.5.5 0 0 1-.5-.5c0-.275.225-.5.5-.5m-275.5-4c.55 0 1 .675 1 1.5s-.45 1.5-1 1.5-1-.675-1-1.5.45-1.5 1-1.5m282 .128c3.258-1.305 5-1.362 5-.163 0 1.749-3.891 3.196-5.763 2.142-1.557-.876-1.478-1.081.763-1.979m-288.434-3.23c3.127-1.225 4.078-.943 2.037.602-1.044.79-2.364 1.148-2.934.795-.598-.369-.218-.96.896-1.397m276.493-.898c.518 0 .941.45.941 1s-.703 1-1.56 1c-.856 0-1.28-.45-.94-1s1.041-1 1.559-1m-37.559-20c-.275 0-.5.225-.5.5s.225.5.5.5.5-.225.5-.5-.225-.5-.5-.5m-215-3c.275 0 .5.225.5.5s-.225.5-.5.5a.5.5 0 0 1-.5-.5c0-.275.225-.5.5-.5m5-1c.275 0 .5.225.5.5s-.225.5-.5.5a.5.5 0 0 1-.5-.5c0-.275.225-.5.5-.5m-11.25-5.017c1.787-1.093 3.85-1.76 4.582-1.485.732.276 2.082.538 3 .581.999.047 1.176.279.442.576-.673.272-1.452.35-1.73.17-.278-.178-1.215.687-2.081 1.925-1.028 1.467-2.602 2.25-4.52 2.25-3.852 0-3.733-1.546.307-4.017m228.25 3.017c.275 0 .5.225.5.5s-.225.5-.5.5a.5.5 0 0 1-.5-.5c0-.275.225-.5.5-.5m-218-1c.275 0 .5.225.5.5s-.225.5-.5.5a.5.5 0 0 1-.5-.5c0-.275.225-.5.5-.5m12.32-8.171c-.347-2.352-2.271-3.527-3.232-1.972-.907 1.468.44 4.143 2.089 4.143.932 0 1.346-.787 1.143-2.171m184.68-14.829c.275 0 .5.225.5.5s-.225.5-.5.5a.5.5 0 0 1-.5-.5c0-.275.225-.5.5-.5m34.5-2.004c0-.513.675-.721 1.5-.464.825.258 2.25.709 3.167 1.001 1.174.376 1.353.846.607 1.592-1.18 1.18-5.273-.473-5.274-2.129M69.807 71.213c.022-1.797-1.658-1.54-2.39.364-.392 1.023-1.345 1.423-2.606 1.093-1.092-.285-1.987-.16-1.988.278s1.195 1.099 2.655 1.466c2.667.668 4.296-.536 4.33-3.2m174.575-2.25c-.243 0-.719.45-1.059 1s-.141 1 .44 1c.582 0 1.06-.45 1.06-1s-.198-1-.441-1m-3.059-1c-.275 0-.5.225-.5.5s.225.5.5.5.5-.225.5-.5-.225-.5-.5-.5m-97.083-21.92c-1.165.047-1.402.284-.604.603.721.289 1.584.253 1.916-.08.332-.331-.258-.567-1.312-.524m37.583-2.08c-.733 0-1.033.3-.667.667a.95.95 0 0 0 1.334 0c.366-.367.066-.667-.667-.667m-34.478-9.63c-1.136-.435-1.813.026-2.198 1.5-.307 1.172-1.18 2.13-1.941 2.13-.76 0-1.383.45-1.383 1 0 1.52 2.594 1.195 4-.5.685-.825 2.288-1.5 3.563-1.5s2.597-.45 2.937-1-.272-1-1.359-1c-1.088 0-2.717-.283-3.619-.63m-8.398 2.363c-.988-.98-1.102-.865-.56.56.376.986.935 1.54 1.243 1.233s.001-1.114-.683-1.793m21.376-6.733c.275 0 .5.225.5.5s-.225.5-.5.5a.5.5 0 0 1-.5-.5c0-.275.225-.5.5-.5m45.5-1c.733 0 1.033.3.667.667a.95.95 0 0 1-1.334 0c-.366-.367-.066-.667.667-.667m5-4c.55 0 1 .198 1 .44 0 .244-.45.72-1 1.06s-1 .14-1-.441c0-.582.45-1.059 1-1.059m-34.5 0c.275 0 .5.225.5.5s-.225.5-.5.5a.5.5 0 0 1-.5-.5c0-.275.225-.5.5-.5m-3.5-6c.733 0 1.033.3.667.667a.95.95 0 0 1-1.334 0c-.366-.367-.066-.667.667-.667m1-3c0-.733.3-1.033.667-.667a.95.95 0 0 1 0 1.334c-.367.366-.667.066-.667-.667m35-2c.733 0 1.033.3.667.667a.95.95 0 0 1-1.334 0c-.366-.367-.066-.667.667-.667m-31.5-1c.275 0 .5.225.5.5s-.225.5-.5.5a.5.5 0 0 1-.5-.5c0-.275.225-.5.5-.5m-11-2c.275 0 .5.225.5.5s-.225.5-.5.5a.5.5 0 0 1-.5-.5c0-.275.225-.5.5-.5m9.5 0c0-.733.3-1.033.667-.667a.95.95 0 0 1 0 1.334c-.367.366-.667.066-.667-.667m-4.5-1c.275 0 .5.225.5.5s-.225.5-.5.5a.5.5 0 0 1-.5-.5c0-.275.225-.5.5-.5m-38.941-3c.243 0 .441.45.441 1s-.478 1-1.06 1c-.581 0-.78-.45-.44-1s.816-1 1.059-1m-9.559 1c.733 0 1.033.3.667.667a.95.95 0 0 1-1.334 0c-.366-.367-.066-.667.667-.667m44.381-5.652c2.929-2.519 5.619-3.082 5.619-1.177 0 1.726-3.081 4.829-4.795 4.83-.816 0-2.026.74-2.688 1.645-1.062 1.452-1.184 1.375-1.035-.65.093-1.265 1.398-3.356 2.899-4.648" data-figma-scatter="f0.51_w0.06_aj180_sj0.65_r0_s0_sw3" data-figma-scatter-ref="stroke0_184_5674_ref"/></defs></svg>