<svg xmlns="http://www.w3.org/2000/svg" xmlns:xlink="http://www.w3.org/1999/xlink" width="296" height="105" fill="none" viewBox="0 0 296 105"><path fill="#e0cea5" fill-opacity=".56" d="m270.953 1.681 21.801 20.705v7.07l-4.265 29.29 4.265 36.36-81.991 7.575-117.064-7.575-86.257 7.575 7.109-30.3L1.754 29.456 7.442 1.681l71.09 11.615c25.594-1.851 84.647-4.444 116.117 0 21.232 2.424 59.716-6.733 76.304-11.615"/><use xlink:href="#a" transform="matrix(.00255 -.008 -.008 -.00255 293.677 24.12)"/><use xlink:href="#a" transform="matrix(.01216 .00657 .00657 -.01216 288.295 22.11)"/><use xlink:href="#a" transform="matrix(-.0055 .00229 .00229 .0055 290.821 18.59)"/><use xlink:href="#a" transform="rotate(124.161 139.807 85.342)scale(.0076 -.0076)"/><use xlink:href="#a" transform="matrix(.0055 .00086 .00086 -.0055 287.675 19.108)"/><use xlink:href="#a" transform="rotate(92.205 135.33 145.395)scale(.01074 -.01074)"/><use xlink:href="#a" transform="rotate(47.673 125.985 335.116)scale(-.011 .011)"/><use xlink:href="#a" transform="rotate(-174.774 143.502 .64)scale(.00636 -.00636)"/><use xlink:href="#a" transform="rotate(69.745 132.215 213.243)scale(-.01095 .01095)"/><use xlink:href="#a" transform="rotate(112.677 137.468 99.465)scale(.00939 -.00939)"/><use xlink:href="#a" transform="rotate(141.39 138.28 56.495)scale(-.0103 .0103)"/><use xlink:href="#a" transform="matrix(.00535 .00139 .00139 -.00535 279.8 11.68)"/><use xlink:href="#a" transform="rotate(73.183 133.372 195.378)scale(-.00872 .00872)"/><use xlink:href="#a" transform="rotate(95.526 135.353 132.306)scale(-.00562 .00562)"/><use xlink:href="#a" transform="rotate(149.177 137.077 43.869)scale(-.0122 .0122)"/><use xlink:href="#a" transform="rotate(19.284 112.49 809.377)scale(.0141 -.0141)"/><use xlink:href="#a" transform="rotate(72.446 133.852 191.937)scale(-.00614 .00614)"/><use xlink:href="#a" transform="matrix(-.00427 .0059 .0059 .00427 274.135 3.298)"/><use xlink:href="#a" transform="matrix(.0078 .00204 .00204 -.0078 271.846 5.108)"/><use xlink:href="#a" transform="matrix(-.00439 .00924 .00924 .00439 271.611 .753)"/><use xlink:href="#a" transform="matrix(.0052 -.00227 -.00227 -.0052 270.921 3.423)"/><use xlink:href="#a" transform="rotate(180.33 134.78 1.053)scale(-.00655 .00655)"/><use xlink:href="#a" transform="rotate(137.435 134.7 52.731)scale(.00727 -.00727)"/><use xlink:href="#a" transform="rotate(-70.436 134.5 -189.11)scale(-.007 .007)"/><use xlink:href="#a" transform="rotate(151.571 132.5 36.355)scale(-.01046 .01046)"/><use xlink:href="#a" transform="matrix(.00468 .01355 .01355 -.00468 261.949 1.92)"/><use xlink:href="#a" transform="rotate(117.27 130.704 81.344)scale(.00598 -.00598)"/><use xlink:href="#a" transform="matrix(-.00186 .00665 .00665 .00186 261.483 2.61)"/><use xlink:href="#a" transform="matrix(.00175 .0055 .0055 -.00175 260.108 3.853)"/><use xlink:href="#a" transform="matrix(.002 -.01122 -.01122 -.002 261.436 6.809)"/><use xlink:href="#a" transform="rotate(142.872 128.058 46.634)scale(-.00622 .00622)"/><use xlink:href="#a" transform="matrix(-.00036 .00543 .00543 .00036 256.688 4.378)"/><use xlink:href="#a" transform="matrix(-.00688 .00512 .00512 .00688 256.628 3.414)"/><use xlink:href="#a" transform="rotate(174.555 126.286 10.08)scale(-.01203 .01203)"/><use xlink:href="#a" transform="matrix(-.00372 .0041 .0041 .00372 253.257 5.13)"/><use xlink:href="#a" transform="rotate(169.101 125.27 15.889)scale(-.0073 .0073)"/><use xlink:href="#a" transform="rotate(20.32 111.597 710.041)scale(-.0143 .0143)"/><use xlink:href="#a" transform="matrix(.01128 .00824 .00824 -.01128 244.985 7.965)"/><use xlink:href="#a" transform="rotate(24.187 108.651 583.794)scale(-.0123 .0123)"/><use xlink:href="#a" transform="matrix(.00054 .01187 .01187 -.00054 242.06 6.62)"/><use xlink:href="#a" transform="rotate(8.112 48.886 1699.07)scale(.0107 -.0107)"/><use xlink:href="#a" transform="rotate(40.875 109.387 329.997)scale(-.00814 .00814)"/><use xlink:href="#a" transform="rotate(72.518 113.493 170.196)scale(-.01303 .01303)"/><use xlink:href="#a" transform="rotate(78.689 112.787 151.18)scale(-.00826 .00826)"/><use xlink:href="#a" transform="rotate(139.5 116.563 47.13)scale(.01155 -.01155)"/><use xlink:href="#a" transform="rotate(12.725 79.11 1063.363)scale(-.01307 .01307)"/><use xlink:href="#a" transform="rotate(48.747 103.618 259.612)scale(.00655 -.00655)"/><use xlink:href="#a" transform="matrix(-.00005 .00924 .00924 .00005 229.19 9.452)"/><use xlink:href="#a" transform="rotate(28.944 88.876 443.241)scale(.0143 -.0143)"/><use xlink:href="#a" transform="rotate(90.956 107.68 115.523)scale(.01064 -.01064)"/><use xlink:href="#a" transform="rotate(70.25 104.493 167.317)scale(-.00604 .00604)"/><use xlink:href="#a" transform="rotate(72.58 104.187 160.66)scale(-.0113 .0113)"/><use xlink:href="#a" transform="matrix(.012 .00218 .00218 -.012 219.685 13.987)"/><use xlink:href="#a" transform="matrix(-.00175 .0082 .0082 .00175 219.219 10.901)"/><use xlink:href="#a" transform="rotate(-94.703 117.019 -94.44)scale(.01152 -.01152)"/><use xlink:href="#a" transform="matrix(-.01005 .002 .002 .01005 218.141 10.744)"/><use xlink:href="#a" transform="rotate(45.4 90.549 260.358)scale(.01151 -.01151)"/><use xlink:href="#a" transform="matrix(-.0067 .0039 .0039 .0067 213.885 11.383)"/><use xlink:href="#a" transform="rotate(108.19 101.256 84.289)scale(-.00593 .00593)"/><use xlink:href="#a" transform="matrix(-.00551 .0084 .0084 .00551 210.488 11.223)"/><use xlink:href="#a" transform="rotate(150.524 103.447 33.46)scale(.00729 -.00729)"/><use xlink:href="#a" transform="rotate(112.516 99.443 77.383)scale(-.0069 .0069)"/><use xlink:href="#a" transform="rotate(165.641 103.42 18.602)scale(.01299 -.01299)"/><use xlink:href="#a" transform="rotate(102.79 97.028 87.12)scale(.01027 -.01027)"/><use xlink:href="#a" transform="rotate(170.818 100.59 15.642)scale(-.00704 .00704)"/><use xlink:href="#a" transform="rotate(93.569 94.605 103.021)scale(-.0078 .0078)"/><use xlink:href="#a" transform="rotate(148.484 97.967 35.994)scale(-.00852 .00852)"/><use xlink:href="#a" transform="rotate(69.268 89.16 148.46)scale(.01204 -.01204)"/><use xlink:href="#a" transform="rotate(90.244 92.038 104.146)scale(.00579 -.00579)"/><use xlink:href="#a" transform="rotate(119.203 93.769 65.707)scale(-.0104 .0104)"/><use xlink:href="#a" transform="rotate(177.184 96.177 9.914)scale(-.0111 .0111)"/><use xlink:href="#a" transform="matrix(-.0008 -.0121 -.0121 .0008 194.673 14.883)"/><use xlink:href="#a" transform="rotate(55.254 83.764 190.474)scale(-.00691 .00691)"/><use xlink:href="#a" transform="matrix(-.00571 .0051 .0051 .00571 189.817 10.937)"/><use xlink:href="#a" transform="rotate(94.767 88.484 92.097)scale(.00622 -.00622)"/><use xlink:href="#a" transform="rotate(152.078 92.732 28.128)scale(.0132 -.0132)"/><use xlink:href="#a" transform="rotate(154.26 90.174 28.551)scale(-.01323 .01323)"/><use xlink:href="#a" transform="rotate(27.01 62.792 380.94)scale(.0126 -.0126)"/><use xlink:href="#a" transform="rotate(-174.685 91.347 1.231)scale(.00622 -.00622)"/><use xlink:href="#a" transform="matrix(-.007 -.00133 -.00133 .007 181.342 10.849)"/><use xlink:href="#a" transform="matrix(-.0032 .01059 .01059 .0032 177.213 9.32)"/><use xlink:href="#a" transform="rotate(156.648 86.102 25.477)scale(-.0137 .0137)"/><use xlink:href="#a" transform="rotate(189.75 86.61 -.877)scale(-.01153 .01153)"/><use xlink:href="#a" transform="rotate(182.847 85.52 4.401)scale(-.01032 .01032)"/><use xlink:href="#a" transform="rotate(183.658 84.787 3.706)scale(-.00955 .00955)"/><use xlink:href="#a" transform="rotate(-107.205 90 -57.047)scale(.0086 -.0086)"/><use xlink:href="#a" transform="rotate(179.54 83 6.802)scale(-.01042 .01042)"/><use xlink:href="#a" transform="rotate(155.707 82.5 22.198)scale(.01247 -.01247)"/><use xlink:href="#a" transform="rotate(32.339 64.547 291.515)scale(-.008 .008)"/><use xlink:href="#a" transform="rotate(173.05 79.831 11.69)scale(-.01318 .01318)"/><use xlink:href="#a" transform="rotate(76.37 73.165 106.364)scale(.00695 -.00695)"/><use xlink:href="#a" transform="rotate(132.561 77.63 39.885)scale(.00616 -.00616)"/><use xlink:href="#a" transform="matrix(.0028 -.0051 -.0051 -.0028 158.993 12.297)"/><use xlink:href="#a" transform="rotate(119.42 74.896 53.045)scale(-.0127 .0127)"/><use xlink:href="#a" transform="rotate(57.908 68.336 147.586)scale(-.00736 .00736)"/><use xlink:href="#a" transform="rotate(59.217 68.304 143.717)scale(-.01415 .01415)"/><use xlink:href="#a" transform="matrix(-.00207 .007 .007 .00207 150.976 9.226)"/><use xlink:href="#a" transform="rotate(172.353 75.692 9.3)scale(.01332 -.01332)"/><use xlink:href="#a" transform="rotate(160.518 72.856 18.87)scale(-.00632 .00632)"/><use xlink:href="#a" transform="rotate(106.568 69.464 61.413)scale(-.00671 .00671)"/><use xlink:href="#a" transform="rotate(82.732 67.05 89.71)scale(-.00722 .00722)"/><use xlink:href="#a" transform="matrix(-.004 .00763 .00763 .004 144.268 9.05)"/><use xlink:href="#a" transform="rotate(112.944 68.137 53.772)scale(-.00585 .00585)"/><use xlink:href="#a" transform="rotate(143.027 69.9 28.209)scale(.00912 -.00912)"/><use xlink:href="#a" transform="rotate(147.845 68.203 26.86)scale(-.01088 .01088)"/><use xlink:href="#a" transform="rotate(10.71 5.907 741.086)scale(.00739 -.00739)"/><use xlink:href="#a" transform="rotate(90.477 63.594 75.09)scale(-.00692 .00692)"/><use xlink:href="#a" transform="rotate(146.947 67.256 24.9)scale(.00723 -.00723)"/><use xlink:href="#a" transform="matrix(.00084 .01 .01 -.00084 133.635 9.548)"/><use xlink:href="#a" transform="rotate(57.168 57.495 130.246)scale(-.0079 .0079)"/><use xlink:href="#a" transform="rotate(124.56 63.696 39.229)scale(.00902 -.00902)"/><use xlink:href="#a" transform="rotate(154.184 63.243 21.902)scale(-.01324 .01324)"/><use xlink:href="#a" transform="rotate(146.132 63.257 24.055)scale(.00971 -.00971)"/><use xlink:href="#a" transform="rotate(178.15 63.118 7.089)scale(-.00637 .00637)"/><use xlink:href="#a" transform="rotate(44.345 50.312 162.266)scale(-.0056 .0056)"/><use xlink:href="#a" transform="rotate(40.849 46.92 171.639)scale(.00721 -.00721)"/><use xlink:href="#a" transform="rotate(108.673 58.282 49.068)scale(.00709 -.00709)"/><use xlink:href="#a" transform="rotate(136.041 58.463 31.74)scale(-.01203 .01203)"/><use xlink:href="#a" transform="rotate(55.914 50.397 121.18)scale(-.00629 .00629)"/><use xlink:href="#a" transform="rotate(178.113 60.395 6.168)scale(.00562 -.00562)"/><use xlink:href="#a" transform="rotate(-58.659 72.17 -99.162)scale(.01149 -.01149)"/><use xlink:href="#a" transform="rotate(49.195 47.33 136.636)scale(-.01421 .01421)"/><use xlink:href="#a" transform="rotate(48.373 44.096 131.69)scale(.00659 -.00659)"/><use xlink:href="#a" transform="rotate(188.639 55.832 2.478)scale(-.01324 .01324)"/><use xlink:href="#a" transform="matrix(-.0048 -.0037 -.0037 .0048 112.924 11.224)"/><use xlink:href="#a" transform="rotate(16.765 18.719 384.596)scale(-.00581 .00581)"/><use xlink:href="#a" transform="rotate(-164.234 56.438 -2.64)scale(.01195 -.01195)"/><use xlink:href="#a" transform="matrix(.00993 -.005 -.005 -.00993 106.361 14.274)"/><use xlink:href="#a" transform="rotate(65.016 43.99 90.688)scale(-.01023 .01023)"/><use xlink:href="#a" transform="matrix(-.00767 .0031 .0031 .00767 104.554 10.009)"/><use xlink:href="#a" transform="rotate(-48.09 66.82 -108.02)scale(.00829 -.00829)"/><use xlink:href="#a" transform="matrix(.01075 -.01 -.01 -.01075 100.444 15.34)"/><use xlink:href="#a" transform="rotate(33.95 31.202 170.397)scale(-.00805 .00805)"/><use xlink:href="#a" transform="matrix(-.0056 .00512 .00512 .0056 97.398 10.468)"/><use xlink:href="#a" transform="rotate(179.247 47.619 6.883)scale(-.0057 .0057)"/><use xlink:href="#a" transform="rotate(-52.91 57.8 -90.004)scale(-.00869 .00869)"/><use xlink:href="#a" transform="rotate(171.393 47.167 8.485)scale(.014 -.014)"/><use xlink:href="#a" transform="matrix(-.0032 .01395 .01395 .0032 88.973 9.545)"/><use xlink:href="#a" transform="matrix(.00155 .0086 .0086 -.00155 87.194 11.55)"/><use xlink:href="#a" transform="rotate(170.193 43.72 9.554)scale(.00574 -.00574)"/><use xlink:href="#a" transform="rotate(119.234 39.314 32.763)scale(-.00701 .00701)"/><use xlink:href="#a" transform="rotate(60.07 32.134 82.748)scale(-.01242 .01242)"/><use xlink:href="#a" transform="rotate(158.702 40.145 14.948)scale(-.00577 .00577)"/><use xlink:href="#a" transform="rotate(54.216 29.143 88.513)scale(-.00614 .00614)"/><use xlink:href="#a" transform="rotate(82.946 33.32 51.648)scale(.00558 -.00558)"/><use xlink:href="#a" transform="rotate(-166.34 41.987 .934)scale(.01302 -.01302)"/><use xlink:href="#a" transform="rotate(169.259 39.107 9.538)scale(.00867 -.00867)"/><use xlink:href="#a" transform="rotate(95.766 32.538 42.324)scale(-.0064 .0064)"/><use xlink:href="#a" transform="matrix(.0005 .01315 .01315 -.0005 73.061 10.758)"/><use xlink:href="#a" transform="rotate(105.086 31.55 36.205)scale(-.01283 .01283)"/><use xlink:href="#a" transform="rotate(-164.604 37.494 .33)scale(.01143 -.01143)"/><use xlink:href="#a" transform="rotate(-61.819 47.282 -51.27)scale(.01323 -.01323)"/><use xlink:href="#a" transform="rotate(75.4 26.193 48.462)scale(.00566 -.00566)"/><use xlink:href="#a" transform="rotate(85.63 26.966 39.31)scale(.0118 -.0118)"/><use xlink:href="#a" transform="rotate(25.302 5.99 146.907)scale(.00624 -.00624)"/><use xlink:href="#a" transform="rotate(90.808 26.226 38.7)scale(-.01315 .01315)"/><use xlink:href="#a" transform="rotate(196.439 30.03 1.822)scale(-.01297 .01297)"/><use xlink:href="#a" transform="matrix(-.00547 .01369 .01369 .00547 57.33 6.796)"/><use xlink:href="#a" transform="rotate(179.868 27.214 5.92)scale(-.01248 .01248)"/><use xlink:href="#a" transform="matrix(.01 .0032 .0032 -.01 52.421 10.486)"/><use xlink:href="#a" transform="matrix(-.00492 .00259 .00259 .00492 53.641 7.88)"/><use xlink:href="#a" transform="rotate(76.873 20.615 38.545)scale(-.00565 .00565)"/><use xlink:href="#a" transform="rotate(68.92 18.337 38.68)scale(.01353 -.01353)"/><use xlink:href="#a" transform="matrix(-.0061 -.0026 -.0026 .0061 50.546 7.85)"/><use xlink:href="#a" transform="matrix(-.00427 .0039 .0039 .00427 48.114 7.11)"/><use xlink:href="#a" transform="matrix(.01208 .0029 .0029 -.01208 44.111 9.789)"/><use xlink:href="#a" transform="rotate(5.793 -34.94 465.122)scale(-.01225 .01225)"/><use xlink:href="#a" transform="rotate(174.165 20.172 5.85)scale(-.01197 .01197)"/><use xlink:href="#a" transform="rotate(35.228 11.328 71.55)scale(-.01184 .01184)"/><use xlink:href="#a" transform="rotate(200.263 18.65 .78)scale(-.01291 .01291)"/><use xlink:href="#a" transform="rotate(63.465 13.537 34.435)scale(-.00553 .00553)"/><use xlink:href="#a" transform="rotate(48.08 11.504 45.439)scale(-.0068 .0068)"/><use xlink:href="#a" transform="matrix(.0088 .00151 .00151 -.0088 33.05 7.506)"/><use xlink:href="#a" transform="rotate(64.283 11.146 26.52)scale(.01256 -.01256)"/><use xlink:href="#a" transform="rotate(147.395 15.32 6.239)scale(.0104 -.0104)"/><use xlink:href="#a" transform="rotate(-167.047 15.726 .498)scale(.0059 -.0059)"/><use xlink:href="#a" transform="matrix(-.00203 .00666 .00666 .00203 27.948 3.615)"/><use xlink:href="#a" transform="rotate(102.585 11.694 11.52)scale(.0125 -.0125)"/><use xlink:href="#a" transform="rotate(72.53 9.247 18.12)scale(.00796 -.00796)"/><use xlink:href="#a" transform="matrix(-.0055 .00058 .00058 .0055 25.125 3.408)"/><use xlink:href="#a" transform="rotate(97.19 9.897 11.58)scale(.0055 -.0055)"/><use xlink:href="#a" transform="rotate(83.582 9.029 15.703)scale(-.00635 .00635)"/><use xlink:href="#a" transform="rotate(144.241 9.346 6.503)scale(-.01006 .01006)"/><use xlink:href="#a" transform="rotate(23.71 5.087 53.303)scale(-.01169 .01169)"/><use xlink:href="#a" transform="rotate(148.745 8.821 3.425)scale(.00698 -.00698)"/><use xlink:href="#a" transform="rotate(61.848 6.113 17.562)scale(-.01071 .01071)"/><use xlink:href="#a" transform="rotate(116.476 6.179 7.193)scale(-.00845 .00845)"/><use xlink:href="#a" transform="rotate(170.006 6.043 2.638)scale(-.00739 .00739)"/><use xlink:href="#a" transform="rotate(153.863 4.689 4.001)scale(-.01397 .01397)"/><use xlink:href="#a" transform="rotate(72.507 2.96 5.043)scale(.01257 -.01257)"/><use xlink:href="#a" transform="rotate(72.775 2.927 7.48)scale(-.0059 .0059)"/><use xlink:href="#a" transform="rotate(99.605 2.687 5.36)scale(-.00727 .00727)"/><use xlink:href="#a" transform="matrix(-.0032 -.0073 -.0073 .0032 8.904 4.13)"/><use xlink:href="#a" transform="rotate(63.091 -.023 9.339)scale(-.00682 .00682)"/><use xlink:href="#a" transform="rotate(75.32 -.88 5.415)scale(.0099 -.0099)"/><use xlink:href="#a" transform="rotate(45.632 -4.836 13.32)scale(-.0077 .0077)"/><use xlink:href="#a" transform="rotate(73.38 -2.572 9.89)scale(-.00745 .00745)"/><use xlink:href="#a" transform="rotate(-83.547 9.452 1.644)scale(.0058 -.0058)"/><use xlink:href="#a" transform="rotate(-159.637 4.703 4.366)scale(.00936 -.00936)"/><use xlink:href="#a" transform="rotate(-160.559 4.704 5.138)scale(.01056 -.01056)"/><use xlink:href="#a" transform="rotate(-37.363 25.203 .992)scale(.00647 -.00647)"/><use xlink:href="#a" transform="rotate(160.645 1.53 7.233)scale(.00762 -.00762)"/><use xlink:href="#a" transform="rotate(-105.617 9.29 6.287)scale(.0057 -.0057)"/><use xlink:href="#a" transform="rotate(-113.844 8.715 7.08)scale(.00737 -.00737)"/><use xlink:href="#a" transform="rotate(-41.619 30.83 6.274)scale(.01319 -.01319)"/><use xlink:href="#a" transform="rotate(-83.29 11.4 8.506)scale(-.01245 .01245)"/><use xlink:href="#a" transform="rotate(221.494 5 11.15)scale(-.00726 .00726)"/><use xlink:href="#a" transform="rotate(167.344 .967 11.244)scale(.0113 -.0113)"/><use xlink:href="#a" transform="rotate(-153.349 5.227 12.074)scale(.00843 -.00843)"/><use xlink:href="#a" transform="rotate(17.195 -97.34 12.453)scale(.0144 -.0144)"/><use xlink:href="#a" transform="matrix(-.00523 -.0063 -.0063 .00523 3.63 29.7)"/><use xlink:href="#a" transform="matrix(-.00337 .0056 .0056 .00337 1.764 29.219)"/><use xlink:href="#a" transform="matrix(.00959 .00531 .00531 -.00959 .195 32.809)"/><use xlink:href="#a" transform="matrix(.01026 .0052 .0052 -.01026 .437 34.79)"/><use xlink:href="#a" transform="rotate(228.951 8.728 17.43)scale(-.00964 .00964)"/><use xlink:href="#a" transform="matrix(-.00928 .00377 .00377 .00928 4.836 35.01)"/><use xlink:href="#a" transform="rotate(-61.306 36.672 15.901)scale(.00826 -.00826)"/><use xlink:href="#a" transform="rotate(138.666 -5.35 21.536)scale(-.0064 .0064)"/><use xlink:href="#a" transform="matrix(.0047 -.00295 -.00295 -.0047 4.682 42.047)"/><use xlink:href="#a" transform="matrix(-.00252 .01087 .01087 .00252 3.992 39.9)"/><use xlink:href="#a" transform="rotate(-163.99 6.81 20.803)scale(.0086 -.0086)"/><use xlink:href="#a" transform="rotate(-25.78 103.96 10.034)scale(.00637 -.00637)"/><use xlink:href="#a" transform="rotate(-177.351 4.323 22.358)scale(.00547 -.00547)"/><use xlink:href="#a" transform="rotate(164.776 -.67 25.473)scale(-.01398 .01398)"/><use xlink:href="#a" transform="rotate(130.886 -7.041 25.2)scale(.00943 -.00943)"/><use xlink:href="#a" transform="matrix(-.0094 .00328 .00328 .0094 9.108 48.634)"/><use xlink:href="#a" transform="rotate(-125.115 19.6 23.554)scale(.0133 -.0133)"/><use xlink:href="#a" transform="matrix(.00446 .01004 .01004 -.00446 6.806 53.656)"/><use xlink:href="#a" transform="matrix(-.00344 .00873 .00873 .00344 8.653 54.217)"/><use xlink:href="#a" transform="rotate(101.04 -18.536 31.89)scale(.0065 -.0065)"/><use xlink:href="#a" transform="matrix(.0118 -.00202 -.00202 -.0118 8.78 61.265)"/><use xlink:href="#a" transform="rotate(144.323 -3.502 30.855)scale(.01238 -.01238)"/><use xlink:href="#a" transform="rotate(183.205 6.21 31.448)scale(-.00582 .00582)"/><use xlink:href="#a" transform="rotate(193.804 8.973 31.594)scale(-.00784 .00784)"/><use xlink:href="#a" transform="rotate(-151.269 15.828 30.104)scale(.01215 -.01215)"/><use xlink:href="#a" transform="rotate(143.85 -4.09 34.587)scale(.00684 -.00684)"/><use xlink:href="#a" transform="rotate(146.62 -4.082 36.901)scale(-.00944 .00944)"/><use xlink:href="#a" transform="rotate(-58.592 69.517 22.837)scale(.00551 -.00551)"/><use xlink:href="#a" transform="rotate(-37.07 115.406 16.17)scale(.01085 -.01085)"/><use xlink:href="#a" transform="rotate(-173.642 10.183 34.75)scale(.01093 -.01093)"/><use xlink:href="#a" transform="matrix(.0058 .0127 .0127 -.0058 10.96 72.926)"/><use xlink:href="#a" transform="rotate(20.408 -200.91 79.872)scale(-.00674 .00674)"/><use xlink:href="#a" transform="rotate(-93.263 44.758 32.203)scale(.01055 -.01055)"/><use xlink:href="#a" transform="rotate(205.092 14.26 38.6)scale(-.00997 .00997)"/><use xlink:href="#a" transform="rotate(170.583 2.251 41.817)scale(-.0112 .0112)"/><use xlink:href="#a" transform="rotate(143.597 -6.871 42.117)scale(.0089 -.0089)"/><use xlink:href="#a" transform="rotate(-67.484 69.506 32.927)scale(.00563 -.00563)"/><use xlink:href="#a" transform="rotate(57.952 -69.828 55.751)scale(-.01184 .01184)"/><use xlink:href="#a" transform="rotate(-90.527 50.69 37.796)scale(.0129 -.0129)"/><use xlink:href="#a" transform="matrix(-.00758 .0069 .0069 .00758 10.962 86.258)"/><use xlink:href="#a" transform="rotate(160.304 -3.326 46.894)scale(-.00932 .00932)"/><use xlink:href="#a" transform="rotate(-61.01 85.373 38.133)scale(.01108 -.01108)"/><use xlink:href="#a" transform="rotate(174.897 3.3 46.27)scale(.00704 -.00704)"/><use xlink:href="#a" transform="rotate(207.778 15.742 46.478)scale(-.0066 .0066)"/><use xlink:href="#a" transform="rotate(-175.318 7.341 46.855)scale(.0109 -.0109)"/><use xlink:href="#a" transform="rotate(85.774 -48.027 54.56)scale(-.00743 .00743)"/><use xlink:href="#a" transform="rotate(197.57 11.257 48.988)scale(-.006 .006)"/><use xlink:href="#a" transform="matrix(-.006 -.0047 -.0047 .006 9.933 99.292)"/><use xlink:href="#a" transform="rotate(218.453 20.211 49.813)scale(-.01144 .01144)"/><use xlink:href="#a" transform="rotate(70.413 -68.68 58.209)scale(-.00767 .00767)"/><use xlink:href="#a" transform="matrix(.0012 .00653 .00653 -.0012 7.297 101.881)"/><use xlink:href="#a" transform="rotate(-128.63 31.216 48.251)scale(.0123 -.0123)"/><use xlink:href="#a" transform="rotate(186.92 8.04 51.87)scale(-.01404 .01404)"/><use xlink:href="#a" transform="rotate(-51.902 109 35.162)scale(-.01148 .01148)"/><use xlink:href="#a" transform="rotate(48.907 -102.646 71.81)scale(-.01122 .01122)"/><use xlink:href="#a" transform="rotate(163.274 .771 53.457)scale(-.01386 .01386)"/><use xlink:href="#a" transform="rotate(255.075 47.95 43.116)scale(-.0075 .0075)"/><use xlink:href="#a" transform="rotate(142.93 -5.8 53.423)scale(.00857 -.00857)"/><use xlink:href="#a" transform="matrix(-.00555 -.00978 -.00978 .00555 25.706 102)"/><use xlink:href="#a" transform="rotate(-67.018 90.043 32.22)scale(.00656 -.00656)"/><use xlink:href="#a" transform="rotate(209.887 25.722 47.461)scale(-.00567 .00567)"/><use xlink:href="#a" transform="rotate(-173.271 16.783 49.282)scale(.00586 -.00586)"/><use xlink:href="#a" transform="rotate(65.59 -64.693 70.224)scale(.00797 -.00797)"/><use xlink:href="#a" transform="rotate(200.605 22.995 48.263)scale(-.00687 .00687)"/><use xlink:href="#a" transform="rotate(89.667 -35.682 64.55)scale(.0057 -.0057)"/><use xlink:href="#a" transform="rotate(-118.56 46.29 40.86)scale(.0066 -.0066)"/><use xlink:href="#a" transform="rotate(225.935 36.479 43.774)scale(-.0079 .0079)"/><use xlink:href="#a" transform="rotate(129.425 -7.24 59.609)scale(-.0121 .0121)"/><use xlink:href="#a" transform="rotate(160.253 8.6 53.66)scale(-.00546 .00546)"/><use xlink:href="#a" transform="matrix(-.00883 0 0 .00883 37.998 98.72)"/><use xlink:href="#a" transform="rotate(-95.113 67.32 32.317)scale(.01452 -.01452)"/><use xlink:href="#a" transform="matrix(-.0014 .01175 .01175 .0014 38.932 97.594)"/><use xlink:href="#a" transform="rotate(-147.074 36.365 43.301)scale(.00545 -.00545)"/><use xlink:href="#a" transform="matrix(.0116 .0028 .0028 -.0116 41.184 100.983)"/><use xlink:href="#a" transform="rotate(90.758 -26.53 72.85)scale(-.00575 .00575)"/><use xlink:href="#a" transform="rotate(74.876 -41.819 77.56)scale(.01247 -.01247)"/><use xlink:href="#a" transform="rotate(111.997 -8.668 63.97)scale(.01439 -.01439)"/><use xlink:href="#a" transform="rotate(146.425 10.835 56.242)scale(.00803 -.00803)"/><use xlink:href="#a" transform="matrix(-.0053 -.00329 -.00329 .0053 53.195 98.27)"/><use xlink:href="#a" transform="rotate(171.886 22.222 52.424)scale(-.01276 .01276)"/><use xlink:href="#a" transform="matrix(-.0089 .00707 .00707 .0089 55.629 95.67)"/><use xlink:href="#a" transform="matrix(-.0012 .00665 .00665 .0012 55.972 97.226)"/><use xlink:href="#a" transform="rotate(168.584 25.498 50.704)scale(.0147 -.0147)"/><use xlink:href="#a" transform="rotate(115.357 -.92 69.747)scale(-.01119 .01119)"/><use xlink:href="#a" transform="rotate(135.098 10.575 63.545)scale(-.0139 .0139)"/><use xlink:href="#a" transform="matrix(.0012 .00585 .00585 -.0012 63.347 96.808)"/><use xlink:href="#a" transform="rotate(-93.551 79.88 17.94)scale(.00724 -.00724)"/><use xlink:href="#a" transform="rotate(-96.94 77.973 18.99)scale(.0086 -.0086)"/><use xlink:href="#a" transform="rotate(174.84 32.39 49.735)scale(.00629 -.00629)"/><use xlink:href="#a" transform="matrix(-.01168 .00095 .00095 .01168 71.412 94.98)"/><use xlink:href="#a" transform="rotate(87.813 -14.712 83.97)scale(.00973 -.00973)"/><use xlink:href="#a" transform="matrix(-.00866 .0047 .0047 .00866 73.705 94.699)"/><use xlink:href="#a" transform="rotate(143.31 20.821 61.403)scale(-.0059 .0059)"/><use xlink:href="#a" transform="rotate(-146.758 52.726 36.875)scale(.00552 -.00552)"/><use xlink:href="#a" transform="rotate(7.977 -646.848 606.07)scale(-.00763 .00763)"/><use xlink:href="#a" transform="rotate(-144.247 55.777 35.052)scale(.01117 -.01117)"/><use xlink:href="#a" transform="rotate(166.832 33.592 53.758)scale(-.00992 .00992)"/><use xlink:href="#a" transform="rotate(79.897 -16.483 98.461)scale(-.0101 .0101)"/><use xlink:href="#a" transform="rotate(156.647 32.203 55.62)scale(.00952 -.00952)"/><use xlink:href="#a" transform="rotate(204.111 51.4 39.837)scale(-.0133 .0133)"/><use xlink:href="#a" transform="rotate(69.89 -25.48 107.383)scale(.01467 -.01467)"/><use xlink:href="#a" transform="rotate(95.713 1.317 86.982)scale(.00682 -.00682)"/><use xlink:href="#a" transform="matrix(.0064 -.00954 -.00954 -.0064 91.08 97.898)"/><use xlink:href="#a" transform="rotate(166.5 39.923 53.594)scale(-.00617 .00617)"/><use xlink:href="#a" transform="rotate(130.6 24.347 69.69)scale(-.00564 .00564)"/><use xlink:href="#a" transform="matrix(-.0106 -.00077 -.00077 .0106 96.198 93.36)"/><use xlink:href="#a" transform="rotate(217.05 63.056 32.024)scale(-.00758 .00758)"/><use xlink:href="#a" transform="rotate(156.188 39.212 56.964)scale(.0098 -.0098)"/><use xlink:href="#a" transform="rotate(135.747 29.533 69.481)scale(-.01302 .01302)"/><use xlink:href="#a" transform="rotate(199.48 57.607 39.967)scale(-.0133 .0133)"/><use xlink:href="#a" transform="rotate(143.415 36.742 63.496)scale(.01417 -.01417)"/><use xlink:href="#a" transform="rotate(185.465 54.098 46.457)scale(-.01378 .01378)"/><use xlink:href="#a" transform="rotate(250.352 86 10.257)scale(-.01438 .01438)"/><use xlink:href="#a" transform="rotate(-179.774 55.616 47.495)scale(.00623 -.00623)"/><use xlink:href="#a" transform="rotate(93.61 10.689 102.911)scale(-.01466 .01466)"/><use xlink:href="#a" transform="rotate(-103.787 96.257 3.426)scale(.01017 -.01017)"/><use xlink:href="#a" transform="rotate(154.812 46.399 61.859)scale(-.00684 .00684)"/><use xlink:href="#a" transform="rotate(-121.563 86.064 15.586)scale(.00653 -.00653)"/><use xlink:href="#a" transform="rotate(-154.739 70.19 34.7)scale(.00648 -.00648)"/><use xlink:href="#a" transform="rotate(138.42 40.512 72.417)scale(-.01258 .01258)"/><use xlink:href="#a" transform="rotate(255.671 96.44 1.686)scale(-.0116 .0116)"/><use xlink:href="#a" transform="rotate(169.337 55.994 55.604)scale(-.0146 .0146)"/><use xlink:href="#a" transform="rotate(-137.935 82.728 23.85)scale(.01185 -.01185)"/><use xlink:href="#a" transform="rotate(126.733 39.321 79.682)scale(.00696 -.00696)"/><use xlink:href="#a" transform="rotate(215.828 79.09 28.41)scale(-.00644 .00644)"/><use xlink:href="#a" transform="rotate(161.762 56.121 60.461)scale(-.01328 .01328)"/><use xlink:href="#a" transform="rotate(173.26 62.19 53.567)scale(-.00967 .00967)"/><use xlink:href="#a" transform="rotate(47.491 -43.58 201.953)scale(-.0073 .0073)"/><use xlink:href="#a" transform="rotate(141.758 49.794 72.962)scale(-.00733 .00733)"/><use xlink:href="#a" transform="rotate(161.251 59.981 59.511)scale(.00572 -.00572)"/><use xlink:href="#a" transform="matrix(.0048 .00275 .00275 -.0048 135.022 98.22)"/><use xlink:href="#a" transform="rotate(-172.138 72.698 43.637)scale(.00752 -.00752)"/><use xlink:href="#a" transform="rotate(110.143 35.617 95.68)scale(.0143 -.0143)"/><use xlink:href="#a" transform="rotate(195.13 76.396 40.2)scale(-.00589 .00589)"/><use xlink:href="#a" transform="rotate(-165.115 78.09 39.328)scale(.0075 -.0075)"/><use xlink:href="#a" transform="rotate(78.978 12.463 139.105)scale(-.01451 .01451)"/><use xlink:href="#a" transform="rotate(128.427 48.672 85.505)scale(-.00821 .00821)"/><use xlink:href="#a" transform="rotate(-68.245 147.88 -58.9)scale(.00798 -.00798)"/><use xlink:href="#a" transform="rotate(118.921 44.78 94.456)scale(-.00956 .00956)"/><use xlink:href="#a" transform="rotate(-132.73 97.76 16.089)scale(.00948 -.00948)"/><use xlink:href="#a" transform="rotate(151.218 62.63 69.55)scale(-.00738 .00738)"/><use xlink:href="#a" transform="rotate(85.92 23.5 133.17)scale(-.00985 .00985)"/><use xlink:href="#a" transform="rotate(179.728 77.541 49.137)scale(.00653 -.00653)"/><use xlink:href="#a" transform="rotate(170.746 73.181 56.401)scale(-.0061 .0061)"/><use xlink:href="#a" transform="rotate(111.09 44.339 102.26)scale(.00714 -.00714)"/><use xlink:href="#a" transform="rotate(93.226 31.827 123.125)scale(.00593 -.00593)"/><use xlink:href="#a" transform="rotate(142.554 61.978 78.248)scale(-.01413 .01413)"/><use xlink:href="#a" transform="rotate(-161.687 89.037 36.386)scale(.00623 -.00623)"/><use xlink:href="#a" transform="rotate(137.536 62.052 80.33)scale(.00767 -.00767)"/><use xlink:href="#a" transform="rotate(66.063 4.7 172.807)scale(.01403 -.01403)"/><use xlink:href="#a" transform="rotate(65.898 6.228 179.144)scale(-.0074 .0074)"/><use xlink:href="#a" transform="rotate(187.353 85.81 45.482)scale(-.01094 .01094)"/><use xlink:href="#a" transform="matrix(.0044 .00367 .00367 -.0044 167.162 100.07)"/><use xlink:href="#a" transform="rotate(107.046 48.022 111.484)scale(.0094 -.0094)"/><use xlink:href="#a" transform="rotate(86.386 32.12 140.18)scale(.00566 -.00566)"/><use xlink:href="#a" transform="rotate(40.465 -48.762 286.324)scale(-.00852 .00852)"/><use xlink:href="#a" transform="rotate(161.792 79.51 63.163)scale(.0102 -.0102)"/><use xlink:href="#a" transform="rotate(99.293 44.893 125.53)scale(-.00646 .00646)"/><use xlink:href="#a" transform="rotate(-64.316 171.107 -89.78)scale(.01344 -.01344)"/><use xlink:href="#a" transform="rotate(168.385 85.372 58.148)scale(.0134 -.0134)"/><use xlink:href="#a" transform="rotate(109.78 55.23 112.647)scale(.00996 -.00996)"/><use xlink:href="#a" transform="rotate(130.186 67.437 93.59)scale(-.00648 .00648)"/><use xlink:href="#a" transform="rotate(117.382 61.222 105.335)scale(.00706 -.00706)"/><use xlink:href="#a" transform="rotate(113.069 58.746 112.782)scale(-.00872 .00872)"/><use xlink:href="#a" transform="rotate(63.8 11.436 197.623)scale(.01272 -.01272)"/><use xlink:href="#a" transform="rotate(87.667 41.58 146.682)scale(.0126 -.0126)"/><use xlink:href="#a" transform="rotate(146.069 79.98 79.003)scale(.00605 -.00605)"/><use xlink:href="#a" transform="rotate(-79.586 159.07 -64.177)scale(.0126 -.0126)"/><use xlink:href="#a" transform="rotate(177.2 95.909 52.577)scale(.00625 -.00625)"/><use xlink:href="#a" transform="rotate(184.75 98.71 47.282)scale(-.00707 .00707)"/><use xlink:href="#a" transform="rotate(31.834 -77.34 399.648)scale(-.01344 .01344)"/><use xlink:href="#a" transform="rotate(128.366 74.455 98.023)scale(.0055 -.0055)"/><use xlink:href="#a" transform="rotate(88.498 47.078 151.412)scale(.0105 -.0105)"/><use xlink:href="#a" transform="rotate(146.28 84.319 82.75)scale(-.01233 .01233)"/><use xlink:href="#a" transform="rotate(180.43 100.902 51.28)scale(-.00628 .00628)"/><use xlink:href="#a" transform="rotate(101.42 59.977 133.438)scale(.00661 -.00661)"/><use xlink:href="#a" transform="rotate(126.426 76.256 103.598)scale(-.0067 .0067)"/><use xlink:href="#a" transform="rotate(198.581 110.6 34.909)scale(-.00697 .00697)"/><use xlink:href="#a" transform="rotate(150.791 89.578 79.672)scale(-.01333 .01333)"/><use xlink:href="#a" transform="matrix(.00895 .011 .011 -.00895 206.436 102.395)"/><use xlink:href="#a" transform="rotate(31.804 -76.215 419.546)scale(.00878 -.00878)"/><use xlink:href="#a" transform="rotate(165.95 99.52 65.433)scale(-.01204 .01204)"/><use xlink:href="#a" transform="rotate(33.738 -63.21 402.27)scale(.01101 -.01101)"/><use xlink:href="#a" transform="rotate(133.29 85.994 99.033)scale(-.00895 .00895)"/><use xlink:href="#a" transform="matrix(-.0144 .00136 .00136 .0144 220.998 99.194)"/><use xlink:href="#a" transform="rotate(162.663 101.913 68.97)scale(-.01388 .01388)"/><use xlink:href="#a" transform="rotate(135.862 91.826 94.478)scale(.01357 -.01357)"/><use xlink:href="#a" transform="matrix(-.0051 .00215 .00215 .0051 225.571 100.213)"/><use xlink:href="#a" transform="rotate(67.686 37.365 217.669)scale(.00738 -.00738)"/><use xlink:href="#a" transform="rotate(157.465 103.92 72.692)scale(.00577 -.00577)"/><use xlink:href="#a" transform="rotate(193.303 119.414 37.629)scale(-.00656 .00656)"/><use xlink:href="#a" transform="rotate(135.471 94.37 96.664)scale(.0073 -.0073)"/><use xlink:href="#a" transform="rotate(176.962 114.438 52.92)scale(.0063 -.0063)"/><use xlink:href="#a" transform="rotate(157.108 105.034 75.21)scale(-.0131 .0131)"/><use xlink:href="#a" transform="rotate(69.872 45.627 220.248)scale(-.01174 .01174)"/><use xlink:href="#a" transform="rotate(143.761 101.736 88.133)scale(.00597 -.00597)"/><use xlink:href="#a" transform="rotate(65.117 40.075 236.944)scale(-.00649 .00649)"/><use xlink:href="#a" transform="rotate(221.138 137 5.871)scale(-.00634 .00634)"/><use xlink:href="#a" transform="rotate(87.691 67.727 177.101)scale(-.01418 .01418)"/><use xlink:href="#a" transform="rotate(47.275 5.66 323.964)scale(.00575 -.00575)"/><use xlink:href="#a" transform="rotate(66.1 45.222 238.951)scale(-.0124 .0124)"/><use xlink:href="#a" transform="rotate(130.145 99.286 105.663)scale(.00678 -.00678)"/><use xlink:href="#a" transform="rotate(124.547 96.29 116.23)scale(-.01419 .01419)"/><use xlink:href="#a" transform="rotate(121.858 96.06 119.938)scale(-.01067 .01067)"/><use xlink:href="#a" transform="rotate(116.231 94.098 126.26)scale(.00641 -.00641)"/><use xlink:href="#a" transform="matrix(.0073 -.0055 -.0055 -.0073 250.456 100.948)"/><use xlink:href="#a" transform="rotate(77.78 64.58 204.302)scale(.008 -.008)"/><use xlink:href="#a" transform="rotate(137.13 107.69 98.232)scale(.00715 -.00715)"/><use xlink:href="#a" transform="rotate(-167.43 134.385 34.117)scale(.01478 -.01478)"/><use xlink:href="#a" transform="rotate(151.684 116.513 80.878)scale(.00677 -.00677)"/><use xlink:href="#a" transform="rotate(56.644 38.231 289.826)scale(-.00548 .00548)"/><use xlink:href="#a" transform="rotate(154.833 119.622 76.74)scale(.01276 -.01276)"/><use xlink:href="#a" transform="rotate(29.81 -50.143 546.322)scale(-.0141 .0141)"/><use xlink:href="#a" transform="rotate(109.904 97.28 142.704)scale(-.00877 .00877)"/><use xlink:href="#a" transform="matrix(-.0065 .00661 .00661 .0065 265.128 95.578)"/><use xlink:href="#a" transform="rotate(29.095 -56.635 558.657)scale(.01002 -.01002)"/><use xlink:href="#a" transform="rotate(122.913 107.761 120.87)scale(.00594 -.00594)"/><use xlink:href="#a" transform="matrix(.00443 .0048 .0048 -.00443 267.602 97.32)"/><use xlink:href="#a" transform="rotate(-171.84 139.87 37.982)scale(.01217 -.01217)"/><use xlink:href="#a" transform="rotate(-170.436 140.594 36.63)scale(.00544 -.00544)"/><use xlink:href="#a" transform="rotate(142.224 119.56 96.87)scale(-.01454 .01454)"/><use xlink:href="#a" transform="rotate(-15.103 509.02 -986.74)scale(.0099 -.0099)"/><use xlink:href="#a" transform="rotate(80.211 81.704 214.796)scale(-.01036 .01036)"/><use xlink:href="#a" transform="rotate(68.596 69.019 254.025)scale(-.00662 .00662)"/><use xlink:href="#a" transform="matrix(.00973 .00067 .00067 -.00973 278.571 97.9)"/><use xlink:href="#a" transform="matrix(-.00558 .004 .004 .00558 281.888 94.644)"/><use xlink:href="#a" transform="rotate(194.151 146.635 30.964)scale(-.0081 .0081)"/><use xlink:href="#a" transform="rotate(117.272 113.113 133.506)scale(.0075 -.0075)"/><use xlink:href="#a" transform="rotate(168.082 138.209 62.12)scale(.00709 -.00709)"/><use xlink:href="#a" transform="rotate(-53.48 239.758 -235.99)scale(.00633 -.00633)"/><use xlink:href="#a" transform="rotate(173.28 140.276 57.251)scale(-.01212 .01212)"/><use xlink:href="#a" transform="rotate(168.621 140.832 61.228)scale(.0093 -.0093)"/><use xlink:href="#a" transform="matrix(-.01067 .0019 .0019 .01067 292.903 93.22)"/><use xlink:href="#a" transform="rotate(47.601 39.38 380.967)scale(-.00672 .00672)"/><use xlink:href="#a" transform="rotate(178.482 146.23 48.403)scale(.00568 -.00568)"/><use xlink:href="#a" transform="matrix(-.0061 .00527 .00527 .0061 292.577 90.891)"/><use xlink:href="#a" transform="rotate(212.647 158.63 3.41)scale(-.00848 .00848)"/><use xlink:href="#a" transform="rotate(84.827 97.142 206.896)scale(-.01237 .01237)"/><use xlink:href="#a" transform="rotate(60.109 70.834 298.607)scale(-.0111 .0111)"/><use xlink:href="#a" transform="matrix(.0057 -.00842 -.00842 -.0057 292.091 88.32)"/><use xlink:href="#a" transform="rotate(93.083 105.646 181.562)scale(-.00763 .00763)"/><use xlink:href="#a" transform="rotate(152.565 135.914 76.601)scale(.00623 -.00623)"/><use xlink:href="#a" transform="rotate(194.68 150.03 22.968)scale(-.00974 .00974)"/><use xlink:href="#a" transform="rotate(103.08 113.462 156.946)scale(-.00637 .00637)"/><use xlink:href="#a" transform="rotate(153.47 136.657 73.012)scale(.00948 -.00948)"/><use xlink:href="#a" transform="rotate(129.208 127.28 106.713)scale(.00976 -.00976)"/><use xlink:href="#a" transform="matrix(.0024 -.0079 -.0079 -.0024 291.627 77.994)"/><use xlink:href="#a" transform="rotate(117.653 122.345 126.466)scale(-.0084 .0084)"/><use xlink:href="#a" transform="rotate(66.225 88.997 260.83)scale(-.00686 .00686)"/><use xlink:href="#a" transform="rotate(88.93 108.397 185.816)scale(-.01133 .01133)"/><use xlink:href="#a" transform="rotate(37.37 42.514 467.115)scale(-.00985 .00985)"/><use xlink:href="#a" transform="rotate(179.361 145.088 34.837)scale(.00625 -.00625)"/><use xlink:href="#a" transform="rotate(119.008 124.534 120.876)scale(-.01433 .01433)"/><use xlink:href="#a" transform="rotate(150.275 136.63 69.838)scale(.01123 -.01123)"/><use xlink:href="#a" transform="rotate(7.338 -339.71 2297.217)scale(-.00948 .00948)"/><use xlink:href="#a" transform="matrix(.0055 .00064 .00064 -.0055 287.848 63.146)"/><use xlink:href="#a" transform="rotate(46.447 73.714 369.025)scale(-.00662 .00662)"/><use xlink:href="#a" transform="rotate(46.508 74.763 367.466)scale(-.0059 .0059)"/><use xlink:href="#a" transform="rotate(56.606 90.58 300.054)scale(-.01269 .01269)"/><use xlink:href="#a" transform="rotate(186.509 145.3 20.92)scale(-.00746 .00746)"/><use xlink:href="#a" transform="rotate(168.918 142.68 40.769)scale(.01128 -.01128)"/><use xlink:href="#a" transform="rotate(-98.39 169.78 -98.296)scale(.0126 -.0126)"/><use xlink:href="#a" transform="rotate(35.172 61.566 480.748)scale(.00577 -.00577)"/><use xlink:href="#a" transform="matrix(-.00287 .00523 .00523 .00287 289.35 49.778)"/><use xlink:href="#a" transform="rotate(82.017 116.316 193.101)scale(-.00916 .00916)"/><use xlink:href="#a" transform="rotate(52.785 96.626 318.149)scale(-.00617 .00617)"/><use xlink:href="#a" transform="rotate(135.43 135.576 82.446)scale(.0064 -.0064)"/><use xlink:href="#a" transform="rotate(93.439 123.53 161.747)scale(-.01215 .01215)"/><use xlink:href="#a" transform="matrix(-.0104 .0092 .0092 .0104 290.986 40.656)"/><use xlink:href="#a" transform="rotate(65.632 113.654 248.9)scale(-.01212 .01212)"/><use xlink:href="#a" transform="rotate(60.145 110.55 269.783)scale(.00816 -.00816)"/><use xlink:href="#a" transform="rotate(16.195 11.983 1047.311)scale(-.00591 .00591)"/><use xlink:href="#a" transform="matrix(.00568 .00065 .00065 -.00568 290.5 38.787)"/><use xlink:href="#a" transform="rotate(19.102 42.57 891.885)scale(-.0122 .0122)"/><use xlink:href="#a" transform="rotate(117.553 135.227 107.35)scale(-.01178 .01178)"/><use xlink:href="#a" transform="rotate(185.654 146.164 9.89)scale(-.00902 .00902)"/><use xlink:href="#a" transform="rotate(173.054 146.086 23.531)scale(.01045 -.01045)"/><use xlink:href="#a" transform="rotate(106.081 135.34 123.778)scale(.008 -.008)"/><use xlink:href="#a" transform="rotate(169.291 145.434 27.39)scale(.00615 -.00615)"/><use xlink:href="#a" transform="matrix(-.01237 .0072 .0072 .01237 293.429 23.526)"/><use xlink:href="#a" transform="matrix(.0081 .00243 .00243 -.0081 290.897 25.837)"/><use xlink:href="#a" transform="rotate(109.637 138.03 116.763)scale(-.0144 .0144)"/><defs><path id="a" fill="#000" d="M215.823 333.963c0-.733.3-1.033.667-.667a.95.95 0 0 1 0 1.334c-.367.366-.667.066-.667-.667M143.424 3.977c4.632-.653 8.099 4.826 5.302 8.382-1.951 2.48-2.551 5.604-1.078 5.604.905.004 11.175 12.34 11.175 13.423 0 1.076-4.344 5.111-6.316 5.868-1.898.728-1.434 2.71.633 2.71.661 0 1.78.924 2.486 2.056 1.284 2.054 1.286 2.054 2.991.057.938-1.1 2.606-2.139 3.706-2.307s2.33-.757 2.734-1.307c.415-.565.741-.238.75.75.018 2.14.447 2.169 3.408.229 1.623-1.063 2.19-2.212 1.884-3.81-1.049-5.489 4.864-5.512 14.402-.058 5.289 3.024 5.527 3.005 7.663-.61 3.023-5.119 9.966-1.694 8.152 4.02-.515 1.623-.183 2.247 1.417 2.666 1.15.3 2.09.945 2.09 1.43.001.485.9.883 2 .883 2.405 0 2.51-.633.446-2.697-1.937-1.936-1.511-6.247.756-7.667 2.444-1.53 3.085-.336 1.976 3.68-.844 3.057-.725 3.569.927 4 1.042.274 1.895 1.215 1.895 2.09.001 2.117 3.922 2.083 5.479-.046 1.634-2.235 4.962-.366 4.996 2.806.022 2.026.585 2.375 4.275 2.641 3.903.283 4.25.113 4.25-2.089q0-2.397 2.547-3.556c5.794-2.64 9.087-.056 7.912 6.206-.627 3.341-.627 3.341 7.125 4.043 13.323 1.209 21.701 9.211 10.916 10.427-1.65.187-3.533.779-4.183 1.316-.772.639-2.504.61-5-.082-4.664-1.295-5.317-1.318-5.317-.18 0 .89 3.547 2.107 7.692 2.639 3.814.489 4.527 1.472 3.864 5.335-1.584 9.224-1.538 9.134-4.694 9.134-1.732 0-2.721-.419-2.362-1 .34-.55.194-1-.324-1-.519 0-1.178-.9-1.466-2-.316-1.208-1.364-2-2.648-2-1.169 0-2.425-.787-2.793-1.75-.688-1.803-.846-2.03-4.339-6.25-2.069-2.5-2.069-2.5-1.491.21.443 2.079.097 2.968-1.49 3.817-3.053 1.634-2.358 6.6.861 6.15 1.27-.178 2.952.21 3.737.862.841.698 2.53.908 4.115.51 2.465-.619 2.57-.53 1.263 1.08-.904 1.113-.968 1.48-.175 1.004 1.207-.725 1.687.683 1.482 4.336-.045.808 1.226 3.249 2.826 5.425 2.411 3.278 2.808 4.595 2.313 7.686-.499 3.124-.251 3.915 1.528 4.868 1.738.93 1.934 1.496 1.067 3.115-.582 1.088-.743 2.489-.358 3.114 1.359 2.199-6.627-.001-11.342-3.124-8.698-5.762-10.731-2.813-8.924 12.947.221 1.925-.023 4.035-.543 4.69-2.291 2.887-.482 6.804 3.201 6.932 1.925.067 3.95.231 4.5.365s1.77.166 2.711.072c2.294-.23 5.828 1.736 5.529 3.076-.429 1.92 7.577 1.339 13.716-.996 3.275-1.246 6.763-2.054 7.75-1.795 1.097.287 1.794-.077 1.794-.937 0-.773-.9-1.407-2-1.407-2.468 0-2.532-1.121-.227-3.967 1.774-2.19 1.774-2.191 3.655-.112 3.099 3.423 8.159.85 5.79-2.944-.993-1.589-.581-2.041 3.321-3.645 2.449-1.007 4.455-2.169 4.457-2.582s.443-.75.979-.75c1.288 0 .183 5.855-1.664 8.817-1.092 1.751-1.167 2.651-.309 3.686 1.283 1.545-.226 5.368-2.692 6.822-.804.474-1.149 1.608-.812 2.669.406 1.279-.025 2.039-1.405 2.477-1.193.378-1.772 1.202-1.445 2.054.599 1.563-1.168 3.716-3.898 4.75-.962.364-1.75 1.619-1.75 2.789 0 2.226-3.33 7.595-5.963 9.615-1.366 1.047-1.342 1.254.215 1.857 1.184.459 2.39-.086 3.717-1.678 2.104-2.526 2.666-1.913 1.038 1.131-.844 1.574-.541 1.954 2 2.512 3.869.85 4.064 4.832.493 10.094-3.324 4.898-3.182 6.036 1.488 11.905 2.188 2.75 5.447 7.129 7.244 9.732 2.93 4.244 6.768 6.38 6.768 3.768 0-.55 1.035-1 2.3-1s2.746-.446 3.29-.99c.62-.62 2.15-.657 4.088-.101 2.392.686 3.469.516 4.728-.744 4.803-4.802 6.925 3.04 2.546 9.405-3.724 5.412-1.48 4.855 3.795-.941 1.786-1.963 3.851-3.336 4.59-3.052.738.282 1.92-.181 2.625-1.031 1.934-2.33 4.935-1.866 6.224.963 1.583 3.475-.177 6.436-7.813 13.14-6.161 5.409-6.161 5.409-3.267 8.303q6.73 6.731-2.936 8.665c-2.37.473-3.292.23-3.762-.995-.888-2.314-2.696-2.009-5.448.92-2.037 2.169-2.206 2.834-1.151 4.523 1.864 2.986.028 5.71-3.506 5.2-4.597-.663-9.708 5.273-8.219 9.547.611 1.753 1.63 3.202 2.264 3.219s.361.49-.606 1.054c-.967.563-2.166.771-2.665.463-.498-.308-1.136-.096-1.417.471-.28.567-.375.457-.21-.244a1.32 1.32 0 0 1 1.594-.969c1.051.249 1.054.018.019-1.229-.82-.989-2.396-1.39-4.419-1.124a92 92 0 0 1-6.144.558c-1.65.081-2.437.374-1.75.651.688.279 1.25 1.087 1.25 1.799s.675 1.854 1.5 2.539c5.107 4.238-.167 9.564-11.856 11.977-5.805 1.198-5.851 1.236-5.25 4.241.333 1.668.606 4.11.606 5.428 0 1.565.84 2.78 2.421 3.5 1.427.65 2.204 1.669 1.892 2.481-1.315 3.427.629 6.545 3.665 5.878 3.965-.871 7.62 1.069 5.906 3.134-.684.825-2.082 1.281-3.105 1.013-1.464-.382-1.732-.077-1.254 1.431.545 1.717.081 1.917-4.459 1.917-5.146 0-6.794-1.89-2.64-3.028 2.787-.763 3.151-3.008.595-3.677-1.452-.379-1.789-.821-.999-1.309 1.624-1.003.253-6.985-1.601-6.986-.782 0-1.421-.392-1.421-.872s-1.851-1.168-4.114-1.53c-2.276-.364-4.845-1.556-5.75-2.669-1.563-1.921-1.645-1.764-1.848 3.531-.199 5.212-.072 5.54 2.143 5.54 5.607 0 3.707 7.564-2.136 8.502-2.087.335-5.28 1.263-7.096 2.062-2.486 1.094-3.803 1.183-5.335.363-2.367-1.266-3.36-.663-2.519 1.53.326.849 1.676 1.543 3.001 1.543 3.904 0 5.075 2.286 3.115 6.077-1.665 3.218-1.666 3.218-13.063 2.607s-11.398-.611-11.398 2.418c0 8.621-10.579 8.949-12.836.398-1.025-3.886-7.44-4.574-7.971-.856-.417 2.928-5.229 3.934-5.933 1.241-.544-2.077-1.366-2.361-2.81-.97-.522.504-2.075 1.066-3.45 1.25-1.71.229-2.602 1.053-2.823 2.609-.261 1.844-.83 2.2-3 1.878-1.472-.218-2.582-.851-2.467-1.405.116-.555-.672-1.807-1.75-2.783-1.881-1.703-1.962-1.698-2.002.131-.024 1.048-1.416 3.03-3.095 4.405a541 541 0 0 0-5.708 4.749c-4.916 4.164-8.422 2.715-9.677-3.999-.385-2.061-.881-3.749-1.102-3.75s-3.649.9-7.619 2c-14.524 4.025-29-2.533-15.77-7.145 1.657-.578 3.013-1.445 3.013-1.928s-1.155-.438-2.566.098c-2.123.807-3.159.524-6-1.643-3.139-2.394-4.983-5.457-2.279-3.787.716.443.883.275.439-.443-1.049-1.697-4.913.576-4.188 2.464.811 2.113-2.281 2.937-3.707.987-1.831-2.504-6.976.008-6.236 3.044 1.341 5.502-5.446 8.159-7.44 2.914-.95-2.498-5.437-1.816-9.523 1.446-1.865 1.489-6.803 1.559-7.292.104-.259-.768-.013-1.108.549-.761.56.346.996.071.973-.61-.161-4.454.444-5.606 3.52-6.697 3.668-1.3 2.102-3.54-3.25-4.647-1.375-.284-3.306-.954-4.29-1.489-.986-.536-2.157-.749-2.603-.473-.448.276-1.667-.136-2.71-.916-1.793-1.341-1.767-1.385.487-.816 1.773.448 2.26.242 1.896-.8-.268-.771-1.228-1.27-2.134-1.108s-1.646-.113-1.646-.61c0-1.368-6.697-8.183-8.04-8.184-1.264 0-.447 5.053.968 5.991 1.274.844.882 7.15-.413 6.653-.657-.252-1.123.469-1.084 1.676.084 2.591-2.923 3.446-3.828 1.089-.357-.929.047-2.752.897-4.05 1.424-2.172 1.405-2.362-.227-2.394-.976-.02-2.897-.658-4.27-1.418-1.696-.939-2.884-1.061-3.702-.382-1.603 1.33-5.582.011-4.95-1.641.545-1.42-1.94-5.524-3.343-5.524-1.258 0-10.008-8.116-10.008-9.282 0-.581 1.664-.708 4.125-.314 3.832.613 4.086.511 3.58-1.429-.45-1.717-.294-1.879.874-.91 2.272 1.886 1.639-.557-.69-2.659-1.16-1.048-2.975-3.744-4.033-5.992-1.69-3.592-9.922-9.936-15.158-11.681-3.332-1.111 3.063-11.87 6.517-10.966 1.767.462 1.998.235 1.38-1.356-1.235-3.177-1.163-3.926.35-3.596 2.291.498 6.055-1.977 6.055-3.984 0-1.079.72-1.831 1.755-1.831 2.437 0 4.522-6.525 2.596-8.124-.743-.616-1.35-1.939-1.35-2.939-.001-1.001-.451-2.097-1-2.437-.55-.34-1-1.518-1-2.618s-.404-1.752-.895-1.448c-.49.303-1.843-1.357-3.005-3.691s-2.66-5.143-3.328-6.243-2.239-3.678-3.493-5.729c-2.852-4.664-2.888-7.741-.126-10.706 1.922-2.063 1.98-2.41.542-3.215-.887-.497-1.358-1.568-1.045-2.382.387-1.012-.573-1.955-3.043-2.987-1.984-.829-3.645-2.064-3.69-2.744-.242-3.637-1.198-7.557-2.465-10.115-.785-1.582-1.159-3.945-.832-5.25.405-1.611.16-2.392-.764-2.435-.746-.035-.333-.475.918-.977 2.606-1.047 2.206-5.5-.687-7.629-4.752-3.496-5.041-3.891-4.456-6.081.33-1.238 1.379-2.25 2.33-2.25.95 0 2.543-.9 3.538-2s2.231-2 2.745-2 1.779-1.012 2.81-2.25c1.615-1.934 1.883-2.003 1.912-.49.018.968-.867 2.53-1.967 3.472-2.538 2.173-2.518 2.899.1 3.584 1.157.303 1.805 1.029 1.442 1.617-.363.587-.445 1.067-.183 1.067.263 0 1.25.298 2.196.66 1.212.464 1.572.243 1.224-.75-.57-1.629 2.992-7.17 4.15-6.454.427.264 1.613-.132 2.636-.879 2.017-1.475.615-4.576-2.069-4.577-1.332 0-4.101-8.453-3.604-11 .162-.825.239-3.222.17-5.326-.108-3.399.22-3.954 2.949-4.984 2.134-.806 3.024-1.774 2.919-3.175-.26-3.456.036-4.654 1-4.058a1.09 1.09 0 0 0 1.502-.347c.313-.507 1.402-.705 2.42-.438 2.56.669 5.59-2.434 4.113-4.214-.807-.972-.795-1.907.043-3.472.63-1.178.9-2.782.6-3.564-.38-.993.2-1.422 1.923-1.422 1.358 0 2.469-.45 2.47-1 0-.55-.437-1-.97-1s-.71-.675-.393-1.5c.33-.861.02-1.5-.73-1.5-1.018 0-1.041-.267-.108-1.2.66-.66 1.2-1.948 1.2-2.862 0-1.277 1.32-1.818 5.684-2.331 3.126-.367 6.276-1.159 7-1.76 1.767-1.466 1.673-3.846-.153-3.847-.894 0-1.243.586-.893 1.5.363.945-.011 1.5-1.011 1.5-1.986 0-1.574-5.786.506-7.103 3.478-2.204-2.762-.68-7.275 1.776-3.573 1.945-5.211 2.374-6.012 1.573-.743-.743-1.913-.79-3.605-.148-4.224 1.606-6.24.29-6.24-4.07 0-4.477 3.34-6.913 15.25-11.124 7.366-2.604 7.512-2.802 5.108-6.871-1.99-3.368-1.188-7.635 1.6-8.52 2.676-.849 9.035.449 9.056 1.848.042 3.128 1.618 3.829 5.793 2.579 4.398-1.318 5.909-3.37 4.09-5.56-.88-1.063-.605-1.805 1.234-3.325 2.036-1.682 2.524-1.753 3.477-.506 1.928 2.52 17.01-1.493 15.954-4.243-.865-2.257 4.422-5.084 5.593-2.991 1.402 2.505 4.122 2.048 7.252-1.219 2.783-2.905 2.783-2.905.625-5.062-3.774-3.774-.756-10.609 4.56-10.326 5.589.297 6.264.495 5.822 1.71-.217.595-.005 1.692.47 2.437 1.046 1.642 5.668-.946 6.598-3.694.309-.914 3.365-3.792 6.79-6.397 3.42-2.6 6.265-4.737 6.328-4.75m65.339 318.986c.582 0 1.06.45 1.06 1s-.198 1-.441 1-.719-.45-1.059-1-.141-.999.44-1m-91.94-7.618c0-.825.45-1.222 1-.882s1 1.294 1 2.119c0 .824-.45 1.221-1 .881s-1-1.293-1-2.118m85.5-1.382c.275 0 .5.225.5.5s-.225.5-.5.5a.5.5 0 0 1-.5-.5c0-.275.225-.5.5-.5m-127.56-8c.582 0 1.06.45 1.06 1s-.198 1-.441 1-.72-.45-1.059-1c-.34-.55-.141-.999.44-1m-2.94-1c.55 0 1 .45 1 1s-.45 1-1 1-1-.45-1-1 .45-1 1-1m60 1.107c0-1.644-2.785-1.984-4.653-.57-1.705 1.292-1.597 1.402 1.403 1.431 1.787.018 3.25-.37 3.25-.861m-45-2.107c.733 0 1.033.3.667.667a.95.95 0 0 1-1.334 0c-.366-.367-.066-.667.667-.667m-9.583.079c1.054-.043 1.644.193 1.312.525s-1.195.368-1.916.079c-.798-.319-.56-.556.604-.604m1.583-3.079c.55 0 1 .45 1 1s-.45 1-1 1-1-.45-1-1 .45-1 1-1m-8.5-1c.825 0 1.5.661 1.5 1.469 0 .894-.586 1.243-1.5.893-.825-.317-1.5-.978-1.5-1.469s.675-.893 1.5-.893m-.5-8c.55 0 1 .198 1 .441s-.45.719-1 1.059-1 .141-1-.441.45-1.059 1-1.059m200.5-6c.825 0 1.5.17 1.5.378 0 .207-.675.938-1.5 1.622-1.229 1.02-1.5.951-1.5-.378 0-.892.675-1.622 1.5-1.622m5-1c.275 0 .5.225.5.5s-.225.5-.5.5a.5.5 0 0 1-.5-.5c0-.275.225-.5.5-.5m-1.808-3.641c.54-1.409.707-1.398 1.549.107 1.058 1.89.425 3.064-1.132 2.102-.561-.349-.749-1.342-.417-2.209m-3.534-.359c0-1.375.227-1.937.504-1.25.278.688.278 1.813 0 2.5-.277.688-.504.125-.504-1.25m2.342-1c.275 0 .5.225.5.5s-.225.5-.5.5a.5.5 0 0 1-.5-.5c0-.275.225-.5.5-.5m-5.844-1.455q-.555-1.444.895-.886c1.68.645 1.794 1.01.554 1.776-.493.305-1.145-.096-1.449-.89m6.844-.545c.275 0 .5.225.5.5s-.225.5-.5.5a.5.5 0 0 1-.5-.5c0-.275.225-.5.5-.5m39.5-3c0-.733.3-1.033.667-.667a.95.95 0 0 1 0 1.334c-.367.366-.667.066-.667-.667m-6-10.441c0-1.757.6-2.015 1.457-.628.317.512.118 1.214-.441 1.56-.559.344-1.016-.075-1.016-.932M39.241 257.57c-2.373-.911-2.69-.758-2.025.975.334.87.607 1.77.607 2s.675.418 1.5.418c1.99 0 1.928-2.622-.082-3.393m255.48-5.607c1.658 0 8.149 6.113 7.54 7.101-1.492 2.413-6.742-.804-7.918-4.851-.379-1.302-.22-2.249.378-2.25m-20.398 4c-.275 0-.5.225-.5.5s.225.5.5.5.5-.225.5-.5-.225-.5-.5-.5m-6-3c-.275 0-.5.225-.5.5s.225.5.5.5.5-.225.5-.5-.225-.5-.5-.5m-1.677-3.667c-.389-2.009-2.386-2.848-3.29-1.385-.88 1.423.242 3.052 2.099 3.052.876 0 1.378-.703 1.191-1.667m2.677.667c-.275 0-.5.225-.5.5s.225.5.5.5.5-.225.5-.5-.225-.5-.5-.5m-245-17c.275 0 .5.225.5.5s-.225.5-.5.5a.5.5 0 0 1-.5-.5c0-.275.225-.5.5-.5m2 0c.275 0 .5.225.5.5s-.225.5-.5.5a.5.5 0 0 1-.5-.5c0-.275.225-.5.5-.5m4-50c-.275 0-.5.225-.5.5s.225.5.5.5.5-.225.5-.5-.225-.5-.5-.5m-4.5 0c.733 0 1.033.3.667.667a.95.95 0 0 1-1.334 0c-.366-.367-.066-.667.667-.667m-1.281-14.918c.165-2.193-1.234-3.676-2.118-2.246-.295.478.026 1.64.713 2.579 1.154 1.578 1.263 1.552 1.405-.333m1.781-2.082c-.275 0-.5.225-.5.5s.225.5.5.5.5-.225.5-.5-.225-.5-.5-.5m251.7-11.799c3.351-3.351 7.363-.019 6.367 5.289-.771 4.111-2.856 4.579-5.624 1.26-2.183-2.616-2.436-4.856-.743-6.549m-277.2 2.799c.733 0 1.033.3.667.667a.95.95 0 0 1-1.334 0c-.366-.367-.066-.667.667-.667m286.094-9c.498 0 .906.9.906 2s-.173 1.999-.383 2-.619-.9-.907-2c-.287-1.1-.115-2 .384-2m-1.594-2c.275 0 .5.225.5.5s-.225.5-.5.5a.5.5 0 0 1-.5-.5c0-.275.225-.5.5-.5m7.882-3c.275 0 .778.45 1.118 1s.393 1 .118 1-.778-.45-1.118-1-.393-1-.118-1M18.68 133.08c.195-.064.119.503-.172 1.261s0 1.909.643 2.557c.9.904.602.968-1.277.276-3.058-1.127-3.74-2.892-1.356-3.51.992-.257 1.965-.52 2.162-.584m8.81-1.45c1.116-1.117 2-.749 2 .833 0 .825-.6 1.5-1.334 1.5-1.419 0-1.77-1.229-.666-2.333m266.273.333c.582 0 1.06.45 1.06 1s-.198 1-.441 1-.719-.45-1.059-1-.141-.999.44-1m2.56 1c.275 0 .5.225.5.5s-.225.5-.5.5a.5.5 0 0 1-.5-.5c0-.275.225-.5.5-.5m-275.5-4c.55 0 1 .675 1 1.5s-.45 1.5-1 1.5-1-.675-1-1.5.45-1.5 1-1.5m282 .128c3.258-1.305 5-1.362 5-.163 0 1.749-3.891 3.196-5.763 2.142-1.557-.876-1.478-1.081.763-1.979m-288.434-3.23c3.127-1.225 4.078-.943 2.037.602-1.044.79-2.364 1.148-2.934.795-.598-.369-.218-.96.896-1.397m276.493-.898c.518 0 .941.45.941 1s-.703 1-1.56 1c-.856 0-1.28-.45-.94-1s1.041-1 1.559-1m-37.559-20c-.275 0-.5.225-.5.5s.225.5.5.5.5-.225.5-.5-.225-.5-.5-.5m-215-3c.275 0 .5.225.5.5s-.225.5-.5.5a.5.5 0 0 1-.5-.5c0-.275.225-.5.5-.5m5-1c.275 0 .5.225.5.5s-.225.5-.5.5a.5.5 0 0 1-.5-.5c0-.275.225-.5.5-.5m-11.25-5.017c1.787-1.093 3.85-1.76 4.582-1.485.732.276 2.082.538 3 .581.999.047 1.176.279.442.576-.673.272-1.452.35-1.73.17-.278-.178-1.215.687-2.081 1.925-1.028 1.467-2.602 2.25-4.52 2.25-3.852 0-3.733-1.546.307-4.017m228.25 3.017c.275 0 .5.225.5.5s-.225.5-.5.5a.5.5 0 0 1-.5-.5c0-.275.225-.5.5-.5m-218-1c.275 0 .5.225.5.5s-.225.5-.5.5a.5.5 0 0 1-.5-.5c0-.275.225-.5.5-.5m12.32-8.171c-.347-2.352-2.271-3.527-3.232-1.972-.907 1.468.44 4.143 2.089 4.143.932 0 1.346-.787 1.143-2.171m184.68-14.829c.275 0 .5.225.5.5s-.225.5-.5.5a.5.5 0 0 1-.5-.5c0-.275.225-.5.5-.5m34.5-2.004c0-.513.675-.721 1.5-.464.825.258 2.25.709 3.167 1.001 1.174.376 1.353.846.607 1.592-1.18 1.18-5.273-.473-5.274-2.129M69.807 71.213c.022-1.797-1.658-1.54-2.39.364-.392 1.023-1.345 1.423-2.606 1.093-1.092-.285-1.987-.16-1.988.278s1.195 1.099 2.655 1.466c2.667.668 4.296-.536 4.33-3.2m174.575-2.25c-.243 0-.719.45-1.059 1s-.141 1 .44 1c.582 0 1.06-.45 1.06-1s-.198-1-.441-1m-3.059-1c-.275 0-.5.225-.5.5s.225.5.5.5.5-.225.5-.5-.225-.5-.5-.5m-97.083-21.92c-1.165.047-1.402.284-.604.603.721.289 1.584.253 1.916-.08.332-.331-.258-.567-1.312-.524m37.583-2.08c-.733 0-1.033.3-.667.667a.95.95 0 0 0 1.334 0c.366-.367.066-.667-.667-.667m-34.478-9.63c-1.136-.435-1.813.026-2.198 1.5-.307 1.172-1.18 2.13-1.941 2.13-.76 0-1.383.45-1.383 1 0 1.52 2.594 1.195 4-.5.685-.825 2.288-1.5 3.563-1.5s2.597-.45 2.937-1-.272-1-1.359-1c-1.088 0-2.717-.283-3.619-.63m-8.398 2.363c-.988-.98-1.102-.865-.56.56.376.986.935 1.54 1.243 1.233s.001-1.114-.683-1.793m21.376-6.733c.275 0 .5.225.5.5s-.225.5-.5.5a.5.5 0 0 1-.5-.5c0-.275.225-.5.5-.5m45.5-1c.733 0 1.033.3.667.667a.95.95 0 0 1-1.334 0c-.366-.367-.066-.667.667-.667m5-4c.55 0 1 .198 1 .44 0 .244-.45.72-1 1.06s-1 .14-1-.441c0-.582.45-1.059 1-1.059m-34.5 0c.275 0 .5.225.5.5s-.225.5-.5.5a.5.5 0 0 1-.5-.5c0-.275.225-.5.5-.5m-3.5-6c.733 0 1.033.3.667.667a.95.95 0 0 1-1.334 0c-.366-.367-.066-.667.667-.667m1-3c0-.733.3-1.033.667-.667a.95.95 0 0 1 0 1.334c-.367.366-.667.066-.667-.667m35-2c.733 0 1.033.3.667.667a.95.95 0 0 1-1.334 0c-.366-.367-.066-.667.667-.667m-31.5-1c.275 0 .5.225.5.5s-.225.5-.5.5a.5.5 0 0 1-.5-.5c0-.275.225-.5.5-.5m-11-2c.275 0 .5.225.5.5s-.225.5-.5.5a.5.5 0 0 1-.5-.5c0-.275.225-.5.5-.5m9.5 0c0-.733.3-1.033.667-.667a.95.95 0 0 1 0 1.334c-.367.366-.667.066-.667-.667m-4.5-1c.275 0 .5.225.5.5s-.225.5-.5.5a.5.5 0 0 1-.5-.5c0-.275.225-.5.5-.5m-38.941-3c.243 0 .441.45.441 1s-.478 1-1.06 1c-.581 0-.78-.45-.44-1s.816-1 1.059-1m-9.559 1c.733 0 1.033.3.667.667a.95.95 0 0 1-1.334 0c-.366-.367-.066-.667.667-.667m44.381-5.652c2.929-2.519 5.619-3.082 5.619-1.177 0 1.726-3.081 4.829-4.795 4.83-.816 0-2.026.74-2.688 1.645-1.062 1.452-1.184 1.375-1.035-.65.093-1.265 1.398-3.356 2.899-4.648" data-figma-scatter="f0.51_w0.06_aj180_sj0.65_r0_s17656661811333049531_sw3" data-figma-scatter-ref="stroke0_184_5670_ref"/></defs></svg>