<svg xmlns="http://www.w3.org/2000/svg" xmlns:xlink="http://www.w3.org/1999/xlink" width="264" height="96" fill="none" viewBox="0 0 264 96"><path fill="#e0cea5" fill-opacity=".56" d="M21.496 1.768 2.092 20.628v6.44l3.796 26.68-3.796 33.12 72.975 6.9 104.191-6.9 76.772 6.9-6.327-27.6 11.389-39.1-5.062-25.3-63.274 10.58c-22.778-1.687-75.337-4.048-103.347 0-18.897 2.208-53.15-6.134-67.913-10.58"/><use xlink:href="#a" transform="rotate(251.643 8.669 10.757)scale(.0084)"/><use xlink:href="#a" transform="rotate(150.96 .645 10.998)scale(.01382)"/><use xlink:href="#a" transform="rotate(21.96 -41.328 18.663)scale(.00595)"/><use xlink:href="#a" transform="rotate(55.176 -12.167 13.496)scale(.0076)"/><use xlink:href="#a" transform="rotate(170.412 2.841 8.945)scale(.00556)"/><use xlink:href="#a" transform="rotate(87.132 -2.846 11.662)scale(.01074)"/><use xlink:href="#a" transform="rotate(-48.336 19.109 .721)scale(.011)"/><use xlink:href="#a" transform="rotate(-5.89 125.874 -75.427)scale(.00636)"/><use xlink:href="#a" transform="rotate(-70.408 13.734 .916)scale(.01095)"/><use xlink:href="#a" transform="rotate(66.66 -.678 14.028)scale(.00939)"/><use xlink:href="#a" transform="rotate(217.947 8.725 3.97)scale(.0103)"/><use xlink:href="#a" transform="rotate(164.775 6.808 5.883)scale(.00552)"/><use xlink:href="#a" transform="rotate(-73.846 12.642 -3.939)scale(.00872)"/><use xlink:href="#a" transform="rotate(-96.189 11.091 -2.355)scale(.00562)"/><use xlink:href="#a" transform="rotate(210.16 9.985 2.333)scale(.0122)"/><use xlink:href="#a" transform="rotate(160.053 9.984 4.994)scale(.0141)"/><use xlink:href="#a" transform="rotate(-73.109 12.113 -10.02)scale(.00614)"/><use xlink:href="#a" transform="rotate(53.38 8.926 21.041)scale(.00728)"/><use xlink:href="#a" transform="rotate(164.689 11.19 3.087)scale(.00806)"/><use xlink:href="#a" transform="rotate(124.609 12.005 7.313)scale(.01023)"/><use xlink:href="#a" transform="rotate(-96.73 13.005 -8.41)scale(.00567)"/><use xlink:href="#a" transform="rotate(179.257 12.886 1.987)scale(.00655)"/><use xlink:href="#a" transform="rotate(42.183 11.09 34.065)scale(.00727)"/><use xlink:href="#a" transform="rotate(70.072 12.511 20.669)scale(.007)"/><use xlink:href="#a" transform="rotate(208.076 15.285 -.554)scale(.01046)"/><use xlink:href="#a" transform="rotate(108.714 15.693 13.37)scale(.01433)"/><use xlink:href="#a" transform="rotate(62.37 13.483 28.464)scale(.00598)"/><use xlink:href="#a" transform="rotate(73.982 14.618 24.215)scale(.0069)"/><use xlink:href="#a" transform="rotate(107.261 15.884 15.335)scale(.00578)"/><use xlink:href="#a" transform="rotate(259.507 20.162 -10.272)scale(.0114)"/><use xlink:href="#a" transform="rotate(216.706 19.755 -2.463)scale(.00622)"/><use xlink:href="#a" transform="rotate(85.814 16.526 23.408)scale(.00545)"/><use xlink:href="#a" transform="rotate(36.206 12.856 61.344)scale(.00857)"/><use xlink:href="#a" transform="rotate(184.947 21.404 3.553)scale(.01203)"/><use xlink:href="#a" transform="rotate(47.25 14.263 51.098)scale(.00554)"/><use xlink:href="#a" transform="rotate(190.339 22.436 2.303)scale(.0073)"/><use xlink:href="#a" transform="rotate(-20.93 37.832 -110.154)scale(.0143)"/><use xlink:href="#a" transform="rotate(143.172 23.755 12.731)scale(.01397)"/><use xlink:href="#a" transform="rotate(-24.948 40.268 -101.69)scale(.0123)"/><use xlink:href="#a" transform="rotate(91.784 23.12 29.483)scale(.01188)"/><use xlink:href="#a" transform="rotate(170.966 27.157 7.55)scale(.0107)"/><use xlink:href="#a" transform="rotate(-41.872 38.891 -64.183)scale(.00814)"/><use xlink:href="#a" transform="rotate(-73.607 34.526 -30.146)scale(.01303)"/><use xlink:href="#a" transform="rotate(-79.879 35.16 -27.984)scale(.00826)"/><use xlink:href="#a" transform="rotate(39.205 18.803 87.516)scale(.01155)"/><use xlink:href="#a" transform="rotate(-14.164 66.852 -233.65)scale(.01307)"/><use xlink:href="#a" transform="rotate(129.687 29.91 20.723)scale(.00655)"/><use xlink:href="#a" transform="rotate(88.033 28.02 39.174)scale(.00924)"/><use xlink:href="#a" transform="rotate(149.191 33.2 15.93)scale(.0143)"/><use xlink:href="#a" transform="rotate(86.956 29.928 42.133)scale(.01064)"/><use xlink:href="#a" transform="rotate(-72.506 43.09 -40.577)scale(.00604)"/><use xlink:href="#a" transform="rotate(-75.031 43.368 -38.377)scale(.0113)"/><use xlink:href="#a" transform="rotate(166.939 37.142 11.325)scale(.01219)"/><use xlink:href="#a" transform="rotate(74.89 31.01 55.167)scale(.00838)"/><use xlink:href="#a" transform="rotate(-88.672 44.844 -31.08)scale(.01152)"/><use xlink:href="#a" transform="rotate(7.498 -42.502 594.622)scale(.01025)"/><use xlink:href="#a" transform="rotate(130.315 38.678 25.523)scale(.01151)"/><use xlink:href="#a" transform="rotate(25.431 16.44 186.068)scale(.00775)"/><use xlink:href="#a" transform="rotate(246.602 45.913 -20.21)scale(.00593)"/><use xlink:href="#a" transform="rotate(50.965 31.399 94.246)scale(.01005)"/><use xlink:href="#a" transform="rotate(23.026 15.909 215.009)scale(.00729)"/><use xlink:href="#a" transform="rotate(240.369 47.51 -18.103)scale(.0069)"/><use xlink:href="#a" transform="rotate(6.141 -49.942 815.443)scale(.01299)"/><use xlink:href="#a" transform="rotate(68.268 38.407 72.694)scale(.01027)"/><use xlink:href="#a" transform="rotate(181.631 46.734 5.928)scale(.00704)"/><use xlink:href="#a" transform="rotate(-99.91 51.733 -32.15)scale(.0078)"/><use xlink:href="#a" transform="rotate(206.537 49.249 -4.527)scale(.00852)"/><use xlink:href="#a" transform="rotate(107.541 45.716 41.379)scale(.01204)"/><use xlink:href="#a" transform="rotate(88.226 44.094 56.158)scale(.00579)"/><use xlink:href="#a" transform="rotate(240.868 53.316 -22.097)scale(.0104)"/><use xlink:href="#a" transform="rotate(186.396 51.683 3.652)scale(.0111)"/><use xlink:href="#a" transform="rotate(-82.92 57.554 -50.64)scale(.01213)"/><use xlink:href="#a" transform="rotate(-52.183 62.758 -99.594)scale(.00691)"/><use xlink:href="#a" transform="rotate(44.646 41.876 133.333)scale(.00766)"/><use xlink:href="#a" transform="rotate(88.036 48.903 60.745)scale(.00622)"/><use xlink:href="#a" transform="rotate(30.572 39.698 201.114)scale(.0132)"/><use xlink:href="#a" transform="rotate(208.206 57.493 -7.275)scale(.01323)"/><use xlink:href="#a" transform="rotate(155.302 56.552 18.446)scale(.0126)"/><use xlink:href="#a" transform="rotate(-3.103 229.653 -2088.493)scale(.00622)"/><use xlink:href="#a" transform="rotate(-8.61 119.1 -754.02)scale(.00713)"/><use xlink:href="#a" transform="rotate(75.214 54.038 80.837)scale(.01106)"/><use xlink:href="#a" transform="rotate(205.319 61.601 -6.778)scale(.0137)"/><use xlink:href="#a" transform="rotate(172.126 61.283 10.11)scale(.01153)"/><use xlink:href="#a" transform="rotate(178.961 62.334 6.511)scale(.01032)"/><use xlink:href="#a" transform="rotate(178.092 63.068 6.905)scale(.00955)"/><use xlink:href="#a" transform="rotate(-71.093 69.824 -81.615)scale(.0086)"/><use xlink:href="#a" transform="rotate(182.115 64.834 4.767)scale(.01042)"/><use xlink:href="#a" transform="rotate(25.897 48.195 283.811)scale(.01247)"/><use xlink:href="#a" transform="rotate(-30.777 82.379 -230.63)scale(.008)"/><use xlink:href="#a" transform="rotate(188.471 67.967 1.385)scale(.01318)"/><use xlink:href="#a" transform="rotate(105.118 64.558 56.854)scale(.00695)"/><use xlink:href="#a" transform="rotate(48.905 58.312 154.04)scale(.00616)"/><use xlink:href="#a" transform="rotate(242.7 71.754 -35.851)scale(.00582)"/><use xlink:href="#a" transform="rotate(242.001 72.72 -34.806)scale(.0127)"/><use xlink:href="#a" transform="rotate(-56.515 79.008 -123.567)scale(.00736)"/><use xlink:href="#a" transform="rotate(-57.85 79.053 -120.167)scale(.01415)"/><use xlink:href="#a" transform="rotate(74.887 66.697 98.72)scale(.0073)"/><use xlink:href="#a" transform="rotate(8.97 22.176 919.652)scale(.01332)"/><use xlink:href="#a" transform="rotate(200.787 74.923 -7.644)scale(.00632)"/><use xlink:href="#a" transform="rotate(254.725 78.187 -50.378)scale(.00671)"/><use xlink:href="#a" transform="rotate(-81.45 80.544 -80.294)scale(.00722)"/><use xlink:href="#a" transform="rotate(63.613 68.752 126.28)scale(.00861)"/><use xlink:href="#a" transform="rotate(248.316 79.558 -45.581)scale(.00585)"/><use xlink:href="#a" transform="rotate(38.223 64.528 224.738)scale(.00912)"/><use xlink:href="#a" transform="rotate(213.395 79.564 -16.833)scale(.01088)"/><use xlink:href="#a" transform="rotate(170.519 78.37 12.274)scale(.00739)"/><use xlink:href="#a" transform="rotate(-89.253 84.106 -73.303)scale(.00692)"/><use xlink:href="#a" transform="rotate(34.271 64.987 261.22)scale(.00723)"/><use xlink:href="#a" transform="rotate(96.042 76.789 77.499)scale(.01003)"/><use xlink:href="#a" transform="rotate(-55.96 90.258 -144.861)scale(.0079)"/><use xlink:href="#a" transform="rotate(56.645 73.558 156.041)scale(.00902)"/><use xlink:href="#a" transform="rotate(207.018 84.554 -12.96)scale(.01324)"/><use xlink:href="#a" transform="rotate(35.07 69.567 267.636)scale(.00971)"/><use xlink:href="#a" transform="rotate(183.052 84.702 3.764)scale(.00637)"/><use xlink:href="#a" transform="rotate(-43.142 97.715 -206.754)scale(.0056)"/><use xlink:href="#a" transform="rotate(140.356 83.93 36.507)scale(.00721)"/><use xlink:href="#a" transform="rotate(72.536 79.58 122.071)scale(.00709)"/><use xlink:href="#a" transform="rotate(225.174 89.36 -28.972)scale(.01203)"/><use xlink:href="#a" transform="rotate(-54.692 97.632 -161.52)scale(.00629)"/><use xlink:href="#a" transform="rotate(3.117 -103.046 3214.171)scale(.00562)"/><use xlink:href="#a" transform="rotate(239.898 92.137 -43.694)scale(.01149)"/><use xlink:href="#a" transform="matrix(.00952 -.01055 .01055 .00952 175.706 11.556)"/><use xlink:href="#a" transform="rotate(132.908 88.658 45.436)scale(.00659)"/><use xlink:href="#a" transform="rotate(172.666 91.979 12.7)scale(.01324)"/><use xlink:href="#a" transform="rotate(-36.3 108.715 -272.82)scale(.00607)"/><use xlink:href="#a" transform="rotate(-15.41 133.167 -673.723)scale(.00581)"/><use xlink:href="#a" transform="rotate(-14.377 133.182 -724.609)scale(.01195)"/><use xlink:href="#a" transform="rotate(208.2 96.383 -16.439)scale(.01112)"/><use xlink:href="#a" transform="rotate(-63.507 104.303 -145.375)scale(.01023)"/><use xlink:href="#a" transform="rotate(23.564 70.57 463.108)scale(.00827)"/><use xlink:href="#a" transform="rotate(215.985 98.977 -24.283)scale(.00829)"/><use xlink:href="#a" transform="rotate(210.706 99.955 -19.26)scale(.01468)"/><use xlink:href="#a" transform="rotate(-46.255 111.032 -222.379)scale(.00805)"/><use xlink:href="#a" transform="rotate(30.057 80.558 373.032)scale(.00758)"/><use xlink:href="#a" transform="rotate(168.319 99.527 16.23)scale(.0057)"/><use xlink:href="#a" transform="rotate(40.41 87.682 276.628)scale(.00869)"/><use xlink:href="#a" transform="rotate(-3.998 224.217 -2857.984)scale(.014)"/><use xlink:href="#a" transform="rotate(64.322 97.207 167.087)scale(.01432)"/><use xlink:href="#a" transform="rotate(87.39 99.405 113.09)scale(.00873)"/><use xlink:href="#a" transform="rotate(-3.125 266.193 -3782.973)scale(.00574)"/><use xlink:href="#a" transform="rotate(227.766 106.835 -40.459)scale(.00701)"/><use xlink:href="#a" transform="rotate(-73.179 111.12 -134.496)scale(.01242)"/><use xlink:href="#a" transform="rotate(188.082 106.657 -2.333)scale(.00577)"/><use xlink:href="#a" transform="rotate(-67.507 112.745 -153.458)scale(.00614)"/><use xlink:href="#a" transform="rotate(83.688 102.923 123.673)scale(.00558)"/><use xlink:href="#a" transform="rotate(-27.157 122.33 -435.76)scale(.01302)"/><use xlink:href="#a" transform="rotate(10.528 71.743 1175.05)scale(.00867)"/><use xlink:href="#a" transform="rotate(-95.98 112.82 -93.241)scale(.0064)"/><use xlink:href="#a" transform="rotate(91.97 108.278 110.214)scale(.01316)"/><use xlink:href="#a" transform="rotate(254.7 114.147 -79.042)scale(.01283)"/><use xlink:href="#a" transform="rotate(-15.61 131.38 -805.736)scale(.01143)"/><use xlink:href="#a" transform="rotate(241.605 115.413 -62.274)scale(.01323)"/><use xlink:href="#a" transform="rotate(104.387 112.071 91.68)scale(.00566)"/><use xlink:href="#a" transform="rotate(94.156 113.492 109.67)scale(.0118)"/><use xlink:href="#a" transform="rotate(154.484 115.187 29.512)scale(.00624)"/><use xlink:href="#a" transform="rotate(-91.022 118.904 -108.918)scale(.01315)"/><use xlink:href="#a" transform="rotate(163.348 117.934 20.855)scale(.01297)"/><use xlink:href="#a" transform="rotate(67.994 117.622 177.23)scale(.01474)"/><use xlink:href="#a" transform="rotate(179.919 120.384 3.455)scale(.01248)"/><use xlink:href="#a" transform="rotate(161.999 120.963 21.947)scale(.0105)"/><use xlink:href="#a" transform="rotate(27.523 114.988 494.563)scale(.00556)"/><use xlink:href="#a" transform="rotate(-77.087 123.8 -149.38)scale(.00565)"/><use xlink:href="#a" transform="rotate(110.866 122.789 86.515)scale(.01353)"/><use xlink:href="#a" transform="rotate(-23.304 129.102 -591.79)scale(.00662)"/><use xlink:href="#a" transform="rotate(42.131 120.885 321.759)scale(.00578)"/><use xlink:href="#a" transform="rotate(166.293 125.264 17.445)scale(.01242)"/><use xlink:href="#a" transform="rotate(-6.006 132.154 -2367.265)scale(.01225)"/><use xlink:href="#a" transform="rotate(185.621 127.297 -3.98)scale(.01197)"/><use xlink:href="#a" transform="rotate(-35.441 128.252 -393.335)scale(.01184)"/><use xlink:href="#a" transform="rotate(247.702 129.229 -82.984)scale(.01291)"/><use xlink:href="#a" transform="rotate(24.5 121.918 590.817)scale(.00553)"/><use xlink:href="#a" transform="rotate(39.885 123.678 355.015)scale(.0068)"/><use xlink:href="#a" transform="rotate(258.21 131.015 -99.93)scale(.00894)"/><use xlink:href="#a" transform="rotate(203.682 130.238 -21.742)scale(.01256)"/><use xlink:href="#a" transform="rotate(120.57 127.333 78.78)scale(.0104)"/><use xlink:href="#a" transform="rotate(75.012 122.887 173.473)scale(.0059)"/><use xlink:href="#a" transform="rotate(161.001 128.762 28.158)scale(.00696)"/><use xlink:href="#a" transform="rotate(165.38 129.399 24.37)scale(.0125)"/><use xlink:href="#a" transform="rotate(195.435 130.946 -9.058)scale(.00796)"/><use xlink:href="#a" transform="rotate(93.96 122.677 129.14)scale(.00553)"/><use xlink:href="#a" transform="rotate(170.775 129.402 19.583)scale(.0055)"/><use xlink:href="#a" transform="rotate(4.383 -95.922 3385.782)scale(.00635)"/><use xlink:href="#a" transform="rotate(-56.276 147.474 -230.404)scale(.01006)"/><use xlink:href="#a" transform="rotate(64.255 115.475 217.305)scale(.01169)"/><use xlink:href="#a" transform="rotate(119.22 124.304 88.086)scale(.00698)"/><use xlink:href="#a" transform="rotate(26.117 82.222 570.962)scale(.01071)"/><use xlink:href="#a" transform="rotate(-28.51 179.57 -496.713)scale(.00845)"/><use xlink:href="#a" transform="rotate(-54.487 156.368 -237.94)scale(.00739)"/><use xlink:href="#a" transform="rotate(-38.344 169.738 -355.619)scale(.01397)"/><use xlink:href="#a" transform="rotate(223.012 136.694 -34.173)scale(.01257)"/><use xlink:href="#a" transform="rotate(42.744 89.786 346.998)scale(.0059)"/><use xlink:href="#a" transform="rotate(-71.793 152.543 -160.722)scale(.00727)"/><use xlink:href="#a" transform="rotate(-38.481 178.064 -350.67)scale(.00798)"/><use xlink:href="#a" transform="rotate(-35.279 184.765 -386.113)scale(.00682)"/><use xlink:href="#a" transform="rotate(132.493 121.96 75.954)scale(.0099)"/><use xlink:href="#a" transform="rotate(-17.82 249.159 -797.678)scale(.0077)"/><use xlink:href="#a" transform="rotate(-45.568 175.36 -284.121)scale(.00745)"/><use xlink:href="#a" transform="rotate(-68.64 158.283 -166.445)scale(.0058)"/><use xlink:href="#a" transform="rotate(7.45 -183.643 1980.731)scale(.00936)"/><use xlink:href="#a" transform="rotate(8.37 -158.858 1761.34)scale(.01056)"/><use xlink:href="#a" transform="rotate(245.175 142.638 -58.273)scale(.00647)"/><use xlink:href="#a" transform="rotate(47.167 76.698 315.08)scale(.00762)"/><use xlink:href="#a" transform="rotate(-46.57 181.97 -271.048)scale(.0057)"/><use xlink:href="#a" transform="rotate(-38.344 196.073 -340.018)scale(.00737)"/><use xlink:href="#a" transform="rotate(249.431 144.946 -61.227)scale(.01319)"/><use xlink:href="#a" transform="rotate(111.102 110.725 113.486)scale(.01245)"/><use xlink:href="#a" transform="rotate(166.318 124.14 42.63)scale(.00726)"/><use xlink:href="#a" transform="rotate(40.468 54.973 368.859)scale(.0113)"/><use xlink:href="#a" transform="rotate(1.161 -2605.896 12412.12)scale(.00843)"/><use xlink:href="#a" transform="rotate(190.617 129.648 18.918)scale(.0144)"/><use xlink:href="#a" transform="rotate(-50.618 188.866 -233.504)scale(.00818)"/><use xlink:href="#a" transform="rotate(58.626 72.133 253.926)scale(.00654)"/><use xlink:href="#a" transform="rotate(150.657 118.143 64.975)scale(.01096)"/><use xlink:href="#a" transform="rotate(152.733 118.402 63.502)scale(.0115)"/><use xlink:href="#a" transform="rotate(101.537 99.19 135.402)scale(.00964)"/><use xlink:href="#a" transform="rotate(-7.408 638.914 -1885.311)scale(.01001)"/><use xlink:href="#a" transform="rotate(211.794 135.6 .03)scale(.00826)"/><use xlink:href="#a" transform="rotate(191.822 129.461 23.019)scale(.0064)"/><use xlink:href="#a" transform="rotate(182.565 126.819 33.523)scale(.00555)"/><use xlink:href="#a" transform="rotate(47.43 45.554 321.564)scale(.01116)"/><use xlink:href="#a" transform="rotate(-45.523 213.884 -260.304)scale(.0086)"/><use xlink:href="#a" transform="rotate(176.268 125.21 42.598)scale(.00637)"/><use xlink:href="#a" transform="rotate(-32.16 258.304 -396.827)scale(.00547)"/><use xlink:href="#a" transform="rotate(165.712 122.696 56.082)scale(.01398)"/><use xlink:href="#a" transform="rotate(19.602 -100.75 768.842)scale(.00943)"/><use xlink:href="#a" transform="rotate(-10.279 573.779 -1357.297)scale(.00996)"/><use xlink:href="#a" transform="rotate(-84.397 173.01 -95.785)scale(.0133)"/><use xlink:href="#a" transform="rotate(84.43 81.734 182.943)scale(.01099)"/><use xlink:href="#a" transform="rotate(38.991 6.895 402.12)scale(.00938)"/><use xlink:href="#a" transform="rotate(49.448 32.796 320.545)scale(.0065)"/><use xlink:href="#a" transform="rotate(160.196 120.975 68.227)scale(.01197)"/><use xlink:href="#a" transform="rotate(6.165 -708.407 2401.185)scale(.01238)"/><use xlink:href="#a" transform="rotate(147.283 114.815 84.769)scale(.00582)"/><use xlink:href="#a" transform="rotate(244.732 157.438 -32.806)scale(.00784)"/><use xlink:href="#a" transform="rotate(49.805 29.308 318.391)scale(.01215)"/><use xlink:href="#a" transform="rotate(114.686 96.86 127.583)scale(.00684)"/><use xlink:href="#a" transform="rotate(-68.084 193.783 -136.775)scale(.00944)"/><use xlink:href="#a" transform="rotate(-42.872 242.55 -269.057)scale(.00551)"/><use xlink:href="#a" transform="rotate(-64.394 197.235 -147.91)scale(.01085)"/><use xlink:href="#a" transform="rotate(72.178 61.458 214.837)scale(.01093)"/><use xlink:href="#a" transform="rotate(222.928 140.877 .07)scale(.01396)"/><use xlink:href="#a" transform="rotate(87.931 74.3 171.783)scale(.00674)"/><use xlink:href="#a" transform="rotate(21.603 -116.66 673.584)scale(.01055)"/><use xlink:href="#a" transform="rotate(-96.752 160.61 -58.503)scale(.00997)"/><use xlink:href="#a" transform="rotate(-62.243 194.142 -148.133)scale(.0112)"/><use xlink:href="#a" transform="rotate(144.743 104.186 83.898)scale(.0089)"/><use xlink:href="#a" transform="rotate(-4.176 1364.506 -3156.014)scale(.00563)"/><use xlink:href="#a" transform="rotate(50.388 22.246 292.36)scale(.01184)"/><use xlink:href="#a" transform="rotate(18.867 -152.367 735.454)scale(.0129)"/><use xlink:href="#a" transform="rotate(150.643 103.63 76.234)scale(.01026)"/><use xlink:href="#a" transform="rotate(-51.965 206.53 -185.282)scale(.00932)"/><use xlink:href="#a" transform="rotate(-10.65 592.617 -1154.418)scale(.01108)"/><use xlink:href="#a" transform="rotate(113.443 83.235 119.226)scale(.00704)"/><use xlink:href="#a" transform="rotate(-99.438 150.04 -48.167)scale(.0066)"/><use xlink:href="#a" transform="rotate(103.658 76.714 132.717)scale(.0109)"/><use xlink:href="#a" transform="rotate(22.566 -113.39 594.458)scale(.00743)"/><use xlink:href="#a" transform="rotate(-89.23 155.303 -64.753)scale(.006)"/><use xlink:href="#a" transform="rotate(70.271 46.26 199.71)scale(.00762)"/><use xlink:href="#a" transform="rotate(249.887 139.943 -28.795)scale(.01144)"/><use xlink:href="#a" transform="rotate(37.927 -21.045 356.202)scale(.00767)"/><use xlink:href="#a" transform="rotate(100.568 70.32 133.829)scale(.00664)"/><use xlink:href="#a" transform="rotate(-51.252 198.461 -172.857)scale(.0123)"/><use xlink:href="#a" transform="rotate(173.197 103.422 52.155)scale(.01404)"/><use xlink:href="#a" transform="rotate(52.02 15.264 256.442)scale(.01148)"/><use xlink:href="#a" transform="rotate(-48.79 200.031 -179.295)scale(.01122)"/><use xlink:href="#a" transform="rotate(196.843 109.38 30.7)scale(.01386)"/><use xlink:href="#a" transform="rotate(105.042 68.022 121.94)scale(.0075)"/><use xlink:href="#a" transform="rotate(37.188 -28.976 341.142)scale(.00857)"/><use xlink:href="#a" transform="rotate(-60.296 175.085 -124.386)scale(.01125)"/><use xlink:href="#a" transform="rotate(247.135 128.24 -20.38)scale(.00656)"/><use xlink:href="#a" transform="rotate(150.23 87.055 70.653)scale(.00567)"/><use xlink:href="#a" transform="rotate(-6.612 854.744 -1638.968)scale(.00586)"/><use xlink:href="#a" transform="rotate(114.526 69.936 106.754)scale(.00797)"/><use xlink:href="#a" transform="rotate(159.512 89.24 62.006)scale(.00687)"/><use xlink:href="#a" transform="rotate(90.45 53.253 139.336)scale(.0057)"/><use xlink:href="#a" transform="rotate(-61.322 169.3 -115.675)scale(.0066)"/><use xlink:href="#a" transform="rotate(134.182 77.299 84.376)scale(.0079)"/><use xlink:href="#a" transform="rotate(230.692 115.334 .69)scale(.0121)"/><use xlink:href="#a" transform="rotate(199.864 101.38 27.89)scale(.00546)"/><use xlink:href="#a" transform="rotate(.091 -53972.744 115737.56)scale(.00883)"/><use xlink:href="#a" transform="rotate(-84.77 139.53 -54.356)scale(.01452)"/><use xlink:href="#a" transform="rotate(83.332 43.876 145.351)scale(.01183)"/><use xlink:href="#a" transform="rotate(-32.81 236.62 -260.187)scale(.00545)"/><use xlink:href="#a" transform="rotate(157.627 81.843 61.91)scale(.01193)"/><use xlink:href="#a" transform="rotate(-99.565 125.386 -30.471)scale(.00575)"/><use xlink:href="#a" transform="rotate(96.317 50.78 122.211)scale(.01247)"/><use xlink:href="#a" transform="rotate(59.196 13.146 195.324)scale(.01439)"/><use xlink:href="#a" transform="rotate(24.768 -109.69 431.852)scale(.00803)"/><use xlink:href="#a" transform="rotate(-40.661 202.032 -184.21)scale(.00623)"/><use xlink:href="#a" transform="rotate(179.307 85.132 45.421)scale(.01276)"/><use xlink:href="#a" transform="rotate(29.632 -77.617 356.273)scale(.01136)"/><use xlink:href="#a" transform="rotate(70.986 22.258 159.601)scale(.00676)"/><use xlink:href="#a" transform="rotate(2.608 -1795.33 3581.173)scale(.0147)"/><use xlink:href="#a" transform="rotate(235.836 104.37 2.731)scale(.01119)"/><use xlink:href="#a" transform="rotate(216.095 94.71 19.716)scale(.0139)"/><use xlink:href="#a" transform="rotate(92.867 37.767 119.042)scale(.00598)"/><use xlink:href="#a" transform="rotate(-95.256 118.604 -25.956)scale(.00724)"/><use xlink:href="#a" transform="rotate(-91.867 120.373 -29.422)scale(.0086)"/><use xlink:href="#a" transform="rotate(-3.648 1453.568 -2354.833)scale(.00629)"/><use xlink:href="#a" transform="rotate(-4.173 1264.966 -2019.12)scale(.01172)"/><use xlink:href="#a" transform="rotate(83.38 27.2 128.801)scale(.00973)"/><use xlink:href="#a" transform="rotate(19.68 -176.158 469.994)scale(.00986)"/><use xlink:href="#a" transform="rotate(207.883 85.226 26.783)scale(.0059)"/><use xlink:href="#a" transform="rotate(-42.05 188.642 -144.604)scale(.00552)"/><use xlink:href="#a" transform="rotate(-16.784 371.387 -444.026)scale(.00763)"/><use xlink:href="#a" transform="rotate(-44.56 179.57 -127.986)scale(.01117)"/><use xlink:href="#a" transform="rotate(184.36 73.626 42.877)scale(.00992)"/><use xlink:href="#a" transform="rotate(-88.704 115.95 -25.56)scale(.0101)"/><use xlink:href="#a" transform="rotate(14.546 -274.077 583.961)scale(.00952)"/><use xlink:href="#a" transform="rotate(147.081 56.695 65.962)scale(.0133)"/><use xlink:href="#a" transform="rotate(101.302 32.722 100.466)scale(.01467)"/><use xlink:href="#a" transform="rotate(75.48 9.667 130.742)scale(.00682)"/><use xlink:href="#a" transform="rotate(227.341 85.951 17.52)scale(.01148)"/><use xlink:href="#a" transform="rotate(184.693 67.32 42.885)scale(.00617)"/><use xlink:href="#a" transform="rotate(220.593 81.488 21.919)scale(.00564)"/><use xlink:href="#a" transform="rotate(-4.247 1256.371 -1652.126)scale(.01062)"/><use xlink:href="#a" transform="rotate(142.864 48.717 66.838)scale(.00758)"/><use xlink:href="#a" transform="rotate(23.726 -148.446 339.129)scale(.0098)"/><use xlink:href="#a" transform="rotate(224.166 80.437 21.976)scale(.01302)"/><use xlink:href="#a" transform="rotate(160.433 53.772 56.64)scale(.0133)"/><use xlink:href="#a" transform="rotate(36.498 -74.09 222.648)scale(.01417)"/><use xlink:href="#a" transform="rotate(174.449 56.982 49.375)scale(.01378)"/><use xlink:href="#a" transform="rotate(109.561 26.654 86.13)scale(.01438)"/><use xlink:href="#a" transform="rotate(-.313 16620.119 -20291.03)scale(.00623)"/><use xlink:href="#a" transform="rotate(-93.697 97.975 -3.645)scale(.01466)"/><use xlink:href="#a" transform="rotate(-76.3 112.195 -21.106)scale(.01017)"/><use xlink:href="#a" transform="rotate(205.102 64.023 34.686)scale(.00684)"/><use xlink:href="#a" transform="rotate(-58.524 134.403 -46.83)scale(.00653)"/><use xlink:href="#a" transform="rotate(-25.348 254.367 -183.711)scale(.00648)"/><use xlink:href="#a" transform="rotate(221.493 69.531 27.907)scale(.01258)"/><use xlink:href="#a" transform="rotate(104.243 16.375 85.544)scale(.0116)"/><use xlink:href="#a" transform="rotate(190.576 54.744 42.873)scale(.0146)"/><use xlink:href="#a" transform="rotate(-42.151 166.5 -75.653)scale(.01185)"/><use xlink:href="#a" transform="rotate(53.18 -43.262 140.696)scale(.00696)"/><use xlink:href="#a" transform="rotate(144.086 32.649 61.924)scale(.00644)"/><use xlink:href="#a" transform="rotate(198.152 54.456 40.274)scale(.01328)"/><use xlink:href="#a" transform="rotate(186.654 48.633 44.66)scale(.00967)"/><use xlink:href="#a" transform="rotate(-47.578 148.906 -52.561)scale(.0073)"/><use xlink:href="#a" transform="rotate(218.155 60.333 32.116)scale(.00733)"/><use xlink:href="#a" transform="rotate(18.662 -236.256 307.852)scale(.00572)"/><use xlink:href="#a" transform="rotate(150.195 31.057 58.283)scale(.00554)"/><use xlink:href="#a" transform="rotate(-7.949 703.81 -553.133)scale(.00752)"/><use xlink:href="#a" transform="rotate(69.77 -22.684 105.64)scale(.0143)"/><use xlink:href="#a" transform="rotate(164.784 34.885 52.576)scale(.00589)"/><use xlink:href="#a" transform="rotate(-14.972 391.659 -252.553)scale(.0075)"/><use xlink:href="#a" transform="rotate(-79.064 95.546 2.076)scale(.01451)"/><use xlink:href="#a" transform="rotate(231.486 61.128 29.52)scale(.00821)"/><use xlink:href="#a" transform="rotate(257.349 75.136 18.07)scale(.00798)"/><use xlink:href="#a" transform="rotate(250.182 69.914 22.41)scale(.00956)"/><use xlink:href="#a" transform="rotate(-38.167 169.55 -54.213)scale(.00948)"/><use xlink:href="#a" transform="rotate(217.886 51.664 35.31)scale(.00738)"/><use xlink:href="#a" transform="rotate(-76.817 93.008 4.756)scale(.00985)"/><use xlink:href="#a" transform="rotate(9.375 -526.344 453.79)scale(.00653)"/><use xlink:href="#a" transform="rotate(198.358 41.288 41.71)scale(.0061)"/><use xlink:href="#a" transform="rotate(78.013 -23.231 86.841)scale(.00714)"/><use xlink:href="#a" transform="rotate(95.878 -8.69 75.592)scale(.00593)"/><use xlink:href="#a" transform="rotate(226.55 52.01 34.498)scale(.01413)"/><use xlink:href="#a" transform="rotate(-9.209 599.376 -326.658)scale(.00623)"/><use xlink:href="#a" transform="rotate(51.568 -63.57 107.639)scale(.00767)"/><use xlink:href="#a" transform="rotate(123.04 5.928 62.388)scale(.01403)"/><use xlink:href="#a" transform="rotate(-56.794 112.735 -4.505)scale(.0074)"/><use xlink:href="#a" transform="rotate(181.75 29.044 46.506)scale(.01094)"/><use xlink:href="#a" transform="rotate(149.278 14.78 53.568)scale(.00573)"/><use xlink:href="#a" transform="rotate(82.058 -24.915 75.833)scale(.0094)"/><use xlink:href="#a" transform="rotate(102.718 -10.225 66.28)scale(.00566)"/><use xlink:href="#a" transform="rotate(-31.361 186.09 -39.866)scale(.00852)"/><use xlink:href="#a" transform="rotate(27.311 -159.635 142.553)scale(.0102)"/><use xlink:href="#a" transform="rotate(-90.19 68.822 23.176)scale(.00646)"/><use xlink:href="#a" transform="rotate(253.42 56.781 30.479)scale(.01344)"/><use xlink:href="#a" transform="rotate(20.72 -219.23 158.288)scale(.0134)"/><use xlink:href="#a" transform="rotate(79.324 -32.318 69.998)scale(.00996)"/><use xlink:href="#a" transform="rotate(238.918 45.672 34.884)scale(.00648)"/><use xlink:href="#a" transform="rotate(71.722 -41.813 71.719)scale(.00706)"/><use xlink:href="#a" transform="rotate(256.035 54.086 31.815)scale(.00872)"/><use xlink:href="#a" transform="rotate(125.303 -3.89 54.704)scale(.01272)"/><use xlink:href="#a" transform="rotate(101.437 -18.064 58.764)scale(.0126)"/><use xlink:href="#a" transform="rotate(43.035 -95.938 84.556)scale(.00605)"/><use xlink:href="#a" transform="rotate(-91.31 58.95 32)scale(.0126)"/><use xlink:href="#a" transform="rotate(11.904 -408.547 178.486)scale(.00625)"/><use xlink:href="#a" transform="rotate(184.354 16.107 44.666)scale(.00707)"/><use xlink:href="#a" transform="rotate(-22.73 230.044 -13.589)scale(.01344)"/><use xlink:href="#a" transform="rotate(60.737 -62.41 65.003)scale(.0055)"/><use xlink:href="#a" transform="rotate(100.605 -23.801 54.245)scale(.0105)"/><use xlink:href="#a" transform="rotate(222.824 28.58 41.548)scale(.01233)"/><use xlink:href="#a" transform="rotate(188.674 13.665 44.147)scale(.00628)"/><use xlink:href="#a" transform="rotate(87.685 -35.694 53.95)scale(.00661)"/><use xlink:href="#a" transform="rotate(242.678 35.828 39.688)scale(.0067)"/><use xlink:href="#a" transform="rotate(170.523 5.132 45.392)scale(.00697)"/><use xlink:href="#a" transform="rotate(218.312 23.34 42.985)scale(.01333)"/><use xlink:href="#a" transform="rotate(138.251 -8.956 47.069)scale(.01418)"/><use xlink:href="#a" transform="rotate(148.319 -6.274 45.884)scale(.00878)"/><use xlink:href="#a" transform="rotate(194.173 10.68 44.272)scale(.01204)"/><use xlink:href="#a" transform="rotate(146.385 -8.59 45.373)scale(.01101)"/><use xlink:href="#a" transform="rotate(226.833 21.908 43.594)scale(.00895)"/><use xlink:href="#a" transform="rotate(5.519 -873.3 54.139)scale(.01446)"/><use xlink:href="#a" transform="rotate(-71.403 60.353 43.93)scale(.01388)"/><use xlink:href="#a" transform="rotate(135.399 -14.292 42.903)scale(.01357)"/><use xlink:href="#a" transform="rotate(114.119 -24.457 41.935)scale(.00552)"/><use xlink:href="#a" transform="rotate(203.574 10.376 40.834)scale(.00738)"/><use xlink:href="#a" transform="rotate(113.796 -23.78 40.932)scale(.00577)"/><use xlink:href="#a" transform="rotate(257.958 33.523 39.035)scale(.00656)"/><use xlink:href="#a" transform="rotate(135.79 -13.387 39.734)scale(.0073)"/><use xlink:href="#a" transform="rotate(94.299 -32.766 39.8)scale(.0063)"/><use xlink:href="#a" transform="rotate(-65.847 58.819 37.52)scale(.0131)"/><use xlink:href="#a" transform="rotate(21.388 -184.567 42.159)scale(.01174)"/><use xlink:href="#a" transform="rotate(127.5 -14.938 36.829)scale(.00597)"/><use xlink:href="#a" transform="rotate(26.143 -146.426 41.758)scale(.00649)"/><use xlink:href="#a" transform="rotate(230.123 18.442 34.422)scale(.00634)"/><use xlink:href="#a" transform="rotate(3.57 -1041.408 66.212)scale(.01418)"/><use xlink:href="#a" transform="rotate(223.986 15.736 32.703)scale(.00575)"/><use xlink:href="#a" transform="rotate(25.16 -136.16 39.02)scale(.0124)"/><use xlink:href="#a" transform="rotate(141.116 -7.835 32.631)scale(.00678)"/><use xlink:href="#a" transform="rotate(-33.287 101.662 27.351)scale(.01419)"/><use xlink:href="#a" transform="rotate(-30.597 108.022 23.87)scale(.01067)"/><use xlink:href="#a" transform="rotate(155.029 -2.985 29.802)scale(.00641)"/><use xlink:href="#a" transform="rotate(-51.674 60.157 24.495)scale(.00914)"/><use xlink:href="#a" transform="rotate(193.481 6.657 27.825)scale(.008)"/><use xlink:href="#a" transform="rotate(119.492 -11.705 28.786)scale(.00715)"/><use xlink:href="#a" transform="rotate(64.054 -35.389 29.697)scale(.01477)"/><use xlink:href="#a" transform="rotate(104.939 -15.5 27.224)scale(.00677)"/><use xlink:href="#a" transform="rotate(19.98 -133.397 37.274)scale(.00548)"/><use xlink:href="#a" transform="rotate(101.79 -14.875 26.008)scale(.01276)"/><use xlink:href="#a" transform="rotate(46.813 -46.183 26.404)scale(.0141)"/><use xlink:href="#a" transform="rotate(-33.281 73.011 17.749)scale(.00877)"/><use xlink:href="#a" transform="rotate(122.134 -8.343 22.453)scale(.00927)"/><use xlink:href="#a" transform="rotate(227.528 11.379 20.44)scale(.01002)"/><use xlink:href="#a" transform="rotate(133.71 -5.77 20.592)scale(.00594)"/><use xlink:href="#a" transform="rotate(209.275 7.136 19.21)scale(.00654)"/><use xlink:href="#a" transform="rotate(68.464 -22.579 20.276)scale(.01217)"/><use xlink:href="#a" transform="rotate(67.06 -23.56 19.804)scale(.00544)"/><use xlink:href="#a" transform="rotate(-65.601 26.662 17.378)scale(.01454)"/><use xlink:href="#a" transform="rotate(-88.274 17.502 15.843)scale(.0099)"/><use xlink:href="#a" transform="rotate(-3.588 447.401 1.442)scale(.01036)"/><use xlink:href="#a" transform="rotate(8.027 -191.846 22.546)scale(.00662)"/><use xlink:href="#a" transform="rotate(-99.241 12.524 14.103)scale(.00975)"/><use xlink:href="#a" transform="rotate(120.416 -5.416 13.58)scale(.00687)"/><use xlink:href="#a" transform="rotate(250.57 9.899 12.477)scale(.0081)"/><use xlink:href="#a" transform="rotate(147.45 -1.463 12.252)scale(.0075)"/><use xlink:href="#a" transform="rotate(96.64 -7.518 11.897)scale(.00709)"/><use xlink:href="#a" transform="rotate(-41.799 27.203 9.44)scale(.00633)"/><defs><path id="a" fill="#000" d="M215.823 333.963c0-.733.3-1.033.667-.667a.95.95 0 0 1 0 1.334c-.367.366-.667.066-.667-.667M143.424 3.977c4.632-.653 8.099 4.826 5.302 8.382-1.951 2.48-2.551 5.604-1.078 5.604.905.004 11.175 12.34 11.175 13.423 0 1.076-4.344 5.111-6.316 5.868-1.898.728-1.434 2.71.633 2.71.661 0 1.78.924 2.486 2.056 1.284 2.054 1.286 2.054 2.991.057.938-1.1 2.606-2.139 3.706-2.307s2.33-.757 2.734-1.307c.415-.565.741-.238.75.75.018 2.14.447 2.169 3.408.229 1.623-1.063 2.19-2.212 1.884-3.81-1.049-5.489 4.864-5.512 14.402-.058 5.289 3.024 5.527 3.005 7.663-.61 3.023-5.119 9.966-1.694 8.152 4.02-.515 1.623-.183 2.247 1.417 2.666 1.15.3 2.09.945 2.09 1.43.001.485.9.883 2 .883 2.405 0 2.51-.633.446-2.697-1.937-1.936-1.511-6.247.756-7.667 2.444-1.53 3.085-.336 1.976 3.68-.844 3.057-.725 3.569.927 4 1.042.274 1.895 1.215 1.895 2.09.001 2.117 3.922 2.083 5.479-.046 1.634-2.235 4.962-.366 4.996 2.806.022 2.026.585 2.375 4.275 2.641 3.903.283 4.25.113 4.25-2.089q0-2.397 2.547-3.556c5.794-2.64 9.087-.056 7.912 6.206-.627 3.341-.627 3.341 7.125 4.043 13.323 1.209 21.701 9.211 10.916 10.427-1.65.187-3.533.779-4.183 1.316-.772.639-2.504.61-5-.082-4.664-1.295-5.317-1.318-5.317-.18 0 .89 3.547 2.107 7.692 2.639 3.814.489 4.527 1.472 3.864 5.335-1.584 9.224-1.538 9.134-4.694 9.134-1.732 0-2.721-.419-2.362-1 .34-.55.194-1-.324-1-.519 0-1.178-.9-1.466-2-.316-1.208-1.364-2-2.648-2-1.169 0-2.425-.787-2.793-1.75-.688-1.803-.846-2.03-4.339-6.25-2.069-2.5-2.069-2.5-1.491.21.443 2.079.097 2.968-1.49 3.817-3.053 1.634-2.358 6.6.861 6.15 1.27-.178 2.952.21 3.737.862.841.698 2.53.908 4.115.51 2.465-.619 2.57-.53 1.263 1.08-.904 1.113-.968 1.48-.175 1.004 1.207-.725 1.687.683 1.482 4.336-.045.808 1.226 3.249 2.826 5.425 2.411 3.278 2.808 4.595 2.313 7.686-.499 3.124-.251 3.915 1.528 4.868 1.738.93 1.934 1.496 1.067 3.115-.582 1.088-.743 2.489-.358 3.114 1.359 2.199-6.627-.001-11.342-3.124-8.698-5.762-10.731-2.813-8.924 12.947.221 1.925-.023 4.035-.543 4.69-2.291 2.887-.482 6.804 3.201 6.932 1.925.067 3.95.231 4.5.365s1.77.166 2.711.072c2.294-.23 5.828 1.736 5.529 3.076-.429 1.92 7.577 1.339 13.716-.996 3.275-1.246 6.763-2.054 7.75-1.795 1.097.287 1.794-.077 1.794-.937 0-.773-.9-1.407-2-1.407-2.468 0-2.532-1.121-.227-3.967 1.774-2.19 1.774-2.191 3.655-.112 3.099 3.423 8.159.85 5.79-2.944-.993-1.589-.581-2.041 3.321-3.645 2.449-1.007 4.455-2.169 4.457-2.582s.443-.75.979-.75c1.288 0 .183 5.855-1.664 8.817-1.092 1.751-1.167 2.651-.309 3.686 1.283 1.545-.226 5.368-2.692 6.822-.804.474-1.149 1.608-.812 2.669.406 1.279-.025 2.039-1.405 2.477-1.193.378-1.772 1.202-1.445 2.054.599 1.563-1.168 3.716-3.898 4.75-.962.364-1.75 1.619-1.75 2.789 0 2.226-3.33 7.595-5.963 9.615-1.366 1.047-1.342 1.254.215 1.857 1.184.459 2.39-.086 3.717-1.678 2.104-2.526 2.666-1.913 1.038 1.131-.844 1.574-.541 1.954 2 2.512 3.869.85 4.064 4.832.493 10.094-3.324 4.898-3.182 6.036 1.488 11.905 2.188 2.75 5.447 7.129 7.244 9.732 2.93 4.244 6.768 6.38 6.768 3.768 0-.55 1.035-1 2.3-1s2.746-.446 3.29-.99c.62-.62 2.15-.657 4.088-.101 2.392.686 3.469.516 4.728-.744 4.803-4.802 6.925 3.04 2.546 9.405-3.724 5.412-1.48 4.855 3.795-.941 1.786-1.963 3.851-3.336 4.59-3.052.738.282 1.92-.181 2.625-1.031 1.934-2.33 4.935-1.866 6.224.963 1.583 3.475-.177 6.436-7.813 13.14-6.161 5.409-6.161 5.409-3.267 8.303q6.73 6.731-2.936 8.665c-2.37.473-3.292.23-3.762-.995-.888-2.314-2.696-2.009-5.448.92-2.037 2.169-2.206 2.834-1.151 4.523 1.864 2.986.028 5.71-3.506 5.2-4.597-.663-9.708 5.273-8.219 9.547.611 1.753 1.63 3.202 2.264 3.219s.361.49-.606 1.054c-.967.563-2.166.771-2.665.463-.498-.308-1.136-.096-1.417.471-.28.567-.375.457-.21-.244a1.32 1.32 0 0 1 1.594-.969c1.051.249 1.054.018.019-1.229-.82-.989-2.396-1.39-4.419-1.124a92 92 0 0 1-6.144.558c-1.65.081-2.437.374-1.75.651.688.279 1.25 1.087 1.25 1.799s.675 1.854 1.5 2.539c5.107 4.238-.167 9.564-11.856 11.977-5.805 1.198-5.851 1.236-5.25 4.241.333 1.668.606 4.11.606 5.428 0 1.565.84 2.78 2.421 3.5 1.427.65 2.204 1.669 1.892 2.481-1.315 3.427.629 6.545 3.665 5.878 3.965-.871 7.62 1.069 5.906 3.134-.684.825-2.082 1.281-3.105 1.013-1.464-.382-1.732-.077-1.254 1.431.545 1.717.081 1.917-4.459 1.917-5.146 0-6.794-1.89-2.64-3.028 2.787-.763 3.151-3.008.595-3.677-1.452-.379-1.789-.821-.999-1.309 1.624-1.003.253-6.985-1.601-6.986-.782 0-1.421-.392-1.421-.872s-1.851-1.168-4.114-1.53c-2.276-.364-4.845-1.556-5.75-2.669-1.563-1.921-1.645-1.764-1.848 3.531-.199 5.212-.072 5.54 2.143 5.54 5.607 0 3.707 7.564-2.136 8.502-2.087.335-5.28 1.263-7.096 2.062-2.486 1.094-3.803 1.183-5.335.363-2.367-1.266-3.36-.663-2.519 1.53.326.849 1.676 1.543 3.001 1.543 3.904 0 5.075 2.286 3.115 6.077-1.665 3.218-1.666 3.218-13.063 2.607s-11.398-.611-11.398 2.418c0 8.621-10.579 8.949-12.836.398-1.025-3.886-7.44-4.574-7.971-.856-.417 2.928-5.229 3.934-5.933 1.241-.544-2.077-1.366-2.361-2.81-.97-.522.504-2.075 1.066-3.45 1.25-1.71.229-2.602 1.053-2.823 2.609-.261 1.844-.83 2.2-3 1.878-1.472-.218-2.582-.851-2.467-1.405.116-.555-.672-1.807-1.75-2.783-1.881-1.703-1.962-1.698-2.002.131-.024 1.048-1.416 3.03-3.095 4.405a541 541 0 0 0-5.708 4.749c-4.916 4.164-8.422 2.715-9.677-3.999-.385-2.061-.881-3.749-1.102-3.75s-3.649.9-7.619 2c-14.524 4.025-29-2.533-15.77-7.145 1.657-.578 3.013-1.445 3.013-1.928s-1.155-.438-2.566.098c-2.123.807-3.159.524-6-1.643-3.139-2.394-4.983-5.457-2.279-3.787.716.443.883.275.439-.443-1.049-1.697-4.913.576-4.188 2.464.811 2.113-2.281 2.937-3.707.987-1.831-2.504-6.976.008-6.236 3.044 1.341 5.502-5.446 8.159-7.44 2.914-.95-2.498-5.437-1.816-9.523 1.446-1.865 1.489-6.803 1.559-7.292.104-.259-.768-.013-1.108.549-.761.56.346.996.071.973-.61-.161-4.454.444-5.606 3.52-6.697 3.668-1.3 2.102-3.54-3.25-4.647-1.375-.284-3.306-.954-4.29-1.489-.986-.536-2.157-.749-2.603-.473-.448.276-1.667-.136-2.71-.916-1.793-1.341-1.767-1.385.487-.816 1.773.448 2.26.242 1.896-.8-.268-.771-1.228-1.27-2.134-1.108s-1.646-.113-1.646-.61c0-1.368-6.697-8.183-8.04-8.184-1.264 0-.447 5.053.968 5.991 1.274.844.882 7.15-.413 6.653-.657-.252-1.123.469-1.084 1.676.084 2.591-2.923 3.446-3.828 1.089-.357-.929.047-2.752.897-4.05 1.424-2.172 1.405-2.362-.227-2.394-.976-.02-2.897-.658-4.27-1.418-1.696-.939-2.884-1.061-3.702-.382-1.603 1.33-5.582.011-4.95-1.641.545-1.42-1.94-5.524-3.343-5.524-1.258 0-10.008-8.116-10.008-9.282 0-.581 1.664-.708 4.125-.314 3.832.613 4.086.511 3.58-1.429-.45-1.717-.294-1.879.874-.91 2.272 1.886 1.639-.557-.69-2.659-1.16-1.048-2.975-3.744-4.033-5.992-1.69-3.592-9.922-9.936-15.158-11.681-3.332-1.111 3.063-11.87 6.517-10.966 1.767.462 1.998.235 1.38-1.356-1.235-3.177-1.163-3.926.35-3.596 2.291.498 6.055-1.977 6.055-3.984 0-1.079.72-1.831 1.755-1.831 2.437 0 4.522-6.525 2.596-8.124-.743-.616-1.35-1.939-1.35-2.939-.001-1.001-.451-2.097-1-2.437-.55-.34-1-1.518-1-2.618s-.404-1.752-.895-1.448c-.49.303-1.843-1.357-3.005-3.691s-2.66-5.143-3.328-6.243-2.239-3.678-3.493-5.729c-2.852-4.664-2.888-7.741-.126-10.706 1.922-2.063 1.98-2.41.542-3.215-.887-.497-1.358-1.568-1.045-2.382.387-1.012-.573-1.955-3.043-2.987-1.984-.829-3.645-2.064-3.69-2.744-.242-3.637-1.198-7.557-2.465-10.115-.785-1.582-1.159-3.945-.832-5.25.405-1.611.16-2.392-.764-2.435-.746-.035-.333-.475.918-.977 2.606-1.047 2.206-5.5-.687-7.629-4.752-3.496-5.041-3.891-4.456-6.081.33-1.238 1.379-2.25 2.33-2.25.95 0 2.543-.9 3.538-2s2.231-2 2.745-2 1.779-1.012 2.81-2.25c1.615-1.934 1.883-2.003 1.912-.49.018.968-.867 2.53-1.967 3.472-2.538 2.173-2.518 2.899.1 3.584 1.157.303 1.805 1.029 1.442 1.617-.363.587-.445 1.067-.183 1.067.263 0 1.25.298 2.196.66 1.212.464 1.572.243 1.224-.75-.57-1.629 2.992-7.17 4.15-6.454.427.264 1.613-.132 2.636-.879 2.017-1.475.615-4.576-2.069-4.577-1.332 0-4.101-8.453-3.604-11 .162-.825.239-3.222.17-5.326-.108-3.399.22-3.954 2.949-4.984 2.134-.806 3.024-1.774 2.919-3.175-.26-3.456.036-4.654 1-4.058a1.09 1.09 0 0 0 1.502-.347c.313-.507 1.402-.705 2.42-.438 2.56.669 5.59-2.434 4.113-4.214-.807-.972-.795-1.907.043-3.472.63-1.178.9-2.782.6-3.564-.38-.993.2-1.422 1.923-1.422 1.358 0 2.469-.45 2.47-1 0-.55-.437-1-.97-1s-.71-.675-.393-1.5c.33-.861.02-1.5-.73-1.5-1.018 0-1.041-.267-.108-1.2.66-.66 1.2-1.948 1.2-2.862 0-1.277 1.32-1.818 5.684-2.331 3.126-.367 6.276-1.159 7-1.76 1.767-1.466 1.673-3.846-.153-3.847-.894 0-1.243.586-.893 1.5.363.945-.011 1.5-1.011 1.5-1.986 0-1.574-5.786.506-7.103 3.478-2.204-2.762-.68-7.275 1.776-3.573 1.945-5.211 2.374-6.012 1.573-.743-.743-1.913-.79-3.605-.148-4.224 1.606-6.24.29-6.24-4.07 0-4.477 3.34-6.913 15.25-11.124 7.366-2.604 7.512-2.802 5.108-6.871-1.99-3.368-1.188-7.635 1.6-8.52 2.676-.849 9.035.449 9.056 1.848.042 3.128 1.618 3.829 5.793 2.579 4.398-1.318 5.909-3.37 4.09-5.56-.88-1.063-.605-1.805 1.234-3.325 2.036-1.682 2.524-1.753 3.477-.506 1.928 2.52 17.01-1.493 15.954-4.243-.865-2.257 4.422-5.084 5.593-2.991 1.402 2.505 4.122 2.048 7.252-1.219 2.783-2.905 2.783-2.905.625-5.062-3.774-3.774-.756-10.609 4.56-10.326 5.589.297 6.264.495 5.822 1.71-.217.595-.005 1.692.47 2.437 1.046 1.642 5.668-.946 6.598-3.694.309-.914 3.365-3.792 6.79-6.397 3.42-2.6 6.265-4.737 6.328-4.75m65.339 318.986c.582 0 1.06.45 1.06 1s-.198 1-.441 1-.719-.45-1.059-1-.141-.999.44-1m-91.94-7.618c0-.825.45-1.222 1-.882s1 1.294 1 2.119c0 .824-.45 1.221-1 .881s-1-1.293-1-2.118m85.5-1.382c.275 0 .5.225.5.5s-.225.5-.5.5a.5.5 0 0 1-.5-.5c0-.275.225-.5.5-.5m-127.56-8c.582 0 1.06.45 1.06 1s-.198 1-.441 1-.72-.45-1.059-1c-.34-.55-.141-.999.44-1m-2.94-1c.55 0 1 .45 1 1s-.45 1-1 1-1-.45-1-1 .45-1 1-1m60 1.107c0-1.644-2.785-1.984-4.653-.57-1.705 1.292-1.597 1.402 1.403 1.431 1.787.018 3.25-.37 3.25-.861m-45-2.107c.733 0 1.033.3.667.667a.95.95 0 0 1-1.334 0c-.366-.367-.066-.667.667-.667m-9.583.079c1.054-.043 1.644.193 1.312.525s-1.195.368-1.916.079c-.798-.319-.56-.556.604-.604m1.583-3.079c.55 0 1 .45 1 1s-.45 1-1 1-1-.45-1-1 .45-1 1-1m-8.5-1c.825 0 1.5.661 1.5 1.469 0 .894-.586 1.243-1.5.893-.825-.317-1.5-.978-1.5-1.469s.675-.893 1.5-.893m-.5-8c.55 0 1 .198 1 .441s-.45.719-1 1.059-1 .141-1-.441.45-1.059 1-1.059m200.5-6c.825 0 1.5.17 1.5.378 0 .207-.675.938-1.5 1.622-1.229 1.02-1.5.951-1.5-.378 0-.892.675-1.622 1.5-1.622m5-1c.275 0 .5.225.5.5s-.225.5-.5.5a.5.5 0 0 1-.5-.5c0-.275.225-.5.5-.5m-1.808-3.641c.54-1.409.707-1.398 1.549.107 1.058 1.89.425 3.064-1.132 2.102-.561-.349-.749-1.342-.417-2.209m-3.534-.359c0-1.375.227-1.937.504-1.25.278.688.278 1.813 0 2.5-.277.688-.504.125-.504-1.25m2.342-1c.275 0 .5.225.5.5s-.225.5-.5.5a.5.5 0 0 1-.5-.5c0-.275.225-.5.5-.5m-5.844-1.455q-.555-1.444.895-.886c1.68.645 1.794 1.01.554 1.776-.493.305-1.145-.096-1.449-.89m6.844-.545c.275 0 .5.225.5.5s-.225.5-.5.5a.5.5 0 0 1-.5-.5c0-.275.225-.5.5-.5m39.5-3c0-.733.3-1.033.667-.667a.95.95 0 0 1 0 1.334c-.367.366-.667.066-.667-.667m-6-10.441c0-1.757.6-2.015 1.457-.628.317.512.118 1.214-.441 1.56-.559.344-1.016-.075-1.016-.932M39.241 257.57c-2.373-.911-2.69-.758-2.025.975.334.87.607 1.77.607 2s.675.418 1.5.418c1.99 0 1.928-2.622-.082-3.393m255.48-5.607c1.658 0 8.149 6.113 7.54 7.101-1.492 2.413-6.742-.804-7.918-4.851-.379-1.302-.22-2.249.378-2.25m-20.398 4c-.275 0-.5.225-.5.5s.225.5.5.5.5-.225.5-.5-.225-.5-.5-.5m-6-3c-.275 0-.5.225-.5.5s.225.5.5.5.5-.225.5-.5-.225-.5-.5-.5m-1.677-3.667c-.389-2.009-2.386-2.848-3.29-1.385-.88 1.423.242 3.052 2.099 3.052.876 0 1.378-.703 1.191-1.667m2.677.667c-.275 0-.5.225-.5.5s.225.5.5.5.5-.225.5-.5-.225-.5-.5-.5m-245-17c.275 0 .5.225.5.5s-.225.5-.5.5a.5.5 0 0 1-.5-.5c0-.275.225-.5.5-.5m2 0c.275 0 .5.225.5.5s-.225.5-.5.5a.5.5 0 0 1-.5-.5c0-.275.225-.5.5-.5m4-50c-.275 0-.5.225-.5.5s.225.5.5.5.5-.225.5-.5-.225-.5-.5-.5m-4.5 0c.733 0 1.033.3.667.667a.95.95 0 0 1-1.334 0c-.366-.367-.066-.667.667-.667m-1.281-14.918c.165-2.193-1.234-3.676-2.118-2.246-.295.478.026 1.64.713 2.579 1.154 1.578 1.263 1.552 1.405-.333m1.781-2.082c-.275 0-.5.225-.5.5s.225.5.5.5.5-.225.5-.5-.225-.5-.5-.5m251.7-11.799c3.351-3.351 7.363-.019 6.367 5.289-.771 4.111-2.856 4.579-5.624 1.26-2.183-2.616-2.436-4.856-.743-6.549m-277.2 2.799c.733 0 1.033.3.667.667a.95.95 0 0 1-1.334 0c-.366-.367-.066-.667.667-.667m286.094-9c.498 0 .906.9.906 2s-.173 1.999-.383 2-.619-.9-.907-2c-.287-1.1-.115-2 .384-2m-1.594-2c.275 0 .5.225.5.5s-.225.5-.5.5a.5.5 0 0 1-.5-.5c0-.275.225-.5.5-.5m7.882-3c.275 0 .778.45 1.118 1s.393 1 .118 1-.778-.45-1.118-1-.393-1-.118-1M18.68 133.08c.195-.064.119.503-.172 1.261s0 1.909.643 2.557c.9.904.602.968-1.277.276-3.058-1.127-3.74-2.892-1.356-3.51.992-.257 1.965-.52 2.162-.584m8.81-1.45c1.116-1.117 2-.749 2 .833 0 .825-.6 1.5-1.334 1.5-1.419 0-1.77-1.229-.666-2.333m266.273.333c.582 0 1.06.45 1.06 1s-.198 1-.441 1-.719-.45-1.059-1-.141-.999.44-1m2.56 1c.275 0 .5.225.5.5s-.225.5-.5.5a.5.5 0 0 1-.5-.5c0-.275.225-.5.5-.5m-275.5-4c.55 0 1 .675 1 1.5s-.45 1.5-1 1.5-1-.675-1-1.5.45-1.5 1-1.5m282 .128c3.258-1.305 5-1.362 5-.163 0 1.749-3.891 3.196-5.763 2.142-1.557-.876-1.478-1.081.763-1.979m-288.434-3.23c3.127-1.225 4.078-.943 2.037.602-1.044.79-2.364 1.148-2.934.795-.598-.369-.218-.96.896-1.397m276.493-.898c.518 0 .941.45.941 1s-.703 1-1.56 1c-.856 0-1.28-.45-.94-1s1.041-1 1.559-1m-37.559-20c-.275 0-.5.225-.5.5s.225.5.5.5.5-.225.5-.5-.225-.5-.5-.5m-215-3c.275 0 .5.225.5.5s-.225.5-.5.5a.5.5 0 0 1-.5-.5c0-.275.225-.5.5-.5m5-1c.275 0 .5.225.5.5s-.225.5-.5.5a.5.5 0 0 1-.5-.5c0-.275.225-.5.5-.5m-11.25-5.017c1.787-1.093 3.85-1.76 4.582-1.485.732.276 2.082.538 3 .581.999.047 1.176.279.442.576-.673.272-1.452.35-1.73.17-.278-.178-1.215.687-2.081 1.925-1.028 1.467-2.602 2.25-4.52 2.25-3.852 0-3.733-1.546.307-4.017m228.25 3.017c.275 0 .5.225.5.5s-.225.5-.5.5a.5.5 0 0 1-.5-.5c0-.275.225-.5.5-.5m-218-1c.275 0 .5.225.5.5s-.225.5-.5.5a.5.5 0 0 1-.5-.5c0-.275.225-.5.5-.5m12.32-8.171c-.347-2.352-2.271-3.527-3.232-1.972-.907 1.468.44 4.143 2.089 4.143.932 0 1.346-.787 1.143-2.171m184.68-14.829c.275 0 .5.225.5.5s-.225.5-.5.5a.5.5 0 0 1-.5-.5c0-.275.225-.5.5-.5m34.5-2.004c0-.513.675-.721 1.5-.464.825.258 2.25.709 3.167 1.001 1.174.376 1.353.846.607 1.592-1.18 1.18-5.273-.473-5.274-2.129M69.807 71.213c.022-1.797-1.658-1.54-2.39.364-.392 1.023-1.345 1.423-2.606 1.093-1.092-.285-1.987-.16-1.988.278s1.195 1.099 2.655 1.466c2.667.668 4.296-.536 4.33-3.2m174.575-2.25c-.243 0-.719.45-1.059 1s-.141 1 .44 1c.582 0 1.06-.45 1.06-1s-.198-1-.441-1m-3.059-1c-.275 0-.5.225-.5.5s.225.5.5.5.5-.225.5-.5-.225-.5-.5-.5m-97.083-21.92c-1.165.047-1.402.284-.604.603.721.289 1.584.253 1.916-.08.332-.331-.258-.567-1.312-.524m37.583-2.08c-.733 0-1.033.3-.667.667a.95.95 0 0 0 1.334 0c.366-.367.066-.667-.667-.667m-34.478-9.63c-1.136-.435-1.813.026-2.198 1.5-.307 1.172-1.18 2.13-1.941 2.13-.76 0-1.383.45-1.383 1 0 1.52 2.594 1.195 4-.5.685-.825 2.288-1.5 3.563-1.5s2.597-.45 2.937-1-.272-1-1.359-1c-1.088 0-2.717-.283-3.619-.63m-8.398 2.363c-.988-.98-1.102-.865-.56.56.376.986.935 1.54 1.243 1.233s.001-1.114-.683-1.793m21.376-6.733c.275 0 .5.225.5.5s-.225.5-.5.5a.5.5 0 0 1-.5-.5c0-.275.225-.5.5-.5m45.5-1c.733 0 1.033.3.667.667a.95.95 0 0 1-1.334 0c-.366-.367-.066-.667.667-.667m5-4c.55 0 1 .198 1 .44 0 .244-.45.72-1 1.06s-1 .14-1-.441c0-.582.45-1.059 1-1.059m-34.5 0c.275 0 .5.225.5.5s-.225.5-.5.5a.5.5 0 0 1-.5-.5c0-.275.225-.5.5-.5m-3.5-6c.733 0 1.033.3.667.667a.95.95 0 0 1-1.334 0c-.366-.367-.066-.667.667-.667m1-3c0-.733.3-1.033.667-.667a.95.95 0 0 1 0 1.334c-.367.366-.667.066-.667-.667m35-2c.733 0 1.033.3.667.667a.95.95 0 0 1-1.334 0c-.366-.367-.066-.667.667-.667m-31.5-1c.275 0 .5.225.5.5s-.225.5-.5.5a.5.5 0 0 1-.5-.5c0-.275.225-.5.5-.5m-11-2c.275 0 .5.225.5.5s-.225.5-.5.5a.5.5 0 0 1-.5-.5c0-.275.225-.5.5-.5m9.5 0c0-.733.3-1.033.667-.667a.95.95 0 0 1 0 1.334c-.367.366-.667.066-.667-.667m-4.5-1c.275 0 .5.225.5.5s-.225.5-.5.5a.5.5 0 0 1-.5-.5c0-.275.225-.5.5-.5m-38.941-3c.243 0 .441.45.441 1s-.478 1-1.06 1c-.581 0-.78-.45-.44-1s.816-1 1.059-1m-9.559 1c.733 0 1.033.3.667.667a.95.95 0 0 1-1.334 0c-.366-.367-.066-.667.667-.667m44.381-5.652c2.929-2.519 5.619-3.082 5.619-1.177 0 1.726-3.081 4.829-4.795 4.83-.816 0-2.026.74-2.688 1.645-1.062 1.452-1.184 1.375-1.035-.65.093-1.265 1.398-3.356 2.899-4.648" data-figma-scatter="f0.51_w0.06_aj180_sj0.65_r0_s17656661811333049531_sw3" data-figma-scatter-ref="stroke0_184_4759_ref"/></defs></svg>