<svg xmlns="http://www.w3.org/2000/svg" xmlns:xlink="http://www.w3.org/1999/xlink" width="264" height="96" fill="none" viewBox="0 0 264 96"><path fill="#e0cea5" fill-opacity=".56" d="m241.56 1.768 19.404 18.86v6.44l-3.797 26.68 3.797 33.12-72.976 6.9-104.19-6.9-76.772 6.9 6.327-27.6-11.39-39.1 5.063-25.3 63.273 10.58c22.779-1.687 75.338-4.048 103.347 0 18.898 2.208 53.15-6.134 67.914-10.58"/><use xlink:href="#a" transform="rotate(108.357 122.86 105.694)scale(-.0084 .0084)"/><use xlink:href="#a" transform="matrix(.01208 .0067 .0067 -.01208 256.508 20.3)"/><use xlink:href="#a" transform="rotate(158.04 127.907 33.539)scale(.00595 -.00595)"/><use xlink:href="#a" transform="rotate(124.824 124.476 75.083)scale(.0076 -.0076)"/><use xlink:href="#a" transform="rotate(9.588 24.872 1534.454)scale(.00556 -.00556)"/><use xlink:href="#a" transform="rotate(92.868 120.436 127.81)scale(.01074 -.01074)"/><use xlink:href="#a" transform="rotate(48.336 112.419 293.82)scale(-.011 .011)"/><use xlink:href="#a" transform="rotate(5.89 5.653 2481.567)scale(-.00636 .00636)"/><use xlink:href="#a" transform="rotate(70.408 117.793 187.341)scale(-.01095 .01095)"/><use xlink:href="#a" transform="rotate(113.34 122.303 86.942)scale(.00939 -.00939)"/><use xlink:href="#a" transform="rotate(142.053 122.803 49.19)scale(-.0103 .0103)"/><use xlink:href="#a" transform="rotate(15.225 87.508 933.192)scale(.00552 -.00552)"/><use xlink:href="#a" transform="matrix(-.00243 -.00838 -.00838 .00243 250.148 9.3)"/><use xlink:href="#a" transform="matrix(.0006 -.00558 -.00558 -.0006 248.428 8.418)"/><use xlink:href="#a" transform="rotate(149.84 121.543 37.773)scale(-.0122 .0122)"/><use xlink:href="#a" transform="rotate(19.947 103.13 691.178)scale(.0141 -.0141)"/><use xlink:href="#a" transform="rotate(-106.891 124.1 -88.538)scale(.00614 -.00614)"/><use xlink:href="#a" transform="rotate(126.62 120.95 61.634)scale(.00728 -.00728)"/><use xlink:href="#a" transform="matrix(.00777 .00213 .00213 -.00777 240.257 3.109)"/><use xlink:href="#a" transform="matrix(.00581 .00842 .00842 -.00581 238.214 1.586)"/><use xlink:href="#a" transform="rotate(96.73 118.523 108.509)scale(-.00567 .00567)"/><use xlink:href="#a" transform="rotate(180.743 118.642 1.134)scale(-.00655 .00655)"/><use xlink:href="#a" transform="matrix(-.00539 .00488 .00488 .00539 237.308 1.375)"/><use xlink:href="#a" transform="rotate(109.928 117.036 83.448)scale(.007 -.007)"/><use xlink:href="#a" transform="rotate(151.924 116.243 32.332)scale(-.01046 .01046)"/><use xlink:href="#a" transform="matrix(.0046 .01358 .01358 -.0046 229.665 2.797)"/><use xlink:href="#a" transform="rotate(117.63 114.3 71.449)scale(.00598 -.00598)"/><use xlink:href="#a" transform="matrix(-.0019 .00664 .00664 .0019 229.196 3.482)"/><use xlink:href="#a" transform="rotate(72.74 110.705 157.03)scale(.00578 -.00578)"/><use xlink:href="#a" transform="rotate(100.493 111.366 99.132)scale(-.0114 .0114)"/><use xlink:href="#a" transform="rotate(143.294 111.773 41.17)scale(-.00622 .00622)"/><use xlink:href="#a" transform="matrix(-.0004 .00543 .00543 .0004 224.39 5.217)"/><use xlink:href="#a" transform="matrix(-.00692 .00506 .00506 .00692 224.338 4.252)"/><use xlink:href="#a" transform="rotate(175.053 110.123 9.235)scale(-.01203 .01203)"/><use xlink:href="#a" transform="rotate(132.75 109.177 51.292)scale(.00554 -.00554)"/><use xlink:href="#a" transform="rotate(169.661 109.092 14.202)scale(-.0073 .0073)"/><use xlink:href="#a" transform="rotate(20.93 93.696 601.944)scale(-.0143 .0143)"/><use xlink:href="#a" transform="rotate(36.828 93.288 323.717)scale(.01397 -.01397)"/><use xlink:href="#a" transform="rotate(24.948 91.26 492.88)scale(-.0123 .0123)"/><use xlink:href="#a" transform="matrix(.00037 .01187 .01187 -.00037 209.748 7.292)"/><use xlink:href="#a" transform="rotate(9.034 35.95 1321.152)scale(.0107 -.0107)"/><use xlink:href="#a" transform="rotate(41.872 92.637 279.61)scale(-.00814 .00814)"/><use xlink:href="#a" transform="rotate(73.607 97.002 145.65)scale(-.01303 .01303)"/><use xlink:href="#a" transform="rotate(79.879 96.369 129.102)scale(-.00826 .00826)"/><use xlink:href="#a" transform="matrix(-.00895 .0073 .0073 .00895 203.504 7.816)"/><use xlink:href="#a" transform="rotate(-165.836 102.5 -8.035)scale(.01307 -.01307)"/><use xlink:href="#a" transform="rotate(50.313 87.402 216.375)scale(.00655 -.00655)"/><use xlink:href="#a" transform="rotate(91.967 93.677 100.014)scale(.00924 -.00924)"/><use xlink:href="#a" transform="rotate(30.809 73.713 356.872)scale(.0143 -.0143)"/><use xlink:href="#a" transform="rotate(93.044 91.576 96.34)scale(.01064 -.01064)"/><use xlink:href="#a" transform="rotate(72.506 88.439 138.784)scale(-.00604 .00604)"/><use xlink:href="#a" transform="rotate(75.031 88.16 132.936)scale(-.0113 .0113)"/><use xlink:href="#a" transform="rotate(13.06 32.6 824.521)scale(.01219 -.01219)"/><use xlink:href="#a" transform="rotate(105.11 89.28 76.976)scale(.00838 -.00838)"/><use xlink:href="#a" transform="rotate(88.672 86.684 103.532)scale(-.01152 .01152)"/><use xlink:href="#a" transform="rotate(172.501 92.562 11.404)scale(.01025 -.01025)"/><use xlink:href="#a" transform="rotate(229.685 92.85 -35.37)scale(-.01151 .01151)"/><use xlink:href="#a" transform="matrix(-.007 .00333 .00333 .007 181.561 10.97)"/><use xlink:href="#a" transform="rotate(113.398 85.615 66.192)scale(-.00593 .00593)"/><use xlink:href="#a" transform="rotate(129.035 86.61 47.722)scale(.01005 -.01005)"/><use xlink:href="#a" transform="rotate(156.974 87.733 23.55)scale(.00729 -.00729)"/><use xlink:href="#a" transform="rotate(119.63 84.018 58.4)scale(-.0069 .0069)"/><use xlink:href="#a" transform="rotate(173.859 87.785 9.735)scale(.01299 -.01299)"/><use xlink:href="#a" transform="matrix(-.0038 .00954 .00954 .0038 171.342 10.101)"/><use xlink:href="#a" transform="rotate(178.369 84.794 7.8)scale(-.00704 .00704)"/><use xlink:href="#a" transform="rotate(99.91 79.795 78.39)scale(-.0078 .0078)"/><use xlink:href="#a" transform="rotate(153.463 82.279 26.488)scale(-.00852 .00852)"/><use xlink:href="#a" transform="rotate(72.46 75.052 117.12)scale(.01204 -.01204)"/><use xlink:href="#a" transform="rotate(91.774 77.082 84.768)scale(.00579 -.00579)"/><use xlink:href="#a" transform="rotate(119.132 78.212 55.175)scale(-.0104 .0104)"/><use xlink:href="#a" transform="rotate(173.604 79.845 11)scale(-.0111 .0111)"/><use xlink:href="#a" transform="rotate(82.92 73.974 98.233)scale(-.01213 .01213)"/><use xlink:href="#a" transform="rotate(52.183 68.77 168.99)scale(-.00691 .00691)"/><use xlink:href="#a" transform="rotate(-44.646 89.652 -187)scale(-.00766 .00766)"/><use xlink:href="#a" transform="rotate(91.964 72.83 79.84)scale(.00622 -.00622)"/><use xlink:href="#a" transform="rotate(149.428 76.562 25.098)scale(.0132 -.0132)"/><use xlink:href="#a" transform="rotate(151.794 74.035 25.77)scale(-.01323 .01323)"/><use xlink:href="#a" transform="rotate(24.698 47.274 342.47)scale(.0126 -.0126)"/><use xlink:href="#a" transform="rotate(-176.897 74.962 2.658)scale(.00622 -.00622)"/><use xlink:href="#a" transform="rotate(8.61 12.428 993.118)scale(-.00713 .00713)"/><use xlink:href="#a" transform="matrix(-.00282 .0107 .0107 .00282 144.65 7.958)"/><use xlink:href="#a" transform="rotate(154.68 69.927 22.766)scale(-.0137 .0137)"/><use xlink:href="#a" transform="rotate(187.874 70.245 1.06)scale(-.01153 .01153)"/><use xlink:href="#a" transform="rotate(181.039 69.194 5.319)scale(-.01032 .01032)"/><use xlink:href="#a" transform="rotate(181.908 68.46 4.715)scale(-.00955 .00955)"/><use xlink:href="#a" transform="rotate(71.093 61.703 102.464)scale(-.0086 .0086)"/><use xlink:href="#a" transform="rotate(177.885 66.694 7.194)scale(-.01042 .01042)"/><use xlink:href="#a" transform="rotate(154.103 66.272 19.16)scale(.01247 -.01247)"/><use xlink:href="#a" transform="rotate(30.777 49.149 247.258)scale(-.008 .008)"/><use xlink:href="#a" transform="rotate(171.529 63.56 11.126)scale(-.01318 .01318)"/><use xlink:href="#a" transform="rotate(74.882 57.276 87.463)scale(.00695 -.00695)"/><use xlink:href="#a" transform="rotate(131.095 61.483 33.293)scale(.00616 -.00616)"/><use xlink:href="#a" transform="rotate(-62.7 72.68 -98.118)scale(.00582 -.00582)"/><use xlink:href="#a" transform="rotate(118 58.808 44.225)scale(-.0127 .0127)"/><use xlink:href="#a" transform="rotate(56.515 52.52 121.143)scale(-.00736 .00736)"/><use xlink:href="#a" transform="rotate(57.85 52.475 117.855)scale(-.01415 .01415)"/><use xlink:href="#a" transform="rotate(105.113 55.931 49.646)scale(.0073 -.0073)"/><use xlink:href="#a" transform="rotate(171.03 59.394 8.577)scale(.01332 -.01332)"/><use xlink:href="#a" transform="rotate(159.213 56.606 16.48)scale(-.00632 .00632)"/><use xlink:href="#a" transform="rotate(105.275 53.34 50.047)scale(-.00671 .00671)"/><use xlink:href="#a" transform="rotate(81.45 50.984 72.486)scale(-.00722 .00722)"/><use xlink:href="#a" transform="rotate(116.387 53.21 38.932)scale(.00861 -.00861)"/><use xlink:href="#a" transform="rotate(111.684 51.97 43.664)scale(-.00585 .00585)"/><use xlink:href="#a" transform="rotate(-38.223 67 -154.846)scale(-.00912 .00912)"/><use xlink:href="#a" transform="rotate(146.605 51.963 22.621)scale(-.01088 .01088)"/><use xlink:href="#a" transform="rotate(189.48 53.157 1.367)scale(-.00739 .00739)"/><use xlink:href="#a" transform="rotate(89.253 47.422 59.95)scale(-.00692 .00692)"/><use xlink:href="#a" transform="rotate(145.729 50.989 20.516)scale(.00723 -.00723)"/><use xlink:href="#a" transform="rotate(83.958 45.393 60.84)scale(.01003 -.01003)"/><use xlink:href="#a" transform="rotate(55.96 41.27 102.713)scale(-.0079 .0079)"/><use xlink:href="#a" transform="rotate(123.355 47.43 31.243)scale(.00902 -.00902)"/><use xlink:href="#a" transform="rotate(152.982 46.974 18.639)scale(-.01324 .01324)"/><use xlink:href="#a" transform="matrix(-.00795 .00558 .00558 .00795 96.652 8.616)"/><use xlink:href="#a" transform="rotate(176.948 46.825 7.268)scale(-.00637 .00637)"/><use xlink:href="#a" transform="rotate(43.142 33.813 125.942)scale(-.0056 .0056)"/><use xlink:href="#a" transform="matrix(.00555 .0046 .0046 -.00555 91.207 11.07)"/><use xlink:href="#a" transform="matrix(-.00213 .00676 .00676 .00213 90.914 9.524)"/><use xlink:href="#a" transform="rotate(134.826 42.167 25.742)scale(-.01203 .01203)"/><use xlink:href="#a" transform="rotate(54.692 33.896 92.811)scale(-.00629 .00629)"/><use xlink:href="#a" transform="matrix(-.00561 .0003 .0003 .00561 88.46 10.356)"/><use xlink:href="#a" transform="rotate(120.102 39.391 32.088)scale(-.01149 .01149)"/><use xlink:href="#a" transform="rotate(47.935 30.677 104.024)scale(-.01421 .01421)"/><use xlink:href="#a" transform="rotate(47.092 27.262 98.378)scale(.00659 -.00659)"/><use xlink:href="#a" transform="rotate(187.333 39.55 4.27)scale(-.01324 .01324)"/><use xlink:href="#a" transform="matrix(-.0049 -.0036 -.0036 .0049 80.44 11.413)"/><use xlink:href="#a" transform="rotate(-164.59 40.374 .222)scale(.00581 -.00581)"/><use xlink:href="#a" transform="rotate(-165.623 40.136 .209)scale(.01195 -.01195)"/><use xlink:href="#a" transform="rotate(151.8 35.145 16.599)scale(-.01112 .01112)"/><use xlink:href="#a" transform="rotate(63.507 27.225 67.142)scale(-.01023 .01023)"/><use xlink:href="#a" transform="matrix(-.00758 .0033 .0033 .00758 72.033 10.405)"/><use xlink:href="#a" transform="rotate(144.015 32.55 18.434)scale(-.00829 .00829)"/><use xlink:href="#a" transform="rotate(149.294 31.573 16.854)scale(-.01468 .01468)"/><use xlink:href="#a" transform="rotate(46.255 20.495 85.576)scale(-.00805 .00805)"/><use xlink:href="#a" transform="matrix(-.00656 .0038 .0038 .00656 65.387 9.813)"/><use xlink:href="#a" transform="rotate(191.681 32.001 2.777)scale(-.0057 .0057)"/><use xlink:href="#a" transform="rotate(139.59 29.721 16.136)scale(.00869 -.00869)"/><use xlink:href="#a" transform="rotate(-176.002 31.78 3.235)scale(.014 -.014)"/><use xlink:href="#a" transform="matrix(-.0062 .0129 .0129 .0062 57.383 7.08)"/><use xlink:href="#a" transform="rotate(92.61 23.476 30.69)scale(.00873 -.00873)"/><use xlink:href="#a" transform="rotate(-176.875 28.332 3.674)scale(.00574 -.00574)"/><use xlink:href="#a" transform="rotate(132.233 24.693 17.78)scale(-.00701 .00701)"/><use xlink:href="#a" transform="matrix(-.0036 -.0119 -.0119 .0036 55.352 10.79)"/><use xlink:href="#a" transform="rotate(171.918 24.87 6.959)scale(-.00577 .00577)"/><use xlink:href="#a" transform="rotate(67.507 18.782 43.363)scale(-.00614 .00614)"/><use xlink:href="#a" transform="rotate(96.312 20.78 25.615)scale(.00558 -.00558)"/><use xlink:href="#a" transform="rotate(27.157 9.197 108.798)scale(-.01302 .01302)"/><use xlink:href="#a" transform="matrix(-.00853 .00158 .00158 .00853 47.15 6.672)"/><use xlink:href="#a" transform="rotate(95.98 18.709 25.23)scale(-.0064 .0064)"/><use xlink:href="#a" transform="rotate(88.03 17.458 24.063)scale(.01316 -.01316)"/><use xlink:href="#a" transform="rotate(105.3 17.381 21.337)scale(-.01283 .01283)"/><use xlink:href="#a" transform="rotate(15.61 .148 153.842)scale(-.01143 .01143)"/><use xlink:href="#a" transform="matrix(.0063 -.01164 -.01164 -.0063 37.976 9.64)"/><use xlink:href="#a" transform="matrix(.0014 .00548 .00548 -.0014 34.333 5.904)"/><use xlink:href="#a" transform="rotate(85.844 13.6 19.394)scale(.0118 -.0118)"/><use xlink:href="#a" transform="rotate(25.516 1.189 72.171)scale(.00624 -.00624)"/><use xlink:href="#a" transform="rotate(91.022 12.624 20.284)scale(-.01315 .01315)"/><use xlink:href="#a" transform="rotate(196.652 13.594 1.607)scale(-.01297 .01297)"/><use xlink:href="#a" transform="rotate(112.007 12 9.378)scale(.01474 -.01474)"/><use xlink:href="#a" transform="rotate(180.081 11.144 3.362)scale(-.01248 .01248)"/><use xlink:href="#a" transform="matrix(.01 .00325 .00325 -.01 20.268 5.439)"/><use xlink:href="#a" transform="rotate(152.477 10.402 4.05)scale(.00556 -.00556)"/><use xlink:href="#a" transform="rotate(77.087 7.728 15.717)scale(-.00565 .00565)"/><use xlink:href="#a" transform="rotate(69.134 5.963 12.684)scale(.01353 -.01353)"/><use xlink:href="#a" transform="rotate(-156.696 9.49 -.5)scale(.00662 -.00662)"/><use xlink:href="#a" transform="rotate(137.869 7.593 4.1)scale(.00578 -.00578)"/><use xlink:href="#a" transform="matrix(.01207 .00294 .00294 -.01207 11.96 4.71)"/><use xlink:href="#a" transform="rotate(-173.994 7.337 .033)scale(.01225 -.01225)"/><use xlink:href="#a" transform="rotate(174.379 4.231 2.478)scale(-.01197 .01197)"/><use xlink:href="#a" transform="rotate(35.441 3.276 18.283)scale(-.01184 .01184)"/><use xlink:href="#a" transform="rotate(112.298 2.3 5.236)scale(-.01291 .01291)"/><use xlink:href="#a" transform="rotate(155.5 3.25 2.087)scale(.00553 -.00553)"/><use xlink:href="#a" transform="rotate(-39.885 7.85 -7.49)scale(-.0068 .0068)"/><use xlink:href="#a" transform="rotate(101.79 .513 6.979)scale(-.00894 .00894)"/><use xlink:href="#a" transform="rotate(156.318 1.29 5.834)scale(-.01256 .01256)"/><use xlink:href="#a" transform="rotate(59.43 -6.503 7.35)scale(.0104 -.0104)"/><use xlink:href="#a" transform="rotate(-75.012 8.641 2.1)scale(-.0059 .0059)"/><use xlink:href="#a" transform="rotate(198.999 2.766 6.149)scale(-.00696 .00696)"/><use xlink:href="#a" transform="rotate(194.62 2.129 7.497)scale(-.0125 .0125)"/><use xlink:href="#a" transform="rotate(164.565 .582 8.766)scale(-.00796 .00796)"/><use xlink:href="#a" transform="rotate(266.04 8.85 6.405)scale(-.00553 .00553)"/><use xlink:href="#a" transform="rotate(189.225 2.126 8.972)scale(-.0055 .0055)"/><use xlink:href="#a" transform="rotate(175.617 1.963 8.704)scale(.00635 -.00635)"/><use xlink:href="#a" transform="rotate(-123.724 8.307 8.528)scale(.01006 -.01006)"/><use xlink:href="#a" transform="rotate(115.745 -4.934 10.08)scale(.01169 -.01169)"/><use xlink:href="#a" transform="matrix(.0034 .0061 .0061 -.0034 1.194 22.6)"/><use xlink:href="#a" transform="rotate(153.883 -.902 11.436)scale(.01071 -.01071)"/><use xlink:href="#a" transform="rotate(-151.49 5.33 12.206)scale(.00845 -.00845)"/><use xlink:href="#a" transform="matrix(-.0043 -.00601 -.00601 .0043 3.84 27.557)"/><use xlink:href="#a" transform="rotate(38.344 -38.21 22.67)scale(-.01397 .01397)"/><use xlink:href="#a" transform="rotate(-43.012 44.8 13.11)scale(.01257 -.01257)"/><use xlink:href="#a" transform="matrix(-.00434 .004 .004 .00434 3.69 31.226)"/><use xlink:href="#a" transform="rotate(71.793 -21.015 21)scale(-.00727 .00727)"/><use xlink:href="#a" transform="rotate(-141.519 9.132 16.243)scale(.00798 -.00798)"/><use xlink:href="#a" transform="rotate(-144.721 8.752 16.928)scale(.00682 -.00682)"/><use xlink:href="#a" transform="rotate(227.507 9.568 18.07)scale(-.0099 .0099)"/><use xlink:href="#a" transform="rotate(-162.18 6.471 18.442)scale(.0077 -.0077)"/><use xlink:href="#a" transform="rotate(45.568 -43.833 29.016)scale(-.00745 .00745)"/><use xlink:href="#a" transform="rotate(-111.36 17.9 18.265)scale(.0058 -.0058)"/><use xlink:href="#a" transform="rotate(172.55 2.58 20.518)scale(.00936 -.00936)"/><use xlink:href="#a" transform="rotate(171.63 2.632 21.25)scale(.01056 -.01056)"/><use xlink:href="#a" transform="rotate(-65.175 40.365 17.38)scale(.00647 -.00647)"/><use xlink:href="#a" transform="rotate(-47.167 54.83 13.787)scale(-.00762 .00762)"/><use xlink:href="#a" transform="rotate(-133.43 14.88 21.708)scale(.0057 -.0057)"/><use xlink:href="#a" transform="rotate(38.344 -64.545 38.278)scale(-.00737 .00737)"/><use xlink:href="#a" transform="rotate(110.57 -13.418 29.9)scale(-.01319 .01319)"/><use xlink:href="#a" transform="matrix(.00448 .01161 .01161 -.00448 6.59 51.045)"/><use xlink:href="#a" transform="rotate(193.682 7.388 26.85)scale(-.00726 .00726)"/><use xlink:href="#a" transform="rotate(139.532 -4.435 28.218)scale(.0113 -.0113)"/><use xlink:href="#a" transform="rotate(178.839 5.769 27.736)scale(.00843 -.00843)"/><use xlink:href="#a" transform="rotate(169.383 1.88 31.14)scale(-.0144 .0144)"/><use xlink:href="#a" transform="matrix(-.0052 -.00633 -.00633 .0052 13.54 60.632)"/><use xlink:href="#a" transform="matrix(-.0034 .00558 .00558 .0034 11.678 60.14)"/><use xlink:href="#a" transform="rotate(209.343 13.384 30.54)scale(-.01096 .01096)"/><use xlink:href="#a" transform="rotate(207.267 13.126 31.6)scale(-.0115 .0115)"/><use xlink:href="#a" transform="rotate(258.463 32.338 28.01)scale(-.00964 .00964)"/><use xlink:href="#a" transform="rotate(-172.592 9.48 32.846)scale(.01001 -.01001)"/><use xlink:href="#a" transform="rotate(-31.794 131.633 14.3)scale(.00826 -.00826)"/><use xlink:href="#a" transform="rotate(168.178 2.067 36.636)scale(-.0064 .0064)"/><use xlink:href="#a" transform="rotate(177.435 4.71 36.468)scale(-.00555 .00555)"/><use xlink:href="#a" transform="rotate(132.57 -9.729 37.767)scale(.01116 -.01116)"/><use xlink:href="#a" transform="rotate(45.522 -82.356 53.182)scale(-.0086 .0086)"/><use xlink:href="#a" transform="rotate(183.732 6.317 38.313)scale(-.00637 .00637)"/><use xlink:href="#a" transform="rotate(-147.84 17.137 36.545)scale(.00547 -.00547)"/><use xlink:href="#a" transform="rotate(194.288 8.831 39.597)scale(-.01398 .01398)"/><use xlink:href="#a" transform="rotate(160.398 -1.286 40.125)scale(.00943 -.00943)"/><use xlink:href="#a" transform="matrix(-.0098 -.00178 -.00178 .0098 11.654 80.6)"/><use xlink:href="#a" transform="rotate(-95.604 44.68 37.611)scale(.0133 -.0133)"/><use xlink:href="#a" transform="rotate(95.57 -34.441 45.174)scale(.01099 -.01099)"/><use xlink:href="#a" transform="matrix(-.0073 .0059 .0059 .0073 8.507 85.236)"/><use xlink:href="#a" transform="rotate(-49.448 98.732 34.9)scale(-.0065 .0065)"/><use xlink:href="#a" transform="matrix(.01126 .00405 .00405 -.01126 5.145 91.432)"/><use xlink:href="#a" transform="matrix(-.0123 .00133 .00133 .0123 9.269 89.97)"/><use xlink:href="#a" transform="matrix(.0049 .00315 .00315 -.0049 5.825 94.032)"/><use xlink:href="#a" transform="matrix(.00335 -.0071 -.0071 -.00335 8.747 95.565)"/><use xlink:href="#a" transform="matrix(-.00784 .00928 .00928 .00784 9.46 90.517)"/><use xlink:href="#a" transform="matrix(.00286 .00621 .00621 -.00286 9.818 92.86)"/><use xlink:href="#a" transform="rotate(68.084 -62.256 57.915)scale(-.00944 .00944)"/><use xlink:href="#a" transform="rotate(-137.128 25.89 43.59)scale(.00551 -.00551)"/><use xlink:href="#a" transform="rotate(64.394 -65.707 60.977)scale(-.01085 .01085)"/><use xlink:href="#a" transform="matrix(-.00335 .0104 .0104 .00335 15.88 90.576)"/><use xlink:href="#a" transform="matrix(.01022 -.0095 -.0095 -.01022 19.076 96.07)"/><use xlink:href="#a" transform="matrix(-.00024 .00673 .00673 .00024 19.766 91.33)"/><use xlink:href="#a" transform="rotate(158.397 3.018 47.35)scale(.01055 -.01055)"/><use xlink:href="#a" transform="rotate(-83.248 65.69 32.729)scale(.00997 -.00997)"/><use xlink:href="#a" transform="rotate(62.243 -62.614 69.719)scale(-.0112 .0112)"/><use xlink:href="#a" transform="rotate(215.257 27.342 42.103)scale(-.0089 .0089)"/><use xlink:href="#a" transform="rotate(-175.824 16.464 44.953)scale(.00563 -.00563)"/><use xlink:href="#a" transform="rotate(129.612 -6.01 51.41)scale(.01184 -.01184)"/><use xlink:href="#a" transform="rotate(161.133 9.333 47.169)scale(.0129 -.0129)"/><use xlink:href="#a" transform="rotate(209.357 27.898 41.78)scale(-.01026 .01026)"/><use xlink:href="#a" transform="rotate(-128.036 41.23 36.552)scale(.00932 -.00932)"/><use xlink:href="#a" transform="matrix(-.0109 -.00205 -.00205 .0109 39.49 89.639)"/><use xlink:href="#a" transform="matrix(.0028 .00646 .00646 -.0028 37.322 90.294)"/><use xlink:href="#a" transform="rotate(-80.562 74.693 21.845)scale(.0066 -.0066)"/><use xlink:href="#a" transform="rotate(76.342 -37.302 69.73)scale(.0109 -.0109)"/><use xlink:href="#a" transform="rotate(157.434 12.926 48.864)scale(.00743 -.00743)"/><use xlink:href="#a" transform="rotate(-90.77 67.64 23.458)scale(.006 -.006)"/><use xlink:href="#a" transform="rotate(-70.271 85.267 12.81)scale(-.00762 .00762)"/><use xlink:href="#a" transform="rotate(-69.887 90.317 12.043)scale(.01144 -.01144)"/><use xlink:href="#a" transform="rotate(142.073 9.132 52.426)scale(.00767 -.00767)"/><use xlink:href="#a" transform="rotate(259.432 61.208 24.57)scale(-.00664 .00664)"/><use xlink:href="#a" transform="rotate(-128.747 48.61 32.107)scale(.0123 -.0123)"/><use xlink:href="#a" transform="rotate(186.803 28.105 44.338)scale(-.01404 .01404)"/><use xlink:href="#a" transform="rotate(127.98 6.4 56.73)scale(.01148 -.01148)"/><use xlink:href="#a" transform="rotate(48.79 -68.504 110.72)scale(-.01122 .01122)"/><use xlink:href="#a" transform="rotate(163.157 22.148 50.173)scale(-.01386 .01386)"/><use xlink:href="#a" transform="rotate(74.958 -27.508 82.825)scale(.0075 -.0075)"/><use xlink:href="#a" transform="matrix(-.00683 .00518 .00518 .00683 62.752 86.88)"/><use xlink:href="#a" transform="rotate(-119.704 59.285 25.298)scale(.01125 -.01125)"/><use xlink:href="#a" transform="rotate(112.865 3.288 66.9)scale(-.00656 .00656)"/><use xlink:href="#a" transform="rotate(209.77 44.473 35.693)scale(-.00567 .00567)"/><use xlink:href="#a" transform="rotate(-173.388 36.855 41.775)scale(.00586 -.00586)"/><use xlink:href="#a" transform="matrix(.0033 .00725 .00725 -.0033 66.968 87.443)"/><use xlink:href="#a" transform="matrix(.00643 .0024 .0024 -.00643 68.517 88.855)"/><use xlink:href="#a" transform="rotate(89.55 -8.906 78.892)scale(.0057 -.0057)"/><use xlink:href="#a" transform="rotate(-118.678 62.951 22.392)scale(.0066 -.0066)"/><use xlink:href="#a" transform="rotate(225.818 54.229 28.792)scale(-.0079 .0079)"/><use xlink:href="#a" transform="rotate(129.308 16.194 62.993)scale(-.0121 .0121)"/><use xlink:href="#a" transform="rotate(160.136 30.148 50.922)scale(-.00546 .00546)"/><use xlink:href="#a" transform="rotate(179.909 39.453 43.043)scale(.00883 -.00883)"/><use xlink:href="#a" transform="rotate(-95.23 81.92 7.302)scale(.01452 -.01452)"/><use xlink:href="#a" transform="rotate(96.668 2.179 78.002)scale(.01183 -.01183)"/><use xlink:href="#a" transform="rotate(-147.19 54.928 30.94)scale(.00545 -.00545)"/><use xlink:href="#a" transform="rotate(202.372 49.685 35.9)scale(-.01193 .01193)"/><use xlink:href="#a" transform="rotate(99.566 6.143 80.746)scale(-.00575 .00575)"/><use xlink:href="#a" transform="rotate(263.683 80.747 4.44)scale(-.01247 .01247)"/><use xlink:href="#a" transform="rotate(120.804 20.579 67.244)scale(.01439 -.01439)"/><use xlink:href="#a" transform="matrix(-.0073 .00336 .00336 .0073 92.226 85.678)"/><use xlink:href="#a" transform="rotate(-139.339 63.274 26.123)scale(.00623 -.00623)"/><use xlink:href="#a" transform="matrix(.01276 .00015 .00015 -.01276 92.248 89.81)"/><use xlink:href="#a" transform="matrix(-.00988 .00562 .00562 .00988 97.054 84.97)"/><use xlink:href="#a" transform="matrix(-.0022 .00639 .00639 .0022 97.155 86.561)"/><use xlink:href="#a" transform="rotate(177.392 49.999 43.867)scale(.0147 -.0147)"/><use xlink:href="#a" transform="rotate(124.165 27.158 72.424)scale(-.01119 .01119)"/><use xlink:href="#a" transform="rotate(143.905 36.818 62.572)scale(-.0139 .0139)"/><use xlink:href="#a" transform="rotate(87.133 6.375 98.574)scale(.00598 -.00598)"/><use xlink:href="#a" transform="rotate(95.256 12.923 94.026)scale(-.00724 .00724)"/><use xlink:href="#a" transform="rotate(91.867 11.155 97.889)scale(-.0086 .0086)"/><use xlink:href="#a" transform="rotate(-176.352 56.538 42.1)scale(.00629 -.00629)"/><use xlink:href="#a" transform="rotate(-175.827 57.958 41.299)scale(.01172 -.01172)"/><use xlink:href="#a" transform="rotate(96.62 16.811 92.92)scale(.00973 -.00973)"/><use xlink:href="#a" transform="rotate(160.32 50.007 53.368)scale(.00986 -.00986)"/><use xlink:href="#a" transform="rotate(152.117 46.302 59.434)scale(-.0059 .0059)"/><use xlink:href="#a" transform="matrix(-.0041 -.0037 -.0037 .0041 117.642 89.12)"/><use xlink:href="#a" transform="matrix(-.0073 -.0022 -.0022 .0073 119.015 88.328)"/><use xlink:href="#a" transform="rotate(-135.44 79.09 19.684)scale(.01117 -.01117)"/><use xlink:href="#a" transform="rotate(175.64 57.901 47.884)scale(-.00992 .00992)"/><use xlink:href="#a" transform="rotate(88.704 15.577 108.977)scale(-.0101 .0101)"/><use xlink:href="#a" transform="rotate(165.454 57.001 51.765)scale(.00952 -.00952)"/><use xlink:href="#a" transform="rotate(212.92 74.832 27.103)scale(-.0133 .0133)"/><use xlink:href="#a" transform="rotate(78.698 8.997 120.505)scale(.01467 -.01467)"/><use xlink:href="#a" transform="matrix(-.0017 .0066 .0066 .0017 129.247 88.603)"/><use xlink:href="#a" transform="rotate(132.66 45.577 75.176)scale(-.01148 .01148)"/><use xlink:href="#a" transform="rotate(175.307 64.207 48.274)scale(-.00617 .00617)"/><use xlink:href="#a" transform="rotate(139.407 50.04 70.563)scale(-.00564 .00564)"/><use xlink:href="#a" transform="rotate(-175.753 70.273 41.705)scale(.01062 -.01062)"/><use xlink:href="#a" transform="rotate(217.136 82.81 22.656)scale(-.00758 .00758)"/><use xlink:href="#a" transform="rotate(156.274 60.292 58.81)scale(.0098 -.0098)"/><use xlink:href="#a" transform="rotate(135.834 51.09 75.339)scale(-.01302 .01302)"/><use xlink:href="#a" transform="rotate(199.567 77.756 33.96)scale(-.0133 .0133)"/><use xlink:href="#a" transform="matrix(-.0114 .00843 .00843 .0114 145.156 87.735)"/><use xlink:href="#a" transform="rotate(185.551 74.546 42.999)scale(-.01378 .01378)"/><use xlink:href="#a" transform="rotate(70.439 9.519 148.561)scale(.01438 -.01438)"/><use xlink:href="#a" transform="rotate(-179.687 76.177 44.978)scale(.00623 -.00623)"/><use xlink:href="#a" transform="rotate(-86.303 127.64 -35.79)scale(.01466 -.01466)"/><use xlink:href="#a" transform="rotate(76.3 19.333 146.337)scale(-.01017 .01017)"/><use xlink:href="#a" transform="matrix(.0062 -.0029 -.0029 -.0062 155.77 93.257)"/><use xlink:href="#a" transform="rotate(-121.476 105.29 1.61)scale(.00653 -.00653)"/><use xlink:href="#a" transform="rotate(-154.652 90.215 27.624)scale(.00648 -.00648)"/><use xlink:href="#a" transform="rotate(138.507 61.997 77.73)scale(-.01258 .01258)"/><use xlink:href="#a" transform="rotate(75.757 21.557 148.034)scale(.0116 -.0116)"/><use xlink:href="#a" transform="rotate(169.424 76.783 55.047)scale(-.0146 .0146)"/><use xlink:href="#a" transform="rotate(42.151 -34.972 265.643)scale(-.01185 .01185)"/><use xlink:href="#a" transform="rotate(126.82 61.102 87.492)scale(.00696 -.00696)"/><use xlink:href="#a" transform="rotate(215.914 98.88 19.297)scale(-.00644 .00644)"/><use xlink:href="#a" transform="rotate(161.848 77.072 61.285)scale(-.01328 .01328)"/><use xlink:href="#a" transform="rotate(173.346 82.895 52.307)scale(-.00967 .00967)"/><use xlink:href="#a" transform="rotate(-132.422 108.358 7.66)scale(.0073 -.0073)"/><use xlink:href="#a" transform="rotate(141.845 71.195 77.604)scale(-.00733 .00733)"/><use xlink:href="#a" transform="rotate(161.338 80.944 60.432)scale(.00572 -.00572)"/><use xlink:href="#a" transform="matrix(.0048 .00275 .00275 -.0048 176.08 93.42)"/><use xlink:href="#a" transform="rotate(-172.051 93.098 39.76)scale(.00752 -.00752)"/><use xlink:href="#a" transform="rotate(110.23 57.874 107.52)scale(.0143 -.0143)"/><use xlink:href="#a" transform="rotate(195.216 96.643 35.007)scale(-.00589 .00589)"/><use xlink:href="#a" transform="rotate(14.972 -260.13 748.42)scale(-.0075 .0075)"/><use xlink:href="#a" transform="rotate(79.064 35.981 161.45)scale(-.01451 .01451)"/><use xlink:href="#a" transform="rotate(128.514 70.4 92.943)scale(-.00821 .00821)"/><use xlink:href="#a" transform="rotate(102.651 56.392 123.348)scale(-.00798 .00798)"/><use xlink:href="#a" transform="matrix(.00324 -.009 -.009 -.00324 190.521 95.782)"/><use xlink:href="#a" transform="rotate(38.167 -38.023 325.973)scale(-.00948 .00948)"/><use xlink:href="#a" transform="rotate(142.114 79.864 80.451)scale(-.00738 .00738)"/><use xlink:href="#a" transform="rotate(76.817 38.52 170.652)scale(-.00985 .00985)"/><use xlink:href="#a" transform="rotate(170.625 94.318 53.944)scale(.00653 -.00653)"/><use xlink:href="#a" transform="rotate(161.642 90.24 62.963)scale(-.0061 .0061)"/><use xlink:href="#a" transform="rotate(101.987 61.189 125.35)scale(.00714 -.00714)"/><use xlink:href="#a" transform="matrix(.0006 .0059 .0059 -.0006 197.441 91.977)"/><use xlink:href="#a" transform="rotate(133.45 79.518 91.074)scale(-.01413 .01413)"/><use xlink:href="#a" transform="matrix(-.00615 -.001 -.001 .00615 203.053 91.711)"/><use xlink:href="#a" transform="rotate(128.432 79.53 94.247)scale(.00767 -.00767)"/><use xlink:href="#a" transform="rotate(56.96 16.527 231.52)scale(.01403 -.01403)"/><use xlink:href="#a" transform="rotate(56.794 18.792 238.78)scale(-.0074 .0074)"/><use xlink:href="#a" transform="rotate(178.25 102.483 48.515)scale(-.01094 .01094)"/><use xlink:href="#a" transform="rotate(30.722 -63.465 424.978)scale(.00573 -.00573)"/><use xlink:href="#a" transform="matrix(-.0013 .0093 .0093 .0013 209.422 90.03)"/><use xlink:href="#a" transform="rotate(77.282 48.622 177.31)scale(.00566 -.00566)"/><use xlink:href="#a" transform="rotate(31.361 -54.562 428.667)scale(-.00852 .00852)"/><use xlink:href="#a" transform="rotate(152.689 96.894 70.739)scale(.0102 -.0102)"/><use xlink:href="#a" transform="rotate(90.19 62.706 154.27)scale(-.00646 .00646)"/><use xlink:href="#a" transform="rotate(106.58 74.747 128.552)scale(-.01344 .01344)"/><use xlink:href="#a" transform="rotate(159.28 102.592 64.12)scale(.0134 -.0134)"/><use xlink:href="#a" transform="matrix(-.00184 .00978 .00978 .00184 220.601 88.79)"/><use xlink:href="#a" transform="rotate(121.082 85.855 109.175)scale(-.00648 .00648)"/><use xlink:href="#a" transform="matrix(-.00221 .0067 .0067 .00221 223.655 88.93)"/><use xlink:href="#a" transform="rotate(103.965 77.443 134.64)scale(-.00872 .00872)"/><use xlink:href="#a" transform="rotate(54.697 25.76 261.822)scale(.01272 -.01272)"/><use xlink:href="#a" transform="rotate(78.563 59.686 182.885)scale(.0126 -.0126)"/><use xlink:href="#a" transform="rotate(136.965 98.19 89.682)scale(.00605 -.00605)"/><use xlink:href="#a" transform="rotate(91.31 72.578 160.553)scale(-.0126 .0126)"/><use xlink:href="#a" transform="rotate(168.096 112.92 56.306)scale(.00625 -.00625)"/><use xlink:href="#a" transform="rotate(175.646 115.42 49.666)scale(-.00707 .00707)"/><use xlink:href="#a" transform="matrix(-.0124 -.0052 -.0052 .0124 239.938 87.833)"/><use xlink:href="#a" transform="rotate(119.263 93.438 113.64)scale(.0055 -.0055)"/><use xlink:href="#a" transform="rotate(79.395 66.184 187.112)scale(.0105 -.0105)"/><use xlink:href="#a" transform="rotate(137.176 102.948 93.126)scale(-.01233 .01233)"/><use xlink:href="#a" transform="matrix(.0062 -.00095 -.00095 -.0062 242.541 89.85)"/><use xlink:href="#a" transform="matrix(-.00027 .0066 .0066 .00027 243.402 87.436)"/><use xlink:href="#a" transform="rotate(117.322 95.7 119.78)scale(-.0067 .0067)"/><use xlink:href="#a" transform="rotate(9.477 -416.05 1524.76)scale(.00697 -.00697)"/><use xlink:href="#a" transform="rotate(141.688 108.188 88.675)scale(-.01333 .01333)"/><use xlink:href="#a" transform="rotate(41.749 8.102 368.385)scale(.01418 -.01418)"/><use xlink:href="#a" transform="rotate(211.68 137.802 8.565)scale(-.00878 .00878)"/><use xlink:href="#a" transform="rotate(165.827 120.847 60.623)scale(-.01204 .01204)"/><use xlink:href="#a" transform="matrix(.00917 .0061 .0061 -.00917 253.682 87.915)"/><use xlink:href="#a" transform="rotate(133.167 109.62 100.556)scale(-.00895 .00895)"/><use xlink:href="#a" transform="matrix(-.0144 .0014 .0014 .0144 261.897 84.238)"/><use xlink:href="#a" transform="rotate(71.403 71.175 226.962)scale(-.01388 .01388)"/><use xlink:href="#a" transform="rotate(44.6 26.922 355.538)scale(.01357 -.01357)"/><use xlink:href="#a" transform="rotate(65.88 66.807 240.744)scale(.00552 -.00552)"/><use xlink:href="#a" transform="rotate(156.426 121.151 68.28)scale(-.00738 .00738)"/><use xlink:href="#a" transform="rotate(66.204 68.743 238.223)scale(.00577 -.00577)"/><use xlink:href="#a" transform="rotate(102.042 98.005 145.464)scale(-.00656 .00656)"/><use xlink:href="#a" transform="rotate(44.21 33.7 356.79)scale(.0073 -.0073)"/><use xlink:href="#a" transform="rotate(85.701 88.624 177.106)scale(.0063 -.0063)"/><use xlink:href="#a" transform="rotate(65.847 72.709 240.648)scale(-.0131 .0131)"/><use xlink:href="#a" transform="rotate(158.612 123.566 59.693)scale(.01174 -.01174)"/><use xlink:href="#a" transform="rotate(52.5 56.847 297)scale(.00597 -.00597)"/><use xlink:href="#a" transform="matrix(-.00582 .00286 .00286 .00582 259.636 68.79)"/><use xlink:href="#a" transform="rotate(129.877 113.086 95.926)scale(-.00634 .00634)"/><use xlink:href="#a" transform="rotate(176.43 129.465 36.549)scale(.01418 -.01418)"/><use xlink:href="#a" transform="matrix(.00414 -.004 -.004 -.00414 258.709 67.162)"/><use xlink:href="#a" transform="rotate(154.84 122.82 59.737)scale(.0124 -.0124)"/><use xlink:href="#a" transform="rotate(38.884 39.084 394.813)scale(.00678 -.00678)"/><use xlink:href="#a" transform="rotate(33.287 29.866 467.34)scale(-.01419 .01419)"/><use xlink:href="#a" transform="rotate(30.597 23.506 504.704)scale(-.01067 .01067)"/><use xlink:href="#a" transform="rotate(204.97 134.513 .678)scale(-.00641 .00641)"/><use xlink:href="#a" transform="rotate(51.674 71.37 296.127)scale(-.00914 .00914)"/><use xlink:href="#a" transform="rotate(166.52 124.872 43.37)scale(-.008 .008)"/><use xlink:href="#a" transform="rotate(60.508 82.175 245.568)scale(.00715 -.00715)"/><use xlink:href="#a" transform="rotate(115.946 112.952 104.41)scale(.01478 -.01478)"/><use xlink:href="#a" transform="rotate(75.06 96.087 191.4)scale(.00677 -.00677)"/><use xlink:href="#a" transform="rotate(160.02 124.962 46.664)scale(.00548 -.00548)"/><use xlink:href="#a" transform="rotate(78.21 99.53 180.118)scale(.01276 -.01276)"/><use xlink:href="#a" transform="rotate(133.187 120.098 76.926)scale(.0141 -.0141)"/><use xlink:href="#a" transform="rotate(33.281 58.517 457.813)scale(-.00877 .00877)"/><use xlink:href="#a" transform="rotate(57.866 90.91 253.03)scale(.00927 -.00927)"/><use xlink:href="#a" transform="rotate(132.472 120.15 78.35)scale(-.01002 .01002)"/><use xlink:href="#a" transform="matrix(.0041 .0043 .0043 -.0041 257.928 38.993)"/><use xlink:href="#a" transform="matrix(.0057 -.0032 -.0032 -.0057 259.09 39.457)"/><use xlink:href="#a" transform="matrix(-.00447 .01132 .01132 .00447 258.485 33.835)"/><use xlink:href="#a" transform="rotate(112.94 118.405 102.766)scale(.00544 -.00544)"/><use xlink:href="#a" transform="matrix(-.006 -.01324 -.01324 .006 263.233 34.48)"/><use xlink:href="#a" transform="matrix(-.0003 -.0099 -.0099 .0003 261.917 32.86)"/><use xlink:href="#a" transform="rotate(-176.412 131.573 9.894)scale(.01036 -.01036)"/><use xlink:href="#a" transform="rotate(171.973 129.946 22.688)scale(.00662 -.00662)"/><use xlink:href="#a" transform="rotate(99.241 119.004 125.96)scale(-.00975 .00975)"/><use xlink:href="#a" transform="rotate(59.584 107.808 239.197)scale(.00687 -.00687)"/><use xlink:href="#a" transform="rotate(109.43 121.629 105.552)scale(-.0081 .0081)"/><use xlink:href="#a" transform="rotate(32.55 89.563 455.53)scale(.0075 -.0075)"/><use xlink:href="#a" transform="rotate(83.36 118.166 156.169)scale(.00709 -.00709)"/><use xlink:href="#a" transform="rotate(41.799 104.324 353.89)scale(-.00633 .00633)"/><defs><path id="a" fill="#000" d="M215.823 333.963c0-.733.3-1.033.667-.667a.95.95 0 0 1 0 1.334c-.367.366-.667.066-.667-.667M143.424 3.977c4.632-.653 8.099 4.826 5.302 8.382-1.951 2.48-2.551 5.604-1.078 5.604.905.004 11.175 12.34 11.175 13.423 0 1.076-4.344 5.111-6.316 5.868-1.898.728-1.434 2.71.633 2.71.661 0 1.78.924 2.486 2.056 1.284 2.054 1.286 2.054 2.991.057.938-1.1 2.606-2.139 3.706-2.307s2.33-.757 2.734-1.307c.415-.565.741-.238.75.75.018 2.14.447 2.169 3.408.229 1.623-1.063 2.19-2.212 1.884-3.81-1.049-5.489 4.864-5.512 14.402-.058 5.289 3.024 5.527 3.005 7.663-.61 3.023-5.119 9.966-1.694 8.152 4.02-.515 1.623-.183 2.247 1.417 2.666 1.15.3 2.09.945 2.09 1.43.001.485.9.883 2 .883 2.405 0 2.51-.633.446-2.697-1.937-1.936-1.511-6.247.756-7.667 2.444-1.53 3.085-.336 1.976 3.68-.844 3.057-.725 3.569.927 4 1.042.274 1.895 1.215 1.895 2.09.001 2.117 3.922 2.083 5.479-.046 1.634-2.235 4.962-.366 4.996 2.806.022 2.026.585 2.375 4.275 2.641 3.903.283 4.25.113 4.25-2.089q0-2.397 2.547-3.556c5.794-2.64 9.087-.056 7.912 6.206-.627 3.341-.627 3.341 7.125 4.043 13.323 1.209 21.701 9.211 10.916 10.427-1.65.187-3.533.779-4.183 1.316-.772.639-2.504.61-5-.082-4.664-1.295-5.317-1.318-5.317-.18 0 .89 3.547 2.107 7.692 2.639 3.814.489 4.527 1.472 3.864 5.335-1.584 9.224-1.538 9.134-4.694 9.134-1.732 0-2.721-.419-2.362-1 .34-.55.194-1-.324-1-.519 0-1.178-.9-1.466-2-.316-1.208-1.364-2-2.648-2-1.169 0-2.425-.787-2.793-1.75-.688-1.803-.846-2.03-4.339-6.25-2.069-2.5-2.069-2.5-1.491.21.443 2.079.097 2.968-1.49 3.817-3.053 1.634-2.358 6.6.861 6.15 1.27-.178 2.952.21 3.737.862.841.698 2.53.908 4.115.51 2.465-.619 2.57-.53 1.263 1.08-.904 1.113-.968 1.48-.175 1.004 1.207-.725 1.687.683 1.482 4.336-.045.808 1.226 3.249 2.826 5.425 2.411 3.278 2.808 4.595 2.313 7.686-.499 3.124-.251 3.915 1.528 4.868 1.738.93 1.934 1.496 1.067 3.115-.582 1.088-.743 2.489-.358 3.114 1.359 2.199-6.627-.001-11.342-3.124-8.698-5.762-10.731-2.813-8.924 12.947.221 1.925-.023 4.035-.543 4.69-2.291 2.887-.482 6.804 3.201 6.932 1.925.067 3.95.231 4.5.365s1.77.166 2.711.072c2.294-.23 5.828 1.736 5.529 3.076-.429 1.92 7.577 1.339 13.716-.996 3.275-1.246 6.763-2.054 7.75-1.795 1.097.287 1.794-.077 1.794-.937 0-.773-.9-1.407-2-1.407-2.468 0-2.532-1.121-.227-3.967 1.774-2.19 1.774-2.191 3.655-.112 3.099 3.423 8.159.85 5.79-2.944-.993-1.589-.581-2.041 3.321-3.645 2.449-1.007 4.455-2.169 4.457-2.582s.443-.75.979-.75c1.288 0 .183 5.855-1.664 8.817-1.092 1.751-1.167 2.651-.309 3.686 1.283 1.545-.226 5.368-2.692 6.822-.804.474-1.149 1.608-.812 2.669.406 1.279-.025 2.039-1.405 2.477-1.193.378-1.772 1.202-1.445 2.054.599 1.563-1.168 3.716-3.898 4.75-.962.364-1.75 1.619-1.75 2.789 0 2.226-3.33 7.595-5.963 9.615-1.366 1.047-1.342 1.254.215 1.857 1.184.459 2.39-.086 3.717-1.678 2.104-2.526 2.666-1.913 1.038 1.131-.844 1.574-.541 1.954 2 2.512 3.869.85 4.064 4.832.493 10.094-3.324 4.898-3.182 6.036 1.488 11.905 2.188 2.75 5.447 7.129 7.244 9.732 2.93 4.244 6.768 6.38 6.768 3.768 0-.55 1.035-1 2.3-1s2.746-.446 3.29-.99c.62-.62 2.15-.657 4.088-.101 2.392.686 3.469.516 4.728-.744 4.803-4.802 6.925 3.04 2.546 9.405-3.724 5.412-1.48 4.855 3.795-.941 1.786-1.963 3.851-3.336 4.59-3.052.738.282 1.92-.181 2.625-1.031 1.934-2.33 4.935-1.866 6.224.963 1.583 3.475-.177 6.436-7.813 13.14-6.161 5.409-6.161 5.409-3.267 8.303q6.73 6.731-2.936 8.665c-2.37.473-3.292.23-3.762-.995-.888-2.314-2.696-2.009-5.448.92-2.037 2.169-2.206 2.834-1.151 4.523 1.864 2.986.028 5.71-3.506 5.2-4.597-.663-9.708 5.273-8.219 9.547.611 1.753 1.63 3.202 2.264 3.219s.361.49-.606 1.054c-.967.563-2.166.771-2.665.463-.498-.308-1.136-.096-1.417.471-.28.567-.375.457-.21-.244a1.32 1.32 0 0 1 1.594-.969c1.051.249 1.054.018.019-1.229-.82-.989-2.396-1.39-4.419-1.124a92 92 0 0 1-6.144.558c-1.65.081-2.437.374-1.75.651.688.279 1.25 1.087 1.25 1.799s.675 1.854 1.5 2.539c5.107 4.238-.167 9.564-11.856 11.977-5.805 1.198-5.851 1.236-5.25 4.241.333 1.668.606 4.11.606 5.428 0 1.565.84 2.78 2.421 3.5 1.427.65 2.204 1.669 1.892 2.481-1.315 3.427.629 6.545 3.665 5.878 3.965-.871 7.62 1.069 5.906 3.134-.684.825-2.082 1.281-3.105 1.013-1.464-.382-1.732-.077-1.254 1.431.545 1.717.081 1.917-4.459 1.917-5.146 0-6.794-1.89-2.64-3.028 2.787-.763 3.151-3.008.595-3.677-1.452-.379-1.789-.821-.999-1.309 1.624-1.003.253-6.985-1.601-6.986-.782 0-1.421-.392-1.421-.872s-1.851-1.168-4.114-1.53c-2.276-.364-4.845-1.556-5.75-2.669-1.563-1.921-1.645-1.764-1.848 3.531-.199 5.212-.072 5.54 2.143 5.54 5.607 0 3.707 7.564-2.136 8.502-2.087.335-5.28 1.263-7.096 2.062-2.486 1.094-3.803 1.183-5.335.363-2.367-1.266-3.36-.663-2.519 1.53.326.849 1.676 1.543 3.001 1.543 3.904 0 5.075 2.286 3.115 6.077-1.665 3.218-1.666 3.218-13.063 2.607s-11.398-.611-11.398 2.418c0 8.621-10.579 8.949-12.836.398-1.025-3.886-7.44-4.574-7.971-.856-.417 2.928-5.229 3.934-5.933 1.241-.544-2.077-1.366-2.361-2.81-.97-.522.504-2.075 1.066-3.45 1.25-1.71.229-2.602 1.053-2.823 2.609-.261 1.844-.83 2.2-3 1.878-1.472-.218-2.582-.851-2.467-1.405.116-.555-.672-1.807-1.75-2.783-1.881-1.703-1.962-1.698-2.002.131-.024 1.048-1.416 3.03-3.095 4.405a541 541 0 0 0-5.708 4.749c-4.916 4.164-8.422 2.715-9.677-3.999-.385-2.061-.881-3.749-1.102-3.75s-3.649.9-7.619 2c-14.524 4.025-29-2.533-15.77-7.145 1.657-.578 3.013-1.445 3.013-1.928s-1.155-.438-2.566.098c-2.123.807-3.159.524-6-1.643-3.139-2.394-4.983-5.457-2.279-3.787.716.443.883.275.439-.443-1.049-1.697-4.913.576-4.188 2.464.811 2.113-2.281 2.937-3.707.987-1.831-2.504-6.976.008-6.236 3.044 1.341 5.502-5.446 8.159-7.44 2.914-.95-2.498-5.437-1.816-9.523 1.446-1.865 1.489-6.803 1.559-7.292.104-.259-.768-.013-1.108.549-.761.56.346.996.071.973-.61-.161-4.454.444-5.606 3.52-6.697 3.668-1.3 2.102-3.54-3.25-4.647-1.375-.284-3.306-.954-4.29-1.489-.986-.536-2.157-.749-2.603-.473-.448.276-1.667-.136-2.71-.916-1.793-1.341-1.767-1.385.487-.816 1.773.448 2.26.242 1.896-.8-.268-.771-1.228-1.27-2.134-1.108s-1.646-.113-1.646-.61c0-1.368-6.697-8.183-8.04-8.184-1.264 0-.447 5.053.968 5.991 1.274.844.882 7.15-.413 6.653-.657-.252-1.123.469-1.084 1.676.084 2.591-2.923 3.446-3.828 1.089-.357-.929.047-2.752.897-4.05 1.424-2.172 1.405-2.362-.227-2.394-.976-.02-2.897-.658-4.27-1.418-1.696-.939-2.884-1.061-3.702-.382-1.603 1.33-5.582.011-4.95-1.641.545-1.42-1.94-5.524-3.343-5.524-1.258 0-10.008-8.116-10.008-9.282 0-.581 1.664-.708 4.125-.314 3.832.613 4.086.511 3.58-1.429-.45-1.717-.294-1.879.874-.91 2.272 1.886 1.639-.557-.69-2.659-1.16-1.048-2.975-3.744-4.033-5.992-1.69-3.592-9.922-9.936-15.158-11.681-3.332-1.111 3.063-11.87 6.517-10.966 1.767.462 1.998.235 1.38-1.356-1.235-3.177-1.163-3.926.35-3.596 2.291.498 6.055-1.977 6.055-3.984 0-1.079.72-1.831 1.755-1.831 2.437 0 4.522-6.525 2.596-8.124-.743-.616-1.35-1.939-1.35-2.939-.001-1.001-.451-2.097-1-2.437-.55-.34-1-1.518-1-2.618s-.404-1.752-.895-1.448c-.49.303-1.843-1.357-3.005-3.691s-2.66-5.143-3.328-6.243-2.239-3.678-3.493-5.729c-2.852-4.664-2.888-7.741-.126-10.706 1.922-2.063 1.98-2.41.542-3.215-.887-.497-1.358-1.568-1.045-2.382.387-1.012-.573-1.955-3.043-2.987-1.984-.829-3.645-2.064-3.69-2.744-.242-3.637-1.198-7.557-2.465-10.115-.785-1.582-1.159-3.945-.832-5.25.405-1.611.16-2.392-.764-2.435-.746-.035-.333-.475.918-.977 2.606-1.047 2.206-5.5-.687-7.629-4.752-3.496-5.041-3.891-4.456-6.081.33-1.238 1.379-2.25 2.33-2.25.95 0 2.543-.9 3.538-2s2.231-2 2.745-2 1.779-1.012 2.81-2.25c1.615-1.934 1.883-2.003 1.912-.49.018.968-.867 2.53-1.967 3.472-2.538 2.173-2.518 2.899.1 3.584 1.157.303 1.805 1.029 1.442 1.617-.363.587-.445 1.067-.183 1.067.263 0 1.25.298 2.196.66 1.212.464 1.572.243 1.224-.75-.57-1.629 2.992-7.17 4.15-6.454.427.264 1.613-.132 2.636-.879 2.017-1.475.615-4.576-2.069-4.577-1.332 0-4.101-8.453-3.604-11 .162-.825.239-3.222.17-5.326-.108-3.399.22-3.954 2.949-4.984 2.134-.806 3.024-1.774 2.919-3.175-.26-3.456.036-4.654 1-4.058a1.09 1.09 0 0 0 1.502-.347c.313-.507 1.402-.705 2.42-.438 2.56.669 5.59-2.434 4.113-4.214-.807-.972-.795-1.907.043-3.472.63-1.178.9-2.782.6-3.564-.38-.993.2-1.422 1.923-1.422 1.358 0 2.469-.45 2.47-1 0-.55-.437-1-.97-1s-.71-.675-.393-1.5c.33-.861.02-1.5-.73-1.5-1.018 0-1.041-.267-.108-1.2.66-.66 1.2-1.948 1.2-2.862 0-1.277 1.32-1.818 5.684-2.331 3.126-.367 6.276-1.159 7-1.76 1.767-1.466 1.673-3.846-.153-3.847-.894 0-1.243.586-.893 1.5.363.945-.011 1.5-1.011 1.5-1.986 0-1.574-5.786.506-7.103 3.478-2.204-2.762-.68-7.275 1.776-3.573 1.945-5.211 2.374-6.012 1.573-.743-.743-1.913-.79-3.605-.148-4.224 1.606-6.24.29-6.24-4.07 0-4.477 3.34-6.913 15.25-11.124 7.366-2.604 7.512-2.802 5.108-6.871-1.99-3.368-1.188-7.635 1.6-8.52 2.676-.849 9.035.449 9.056 1.848.042 3.128 1.618 3.829 5.793 2.579 4.398-1.318 5.909-3.37 4.09-5.56-.88-1.063-.605-1.805 1.234-3.325 2.036-1.682 2.524-1.753 3.477-.506 1.928 2.52 17.01-1.493 15.954-4.243-.865-2.257 4.422-5.084 5.593-2.991 1.402 2.505 4.122 2.048 7.252-1.219 2.783-2.905 2.783-2.905.625-5.062-3.774-3.774-.756-10.609 4.56-10.326 5.589.297 6.264.495 5.822 1.71-.217.595-.005 1.692.47 2.437 1.046 1.642 5.668-.946 6.598-3.694.309-.914 3.365-3.792 6.79-6.397 3.42-2.6 6.265-4.737 6.328-4.75m65.339 318.986c.582 0 1.06.45 1.06 1s-.198 1-.441 1-.719-.45-1.059-1-.141-.999.44-1m-91.94-7.618c0-.825.45-1.222 1-.882s1 1.294 1 2.119c0 .824-.45 1.221-1 .881s-1-1.293-1-2.118m85.5-1.382c.275 0 .5.225.5.5s-.225.5-.5.5a.5.5 0 0 1-.5-.5c0-.275.225-.5.5-.5m-127.56-8c.582 0 1.06.45 1.06 1s-.198 1-.441 1-.72-.45-1.059-1c-.34-.55-.141-.999.44-1m-2.94-1c.55 0 1 .45 1 1s-.45 1-1 1-1-.45-1-1 .45-1 1-1m60 1.107c0-1.644-2.785-1.984-4.653-.57-1.705 1.292-1.597 1.402 1.403 1.431 1.787.018 3.25-.37 3.25-.861m-45-2.107c.733 0 1.033.3.667.667a.95.95 0 0 1-1.334 0c-.366-.367-.066-.667.667-.667m-9.583.079c1.054-.043 1.644.193 1.312.525s-1.195.368-1.916.079c-.798-.319-.56-.556.604-.604m1.583-3.079c.55 0 1 .45 1 1s-.45 1-1 1-1-.45-1-1 .45-1 1-1m-8.5-1c.825 0 1.5.661 1.5 1.469 0 .894-.586 1.243-1.5.893-.825-.317-1.5-.978-1.5-1.469s.675-.893 1.5-.893m-.5-8c.55 0 1 .198 1 .441s-.45.719-1 1.059-1 .141-1-.441.45-1.059 1-1.059m200.5-6c.825 0 1.5.17 1.5.378 0 .207-.675.938-1.5 1.622-1.229 1.02-1.5.951-1.5-.378 0-.892.675-1.622 1.5-1.622m5-1c.275 0 .5.225.5.5s-.225.5-.5.5a.5.5 0 0 1-.5-.5c0-.275.225-.5.5-.5m-1.808-3.641c.54-1.409.707-1.398 1.549.107 1.058 1.89.425 3.064-1.132 2.102-.561-.349-.749-1.342-.417-2.209m-3.534-.359c0-1.375.227-1.937.504-1.25.278.688.278 1.813 0 2.5-.277.688-.504.125-.504-1.25m2.342-1c.275 0 .5.225.5.5s-.225.5-.5.5a.5.5 0 0 1-.5-.5c0-.275.225-.5.5-.5m-5.844-1.455q-.555-1.444.895-.886c1.68.645 1.794 1.01.554 1.776-.493.305-1.145-.096-1.449-.89m6.844-.545c.275 0 .5.225.5.5s-.225.5-.5.5a.5.5 0 0 1-.5-.5c0-.275.225-.5.5-.5m39.5-3c0-.733.3-1.033.667-.667a.95.95 0 0 1 0 1.334c-.367.366-.667.066-.667-.667m-6-10.441c0-1.757.6-2.015 1.457-.628.317.512.118 1.214-.441 1.56-.559.344-1.016-.075-1.016-.932M39.241 257.57c-2.373-.911-2.69-.758-2.025.975.334.87.607 1.77.607 2s.675.418 1.5.418c1.99 0 1.928-2.622-.082-3.393m255.48-5.607c1.658 0 8.149 6.113 7.54 7.101-1.492 2.413-6.742-.804-7.918-4.851-.379-1.302-.22-2.249.378-2.25m-20.398 4c-.275 0-.5.225-.5.5s.225.5.5.5.5-.225.5-.5-.225-.5-.5-.5m-6-3c-.275 0-.5.225-.5.5s.225.5.5.5.5-.225.5-.5-.225-.5-.5-.5m-1.677-3.667c-.389-2.009-2.386-2.848-3.29-1.385-.88 1.423.242 3.052 2.099 3.052.876 0 1.378-.703 1.191-1.667m2.677.667c-.275 0-.5.225-.5.5s.225.5.5.5.5-.225.5-.5-.225-.5-.5-.5m-245-17c.275 0 .5.225.5.5s-.225.5-.5.5a.5.5 0 0 1-.5-.5c0-.275.225-.5.5-.5m2 0c.275 0 .5.225.5.5s-.225.5-.5.5a.5.5 0 0 1-.5-.5c0-.275.225-.5.5-.5m4-50c-.275 0-.5.225-.5.5s.225.5.5.5.5-.225.5-.5-.225-.5-.5-.5m-4.5 0c.733 0 1.033.3.667.667a.95.95 0 0 1-1.334 0c-.366-.367-.066-.667.667-.667m-1.281-14.918c.165-2.193-1.234-3.676-2.118-2.246-.295.478.026 1.64.713 2.579 1.154 1.578 1.263 1.552 1.405-.333m1.781-2.082c-.275 0-.5.225-.5.5s.225.5.5.5.5-.225.5-.5-.225-.5-.5-.5m251.7-11.799c3.351-3.351 7.363-.019 6.367 5.289-.771 4.111-2.856 4.579-5.624 1.26-2.183-2.616-2.436-4.856-.743-6.549m-277.2 2.799c.733 0 1.033.3.667.667a.95.95 0 0 1-1.334 0c-.366-.367-.066-.667.667-.667m286.094-9c.498 0 .906.9.906 2s-.173 1.999-.383 2-.619-.9-.907-2c-.287-1.1-.115-2 .384-2m-1.594-2c.275 0 .5.225.5.5s-.225.5-.5.5a.5.5 0 0 1-.5-.5c0-.275.225-.5.5-.5m7.882-3c.275 0 .778.45 1.118 1s.393 1 .118 1-.778-.45-1.118-1-.393-1-.118-1M18.68 133.08c.195-.064.119.503-.172 1.261s0 1.909.643 2.557c.9.904.602.968-1.277.276-3.058-1.127-3.74-2.892-1.356-3.51.992-.257 1.965-.52 2.162-.584m8.81-1.45c1.116-1.117 2-.749 2 .833 0 .825-.6 1.5-1.334 1.5-1.419 0-1.77-1.229-.666-2.333m266.273.333c.582 0 1.06.45 1.06 1s-.198 1-.441 1-.719-.45-1.059-1-.141-.999.44-1m2.56 1c.275 0 .5.225.5.5s-.225.5-.5.5a.5.5 0 0 1-.5-.5c0-.275.225-.5.5-.5m-275.5-4c.55 0 1 .675 1 1.5s-.45 1.5-1 1.5-1-.675-1-1.5.45-1.5 1-1.5m282 .128c3.258-1.305 5-1.362 5-.163 0 1.749-3.891 3.196-5.763 2.142-1.557-.876-1.478-1.081.763-1.979m-288.434-3.23c3.127-1.225 4.078-.943 2.037.602-1.044.79-2.364 1.148-2.934.795-.598-.369-.218-.96.896-1.397m276.493-.898c.518 0 .941.45.941 1s-.703 1-1.56 1c-.856 0-1.28-.45-.94-1s1.041-1 1.559-1m-37.559-20c-.275 0-.5.225-.5.5s.225.5.5.5.5-.225.5-.5-.225-.5-.5-.5m-215-3c.275 0 .5.225.5.5s-.225.5-.5.5a.5.5 0 0 1-.5-.5c0-.275.225-.5.5-.5m5-1c.275 0 .5.225.5.5s-.225.5-.5.5a.5.5 0 0 1-.5-.5c0-.275.225-.5.5-.5m-11.25-5.017c1.787-1.093 3.85-1.76 4.582-1.485.732.276 2.082.538 3 .581.999.047 1.176.279.442.576-.673.272-1.452.35-1.73.17-.278-.178-1.215.687-2.081 1.925-1.028 1.467-2.602 2.25-4.52 2.25-3.852 0-3.733-1.546.307-4.017m228.25 3.017c.275 0 .5.225.5.5s-.225.5-.5.5a.5.5 0 0 1-.5-.5c0-.275.225-.5.5-.5m-218-1c.275 0 .5.225.5.5s-.225.5-.5.5a.5.5 0 0 1-.5-.5c0-.275.225-.5.5-.5m12.32-8.171c-.347-2.352-2.271-3.527-3.232-1.972-.907 1.468.44 4.143 2.089 4.143.932 0 1.346-.787 1.143-2.171m184.68-14.829c.275 0 .5.225.5.5s-.225.5-.5.5a.5.5 0 0 1-.5-.5c0-.275.225-.5.5-.5m34.5-2.004c0-.513.675-.721 1.5-.464.825.258 2.25.709 3.167 1.001 1.174.376 1.353.846.607 1.592-1.18 1.18-5.273-.473-5.274-2.129M69.807 71.213c.022-1.797-1.658-1.54-2.39.364-.392 1.023-1.345 1.423-2.606 1.093-1.092-.285-1.987-.16-1.988.278s1.195 1.099 2.655 1.466c2.667.668 4.296-.536 4.33-3.2m174.575-2.25c-.243 0-.719.45-1.059 1s-.141 1 .44 1c.582 0 1.06-.45 1.06-1s-.198-1-.441-1m-3.059-1c-.275 0-.5.225-.5.5s.225.5.5.5.5-.225.5-.5-.225-.5-.5-.5m-97.083-21.92c-1.165.047-1.402.284-.604.603.721.289 1.584.253 1.916-.08.332-.331-.258-.567-1.312-.524m37.583-2.08c-.733 0-1.033.3-.667.667a.95.95 0 0 0 1.334 0c.366-.367.066-.667-.667-.667m-34.478-9.63c-1.136-.435-1.813.026-2.198 1.5-.307 1.172-1.18 2.13-1.941 2.13-.76 0-1.383.45-1.383 1 0 1.52 2.594 1.195 4-.5.685-.825 2.288-1.5 3.563-1.5s2.597-.45 2.937-1-.272-1-1.359-1c-1.088 0-2.717-.283-3.619-.63m-8.398 2.363c-.988-.98-1.102-.865-.56.56.376.986.935 1.54 1.243 1.233s.001-1.114-.683-1.793m21.376-6.733c.275 0 .5.225.5.5s-.225.5-.5.5a.5.5 0 0 1-.5-.5c0-.275.225-.5.5-.5m45.5-1c.733 0 1.033.3.667.667a.95.95 0 0 1-1.334 0c-.366-.367-.066-.667.667-.667m5-4c.55 0 1 .198 1 .44 0 .244-.45.72-1 1.06s-1 .14-1-.441c0-.582.45-1.059 1-1.059m-34.5 0c.275 0 .5.225.5.5s-.225.5-.5.5a.5.5 0 0 1-.5-.5c0-.275.225-.5.5-.5m-3.5-6c.733 0 1.033.3.667.667a.95.95 0 0 1-1.334 0c-.366-.367-.066-.667.667-.667m1-3c0-.733.3-1.033.667-.667a.95.95 0 0 1 0 1.334c-.367.366-.667.066-.667-.667m35-2c.733 0 1.033.3.667.667a.95.95 0 0 1-1.334 0c-.366-.367-.066-.667.667-.667m-31.5-1c.275 0 .5.225.5.5s-.225.5-.5.5a.5.5 0 0 1-.5-.5c0-.275.225-.5.5-.5m-11-2c.275 0 .5.225.5.5s-.225.5-.5.5a.5.5 0 0 1-.5-.5c0-.275.225-.5.5-.5m9.5 0c0-.733.3-1.033.667-.667a.95.95 0 0 1 0 1.334c-.367.366-.667.066-.667-.667m-4.5-1c.275 0 .5.225.5.5s-.225.5-.5.5a.5.5 0 0 1-.5-.5c0-.275.225-.5.5-.5m-38.941-3c.243 0 .441.45.441 1s-.478 1-1.06 1c-.581 0-.78-.45-.44-1s.816-1 1.059-1m-9.559 1c.733 0 1.033.3.667.667a.95.95 0 0 1-1.334 0c-.366-.367-.066-.667.667-.667m44.381-5.652c2.929-2.519 5.619-3.082 5.619-1.177 0 1.726-3.081 4.829-4.795 4.83-.816 0-2.026.74-2.688 1.645-1.062 1.452-1.184 1.375-1.035-.65.093-1.265 1.398-3.356 2.899-4.648" data-figma-scatter="f0.51_w0.06_aj180_sj0.65_r0_s17656661811333049531_sw3" data-figma-scatter-ref="stroke0_184_4760_ref"/></defs></svg>