<svg xmlns="http://www.w3.org/2000/svg" width="69" height="99" fill="none" viewBox="0 0 69 99"><g filter="url(#a)" opacity=".87"><path fill="#2b2816" d="M9.164 54.643c-.583.238-1.377.453-1.769 0-1.557-1.798 1.003-5.857 4.316-6.22 3.774-.412 6.544.588 9.824 2.361 2.88 1.556 5.127 3.81 7.072 6.59 2.373 3.393 4.138 7.244 4.544 11.711-2.403-5.238-5.397-9.788-9.925-12.83-1.888-1.27-4.498-1.335-6.4-.434-1.337.634-2.197 1.983-1.893 3.436 1.694-1.712 4.201-.766 5.736.976 1.233 1.398 2.78 2.361 4.314 3.349l3.575 2.303c2.608 1.68 5.205 6.93 5.266 10.089l.083 4.314c-1.915-5.153-5.854-11.81-10.385-14.01-2.034-.987-4.152-1.578-6.32-1.482-2.526.111-4.446 1.31-6.198 3.173-2.555 2.717-3.432 6.96-1.415 10.333 2.018 3.371 6.565 4.784 9.7 1.965 1.551-1.396 2.32-3.809 1.226-5.861-.535-1.003-1.913-1.506-2.95-1.115.846.748 1.169 1.407 1.14 2.347-.04 1.404-.684 2.63-2.105 2.83-1.326.186-2.81-.562-3.497-1.618-.832-1.286-1.124-2.747-.659-4.186.165-.51.074-1.166.342-1.7 1.56-3.105 4.527-4.362 7.686-3.81 2.85.5 5.358 1.968 7.273 4.419 1.514 1.936 2.756 4.084 3.82 6.377 1.064 2.292 2.293 4.49 2.52 7.16-1.109-3.443-3.394-6.742-6.811-6.017-1.39.294-2.447 1.477-2.798 2.895-.215.868-.145 1.653.452 2.208.359-.81.85-1.603 1.668-1.965 3.324-1.477 7.116 2.667 7.304 7.833.015.437.598.944.746.627.688-1.485.179-4.134 3-7.166 1.274-1.369 3.221-1.99 4.85-.911.15.269.248.716.806.807l.906.792c.787-2.105-.393-4.524-2.524-5.093-1.78-.477-3.434.44-4.717 1.878l-1.757 2.747c.02-1.212.639-2.026.948-3.028.923-3.004 2.48-5.514 4.263-7.978 2.651-3.669 6.103-6.046 10.432-5.622 1.634.16 2.939.862 4.065 2.11.574.637 1.066 1.132 1.385 2.024.773 2.171.575 4.484-.92 6.206-1.327 1.526-3.73 1.648-4.804-.118-.883-1.454-.42-3.101 1.032-3.936-.988-.636-1.947-.294-2.72.367-.676.578-1.148 1.497-1.125 2.655.03 1.661.842 3.306 2.192 4.203 3.697 2.454 8.65.66 10.064-3.871 1.195-3.828-.488-8.045-3.518-10.06l-1.174-.78c-3.22-2.142-9.203-.898-12.343 1.952l-3.744 4.414c-1.873 2.208-3.077 4.933-4.08 7.634-.437-.27-.027-.752-.078-.955-.173-.685.196-1.727.156-2.357-.092-1.429-.02-2.597.602-3.9.657-1.375 1.187-2.883 2.11-4.105 1.658-2.197 3.78-3.713 6.096-4.95 3.341-1.785 4.293-3.825 6.018-4.865 1.29-.776 2.815-.638 3.98.516.206-1.698-.614-3.244-2.104-3.74-1.962-.657-3.953-.336-5.791.693-3.444 1.926-6.018 4.959-8.106 8.496-.767 1.3-1.105 2.802-2.228 3.935 2.053-10.364 8.569-18.746 18.2-20.23 1.646-.255 4.055-.133 5.468.687 2.326 1.346 3.064 4.931 1.547 5.625-.496.228-1.121.01-1.702-.33-.245.626.045 1.2.554 1.53 1.04.668 2.25.592 3.304-.088.828-.534 1.51-1.611 1.622-2.864.325-3.66-1.976-6.696-5.268-7.415-1.878-.41-3.774-.213-5.677.278-2.206.57-4 1.843-6.147 2.943.435-1.05 1.384-1.404 2.165-1.978 2.631-1.93 5.173-3.734 7.568-6.019 5.815-5.548 7.469-13.446 4.434-21.198-.861-2.197-4.257-5.526-6.235-6.839l-4.126-2.74c-1.742-1.156-3.447-5.58-1.32-7.232.694-.539 1.782-.67 2.584.022a.96.96 0 0 1 .328.847c-.087.562-1.126.41-1.257.887-.05.184.05.53.216.731.688.826 1.746.53 2.312-.288.8-1.156.916-2.618.042-3.705C53.446.083 52.076-.23 50.688.155c-2.251.626-3.64 2.502-3.657 5.11-.017 2.885 1.531 5.31 3.837 6.75 3.721 2.323 5.682 3.144 8.622 7.36.639.918 1.017 2.171 1.347 3.302.76 2.607.511 5.265.182 7.939-.461 3.765-2.06 6.952-4.7 9.394-1.289 1.195-2.451 2.436-3.908 3.399-.164.108-.259.338-.38.379-.205.068-.498-.263-.29-.472 2.583-2.618 4.56-5.8 5.181-9.577.376-2.285-.275-4.91-1.983-6.282s-4.023-.889-5.533.516c1.713.083 3.497.402 4.114 2.262 1.736 5.223-1.48 9.962-4.8 13.899l-5.634 6.68c-1.22 1.445-2.145 2.992-3.174 4.62-1.72 2.717-3.249 5.462-4.318 8.469-.384-.1-.467-.348-.445-.54.445-3.76 1.043-7.446 2.356-10.936.718-1.912 2.021-3.33 2.984-5.06 1.195-2.146 1.774-4.54 2.582-6.839.95-2.705 3.436-2.268 3.29-3.073-.219-1.2-3.697-1.902-5.676.865-1.57 2.194-2.686 4.741-3.33 7.477l-2.107 8.952c-.475-.384-.081-.968-.114-1.4-.222-3.03-.089-5.926-.023-8.94l.13-5.826c.602-.621 1.38-1.365 1.396-2.332.015-.967-.184-1.742-.958-2.479 1.548-.255 2.493-.97 3.543-1.893 2.281-2.003 2.979-6.5 6.365-9.351 1.284-1.081 2.996-1.672 4.561-1.077.323.122.893 1 1.258.561.695-.835.108-2.156-.773-2.771-2.143-1.494-4.973-1.57-7.298-.458-1.416.677-2.238 1.794-3.665 2.711.994-1.945 1.822-3.543 2.477-5.412 1.65-4.693-2.35-5.981-3.873-8.736-.99-1.79-1.886-3.651-3.467-4.954-1.344-1.108-3.732 3.765-4.906 5.882-1.123 2.026-3.807 3.08-3.666 5.669.097 1.762.638 3.583 1.529 4.987s1.565 2.682 2.52 3.948c.119.157.155.302.084.451-.041.087-.129.189-.304.141-.09-.025-1.363-2.512-3.533-4.171-2.023-1.55-4.564-1.442-6.863-.62-2.11.757-3.009 2.447-2.408 3.345.1.152.423.458.605.255l.762-.853c1.805-.623 3.647.054 5.108 1.38 2.713 2.46 3.63 6.933 5.543 8.787l1.643 1.593c.545.528 1.343.503 2.11.66-.643.645-.945 1.506-.843 2.37.11.938.604 1.642 1.408 2.195.32 4.886.157 9.871.167 14.805 0 .522.203.965-.205 1.321l-1.74-7.501c-.718-3.095-1.862-5.938-3.535-8.538-1.25-1.944-3.555-2.84-5.483-1.534-.199.136-.368.401-.341.56.098.629 1.612.14 2.663 1.954.37.64.853 1.207 1.062 1.968.638 2.317 1.268 4.643 2.648 6.613 2.414 3.446 4.146 7.367 4.448 11.764.105 1.514.431 2.817.238 4.614-2.682-7.006-6.9-13.352-11.94-18.926l-1.465-1.62c-3.268-3.61-6.586-9.187-4.49-13.926.666-1.508 2.372-1.949 3.728-1.72.296.049.424-.179.448-.312.188-1.006-5.37-2.901-7.275 1.357-2.103 4.7 1.343 10.374 4.66 13.875-.458.37-.92.099-1.212-.141-1.9-1.57-3.695-3.25-5.283-5.17-1.645-1.988-2.557-4.208-2.94-6.83-.475-3.256-.627-6.564.556-9.669 1.375-3.608 4.11-6.174 7.344-7.702 4.046-1.914 7.199-5.31 5.769-10.078-.428-1.423-1.209-2.525-2.31-3.039-1.309-.61-2.724-.567-3.813.276-1.238.959-1.684 2.431-.955 3.898.51 1.029 1.734 1.398 2.654.677.262-.207.37-1.048.072-1.158-.486-.178-.969-.211-1.073-.758-.092-.482.09-1.009.577-1.24.718-.35 1.408-.344 2.183.159 2.142 1.723.963 6.133-1.26 7.87l-3.035 1.887c-1.809 1.125-3.606 2.123-5.095 3.778-3.17 3.506-4.35 8.405-3.888 13.29.613 6.494 5.066 11.32 9.794 14.975.425.33.733.654 1.202.97l4.04 2.72-.176.268-2.578-1.293c-2.604-1.306-5.461-1.89-8.274-1.244s-5.262 3.12-5.47 6.327c-.088 1.342.301 2.504 1.048 3.27.845.87 1.812 1.19 3.136 1.009.784-.108 1.273-.87.967-1.576zm23.981-32.39c-.917-1.794-.788-3.803-.338-5.78.338-1.486.743-2.938 1.619-4.123.96 1.253 1.278 2.643 1.622 4.064.967 3.993-.779 6.122-1.622 9.711l-1.28-3.875z"/></g><defs><filter id="a" width="68.841" height="98.79" x="0" y="0" color-interpolation-filters="sRGB" filterUnits="userSpaceOnUse"><feFlood flood-opacity="0" result="BackgroundImageFix"/><feColorMatrix in="SourceAlpha" result="hardAlpha" values="0 0 0 0 0 0 0 0 0 0 0 0 0 0 0 0 0 0 127 0"/><feOffset dy="4"/><feGaussianBlur stdDeviation="2"/><feComposite in2="hardAlpha" operator="out"/><feColorMatrix values="0 0 0 0 0 0 0 0 0 0 0 0 0 0 0 0 0 0 0.25 0"/><feBlend in2="BackgroundImageFix" result="effect1_dropShadow_184_4757"/><feBlend in="SourceGraphic" in2="effect1_dropShadow_184_4757" result="shape"/></filter></defs></svg>