<svg xmlns="http://www.w3.org/2000/svg" xmlns:xlink="http://www.w3.org/1999/xlink" width="340" height="94" fill="none" viewBox="0 0 340 94"><path fill="#e0cea5" d="m56.468 1.932-54.297 26.7 6.147 62.3 48.15-13.35 57.37 13.35 138.303-13.35 85.03 13.35-8.195-25.587c-6.557-14.24 2.732-37.825 8.195-47.838L271.606 1.932c-14.753 5.34-42.345 12.609-54.297 15.575h-80.933z"/><use xlink:href="#a" transform="rotate(102.675 -8.524 15.413)scale(.01241)"/><use xlink:href="#a" transform="rotate(-67.808 21.99 13.597)scale(.0139)"/><use xlink:href="#a" transform="rotate(-34.226 45.039 6.95)scale(.00864)"/><use xlink:href="#a" transform="rotate(94.803 -7.494 16.363)scale(.00683)"/><use xlink:href="#a" transform="rotate(138.391 -.21 14.668)scale(.0063)"/><use xlink:href="#a" transform="rotate(82.142 -9.097 17.702)scale(.00572)"/><use xlink:href="#a" transform="rotate(3.342 -379.641 153.074)scale(.01292)"/><use xlink:href="#a" transform="rotate(-35.69 41.8 -4.083)scale(.006)"/><use xlink:href="#a" transform="rotate(202.493 8.995 11.091)scale(.00606)"/><use xlink:href="#a" transform="rotate(-67.05 23.937 2.92)scale(.00817)"/><use xlink:href="#a" transform="rotate(118.66 2.474 15.94)scale(.01158)"/><use xlink:href="#a" transform="rotate(215.342 12.71 9.521)scale(.01461)"/><use xlink:href="#a" transform="rotate(-89.168 19.709 2.61)scale(.01333)"/><use xlink:href="#a" transform="rotate(28.82 -21.987 47.81)scale(.01266)"/><use xlink:href="#a" transform="rotate(-57.013 27.358 -8.689)scale(.01476)"/><use xlink:href="#a" transform="rotate(36.725 -11.866 44.899)scale(.00638)"/><use xlink:href="#a" transform="rotate(32.324 -10.677 50.731)scale(.0135)"/><use xlink:href="#a" transform="rotate(143.715 12.861 13.328)scale(.01259)"/><use xlink:href="#a" transform="rotate(-43.768 32.568 -27.319)scale(.00673)"/><use xlink:href="#a" transform="rotate(-76.785 24.332 -10.146)scale(.01153)"/><use xlink:href="#a" transform="rotate(124.379 14.449 15.905)scale(.01297)"/><use xlink:href="#a" transform="rotate(-22.956 44.797 -73.207)scale(.01225)"/><use xlink:href="#a" transform="rotate(253.793 22.514 -6.759)scale(.0056)"/><use xlink:href="#a" transform="rotate(96.714 15.899 22.395)scale(.01387)"/><use xlink:href="#a" transform="rotate(213.193 21.838 .513)scale(.01128)"/><use xlink:href="#a" transform="rotate(47.16 12.234 50.579)scale(.00981)"/><use xlink:href="#a" transform="rotate(-63.59 27.872 -27.405)scale(.01148)"/><use xlink:href="#a" transform="rotate(38.635 14.964 65.257)scale(.01268)"/><use xlink:href="#a" transform="rotate(69.943 18.778 36.065)scale(.00548)"/><use xlink:href="#a" transform="rotate(-93.427 26.607 -17.478)scale(.00623)"/><use xlink:href="#a" transform="rotate(-14.231 40.84 -179.692)scale(.01239)"/><use xlink:href="#a" transform="rotate(-35.233 31.065 -71.803)scale(.01126)"/><use xlink:href="#a" transform="rotate(-68.139 28.74 -34.141)scale(.00611)"/><use xlink:href="#a" transform="rotate(187.069 26.497 .973)scale(.0057)"/><use xlink:href="#a" transform="rotate(142.641 26.494 11.129)scale(.0066)"/><use xlink:href="#a" transform="rotate(188.828 27.7 .301)scale(.00783)"/><use xlink:href="#a" transform="rotate(-44.932 29.232 -62.589)scale(.01048)"/><use xlink:href="#a" transform="rotate(133.84 28.69 13.458)scale(.0073)"/><use xlink:href="#a" transform="rotate(251.094 29.989 -18.23)scale(.00918)"/><use xlink:href="#a" transform="rotate(241.419 30.46 -15.675)scale(.00574)"/><use xlink:href="#a" transform="rotate(-17.744 35.5 -187.976)scale(.00547)"/><use xlink:href="#a" transform="rotate(-85.904 32.062 -30.107)scale(.00724)"/><use xlink:href="#a" transform="rotate(-46.785 33.502 -67.159)scale(.01446)"/><use xlink:href="#a" transform="rotate(252.584 33.775 -20.932)scale(.00734)"/><use xlink:href="#a" transform="rotate(50 32.688 71.877)scale(.01406)"/><use xlink:href="#a" transform="rotate(209.163 35.709 -5.32)scale(.01353)"/><use xlink:href="#a" transform="rotate(75.502 33.07 47.582)scale(.00545)"/><use xlink:href="#a" transform="rotate(30.557 32.257 130.918)scale(.01333)"/><use xlink:href="#a" transform="rotate(36.076 31.362 114.145)scale(.00783)"/><use xlink:href="#a" transform="rotate(221.736 39.441 -9.96)scale(.01461)"/><use xlink:href="#a" transform="rotate(182.535 39.745 3.187)scale(.0118)"/><use xlink:href="#a" transform="rotate(98.81 38.834 37.404)scale(.01212)"/><use xlink:href="#a" transform="rotate(88.32 39.407 45.347)scale(.0129)"/><use xlink:href="#a" transform="rotate(240.429 44.202 -19.238)scale(.01162)"/><use xlink:href="#a" transform="rotate(63.512 39.76 72.24)scale(.0141)"/><use xlink:href="#a" transform="rotate(-56.701 50.486 -75.357)scale(.0067)"/><use xlink:href="#a" transform="rotate(-4.764 116.584 -1036.612)scale(.01412)"/><use xlink:href="#a" transform="rotate(147.936 44.72 17.641)scale(.00592)"/><use xlink:href="#a" transform="rotate(87.2 42.187 52.4)scale(.00552)"/><use xlink:href="#a" transform="rotate(-91.614 50.916 -38.629)scale(.01322)"/><use xlink:href="#a" transform="rotate(73.974 44.033 67.639)scale(.01366)"/><use xlink:href="#a" transform="rotate(-2.237 262.66 -2442.04)scale(.00998)"/><use xlink:href="#a" transform="rotate(235.969 52.348 -20.09)scale(.0079)"/><use xlink:href="#a" transform="rotate(224.364 52.589 -14.17)scale(.00914)"/><use xlink:href="#a" transform="rotate(207.451 53.087 -5.724)scale(.01333)"/><use xlink:href="#a" transform="rotate(213.723 54.227 -8.992)scale(.01063)"/><use xlink:href="#a" transform="rotate(185.388 53.703 4.086)scale(.00901)"/><use xlink:href="#a" transform="rotate(39.99 40.291 151.581)scale(.01002)"/><use xlink:href="#a" transform="rotate(-5.11 179.166 -1195.696)scale(.00643)"/><use xlink:href="#a" transform="rotate(6.047 -42.887 1028.867)scale(.01183)"/><use xlink:href="#a" transform="rotate(-99.007 61.485 -39.504)scale(.01186)"/><use xlink:href="#a" transform="rotate(111.983 54.499 45.513)scale(.01464)"/><use xlink:href="#a" transform="rotate(-71.958 66.884 -71.761)scale(.00601)"/><use xlink:href="#a" transform="rotate(-24.563 87.356 -258.157)scale(.00701)"/><use xlink:href="#a" transform="rotate(35.945 39.434 187.49)scale(.00547)"/><use xlink:href="#a" transform="rotate(-39.633 77.903 -155.826)scale(.00592)"/><use xlink:href="#a" transform="rotate(164.466 60.048 16.095)scale(.01072)"/><use xlink:href="#a" transform="rotate(23.077 27.866 302.776)scale(.00553)"/><use xlink:href="#a" transform="rotate(74.898 52.51 87.118)scale(.0057)"/><use xlink:href="#a" transform="rotate(129.686 59.714 37.062)scale(.01148)"/><use xlink:href="#a" transform="rotate(44.126 46.159 161.269)scale(.00843)"/><use xlink:href="#a" transform="rotate(19.883 22.66 366.23)scale(.0068)"/><use xlink:href="#a" transform="rotate(128.703 60.701 38.785)scale(.00577)"/><use xlink:href="#a" transform="rotate(-94.597 71.9 -49.848)scale(.00946)"/><use xlink:href="#a" transform="rotate(216.179 68.04 -12.514)scale(.00621)"/><use xlink:href="#a" transform="rotate(111.538 60.656 53.055)scale(.00567)"/><use xlink:href="#a" transform="matrix(.00612 0 0 .00612 131.019 15.773)"/><use xlink:href="#a" transform="rotate(253.71 72.998 -40.47)scale(.0068)"/><use xlink:href="#a" transform="rotate(248.581 73.544 -35.537)scale(.01353)"/><use xlink:href="#a" transform="rotate(-62.754 82 -100.794)scale(.01274)"/><use xlink:href="#a" transform="rotate(28.412 38.385 280.6)scale(.00812)"/><use xlink:href="#a" transform="rotate(108.136 64.307 59.618)scale(.00563)"/><use xlink:href="#a" transform="rotate(-9.64 166.766 -818.192)scale(.00845)"/><use xlink:href="#a" transform="rotate(83.303 62.27 88.68)scale(.00611)"/><use xlink:href="#a" transform="rotate(-96.168 79.634 -54.232)scale(.0089)"/><use xlink:href="#a" transform="rotate(215.089 76.268 -12.617)scale(.01452)"/><use xlink:href="#a" transform="rotate(177.275 73.81 10.897)scale(.00574)"/><use xlink:href="#a" transform="rotate(161.747 73.656 21.419)scale(.00951)"/><use xlink:href="#a" transform="rotate(87.206 67.854 87.496)scale(.01157)"/><use xlink:href="#a" transform="rotate(-38.961 99.35 -203.125)scale(.00831)"/><use xlink:href="#a" transform="rotate(64.897 65.963 128.943)scale(.01388)"/><use xlink:href="#a" transform="rotate(200.148 79.833 -4.303)scale(.00842)"/><use xlink:href="#a" transform="rotate(8.053 -32.733 1112.909)scale(.01034)"/><use xlink:href="#a" transform="rotate(191.688 81.3 1.807)scale(.01275)"/><use xlink:href="#a" transform="rotate(-3.231 376.468 -2818.742)scale(.00597)"/><use xlink:href="#a" transform="rotate(196.437 82.618 -2.215)scale(.00773)"/><use xlink:href="#a" transform="rotate(50.409 66.751 181.116)scale(.0138)"/><use xlink:href="#a" transform="rotate(205.361 85.395 -8.73)scale(.01078)"/><use xlink:href="#a" transform="rotate(153.676 82.725 29.102)scale(.01118)"/><use xlink:href="#a" transform="rotate(116.121 79.825 61.636)scale(.00677)"/><use xlink:href="#a" transform="rotate(-49.262 103.052 -173.992)scale(.01157)"/><use xlink:href="#a" transform="rotate(157.422 84.757 26.265)scale(.00605)"/><use xlink:href="#a" transform="rotate(142.945 84.934 38.344)scale(.01118)"/><use xlink:href="#a" transform="rotate(-3.777 336.024 -2622.468)scale(.00774)"/><use xlink:href="#a" transform="rotate(150.022 86.462 32.703)scale(.00727)"/><use xlink:href="#a" transform="rotate(-45.272 108.758 -201.969)scale(.00635)"/><use xlink:href="#a" transform="rotate(1.416 -527.377 7158.395)scale(.01292)"/><use xlink:href="#a" transform="rotate(85.82 81.724 105.745)scale(.00569)"/><use xlink:href="#a" transform="rotate(7.071 -35.843 1466.273)scale(.01013)"/><use xlink:href="#a" transform="rotate(227.467 95.884 -30.438)scale(.00882)"/><use xlink:href="#a" transform="rotate(61.886 80.846 162.408)scale(.0131)"/><use xlink:href="#a" transform="rotate(216.012 96.545 -20.821)scale(.00617)"/><use xlink:href="#a" transform="rotate(172.646 94.137 15.4)scale(.00856)"/><use xlink:href="#a" transform="rotate(28.769 63.29 376.004)scale(.00767)"/><use xlink:href="#a" transform="rotate(189.179 96.884 2.119)scale(.01055)"/><use xlink:href="#a" transform="rotate(142.151 93.784 41.951)scale(.00614)"/><use xlink:href="#a" transform="rotate(168.164 96.274 19.187)scale(.00637)"/><use xlink:href="#a" transform="rotate(140.124 94.557 44.284)scale(.00565)"/><use xlink:href="#a" transform="rotate(10.832 10.931 1033.206)scale(.00673)"/><use xlink:href="#a" transform="rotate(50.05 83.411 218.435)scale(.01416)"/><use xlink:href="#a" transform="rotate(128.269 96.067 57.302)scale(.00761)"/><use xlink:href="#a" transform="rotate(188.83 101.262 1.717)scale(.0075)"/><use xlink:href="#a" transform="rotate(235.306 105.792 -42.673)scale(.01106)"/><use xlink:href="#a" transform="rotate(168.791 101.134 19.174)scale(.00564)"/><use xlink:href="#a" transform="rotate(14.066 37.192 831.292)scale(.00842)"/><use xlink:href="#a" transform="rotate(-16.25 161.022 -705.974)scale(.00715)"/><use xlink:href="#a" transform="rotate(60.222 91.643 186.587)scale(.01382)"/><use xlink:href="#a" transform="rotate(190.476 106.478 .41)scale(.01295)"/><use xlink:href="#a" transform="rotate(-42.083 127.006 -262.51)scale(.01212)"/><use xlink:href="#a" transform="rotate(14.083 44.151 866.31)scale(.01165)"/><use xlink:href="#a" transform="rotate(-34.407 134.69 -336.351)scale(.0057)"/><use xlink:href="#a" transform="rotate(15.167 47.263 816.304)scale(.00638)"/><use xlink:href="#a" transform="rotate(195.472 110.11 -5.465)scale(.00621)"/><use xlink:href="#a" transform="rotate(254.728 115.846 -73.413)scale(.00838)"/><use xlink:href="#a" transform="rotate(21.079 72.56 594.486)scale(.01424)"/><use xlink:href="#a" transform="rotate(-73.472 121.664 -139.026)scale(.0065)"/><use xlink:href="#a" transform="rotate(121.865 108.505 70.436)scale(.01107)"/><use xlink:href="#a" transform="rotate(231.89 116.34 -45.963)scale(.0067)"/><use xlink:href="#a" transform="matrix(.01 -.0011 .0011 .01 224.041 13.772)"/><use xlink:href="#a" transform="rotate(39.02 95.713 326.906)scale(.00898)"/><use xlink:href="#a" transform="rotate(-89.222 121.853 -106.612)scale(.01461)"/><use xlink:href="#a" transform="rotate(-49.686 130.088 -240.939)scale(.0056)"/><use xlink:href="#a" transform="rotate(139.264 114.005 50.237)scale(.00568)"/><use xlink:href="#a" transform="rotate(-67.35 126.203 -165.94)scale(.01148)"/><use xlink:href="#a" transform="rotate(-50.085 129.918 -241.976)scale(.01276)"/><use xlink:href="#a" transform="rotate(142.383 116.794 46.872)scale(.00546)"/><use xlink:href="#a" transform="rotate(149.255 118.395 39.339)scale(.01051)"/><use xlink:href="#a" transform="rotate(80.168 114.18 147.866)scale(.00761)"/><use xlink:href="#a" transform="rotate(118.182 118.022 77.947)scale(.00823)"/><use xlink:href="#a" transform="rotate(14.54 82.265 949.861)scale(.007)"/><use xlink:href="#a" transform="rotate(19.085 92.281 725.74)scale(.00556)"/><use xlink:href="#a" transform="rotate(79.784 116.75 150.927)scale(.00594)"/><use xlink:href="#a" transform="rotate(196.806 123.523 -12.395)scale(.00566)"/><use xlink:href="#a" transform="rotate(158.825 122.656 28.507)scale(.00718)"/><use xlink:href="#a" transform="matrix(.007 -.003 .003 .007 245.303 8.933)"/><use xlink:href="#a" transform="rotate(178.356 124.387 6.888)scale(.0055)"/><use xlink:href="#a" transform="rotate(185.196 125.216 -.594)scale(.0069)"/><use xlink:href="#a" transform="rotate(-58.778 132.206 -216.3)scale(.00576)"/><use xlink:href="#a" transform="rotate(28.932 113.767 488.894)scale(.01114)"/><use xlink:href="#a" transform="rotate(-82.485 130.9 -139.026)scale(.00624)"/><use xlink:href="#a" transform="rotate(60.595 121.633 220.627)scale(.00596)"/><use xlink:href="#a" transform="rotate(194.125 128.815 -11.091)scale(.01129)"/><use xlink:href="#a" transform="rotate(48.825 123.215 285.426)scale(.00913)"/><use xlink:href="#a" transform="rotate(148.08 129.129 40.677)scale(.00897)"/><use xlink:href="#a" transform="rotate(108.343 128.258 96.791)scale(.00545)"/><use xlink:href="#a" transform="rotate(-86.61 133.242 -133.347)scale(.01316)"/><use xlink:href="#a" transform="rotate(171.457 131.692 12.83)scale(.0076)"/><use xlink:href="#a" transform="rotate(-64.703 134.972 -204.353)scale(.00672)"/><use xlink:href="#a" transform="rotate(124.98 133.349 71.675)scale(.01427)"/><use xlink:href="#a" transform="rotate(-89.79 135.112 -131.171)scale(.00612)"/><use xlink:href="#a" transform="rotate(219.079 134.872 -45.157)scale(.00703)"/><use xlink:href="#a" transform="rotate(41.297 133.93 357.211)scale(.00952)"/><use xlink:href="#a" transform="rotate(-35.563 136.365 -416.733)scale(.0143)"/><use xlink:href="#a" transform="rotate(240.848 137.52 -77.725)scale(.01044)"/><use xlink:href="#a" transform="rotate(140.03 137.515 51.556)scale(.00672)"/><use xlink:href="#a" transform="rotate(102.224 138.25 112.904)scale(.01032)"/><use xlink:href="#a" transform="rotate(80.453 137.728 165.46)scale(.00651)"/><use xlink:href="#a" transform="rotate(122.332 138.929 78.644)scale(.00642)"/><use xlink:href="#a" transform="rotate(170.545 140.124 14.015)scale(.00706)"/><use xlink:href="#a" transform="rotate(227.165 141.61 -58.072)scale(.00877)"/><use xlink:href="#a" transform="rotate(-35.43 146.037 -435.445)scale(.01231)"/><use xlink:href="#a" transform="rotate(157.4 142.88 31.695)scale(.0123)"/><use xlink:href="#a" transform="rotate(80.135 140.83 172.419)scale(.00566)"/><use xlink:href="#a" transform="rotate(102.133 143.093 119.08)scale(.0121)"/><use xlink:href="#a" transform="rotate(-92.633 147.255 -133.773)scale(.00682)"/><use xlink:href="#a" transform="rotate(-58.34 149.908 -254.249)scale(.01151)"/><use xlink:href="#a" transform="rotate(114.915 145.757 97.034)scale(.0132)"/><use xlink:href="#a" transform="rotate(149.353 146.932 44.434)scale(.00875)"/><use xlink:href="#a" transform="rotate(111.378 146.642 104.984)scale(.01062)"/><use xlink:href="#a" transform="rotate(75.944 145.224 194.149)scale(.00898)"/><use xlink:href="#a" transform="rotate(167.228 149.627 21.574)scale(.00882)"/><use xlink:href="#a" transform="rotate(26.768 137.464 632.217)scale(.01307)"/><use xlink:href="#a" transform="rotate(-32.343 164.705 -512.253)scale(.01246)"/><use xlink:href="#a" transform="rotate(-82.695 157.322 -166.798)scale(.0069)"/><use xlink:href="#a" transform="rotate(-34.292 166.954 -486.205)scale(.01084)"/><use xlink:href="#a" transform="rotate(253.858 157.367 -109.348)scale(.00622)"/><use xlink:href="#a" transform="rotate(225.132 156.537 -57.785)scale(.00765)"/><use xlink:href="#a" transform="rotate(-43.468 167.43 -380.424)scale(.00612)"/><use xlink:href="#a" transform="rotate(33.02 141.384 527.09)scale(.01282)"/><use xlink:href="#a" transform="rotate(19.532 127.082 909.769)scale(.00864)"/><use xlink:href="#a" transform="rotate(130.29 155.15 79.073)scale(.00878)"/><use xlink:href="#a" transform="rotate(156.096 157.62 40.381)scale(.01214)"/><use xlink:href="#a" transform="rotate(-38.043 175.63 -450.09)scale(.01142)"/><use xlink:href="#a" transform="rotate(79.648 152.66 197.552)scale(.00572)"/><use xlink:href="#a" transform="rotate(17.009 124.498 1071.483)scale(.01412)"/><use xlink:href="#a" transform="rotate(60.476 150.45 282.833)scale(.00638)"/><use xlink:href="#a" transform="rotate(44.176 146.651 404.32)scale(.00838)"/><use xlink:href="#a" transform="rotate(107.23 158.473 127.127)scale(.01013)"/><use xlink:href="#a" transform="rotate(124.816 161.06 93.33)scale(.01309)"/><use xlink:href="#a" transform="rotate(-59.262 177.311 -279.307)scale(.0059)"/><use xlink:href="#a" transform="rotate(20.878 126.994 898.443)scale(.0087)"/><use xlink:href="#a" transform="rotate(74.288 156.73 226.201)scale(.01037)"/><use xlink:href="#a" transform="rotate(-35.998 189.08 -499.415)scale(.01408)"/><use xlink:href="#a" transform="rotate(255.353 173.901 -119.743)scale(.0074)"/><use xlink:href="#a" transform="rotate(108.102 163.486 130.761)scale(.0116)"/><use xlink:href="#a" transform="rotate(104.513 163.288 139.87)scale(.01414)"/><use xlink:href="#a" transform="rotate(203.289 170.345 -23.99)scale(.00652)"/><use xlink:href="#a" transform="rotate(-5.386 373.09 -3528.117)scale(.0128)"/><use xlink:href="#a" transform="rotate(73.538 153.223 235.03)scale(.00677)"/><use xlink:href="#a" transform="rotate(-70.268 183.749 -224.086)scale(.00651)"/><use xlink:href="#a" transform="rotate(136.085 163.266 80.752)scale(.01446)"/><use xlink:href="#a" transform="rotate(195.093 168.832 -7.431)scale(.00957)"/><use xlink:href="#a" transform="rotate(16.285 73.508 1167.086)scale(.01458)"/><use xlink:href="#a" transform="rotate(139.866 161.057 76.66)scale(.01094)"/><use xlink:href="#a" transform="rotate(-74.132 186.856 -200.411)scale(.01043)"/><use xlink:href="#a" transform="rotate(52.445 132.8 351.46)scale(.01195)"/><use xlink:href="#a" transform="rotate(107.309 153.104 139.87)scale(.01322)"/><use xlink:href="#a" transform="rotate(178.785 165.185 22.019)scale(.01124)"/><use xlink:href="#a" transform="rotate(175.398 164.608 28.158)scale(.01464)"/><use xlink:href="#a" transform="rotate(192.87 167.081 3.842)scale(.01017)"/><use xlink:href="#a" transform="rotate(202.803 168.714 -10.274)scale(.00678)"/><use xlink:href="#a" transform="rotate(-93.179 185.125 -131.365)scale(.00576)"/><use xlink:href="#a" transform="rotate(243.223 178.2 -76.397)scale(.00856)"/><use xlink:href="#a" transform="rotate(49.293 113.171 379.613)scale(.0055)"/><use xlink:href="#a" transform="rotate(214.484 171.365 -25.704)scale(.00687)"/><use xlink:href="#a" transform="rotate(-36.036 238.594 -475.295)scale(.00671)"/><use xlink:href="#a" transform="rotate(42.957 101.869 439.289)scale(.0124)"/><use xlink:href="#a" transform="rotate(60.377 119.566 307.01)scale(.00699)"/><use xlink:href="#a" transform="rotate(159.471 159.402 57.356)scale(.00932)"/><use xlink:href="#a" transform="rotate(79.56 131.43 223.963)scale(.00832)"/><use xlink:href="#a" transform="rotate(35.58 78.495 535.58)scale(.0142)"/><use xlink:href="#a" transform="rotate(-36.12 253.144 -468.08)scale(.01214)"/><use xlink:href="#a" transform="rotate(-23.588 308.279 -750.065)scale(.00773)"/><use xlink:href="#a" transform="rotate(-96.635 192.22 -112.284)scale(.01402)"/><use xlink:href="#a" transform="rotate(168.878 162.107 49.149)scale(.00923)"/><use xlink:href="#a" transform="rotate(194.57 169.82 13.322)scale(.01182)"/><use xlink:href="#a" transform="rotate(133.714 151.436 105.113)scale(.00974)"/><use xlink:href="#a" transform="rotate(18.357 -45.605 1054.097)scale(.00779)"/><use xlink:href="#a" transform="rotate(-17.324 394.113 -1044.425)scale(.00938)"/><use xlink:href="#a" transform="rotate(54.315 97.375 358.311)scale(.01064)"/><use xlink:href="#a" transform="rotate(55.223 97.258 353.668)scale(.00922)"/><use xlink:href="#a" transform="rotate(-35.93 281.242 -472.055)scale(.0075)"/><use xlink:href="#a" transform="rotate(-83.926 208.916 -145.438)scale(.00732)"/><use xlink:href="#a" transform="rotate(135.976 151.419 106.443)scale(.00563)"/><use xlink:href="#a" transform="rotate(-63.602 229.808 -227.141)scale(.01013)"/><use xlink:href="#a" transform="rotate(138.989 152.813 103.09)scale(.00846)"/><use xlink:href="#a" transform="rotate(-85.88 211.12 -136.421)scale(.01216)"/><use xlink:href="#a" transform="rotate(-96.885 204.784 -104.375)scale(.01275)"/><use xlink:href="#a" transform="rotate(214.768 181.727 -8.72)scale(.0088)"/><use xlink:href="#a" transform="rotate(94.9 129.657 197.975)scale(.01128)"/><use xlink:href="#a" transform="rotate(71.66 108.344 277.292)scale(.00796)"/><use xlink:href="#a" transform="rotate(210.4 181.751 1.101)scale(.01477)"/><use xlink:href="#a" transform="rotate(65.76 98.986 304.772)scale(.0056)"/><use xlink:href="#a" transform="rotate(44.924 59.368 449.634)scale(.00549)"/><use xlink:href="#a" transform="rotate(-7.08 882.76 -2632.745)scale(.01202)"/><use xlink:href="#a" transform="rotate(-60.407 242.935 -238.27)scale(.00728)"/><use xlink:href="#a" transform="rotate(-32.903 314.002 -509.028)scale(.01407)"/><use xlink:href="#a" transform="rotate(183.534 166.089 40.202)scale(.00653)"/><use xlink:href="#a" transform="rotate(239.731 189.496 -48.267)scale(.0079)"/><use xlink:href="#a" transform="rotate(128.245 142.364 124.042)scale(.00929)"/><use xlink:href="#a" transform="rotate(249.611 193.23 -66.655)scale(.01075)"/><use xlink:href="#a" transform="rotate(139.68 145.94 103.908)scale(.00793)"/><use xlink:href="#a" transform="rotate(-76.96 216.067 -156.516)scale(.0076)"/><use xlink:href="#a" transform="rotate(-29.32 326.999 -564.929)scale(.00707)"/><use xlink:href="#a" transform="rotate(170.342 156.4 58.107)scale(.00768)"/><use xlink:href="#a" transform="rotate(-67.774 223.733 -190.506)scale(.00936)"/><use xlink:href="#a" transform="rotate(68.787 95.483 274.471)scale(.0074)"/><use xlink:href="#a" transform="rotate(-74.01 215.034 -163.05)scale(.01025)"/><use xlink:href="#a" transform="rotate(128.742 136.85 119.017)scale(.00989)"/><use xlink:href="#a" transform="rotate(-31.627 306.23 -500.567)scale(.01355)"/><use xlink:href="#a" transform="rotate(51.738 67.767 361.28)scale(.00931)"/><use xlink:href="#a" transform="rotate(38.758 33.671 479.622)scale(.00728)"/><use xlink:href="#a" transform="rotate(97.76 116.664 177.04)scale(.00579)"/><use xlink:href="#a" transform="rotate(-84.854 199.62 -122.464)scale(.00985)"/><use xlink:href="#a" transform="rotate(223.194 169.373 -15.621)scale(.01439)"/><use xlink:href="#a" transform="rotate(-64.066 218.699 -197.267)scale(.00609)"/><use xlink:href="#a" transform="rotate(-45.538 250 -311.207)scale(.0135)"/><use xlink:href="#a" transform="rotate(125.334 128.798 119.924)scale(.01378)"/><use xlink:href="#a" transform="rotate(8.945 -376.67 1920.408)scale(.01288)"/><use xlink:href="#a" transform="rotate(-71.221 205.14 -160.309)scale(.01288)"/><use xlink:href="#a" transform="rotate(132.374 128.63 106.75)scale(.01072)"/><use xlink:href="#a" transform="rotate(174.85 143.807 48.79)scale(.00638)"/><use xlink:href="#a" transform="rotate(147.789 133.678 84.215)scale(.01347)"/><use xlink:href="#a" transform="rotate(45.783 46.878 380.807)scale(.00565)"/><use xlink:href="#a" transform="rotate(-27.757 308.53 -532.996)scale(.00932)"/><use xlink:href="#a" transform="rotate(9.172 -356.377 1797.307)scale(.0145)"/><use xlink:href="#a" transform="rotate(102.735 109.67 153.925)scale(.01118)"/><use xlink:href="#a" transform="rotate(22.435 -61.575 743.916)scale(.00951)"/><use xlink:href="#a" transform="rotate(-98.559 174.565 -77.911)scale(.00759)"/><use xlink:href="#a" transform="rotate(208.967 149.712 5.895)scale(.00876)"/><use xlink:href="#a" transform="rotate(241.601 162.47 -40.797)scale(.00635)"/><use xlink:href="#a" transform="rotate(118.094 114.218 123.207)scale(.00793)"/><use xlink:href="#a" transform="rotate(29.612 -12.933 556.248)scale(.00773)"/><use xlink:href="#a" transform="rotate(-81.185 182.985 -116.168)scale(.01173)"/><use xlink:href="#a" transform="rotate(-86.21 177.826 -101.634)scale(.0136)"/><use xlink:href="#a" transform="rotate(6.362 -573.507 2440.96)scale(.00819)"/><use xlink:href="#a" transform="rotate(-16.123 407.115 -890.274)scale(.01477)"/><use xlink:href="#a" transform="rotate(-26.005 301.865 -529.477)scale(.00772)"/><use xlink:href="#a" transform="rotate(102.851 100.868 144.8)scale(.00633)"/><use xlink:href="#a" transform="rotate(167.628 127.384 54.257)scale(.00639)"/><use xlink:href="#a" transform="rotate(105.023 101.424 139.69)scale(.0078)"/><use xlink:href="#a" transform="rotate(82.727 86.433 186.824)scale(.00656)"/><use xlink:href="#a" transform="rotate(178.12 129.302 42.041)scale(.00721)"/><use xlink:href="#a" transform="rotate(-39.152 237.798 -320.594)scale(.00735)"/><use xlink:href="#a" transform="rotate(-54.591 202.995 -206.99)scale(.00906)"/><use xlink:href="#a" transform="rotate(.557 -7725.994 26046.634)scale(.01036)"/><use xlink:href="#a" transform="rotate(192.53 131.307 25.58)scale(.00603)"/><use xlink:href="#a" transform="rotate(9.828 -312.069 1491.277)scale(.01274)"/><use xlink:href="#a" transform="rotate(93.01 89.856 157.436)scale(.0127)"/><use xlink:href="#a" transform="rotate(-80.135 170.028 -106.455)scale(.00986)"/><use xlink:href="#a" transform="rotate(21.792 -75.936 676.443)scale(.00666)"/><use xlink:href="#a" transform="rotate(147.433 111.828 75.262)scale(.00572)"/><use xlink:href="#a" transform="rotate(111.145 96.23 123.011)scale(.0066)"/><use xlink:href="#a" transform="rotate(179.233 121.932 40.767)scale(.0081)"/><use xlink:href="#a" transform="rotate(173.959 119.57 46.418)scale(.01031)"/><use xlink:href="#a" transform="rotate(4.235 -931.065 3272.516)scale(.00675)"/><use xlink:href="#a" transform="rotate(227.223 137.06 -11.338)scale(.0114)"/><use xlink:href="#a" transform="rotate(-.192 23309.603 -70271.424)scale(.00628)"/><use xlink:href="#a" transform="rotate(130.712 101.136 94.188)scale(.01254)"/><use xlink:href="#a" transform="rotate(29.644 -28.794 478.477)scale(.0117)"/><use xlink:href="#a" transform="rotate(-18.29 360.226 -677.749)scale(.00586)"/><use xlink:href="#a" transform="rotate(-54.715 191.232 -180.182)scale(.01201)"/><use xlink:href="#a" transform="rotate(199.581 122.048 21.507)scale(.0136)"/><use xlink:href="#a" transform="rotate(-97.842 148.143 -56.912)scale(.01162)"/><use xlink:href="#a" transform="rotate(167.438 108.59 52.826)scale(.0056)"/><use xlink:href="#a" transform="rotate(149.339 101.762 71.348)scale(.00807)"/><use xlink:href="#a" transform="rotate(245.764 137.495 -30.848)scale(.00666)"/><use xlink:href="#a" transform="rotate(182.547 112.412 38.948)scale(.01212)"/><use xlink:href="#a" transform="rotate(-40.92 217.073 -252.173)scale(.00587)"/><use xlink:href="#a" transform="rotate(50.682 25.576 270.652)scale(.00599)"/><use xlink:href="#a" transform="rotate(-59.752 178.872 -147.111)scale(.00735)"/><use xlink:href="#a" transform="rotate(176.737 107.874 44.79)scale(.01359)"/><use xlink:href="#a" transform="rotate(38.675 -6.244 344.44)scale(.00713)"/><use xlink:href="#a" transform="rotate(-87.92 148.567 -68.41)scale(.00748)"/><use xlink:href="#a" transform="rotate(23.389 -84.936 546.321)scale(.01405)"/><use xlink:href="#a" transform="rotate(10.661 -326.998 1158.601)scale(.00556)"/><use xlink:href="#a" transform="rotate(-91.813 143.757 -58.396)scale(.00939)"/><use xlink:href="#a" transform="rotate(199.627 111.053 24.09)scale(.00934)"/><use xlink:href="#a" transform="matrix(.01142 -.00536 .00536 .01142 202.058 81.13)"/><use xlink:href="#a" transform="rotate(83.191 57.067 155.339)scale(.01195)"/><use xlink:href="#a" transform="rotate(-87.726 143.58 -62.53)scale(.00558)"/><use xlink:href="#a" transform="rotate(176.994 99.686 44.614)scale(.00785)"/><use xlink:href="#a" transform="rotate(193.68 104.924 29.969)scale(.00608)"/><use xlink:href="#a" transform="rotate(178.918 99.2 43.036)scale(.00744)"/><use xlink:href="#a" transform="rotate(89.871 58.738 139.904)scale(.0139)"/><use xlink:href="#a" transform="rotate(-2.308 2126.929 -4751.92)scale(.00755)"/><use xlink:href="#a" transform="rotate(226.624 114.805 .612)scale(.00592)"/><use xlink:href="#a" transform="rotate(213.231 109.056 14.598)scale(.01354)"/><use xlink:href="#a" transform="rotate(8.082 -488.619 1379.728)scale(.0065)"/><use xlink:href="#a" transform="rotate(167.225 90.452 53.082)scale(.00814)"/><use xlink:href="#a" transform="rotate(159.029 86.867 59.907)scale(.01013)"/><use xlink:href="#a" transform="rotate(223.399 109.978 5.81)scale(.00689)"/><use xlink:href="#a" transform="rotate(237.507 115.628 -8.051)scale(.00548)"/><use xlink:href="#a" transform="rotate(253.495 123.51 -25.754)scale(.0056)"/><use xlink:href="#a" transform="rotate(-15.199 404.455 -639.353)scale(.006)"/><use xlink:href="#a" transform="rotate(61.784 21.815 193.939)scale(.00616)"/><use xlink:href="#a" transform="rotate(6.4 -655.117 1653.097)scale(.0055)"/><use xlink:href="#a" transform="rotate(-19.578 332.533 -476.275)scale(.00585)"/><use xlink:href="#a" transform="rotate(-5.112 1016.853 -1933.865)scale(.0124)"/><use xlink:href="#a" transform="rotate(39.053 -28.608 290.622)scale(.00755)"/><use xlink:href="#a" transform="rotate(27.29 -81.914 399.986)scale(.01313)"/><use xlink:href="#a" transform="rotate(-34.116 223.751 -237.08)scale(.00831)"/><use xlink:href="#a" transform="rotate(140.158 71.815 74.577)scale(.01346)"/><use xlink:href="#a" transform="rotate(-85.347 130.862 -46.59)scale(.01438)"/><use xlink:href="#a" transform="rotate(-28.992 248.228 -278.924)scale(.00584)"/><use xlink:href="#a" transform="rotate(226.325 101.992 8.61)scale(.01022)"/><use xlink:href="#a" transform="rotate(170.094 79.384 50.74)scale(.00838)"/><use xlink:href="#a" transform="rotate(47.763 -13.062 226.468)scale(.00938)"/><use xlink:href="#a" transform="rotate(158.78 73.764 59.094)scale(.01095)"/><use xlink:href="#a" transform="rotate(222.598 97.333 13.768)scale(.0134)"/><use xlink:href="#a" transform="rotate(173.254 77.028 48.705)scale(.00791)"/><use xlink:href="#a" transform="rotate(151.404 67.92 63.82)scale(.00682)"/><use xlink:href="#a" transform="rotate(-81.967 127.24 -43.02)scale(.01453)"/><use xlink:href="#a" transform="rotate(92.904 36.25 116.326)scale(.00724)"/><use xlink:href="#a" transform="rotate(-95.046 115.881 -25.052)scale(.00576)"/><use xlink:href="#a" transform="rotate(134.63 58.29 75.745)scale(.01126)"/><use xlink:href="#a" transform="rotate(4.956 -917.681 1743.672)scale(.01033)"/><use xlink:href="#a" transform="rotate(147.781 61.956 65.705)scale(.01072)"/><use xlink:href="#a" transform="rotate(185.038 75.271 41.438)scale(.0082)"/><use xlink:href="#a" transform="rotate(11.185 -369.654 773.97)scale(.00762)"/><use xlink:href="#a" transform="rotate(59.253 -4.117 169.036)scale(.0088)"/><use xlink:href="#a" transform="rotate(205.313 81.022 28.778)scale(.00547)"/><use xlink:href="#a" transform="rotate(-86.002 117.422 -29.496)scale(.0093)"/><use xlink:href="#a" transform="rotate(137.464 53.14 71.732)scale(.00818)"/><use xlink:href="#a" transform="rotate(-3.739 1405.382 -2036.665)scale(.00936)"/><use xlink:href="#a" transform="rotate(-60.587 143.638 -70.76)scale(.00617)"/><use xlink:href="#a" transform="rotate(-95.016 108.24 -16.555)scale(.00602)"/><use xlink:href="#a" transform="rotate(113.277 38.662 88.81)scale(.00663)"/><use xlink:href="#a" transform="rotate(10.224 -425.47 783.617)scale(.00557)"/><use xlink:href="#a" transform="rotate(-22.23 291.07 -288.136)scale(.00663)"/><use xlink:href="#a" transform="rotate(188.506 69.247 40.18)scale(.00554)"/><use xlink:href="#a" transform="rotate(-16.786 364.59 -391.539)scale(.0069)"/><use xlink:href="#a" transform="rotate(140.57 49.666 68.415)scale(.01371)"/><use xlink:href="#a" transform="rotate(2.287 -2129.144 3152.215)scale(.01279)"/><use xlink:href="#a" transform="rotate(84.594 13.922 113.316)scale(.00555)"/><use xlink:href="#a" transform="rotate(237.758 86.8 11.53)scale(.00555)"/><use xlink:href="#a" transform="rotate(-84.43 110.79 -21.033)scale(.00844)"/><use xlink:href="#a" transform="rotate(216.993 76.085 25.878)scale(.0097)"/><use xlink:href="#a" transform="rotate(-10.056 562.026 -619.482)scale(.01247)"/><use xlink:href="#a" transform="rotate(200.855 67.724 35.772)scale(.01182)"/><use xlink:href="#a" transform="rotate(41.154 -61.12 198.472)scale(.00717)"/><use xlink:href="#a" transform="rotate(81.798 6.263 111.292)scale(.00893)"/><use xlink:href="#a" transform="rotate(169.795 52.99 50.823)scale(.0056)"/><use xlink:href="#a" transform="rotate(145.975 43.12 62.857)scale(.00945)"/><use xlink:href="#a" transform="rotate(51.635 -35.974 158.569)scale(.00772)"/><use xlink:href="#a" transform="rotate(211.387 67.652 30.243)scale(.00656)"/><use xlink:href="#a" transform="rotate(-47.716 154.42 -75.474)scale(.0077)"/><use xlink:href="#a" transform="rotate(-49.254 149.587 -68.685)scale(.01116)"/><use xlink:href="#a" transform="rotate(55.172 -30.976 144.652)scale(.00645)"/><use xlink:href="#a" transform="rotate(232.124 73.985 20.693)scale(.01387)"/><use xlink:href="#a" transform="rotate(211.74 63.89 30.583)scale(.00998)"/><use xlink:href="#a" transform="rotate(-13.595 412.766 -368.75)scale(.00902)"/><use xlink:href="#a" transform="rotate(73.931 -7.014 108.962)scale(.00923)"/><use xlink:href="#a" transform="rotate(166.65 44.158 49.775)scale(.00692)"/><use xlink:href="#a" transform="rotate(225.848 66.76 23.932)scale(.00668)"/><use xlink:href="#a" transform="rotate(15.95 -251.84 372.855)scale(.01465)"/><use xlink:href="#a" transform="rotate(46.315 -51.276 149.83)scale(.01053)"/><use xlink:href="#a" transform="rotate(76.941 -7.264 100.003)scale(.0066)"/><use xlink:href="#a" transform="rotate(18.464 -210.274 312.959)scale(.01195)"/><use xlink:href="#a" transform="rotate(178.371 43.975 43.642)scale(.00726)"/><use xlink:href="#a" transform="rotate(83.838 -2.666 90.672)scale(.00674)"/><use xlink:href="#a" transform="rotate(106.03 12.477 74.53)scale(.01028)"/><use xlink:href="#a" transform="rotate(-68.32 103.712 -18.885)scale(.00557)"/><use xlink:href="#a" transform="rotate(113.782 15.6 69.213)scale(.01129)"/><use xlink:href="#a" transform="rotate(211.923 52.971 30.837)scale(.00711)"/><use xlink:href="#a" transform="rotate(-17.893 297.134 -202.787)scale(.01394)"/><use xlink:href="#a" transform="rotate(-70.333 96.552 -10.698)scale(.0147)"/><use xlink:href="#a" transform="rotate(-66.164 100.457 -15.848)scale(.0057)"/><use xlink:href="#a" transform="rotate(180.456 38.312 41.768)scale(.01386)"/><use xlink:href="#a" transform="rotate(17.735 -215.17 264.6)scale(.0137)"/><use xlink:href="#a" transform="rotate(177.475 34.895 41.95)scale(.01044)"/><use xlink:href="#a" transform="rotate(211.657 46.074 31.802)scale(.01235)"/><use xlink:href="#a" transform="rotate(259.156 66.275 13.368)scale(.00647)"/><use xlink:href="#a" transform="rotate(5.05 -858.192 772.37)scale(.0056)"/><use xlink:href="#a" transform="rotate(180.763 33.364 40.642)scale(.0146)"/><use xlink:href="#a" transform="rotate(174.526 29.767 41.573)scale(.00764)"/><use xlink:href="#a" transform="rotate(117.195 7.187 58.154)scale(.00577)"/><use xlink:href="#a" transform="rotate(-39.173 138.486 -41.712)scale(.00954)"/><use xlink:href="#a" transform="rotate(-15.295 313.625 -169.993)scale(.0105)"/><use xlink:href="#a" transform="rotate(136.006 13.384 50.609)scale(.00628)"/><use xlink:href="#a" transform="rotate(-84.053 70.837 10.444)scale(.0119)"/><use xlink:href="#a" transform="rotate(168.83 23.715 42.403)scale(.00814)"/><use xlink:href="#a" transform="rotate(-54.816 101.374 -8.563)scale(.0098)"/><use xlink:href="#a" transform="rotate(216.39 38.943 32.74)scale(.0121)"/><use xlink:href="#a" transform="rotate(24.829 -150.886 145.947)scale(.01347)"/><use xlink:href="#a" transform="rotate(112.756 -2.474 55.959)scale(.00601)"/><use xlink:href="#a" transform="rotate(65.915 -37.582 75.187)scale(.00816)"/><use xlink:href="#a" transform="rotate(196.017 28.587 38.647)scale(.01357)"/><use xlink:href="#a" transform="rotate(105.694 -8.277 56.96)scale(.01166)"/><use xlink:href="#a" transform="rotate(-39.956 131.178 -10.597)scale(.01127)"/><use xlink:href="#a" transform="rotate(-32.812 156.892 -18.309)scale(.01382)"/><use xlink:href="#a" transform="rotate(-3.71 1269.832 -476.246)scale(.0137)"/><use xlink:href="#a" transform="rotate(96.05 -19.474 57.41)scale(.00742)"/><use xlink:href="#a" transform="rotate(40.967 -93.445 84.822)scale(.00898)"/><use xlink:href="#a" transform="rotate(256.69 49.21 31.191)scale(.00928)"/><use xlink:href="#a" transform="rotate(91.54 -24.486 57.022)scale(.01312)"/><use xlink:href="#a" transform="rotate(94.672 -24.088 55.71)scale(.0092)"/><use xlink:href="#a" transform="rotate(-84.398 60.518 29.94)scale(.00858)"/><use xlink:href="#a" transform="rotate(-38.35 134.537 12.164)scale(.0135)"/><use xlink:href="#a" transform="rotate(69.048 -49.536 59.519)scale(.01237)"/><use xlink:href="#a" transform="rotate(254.337 43.777 37.632)scale(.01118)"/><use xlink:href="#a" transform="rotate(224.379 27.81 40.69)scale(.00596)"/><use xlink:href="#a" transform="rotate(213.216 22.738 42.786)scale(.01218)"/><use xlink:href="#a" transform="rotate(161.248 1.613 46.448)scale(.00957)"/><use xlink:href="#a" transform="rotate(-28.49 180.524 20.59)scale(.01078)"/><use xlink:href="#a" transform="rotate(163.596 1.067 46.836)scale(.01418)"/><use xlink:href="#a" transform="rotate(31.64 -151.103 62.32)scale(.00815)"/><use xlink:href="#a" transform="rotate(112.838 -24.503 48.539)scale(.00577)"/><use xlink:href="#a" transform="rotate(22.71 -215.937 61.902)scale(.01176)"/><use xlink:href="#a" transform="rotate(-80.233 56.892 40.937)scale(.00665)"/><use xlink:href="#a" transform="rotate(29.803 -158.91 57.542)scale(.00661)"/><use xlink:href="#a" transform="rotate(14.317 -337.974 72.125)scale(.00599)"/><use xlink:href="#a" transform="rotate(-2.769 1724.353 -72.627)scale(.01374)"/><use xlink:href="#a" transform="rotate(155.444 -4.622 43.118)scale(.00602)"/><use xlink:href="#a" transform="rotate(121.152 -18.091 43.73)scale(.01045)"/><use xlink:href="#a" transform="rotate(109.272 -23.472 43.24)scale(.0102)"/><use xlink:href="#a" transform="rotate(-44.414 98.797 33.942)scale(.0114)"/><use xlink:href="#a" transform="rotate(133.602 -11.545 40.564)scale(.01226)"/><use xlink:href="#a" transform="rotate(107.012 -22.877 40.331)scale(.01)"/><use xlink:href="#a" transform="rotate(109.597 -21.571 39.3)scale(.00817)"/><use xlink:href="#a" transform="rotate(60.548 -57.305 41.337)scale(.00653)"/><use xlink:href="#a" transform="rotate(163.544 -1.38 36.55)scale(.0056)"/><use xlink:href="#a" transform="rotate(218.003 15.673 34.934)scale(.0081)"/><use xlink:href="#a" transform="rotate(259.665 31.93 32.998)scale(.00714)"/><use xlink:href="#a" transform="rotate(153.548 -3.383 35.233)scale(.01457)"/><use xlink:href="#a" transform="rotate(142.776 -7.596 34.024)scale(.00547)"/><use xlink:href="#a" transform="rotate(204.165 10.316 32.58)scale(.01065)"/><use xlink:href="#a" transform="rotate(230.18 17.88 31.36)scale(.01263)"/><use xlink:href="#a" transform="rotate(236.243 19.174 30.254)scale(.0124)"/><use xlink:href="#a" transform="rotate(118.309 -13.071 30.955)scale(.0137)"/><use xlink:href="#a" transform="rotate(18.186 -164.87 38.288)scale(.01194)"/><use xlink:href="#a" transform="rotate(-49.153 60.343 24.71)scale(.01027)"/><use xlink:href="#a" transform="rotate(-15.815 188.246 14.74)scale(.00671)"/><use xlink:href="#a" transform="rotate(79.815 -26.107 28.096)scale(.01185)"/><use xlink:href="#a" transform="rotate(252.826 20.618 24.034)scale(.00597)"/><use xlink:href="#a" transform="rotate(153.238 -2.955 25.222)scale(.00729)"/><use xlink:href="#a" transform="rotate(225.69 12.308 23.838)scale(.00909)"/><use xlink:href="#a" transform="rotate(97.75 -16.254 24.61)scale(.01066)"/><use xlink:href="#a" transform="rotate(23.538 -101.285 28.836)scale(.006)"/><use xlink:href="#a" transform="rotate(85.358 -20.08 23.395)scale(.00823)"/><use xlink:href="#a" transform="rotate(37.108 -57.979 24.848)scale(.00723)"/><use xlink:href="#a" transform="rotate(15.682 -136.75 26.09)scale(.011)"/><use xlink:href="#a" transform="rotate(-54.043 37.77 19.389)scale(.014)"/><use xlink:href="#a" transform="rotate(256.212 15.799 18.18)scale(.00783)"/><use xlink:href="#a" transform="rotate(32.592 -54.285 20.155)scale(.01036)"/><use xlink:href="#a" transform="rotate(48.523 -31.302 17.734)scale(.01424)"/><use xlink:href="#a" transform="rotate(-7.901 218.564 6.42)scale(.00649)"/><use xlink:href="#a" transform="rotate(212.005 5.874 15.37)scale(.00707)"/><use xlink:href="#a" transform="rotate(-42.295 36.459 15.132)scale(.01192)"/><defs><path id="a" fill="#2b2816" d="M215.823 333.963c0-.733.3-1.033.667-.667a.95.95 0 0 1 0 1.334c-.367.366-.667.066-.667-.667M143.424 3.977c4.632-.653 8.099 4.826 5.302 8.382-1.951 2.48-2.551 5.604-1.078 5.604.905.004 11.175 12.34 11.175 13.423 0 1.076-4.344 5.111-6.316 5.868-1.898.728-1.434 2.71.633 2.71.661 0 1.78.924 2.486 2.056 1.284 2.054 1.286 2.054 2.991.057.938-1.1 2.606-2.139 3.706-2.307s2.33-.757 2.734-1.307c.415-.565.741-.238.75.75.018 2.14.447 2.169 3.408.229 1.623-1.063 2.19-2.212 1.884-3.81-1.049-5.489 4.864-5.512 14.402-.058 5.289 3.024 5.527 3.005 7.663-.61 3.023-5.119 9.966-1.694 8.152 4.02-.515 1.623-.183 2.247 1.417 2.666 1.15.3 2.09.945 2.09 1.43.001.485.9.883 2 .883 2.405 0 2.51-.633.446-2.697-1.937-1.936-1.511-6.247.756-7.667 2.444-1.53 3.085-.336 1.976 3.68-.844 3.057-.725 3.569.927 4 1.042.274 1.895 1.215 1.895 2.09.001 2.117 3.922 2.083 5.479-.046 1.634-2.235 4.962-.366 4.996 2.806.022 2.026.585 2.375 4.275 2.641 3.903.283 4.25.113 4.25-2.089q0-2.397 2.547-3.556c5.794-2.64 9.087-.056 7.912 6.206-.627 3.341-.627 3.341 7.125 4.043 13.323 1.209 21.701 9.211 10.916 10.427-1.65.187-3.533.779-4.183 1.316-.772.639-2.504.61-5-.082-4.664-1.295-5.317-1.318-5.317-.18 0 .89 3.547 2.107 7.692 2.639 3.814.489 4.527 1.472 3.864 5.335-1.584 9.224-1.538 9.134-4.694 9.134-1.732 0-2.721-.419-2.362-1 .34-.55.194-1-.324-1-.519 0-1.178-.9-1.466-2-.316-1.208-1.364-2-2.648-2-1.169 0-2.425-.787-2.793-1.75-.688-1.803-.846-2.03-4.339-6.25-2.069-2.5-2.069-2.5-1.491.21.443 2.079.097 2.968-1.49 3.817-3.053 1.634-2.358 6.6.861 6.15 1.27-.178 2.952.21 3.737.862.841.698 2.53.908 4.115.51 2.465-.619 2.57-.53 1.263 1.08-.904 1.113-.968 1.48-.175 1.004 1.207-.725 1.687.683 1.482 4.336-.045.808 1.226 3.249 2.826 5.425 2.411 3.278 2.808 4.595 2.313 7.686-.499 3.124-.251 3.915 1.528 4.868 1.738.93 1.934 1.496 1.067 3.115-.582 1.088-.743 2.489-.358 3.114 1.359 2.199-6.627-.001-11.342-3.124-8.698-5.762-10.731-2.813-8.924 12.947.221 1.925-.023 4.035-.543 4.69-2.291 2.887-.482 6.804 3.201 6.932 1.925.067 3.95.231 4.5.365s1.77.166 2.711.072c2.294-.23 5.828 1.736 5.529 3.076-.429 1.92 7.577 1.339 13.716-.996 3.275-1.246 6.763-2.054 7.75-1.795 1.097.287 1.794-.077 1.794-.937 0-.773-.9-1.407-2-1.407-2.468 0-2.532-1.121-.227-3.967 1.774-2.19 1.774-2.191 3.655-.112 3.099 3.423 8.159.85 5.79-2.944-.993-1.589-.581-2.041 3.321-3.645 2.449-1.007 4.455-2.169 4.457-2.582s.443-.75.979-.75c1.288 0 .183 5.855-1.664 8.817-1.092 1.751-1.167 2.651-.309 3.686 1.283 1.545-.226 5.368-2.692 6.822-.804.474-1.149 1.608-.812 2.669.406 1.279-.025 2.039-1.405 2.477-1.193.378-1.772 1.202-1.445 2.054.599 1.563-1.168 3.716-3.898 4.75-.962.364-1.75 1.619-1.75 2.789 0 2.226-3.33 7.595-5.963 9.615-1.366 1.047-1.342 1.254.215 1.857 1.184.459 2.39-.086 3.717-1.678 2.104-2.526 2.666-1.913 1.038 1.131-.844 1.574-.541 1.954 2 2.512 3.869.85 4.064 4.832.493 10.094-3.324 4.898-3.182 6.036 1.488 11.905 2.188 2.75 5.447 7.129 7.244 9.732 2.93 4.244 6.768 6.38 6.768 3.768 0-.55 1.035-1 2.3-1s2.746-.446 3.29-.99c.62-.62 2.15-.657 4.088-.101 2.392.686 3.469.516 4.728-.744 4.803-4.802 6.925 3.04 2.546 9.405-3.724 5.412-1.48 4.855 3.795-.941 1.786-1.963 3.851-3.336 4.59-3.052.738.282 1.92-.181 2.625-1.031 1.934-2.33 4.935-1.866 6.224.963 1.583 3.475-.177 6.436-7.813 13.14-6.161 5.409-6.161 5.409-3.267 8.303q6.73 6.731-2.936 8.665c-2.37.473-3.292.23-3.762-.995-.888-2.314-2.696-2.009-5.448.92-2.037 2.169-2.206 2.834-1.151 4.523 1.864 2.986.028 5.71-3.506 5.2-4.597-.663-9.708 5.273-8.219 9.547.611 1.753 1.63 3.202 2.264 3.219s.361.49-.606 1.054c-.967.563-2.166.771-2.665.463-.498-.308-1.136-.096-1.417.471-.28.567-.375.457-.21-.244a1.32 1.32 0 0 1 1.594-.969c1.051.249 1.054.018.019-1.229-.82-.989-2.396-1.39-4.419-1.124a92 92 0 0 1-6.144.558c-1.65.081-2.437.374-1.75.651.688.279 1.25 1.087 1.25 1.799s.675 1.854 1.5 2.539c5.107 4.238-.167 9.564-11.856 11.977-5.805 1.198-5.851 1.236-5.25 4.241.333 1.668.606 4.11.606 5.428 0 1.565.84 2.78 2.421 3.5 1.427.65 2.204 1.669 1.892 2.481-1.315 3.427.629 6.545 3.665 5.878 3.965-.871 7.62 1.069 5.906 3.134-.684.825-2.082 1.281-3.105 1.013-1.464-.382-1.732-.077-1.254 1.431.545 1.717.081 1.917-4.459 1.917-5.146 0-6.794-1.89-2.64-3.028 2.787-.763 3.151-3.008.595-3.677-1.452-.379-1.789-.821-.999-1.309 1.624-1.003.253-6.985-1.601-6.986-.782 0-1.421-.392-1.421-.872s-1.851-1.168-4.114-1.53c-2.276-.364-4.845-1.556-5.75-2.669-1.563-1.921-1.645-1.764-1.848 3.531-.199 5.212-.072 5.54 2.143 5.54 5.607 0 3.707 7.564-2.136 8.502-2.087.335-5.28 1.263-7.096 2.062-2.486 1.094-3.803 1.183-5.335.363-2.367-1.266-3.36-.663-2.519 1.53.326.849 1.676 1.543 3.001 1.543 3.904 0 5.075 2.286 3.115 6.077-1.665 3.218-1.666 3.218-13.063 2.607s-11.398-.611-11.398 2.418c0 8.621-10.579 8.949-12.836.398-1.025-3.886-7.44-4.574-7.971-.856-.417 2.928-5.229 3.934-5.933 1.241-.544-2.077-1.366-2.361-2.81-.97-.522.504-2.075 1.066-3.45 1.25-1.71.229-2.602 1.053-2.823 2.609-.261 1.844-.83 2.2-3 1.878-1.472-.218-2.582-.851-2.467-1.405.116-.555-.672-1.807-1.75-2.783-1.881-1.703-1.962-1.698-2.002.131-.024 1.048-1.416 3.03-3.095 4.405a541 541 0 0 0-5.708 4.749c-4.916 4.164-8.422 2.715-9.677-3.999-.385-2.061-.881-3.749-1.102-3.75s-3.649.9-7.619 2c-14.524 4.025-29-2.533-15.77-7.145 1.657-.578 3.013-1.445 3.013-1.928s-1.155-.438-2.566.098c-2.123.807-3.159.524-6-1.643-3.139-2.394-4.983-5.457-2.279-3.787.716.443.883.275.439-.443-1.049-1.697-4.913.576-4.188 2.464.811 2.113-2.281 2.937-3.707.987-1.831-2.504-6.976.008-6.236 3.044 1.341 5.502-5.446 8.159-7.44 2.914-.95-2.498-5.437-1.816-9.523 1.446-1.865 1.489-6.803 1.559-7.292.104-.259-.768-.013-1.108.549-.761.56.346.996.071.973-.61-.161-4.454.444-5.606 3.52-6.697 3.668-1.3 2.102-3.54-3.25-4.647-1.375-.284-3.306-.954-4.29-1.489-.986-.536-2.157-.749-2.603-.473-.448.276-1.667-.136-2.71-.916-1.793-1.341-1.767-1.385.487-.816 1.773.448 2.26.242 1.896-.8-.268-.771-1.228-1.27-2.134-1.108s-1.646-.113-1.646-.61c0-1.368-6.697-8.183-8.04-8.184-1.264 0-.447 5.053.968 5.991 1.274.844.882 7.15-.413 6.653-.657-.252-1.123.469-1.084 1.676.084 2.591-2.923 3.446-3.828 1.089-.357-.929.047-2.752.897-4.05 1.424-2.172 1.405-2.362-.227-2.394-.976-.02-2.897-.658-4.27-1.418-1.696-.939-2.884-1.061-3.702-.382-1.603 1.33-5.582.011-4.95-1.641.545-1.42-1.94-5.524-3.343-5.524-1.258 0-10.008-8.116-10.008-9.282 0-.581 1.664-.708 4.125-.314 3.832.613 4.086.511 3.58-1.429-.45-1.717-.294-1.879.874-.91 2.272 1.886 1.639-.557-.69-2.659-1.16-1.048-2.975-3.744-4.033-5.992-1.69-3.592-9.922-9.936-15.158-11.681-3.332-1.111 3.063-11.87 6.517-10.966 1.767.462 1.998.235 1.38-1.356-1.235-3.177-1.163-3.926.35-3.596 2.291.498 6.055-1.977 6.055-3.984 0-1.079.72-1.831 1.755-1.831 2.437 0 4.522-6.525 2.596-8.124-.743-.616-1.35-1.939-1.35-2.939-.001-1.001-.451-2.097-1-2.437-.55-.34-1-1.518-1-2.618s-.404-1.752-.895-1.448c-.49.303-1.843-1.357-3.005-3.691s-2.66-5.143-3.328-6.243-2.239-3.678-3.493-5.729c-2.852-4.664-2.888-7.741-.126-10.706 1.922-2.063 1.98-2.41.542-3.215-.887-.497-1.358-1.568-1.045-2.382.387-1.012-.573-1.955-3.043-2.987-1.984-.829-3.645-2.064-3.69-2.744-.242-3.637-1.198-7.557-2.465-10.115-.785-1.582-1.159-3.945-.832-5.25.405-1.611.16-2.392-.764-2.435-.746-.035-.333-.475.918-.977 2.606-1.047 2.206-5.5-.687-7.629-4.752-3.496-5.041-3.891-4.456-6.081.33-1.238 1.379-2.25 2.33-2.25.95 0 2.543-.9 3.538-2s2.231-2 2.745-2 1.779-1.012 2.81-2.25c1.615-1.934 1.883-2.003 1.912-.49.018.968-.867 2.53-1.967 3.472-2.538 2.173-2.518 2.899.1 3.584 1.157.303 1.805 1.029 1.442 1.617-.363.587-.445 1.067-.183 1.067.263 0 1.25.298 2.196.66 1.212.464 1.572.243 1.224-.75-.57-1.629 2.992-7.17 4.15-6.454.427.264 1.613-.132 2.636-.879 2.017-1.475.615-4.576-2.069-4.577-1.332 0-4.101-8.453-3.604-11 .162-.825.239-3.222.17-5.326-.108-3.399.22-3.954 2.949-4.984 2.134-.806 3.024-1.774 2.919-3.175-.26-3.456.036-4.654 1-4.058a1.09 1.09 0 0 0 1.502-.347c.313-.507 1.402-.705 2.42-.438 2.56.669 5.59-2.434 4.113-4.214-.807-.972-.795-1.907.043-3.472.63-1.178.9-2.782.6-3.564-.38-.993.2-1.422 1.923-1.422 1.358 0 2.469-.45 2.47-1 0-.55-.437-1-.97-1s-.71-.675-.393-1.5c.33-.861.02-1.5-.73-1.5-1.018 0-1.041-.267-.108-1.2.66-.66 1.2-1.948 1.2-2.862 0-1.277 1.32-1.818 5.684-2.331 3.126-.367 6.276-1.159 7-1.76 1.767-1.466 1.673-3.846-.153-3.847-.894 0-1.243.586-.893 1.5.363.945-.011 1.5-1.011 1.5-1.986 0-1.574-5.786.506-7.103 3.478-2.204-2.762-.68-7.275 1.776-3.573 1.945-5.211 2.374-6.012 1.573-.743-.743-1.913-.79-3.605-.148-4.224 1.606-6.24.29-6.24-4.07 0-4.477 3.34-6.913 15.25-11.124 7.366-2.604 7.512-2.802 5.108-6.871-1.99-3.368-1.188-7.635 1.6-8.52 2.676-.849 9.035.449 9.056 1.848.042 3.128 1.618 3.829 5.793 2.579 4.398-1.318 5.909-3.37 4.09-5.56-.88-1.063-.605-1.805 1.234-3.325 2.036-1.682 2.524-1.753 3.477-.506 1.928 2.52 17.01-1.493 15.954-4.243-.865-2.257 4.422-5.084 5.593-2.991 1.402 2.505 4.122 2.048 7.252-1.219 2.783-2.905 2.783-2.905.625-5.062-3.774-3.774-.756-10.609 4.56-10.326 5.589.297 6.264.495 5.822 1.71-.217.595-.005 1.692.47 2.437 1.046 1.642 5.668-.946 6.598-3.694.309-.914 3.365-3.792 6.79-6.397 3.42-2.6 6.265-4.737 6.328-4.75m65.339 318.986c.582 0 1.06.45 1.06 1s-.198 1-.441 1-.719-.45-1.059-1-.141-.999.44-1m-91.94-7.618c0-.825.45-1.222 1-.882s1 1.294 1 2.119c0 .824-.45 1.221-1 .881s-1-1.293-1-2.118m85.5-1.382c.275 0 .5.225.5.5s-.225.5-.5.5a.5.5 0 0 1-.5-.5c0-.275.225-.5.5-.5m-127.56-8c.582 0 1.06.45 1.06 1s-.198 1-.441 1-.72-.45-1.059-1c-.34-.55-.141-.999.44-1m-2.94-1c.55 0 1 .45 1 1s-.45 1-1 1-1-.45-1-1 .45-1 1-1m60 1.107c0-1.644-2.785-1.984-4.653-.57-1.705 1.292-1.597 1.402 1.403 1.431 1.787.018 3.25-.37 3.25-.861m-45-2.107c.733 0 1.033.3.667.667a.95.95 0 0 1-1.334 0c-.366-.367-.066-.667.667-.667m-9.583.079c1.054-.043 1.644.193 1.312.525s-1.195.368-1.916.079c-.798-.319-.56-.556.604-.604m1.583-3.079c.55 0 1 .45 1 1s-.45 1-1 1-1-.45-1-1 .45-1 1-1m-8.5-1c.825 0 1.5.661 1.5 1.469 0 .894-.586 1.243-1.5.893-.825-.317-1.5-.978-1.5-1.469s.675-.893 1.5-.893m-.5-8c.55 0 1 .198 1 .441s-.45.719-1 1.059-1 .141-1-.441.45-1.059 1-1.059m200.5-6c.825 0 1.5.17 1.5.378 0 .207-.675.938-1.5 1.622-1.229 1.02-1.5.951-1.5-.378 0-.892.675-1.622 1.5-1.622m5-1c.275 0 .5.225.5.5s-.225.5-.5.5a.5.5 0 0 1-.5-.5c0-.275.225-.5.5-.5m-1.808-3.641c.54-1.409.707-1.398 1.549.107 1.058 1.89.425 3.064-1.132 2.102-.561-.349-.749-1.342-.417-2.209m-3.534-.359c0-1.375.227-1.937.504-1.25.278.688.278 1.813 0 2.5-.277.688-.504.125-.504-1.25m2.342-1c.275 0 .5.225.5.5s-.225.5-.5.5a.5.5 0 0 1-.5-.5c0-.275.225-.5.5-.5m-5.844-1.455q-.555-1.444.895-.886c1.68.645 1.794 1.01.554 1.776-.493.305-1.145-.096-1.449-.89m6.844-.545c.275 0 .5.225.5.5s-.225.5-.5.5a.5.5 0 0 1-.5-.5c0-.275.225-.5.5-.5m39.5-3c0-.733.3-1.033.667-.667a.95.95 0 0 1 0 1.334c-.367.366-.667.066-.667-.667m-6-10.441c0-1.757.6-2.015 1.457-.628.317.512.118 1.214-.441 1.56-.559.344-1.016-.075-1.016-.932M39.241 257.57c-2.373-.911-2.69-.758-2.025.975.334.87.607 1.77.607 2s.675.418 1.5.418c1.99 0 1.928-2.622-.082-3.393m255.48-5.607c1.658 0 8.149 6.113 7.54 7.101-1.492 2.413-6.742-.804-7.918-4.851-.379-1.302-.22-2.249.378-2.25m-20.398 4c-.275 0-.5.225-.5.5s.225.5.5.5.5-.225.5-.5-.225-.5-.5-.5m-6-3c-.275 0-.5.225-.5.5s.225.5.5.5.5-.225.5-.5-.225-.5-.5-.5m-1.677-3.667c-.389-2.009-2.386-2.848-3.29-1.385-.88 1.423.242 3.052 2.099 3.052.876 0 1.378-.703 1.191-1.667m2.677.667c-.275 0-.5.225-.5.5s.225.5.5.5.5-.225.5-.5-.225-.5-.5-.5m-245-17c.275 0 .5.225.5.5s-.225.5-.5.5a.5.5 0 0 1-.5-.5c0-.275.225-.5.5-.5m2 0c.275 0 .5.225.5.5s-.225.5-.5.5a.5.5 0 0 1-.5-.5c0-.275.225-.5.5-.5m4-50c-.275 0-.5.225-.5.5s.225.5.5.5.5-.225.5-.5-.225-.5-.5-.5m-4.5 0c.733 0 1.033.3.667.667a.95.95 0 0 1-1.334 0c-.366-.367-.066-.667.667-.667m-1.281-14.918c.165-2.193-1.234-3.676-2.118-2.246-.295.478.026 1.64.713 2.579 1.154 1.578 1.263 1.552 1.405-.333m1.781-2.082c-.275 0-.5.225-.5.5s.225.5.5.5.5-.225.5-.5-.225-.5-.5-.5m251.7-11.799c3.351-3.351 7.363-.019 6.367 5.289-.771 4.111-2.856 4.579-5.624 1.26-2.183-2.616-2.436-4.856-.743-6.549m-277.2 2.799c.733 0 1.033.3.667.667a.95.95 0 0 1-1.334 0c-.366-.367-.066-.667.667-.667m286.094-9c.498 0 .906.9.906 2s-.173 1.999-.383 2-.619-.9-.907-2c-.287-1.1-.115-2 .384-2m-1.594-2c.275 0 .5.225.5.5s-.225.5-.5.5a.5.5 0 0 1-.5-.5c0-.275.225-.5.5-.5m7.882-3c.275 0 .778.45 1.118 1s.393 1 .118 1-.778-.45-1.118-1-.393-1-.118-1M18.68 133.08c.195-.064.119.503-.172 1.261s0 1.909.643 2.557c.9.904.602.968-1.277.276-3.058-1.127-3.74-2.892-1.356-3.51.992-.257 1.965-.52 2.162-.584m8.81-1.45c1.116-1.117 2-.749 2 .833 0 .825-.6 1.5-1.334 1.5-1.419 0-1.77-1.229-.666-2.333m266.273.333c.582 0 1.06.45 1.06 1s-.198 1-.441 1-.719-.45-1.059-1-.141-.999.44-1m2.56 1c.275 0 .5.225.5.5s-.225.5-.5.5a.5.5 0 0 1-.5-.5c0-.275.225-.5.5-.5m-275.5-4c.55 0 1 .675 1 1.5s-.45 1.5-1 1.5-1-.675-1-1.5.45-1.5 1-1.5m282 .128c3.258-1.305 5-1.362 5-.163 0 1.749-3.891 3.196-5.763 2.142-1.557-.876-1.478-1.081.763-1.979m-288.434-3.23c3.127-1.225 4.078-.943 2.037.602-1.044.79-2.364 1.148-2.934.795-.598-.369-.218-.96.896-1.397m276.493-.898c.518 0 .941.45.941 1s-.703 1-1.56 1c-.856 0-1.28-.45-.94-1s1.041-1 1.559-1m-37.559-20c-.275 0-.5.225-.5.5s.225.5.5.5.5-.225.5-.5-.225-.5-.5-.5m-215-3c.275 0 .5.225.5.5s-.225.5-.5.5a.5.5 0 0 1-.5-.5c0-.275.225-.5.5-.5m5-1c.275 0 .5.225.5.5s-.225.5-.5.5a.5.5 0 0 1-.5-.5c0-.275.225-.5.5-.5m-11.25-5.017c1.787-1.093 3.85-1.76 4.582-1.485.732.276 2.082.538 3 .581.999.047 1.176.279.442.576-.673.272-1.452.35-1.73.17-.278-.178-1.215.687-2.081 1.925-1.028 1.467-2.602 2.25-4.52 2.25-3.852 0-3.733-1.546.307-4.017m228.25 3.017c.275 0 .5.225.5.5s-.225.5-.5.5a.5.5 0 0 1-.5-.5c0-.275.225-.5.5-.5m-218-1c.275 0 .5.225.5.5s-.225.5-.5.5a.5.5 0 0 1-.5-.5c0-.275.225-.5.5-.5m12.32-8.171c-.347-2.352-2.271-3.527-3.232-1.972-.907 1.468.44 4.143 2.089 4.143.932 0 1.346-.787 1.143-2.171m184.68-14.829c.275 0 .5.225.5.5s-.225.5-.5.5a.5.5 0 0 1-.5-.5c0-.275.225-.5.5-.5m34.5-2.004c0-.513.675-.721 1.5-.464.825.258 2.25.709 3.167 1.001 1.174.376 1.353.846.607 1.592-1.18 1.18-5.273-.473-5.274-2.129M69.807 71.213c.022-1.797-1.658-1.54-2.39.364-.392 1.023-1.345 1.423-2.606 1.093-1.092-.285-1.987-.16-1.988.278s1.195 1.099 2.655 1.466c2.667.668 4.296-.536 4.33-3.2m174.575-2.25c-.243 0-.719.45-1.059 1s-.141 1 .44 1c.582 0 1.06-.45 1.06-1s-.198-1-.441-1m-3.059-1c-.275 0-.5.225-.5.5s.225.5.5.5.5-.225.5-.5-.225-.5-.5-.5m-97.083-21.92c-1.165.047-1.402.284-.604.603.721.289 1.584.253 1.916-.08.332-.331-.258-.567-1.312-.524m37.583-2.08c-.733 0-1.033.3-.667.667a.95.95 0 0 0 1.334 0c.366-.367.066-.667-.667-.667m-34.478-9.63c-1.136-.435-1.813.026-2.198 1.5-.307 1.172-1.18 2.13-1.941 2.13-.76 0-1.383.45-1.383 1 0 1.52 2.594 1.195 4-.5.685-.825 2.288-1.5 3.563-1.5s2.597-.45 2.937-1-.272-1-1.359-1c-1.088 0-2.717-.283-3.619-.63m-8.398 2.363c-.988-.98-1.102-.865-.56.56.376.986.935 1.54 1.243 1.233s.001-1.114-.683-1.793m21.376-6.733c.275 0 .5.225.5.5s-.225.5-.5.5a.5.5 0 0 1-.5-.5c0-.275.225-.5.5-.5m45.5-1c.733 0 1.033.3.667.667a.95.95 0 0 1-1.334 0c-.366-.367-.066-.667.667-.667m5-4c.55 0 1 .198 1 .44 0 .244-.45.72-1 1.06s-1 .14-1-.441c0-.582.45-1.059 1-1.059m-34.5 0c.275 0 .5.225.5.5s-.225.5-.5.5a.5.5 0 0 1-.5-.5c0-.275.225-.5.5-.5m-3.5-6c.733 0 1.033.3.667.667a.95.95 0 0 1-1.334 0c-.366-.367-.066-.667.667-.667m1-3c0-.733.3-1.033.667-.667a.95.95 0 0 1 0 1.334c-.367.366-.667.066-.667-.667m35-2c.733 0 1.033.3.667.667a.95.95 0 0 1-1.334 0c-.366-.367-.066-.667.667-.667m-31.5-1c.275 0 .5.225.5.5s-.225.5-.5.5a.5.5 0 0 1-.5-.5c0-.275.225-.5.5-.5m-11-2c.275 0 .5.225.5.5s-.225.5-.5.5a.5.5 0 0 1-.5-.5c0-.275.225-.5.5-.5m9.5 0c0-.733.3-1.033.667-.667a.95.95 0 0 1 0 1.334c-.367.366-.667.066-.667-.667m-4.5-1c.275 0 .5.225.5.5s-.225.5-.5.5a.5.5 0 0 1-.5-.5c0-.275.225-.5.5-.5m-38.941-3c.243 0 .441.45.441 1s-.478 1-1.06 1c-.581 0-.78-.45-.44-1s.816-1 1.059-1m-9.559 1c.733 0 1.033.3.667.667a.95.95 0 0 1-1.334 0c-.366-.367-.066-.667.667-.667m44.381-5.652c2.929-2.519 5.619-3.082 5.619-1.177 0 1.726-3.081 4.829-4.795 4.83-.816 0-2.026.74-2.688 1.645-1.062 1.452-1.184 1.375-1.035-.65.093-1.265 1.398-3.356 2.899-4.648" data-figma-scatter="f0.51_w0.06_aj180_sj0.65_r0_s0_sw3" data-figma-scatter-ref="stroke0_184_4764_ref"/></defs></svg>