<svg xmlns="http://www.w3.org/2000/svg" xmlns:xlink="http://www.w3.org/1999/xlink" width="307" height="93" fill="none" viewBox="0 0 307 93"><path fill="#af6743" d="m51.145 1.175-48.948 26.7 5.542 62.3 43.406-13.35 51.719 13.35 124.679-13.35 76.654 13.35-7.388-25.587c-5.911-14.24 2.463-37.825 7.388-47.838L245.09 1.175c-13.299 5.34-38.173 12.609-48.948 15.575h-72.96z"/><use xlink:href="#a" transform="rotate(100.249 -8.664 15.048)scale(.01241)"/><use xlink:href="#a" transform="rotate(-70.234 20.55 13.252)scale(.0139)"/><use xlink:href="#a" transform="rotate(-36.652 40.72 7.078)scale(.00864)"/><use xlink:href="#a" transform="rotate(92.377 -7.575 15.962)scale(.00683)"/><use xlink:href="#a" transform="rotate(135.964 -.362 14.233)scale(.0063)"/><use xlink:href="#a" transform="rotate(79.716 -9.149 17.312)scale(.00572)"/><use xlink:href="#a" transform="rotate(.916 -1333.766 513.354)scale(.01292)"/><use xlink:href="#a" transform="rotate(-38.115 37.622 -3.267)scale(.006)"/><use xlink:href="#a" transform="rotate(200.067 8.543 10.64)scale(.00606)"/><use xlink:href="#a" transform="rotate(-69.475 22.202 2.873)scale(.00817)"/><use xlink:href="#a" transform="rotate(116.234 2.454 15.402)scale(.01158)"/><use xlink:href="#a" transform="rotate(212.916 12.138 9.045)scale(.01461)"/><use xlink:href="#a" transform="rotate(-91.594 18.445 2.403)scale(.01333)"/><use xlink:href="#a" transform="rotate(26.393 -22.088 49.766)scale(.01266)"/><use xlink:href="#a" transform="rotate(-59.439 25.002 -8.203)scale(.01476)"/><use xlink:href="#a" transform="rotate(34.3 -11.216 45.988)scale(.00638)"/><use xlink:href="#a" transform="rotate(29.898 -9.755 52.437)scale(.0135)"/><use xlink:href="#a" transform="rotate(141.289 12.755 12.62)scale(.01259)"/><use xlink:href="#a" transform="rotate(-46.194 29.046 -25.537)scale(.00673)"/><use xlink:href="#a" transform="rotate(-79.211 22.511 -9.988)scale(.01153)"/><use xlink:href="#a" transform="rotate(121.953 14.538 15.127)scale(.01297)"/><use xlink:href="#a" transform="rotate(-25.383 37.151 -64.843)scale(.01225)"/><use xlink:href="#a" transform="rotate(251.367 21.199 -7.017)scale(.0056)"/><use xlink:href="#a" transform="rotate(94.288 16.392 21.612)scale(.01387)"/><use xlink:href="#a" transform="rotate(210.767 21.032 -.106)scale(.01128)"/><use xlink:href="#a" transform="rotate(44.734 14.168 51.127)scale(.00981)"/><use xlink:href="#a" transform="rotate(-66.016 25.306 -26.479)scale(.01148)"/><use xlink:href="#a" transform="rotate(36.209 17.782 66.984)scale(.01268)"/><use xlink:href="#a" transform="rotate(67.517 20.038 35.575)scale(.00548)"/><use xlink:href="#a" transform="rotate(-95.853 24.843 -17.474)scale(.00623)"/><use xlink:href="#a" transform="rotate(-16.657 28.889 -150.646)scale(.01239)"/><use xlink:href="#a" transform="rotate(-37.66 26.168 -66.514)scale(.01126)"/><use xlink:href="#a" transform="rotate(-70.565 26.122 -33.178)scale(.00611)"/><use xlink:href="#a" transform="rotate(184.643 25.878 .115)scale(.0057)"/><use xlink:href="#a" transform="rotate(181.026 26.447 .952)scale(.0066)"/><use xlink:href="#a" transform="rotate(227.214 27.203 -9.762)scale(.00783)"/><use xlink:href="#a" transform="rotate(-6.546 28.093 -459.737)scale(.01048)"/><use xlink:href="#a" transform="rotate(135.011 28.303 13.108)scale(.0073)"/><use xlink:href="#a" transform="rotate(252.265 29.751 -18.28)scale(.00918)"/><use xlink:href="#a" transform="rotate(242.59 30.216 -15.72)scale(.00574)"/><use xlink:href="#a" transform="rotate(-16.573 36.614 -199.048)scale(.00547)"/><use xlink:href="#a" transform="rotate(-84.733 31.917 -30.218)scale(.00724)"/><use xlink:href="#a" transform="rotate(-45.614 33.622 -68.138)scale(.01446)"/><use xlink:href="#a" transform="rotate(253.755 33.592 -20.96)scale(.00734)"/><use xlink:href="#a" transform="rotate(51.171 31.9 69.553)scale(.01405)"/><use xlink:href="#a" transform="rotate(210.333 35.42 -5.336)scale(.01353)"/><use xlink:href="#a" transform="rotate(76.673 32.418 46.444)scale(.00545)"/><use xlink:href="#a" transform="rotate(31.727 31.085 124.956)scale(.01333)"/><use xlink:href="#a" transform="rotate(37.247 30.308 109.597)scale(.00783)"/><use xlink:href="#a" transform="rotate(222.906 39.205 -9.924)scale(.01461)"/><use xlink:href="#a" transform="rotate(183.706 39.392 3.15)scale(.0118)"/><use xlink:href="#a" transform="rotate(99.98 38.184 36.755)scale(.01212)"/><use xlink:href="#a" transform="rotate(89.491 38.682 44.503)scale(.0129)"/><use xlink:href="#a" transform="rotate(241.599 44.08 -19.165)scale(.01162)"/><use xlink:href="#a" transform="rotate(64.682 38.79 70.517)scale(.0141)"/><use xlink:href="#a" transform="rotate(-55.53 51.07 -76.142)scale(.0067)"/><use xlink:href="#a" transform="rotate(-3.593 153.817 -1362.98)scale(.01412)"/><use xlink:href="#a" transform="rotate(149.107 44.22 17.505)scale(.00592)"/><use xlink:href="#a" transform="rotate(88.37 41.361 51.494)scale(.00552)"/><use xlink:href="#a" transform="rotate(-90.443 51.061 -38.632)scale(.01322)"/><use xlink:href="#a" transform="rotate(75.145 43.036 66.315)scale(.01366)"/><use xlink:href="#a" transform="rotate(-1.066 554.431 -5085.029)scale(.00998)"/><use xlink:href="#a" transform="rotate(237.14 52.28 -19.944)scale(.0079)"/><use xlink:href="#a" transform="rotate(225.535 52.45 -14.012)scale(.00914)"/><use xlink:href="#a" transform="rotate(208.621 52.848 -5.567)scale(.01333)"/><use xlink:href="#a" transform="rotate(214.894 54.031 -8.819)scale(.01063)"/><use xlink:href="#a" transform="rotate(186.559 53.347 4.202)scale(.00901)"/><use xlink:href="#a" transform="rotate(41.161 38.577 146.55)scale(.01002)"/><use xlink:href="#a" transform="rotate(-3.94 234.722 -1539.73)scale(.00643)"/><use xlink:href="#a" transform="rotate(7.218 -37.87 856.286)scale(.01183)"/><use xlink:href="#a" transform="rotate(-97.837 61.723 -39.396)scale(.01186)"/><use xlink:href="#a" transform="rotate(113.154 53.648 45.093)scale(.01464)"/><use xlink:href="#a" transform="rotate(-70.787 67.63 -72.103)scale(.00601)"/><use xlink:href="#a" transform="rotate(-23.392 91.92 -268.867)scale(.00701)"/><use xlink:href="#a" transform="rotate(37.116 37.408 180.766)scale(.00547)"/><use xlink:href="#a" transform="rotate(-38.462 80.201 -159.106)scale(.00592)"/><use xlink:href="#a" transform="rotate(165.637 59.543 16.192)scale(.01072)"/><use xlink:href="#a" transform="rotate(24.248 25.388 286.7)scale(.00553)"/><use xlink:href="#a" transform="rotate(76.068 51.204 85.644)scale(.0057)"/><use xlink:href="#a" transform="rotate(130.857 58.945 36.895)scale(.01148)"/><use xlink:href="#a" transform="rotate(33.097 37.075 216.042)scale(.00843)"/><use xlink:href="#a" transform="rotate(8.853 -37.323 813.223)scale(.0068)"/><use xlink:href="#a" transform="rotate(117.673 59.039 46.881)scale(.00577)"/><use xlink:href="#a" transform="rotate(254.374 70.549 -38.721)scale(.00946)"/><use xlink:href="#a" transform="rotate(205.149 66.868 -5.496)scale(.00621)"/><use xlink:href="#a" transform="rotate(100.509 58.953 62.695)scale(.00567)"/><use xlink:href="#a" transform="rotate(-10.98 148.638 -668.49)scale(.00612)"/><use xlink:href="#a" transform="rotate(242.68 71.458 -31.006)scale(.0068)"/><use xlink:href="#a" transform="rotate(237.552 72.045 -26.747)scale(.01353)"/><use xlink:href="#a" transform="rotate(-62.754 81.013 -100.57)scale(.01274)"/><use xlink:href="#a" transform="rotate(28.412 39.513 278.772)scale(.00812)"/><use xlink:href="#a" transform="rotate(108.136 64.215 58.974)scale(.00563)"/><use xlink:href="#a" transform="rotate(-9.64 161.911 -814.218)scale(.00845)"/><use xlink:href="#a" transform="rotate(83.303 62.33 87.89)scale(.00611)"/><use xlink:href="#a" transform="rotate(-96.168 78.928 -54.28)scale(.0089)"/><use xlink:href="#a" transform="rotate(215.089 75.781 -12.88)scale(.01452)"/><use xlink:href="#a" transform="rotate(177.275 73.452 10.51)scale(.00574)"/><use xlink:href="#a" transform="rotate(161.747 73.35 20.982)scale(.00951)"/><use xlink:href="#a" transform="rotate(87.206 67.885 86.733)scale(.01157)"/><use xlink:href="#a" transform="rotate(-38.961 97.913 -202.466)scale(.00831)"/><use xlink:href="#a" transform="rotate(64.897 66.191 127.988)scale(.01388)"/><use xlink:href="#a" transform="rotate(200.148 79.399 -4.616)scale(.00842)"/><use xlink:href="#a" transform="rotate(8.053 -27.724 1107.317)scale(.01034)"/><use xlink:href="#a" transform="rotate(191.688 80.895 1.466)scale(.01275)"/><use xlink:href="#a" transform="rotate(-3.231 362.681 -2806.108)scale(.00597)"/><use xlink:href="#a" transform="rotate(196.437 82.197 -2.54)scale(.00773)"/><use xlink:href="#a" transform="rotate(50.409 67.188 179.958)scale(.0138)"/><use xlink:href="#a" transform="rotate(205.361 84.944 -9.026)scale(.01078)"/><use xlink:href="#a" transform="rotate(153.676 82.447 28.638)scale(.01118)"/><use xlink:href="#a" transform="rotate(116.121 79.694 61.028)scale(.00677)"/><use xlink:href="#a" transform="rotate(-49.262 101.86 -173.57)scale(.01157)"/><use xlink:href="#a" transform="rotate(157.422 84.465 25.814)scale(.00605)"/><use xlink:href="#a" transform="rotate(142.945 84.694 37.842)scale(.01118)"/><use xlink:href="#a" transform="rotate(-3.777 324.177 -2611.73)scale(.00774)"/><use xlink:href="#a" transform="rotate(150.022 86.196 32.227)scale(.00727)"/><use xlink:href="#a" transform="rotate(-45.272 107.483 -201.467)scale(.00635)"/><use xlink:href="#a" transform="rotate(1.416 -497.12 7128.36)scale(.01292)"/><use xlink:href="#a" transform="rotate(85.82 81.765 104.973)scale(.00569)"/><use xlink:href="#a" transform="rotate(7.071 -30.084 1459.954)scale(.01013)"/><use xlink:href="#a" transform="rotate(227.467 95.35 -30.655)scale(.00882)"/><use xlink:href="#a" transform="rotate(61.886 81.11 161.418)scale(.0131)"/><use xlink:href="#a" transform="rotate(216.012 96.055 -21.08)scale(.00617)"/><use xlink:href="#a" transform="rotate(172.646 93.794 14.997)scale(.00856)"/><use xlink:href="#a" transform="rotate(28.769 64.399 374.197)scale(.00767)"/><use xlink:href="#a" transform="rotate(189.179 96.486 1.77)scale(.01055)"/><use xlink:href="#a" transform="rotate(142.151 93.547 41.447)scale(.00614)"/><use xlink:href="#a" transform="rotate(168.164 95.946 18.77)scale(.00637)"/><use xlink:href="#a" transform="rotate(140.124 94.328 43.773)scale(.00565)"/><use xlink:href="#a" transform="rotate(10.832 14.556 1028.956)scale(.00673)"/><use xlink:href="#a" transform="rotate(34.644 76.233 320.44)scale(.01416)"/><use xlink:href="#a" transform="rotate(112.67 94.614 74.3)scale(.00761)"/><use xlink:href="#a" transform="rotate(173.118 99.767 14.541)scale(.0075)"/><use xlink:href="#a" transform="rotate(219.47 103.679 -27.017)scale(.01106)"/><use xlink:href="#a" transform="rotate(152.852 99.76 32.334)scale(.00564)"/><use xlink:href="#a" transform="rotate(-1.955 496.416 -5906.164)scale(.00842)"/><use xlink:href="#a" transform="rotate(-32.36 125.868 -342.388)scale(.00715)"/><use xlink:href="#a" transform="rotate(43.998 89.8 260.336)scale(.01382)"/><use xlink:href="#a" transform="rotate(174.107 104.89 13.115)scale(.01295)"/><use xlink:href="#a" transform="rotate(-58.586 115.728 -178.181)scale(.01212)"/><use xlink:href="#a" transform="rotate(-2.55 339.252 -4716.041)scale(.01165)"/><use xlink:href="#a" transform="rotate(-51.136 118.497 -215.788)scale(.0057)"/><use xlink:href="#a" transform="rotate(-1.63 467.785 -7490.066)scale(.00638)"/><use xlink:href="#a" transform="rotate(178.602 108.153 7.334)scale(.00621)"/><use xlink:href="#a" transform="rotate(251.797 112.401 -71.797)scale(.00838)"/><use xlink:href="#a" transform="rotate(18.163 86.068 682.122)scale(.01424)"/><use xlink:href="#a" transform="rotate(-76.4 116.09 -133.733)scale(.0065)"/><use xlink:href="#a" transform="rotate(118.913 109.444 70.367)scale(.01107)"/><use xlink:href="#a" transform="rotate(228.901 113.736 -45.443)scale(.0067)"/><use xlink:href="#a" transform="rotate(-9.312 153.97 -1361.338)scale(.01005)"/><use xlink:href="#a" transform="rotate(35.925 103.885 350.42)scale(.00898)"/><use xlink:href="#a" transform="rotate(-92.41 117.272 -103.101)scale(.01461)"/><use xlink:href="#a" transform="rotate(-52.969 121.017 -225.194)scale(.0056)"/><use xlink:href="#a" transform="rotate(135.921 114.372 50.144)scale(.00568)"/><use xlink:href="#a" transform="rotate(-70.793 119.632 -157.516)scale(.01148)"/><use xlink:href="#a" transform="rotate(-53.697 120.801 -224.67)scale(.01276)"/><use xlink:href="#a" transform="rotate(138.623 117.076 47.131)scale(.00546)"/><use xlink:href="#a" transform="rotate(145.345 118.45 39.621)scale(.01051)"/><use xlink:href="#a" transform="rotate(76.065 117.678 153.534)scale(.00761)"/><use xlink:href="#a" transform="rotate(113.882 119.33 79.66)scale(.00823)"/><use xlink:href="#a" transform="rotate(10.022 108.43 1364.043)scale(.007)"/><use xlink:href="#a" transform="rotate(14.362 113.023 954.478)scale(.00556)"/><use xlink:href="#a" transform="rotate(74.848 120.476 158.998)scale(.00594)"/><use xlink:href="#a" transform="rotate(191.628 121.876 -10.76)scale(.00566)"/><use xlink:href="#a" transform="rotate(153.338 122.376 30.272)scale(.00718)"/><use xlink:href="#a" transform="rotate(-29.04 123.05 -469.012)scale(.00762)"/><use xlink:href="#a" transform="rotate(209.036 123.447 -30.57)scale(.0055)"/><use xlink:href="#a" transform="rotate(215.955 124.076 -38.541)scale(.0069)"/><use xlink:href="#a" transform="rotate(-27.935 126.015 -495.173)scale(.00576)"/><use xlink:href="#a" transform="rotate(59.891 125.04 216.865)scale(.01114)"/><use xlink:href="#a" transform="rotate(-51.399 127.601 -257.428)scale(.00624)"/><use xlink:href="#a" transform="rotate(91.776 125.368 123.462)scale(.00596)"/><use xlink:href="#a" transform="rotate(225.446 127.727 -49.985)scale(.01129)"/><use xlink:href="#a" transform="rotate(80.325 126.696 152.658)scale(.00913)"/><use xlink:href="#a" transform="rotate(179.753 128.779 3.118)scale(.00897)"/><use xlink:href="#a" transform="rotate(140.165 128.43 49.145)scale(.00545)"/><use xlink:href="#a" transform="rotate(-54.582 132.98 -245.203)scale(.01316)"/><use xlink:href="#a" transform="rotate(203.742 131.268 -24.06)scale(.0076)"/><use xlink:href="#a" transform="rotate(-32.222 138.73 -447.79)scale(.00672)"/><use xlink:href="#a" transform="rotate(157.782 132.476 29.775)scale(.01427)"/><use xlink:href="#a" transform="rotate(-56.629 137.846 -241.347)scale(.00612)"/><use xlink:href="#a" transform="rotate(252.504 135.582 -93.206)scale(.00703)"/><use xlink:href="#a" transform="rotate(75.096 130.987 177.166)scale(.00952)"/><use xlink:href="#a" transform="rotate(-1.114 402.964 -13717.136)scale(.0143)"/><use xlink:href="#a" transform="rotate(242.247 138.365 -76.527)scale(.01044)"/><use xlink:href="#a" transform="rotate(141.429 135.595 52.267)scale(.00672)"/><use xlink:href="#a" transform="rotate(103.623 135.043 112.376)scale(.01032)"/><use xlink:href="#a" transform="rotate(81.853 133.443 163.356)scale(.00651)"/><use xlink:href="#a" transform="rotate(123.731 136.443 78.917)scale(.00642)"/><use xlink:href="#a" transform="rotate(171.944 139.003 15.213)scale(.00706)"/><use xlink:href="#a" transform="rotate(228.564 142.044 -56.705)scale(.00877)"/><use xlink:href="#a" transform="rotate(-34.031 155.097 -448.596)scale(.01231)"/><use xlink:href="#a" transform="rotate(158.799 141.39 32.762)scale(.0123)"/><use xlink:href="#a" transform="rotate(81.534 136.41 170.233)scale(.00566)"/><use xlink:href="#a" transform="rotate(103.533 139.762 118.545)scale(.0121)"/><use xlink:href="#a" transform="rotate(-91.234 149.377 -133.15)scale(.00682)"/><use xlink:href="#a" transform="rotate(-56.941 154.785 -256.955)scale(.01151)"/><use xlink:href="#a" transform="rotate(116.314 142.887 97.09)scale(.0132)"/><use xlink:href="#a" transform="rotate(150.752 145.176 45.416)scale(.00875)"/><use xlink:href="#a" transform="rotate(112.778 143.61 104.893)scale(.01062)"/><use xlink:href="#a" transform="rotate(77.344 140.362 191.416)scale(.00898)"/><use xlink:href="#a" transform="rotate(168.627 148.364 22.847)scale(.00882)"/><use xlink:href="#a" transform="rotate(28.167 124.32 599.162)scale(.01307)"/><use xlink:href="#a" transform="rotate(-30.944 176.05 -530.083)scale(.01246)"/><use xlink:href="#a" transform="rotate(-81.295 160.25 -166.658)scale(.0069)"/><use xlink:href="#a" transform="rotate(-32.892 177.69 -501.718)scale(.01084)"/><use xlink:href="#a" transform="rotate(-3.843 396.082 -4506.824)scale(.00622)"/><use xlink:href="#a" transform="rotate(-33.443 180.725 -493.057)scale(.00765)"/><use xlink:href="#a" transform="rotate(57.184 135.109 287.134)scale(.00612)"/><use xlink:href="#a" transform="rotate(132.706 148.178 77.3)scale(.01282)"/><use xlink:href="#a" transform="rotate(118.21 145.192 101.758)scale(.00864)"/><use xlink:href="#a" transform="rotate(228.192 156.241 -54.348)scale(.00878)"/><use xlink:href="#a" transform="rotate(253.091 159.908 -96.862)scale(.01214)"/><use xlink:href="#a" transform="rotate(57.945 127.86 283.515)scale(.01142)"/><use xlink:href="#a" transform="rotate(174.9 149.606 21.492)scale(.00572)"/><use xlink:href="#a" transform="rotate(111.4 141.112 117.51)scale(.01412)"/><use xlink:href="#a" transform="rotate(153.958 146.094 50.83)scale(.00638)"/><use xlink:href="#a" transform="rotate(136.987 143.477 75.698)scale(.00838)"/><use xlink:href="#a" transform="rotate(199.174 152.409 -6.87)scale(.01013)"/><use xlink:href="#a" transform="rotate(215.624 155.158 -28.083)scale(.01309)"/><use xlink:href="#a" transform="rotate(30.57 81.199 560.207)scale(.0059)"/><use xlink:href="#a" transform="rotate(109.925 135.733 123.743)scale(.0087)"/><use xlink:href="#a" transform="rotate(162.262 145.779 44.153)scale(.01037)"/><use xlink:href="#a" transform="rotate(50.503 106.306 333.766)scale(.01408)"/><use xlink:href="#a" transform="rotate(-19.545 273.925 -831.745)scale(.0074)"/><use xlink:href="#a" transform="rotate(191.873 150.886 8.732)scale(.0116)"/><use xlink:href="#a" transform="rotate(81.967 122.338 193.76)scale(.01414)"/><use xlink:href="#a" transform="rotate(180.264 147.944 25.138)scale(.00652)"/><use xlink:href="#a" transform="rotate(-29.145 243.28 -535.981)scale(.0128)"/><use xlink:href="#a" transform="rotate(48.782 90.588 350.859)scale(.00677)"/><use xlink:href="#a" transform="rotate(-95.84 171.9 -104.946)scale(.00651)"/><use xlink:href="#a" transform="rotate(108.981 129.61 133.606)scale(.01446)"/><use xlink:href="#a" transform="rotate(165.85 144.878 47.99)scale(.00957)"/><use xlink:href="#a" transform="rotate(-15.562 359.281 -1040.887)scale(.01458)"/><use xlink:href="#a" transform="rotate(104.712 125.592 145.327)scale(.01094)"/><use xlink:href="#a" transform="rotate(247.459 169.803 -65.74)scale(.01043)"/><use xlink:href="#a" transform="rotate(19.065 -39.299 912.653)scale(.01195)"/><use xlink:href="#a" transform="rotate(75.243 107.592 226.553)scale(.01322)"/><use xlink:href="#a" transform="rotate(148.076 140.395 78.037)scale(.01124)"/><use xlink:href="#a" transform="rotate(146.228 140.128 81.96)scale(.01464)"/><use xlink:href="#a" transform="rotate(165.294 145.868 56.801)scale(.01017)"/><use xlink:href="#a" transform="rotate(176.397 149.28 42.68)scale(.00678)"/><use xlink:href="#a" transform="rotate(241.326 172.695 -50.272)scale(.00576)"/><use xlink:href="#a" transform="rotate(218.823 164.229 -13.49)scale(.00856)"/><use xlink:href="#a" transform="rotate(26.03 -16.268 687.84)scale(.0055)"/><use xlink:href="#a" transform="rotate(192.277 155.203 24.017)scale(.00687)"/><use xlink:href="#a" transform="rotate(-57.017 223.964 -235.633)scale(.00671)"/><use xlink:href="#a" transform="rotate(23.83 -36.864 752.017)scale(.0124)"/><use xlink:href="#a" transform="rotate(43.306 48.418 421.57)scale(.00699)"/><use xlink:href="#a" transform="rotate(144.283 138.728 91.563)scale(.00932)"/><use xlink:href="#a" transform="rotate(66.588 87.752 273.308)scale(.00832)"/><use xlink:href="#a" transform="rotate(25.742 -34.138 703.837)scale(.0142)"/><use xlink:href="#a" transform="rotate(-41.797 268.104 -349.865)scale(.01214)"/><use xlink:href="#a" transform="rotate(90.264 107.951 195.72)scale(.00773)"/><use xlink:href="#a" transform="rotate(21.528 -77.696 831.841)scale(.01402)"/><use xlink:href="#a" transform="rotate(-67.84 215.65 -175.839)scale(.00923)"/><use xlink:href="#a" transform="rotate(-47.79 247.998 -287.957)scale(.01182)"/><use xlink:href="#a" transform="rotate(251.354 179.851 -60.486)scale(.00974)"/><use xlink:href="#a" transform="rotate(135.997 130.126 104.101)scale(.00779)"/><use xlink:href="#a" transform="rotate(100.316 111.033 166.423)scale(.00938)"/><use xlink:href="#a" transform="rotate(171.955 143.451 54.956)scale(.01064)"/><use xlink:href="#a" transform="rotate(172.862 142.84 53.598)scale(.00922)"/><use xlink:href="#a" transform="rotate(81.71 94.909 210.226)scale(.0075)"/><use xlink:href="#a" transform="rotate(33.714 1.953 515.812)scale(.00732)"/><use xlink:href="#a" transform="rotate(253.615 175.615 -62.654)scale(.00563)"/><use xlink:href="#a" transform="rotate(54.038 59.717 321.682)scale(.01013)"/><use xlink:href="#a" transform="rotate(256.629 175.85 -67.347)scale(.00846)"/><use xlink:href="#a" transform="rotate(31.76 -5.978 535.2)scale(.01216)"/><use xlink:href="#a" transform="rotate(20.754 -87.444 801.064)scale(.01275)"/><use xlink:href="#a" transform="rotate(-27.593 310.952 -518.685)scale(.0088)"/><use xlink:href="#a" transform="rotate(212.541 151.053 3.529)scale(.01128)"/><use xlink:href="#a" transform="rotate(189.299 141.23 32.099)scale(.00796)"/><use xlink:href="#a" transform="rotate(-31.96 281.009 -427.98)scale(.01477)"/><use xlink:href="#a" transform="rotate(66.718 72.596 247.607)scale(.0056)"/><use xlink:href="#a" transform="rotate(45.88 36.934 360.391)scale(.00549)"/><use xlink:href="#a" transform="rotate(-6.122 902.603 -2448.558)scale(.01202)"/><use xlink:href="#a" transform="rotate(-59.45 206.35 -190.158)scale(.00728)"/><use xlink:href="#a" transform="rotate(-31.946 274.974 -416.424)scale(.01407)"/><use xlink:href="#a" transform="rotate(184.49 133.879 36.873)scale(.00653)"/><use xlink:href="#a" transform="rotate(240.687 155.636 -34.332)scale(.0079)"/><use xlink:href="#a" transform="rotate(129.202 111.91 103.711)scale(.00929)"/><use xlink:href="#a" transform="rotate(250.567 159.01 -48.971)scale(.01075)"/><use xlink:href="#a" transform="rotate(140.636 115.08 87.504)scale(.00793)"/><use xlink:href="#a" transform="rotate(-76.003 180.357 -121.775)scale(.0076)"/><use xlink:href="#a" transform="rotate(-28.362 287.344 -461.32)scale(.00707)"/><use xlink:href="#a" transform="rotate(171.298 124.576 50.992)scale(.00768)"/><use xlink:href="#a" transform="rotate(-66.817 187.426 -148.949)scale(.00936)"/><use xlink:href="#a" transform="rotate(69.744 68.952 220.518)scale(.0074)"/><use xlink:href="#a" transform="rotate(-73.052 179.077 -126.255)scale(.01025)"/><use xlink:href="#a" transform="rotate(129.699 106.435 98.834)scale(.00989)"/><use xlink:href="#a" transform="rotate(-30.67 266.384 -403.57)scale(.01355)"/><use xlink:href="#a" transform="rotate(52.695 44.026 285.78)scale(.00931)"/><use xlink:href="#a" transform="rotate(39.715 13.826 375.079)scale(.00728)"/><use xlink:href="#a" transform="rotate(98.718 87.793 143.561)scale(.00579)"/><use xlink:href="#a" transform="rotate(-83.898 164.167 -92.63)scale(.00985)"/><use xlink:href="#a" transform="rotate(224.151 135.961 -7.375)scale(.01439)"/><use xlink:href="#a" transform="rotate(-63.11 181.922 -152.462)scale(.00609)"/><use xlink:href="#a" transform="rotate(-44.58 211.48 -244.075)scale(.0135)"/><use xlink:href="#a" transform="rotate(126.291 98.587 98.467)scale(.01378)"/><use xlink:href="#a" transform="rotate(9.901 -317.59 1360.602)scale(.01288)"/><use xlink:href="#a" transform="rotate(-70.264 168.747 -121.41)scale(.01288)"/><use xlink:href="#a" transform="rotate(117.34 91.457 107.843)scale(.01072)"/><use xlink:href="#a" transform="rotate(159.816 106.485 58.996)scale(.00638)"/><use xlink:href="#a" transform="rotate(132.754 96.578 88.29)scale(.01347)"/><use xlink:href="#a" transform="rotate(30.749 -27.266 441.512)scale(.00565)"/><use xlink:href="#a" transform="rotate(-42.792 208.408 -240.457)scale(.00932)"/><use xlink:href="#a" transform="rotate(-5.863 845.983 -2075.297)scale(.0145)"/><use xlink:href="#a" transform="rotate(87.7 69.739 151.864)scale(.01118)"/><use xlink:href="#a" transform="rotate(7.4 -482.774 1691.253)scale(.00951)"/><use xlink:href="#a" transform="rotate(246.407 132.687 -29.777)scale(.00759)"/><use xlink:href="#a" transform="rotate(193.933 111.625 27.092)scale(.00876)"/><use xlink:href="#a" transform="rotate(226.567 122.762 -5.405)scale(.00635)"/><use xlink:href="#a" transform="rotate(103.059 74.947 122.83)scale(.00793)"/><use xlink:href="#a" transform="rotate(14.578 -197.571 850.708)scale(.00773)"/><use xlink:href="#a" transform="rotate(-96.22 139.128 -51.435)scale(.01173)"/><use xlink:href="#a" transform="rotate(258.755 135.215 -42.403)scale(.0136)"/><use xlink:href="#a" transform="rotate(-8.672 617.016 -1290.418)scale(.00819)"/><use xlink:href="#a" transform="rotate(-31.157 240.13 -315.567)scale(.01477)"/><use xlink:href="#a" transform="rotate(-41.04 205.05 -224.18)scale(.00772)"/><use xlink:href="#a" transform="rotate(87.816 58.595 143.007)scale(.00633)"/><use xlink:href="#a" transform="rotate(152.593 89.48 64.476)scale(.00639)"/><use xlink:href="#a" transform="matrix(0 .0078 -.0078 0 197.296 78.786)"/><use xlink:href="#a" transform="rotate(67.692 38.976 185.078)scale(.00656)"/><use xlink:href="#a" transform="rotate(163.086 91.535 55.16)scale(.00721)"/><use xlink:href="#a" transform="rotate(-54.187 174.318 -146.065)scale(.00735)"/><use xlink:href="#a" transform="rotate(-69.626 153.135 -95.299)scale(.00906)"/><use xlink:href="#a" transform="rotate(-14.477 407.76 -697.998)scale(.01036)"/><use xlink:href="#a" transform="rotate(177.496 93.695 43.116)scale(.00603)"/><use xlink:href="#a" transform="rotate(9.23 -395.369 1184.527)scale(.01274)"/><use xlink:href="#a" transform="rotate(92.412 55.218 129.28)scale(.0127)"/><use xlink:href="#a" transform="rotate(-80.733 139.149 -64.832)scale(.00986)"/><use xlink:href="#a" transform="rotate(21.194 -123.959 522.786)scale(.00666)"/><use xlink:href="#a" transform="rotate(146.835 78.534 68.091)scale(.00572)"/><use xlink:href="#a" transform="rotate(110.547 62.135 103.229)scale(.0066)"/><use xlink:href="#a" transform="rotate(178.635 89.179 42.846)scale(.0081)"/><use xlink:href="#a" transform="rotate(173.36 86.732 47.003)scale(.01031)"/><use xlink:href="#a" transform="rotate(3.636 -1195.025 2781.861)scale(.00675)"/><use xlink:href="#a" transform="rotate(226.625 105.094 5.272)scale(.0114)"/><use xlink:href="#a" transform="rotate(-.79 6001.014 -12354.97)scale(.00628)"/><use xlink:href="#a" transform="rotate(130.114 67.495 81.675)scale(.01254)"/><use xlink:href="#a" transform="rotate(29.046 -71.75 364.232)scale(.0117)"/><use xlink:href="#a" transform="rotate(-18.888 331.228 -457.187)scale(.00586)"/><use xlink:href="#a" transform="rotate(-55.313 161.386 -113.421)scale(.01201)"/><use xlink:href="#a" transform="rotate(198.983 89.637 29.463)scale(.0136)"/><use xlink:href="#a" transform="rotate(-98.44 116.923 -25.911)scale(.01162)"/><use xlink:href="#a" transform="rotate(166.84 75.638 51.596)scale(.0056)"/><use xlink:href="#a" transform="rotate(148.741 68.48 64.811)scale(.00807)"/><use xlink:href="#a" transform="rotate(245.166 105.925 -7.306)scale(.00666)"/><use xlink:href="#a" transform="rotate(181.949 79.723 42.023)scale(.01212)"/><use xlink:href="#a" transform="rotate(-41.517 188.042 -159.82)scale(.00587)"/><use xlink:href="#a" transform="rotate(50.084 -12.292 206.15)scale(.00599)"/><use xlink:href="#a" transform="rotate(-60.35 148.91 -86.966)scale(.00735)"/><use xlink:href="#a" transform="rotate(176.138 75.086 46.23)scale(.01359)"/><use xlink:href="#a" transform="rotate(38.076 -46.447 257.344)scale(.00713)"/><use xlink:href="#a" transform="rotate(-88.519 117.667 -31.911)scale(.00748)"/><use xlink:href="#a" transform="rotate(22.79 -132.553 400.62)scale(.01405)"/><use xlink:href="#a" transform="rotate(10.063 -408.183 858.114)scale(.00556)"/><use xlink:href="#a" transform="rotate(-92.411 112.776 -24.167)scale(.00939)"/><use xlink:href="#a" transform="rotate(199.029 78.667 32.116)scale(.00934)"/><use xlink:href="#a" transform="rotate(-25.76 254.872 -257.006)scale(.01261 .01262)"/><use xlink:href="#a" transform="rotate(82.593 21.752 121.574)scale(.01195)"/><use xlink:href="#a" transform="rotate(-88.324 112.747 -25.922)scale(.00558)"/><use xlink:href="#a" transform="rotate(176.396 66.903 46.17)scale(.00785)"/><use xlink:href="#a" transform="rotate(193.082 72.438 36.285)scale(.00608)"/><use xlink:href="#a" transform="rotate(178.32 66.452 45.144)scale(.00744)"/><use xlink:href="#a" transform="rotate(89.273 23.702 110.085)scale(.0139)"/><use xlink:href="#a" transform="rotate(-2.906 1759.057 -2481.504)scale(.00755)"/><use xlink:href="#a" transform="rotate(226.026 82.937 17.107)scale(.00592)"/><use xlink:href="#a" transform="rotate(212.633 76.94 26.754)scale(.01354)"/><use xlink:href="#a" transform="rotate(7.483 -600.26 992.096)scale(.0065)"/><use xlink:href="#a" transform="rotate(166.627 57.485 51.886)scale(.00814)"/><use xlink:href="#a" transform="rotate(158.431 53.74 56.344)scale(.01013)"/><use xlink:href="#a" transform="rotate(222.801 78.065 21.239)scale(.00689)"/><use xlink:href="#a" transform="rotate(236.909 84.007 12.324)scale(.00548)"/><use xlink:href="#a" transform="rotate(252.897 92.258 1.133)scale(.0056)"/><use xlink:href="#a" transform="rotate(-15.797 375.473 -376.83)scale(.006)"/><use xlink:href="#a" transform="rotate(61.186 -15.16 142.935)scale(.00616)"/><use xlink:href="#a" transform="rotate(5.802 -807.292 1180.335)scale(.0055)"/><use xlink:href="#a" transform="rotate(-20.176 304.883 -275.763)scale(.00585)"/><use xlink:href="#a" transform="rotate(-5.71 930.716 -1072.666)scale(.0124)"/><use xlink:href="#a" transform="rotate(38.455 -69.334 203.798)scale(.00755)"/><use xlink:href="#a" transform="rotate(26.692 -127.606 273.502)scale(.01313)"/><use xlink:href="#a" transform="rotate(-34.715 195.797 -125.792)scale(.00831)"/><use xlink:href="#a" transform="rotate(139.56 38.264 65.319)scale(.01346)"/><use xlink:href="#a" transform="rotate(-85.945 100.286 -8.55)scale(.01438)"/><use xlink:href="#a" transform="rotate(-9.005 617.843 -600.047)scale(.00584)"/><use xlink:href="#a" transform="rotate(246.313 80.284 13.226)scale(.01022)"/><use xlink:href="#a" transform="rotate(190.081 54.492 41.008)scale(.00838)"/><use xlink:href="#a" transform="rotate(67.75 -15.11 117.429)scale(.00938)"/><use xlink:href="#a" transform="rotate(178.767 48.798 45.775)scale(.01095)"/><use xlink:href="#a" transform="rotate(242.585 74.61 17.096)scale(.0134)"/><use xlink:href="#a" transform="rotate(193.242 52.187 39.246)scale(.00791)"/><use xlink:href="#a" transform="rotate(171.392 43.25 47.692)scale(.00682)"/><use xlink:href="#a" transform="rotate(-61.98 116.586 -28.43)scale(.01453)"/><use xlink:href="#a" transform="rotate(112.892 16.542 72.752)scale(.00724)"/><use xlink:href="#a" transform="rotate(-75.06 99.57 -12.755)scale(.00576)"/><use xlink:href="#a" transform="rotate(154.617 34.452 53.36)scale(.01126)"/><use xlink:href="#a" transform="rotate(24.943 -146.336 230.212)scale(.01033)"/><use xlink:href="#a" transform="rotate(167.768 37.711 47.666)scale(.01072)"/><use xlink:href="#a" transform="rotate(205.025 50.417 34.09)scale(.0082)"/><use xlink:href="#a" transform="rotate(31.172 -107.943 183.478)scale(.00762)"/><use xlink:href="#a" transform="rotate(79.24 -9.828 89.176)scale(.0088)"/><use xlink:href="#a" transform="rotate(225.3 56.332 26.288)scale(.00547)"/><use xlink:href="#a" transform="rotate(-66.015 101.647 -15.05)scale(.0093)"/><use xlink:href="#a" transform="rotate(157.451 29.875 49.466)scale(.00818)"/><use xlink:href="#a" transform="rotate(16.248 -246.635 293.295)scale(.00936)"/><use xlink:href="#a" transform="rotate(-40.6 146.2 -54.393)scale(.00617)"/><use xlink:href="#a" transform="rotate(-75.03 88.671 -4.22)scale(.00602)"/><use xlink:href="#a" transform="rotate(133.264 18.151 56.282)scale(.00663)"/><use xlink:href="#a" transform="rotate(30.211 -114.098 167.381)scale(.00557)"/><use xlink:href="#a" transform="rotate(-2.244 2083.046 -1667.86)scale(.00663)"/><use xlink:href="#a" transform="rotate(208.494 44.146 32.449)scale(.00554)"/><use xlink:href="#a" transform="rotate(3.201 -1389.592 1202.853)scale(.0069)"/><use xlink:href="#a" transform="rotate(160.558 26.682 46.517)scale(.01371)"/><use xlink:href="#a" transform="rotate(22.275 -164.695 193.777)scale(.01279)"/><use xlink:href="#a" transform="rotate(104.581 .61 63.224)scale(.00555)"/><use xlink:href="#a" transform="rotate(257.746 61.864 16.142)scale(.00555)"/><use xlink:href="#a" transform="rotate(-64.442 91.428 -5.464)scale(.00844)"/><use xlink:href="#a" transform="rotate(236.98 50.262 24.809)scale(.0097)"/><use xlink:href="#a" transform="rotate(9.932 -407.218 347.9)scale(.01247)"/><use xlink:href="#a" transform="rotate(220.843 41.805 30.188)scale(.01182)"/><use xlink:href="#a" transform="rotate(61.141 -37.762 82.223)scale(.00717)"/><use xlink:href="#a" transform="rotate(70.216 -27.556 74.258)scale(.00893)"/><use xlink:href="#a" transform="rotate(139.6 11.2 48.043)scale(.0056)"/><use xlink:href="#a" transform="rotate(115.78 1.102 54.271)scale(.00945)"/><use xlink:href="#a" transform="rotate(21.44 -178.715 160.548)scale(.00772)"/><use xlink:href="#a" transform="rotate(181.192 23.866 39.501)scale(.00656)"/><use xlink:href="#a" transform="rotate(-77.912 70.84 13.113)scale(.0077)"/><use xlink:href="#a" transform="rotate(-79.449 69.147 15.658)scale(.01116)"/><use xlink:href="#a" transform="rotate(24.977 -156.074 132.499)scale(.00645)"/><use xlink:href="#a" transform="rotate(201.929 28.799 37.6)scale(.01387)"/><use xlink:href="#a" transform="rotate(181.544 20.485 40.895)scale(.00998)"/><use xlink:href="#a" transform="rotate(-43.79 118.45 -2.584)scale(.00902)"/><use xlink:href="#a" transform="rotate(43.736 -81.439 83.819)scale(.00923)"/><use xlink:href="#a" transform="rotate(136.454 1.44 48.233)scale(.00692)"/><use xlink:href="#a" transform="rotate(195.653 22.655 39.628)scale(.00668)"/><use xlink:href="#a" transform="rotate(-14.245 339.54 -73.082)scale(.01465)"/><use xlink:href="#a" transform="rotate(16.12 -273.08 139.919)scale(.01053)"/><use xlink:href="#a" transform="rotate(46.746 -81.525 73.737)scale(.0066)"/><use xlink:href="#a" transform="rotate(-11.732 415.08 -75.986)scale(.01195)"/><use xlink:href="#a" transform="rotate(148.176 1.126 46.4)scale(.00726)"/><use xlink:href="#a" transform="rotate(53.643 -70.85 65.767)scale(.00674)"/><use xlink:href="#a" transform="rotate(75.835 -41.775 56.978)scale(.01028)"/><use xlink:href="#a" transform="rotate(-98.516 47.675 34.728)scale(.00557)"/><use xlink:href="#a" transform="rotate(83.587 -36.48 54.29)scale(.01129)"/><use xlink:href="#a" transform="rotate(181.728 10.427 43.935)scale(.00711)"/><use xlink:href="#a" transform="rotate(-48.088 104.903 28.704)scale(.01394)"/><use xlink:href="#a" transform="rotate(259.472 44.003 40.277)scale(.0147)"/><use xlink:href="#a" transform="rotate(-96.36 46.056 39.452)scale(.0057)"/><use xlink:href="#a" transform="rotate(150.261 -4.766 46.815)scale(.01386)"/><use xlink:href="#a" transform="rotate(-12.46 405.586 14.926)scale(.0137)"/><use xlink:href="#a" transform="rotate(249.293 35.05 43.567)scale(.01044)"/><use xlink:href="#a" transform="rotate(-76.525 59.036 41.362)scale(.01235)"/><use xlink:href="#a" transform="rotate(-29.027 168.479 31.043)scale(.00647)"/><use xlink:href="#a" transform="rotate(76.868 -48.862 47.102)scale(.0056)"/><use xlink:href="#a" transform="rotate(252.581 34.514 41.168)scale(.0146)"/><use xlink:href="#a" transform="rotate(246.344 30.314 39.59)scale(.00764)"/><use xlink:href="#a" transform="rotate(189.012 6.983 40.492)scale(.00577)"/><use xlink:href="#a" transform="rotate(32.645 -128.352 49.246)scale(.00954)"/><use xlink:href="#a" transform="rotate(56.523 -66.315 44.206)scale(.0105)"/><use xlink:href="#a" transform="rotate(207.823 13.038 37.927)scale(.00628)"/><use xlink:href="#a" transform="rotate(16.361 -248.654 53.059)scale(.0119)"/><use xlink:href="#a" transform="rotate(-90.757 39.122 34.74)scale(.00814)"/><use xlink:href="#a" transform="rotate(45.598 -79.303 41.774)scale(.0098)"/><use xlink:href="#a" transform="rotate(-43.197 89.319 31.064)scale(.0121)"/><use xlink:href="#a" transform="rotate(125.242 -12.942 35.815)scale(.01347)"/><use xlink:href="#a" transform="rotate(213.169 12.877 32.813)scale(.00601)"/><use xlink:href="#a" transform="rotate(166.329 -.403 33.31)scale(.00816)"/><use xlink:href="#a" transform="rotate(-63.569 52.807 29.962)scale(.01357)"/><use xlink:href="#a" transform="rotate(206.108 10.334 31.037)scale(.01166)"/><use xlink:href="#a" transform="rotate(60.458 -45.517 33.18)scale(.01127)"/><use xlink:href="#a" transform="rotate(67.601 -37.315 31.381)scale(.01382)"/><use xlink:href="#a" transform="rotate(96.703 -19.871 29.47)scale(.0137)"/><use xlink:href="#a" transform="rotate(196.464 6.48 26.827)scale(.00742)"/><use xlink:href="#a" transform="rotate(141.381 -5.876 26.988)scale(.00898)"/><use xlink:href="#a" transform="rotate(-2.896 960.233 -28.856)scale(.00928)"/><use xlink:href="#a" transform="rotate(191.954 5.433 25.064)scale(.01312)"/><use xlink:href="#a" transform="rotate(195.085 5.58 23.756)scale(.0092)"/><use xlink:href="#a" transform="rotate(16.016 -151.554 31.057)scale(.00858)"/><use xlink:href="#a" transform="rotate(62.063 -30.995 23.644)scale(.0135)"/><use xlink:href="#a" transform="rotate(169.462 .831 21.498)scale(.01237)"/><use xlink:href="#a" transform="rotate(-5.25 405.907 7.468)scale(.01118)"/><use xlink:href="#a" transform="rotate(-35.208 59.447 15.824)scale(.00596)"/><use xlink:href="#a" transform="rotate(-46.37 42.035 17.824)scale(.01218)"/><use xlink:href="#a" transform="rotate(-98.339 16.156 17.4)scale(.00957)"/><use xlink:href="#a" transform="rotate(71.924 -18.99 17.628)scale(.01078)"/><use xlink:href="#a" transform="rotate(-95.99 14.949 16.344)scale(.01418)"/><use xlink:href="#a" transform="rotate(132.054 -4.295 15.126)scale(.00815)"/><defs><path id="a" fill="#2b2816" d="M215.823 333.963c0-.733.3-1.033.667-.667a.95.95 0 0 1 0 1.334c-.367.366-.667.066-.667-.667M143.424 3.977c4.632-.653 8.099 4.826 5.302 8.382-1.951 2.48-2.551 5.604-1.078 5.604.905.004 11.175 12.34 11.175 13.423 0 1.076-4.344 5.111-6.316 5.868-1.898.728-1.434 2.71.633 2.71.661 0 1.78.924 2.486 2.056 1.284 2.054 1.286 2.054 2.991.057.938-1.1 2.606-2.139 3.706-2.307s2.33-.757 2.734-1.307c.415-.565.741-.238.75.75.018 2.14.447 2.169 3.408.229 1.623-1.063 2.19-2.212 1.884-3.81-1.049-5.489 4.864-5.512 14.402-.058 5.289 3.024 5.527 3.005 7.663-.61 3.023-5.119 9.966-1.694 8.152 4.02-.515 1.623-.183 2.247 1.417 2.666 1.15.3 2.09.945 2.09 1.43.001.485.9.883 2 .883 2.405 0 2.51-.633.446-2.697-1.937-1.936-1.511-6.247.756-7.667 2.444-1.53 3.085-.336 1.976 3.68-.844 3.057-.725 3.569.927 4 1.042.274 1.895 1.215 1.895 2.09.001 2.117 3.922 2.083 5.479-.046 1.634-2.235 4.962-.366 4.996 2.806.022 2.026.585 2.375 4.275 2.641 3.903.283 4.25.113 4.25-2.089q0-2.397 2.547-3.556c5.794-2.64 9.087-.056 7.912 6.206-.627 3.341-.627 3.341 7.125 4.043 13.323 1.209 21.701 9.211 10.916 10.427-1.65.187-3.533.779-4.183 1.316-.772.639-2.504.61-5-.082-4.664-1.295-5.317-1.318-5.317-.18 0 .89 3.547 2.107 7.692 2.639 3.814.489 4.527 1.472 3.864 5.335-1.584 9.224-1.538 9.134-4.694 9.134-1.732 0-2.721-.419-2.362-1 .34-.55.194-1-.324-1-.519 0-1.178-.9-1.466-2-.316-1.208-1.364-2-2.648-2-1.169 0-2.425-.787-2.793-1.75-.688-1.803-.846-2.03-4.339-6.25-2.069-2.5-2.069-2.5-1.491.21.443 2.079.097 2.968-1.49 3.817-3.053 1.634-2.358 6.6.861 6.15 1.27-.178 2.952.21 3.737.862.841.698 2.53.908 4.115.51 2.465-.619 2.57-.53 1.263 1.08-.904 1.113-.968 1.48-.175 1.004 1.207-.725 1.687.683 1.482 4.336-.045.808 1.226 3.249 2.826 5.425 2.411 3.278 2.808 4.595 2.313 7.686-.499 3.124-.251 3.915 1.528 4.868 1.738.93 1.934 1.496 1.067 3.115-.582 1.088-.743 2.489-.358 3.114 1.359 2.199-6.627-.001-11.342-3.124-8.698-5.762-10.731-2.813-8.924 12.947.221 1.925-.023 4.035-.543 4.69-2.291 2.887-.482 6.804 3.201 6.932 1.925.067 3.95.231 4.5.365s1.77.166 2.711.072c2.294-.23 5.828 1.736 5.529 3.076-.429 1.92 7.577 1.339 13.716-.996 3.275-1.246 6.763-2.054 7.75-1.795 1.097.287 1.794-.077 1.794-.937 0-.773-.9-1.407-2-1.407-2.468 0-2.532-1.121-.227-3.967 1.774-2.19 1.774-2.191 3.655-.112 3.099 3.423 8.159.85 5.79-2.944-.993-1.589-.581-2.041 3.321-3.645 2.449-1.007 4.455-2.169 4.457-2.582s.443-.75.979-.75c1.288 0 .183 5.855-1.664 8.817-1.092 1.751-1.167 2.651-.309 3.686 1.283 1.545-.226 5.368-2.692 6.822-.804.474-1.149 1.608-.812 2.669.406 1.279-.025 2.039-1.405 2.477-1.193.378-1.772 1.202-1.445 2.054.599 1.563-1.168 3.716-3.898 4.75-.962.364-1.75 1.619-1.75 2.789 0 2.226-3.33 7.595-5.963 9.615-1.366 1.047-1.342 1.254.215 1.857 1.184.459 2.39-.086 3.717-1.678 2.104-2.526 2.666-1.913 1.038 1.131-.844 1.574-.541 1.954 2 2.512 3.869.85 4.064 4.832.493 10.094-3.324 4.898-3.182 6.036 1.488 11.905 2.188 2.75 5.447 7.129 7.244 9.732 2.93 4.244 6.768 6.38 6.768 3.768 0-.55 1.035-1 2.3-1s2.746-.446 3.29-.99c.62-.62 2.15-.657 4.088-.101 2.392.686 3.469.516 4.728-.744 4.803-4.802 6.925 3.04 2.546 9.405-3.724 5.412-1.48 4.855 3.795-.941 1.786-1.963 3.851-3.336 4.59-3.052.738.282 1.92-.181 2.625-1.031 1.934-2.33 4.935-1.866 6.224.963 1.583 3.475-.177 6.436-7.813 13.14-6.161 5.409-6.161 5.409-3.267 8.303q6.73 6.731-2.936 8.665c-2.37.473-3.292.23-3.762-.995-.888-2.314-2.696-2.009-5.448.92-2.037 2.169-2.206 2.834-1.151 4.523 1.864 2.986.028 5.71-3.506 5.2-4.597-.663-9.708 5.273-8.219 9.547.611 1.753 1.63 3.202 2.264 3.219s.361.49-.606 1.054c-.967.563-2.166.771-2.665.463-.498-.308-1.136-.096-1.417.471-.28.567-.375.457-.21-.244a1.32 1.32 0 0 1 1.594-.969c1.051.249 1.054.018.019-1.229-.82-.989-2.396-1.39-4.419-1.124a92 92 0 0 1-6.144.558c-1.65.081-2.437.374-1.75.651.688.279 1.25 1.087 1.25 1.799s.675 1.854 1.5 2.539c5.107 4.238-.167 9.564-11.856 11.977-5.805 1.198-5.851 1.236-5.25 4.241.333 1.668.606 4.11.606 5.428 0 1.565.84 2.78 2.421 3.5 1.427.65 2.204 1.669 1.892 2.481-1.315 3.427.629 6.545 3.665 5.878 3.965-.871 7.62 1.069 5.906 3.134-.684.825-2.082 1.281-3.105 1.013-1.464-.382-1.732-.077-1.254 1.431.545 1.717.081 1.917-4.459 1.917-5.146 0-6.794-1.89-2.64-3.028 2.787-.763 3.151-3.008.595-3.677-1.452-.379-1.789-.821-.999-1.309 1.624-1.003.253-6.985-1.601-6.986-.782 0-1.421-.392-1.421-.872s-1.851-1.168-4.114-1.53c-2.276-.364-4.845-1.556-5.75-2.669-1.563-1.921-1.645-1.764-1.848 3.531-.199 5.212-.072 5.54 2.143 5.54 5.607 0 3.707 7.564-2.136 8.502-2.087.335-5.28 1.263-7.096 2.062-2.486 1.094-3.803 1.183-5.335.363-2.367-1.266-3.36-.663-2.519 1.53.326.849 1.676 1.543 3.001 1.543 3.904 0 5.075 2.286 3.115 6.077-1.665 3.218-1.666 3.218-13.063 2.607s-11.398-.611-11.398 2.418c0 8.621-10.579 8.949-12.836.398-1.025-3.886-7.44-4.574-7.971-.856-.417 2.928-5.229 3.934-5.933 1.241-.544-2.077-1.366-2.361-2.81-.97-.522.504-2.075 1.066-3.45 1.25-1.71.229-2.602 1.053-2.823 2.609-.261 1.844-.83 2.2-3 1.878-1.472-.218-2.582-.851-2.467-1.405.116-.555-.672-1.807-1.75-2.783-1.881-1.703-1.962-1.698-2.002.131-.024 1.048-1.416 3.03-3.095 4.405a541 541 0 0 0-5.708 4.749c-4.916 4.164-8.422 2.715-9.677-3.999-.385-2.061-.881-3.749-1.102-3.75s-3.649.9-7.619 2c-14.524 4.025-29-2.533-15.77-7.145 1.657-.578 3.013-1.445 3.013-1.928s-1.155-.438-2.566.098c-2.123.807-3.159.524-6-1.643-3.139-2.394-4.983-5.457-2.279-3.787.716.443.883.275.439-.443-1.049-1.697-4.913.576-4.188 2.464.811 2.113-2.281 2.937-3.707.987-1.831-2.504-6.976.008-6.236 3.044 1.341 5.502-5.446 8.159-7.44 2.914-.95-2.498-5.437-1.816-9.523 1.446-1.865 1.489-6.803 1.559-7.292.104-.259-.768-.013-1.108.549-.761.56.346.996.071.973-.61-.161-4.454.444-5.606 3.52-6.697 3.668-1.3 2.102-3.54-3.25-4.647-1.375-.284-3.306-.954-4.29-1.489-.986-.536-2.157-.749-2.603-.473-.448.276-1.667-.136-2.71-.916-1.793-1.341-1.767-1.385.487-.816 1.773.448 2.26.242 1.896-.8-.268-.771-1.228-1.27-2.134-1.108s-1.646-.113-1.646-.61c0-1.368-6.697-8.183-8.04-8.184-1.264 0-.447 5.053.968 5.991 1.274.844.882 7.15-.413 6.653-.657-.252-1.123.469-1.084 1.676.084 2.591-2.923 3.446-3.828 1.089-.357-.929.047-2.752.897-4.05 1.424-2.172 1.405-2.362-.227-2.394-.976-.02-2.897-.658-4.27-1.418-1.696-.939-2.884-1.061-3.702-.382-1.603 1.33-5.582.011-4.95-1.641.545-1.42-1.94-5.524-3.343-5.524-1.258 0-10.008-8.116-10.008-9.282 0-.581 1.664-.708 4.125-.314 3.832.613 4.086.511 3.58-1.429-.45-1.717-.294-1.879.874-.91 2.272 1.886 1.639-.557-.69-2.659-1.16-1.048-2.975-3.744-4.033-5.992-1.69-3.592-9.922-9.936-15.158-11.681-3.332-1.111 3.063-11.87 6.517-10.966 1.767.462 1.998.235 1.38-1.356-1.235-3.177-1.163-3.926.35-3.596 2.291.498 6.055-1.977 6.055-3.984 0-1.079.72-1.831 1.755-1.831 2.437 0 4.522-6.525 2.596-8.124-.743-.616-1.35-1.939-1.35-2.939-.001-1.001-.451-2.097-1-2.437-.55-.34-1-1.518-1-2.618s-.404-1.752-.895-1.448c-.49.303-1.843-1.357-3.005-3.691s-2.66-5.143-3.328-6.243-2.239-3.678-3.493-5.729c-2.852-4.664-2.888-7.741-.126-10.706 1.922-2.063 1.98-2.41.542-3.215-.887-.497-1.358-1.568-1.045-2.382.387-1.012-.573-1.955-3.043-2.987-1.984-.829-3.645-2.064-3.69-2.744-.242-3.637-1.198-7.557-2.465-10.115-.785-1.582-1.159-3.945-.832-5.25.405-1.611.16-2.392-.764-2.435-.746-.035-.333-.475.918-.977 2.606-1.047 2.206-5.5-.687-7.629-4.752-3.496-5.041-3.891-4.456-6.081.33-1.238 1.379-2.25 2.33-2.25.95 0 2.543-.9 3.538-2s2.231-2 2.745-2 1.779-1.012 2.81-2.25c1.615-1.934 1.883-2.003 1.912-.49.018.968-.867 2.53-1.967 3.472-2.538 2.173-2.518 2.899.1 3.584 1.157.303 1.805 1.029 1.442 1.617-.363.587-.445 1.067-.183 1.067.263 0 1.25.298 2.196.66 1.212.464 1.572.243 1.224-.75-.57-1.629 2.992-7.17 4.15-6.454.427.264 1.613-.132 2.636-.879 2.017-1.475.615-4.576-2.069-4.577-1.332 0-4.101-8.453-3.604-11 .162-.825.239-3.222.17-5.326-.108-3.399.22-3.954 2.949-4.984 2.134-.806 3.024-1.774 2.919-3.175-.26-3.456.036-4.654 1-4.058a1.09 1.09 0 0 0 1.502-.347c.313-.507 1.402-.705 2.42-.438 2.56.669 5.59-2.434 4.113-4.214-.807-.972-.795-1.907.043-3.472.63-1.178.9-2.782.6-3.564-.38-.993.2-1.422 1.923-1.422 1.358 0 2.469-.45 2.47-1 0-.55-.437-1-.97-1s-.71-.675-.393-1.5c.33-.861.02-1.5-.73-1.5-1.018 0-1.041-.267-.108-1.2.66-.66 1.2-1.948 1.2-2.862 0-1.277 1.32-1.818 5.684-2.331 3.126-.367 6.276-1.159 7-1.76 1.767-1.466 1.673-3.846-.153-3.847-.894 0-1.243.586-.893 1.5.363.945-.011 1.5-1.011 1.5-1.986 0-1.574-5.786.506-7.103 3.478-2.204-2.762-.68-7.275 1.776-3.573 1.945-5.211 2.374-6.012 1.573-.743-.743-1.913-.79-3.605-.148-4.224 1.606-6.24.29-6.24-4.07 0-4.477 3.34-6.913 15.25-11.124 7.366-2.604 7.512-2.802 5.108-6.871-1.99-3.368-1.188-7.635 1.6-8.52 2.676-.849 9.035.449 9.056 1.848.042 3.128 1.618 3.829 5.793 2.579 4.398-1.318 5.909-3.37 4.09-5.56-.88-1.063-.605-1.805 1.234-3.325 2.036-1.682 2.524-1.753 3.477-.506 1.928 2.52 17.01-1.493 15.954-4.243-.865-2.257 4.422-5.084 5.593-2.991 1.402 2.505 4.122 2.048 7.252-1.219 2.783-2.905 2.783-2.905.625-5.062-3.774-3.774-.756-10.609 4.56-10.326 5.589.297 6.264.495 5.822 1.71-.217.595-.005 1.692.47 2.437 1.046 1.642 5.668-.946 6.598-3.694.309-.914 3.365-3.792 6.79-6.397 3.42-2.6 6.265-4.737 6.328-4.75m65.339 318.986c.582 0 1.06.45 1.06 1s-.198 1-.441 1-.719-.45-1.059-1-.141-.999.44-1m-91.94-7.618c0-.825.45-1.222 1-.882s1 1.294 1 2.119c0 .824-.45 1.221-1 .881s-1-1.293-1-2.118m85.5-1.382c.275 0 .5.225.5.5s-.225.5-.5.5a.5.5 0 0 1-.5-.5c0-.275.225-.5.5-.5m-127.56-8c.582 0 1.06.45 1.06 1s-.198 1-.441 1-.72-.45-1.059-1c-.34-.55-.141-.999.44-1m-2.94-1c.55 0 1 .45 1 1s-.45 1-1 1-1-.45-1-1 .45-1 1-1m60 1.107c0-1.644-2.785-1.984-4.653-.57-1.705 1.292-1.597 1.402 1.403 1.431 1.787.018 3.25-.37 3.25-.861m-45-2.107c.733 0 1.033.3.667.667a.95.95 0 0 1-1.334 0c-.366-.367-.066-.667.667-.667m-9.583.079c1.054-.043 1.644.193 1.312.525s-1.195.368-1.916.079c-.798-.319-.56-.556.604-.604m1.583-3.079c.55 0 1 .45 1 1s-.45 1-1 1-1-.45-1-1 .45-1 1-1m-8.5-1c.825 0 1.5.661 1.5 1.469 0 .894-.586 1.243-1.5.893-.825-.317-1.5-.978-1.5-1.469s.675-.893 1.5-.893m-.5-8c.55 0 1 .198 1 .441s-.45.719-1 1.059-1 .141-1-.441.45-1.059 1-1.059m200.5-6c.825 0 1.5.17 1.5.378 0 .207-.675.938-1.5 1.622-1.229 1.02-1.5.951-1.5-.378 0-.892.675-1.622 1.5-1.622m5-1c.275 0 .5.225.5.5s-.225.5-.5.5a.5.5 0 0 1-.5-.5c0-.275.225-.5.5-.5m-1.808-3.641c.54-1.409.707-1.398 1.549.107 1.058 1.89.425 3.064-1.132 2.102-.561-.349-.749-1.342-.417-2.209m-3.534-.359c0-1.375.227-1.937.504-1.25.278.688.278 1.813 0 2.5-.277.688-.504.125-.504-1.25m2.342-1c.275 0 .5.225.5.5s-.225.5-.5.5a.5.5 0 0 1-.5-.5c0-.275.225-.5.5-.5m-5.844-1.455q-.555-1.444.895-.886c1.68.645 1.794 1.01.554 1.776-.493.305-1.145-.096-1.449-.89m6.844-.545c.275 0 .5.225.5.5s-.225.5-.5.5a.5.5 0 0 1-.5-.5c0-.275.225-.5.5-.5m39.5-3c0-.733.3-1.033.667-.667a.95.95 0 0 1 0 1.334c-.367.366-.667.066-.667-.667m-6-10.441c0-1.757.6-2.015 1.457-.628.317.512.118 1.214-.441 1.56-.559.344-1.016-.075-1.016-.932M39.241 257.57c-2.373-.911-2.69-.758-2.025.975.334.87.607 1.77.607 2s.675.418 1.5.418c1.99 0 1.928-2.622-.082-3.393m255.48-5.607c1.658 0 8.149 6.113 7.54 7.101-1.492 2.413-6.742-.804-7.918-4.851-.379-1.302-.22-2.249.378-2.25m-20.398 4c-.275 0-.5.225-.5.5s.225.5.5.5.5-.225.5-.5-.225-.5-.5-.5m-6-3c-.275 0-.5.225-.5.5s.225.5.5.5.5-.225.5-.5-.225-.5-.5-.5m-1.677-3.667c-.389-2.009-2.386-2.848-3.29-1.385-.88 1.423.242 3.052 2.099 3.052.876 0 1.378-.703 1.191-1.667m2.677.667c-.275 0-.5.225-.5.5s.225.5.5.5.5-.225.5-.5-.225-.5-.5-.5m-245-17c.275 0 .5.225.5.5s-.225.5-.5.5a.5.5 0 0 1-.5-.5c0-.275.225-.5.5-.5m2 0c.275 0 .5.225.5.5s-.225.5-.5.5a.5.5 0 0 1-.5-.5c0-.275.225-.5.5-.5m4-50c-.275 0-.5.225-.5.5s.225.5.5.5.5-.225.5-.5-.225-.5-.5-.5m-4.5 0c.733 0 1.033.3.667.667a.95.95 0 0 1-1.334 0c-.366-.367-.066-.667.667-.667m-1.281-14.918c.165-2.193-1.234-3.676-2.118-2.246-.295.478.026 1.64.713 2.579 1.154 1.578 1.263 1.552 1.405-.333m1.781-2.082c-.275 0-.5.225-.5.5s.225.5.5.5.5-.225.5-.5-.225-.5-.5-.5m251.7-11.799c3.351-3.351 7.363-.019 6.367 5.289-.771 4.111-2.856 4.579-5.624 1.26-2.183-2.616-2.436-4.856-.743-6.549m-277.2 2.799c.733 0 1.033.3.667.667a.95.95 0 0 1-1.334 0c-.366-.367-.066-.667.667-.667m286.094-9c.498 0 .906.9.906 2s-.173 1.999-.383 2-.619-.9-.907-2c-.287-1.1-.115-2 .384-2m-1.594-2c.275 0 .5.225.5.5s-.225.5-.5.5a.5.5 0 0 1-.5-.5c0-.275.225-.5.5-.5m7.882-3c.275 0 .778.45 1.118 1s.393 1 .118 1-.778-.45-1.118-1-.393-1-.118-1M18.68 133.08c.195-.064.119.503-.172 1.261s0 1.909.643 2.557c.9.904.602.968-1.277.276-3.058-1.127-3.74-2.892-1.356-3.51.992-.257 1.965-.52 2.162-.584m8.81-1.45c1.116-1.117 2-.749 2 .833 0 .825-.6 1.5-1.334 1.5-1.419 0-1.77-1.229-.666-2.333m266.273.333c.582 0 1.06.45 1.06 1s-.198 1-.441 1-.719-.45-1.059-1-.141-.999.44-1m2.56 1c.275 0 .5.225.5.5s-.225.5-.5.5a.5.5 0 0 1-.5-.5c0-.275.225-.5.5-.5m-275.5-4c.55 0 1 .675 1 1.5s-.45 1.5-1 1.5-1-.675-1-1.5.45-1.5 1-1.5m282 .128c3.258-1.305 5-1.362 5-.163 0 1.749-3.891 3.196-5.763 2.142-1.557-.876-1.478-1.081.763-1.979m-288.434-3.23c3.127-1.225 4.078-.943 2.037.602-1.044.79-2.364 1.148-2.934.795-.598-.369-.218-.96.896-1.397m276.493-.898c.518 0 .941.45.941 1s-.703 1-1.56 1c-.856 0-1.28-.45-.94-1s1.041-1 1.559-1m-37.559-20c-.275 0-.5.225-.5.5s.225.5.5.5.5-.225.5-.5-.225-.5-.5-.5m-215-3c.275 0 .5.225.5.5s-.225.5-.5.5a.5.5 0 0 1-.5-.5c0-.275.225-.5.5-.5m5-1c.275 0 .5.225.5.5s-.225.5-.5.5a.5.5 0 0 1-.5-.5c0-.275.225-.5.5-.5m-11.25-5.017c1.787-1.093 3.85-1.76 4.582-1.485.732.276 2.082.538 3 .581.999.047 1.176.279.442.576-.673.272-1.452.35-1.73.17-.278-.178-1.215.687-2.081 1.925-1.028 1.467-2.602 2.25-4.52 2.25-3.852 0-3.733-1.546.307-4.017m228.25 3.017c.275 0 .5.225.5.5s-.225.5-.5.5a.5.5 0 0 1-.5-.5c0-.275.225-.5.5-.5m-218-1c.275 0 .5.225.5.5s-.225.5-.5.5a.5.5 0 0 1-.5-.5c0-.275.225-.5.5-.5m12.32-8.171c-.347-2.352-2.271-3.527-3.232-1.972-.907 1.468.44 4.143 2.089 4.143.932 0 1.346-.787 1.143-2.171m184.68-14.829c.275 0 .5.225.5.5s-.225.5-.5.5a.5.5 0 0 1-.5-.5c0-.275.225-.5.5-.5m34.5-2.004c0-.513.675-.721 1.5-.464.825.258 2.25.709 3.167 1.001 1.174.376 1.353.846.607 1.592-1.18 1.18-5.273-.473-5.274-2.129M69.807 71.213c.022-1.797-1.658-1.54-2.39.364-.392 1.023-1.345 1.423-2.606 1.093-1.092-.285-1.987-.16-1.988.278s1.195 1.099 2.655 1.466c2.667.668 4.296-.536 4.33-3.2m174.575-2.25c-.243 0-.719.45-1.059 1s-.141 1 .44 1c.582 0 1.06-.45 1.06-1s-.198-1-.441-1m-3.059-1c-.275 0-.5.225-.5.5s.225.5.5.5.5-.225.5-.5-.225-.5-.5-.5m-97.083-21.92c-1.165.047-1.402.284-.604.603.721.289 1.584.253 1.916-.08.332-.331-.258-.567-1.312-.524m37.583-2.08c-.733 0-1.033.3-.667.667a.95.95 0 0 0 1.334 0c.366-.367.066-.667-.667-.667m-34.478-9.63c-1.136-.435-1.813.026-2.198 1.5-.307 1.172-1.18 2.13-1.941 2.13-.76 0-1.383.45-1.383 1 0 1.52 2.594 1.195 4-.5.685-.825 2.288-1.5 3.563-1.5s2.597-.45 2.937-1-.272-1-1.359-1c-1.088 0-2.717-.283-3.619-.63m-8.398 2.363c-.988-.98-1.102-.865-.56.56.376.986.935 1.54 1.243 1.233s.001-1.114-.683-1.793m21.376-6.733c.275 0 .5.225.5.5s-.225.5-.5.5a.5.5 0 0 1-.5-.5c0-.275.225-.5.5-.5m45.5-1c.733 0 1.033.3.667.667a.95.95 0 0 1-1.334 0c-.366-.367-.066-.667.667-.667m5-4c.55 0 1 .198 1 .44 0 .244-.45.72-1 1.06s-1 .14-1-.441c0-.582.45-1.059 1-1.059m-34.5 0c.275 0 .5.225.5.5s-.225.5-.5.5a.5.5 0 0 1-.5-.5c0-.275.225-.5.5-.5m-3.5-6c.733 0 1.033.3.667.667a.95.95 0 0 1-1.334 0c-.366-.367-.066-.667.667-.667m1-3c0-.733.3-1.033.667-.667a.95.95 0 0 1 0 1.334c-.367.366-.667.066-.667-.667m35-2c.733 0 1.033.3.667.667a.95.95 0 0 1-1.334 0c-.366-.367-.066-.667.667-.667m-31.5-1c.275 0 .5.225.5.5s-.225.5-.5.5a.5.5 0 0 1-.5-.5c0-.275.225-.5.5-.5m-11-2c.275 0 .5.225.5.5s-.225.5-.5.5a.5.5 0 0 1-.5-.5c0-.275.225-.5.5-.5m9.5 0c0-.733.3-1.033.667-.667a.95.95 0 0 1 0 1.334c-.367.366-.667.066-.667-.667m-4.5-1c.275 0 .5.225.5.5s-.225.5-.5.5a.5.5 0 0 1-.5-.5c0-.275.225-.5.5-.5m-38.941-3c.243 0 .441.45.441 1s-.478 1-1.06 1c-.581 0-.78-.45-.44-1s.816-1 1.059-1m-9.559 1c.733 0 1.033.3.667.667a.95.95 0 0 1-1.334 0c-.366-.367-.066-.667.667-.667m44.381-5.652c2.929-2.519 5.619-3.082 5.619-1.177 0 1.726-3.081 4.829-4.795 4.83-.816 0-2.026.74-2.688 1.645-1.062 1.452-1.184 1.375-1.035-.65.093-1.265 1.398-3.356 2.899-4.648" data-figma-scatter="f0.51_w0.06_aj180_sj0.65_r0_s0_sw3" data-figma-scatter-ref="stroke0_206_8416_ref"/></defs></svg>