<svg xmlns="http://www.w3.org/2000/svg" xmlns:xlink="http://www.w3.org/1999/xlink" width="432" height="52" fill="none" viewBox="0 0 432 52"><path fill="#e0cea5" fill-opacity=".56" d="M34.284 2.046 2.219 11.68v3.29L8.492 28.6 2.22 45.52l120.593 3.525 172.175-3.525 126.867 3.525-10.456-14.1 18.821-19.975-8.365-12.925-104.56 5.405c-37.642-.862-124.497-2.068-170.782 0-31.229 1.128-87.83-3.134-112.228-5.405"/><use xlink:href="#a" transform="rotate(-80.896 7.821 6.047)scale(.0084)"/><use xlink:href="#a" transform="rotate(178.421 3.07 6.766)scale(.01382)"/><use xlink:href="#a" transform="rotate(49.422 -7.13 10.727)scale(.00595)"/><use xlink:href="#a" transform="rotate(82.637 -1.284 8.993)scale(.0076)"/><use xlink:href="#a" transform="rotate(197.873 4.984 4.875)scale(.00556)"/><use xlink:href="#a" transform="rotate(114.593 2.842 8.102)scale(.01074)"/><use xlink:href="#a" transform="rotate(-20.875 25.906 -18.764)scale(.011)"/><use xlink:href="#a" transform="rotate(21.572 -13.628 34.036)scale(.00636)"/><use xlink:href="#a" transform="rotate(-42.947 15.962 -9.81)scale(.01095)"/><use xlink:href="#a" transform="rotate(94.12 5.474 10.908)scale(.00939)"/><use xlink:href="#a" transform="rotate(245.408 10.968 -.303)scale(.0103)"/><use xlink:href="#a" transform="rotate(192.236 9.731 2.985)scale(.00552)"/><use xlink:href="#a" transform="rotate(-46.385 16.242 -16.577)scale(.00872)"/><use xlink:href="#a" transform="rotate(-68.728 14.333 -10.56)scale(.00562)"/><use xlink:href="#a" transform="rotate(237.621 12.93 -1.4)scale(.0122)"/><use xlink:href="#a" transform="rotate(187.514 13.09 3.009)scale(.0141)"/><use xlink:href="#a" transform="rotate(-45.648 17.642 -26.055)scale(.00614)"/><use xlink:href="#a" transform="rotate(80.84 11.94 17.63)scale(.00728)"/><use xlink:href="#a" transform="rotate(192.15 14.638 1.316)scale(.00806)"/><use xlink:href="#a" transform="rotate(91.412 14.494 15.998)scale(.01023)"/><use xlink:href="#a" transform="rotate(230.411 16.21 -4.822)scale(.00567)"/><use xlink:href="#a" transform="rotate(146.636 15.938 6.557)scale(.00655)"/><use xlink:href="#a" transform="rotate(9.812 8.506 184.162)scale(.00727)"/><use xlink:href="#a" transform="rotate(37.942 15.801 48.91)scale(.007)"/><use xlink:href="#a" transform="rotate(198.226 18.383 -.697)scale(.01046)"/><use xlink:href="#a" transform="rotate(99.123 19.748 17.138)scale(.01433)"/><use xlink:href="#a" transform="rotate(52.99 18.443 39.594)scale(.00598)"/><use xlink:href="#a" transform="rotate(64.734 19.428 32.339)scale(.0069)"/><use xlink:href="#a" transform="rotate(98.143 20.117 19.165)scale(.00578)"/><use xlink:href="#a" transform="rotate(250.566 22.363 -11.997)scale(.0114)"/><use xlink:href="#a" transform="rotate(207.947 22.613 -3.338)scale(.00622)"/><use xlink:href="#a" transform="rotate(77.177 21.493 29.428)scale(.00545)"/><use xlink:href="#a" transform="rotate(27.717 20.679 92.34)scale(.00857)"/><use xlink:href="#a" transform="rotate(176.679 24.766 3.26)scale(.01203)"/><use xlink:href="#a" transform="rotate(39.175 21.43 69.82)scale(.00554)"/><use xlink:href="#a" transform="rotate(182.407 25.682 1.717)scale(.0073)"/><use xlink:href="#a" transform="rotate(-28.614 29.233 -94.278)scale(.0143)"/><use xlink:href="#a" transform="rotate(135.824 28 13.565)scale(.01397)"/><use xlink:href="#a" transform="rotate(-31.968 32.195 -92.116)scale(.0123)"/><use xlink:href="#a" transform="rotate(85.08 28.996 33.868)scale(.01188)"/><use xlink:href="#a" transform="rotate(164.572 30.886 6.884)scale(.0107)"/><use xlink:href="#a" transform="rotate(-47.994 34.93 -65.175)scale(.00814)"/><use xlink:href="#a" transform="rotate(-79.408 34.28 -33.696)scale(.01303)"/><use xlink:href="#a" transform="rotate(-85.34 35.193 -31.686)scale(.00826)"/><use xlink:href="#a" transform="rotate(34.078 30.084 109.605)scale(.01155)"/><use xlink:href="#a" transform="rotate(-18.848 43.482 -198.25)scale(.01307)"/><use xlink:href="#a" transform="rotate(125.38 34.925 20.974)scale(.00655)"/><use xlink:href="#a" transform="rotate(84.047 34.799 42.463)scale(.00924)"/><use xlink:href="#a" transform="rotate(145.718 37.704 14.917)scale(.0143)"/><use xlink:href="#a" transform="rotate(84.073 36.943 44.778)scale(.01064)"/><use xlink:href="#a" transform="rotate(-74.962 42.143 -46.606)scale(.00604)"/><use xlink:href="#a" transform="rotate(-77.011 42.637 -44.73)scale(.0113)"/><use xlink:href="#a" transform="rotate(165.661 41.184 8.844)scale(.01219)"/><use xlink:href="#a" transform="rotate(74.287 39.05 57.195)scale(.00838)"/><use xlink:href="#a" transform="rotate(-88.552 45.084 -38.302)scale(.01152)"/><use xlink:href="#a" transform="rotate(8.497 16.113 571.572)scale(.01025)"/><use xlink:href="#a" transform="rotate(132.299 43.943 22.995)scale(.01151)"/><use xlink:href="#a" transform="rotate(28.395 35.888 177.949)scale(.00775)"/><use xlink:href="#a" transform="rotate(250.339 47.568 -28.03)scale(.00593)"/><use xlink:href="#a" transform="rotate(55.697 42.302 89.457)scale(.01005)"/><use xlink:href="#a" transform="rotate(28.965 37.639 182.115)scale(.00729)"/><use xlink:href="#a" transform="rotate(247.423 49.614 -27.315)scale(.0069)"/><use xlink:href="#a" transform="rotate(14.985 32.804 361.908)scale(.01299)"/><use xlink:href="#a" transform="rotate(78.727 46.854 62.985)scale(.01027)"/><use xlink:href="#a" transform="rotate(191.43 50.624 -1.017)scale(.00704)"/><use xlink:href="#a" transform="rotate(-90.625 53.682 -45.233)scale(.0078)"/><use xlink:href="#a" transform="rotate(215.286 52.596 -12.006)scale(.00852)"/><use xlink:href="#a" transform="rotate(115.67 51.388 36.475)scale(.01204)"/><use xlink:href="#a" transform="rotate(95.85 50.486 51.039)scale(.00579)"/><use xlink:href="#a" transform="rotate(248.064 55.998 -31.03)scale(.0104)"/><use xlink:href="#a" transform="rotate(193.048 55.437 -1.712)scale(.0111)"/><use xlink:href="#a" transform="rotate(-76.814 59.419 -63.798)scale(.01213)"/><use xlink:href="#a" transform="rotate(-46.504 63.56 -124.846)scale(.00691)"/><use xlink:href="#a" transform="rotate(50.011 50.824 124.287)scale(.00766)"/><use xlink:href="#a" transform="rotate(93.109 54.692 57.882)scale(.00622)"/><use xlink:href="#a" transform="rotate(35.25 50.85 183.945)scale(.0132)"/><use xlink:href="#a" transform="rotate(212.363 60.915 -12.05)scale(.01323)"/><use xlink:href="#a" transform="rotate(158.97 60.694 15.78)scale(.0126)"/><use xlink:href="#a" transform="rotate(.213 -1653.248 32446.7)scale(.00622)"/><use xlink:href="#a" transform="rotate(-5.538 127.034 -1255.158)scale(.00713)"/><use xlink:href="#a" transform="rotate(77.953 59.744 80.461)scale(.01106)"/><use xlink:href="#a" transform="rotate(207.612 65.074 -10.273)scale(.0137)"/><use xlink:href="#a" transform="rotate(173.961 65.142 8.039)scale(.01153)"/><use xlink:href="#a" transform="rotate(180.4 66.104 4.453)scale(.01032)"/><use xlink:href="#a" transform="rotate(179.164 66.84 5.091)scale(.00955)"/><use xlink:href="#a" transform="rotate(-70.358 71.849 -89.342)scale(.0086)"/><use xlink:href="#a" transform="rotate(182.486 68.545 3.236)scale(.01042)"/><use xlink:href="#a" transform="rotate(25.823 57.284 299.62)scale(.01247)"/><use xlink:href="#a" transform="rotate(-31.269 81.384 -241.286)scale(.008)"/><use xlink:href="#a" transform="rotate(187.533 71.572 .421)scale(.01318)"/><use xlink:href="#a" transform="rotate(103.73 69.198 59.8)scale(.00695)"/><use xlink:href="#a" transform="rotate(47.214 64.573 167.268)scale(.00616)"/><use xlink:href="#a" transform="rotate(240.717 74.606 -37.742)scale(.00582)"/><use xlink:href="#a" transform="rotate(239.548 75.563 -36.31)scale(.0127)"/><use xlink:href="#a" transform="rotate(-59.632 79.792 -123.382)scale(.00736)"/><use xlink:href="#a" transform="rotate(-60.954 79.905 -120.165)scale(.01415)"/><use xlink:href="#a" transform="rotate(71.79 72.106 107.773)scale(.0073)"/><use xlink:href="#a" transform="rotate(5.87 28.174 1474.419)scale(.01332)"/><use xlink:href="#a" transform="rotate(197.681 78.256 -7.75)scale(.00632)"/><use xlink:href="#a" transform="rotate(251.615 80.556 -51.557)scale(.00671)"/><use xlink:href="#a" transform="rotate(-84.57 82.177 -81.398)scale(.00722)"/><use xlink:href="#a" transform="rotate(60.481 74.843 138.655)scale(.00861)"/><use xlink:href="#a" transform="rotate(245.172 81.99 -46.672)scale(.00585)"/><use xlink:href="#a" transform="rotate(35.065 72.476 255.934)scale(.00912)"/><use xlink:href="#a" transform="rotate(210.213 82.656 -17.31)scale(.01088)"/><use xlink:href="#a" transform="rotate(167.315 82.141 13.056)scale(.00739)"/><use xlink:href="#a" transform="rotate(-92.476 85.78 -74.376)scale(.00692)"/><use xlink:href="#a" transform="rotate(31.028 73.825 300.95)scale(.00723)"/><use xlink:href="#a" transform="rotate(92.772 82.088 83.303)scale(.01003)"/><use xlink:href="#a" transform="rotate(-59.26 89.92 -143.392)scale(.0079)"/><use xlink:href="#a" transform="rotate(53.317 80.633 172.442)scale(.00902)"/><use xlink:href="#a" transform="rotate(203.649 87.696 -13.287)scale(.01324)"/><use xlink:href="#a" transform="rotate(31.655 79.073 308.514)scale(.00971)"/><use xlink:href="#a" transform="rotate(179.605 88.27 4.13)scale(.00637)"/><use xlink:href="#a" transform="rotate(-46.614 95.295 -200.04)scale(.0056)"/><use xlink:href="#a" transform="rotate(136.855 88.342 38.7)scale(.00721)"/><use xlink:href="#a" transform="rotate(69.002 86.12 133.032)scale(.00709)"/><use xlink:href="#a" transform="rotate(221.594 92.025 -29.595)scale(.01203)"/><use xlink:href="#a" transform="rotate(-58.318 96.403 -158.28)scale(.00629)"/><use xlink:href="#a" transform="rotate(-.542 686.916 -19230.332)scale(.00562)"/><use xlink:href="#a" transform="rotate(236.192 94.35 -44.41)scale(.01149)"/><use xlink:href="#a" transform="matrix(.0088 -.01116 .01116 .0088 183.141 6.768)"/><use xlink:href="#a" transform="rotate(129.058 93.379 48.289)scale(.00659)"/><use xlink:href="#a" transform="rotate(168.748 95.787 13.55)scale(.01324)"/><use xlink:href="#a" transform="rotate(-40.292 103.414 -255.9)scale(.00607)"/><use xlink:href="#a" transform="rotate(-19.45 112.628 -554.953)scale(.00581)"/><use xlink:href="#a" transform="rotate(-18.493 111.166 -585.414)scale(.01195)"/><use xlink:href="#a" transform="rotate(203.974 99.308 -16.434)scale(.01112)"/><use xlink:href="#a" transform="rotate(-67.85 103.049 -141.644)scale(.01023)"/><use xlink:href="#a" transform="rotate(19.103 85.636 591.609)scale(.00827)"/><use xlink:href="#a" transform="rotate(225.167 101.973 -37.545)scale(.00829)"/><use xlink:href="#a" transform="rotate(219.927 103.103 -31.98)scale(.01468)"/><use xlink:href="#a" transform="rotate(-36.995 110.14 -299.624)scale(.00805)"/><use xlink:href="#a" transform="rotate(39.342 96.25 289.725)scale(.00758)"/><use xlink:href="#a" transform="rotate(177.625 103.779 5.75)scale(.0057)"/><use xlink:href="#a" transform="rotate(49.739 99.309 226.705)scale(.00869)"/><use xlink:href="#a" transform="rotate(5.366 62.665 2218.82)scale(.014)"/><use xlink:href="#a" transform="rotate(73.728 104.752 144.205)scale(.01432)"/><use xlink:href="#a" transform="rotate(96.829 105.582 98.285)scale(.00873)"/><use xlink:href="#a" transform="rotate(6.335 60.4 1940.496)scale(.00574)"/><use xlink:href="#a" transform="rotate(237.244 110.194 -54.921)scale(.00701)"/><use xlink:href="#a" transform="rotate(-63.674 113.441 -169.693)scale(.01242)"/><use xlink:href="#a" transform="rotate(197.612 110.645 -13.243)scale(.00577)"/><use xlink:href="#a" transform="rotate(-57.961 115.41 -194.537)scale(.00614)"/><use xlink:href="#a" transform="rotate(93.249 108.68 107.793)scale(.00558)"/><use xlink:href="#a" transform="rotate(-17.572 126.528 -710.255)scale(.01302)"/><use xlink:href="#a" transform="rotate(20.14 99.232 632.931)scale(.00867)"/><use xlink:href="#a" transform="rotate(-86.348 116.372 -116.228)scale(.0064)"/><use xlink:href="#a" transform="rotate(101.626 113.233 96.227)scale(.01316)"/><use xlink:href="#a" transform="rotate(-95.612 117.955 -98.93)scale(.01283)"/><use xlink:href="#a" transform="rotate(-5.894 158.382 -2230.253)scale(.01143)"/><use xlink:href="#a" transform="rotate(251.35 119.503 -78.973)scale(.01323)"/><use xlink:href="#a" transform="rotate(114.153 116.462 79.623)scale(.00566)"/><use xlink:href="#a" transform="rotate(103.941 117.773 96.045)scale(.0118)"/><use xlink:href="#a" transform="rotate(164.29 119.385 20.08)scale(.00624)"/><use xlink:href="#a" transform="rotate(-81.195 123.597 -134.5)scale(.01315)"/><use xlink:href="#a" transform="rotate(173.203 122.065 11.49)scale(.01297)"/><use xlink:href="#a" transform="rotate(77.878 121.127 154.238)scale(.01474)"/><use xlink:href="#a" transform="rotate(189.832 124.627 -6.276)scale(.01248)"/><use xlink:href="#a" transform="rotate(171.936 125.076 12.78)scale(.0105)"/><use xlink:href="#a" transform="rotate(37.477 117.437 370.964)scale(.00556)"/><use xlink:href="#a" transform="rotate(-67.122 130.142 -184.796)scale(.00565)"/><use xlink:href="#a" transform="rotate(120.85 126.183 75.497)scale(.01353)"/><use xlink:href="#a" transform="rotate(-13.3 150.553 -1082.206)scale(.00662)"/><use xlink:href="#a" transform="rotate(52.148 122.356 263.748)scale(.00578)"/><use xlink:href="#a" transform="rotate(176.327 129.37 8.46)scale(.01242)"/><use xlink:href="#a" transform="rotate(4.052 67.29 3635.611)scale(.01225)"/><use xlink:href="#a" transform="rotate(195.703 131.758 -13.578)scale(.01197)"/><use xlink:href="#a" transform="rotate(-25.337 142.56 -576.26)scale(.01184)"/><use xlink:href="#a" transform="rotate(169.651 133.343 16.23)scale(.01291)"/><use xlink:href="#a" transform="rotate(-53.534 139.365 -259.511)scale(.00553)"/><use xlink:href="#a" transform="rotate(-38.137 142.4 -381.457)scale(.0068)"/><use xlink:href="#a" transform="rotate(180.203 135.159 3.896)scale(.00894)"/><use xlink:href="#a" transform="rotate(125.695 135.162 73.28)scale(.01256)"/><use xlink:href="#a" transform="rotate(42.605 130.701 351.564)scale(.0104)"/><use xlink:href="#a" transform="rotate(-2.939 247.251 -5316.614)scale(.0059)"/><use xlink:href="#a" transform="rotate(83.063 134.994 158.472)scale(.00696)"/><use xlink:href="#a" transform="rotate(87.46 136.804 148.004)scale(.0125)"/><use xlink:href="#a" transform="rotate(117.533 138.138 88.078)scale(.00796)"/><use xlink:href="#a" transform="rotate(16.072 119.526 990.302)scale(.00553)"/><use xlink:href="#a" transform="rotate(92.896 137.873 136.65)scale(.0055)"/><use xlink:href="#a" transform="rotate(-73.485 144.976 -183.833)scale(.00635)"/><use xlink:href="#a" transform="rotate(225.872 143.277 -55.175)scale(.01006)"/><use xlink:href="#a" transform="rotate(-13.577 163.141 -1182.778)scale(.01169)"/><use xlink:href="#a" transform="rotate(41.405 136.064 380.974)scale(.00698)"/><use xlink:href="#a" transform="rotate(-51.68 149.97 -290.695)scale(.01071)"/><use xlink:href="#a" transform="rotate(253.71 147.373 -103.623)scale(.00845)"/><use xlink:href="#a" transform="rotate(200.195 146.347 -21.62)scale(.00739)"/><use xlink:href="#a" transform="rotate(216.359 148.024 -42.931)scale(.01397)"/><use xlink:href="#a" transform="rotate(117.742 146.77 92.853)scale(.01257)"/><use xlink:href="#a" transform="rotate(-62.508 153.504 -239)scale(.0059)"/><use xlink:href="#a" transform="rotate(182.969 149.207 .342)scale(.00727)"/><use xlink:href="#a" transform="rotate(216.296 150.783 -44.44)scale(.00798)"/><use xlink:href="#a" transform="rotate(219.514 151.413 -49.505)scale(.00682)"/><use xlink:href="#a" transform="rotate(27.304 139.958 620.636)scale(.0099)"/><use xlink:href="#a" transform="rotate(237.01 153.444 -77.562)scale(.0077)"/><use xlink:href="#a" transform="rotate(209.279 153.247 -35.253)scale(.00745)"/><use xlink:href="#a" transform="rotate(186.222 153.044 -4.12)scale(.0058)"/><use xlink:href="#a" transform="rotate(-97.67 156.3 -128.7)scale(.00936)"/><use xlink:href="#a" transform="rotate(-96.724 157.172 -131.51)scale(.01056)"/><use xlink:href="#a" transform="rotate(140.101 154.004 60.01)scale(.00647)"/><use xlink:href="#a" transform="rotate(-57.889 161.169 -275.17)scale(.00762)"/><use xlink:href="#a" transform="rotate(208.392 157.002 -35.078)scale(.0057)"/><use xlink:href="#a" transform="rotate(216.637 157.858 -47.292)scale(.00737)"/><use xlink:href="#a" transform="rotate(144.442 157.38 54.76)scale(.01319)"/><use xlink:href="#a" transform="rotate(6.154 109.615 2928.431)scale(.01245)"/><use xlink:href="#a" transform="rotate(57.118 153.964 295.276)scale(.00726)"/><use xlink:href="#a" transform="rotate(-68.731 164.787 -227.586)scale(.0113)"/><use xlink:href="#a" transform="rotate(251.962 163.436 -111.696)scale(.00843)"/><use xlink:href="#a" transform="rotate(81.418 159.85 191.243)scale(.0144)"/><use xlink:href="#a" transform="rotate(200.183 163.635 -24.612)scale(.00818)"/><use xlink:href="#a" transform="rotate(-50.573 169.885 -340.022)scale(.00654)"/><use xlink:href="#a" transform="rotate(41.458 157.843 434.915)scale(.01096)"/><use xlink:href="#a" transform="rotate(43.533 159.672 414.544)scale(.0115)"/><use xlink:href="#a" transform="rotate(21.49 152.968 872.78)scale(.00964)"/><use xlink:href="#a" transform="matrix(.00044 -.01 .01 .00044 331.122 8.104)"/><use xlink:href="#a" transform="rotate(131.747 166.697 78.593)scale(.00826)"/><use xlink:href="#a" transform="rotate(111.775 166.455 117.155)scale(.0064)"/><use xlink:href="#a" transform="rotate(102.518 166.603 138.275)scale(.00555)"/><use xlink:href="#a" transform="rotate(-32.617 177.416 -570.42)scale(.01116)"/><use xlink:href="#a" transform="rotate(234.43 171.738 -83.159)scale(.0086)"/><use xlink:href="#a" transform="rotate(96.221 168.594 156.118)scale(.00637)"/><use xlink:href="#a" transform="rotate(247.792 173.168 -110.971)scale(.00547)"/><use xlink:href="#a" transform="rotate(85.665 170.924 188.174)scale(.01398)"/><use xlink:href="#a" transform="rotate(-60.445 177.229 -291.402)scale(.00943)"/><use xlink:href="#a" transform="rotate(-90.326 176.458 -167.93)scale(.00996)"/><use xlink:href="#a" transform="rotate(195.556 175.81 -19.727)scale(.0133)"/><use xlink:href="#a" transform="rotate(4.383 126.089 4566.892)scale(.01099)"/><use xlink:href="#a" transform="rotate(-41.056 182.287 -465.392)scale(.00938)"/><use xlink:href="#a" transform="rotate(-30.599 185.668 -641.804)scale(.0065)"/><use xlink:href="#a" transform="rotate(80.15 176.79 213.79)scale(.01197)"/><use xlink:href="#a" transform="rotate(-73.882 182.063 -232.657)scale(.01238)"/><use xlink:href="#a" transform="rotate(67.236 176.692 272.532)scale(.00582)"/><use xlink:href="#a" transform="rotate(56.637 177.275 336.235)scale(.00784)"/><use xlink:href="#a" transform="rotate(221.71 182.567 -64.878)scale(.01215)"/><use xlink:href="#a" transform="rotate(-73.409 184.91 -239.929)scale(.00684)"/><use xlink:href="#a" transform="rotate(103.821 181.827 145.681)scale(.00944)"/><use xlink:href="#a" transform="rotate(129.033 182.541 89.915)scale(.00551)"/><use xlink:href="#a" transform="rotate(107.511 183.497 137.345)scale(.01085)"/><use xlink:href="#a" transform="rotate(244.083 186.44 -111.678)scale(.01093)"/><use xlink:href="#a" transform="rotate(34.833 183.294 591.615)scale(.01396)"/><use xlink:href="#a" transform="rotate(259.836 188.528 -152.715)scale(.00674)"/><use xlink:href="#a" transform="rotate(193.508 188.244 -19.013)scale(.01055)"/><use xlink:href="#a" transform="rotate(75.153 187.157 246.39)scale(.00997)"/><use xlink:href="#a" transform="rotate(109.662 188.963 135.688)scale(.0112)"/><use xlink:href="#a" transform="rotate(-43.352 194.037 -472.828)scale(.0089)"/><use xlink:href="#a" transform="rotate(167.729 190.694 22.958)scale(.00563)"/><use xlink:href="#a" transform="rotate(222.293 192.535 -70.458)scale(.01184)"/><use xlink:href="#a" transform="rotate(190.772 193.301 -14.944)scale(.0129)"/><use xlink:href="#a" transform="rotate(-37.452 197.375 -564.387)scale(.01026)"/><use xlink:href="#a" transform="rotate(119.941 194.083 114.285)scale(.00932)"/><use xlink:href="#a" transform="rotate(161.255 195.544 34.743)scale(.01108)"/><use xlink:href="#a" transform="rotate(-74.652 197.745 -253.268)scale(.00704)"/><use xlink:href="#a" transform="rotate(72.467 194.89 269.278)scale(.0066)"/><use xlink:href="#a" transform="rotate(-84.436 198.572 -213.36)scale(.0109)"/><use xlink:href="#a" transform="rotate(194.471 198.331 -22.727)scale(.00743)"/><use xlink:href="#a" transform="rotate(82.675 197.302 226.885)scale(.006)"/><use xlink:href="#a" transform="rotate(242.176 199.95 -117.159)scale(.00762)"/><use xlink:href="#a" transform="rotate(61.792 199.437 334.364)scale(.01144)"/><use xlink:href="#a" transform="rotate(209.832 201.197 -50.926)scale(.00767)"/><use xlink:href="#a" transform="rotate(-87.527 202.383 -207.183)scale(.00664)"/><use xlink:href="#a" transform="rotate(120.653 202.435 116.86)scale(.0123)"/><use xlink:href="#a" transform="rotate(-14.897 205.898 -1539.659)scale(.01404)"/><use xlink:href="#a" transform="rotate(223.924 204.992 -79.395)scale(.01148)"/><use xlink:href="#a" transform="rotate(123.115 205.469 112.748)scale(.01122)"/><use xlink:href="#a" transform="rotate(8.748 204.266 2678.722)scale(.01386)"/><use xlink:href="#a" transform="rotate(-83.053 208.113 -230.808)scale(.0075)"/><use xlink:href="#a" transform="rotate(209.093 208.202 -51.753)scale(.00857)"/><use xlink:href="#a" transform="rotate(111.609 208.991 142.942)scale(.01125)"/><use xlink:href="#a" transform="rotate(59.04 208.43 369.78)scale(.00656)"/><use xlink:href="#a" transform="rotate(-37.865 211.769 -607.722)scale(.00567)"/><use xlink:href="#a" transform="rotate(165.293 210.347 28.568)scale(.00586)"/><use xlink:href="#a" transform="rotate(-73.569 211.776 -278.913)scale(.00797)"/><use xlink:href="#a" transform="rotate(31.466 209.477 748.98)scale(.00687)"/><use xlink:href="#a" transform="rotate(-37.596 215.16 -617.475)scale(.0057)"/><use xlink:href="#a" transform="rotate(170.632 212.028 19.905)scale(.0066)"/><use xlink:href="#a" transform="rotate(6.136 176.561 3944.745)scale(.0079)"/><use xlink:href="#a" transform="rotate(102.646 211.49 173.496)scale(.0121)"/><use xlink:href="#a" transform="rotate(71.818 208.387 297.533)scale(.00546)"/><use xlink:href="#a" transform="rotate(232.045 215.623 -98.6)scale(.00883)"/><use xlink:href="#a" transform="rotate(147.184 213.718 68.951)scale(.01452)"/><use xlink:href="#a" transform="rotate(-44.714 227.672 -511.387)scale(.01183)"/><use xlink:href="#a" transform="rotate(199.145 216.141 -28.958)scale(.00545)"/><use xlink:href="#a" transform="rotate(38.506 197.834 621.12)scale(.01193)"/><use xlink:href="#a" transform="rotate(217.519 217.718 -64.4)scale(.00575)"/><use xlink:href="#a" transform="rotate(53.401 200.564 433.212)scale(.01247)"/><use xlink:href="#a" transform="rotate(16.28 158.345 1494.45)scale(.01439)"/><use xlink:href="#a" transform="rotate(-18.147 271.61 -1317.897)scale(.00803)"/><use xlink:href="#a" transform="rotate(-83.576 223.794 -226.181)scale(.00623)"/><use xlink:href="#a" transform="rotate(136.391 208.974 96.411)scale(.01276)"/><use xlink:href="#a" transform="rotate(-13.283 303.647 -1792.51)scale(.01136)"/><use xlink:href="#a" transform="rotate(28.071 164.395 853.517)scale(.00676)"/><use xlink:href="#a" transform="rotate(-40.307 243.037 -554.957)scale(.0147)"/><use xlink:href="#a" transform="rotate(192.92 211.648 -9.001)scale(.01119)"/><use xlink:href="#a" transform="rotate(173.18 208.932 27.951)scale(.0139)"/><use xlink:href="#a" transform="rotate(49.952 177.367 460.923)scale(.00598)"/><use xlink:href="#a" transform="rotate(221.829 213.936 -63.074)scale(.00724)"/><use xlink:href="#a" transform="rotate(225.218 214.21 -69.364)scale(.0086)"/><use xlink:href="#a" transform="rotate(-46.563 244.22 -462.51)scale(.00629)"/><use xlink:href="#a" transform="rotate(-47.089 243.58 -453.184)scale(.01172)"/><use xlink:href="#a" transform="rotate(-39.39 253.352 -554.127)scale(.00973)"/><use xlink:href="#a" transform="rotate(256.91 220.857 -144.116)scale(.00986)"/><use xlink:href="#a" transform="rotate(85.112 187.27 243.772)scale(.0059)"/><use xlink:href="#a" transform="rotate(195.18 209.922 -7.993)scale(.00552)"/><use xlink:href="#a" transform="rotate(220.445 214.867 -55.958)scale(.00763)"/><use xlink:href="#a" transform="rotate(192.669 210.782 -1.852)scale(.01117)"/><use xlink:href="#a" transform="rotate(61.59 175.5 369.802)scale(.00992)"/><use xlink:href="#a" transform="rotate(148.525 203.672 81.015)scale(.0101)"/><use xlink:href="#a" transform="rotate(251.775 225.489 -127.773)scale(.00952)"/><use xlink:href="#a" transform="rotate(24.31 109.643 993.304)scale(.0133)"/><use xlink:href="#a" transform="rotate(-21.469 331.228 -1079.102)scale(.01467)"/><use xlink:href="#a" transform="rotate(80.86 183.21 271.862)scale(.00682)"/><use xlink:href="#a" transform="rotate(232.721 222.597 -78.21)scale(.01148)"/><use xlink:href="#a" transform="rotate(190.073 211.9 6.539)scale(.00617)"/><use xlink:href="#a" transform="rotate(225.973 219.449 -63.402)scale(.00564)"/><use xlink:href="#a" transform="rotate(1.134 -2164.823 20973.37)scale(.01062)"/><use xlink:href="#a" transform="rotate(148.245 201.205 83.894)scale(.00758)"/><use xlink:href="#a" transform="rotate(29.106 116.487 818.138)scale(.0098)"/><use xlink:href="#a" transform="rotate(229.547 217.529 -68.9)scale(.01302)"/><use xlink:href="#a" transform="rotate(165.814 202.798 50.723)scale(.0133)"/><use xlink:href="#a" transform="rotate(41.879 144.01 554.22)scale(.01417)"/><use xlink:href="#a" transform="rotate(179.829 203.38 25.672)scale(.01378)"/><use xlink:href="#a" transform="rotate(114.941 187.575 153)scale(.01438)"/><use xlink:href="#a" transform="rotate(5.068 -335.847 4538.44)scale(.00623)"/><use xlink:href="#a" transform="rotate(-88.316 224.198 -178.722)scale(.01466)"/><use xlink:href="#a" transform="rotate(-70.92 232.007 -252.25)scale(.01017)"/><use xlink:href="#a" transform="rotate(210.482 204.64 -28.934)scale(.00684)"/><use xlink:href="#a" transform="rotate(-53.143 244.958 -368.226)scale(.00653)"/><use xlink:href="#a" transform="rotate(-19.967 330.82 -1088.93)scale(.00648)"/><use xlink:href="#a" transform="rotate(226.873 206.778 -59.25)scale(.01258)"/><use xlink:href="#a" transform="rotate(109.623 179.397 161.71)scale(.0116)"/><use xlink:href="#a" transform="rotate(195.957 198.052 -1.696)scale(.0146)"/><use xlink:href="#a" transform="rotate(-36.77 262.79 -551.435)scale(.01185)"/><use xlink:href="#a" transform="rotate(58.561 150.441 365.653)scale(.00696)"/><use xlink:href="#a" transform="rotate(149.466 185.325 76.639)scale(.00644)"/><use xlink:href="#a" transform="rotate(203.532 196.248 -14.321)scale(.01328)"/><use xlink:href="#a" transform="rotate(192.035 192.673 4.904)scale(.00967)"/><use xlink:href="#a" transform="rotate(-42.197 249.6 -463.146)scale(.0073)"/><use xlink:href="#a" transform="rotate(223.535 198.023 -50.374)scale(.00733)"/><use xlink:href="#a" transform="rotate(24.043 78.205 903.063)scale(.00572)"/><use xlink:href="#a" transform="rotate(155.575 182.504 64.727)scale(.00554)"/><use xlink:href="#a" transform="rotate(-2.568 1221.937 -8271.402)scale(.00752)"/><use xlink:href="#a" transform="rotate(75.15 157.322 264.884)scale(.0143)"/><use xlink:href="#a" transform="rotate(170.164 183.294 40.197)scale(.00589)"/><use xlink:href="#a" transform="rotate(-9.591 461.264 -2164.666)scale(.0075)"/><use xlink:href="#a" transform="rotate(-73.684 214.666 -218.128)scale(.01451)"/><use xlink:href="#a" transform="rotate(236.867 195.589 -73.91)scale(.00821)"/><use xlink:href="#a" transform="rotate(253.539 199.608 -110.927)scale(.00798)"/><use xlink:href="#a" transform="rotate(246.373 196.8 -93.305)scale(.00956)"/><use xlink:href="#a" transform="rotate(-41.977 240.615 -443.263)scale(.00948)"/><use xlink:href="#a" transform="rotate(214.076 187.146 -30.636)scale(.00738)"/><use xlink:href="#a" transform="rotate(-80.627 206.376 -185.407)scale(.00985)"/><use xlink:href="#a" transform="rotate(5.566 -295.65 3677.494)scale(.00653)"/><use xlink:href="#a" transform="rotate(194.548 181.03 1.523)scale(.0061)"/><use xlink:href="#a" transform="rotate(74.203 147.197 257.493)scale(.00714)"/><use xlink:href="#a" transform="rotate(92.068 154.687 193.858)scale(.00593)"/><use xlink:href="#a" transform="rotate(222.74 185.567 -43.522)scale(.01413)"/><use xlink:href="#a" transform="rotate(-13.019 377.408 -1503.44)scale(.00623)"/><use xlink:href="#a" transform="rotate(47.758 123.256 416.264)scale(.00767)"/><use xlink:href="#a" transform="rotate(119.231 161.423 125.555)scale(.01403)"/><use xlink:href="#a" transform="rotate(-60.604 212.065 -269.98)scale(.0074)"/><use xlink:href="#a" transform="rotate(177.941 172.154 27.48)scale(.01094)"/><use xlink:href="#a" transform="rotate(145.468 164.317 76.882)scale(.00573)"/><use xlink:href="#a" transform="rotate(78.248 143.22 232.745)scale(.0094)"/><use xlink:href="#a" transform="rotate(98.908 150.569 168.667)scale(.00566)"/><use xlink:href="#a" transform="rotate(-35.171 241.489 -507.287)scale(.00852)"/><use xlink:href="#a" transform="rotate(23.501 60.653 829.588)scale(.0102)"/><use xlink:href="#a" transform="rotate(-94 189.384 -132.037)scale(.00646)"/><use xlink:href="#a" transform="rotate(249.61 183.304 -90.836)scale(.01344)"/><use xlink:href="#a" transform="rotate(16.91 18.07 1131.819)scale(.0134)"/><use xlink:href="#a" transform="rotate(75.514 136.53 235.796)scale(.00996)"/><use xlink:href="#a" transform="rotate(235.108 176.444 -61.502)scale(.00648)"/><use xlink:href="#a" transform="rotate(67.912 130.431 265.759)scale(.00706)"/><use xlink:href="#a" transform="rotate(252.225 179.946 -94.337)scale(.00872)"/><use xlink:href="#a" transform="rotate(121.493 150.626 114.312)scale(.01272)"/><use xlink:href="#a" transform="rotate(97.627 142.651 164.012)scale(.0126)"/><use xlink:href="#a" transform="rotate(39.225 97.24 471.54)scale(.00605)"/><use xlink:href="#a" transform="rotate(-95.12 180.521 -120.602)scale(.0126)"/><use xlink:href="#a" transform="rotate(8.094 -159.222 2257.34)scale(.00625)"/><use xlink:href="#a" transform="rotate(180.544 158.682 22.831)scale(.00707)"/><use xlink:href="#a" transform="rotate(-26.54 250.97 -637.548)scale(.01344)"/><use xlink:href="#a" transform="rotate(56.928 115.284 311.01)scale(.0055)"/><use xlink:href="#a" transform="rotate(96.795 136.855 161.407)scale(.0105)"/><use xlink:href="#a" transform="rotate(219.014 163.497 -30.523)scale(.01233)"/><use xlink:href="#a" transform="rotate(184.864 155.43 17.012)scale(.00628)"/><use xlink:href="#a" transform="rotate(83.875 128.992 193.715)scale(.00661)"/><use xlink:href="#a" transform="rotate(238.868 166.01 -62.519)scale(.0067)"/><use xlink:href="#a" transform="rotate(166.713 150.265 41.22)scale(.00697)"/><use xlink:href="#a" transform="rotate(214.502 159.307 -22.697)scale(.01333)"/><use xlink:href="#a" transform="rotate(134.441 142.364 86.7)scale(.01418)"/><use xlink:href="#a" transform="rotate(144.509 143 71.147)scale(.00878)"/><use xlink:href="#a" transform="rotate(190.363 151.447 10.357)scale(.01204)"/><use xlink:href="#a" transform="rotate(142.575 141.024 73.38)scale(.01101)"/><use xlink:href="#a" transform="rotate(220.259 155.535 -29.906)scale(.00895)"/><use xlink:href="#a" transform="rotate(-1.055 2484.722 -15668.86)scale(.01446)"/><use xlink:href="#a" transform="rotate(190.885 147.735 10.234)scale(.01388)"/><use xlink:href="#a" transform="rotate(37.687 80.9 440.938)scale(.01357)"/><use xlink:href="#a" transform="rotate(16.407 -12.498 1009.426)scale(.00552)"/><use xlink:href="#a" transform="rotate(105.863 125.923 130.281)scale(.00738)"/><use xlink:href="#a" transform="rotate(16.084 -16.899 1021.773)scale(.00577)"/><use xlink:href="#a" transform="rotate(160.246 137.67 47.82)scale(.00656)"/><use xlink:href="#a" transform="rotate(38.078 76.216 428.825)scale(.0073)"/><use xlink:href="#a" transform="rotate(-3.413 891.028 -4653.635)scale(.0063)"/><use xlink:href="#a" transform="rotate(196.441 143.294 4.136)scale(.0131)"/><use xlink:href="#a" transform="rotate(-76.324 166.933 -150.498)scale(.01174)"/><use xlink:href="#a" transform="rotate(29.788 53.147 537.885)scale(.00597)"/><use xlink:href="#a" transform="rotate(-71.569 168.505 -165.44)scale(.00649)"/><use xlink:href="#a" transform="rotate(132.411 126.828 83.427)scale(.00634)"/><use xlink:href="#a" transform="rotate(-94.142 156.865 -100.64)scale(.01418)"/><use xlink:href="#a" transform="rotate(126.274 123.567 91.506)scale(.00575)"/><use xlink:href="#a" transform="rotate(-72.552 164.83 -156.824)scale(.0124)"/><use xlink:href="#a" transform="rotate(43.404 77.197 356.358)scale(.00678)"/><use xlink:href="#a" transform="rotate(229.002 143.298 -35.354)scale(.01419)"/><use xlink:href="#a" transform="rotate(231.691 142.719 -39.095)scale(.01067)"/><use xlink:href="#a" transform="rotate(57.317 89.635 261.23)scale(.00641)"/><use xlink:href="#a" transform="rotate(210.614 136.578 -11.496)scale(.00914)"/><use xlink:href="#a" transform="rotate(95.769 109.327 139.902)scale(.008)"/><use xlink:href="#a" transform="rotate(36.418 60.58 412.219)scale(.00715)"/><use xlink:href="#a" transform="rotate(-19.02 259.542 -729.347)scale(.01478)"/><use xlink:href="#a" transform="rotate(21.865 10.213 676.187)scale(.00677)"/><use xlink:href="#a" transform="rotate(-63.095 163.54 -180.975)scale(.00548)"/><use xlink:href="#a" transform="rotate(18.716 -7.94 778.362)scale(.01276)"/><use xlink:href="#a" transform="rotate(-36.262 192.947 -351.286)scale(.0141)"/><use xlink:href="#a" transform="rotate(243.645 137.995 -51.959)scale(.00877)"/><use xlink:href="#a" transform="rotate(39.06 59.7 367.303)scale(.00927)"/><use xlink:href="#a" transform="rotate(144.453 115.333 62.801)scale(.01002)"/><use xlink:href="#a" transform="rotate(50.636 73.252 278.625)scale(.00594)"/><use xlink:href="#a" transform="rotate(126.201 109.473 84.762)scale(.00654)"/><use xlink:href="#a" transform="rotate(-14.61 294.826 -901.827)scale(.01217)"/><use xlink:href="#a" transform="rotate(-16.015 281.598 -818.989)scale(.00544)"/><use xlink:href="#a" transform="rotate(211.324 125.553 -8.238)scale(.01454)"/><use xlink:href="#a" transform="rotate(188.651 119.653 15.336)scale(.0099)"/><use xlink:href="#a" transform="rotate(-86.662 140.965 -98.182)scale(.01036)"/><use xlink:href="#a" transform="rotate(-75.048 145.953 -125.811)scale(.00662)"/><use xlink:href="#a" transform="rotate(169.586 113.647 34.704)scale(.00975)"/><use xlink:href="#a" transform="rotate(29.244 26.946 459.748)scale(.00687)"/><use xlink:href="#a" transform="rotate(159.397 110.136 44.573)scale(.0081)"/><use xlink:href="#a" transform="rotate(56.277 70.947 234.097)scale(.0075)"/><use xlink:href="#a" transform="rotate(5.466 -366.21 2365.22)scale(.00709)"/><use xlink:href="#a" transform="rotate(227.028 122.29 -24.4)scale(.00633)"/><use xlink:href="#a" transform="rotate(180.268 112.06 24.218)scale(.01212)"/><use xlink:href="#a" transform="rotate(4.927 -416.775 2566.072)scale(.0093)"/><use xlink:href="#a" transform="rotate(3.66 -599.65 3417.003)scale(.01084)"/><use xlink:href="#a" transform="rotate(214.535 116.229 -9.527)scale(.00672)"/><use xlink:href="#a" transform="rotate(-96.345 129.253 -72.148)scale(.00568)"/><use xlink:href="#a" transform="rotate(-57.052 150.25 -172.26)scale(.00807)"/><use xlink:href="#a" transform="rotate(49.489 57.85 254.47)scale(.00848)"/><use xlink:href="#a" transform="rotate(177.309 106.392 27.148)scale(.01237)"/><use xlink:href="#a" transform="rotate(202.028 110.262 4.32)scale(.0111)"/><use xlink:href="#a" transform="rotate(138.031 96.15 64.056)scale(.01017)"/><use xlink:href="#a" transform="rotate(169.053 101.73 34.097)scale(.00763)"/><use xlink:href="#a" transform="rotate(-70.429 136.075 -120.62)scale(.00623)"/><use xlink:href="#a" transform="rotate(67.455 68.547 176.237)scale(.00974)"/><use xlink:href="#a" transform="rotate(159.056 97.623 42.956)scale(.00637)"/><use xlink:href="#a" transform="rotate(-71.334 133.418 -114.799)scale(.00948)"/><use xlink:href="#a" transform="rotate(-47.072 153.302 -203.085)scale(.00976)"/><use xlink:href="#a" transform="rotate(155.28 94.795 46.1)scale(.00826)"/><use xlink:href="#a" transform="rotate(144.484 91.77 55.866)scale(.0084)"/><use xlink:href="#a" transform="rotate(195.911 101.667 10.788)scale(.00686)"/><use xlink:href="#a" transform="rotate(173.206 96.667 30.531)scale(.01133)"/><use xlink:href="#a" transform="rotate(224.767 106.514 -14.608)scale(.00985)"/><use xlink:href="#a" transform="rotate(-97.225 116.523 -59.483)scale(.00625)"/><use xlink:href="#a" transform="rotate(143.128 88.29 56.303)scale(.01433)"/><use xlink:href="#a" transform="rotate(-68.138 128.44 -112.297)scale(.01123)"/><use xlink:href="#a" transform="rotate(254.798 111.133 -45.734)scale(.00948)"/><use xlink:href="#a" transform="rotate(75.47 62.353 142.812)scale(.00554)"/><use xlink:href="#a" transform="rotate(215.689 99.7 -4.853)scale(.00662)"/><use xlink:href="#a" transform="rotate(215.628 99.096 -4.793)scale(.0059)"/><use xlink:href="#a" transform="rotate(220.507 99.784 -8.04)scale(.01269)"/><use xlink:href="#a" transform="rotate(90.604 67.075 112.49)scale(.00746)"/><use xlink:href="#a" transform="rotate(-71.806 121.536 -96.307)scale(.01128)"/><use xlink:href="#a" transform="rotate(195.503 91.892 13.322)scale(.0126)"/><use xlink:href="#a" transform="rotate(61.94 48.224 168.616)scale(.00577)"/><use xlink:href="#a" transform="rotate(-21.607 210.572 -426.03)scale(.00597)"/><use xlink:href="#a" transform="rotate(195.096 89.665 13.453)scale(.00916)"/><use xlink:href="#a" transform="rotate(224.328 95.324 -9.878)scale(.00617)"/><use xlink:href="#a" transform="rotate(-38.318 152.74 -217.702)scale(.0064)"/><use xlink:href="#a" transform="rotate(183.674 85.647 22.491)scale(.01215)"/><use xlink:href="#a" transform="rotate(-41.373 144.903 -191.028)scale(.01388)"/><use xlink:href="#a" transform="rotate(211.481 89.222 2.286)scale(.01212)"/><use xlink:href="#a" transform="rotate(36.968 11.246 264.9)scale(.00816)"/><use xlink:href="#a" transform="rotate(-99.082 100.96 -43.457)scale(.00591)"/><use xlink:href="#a" transform="rotate(90.549 56.849 103.243)scale(.00571)"/><use xlink:href="#a" transform="rotate(258.011 98.795 -38.103)scale(.0122)"/><use xlink:href="#a" transform="rotate(159.56 74.863 39.11)scale(.01178)"/><use xlink:href="#a" transform="rotate(91.459 55.112 99.51)scale(.00902)"/><use xlink:href="#a" transform="rotate(-75.942 107.145 -71.744)scale(.01045)"/><use xlink:href="#a" transform="rotate(-8.968 376.494 -931.35)scale(.008)"/><use xlink:href="#a" transform="rotate(-80.464 103.53 -63.426)scale(.00615)"/><use xlink:href="#a" transform="rotate(-60.952 114.444 -98.719)scale(.01431)"/><use xlink:href="#a" transform="rotate(72.152 41.68 124.523)scale(.00846)"/><use xlink:href="#a" transform="rotate(159.191 69.228 38.642)scale(.0144)"/><use xlink:href="#a" transform="rotate(136.154 62.696 53.571)scale(.01071)"/><use xlink:href="#a" transform="rotate(39.848 6.345 217.03)scale(.0108)"/><use xlink:href="#a" transform="rotate(116.122 56.093 67.99)scale(.01444)"/><use xlink:href="#a" transform="rotate(105.577 51.72 76.375)scale(.0144)"/><use xlink:href="#a" transform="rotate(13.74 -127.279 574.838)scale(.01056)"/><use xlink:href="#a" transform="rotate(128.576 55.61 56.765)scale(.00932)"/><use xlink:href="#a" transform="rotate(-87.382 90.75 -41.538)scale(.01402)"/><use xlink:href="#a" transform="rotate(58.794 22.475 138.426)scale(.0063)"/><use xlink:href="#a" transform="rotate(33.992 -13.229 231.86)scale(.0077)"/><use xlink:href="#a" transform="rotate(228.218 74.538 -2.206)scale(.01214)"/><use xlink:href="#a" transform="rotate(248.823 79.066 -15.97)scale(.01392)"/><use xlink:href="#a" transform="rotate(-3.239 887.215 -2082.412)scale(.01423)"/><use xlink:href="#a" transform="rotate(-24.91 168.223 -242.15)scale(.00895)"/><use xlink:href="#a" transform="rotate(-29.184 150.506 -197.702)scale(.01087)"/><use xlink:href="#a" transform="rotate(139.102 50.392 46.832)scale(.01403)"/><use xlink:href="#a" transform="rotate(67.834 23.002 108.522)scale(.01089)"/><use xlink:href="#a" transform="rotate(-40.931 120.164 -123.115)scale(.00903)"/><use xlink:href="#a" transform="rotate(38.751 -11.82 181.066)scale(.00622)"/><use xlink:href="#a" transform="rotate(125.071 43.58 53.196)scale(.01218)"/><use xlink:href="#a" transform="rotate(197.334 58.025 16.658)scale(.00547)"/><use xlink:href="#a" transform="rotate(28.103 -38.23 233.403)scale(.01335)"/><use xlink:href="#a" transform="rotate(160.463 49.116 34.02)scale(.01249)"/><use xlink:href="#a" transform="rotate(16.68 -107.333 368.271)scale(.0101)"/><use xlink:href="#a" transform="rotate(195.286 54.24 18.302)scale(.00981)"/><use xlink:href="#a" transform="rotate(40.887 -12.876 155.978)scale(.00867)"/><use xlink:href="#a" transform="rotate(215.951 57.138 9.294)scale(.00856)"/><use xlink:href="#a" transform="rotate(73.093 18.224 88.258)scale(.01455)"/><use xlink:href="#a" transform="rotate(167.611 44.997 29.779)scale(.00734)"/><use xlink:href="#a" transform="rotate(118.163 33.399 52.213)scale(.01348)"/><use xlink:href="#a" transform="rotate(129.159 34.857 45.968)scale(.00981)"/><use xlink:href="#a" transform="rotate(245.104 59.915 -2.505)scale(.01202)"/><use xlink:href="#a" transform="rotate(201.582 48.425 16.303)scale(.00626)"/><use xlink:href="#a" transform="rotate(118.929 29.625 49.552)scale(.00672)"/><use xlink:href="#a" transform="rotate(5.948 -397.66 813.254)scale(.01364)"/><use xlink:href="#a" transform="rotate(209.366 48.014 14.655)scale(.01335)"/><use xlink:href="#a" transform="rotate(104.476 22.435 55.178)scale(.00597)"/><use xlink:href="#a" transform="rotate(106.453 23.133 53.561)scale(.0104)"/><use xlink:href="#a" transform="rotate(153.661 33.786 33.326)scale(.00595)"/><use xlink:href="#a" transform="rotate(97.635 18.3 57.45)scale(.00605)"/><use xlink:href="#a" transform="rotate(-66.43 74.012 -32.56)scale(.00587)"/><use xlink:href="#a" transform="rotate(1.626 -1585.447 2585.175)scale(.00964)"/><use xlink:href="#a" transform="rotate(-30.958 120.862 -105.104)scale(.00702)"/><use xlink:href="#a" transform="rotate(45.056 -18.239 108.358)scale(.01183)"/><use xlink:href="#a" transform="rotate(162.452 32.063 29.9)scale(.01084)"/><use xlink:href="#a" transform="rotate(30.105 -51.44 148.598)scale(.00656)"/><use xlink:href="#a" transform="rotate(61.722 -4.717 79.285)scale(.00635)"/><use xlink:href="#a" transform="rotate(9.934 -232.968 396.744)scale(.00657)"/><use xlink:href="#a" transform="rotate(-25.394 134.548 -114.689)scale(.0102)"/><use xlink:href="#a" transform="rotate(-68.326 65.92 -21.119)scale(.00794)"/><use xlink:href="#a" transform="rotate(-33.398 108.226 -76.479)scale(.00732)"/><use xlink:href="#a" transform="rotate(44.697 -25.475 96.51)scale(.00633)"/><use xlink:href="#a" transform="rotate(184.116 31.223 23.457)scale(.01042)"/><use xlink:href="#a" transform="rotate(240.375 42.757 8.814)scale(.01358)"/><use xlink:href="#a" transform="rotate(-92.341 50.081 -1.203)scale(.0109)"/><use xlink:href="#a" transform="rotate(110.799 12.036 42.091)scale(.01131)"/><use xlink:href="#a" transform="rotate(218.104 34.337 15.357)scale(.007)"/><use xlink:href="#a" transform="rotate(85.603 2.154 50.33)scale(.01473)"/><use xlink:href="#a" transform="rotate(208.097 30.302 17.976)scale(.00584)"/><use xlink:href="#a" transform="rotate(218.823 32.244 16.532)scale(.01137)"/><use xlink:href="#a" transform="rotate(146.559 16.269 30.564)scale(.00608)"/><use xlink:href="#a" transform="rotate(60.1 -15.474 60.335)scale(.01296)"/><use xlink:href="#a" transform="rotate(251.517 37.844 10.547)scale(.0147)"/><use xlink:href="#a" transform="rotate(-14.206 202.824 -130.791)scale(.00669)"/><use xlink:href="#a" transform="rotate(229.457 30.254 15.406)scale(.0083)"/><use xlink:href="#a" transform="rotate(123.44 7.314 33.597)scale(.01151)"/><use xlink:href="#a" transform="rotate(-83.64 43.33 5.089)scale(.00862)"/><use xlink:href="#a" transform="rotate(140.504 9.73 29.94)scale(.013)"/><use xlink:href="#a" transform="rotate(161.379 12.702 26.229)scale(.00745)"/><use xlink:href="#a" transform="rotate(226.841 25.539 18.164)scale(.01262)"/><use xlink:href="#a" transform="rotate(238.255 27.229 15.96)scale(.00616)"/><use xlink:href="#a" transform="rotate(253.529 30.854 14.687)scale(.01165)"/><use xlink:href="#a" transform="rotate(29.787 -69.29 66.726)scale(.01325)"/><use xlink:href="#a" transform="rotate(41.582 -46.11 51.67)scale(.01056)"/><use xlink:href="#a" transform="rotate(172.391 10.081 24.805)scale(.01435)"/><use xlink:href="#a" transform="rotate(200.193 14.018 21.943)scale(.00636)"/><use xlink:href="#a" transform="rotate(119.838 -3.368 28.422)scale(.008)"/><use xlink:href="#a" transform="rotate(47.324 -42.144 41.035)scale(.0076)"/><use xlink:href="#a" transform="rotate(-32.477 83.266 2.479)scale(.01344)"/><use xlink:href="#a" transform="rotate(205.212 12.19 22.705)scale(.01232)"/><use xlink:href="#a" transform="rotate(67.57 -27.128 30.755)scale(.0076)"/><use xlink:href="#a" transform="rotate(162.514 2.078 24.13)scale(.00809)"/><use xlink:href="#a" transform="rotate(55.127 -36.643 29.414)scale(.01343)"/><use xlink:href="#a" transform="rotate(85.121 -19.683 25.813)scale(.01408)"/><use xlink:href="#a" transform="rotate(78.16 -24.533 24.836)scale(.00881)"/><use xlink:href="#a" transform="rotate(-5.783 429.117 21.27)scale(.0123)"/><use xlink:href="#a" transform="rotate(-28.066 85.578 20.1)scale(.01119)"/><use xlink:href="#a" transform="rotate(234.602 12.905 21.025)scale(.00793)"/><use xlink:href="#a" transform="rotate(150.101 -2.145 21.481)scale(.01088)"/><use xlink:href="#a" transform="rotate(-94.731 20.31 19.106)scale(.01311)"/><use xlink:href="#a" transform="rotate(231.817 11.932 17.972)scale(.00606)"/><use xlink:href="#a" transform="rotate(42.394 -40.1 23.853)scale(.01043)"/><use xlink:href="#a" transform="rotate(-37.066 53.507 9.92)scale(.00562)"/><use xlink:href="#a" transform="rotate(91.238 -10.72 19.855)scale(.01276)"/><use xlink:href="#a" transform="rotate(201.086 7.632 16.162)scale(.01371)"/><use xlink:href="#a" transform="rotate(5.897 -272.424 83.992)scale(.00553)"/><use xlink:href="#a" transform="rotate(-77.95 21.896 10.101)scale(.00595)"/><use xlink:href="#a" transform="rotate(106.4 -4.774 16.883)scale(.0105)"/><use xlink:href="#a" transform="rotate(64.33 -15.464 18.617)scale(.00683)"/><use xlink:href="#a" transform="rotate(32.056 -36.667 22.539)scale(.00866)"/><use xlink:href="#a" transform="rotate(113.133 -3.659 14.128)scale(.00708)"/><use xlink:href="#a" transform="rotate(172.184 3.035 12.243)scale(.01162)"/><use xlink:href="#a" transform="rotate(8.807 -127.098 38.203)scale(.00543)"/><use xlink:href="#a" transform="rotate(-31.641 36.584 4.074)scale(.00582)"/><use xlink:href="#a" transform="rotate(26.161 -32.737 14.404)scale(.01276)"/><use xlink:href="#a" transform="rotate(56.855 -13.142 11.273)scale(.00562)"/><use xlink:href="#a" transform="rotate(76.706 -5.932 9.258)scale(.01472)"/><use xlink:href="#a" transform="rotate(23.889 -29.858 10.667)scale(.00548)"/><use xlink:href="#a" transform="rotate(115.186 -1.124 7.469)scale(.01306)"/><defs><path id="a" fill="#000" d="M215.823 333.963c0-.733.3-1.033.667-.667a.95.95 0 0 1 0 1.334c-.367.366-.667.066-.667-.667M143.424 3.977c4.632-.653 8.099 4.826 5.302 8.382-1.951 2.48-2.551 5.604-1.078 5.604.905.004 11.175 12.34 11.175 13.423 0 1.076-4.344 5.111-6.316 5.868-1.898.728-1.434 2.71.633 2.71.661 0 1.78.924 2.486 2.056 1.284 2.054 1.286 2.054 2.991.057.938-1.1 2.606-2.139 3.706-2.307s2.33-.757 2.734-1.307c.415-.565.741-.238.75.75.018 2.14.447 2.169 3.408.229 1.623-1.063 2.19-2.212 1.884-3.81-1.049-5.489 4.864-5.512 14.402-.058 5.289 3.024 5.527 3.005 7.663-.61 3.023-5.119 9.966-1.694 8.152 4.02-.515 1.623-.183 2.247 1.417 2.666 1.15.3 2.09.945 2.09 1.43.001.485.9.883 2 .883 2.405 0 2.51-.633.446-2.697-1.937-1.936-1.511-6.247.756-7.667 2.444-1.53 3.085-.336 1.976 3.68-.844 3.057-.725 3.569.927 4 1.042.274 1.895 1.215 1.895 2.09.001 2.117 3.922 2.083 5.479-.046 1.634-2.235 4.962-.366 4.996 2.806.022 2.026.585 2.375 4.275 2.641 3.903.283 4.25.113 4.25-2.089q0-2.397 2.547-3.556c5.794-2.64 9.087-.056 7.912 6.206-.627 3.341-.627 3.341 7.125 4.043 13.323 1.209 21.701 9.211 10.916 10.427-1.65.187-3.533.779-4.183 1.316-.772.639-2.504.61-5-.082-4.664-1.295-5.317-1.318-5.317-.18 0 .89 3.547 2.107 7.692 2.639 3.814.489 4.527 1.472 3.864 5.335-1.584 9.224-1.538 9.134-4.694 9.134-1.732 0-2.721-.419-2.362-1 .34-.55.194-1-.324-1-.519 0-1.178-.9-1.466-2-.316-1.208-1.364-2-2.648-2-1.169 0-2.425-.787-2.793-1.75-.688-1.803-.846-2.03-4.339-6.25-2.069-2.5-2.069-2.5-1.491.21.443 2.079.097 2.968-1.49 3.817-3.053 1.634-2.358 6.6.861 6.15 1.27-.178 2.952.21 3.737.862.841.698 2.53.908 4.115.51 2.465-.619 2.57-.53 1.263 1.08-.904 1.113-.968 1.48-.175 1.004 1.207-.725 1.687.683 1.482 4.336-.045.808 1.226 3.249 2.826 5.425 2.411 3.278 2.808 4.595 2.313 7.686-.499 3.124-.251 3.915 1.528 4.868 1.738.93 1.934 1.496 1.067 3.115-.582 1.088-.743 2.489-.358 3.114 1.359 2.199-6.627-.001-11.342-3.124-8.698-5.762-10.731-2.813-8.924 12.947.221 1.925-.023 4.035-.543 4.69-2.291 2.887-.482 6.804 3.201 6.932 1.925.067 3.95.231 4.5.365s1.77.166 2.711.072c2.294-.23 5.828 1.736 5.529 3.076-.429 1.92 7.577 1.339 13.716-.996 3.275-1.246 6.763-2.054 7.75-1.795 1.097.287 1.794-.077 1.794-.937 0-.773-.9-1.407-2-1.407-2.468 0-2.532-1.121-.227-3.967 1.774-2.19 1.774-2.191 3.655-.112 3.099 3.423 8.159.85 5.79-2.944-.993-1.589-.581-2.041 3.321-3.645 2.449-1.007 4.455-2.169 4.457-2.582s.443-.75.979-.75c1.288 0 .183 5.855-1.664 8.817-1.092 1.751-1.167 2.651-.309 3.686 1.283 1.545-.226 5.368-2.692 6.822-.804.474-1.149 1.608-.812 2.669.406 1.279-.025 2.039-1.405 2.477-1.193.378-1.772 1.202-1.445 2.054.599 1.563-1.168 3.716-3.898 4.75-.962.364-1.75 1.619-1.75 2.789 0 2.226-3.33 7.595-5.963 9.615-1.366 1.047-1.342 1.254.215 1.857 1.184.459 2.39-.086 3.717-1.678 2.104-2.526 2.666-1.913 1.038 1.131-.844 1.574-.541 1.954 2 2.512 3.869.85 4.064 4.832.493 10.094-3.324 4.898-3.182 6.036 1.488 11.905 2.188 2.75 5.447 7.129 7.244 9.732 2.93 4.244 6.768 6.38 6.768 3.768 0-.55 1.035-1 2.3-1s2.746-.446 3.29-.99c.62-.62 2.15-.657 4.088-.101 2.392.686 3.469.516 4.728-.744 4.803-4.802 6.925 3.04 2.546 9.405-3.724 5.412-1.48 4.855 3.795-.941 1.786-1.963 3.851-3.336 4.59-3.052.738.282 1.92-.181 2.625-1.031 1.934-2.33 4.935-1.866 6.224.963 1.583 3.475-.177 6.436-7.813 13.14-6.161 5.409-6.161 5.409-3.267 8.303q6.73 6.731-2.936 8.665c-2.37.473-3.292.23-3.762-.995-.888-2.314-2.696-2.009-5.448.92-2.037 2.169-2.206 2.834-1.151 4.523 1.864 2.986.028 5.71-3.506 5.2-4.597-.663-9.708 5.273-8.219 9.547.611 1.753 1.63 3.202 2.264 3.219s.361.49-.606 1.054c-.967.563-2.166.771-2.665.463-.498-.308-1.136-.096-1.417.471-.28.567-.375.457-.21-.244a1.32 1.32 0 0 1 1.594-.969c1.051.249 1.054.018.019-1.229-.82-.989-2.396-1.39-4.419-1.124a92 92 0 0 1-6.144.558c-1.65.081-2.437.374-1.75.651.688.279 1.25 1.087 1.25 1.799s.675 1.854 1.5 2.539c5.107 4.238-.167 9.564-11.856 11.977-5.805 1.198-5.851 1.236-5.25 4.241.333 1.668.606 4.11.606 5.428 0 1.565.84 2.78 2.421 3.5 1.427.65 2.204 1.669 1.892 2.481-1.315 3.427.629 6.545 3.665 5.878 3.965-.871 7.62 1.069 5.906 3.134-.684.825-2.082 1.281-3.105 1.013-1.464-.382-1.732-.077-1.254 1.431.545 1.717.081 1.917-4.459 1.917-5.146 0-6.794-1.89-2.64-3.028 2.787-.763 3.151-3.008.595-3.677-1.452-.379-1.789-.821-.999-1.309 1.624-1.003.253-6.985-1.601-6.986-.782 0-1.421-.392-1.421-.872s-1.851-1.168-4.114-1.53c-2.276-.364-4.845-1.556-5.75-2.669-1.563-1.921-1.645-1.764-1.848 3.531-.199 5.212-.072 5.54 2.143 5.54 5.607 0 3.707 7.564-2.136 8.502-2.087.335-5.28 1.263-7.096 2.062-2.486 1.094-3.803 1.183-5.335.363-2.367-1.266-3.36-.663-2.519 1.53.326.849 1.676 1.543 3.001 1.543 3.904 0 5.075 2.286 3.115 6.077-1.665 3.218-1.666 3.218-13.063 2.607s-11.398-.611-11.398 2.418c0 8.621-10.579 8.949-12.836.398-1.025-3.886-7.44-4.574-7.971-.856-.417 2.928-5.229 3.934-5.933 1.241-.544-2.077-1.366-2.361-2.81-.97-.522.504-2.075 1.066-3.45 1.25-1.71.229-2.602 1.053-2.823 2.609-.261 1.844-.83 2.2-3 1.878-1.472-.218-2.582-.851-2.467-1.405.116-.555-.672-1.807-1.75-2.783-1.881-1.703-1.962-1.698-2.002.131-.024 1.048-1.416 3.03-3.095 4.405a541 541 0 0 0-5.708 4.749c-4.916 4.164-8.422 2.715-9.677-3.999-.385-2.061-.881-3.749-1.102-3.75s-3.649.9-7.619 2c-14.524 4.025-29-2.533-15.77-7.145 1.657-.578 3.013-1.445 3.013-1.928s-1.155-.438-2.566.098c-2.123.807-3.159.524-6-1.643-3.139-2.394-4.983-5.457-2.279-3.787.716.443.883.275.439-.443-1.049-1.697-4.913.576-4.188 2.464.811 2.113-2.281 2.937-3.707.987-1.831-2.504-6.976.008-6.236 3.044 1.341 5.502-5.446 8.159-7.44 2.914-.95-2.498-5.437-1.816-9.523 1.446-1.865 1.489-6.803 1.559-7.292.104-.259-.768-.013-1.108.549-.761.56.346.996.071.973-.61-.161-4.454.444-5.606 3.52-6.697 3.668-1.3 2.102-3.54-3.25-4.647-1.375-.284-3.306-.954-4.29-1.489-.986-.536-2.157-.749-2.603-.473-.448.276-1.667-.136-2.71-.916-1.793-1.341-1.767-1.385.487-.816 1.773.448 2.26.242 1.896-.8-.268-.771-1.228-1.27-2.134-1.108s-1.646-.113-1.646-.61c0-1.368-6.697-8.183-8.04-8.184-1.264 0-.447 5.053.968 5.991 1.274.844.882 7.15-.413 6.653-.657-.252-1.123.469-1.084 1.676.084 2.591-2.923 3.446-3.828 1.089-.357-.929.047-2.752.897-4.05 1.424-2.172 1.405-2.362-.227-2.394-.976-.02-2.897-.658-4.27-1.418-1.696-.939-2.884-1.061-3.702-.382-1.603 1.33-5.582.011-4.95-1.641.545-1.42-1.94-5.524-3.343-5.524-1.258 0-10.008-8.116-10.008-9.282 0-.581 1.664-.708 4.125-.314 3.832.613 4.086.511 3.58-1.429-.45-1.717-.294-1.879.874-.91 2.272 1.886 1.639-.557-.69-2.659-1.16-1.048-2.975-3.744-4.033-5.992-1.69-3.592-9.922-9.936-15.158-11.681-3.332-1.111 3.063-11.87 6.517-10.966 1.767.462 1.998.235 1.38-1.356-1.235-3.177-1.163-3.926.35-3.596 2.291.498 6.055-1.977 6.055-3.984 0-1.079.72-1.831 1.755-1.831 2.437 0 4.522-6.525 2.596-8.124-.743-.616-1.35-1.939-1.35-2.939-.001-1.001-.451-2.097-1-2.437-.55-.34-1-1.518-1-2.618s-.404-1.752-.895-1.448c-.49.303-1.843-1.357-3.005-3.691s-2.66-5.143-3.328-6.243-2.239-3.678-3.493-5.729c-2.852-4.664-2.888-7.741-.126-10.706 1.922-2.063 1.98-2.41.542-3.215-.887-.497-1.358-1.568-1.045-2.382.387-1.012-.573-1.955-3.043-2.987-1.984-.829-3.645-2.064-3.69-2.744-.242-3.637-1.198-7.557-2.465-10.115-.785-1.582-1.159-3.945-.832-5.25.405-1.611.16-2.392-.764-2.435-.746-.035-.333-.475.918-.977 2.606-1.047 2.206-5.5-.687-7.629-4.752-3.496-5.041-3.891-4.456-6.081.33-1.238 1.379-2.25 2.33-2.25.95 0 2.543-.9 3.538-2s2.231-2 2.745-2 1.779-1.012 2.81-2.25c1.615-1.934 1.883-2.003 1.912-.49.018.968-.867 2.53-1.967 3.472-2.538 2.173-2.518 2.899.1 3.584 1.157.303 1.805 1.029 1.442 1.617-.363.587-.445 1.067-.183 1.067.263 0 1.25.298 2.196.66 1.212.464 1.572.243 1.224-.75-.57-1.629 2.992-7.17 4.15-6.454.427.264 1.613-.132 2.636-.879 2.017-1.475.615-4.576-2.069-4.577-1.332 0-4.101-8.453-3.604-11 .162-.825.239-3.222.17-5.326-.108-3.399.22-3.954 2.949-4.984 2.134-.806 3.024-1.774 2.919-3.175-.26-3.456.036-4.654 1-4.058a1.09 1.09 0 0 0 1.502-.347c.313-.507 1.402-.705 2.42-.438 2.56.669 5.59-2.434 4.113-4.214-.807-.972-.795-1.907.043-3.472.63-1.178.9-2.782.6-3.564-.38-.993.2-1.422 1.923-1.422 1.358 0 2.469-.45 2.47-1 0-.55-.437-1-.97-1s-.71-.675-.393-1.5c.33-.861.02-1.5-.73-1.5-1.018 0-1.041-.267-.108-1.2.66-.66 1.2-1.948 1.2-2.862 0-1.277 1.32-1.818 5.684-2.331 3.126-.367 6.276-1.159 7-1.76 1.767-1.466 1.673-3.846-.153-3.847-.894 0-1.243.586-.893 1.5.363.945-.011 1.5-1.011 1.5-1.986 0-1.574-5.786.506-7.103 3.478-2.204-2.762-.68-7.275 1.776-3.573 1.945-5.211 2.374-6.012 1.573-.743-.743-1.913-.79-3.605-.148-4.224 1.606-6.24.29-6.24-4.07 0-4.477 3.34-6.913 15.25-11.124 7.366-2.604 7.512-2.802 5.108-6.871-1.99-3.368-1.188-7.635 1.6-8.52 2.676-.849 9.035.449 9.056 1.848.042 3.128 1.618 3.829 5.793 2.579 4.398-1.318 5.909-3.37 4.09-5.56-.88-1.063-.605-1.805 1.234-3.325 2.036-1.682 2.524-1.753 3.477-.506 1.928 2.52 17.01-1.493 15.954-4.243-.865-2.257 4.422-5.084 5.593-2.991 1.402 2.505 4.122 2.048 7.252-1.219 2.783-2.905 2.783-2.905.625-5.062-3.774-3.774-.756-10.609 4.56-10.326 5.589.297 6.264.495 5.822 1.71-.217.595-.005 1.692.47 2.437 1.046 1.642 5.668-.946 6.598-3.694.309-.914 3.365-3.792 6.79-6.397 3.42-2.6 6.265-4.737 6.328-4.75m65.339 318.986c.582 0 1.06.45 1.06 1s-.198 1-.441 1-.719-.45-1.059-1-.141-.999.44-1m-91.94-7.618c0-.825.45-1.222 1-.882s1 1.294 1 2.119c0 .824-.45 1.221-1 .881s-1-1.293-1-2.118m85.5-1.382c.275 0 .5.225.5.5s-.225.5-.5.5a.5.5 0 0 1-.5-.5c0-.275.225-.5.5-.5m-127.56-8c.582 0 1.06.45 1.06 1s-.198 1-.441 1-.72-.45-1.059-1c-.34-.55-.141-.999.44-1m-2.94-1c.55 0 1 .45 1 1s-.45 1-1 1-1-.45-1-1 .45-1 1-1m60 1.107c0-1.644-2.785-1.984-4.653-.57-1.705 1.292-1.597 1.402 1.403 1.431 1.787.018 3.25-.37 3.25-.861m-45-2.107c.733 0 1.033.3.667.667a.95.95 0 0 1-1.334 0c-.366-.367-.066-.667.667-.667m-9.583.079c1.054-.043 1.644.193 1.312.525s-1.195.368-1.916.079c-.798-.319-.56-.556.604-.604m1.583-3.079c.55 0 1 .45 1 1s-.45 1-1 1-1-.45-1-1 .45-1 1-1m-8.5-1c.825 0 1.5.661 1.5 1.469 0 .894-.586 1.243-1.5.893-.825-.317-1.5-.978-1.5-1.469s.675-.893 1.5-.893m-.5-8c.55 0 1 .198 1 .441s-.45.719-1 1.059-1 .141-1-.441.45-1.059 1-1.059m200.5-6c.825 0 1.5.17 1.5.378 0 .207-.675.938-1.5 1.622-1.229 1.02-1.5.951-1.5-.378 0-.892.675-1.622 1.5-1.622m5-1c.275 0 .5.225.5.5s-.225.5-.5.5a.5.5 0 0 1-.5-.5c0-.275.225-.5.5-.5m-1.808-3.641c.54-1.409.707-1.398 1.549.107 1.058 1.89.425 3.064-1.132 2.102-.561-.349-.749-1.342-.417-2.209m-3.534-.359c0-1.375.227-1.937.504-1.25.278.688.278 1.813 0 2.5-.277.688-.504.125-.504-1.25m2.342-1c.275 0 .5.225.5.5s-.225.5-.5.5a.5.5 0 0 1-.5-.5c0-.275.225-.5.5-.5m-5.844-1.455q-.555-1.444.895-.886c1.68.645 1.794 1.01.554 1.776-.493.305-1.145-.096-1.449-.89m6.844-.545c.275 0 .5.225.5.5s-.225.5-.5.5a.5.5 0 0 1-.5-.5c0-.275.225-.5.5-.5m39.5-3c0-.733.3-1.033.667-.667a.95.95 0 0 1 0 1.334c-.367.366-.667.066-.667-.667m-6-10.441c0-1.757.6-2.015 1.457-.628.317.512.118 1.214-.441 1.56-.559.344-1.016-.075-1.016-.932M39.241 257.57c-2.373-.911-2.69-.758-2.025.975.334.87.607 1.77.607 2s.675.418 1.5.418c1.99 0 1.928-2.622-.082-3.393m255.48-5.607c1.658 0 8.149 6.113 7.54 7.101-1.492 2.413-6.742-.804-7.918-4.851-.379-1.302-.22-2.249.378-2.25m-20.398 4c-.275 0-.5.225-.5.5s.225.5.5.5.5-.225.5-.5-.225-.5-.5-.5m-6-3c-.275 0-.5.225-.5.5s.225.5.5.5.5-.225.5-.5-.225-.5-.5-.5m-1.677-3.667c-.389-2.009-2.386-2.848-3.29-1.385-.88 1.423.242 3.052 2.099 3.052.876 0 1.378-.703 1.191-1.667m2.677.667c-.275 0-.5.225-.5.5s.225.5.5.5.5-.225.5-.5-.225-.5-.5-.5m-245-17c.275 0 .5.225.5.5s-.225.5-.5.5a.5.5 0 0 1-.5-.5c0-.275.225-.5.5-.5m2 0c.275 0 .5.225.5.5s-.225.5-.5.5a.5.5 0 0 1-.5-.5c0-.275.225-.5.5-.5m4-50c-.275 0-.5.225-.5.5s.225.5.5.5.5-.225.5-.5-.225-.5-.5-.5m-4.5 0c.733 0 1.033.3.667.667a.95.95 0 0 1-1.334 0c-.366-.367-.066-.667.667-.667m-1.281-14.918c.165-2.193-1.234-3.676-2.118-2.246-.295.478.026 1.64.713 2.579 1.154 1.578 1.263 1.552 1.405-.333m1.781-2.082c-.275 0-.5.225-.5.5s.225.5.5.5.5-.225.5-.5-.225-.5-.5-.5m251.7-11.799c3.351-3.351 7.363-.019 6.367 5.289-.771 4.111-2.856 4.579-5.624 1.26-2.183-2.616-2.436-4.856-.743-6.549m-277.2 2.799c.733 0 1.033.3.667.667a.95.95 0 0 1-1.334 0c-.366-.367-.066-.667.667-.667m286.094-9c.498 0 .906.9.906 2s-.173 1.999-.383 2-.619-.9-.907-2c-.287-1.1-.115-2 .384-2m-1.594-2c.275 0 .5.225.5.5s-.225.5-.5.5a.5.5 0 0 1-.5-.5c0-.275.225-.5.5-.5m7.882-3c.275 0 .778.45 1.118 1s.393 1 .118 1-.778-.45-1.118-1-.393-1-.118-1M18.68 133.08c.195-.064.119.503-.172 1.261s0 1.909.643 2.557c.9.904.602.968-1.277.276-3.058-1.127-3.74-2.892-1.356-3.51.992-.257 1.965-.52 2.162-.584m8.81-1.45c1.116-1.117 2-.749 2 .833 0 .825-.6 1.5-1.334 1.5-1.419 0-1.77-1.229-.666-2.333m266.273.333c.582 0 1.06.45 1.06 1s-.198 1-.441 1-.719-.45-1.059-1-.141-.999.44-1m2.56 1c.275 0 .5.225.5.5s-.225.5-.5.5a.5.5 0 0 1-.5-.5c0-.275.225-.5.5-.5m-275.5-4c.55 0 1 .675 1 1.5s-.45 1.5-1 1.5-1-.675-1-1.5.45-1.5 1-1.5m282 .128c3.258-1.305 5-1.362 5-.163 0 1.749-3.891 3.196-5.763 2.142-1.557-.876-1.478-1.081.763-1.979m-288.434-3.23c3.127-1.225 4.078-.943 2.037.602-1.044.79-2.364 1.148-2.934.795-.598-.369-.218-.96.896-1.397m276.493-.898c.518 0 .941.45.941 1s-.703 1-1.56 1c-.856 0-1.28-.45-.94-1s1.041-1 1.559-1m-37.559-20c-.275 0-.5.225-.5.5s.225.5.5.5.5-.225.5-.5-.225-.5-.5-.5m-215-3c.275 0 .5.225.5.5s-.225.5-.5.5a.5.5 0 0 1-.5-.5c0-.275.225-.5.5-.5m5-1c.275 0 .5.225.5.5s-.225.5-.5.5a.5.5 0 0 1-.5-.5c0-.275.225-.5.5-.5m-11.25-5.017c1.787-1.093 3.85-1.76 4.582-1.485.732.276 2.082.538 3 .581.999.047 1.176.279.442.576-.673.272-1.452.35-1.73.17-.278-.178-1.215.687-2.081 1.925-1.028 1.467-2.602 2.25-4.52 2.25-3.852 0-3.733-1.546.307-4.017m228.25 3.017c.275 0 .5.225.5.5s-.225.5-.5.5a.5.5 0 0 1-.5-.5c0-.275.225-.5.5-.5m-218-1c.275 0 .5.225.5.5s-.225.5-.5.5a.5.5 0 0 1-.5-.5c0-.275.225-.5.5-.5m12.32-8.171c-.347-2.352-2.271-3.527-3.232-1.972-.907 1.468.44 4.143 2.089 4.143.932 0 1.346-.787 1.143-2.171m184.68-14.829c.275 0 .5.225.5.5s-.225.5-.5.5a.5.5 0 0 1-.5-.5c0-.275.225-.5.5-.5m34.5-2.004c0-.513.675-.721 1.5-.464.825.258 2.25.709 3.167 1.001 1.174.376 1.353.846.607 1.592-1.18 1.18-5.273-.473-5.274-2.129M69.807 71.213c.022-1.797-1.658-1.54-2.39.364-.392 1.023-1.345 1.423-2.606 1.093-1.092-.285-1.987-.16-1.988.278s1.195 1.099 2.655 1.466c2.667.668 4.296-.536 4.33-3.2m174.575-2.25c-.243 0-.719.45-1.059 1s-.141 1 .44 1c.582 0 1.06-.45 1.06-1s-.198-1-.441-1m-3.059-1c-.275 0-.5.225-.5.5s.225.5.5.5.5-.225.5-.5-.225-.5-.5-.5m-97.083-21.92c-1.165.047-1.402.284-.604.603.721.289 1.584.253 1.916-.08.332-.331-.258-.567-1.312-.524m37.583-2.08c-.733 0-1.033.3-.667.667a.95.95 0 0 0 1.334 0c.366-.367.066-.667-.667-.667m-34.478-9.63c-1.136-.435-1.813.026-2.198 1.5-.307 1.172-1.18 2.13-1.941 2.13-.76 0-1.383.45-1.383 1 0 1.52 2.594 1.195 4-.5.685-.825 2.288-1.5 3.563-1.5s2.597-.45 2.937-1-.272-1-1.359-1c-1.088 0-2.717-.283-3.619-.63m-8.398 2.363c-.988-.98-1.102-.865-.56.56.376.986.935 1.54 1.243 1.233s.001-1.114-.683-1.793m21.376-6.733c.275 0 .5.225.5.5s-.225.5-.5.5a.5.5 0 0 1-.5-.5c0-.275.225-.5.5-.5m45.5-1c.733 0 1.033.3.667.667a.95.95 0 0 1-1.334 0c-.366-.367-.066-.667.667-.667m5-4c.55 0 1 .198 1 .44 0 .244-.45.72-1 1.06s-1 .14-1-.441c0-.582.45-1.059 1-1.059m-34.5 0c.275 0 .5.225.5.5s-.225.5-.5.5a.5.5 0 0 1-.5-.5c0-.275.225-.5.5-.5m-3.5-6c.733 0 1.033.3.667.667a.95.95 0 0 1-1.334 0c-.366-.367-.066-.667.667-.667m1-3c0-.733.3-1.033.667-.667a.95.95 0 0 1 0 1.334c-.367.366-.667.066-.667-.667m35-2c.733 0 1.033.3.667.667a.95.95 0 0 1-1.334 0c-.366-.367-.066-.667.667-.667m-31.5-1c.275 0 .5.225.5.5s-.225.5-.5.5a.5.5 0 0 1-.5-.5c0-.275.225-.5.5-.5m-11-2c.275 0 .5.225.5.5s-.225.5-.5.5a.5.5 0 0 1-.5-.5c0-.275.225-.5.5-.5m9.5 0c0-.733.3-1.033.667-.667a.95.95 0 0 1 0 1.334c-.367.366-.667.066-.667-.667m-4.5-1c.275 0 .5.225.5.5s-.225.5-.5.5a.5.5 0 0 1-.5-.5c0-.275.225-.5.5-.5m-38.941-3c.243 0 .441.45.441 1s-.478 1-1.06 1c-.581 0-.78-.45-.44-1s.816-1 1.059-1m-9.559 1c.733 0 1.033.3.667.667a.95.95 0 0 1-1.334 0c-.366-.367-.066-.667.667-.667m44.381-5.652c2.929-2.519 5.619-3.082 5.619-1.177 0 1.726-3.081 4.829-4.795 4.83-.816 0-2.026.74-2.688 1.645-1.062 1.452-1.184 1.375-1.035-.65.093-1.265 1.398-3.356 2.899-4.648" data-figma-scatter="f0.51_w0.06_aj180_sj0.65_r0_s17656661811333049531_sw3" data-figma-scatter-ref="stroke0_206_8104_ref"/></defs></svg>