<svg xmlns="http://www.w3.org/2000/svg" xmlns:xlink="http://www.w3.org/1999/xlink" width="315" height="93" fill="none" viewBox="0 0 315 93"><path fill="#e0cea5" d="m52.572 1.694-50.407 26.7 5.706 62.3 44.7-13.35 53.261 13.35 128.394-13.35 78.939 13.35-7.609-25.587c-6.086-14.24 2.537-37.825 7.609-47.838L252.297 1.694c-13.696 5.34-39.311 12.609-50.407 15.575h-75.135z"/><use xlink:href="#a" transform="rotate(100.951 -8.76 15.293)scale(.01241)"/><use xlink:href="#a" transform="rotate(-69.532 21.16 13.52)scale(.0139)"/><use xlink:href="#a" transform="rotate(-35.95 42.36 7.236)scale(.00864)"/><use xlink:href="#a" transform="rotate(93.079 -7.707 16.217)scale(.00683)"/><use xlink:href="#a" transform="rotate(136.666 -.392 14.504)scale(.0063)"/><use xlink:href="#a" transform="rotate(80.418 -9.325 17.56)scale(.00572)"/><use xlink:href="#a" transform="rotate(1.617 -774.264 297.224)scale(.01292)"/><use xlink:href="#a" transform="rotate(-37.414 39.205 -3.301)scale(.006)"/><use xlink:href="#a" transform="rotate(200.769 8.687 10.923)scale(.00606)"/><use xlink:href="#a" transform="rotate(-68.774 22.898 3.057)scale(.00817)"/><use xlink:href="#a" transform="rotate(116.936 2.354 15.7)scale(.01158)"/><use xlink:href="#a" transform="rotate(213.618 12.334 9.336)scale(.01461)"/><use xlink:href="#a" transform="rotate(-90.893 18.939 2.626)scale(.01333)"/><use xlink:href="#a" transform="rotate(27.095 -22.693 49.257)scale(.01266)"/><use xlink:href="#a" transform="rotate(-58.737 25.918 -8.165)scale(.01476)"/><use xlink:href="#a" transform="rotate(35.001 -11.902 45.763)scale(.00638)"/><use xlink:href="#a" transform="rotate(30.6 -10.598 52.015)scale(.0135)"/><use xlink:href="#a" transform="rotate(141.99 12.72 12.97)scale(.01259)"/><use xlink:href="#a" transform="rotate(-45.492 30.372 -25.85)scale(.00673)"/><use xlink:href="#a" transform="rotate(-78.51 23.198 -9.866)scale(.01153)"/><use xlink:href="#a" transform="rotate(122.655 14.416 15.497)scale(.01297)"/><use xlink:href="#a" transform="rotate(-24.68 39.882 -66.881)scale(.01225)"/><use xlink:href="#a" transform="rotate(252.069 21.67 -6.783)scale(.0056)"/><use xlink:href="#a" transform="rotate(94.99 16.096 21.979)scale(.01387)"/><use xlink:href="#a" transform="rotate(211.469 21.292 .226)scale(.01128)"/><use xlink:href="#a" transform="rotate(45.436 13.216 51.079)scale(.00981)"/><use xlink:href="#a" transform="rotate(-65.314 26.25 -26.569)scale(.01148)"/><use xlink:href="#a" transform="rotate(36.91 16.467 66.57)scale(.01268)"/><use xlink:href="#a" transform="rotate(68.219 19.43 35.849)scale(.00548)"/><use xlink:href="#a" transform="rotate(-95.151 25.47 -17.312)scale(.00623)"/><use xlink:href="#a" transform="rotate(-15.955 33.03 -157.895)scale(.01239)"/><use xlink:href="#a" transform="rotate(-36.958 27.955 -67.783)scale(.01126)"/><use xlink:href="#a" transform="rotate(-69.863 27.063 -33.28)scale(.00611)"/><use xlink:href="#a" transform="rotate(185.345 26.05 .514)scale(.0057)"/><use xlink:href="#a" transform="rotate(140.916 26.393 10.552)scale(.0066)"/><use xlink:href="#a" transform="rotate(226.871 27.342 -9.585)scale(.00783)"/><use xlink:href="#a" transform="rotate(-6.89 30.13 -438.03)scale(.01048)"/><use xlink:href="#a" transform="rotate(134.668 28.341 13.354)scale(.0073)"/><use xlink:href="#a" transform="rotate(251.922 29.917 -18.107)scale(.00918)"/><use xlink:href="#a" transform="rotate(242.247 30.365 -15.55)scale(.00574)"/><use xlink:href="#a" transform="rotate(-16.916 37.262 -195.416)scale(.00547)"/><use xlink:href="#a" transform="rotate(-85.076 32.11 -30.023)scale(.00724)"/><use xlink:href="#a" transform="rotate(-45.958 33.925 -67.668)scale(.01446)"/><use xlink:href="#a" transform="rotate(253.412 33.744 -20.794)scale(.00734)"/><use xlink:href="#a" transform="matrix(.00888 .0109 -.0109 .00888 66.25 1.258)"/><use xlink:href="#a" transform="rotate(209.99 35.533 -5.18)scale(.01353)"/><use xlink:href="#a" transform="rotate(76.33 32.405 46.908)scale(.00545)"/><use xlink:href="#a" transform="rotate(31.384 30.877 126.762)scale(.01333)"/><use xlink:href="#a" transform="rotate(36.904 30.151 111.012)scale(.00783)"/><use xlink:href="#a" transform="rotate(222.564 39.32 -9.78)scale(.01461)"/><use xlink:href="#a" transform="rotate(183.363 39.487 3.31)scale(.0118)"/><use xlink:href="#a" transform="rotate(99.638 38.235 37.083)scale(.01212)"/><use xlink:href="#a" transform="rotate(89.148 38.729 44.885)scale(.0129)"/><use xlink:href="#a" transform="rotate(241.257 44.191 -19.03)scale(.01162)"/><use xlink:href="#a" transform="rotate(64.34 38.822 71.145)scale(.0141)"/><use xlink:href="#a" transform="rotate(-55.873 51.164 -75.736)scale(.0067)"/><use xlink:href="#a" transform="rotate(-3.936 144.942 -1246.78)scale(.01412)"/><use xlink:href="#a" transform="rotate(148.764 44.312 17.69)scale(.00592)"/><use xlink:href="#a" transform="rotate(88.027 41.435 51.894)scale(.00552)"/><use xlink:href="#a" transform="rotate(-90.786 51.153 -38.47)scale(.01322)"/><use xlink:href="#a" transform="rotate(74.802 43.118 66.832)scale(.01366)"/><use xlink:href="#a" transform="rotate(-1.409 430.86 -3854.858)scale(.00998)"/><use xlink:href="#a" transform="rotate(236.797 52.368 -19.831)scale(.0079)"/><use xlink:href="#a" transform="rotate(225.192 52.54 -13.904)scale(.00914)"/><use xlink:href="#a" transform="rotate(208.278 52.943 -5.46)scale(.01333)"/><use xlink:href="#a" transform="rotate(214.551 54.123 -8.717)scale(.01063)"/><use xlink:href="#a" transform="rotate(186.216 53.447 4.318)scale(.00901)"/><use xlink:href="#a" transform="rotate(40.818 38.657 148.111)scale(.01002)"/><use xlink:href="#a" transform="rotate(-4.282 219.277 -1419.002)scale(.00643)"/><use xlink:href="#a" transform="rotate(6.875 -41.655 900.696)scale(.01183)"/><use xlink:href="#a" transform="rotate(-98.18 61.77 -39.268)scale(.01186)"/><use xlink:href="#a" transform="rotate(112.811 53.785 45.356)scale(.01464)"/><use xlink:href="#a" transform="rotate(-71.13 67.605 -71.836)scale(.00601)"/><use xlink:href="#a" transform="rotate(-23.735 91.234 -265.414)scale(.00701)"/><use xlink:href="#a" transform="rotate(36.773 37.528 182.803)scale(.00547)"/><use xlink:href="#a" transform="rotate(-38.805 79.925 -157.942)scale(.00592)"/><use xlink:href="#a" transform="rotate(165.294 59.659 16.311)scale(.01072)"/><use xlink:href="#a" transform="rotate(23.905 25.372 291.336)scale(.00553)"/><use xlink:href="#a" transform="rotate(75.725 51.379 86.205)scale(.0057)"/><use xlink:href="#a" transform="rotate(130.514 59.088 37.087)scale(.01148)"/><use xlink:href="#a" transform="rotate(44.954 44.383 158.031)scale(.00843)"/><use xlink:href="#a" transform="rotate(20.71 19.92 350.426)scale(.0068)"/><use xlink:href="#a" transform="rotate(117.673 58.976 47.197)scale(.00577)"/><use xlink:href="#a" transform="rotate(254.374 70.84 -38.534)scale(.00946)"/><use xlink:href="#a" transform="rotate(205.149 67.02 -5.258)scale(.00621)"/><use xlink:href="#a" transform="rotate(100.509 58.832 63.033)scale(.00567)"/><use xlink:href="#a" transform="rotate(-10.98 151.431 -669.208)scale(.00612)"/><use xlink:href="#a" transform="rotate(242.68 71.71 -30.804)scale(.0068)"/><use xlink:href="#a" transform="rotate(237.552 72.282 -26.539)scale(.01353)"/><use xlink:href="#a" transform="rotate(-62.754 81.533 -100.466)scale(.01274)"/><use xlink:href="#a" transform="rotate(28.412 38.583 279.405)scale(.00812)"/><use xlink:href="#a" transform="rotate(108.136 64.121 59.302)scale(.00563)"/><use xlink:href="#a" transform="rotate(-9.64 165.083 -815.08)scale(.00845)"/><use xlink:href="#a" transform="rotate(83.303 62.132 88.255)scale(.00611)"/><use xlink:href="#a" transform="rotate(-96.168 79.255 -54.106)scale(.0089)"/><use xlink:href="#a" transform="rotate(215.089 75.957 -12.65)scale(.01452)"/><use xlink:href="#a" transform="rotate(177.275 73.54 10.772)scale(.00574)"/><use xlink:href="#a" transform="rotate(161.747 73.403 21.256)scale(.00951)"/><use xlink:href="#a" transform="rotate(87.206 67.706 87.09)scale(.01157)"/><use xlink:href="#a" transform="rotate(-38.961 98.741 -202.474)scale(.00831)"/><use xlink:href="#a" transform="rotate(64.897 65.877 128.396)scale(.01388)"/><use xlink:href="#a" transform="rotate(200.148 79.54 -4.374)scale(.00842)"/><use xlink:href="#a" transform="rotate(8.053 -31.315 1108.919)scale(.01034)"/><use xlink:href="#a" transform="rotate(191.688 81.016 1.716)scale(.01275)"/><use xlink:href="#a" transform="rotate(-3.231 371.975 -2809.2)scale(.00597)"/><use xlink:href="#a" transform="rotate(196.437 82.329 -2.295)scale(.00773)"/><use xlink:href="#a" transform="rotate(50.409 66.732 180.418)scale(.0138)"/><use xlink:href="#a" transform="rotate(205.361 85.096 -8.787)scale(.01078)"/><use xlink:href="#a" transform="rotate(153.676 82.48 28.92)scale(.01118)"/><use xlink:href="#a" transform="rotate(116.121 79.627 61.347)scale(.00677)"/><use xlink:href="#a" transform="rotate(-49.262 102.52 -173.517)scale(.01157)"/><use xlink:href="#a" transform="rotate(157.422 84.508 26.092)scale(.00605)"/><use xlink:href="#a" transform="rotate(142.945 84.701 38.133)scale(.01118)"/><use xlink:href="#a" transform="rotate(-3.777 332.14 -2614.321)scale(.00774)"/><use xlink:href="#a" transform="rotate(150.022 86.222 32.511)scale(.00727)"/><use xlink:href="#a" transform="rotate(-45.272 108.2 -201.435)scale(.00635)"/><use xlink:href="#a" transform="rotate(1.416 -518.02 7136.226)scale(.01292)"/><use xlink:href="#a" transform="rotate(85.82 81.58 105.333)scale(.00569)"/><use xlink:href="#a" transform="rotate(7.071 -34.188 1461.743)scale(.01013)"/><use xlink:href="#a" transform="rotate(227.467 95.559 -30.437)scale(.00882)"/><use xlink:href="#a" transform="rotate(61.886 80.772 161.834)scale(.0131)"/><use xlink:href="#a" transform="rotate(216.012 96.234 -20.852)scale(.00617)"/><use xlink:href="#a" transform="rotate(172.646 93.872 15.263)scale(.00856)"/><use xlink:href="#a" transform="rotate(28.769 63.48 374.823)scale(.00767)"/><use xlink:href="#a" transform="rotate(189.179 96.601 2.022)scale(.01055)"/><use xlink:href="#a" transform="rotate(142.151 93.553 41.739)scale(.00614)"/><use xlink:href="#a" transform="rotate(168.164 96.014 19.04)scale(.00637)"/><use xlink:href="#a" transform="rotate(140.124 94.328 44.067)scale(.00565)"/><use xlink:href="#a" transform="rotate(10.832 11.914 1030.212)scale(.00673)"/><use xlink:href="#a" transform="rotate(50.05 83.393 217.732)scale(.01416)"/><use xlink:href="#a" transform="rotate(128.269 95.852 57.05)scale(.00761)"/><use xlink:href="#a" transform="rotate(188.83 100.98 1.619)scale(.0075)"/><use xlink:href="#a" transform="rotate(235.306 105.457 -42.65)scale(.01106)"/><use xlink:href="#a" transform="rotate(153.762 99.778 32.552)scale(.00564)"/><use xlink:href="#a" transform="rotate(-1.08 925.085 -10724.435)scale(.00842)"/><use xlink:href="#a" transform="rotate(-31.509 130.388 -352.038)scale(.00715)"/><use xlink:href="#a" transform="rotate(44.829 87.769 256.712)scale(.01382)"/><use xlink:href="#a" transform="rotate(174.928 105.092 13.445)scale(.01295)"/><use xlink:href="#a" transform="rotate(-57.766 118.054 -180.648)scale(.01212)"/><use xlink:href="#a" transform="rotate(-1.724 523.067 -6992.954)scale(.01165)"/><use xlink:href="#a" transform="rotate(-50.302 121.273 -219.381)scale(.0057)"/><use xlink:href="#a" transform="rotate(-.79 1011.786 -15503.137)scale(.00638)"/><use xlink:href="#a" transform="rotate(179.451 108.413 7.653)scale(.00621)"/><use xlink:href="#a" transform="rotate(252.657 113.509 -72.082)scale(.00838)"/><use xlink:href="#a" transform="rotate(19.044 80.679 652.864)scale(.01424)"/><use xlink:href="#a" transform="rotate(-75.497 117.9 -135.17)scale(.0065)"/><use xlink:href="#a" transform="rotate(119.837 109.053 70.477)scale(.01107)"/><use xlink:href="#a" transform="rotate(229.851 114.562 -45.5)scale(.0067)"/><use xlink:href="#a" transform="rotate(-8.335 175.266 -1524.267)scale(.01005)"/><use xlink:href="#a" transform="rotate(36.936 100.843 342.253)scale(.00898)"/><use xlink:href="#a" transform="rotate(-91.35 118.756 -104.156)scale(.01461)"/><use xlink:href="#a" transform="rotate(-51.86 123.95 -230.164)scale(.0056)"/><use xlink:href="#a" transform="rotate(137.06 114.183 50.164)scale(.00568)"/><use xlink:href="#a" transform="rotate(-69.603 121.766 -160.261)scale(.01148)"/><use xlink:href="#a" transform="rotate(-52.42 123.747 -230.425)scale(.01276)"/><use xlink:href="#a" transform="rotate(139.978 116.915 46.947)scale(.00546)"/><use xlink:href="#a" transform="rotate(146.779 118.366 39.407)scale(.01051)"/><use xlink:href="#a" transform="rotate(77.603 116.374 151.112)scale(.00761)"/><use xlink:href="#a" transform="rotate(115.529 118.806 78.782)scale(.00823)"/><use xlink:href="#a" transform="rotate(11.792 97.42 1162.834)scale(.007)"/><use xlink:href="#a" transform="rotate(16.25 104.645 846.132)scale(.00556)"/><use xlink:href="#a" transform="rotate(76.861 119.075 155.184)scale(.00594)"/><use xlink:href="#a" transform="rotate(193.787 122.377 -11.7)scale(.00566)"/><use xlink:href="#a" transform="rotate(155.686 122.404 29.154)scale(.00718)"/><use xlink:href="#a" transform="rotate(-26.42 129.56 -517.597)scale(.00762)"/><use xlink:href="#a" transform="rotate(174.908 123.653 7.827)scale(.0055)"/><use xlink:href="#a" transform="rotate(181.582 124.315 .548)scale(.0069)"/><use xlink:href="#a" transform="rotate(-62.584 126.33 -201.65)scale(.00576)"/><use xlink:href="#a" transform="rotate(24.825 123.794 565.852)scale(.01114)"/><use xlink:href="#a" transform="rotate(-86.97 126.75 -130.262)scale(.00624)"/><use xlink:href="#a" transform="rotate(55.79 125.817 238.62)scale(.00596)"/><use xlink:href="#a" transform="rotate(225.037 127.706 -50.19)scale(.01129)"/><use xlink:href="#a" transform="rotate(79.916 127.69 153.407)scale(.00913)"/><use xlink:href="#a" transform="rotate(179.344 129.025 2.933)scale(.00897)"/><use xlink:href="#a" transform="rotate(139.755 128.906 49.11)scale(.00545)"/><use xlink:href="#a" transform="rotate(-54.992 131.956 -244.168)scale(.01316)"/><use xlink:href="#a" transform="rotate(203.333 131.375 -24.287)scale(.0076)"/><use xlink:href="#a" transform="rotate(-32.63 136.625 -443.339)scale(.00672)"/><use xlink:href="#a" transform="rotate(157.373 132.856 29.642)scale(.01427)"/><use xlink:href="#a" transform="rotate(-57.038 136.82 -240.405)scale(.00612)"/><use xlink:href="#a" transform="rotate(252.095 135.33 -93.344)scale(.00703)"/><use xlink:href="#a" transform="rotate(74.686 132.111 178.105)scale(.00952)"/><use xlink:href="#a" transform="rotate(-1.524 279.683 -10050.916)scale(.0143)"/><use xlink:href="#a" transform="rotate(241.838 138.194 -76.723)scale(.01044)"/><use xlink:href="#a" transform="rotate(141.02 136.09 52.204)scale(.00672)"/><use xlink:href="#a" transform="rotate(103.214 135.845 112.668)scale(.01032)"/><use xlink:href="#a" transform="rotate(81.443 134.498 164.1)scale(.00651)"/><use xlink:href="#a" transform="rotate(123.322 137.074 78.98)scale(.00642)"/><use xlink:href="#a" transform="rotate(171.535 139.307 15.01)scale(.00706)"/><use xlink:href="#a" transform="rotate(228.155 141.97 -56.952)scale(.00877)"/><use xlink:href="#a" transform="rotate(-34.44 152.841 -444.455)scale(.01231)"/><use xlink:href="#a" transform="rotate(158.39 141.784 32.597)scale(.0123)"/><use xlink:href="#a" transform="rotate(81.125 137.503 171)scale(.00566)"/><use xlink:href="#a" transform="rotate(103.123 140.6 118.84)scale(.0121)"/><use xlink:href="#a" transform="rotate(-91.643 148.883 -133.173)scale(.00682)"/><use xlink:href="#a" transform="rotate(-57.35 153.596 -255.98)scale(.01151)"/><use xlink:href="#a" transform="rotate(115.905 143.617 97.214)scale(.0132)"/><use xlink:href="#a" transform="rotate(150.343 145.637 45.275)scale(.00875)"/><use xlink:href="#a" transform="rotate(112.368 144.38 105.061)scale(.01062)"/><use xlink:href="#a" transform="rotate(76.934 141.569 192.34)scale(.00898)"/><use xlink:href="#a" transform="rotate(168.218 148.706 22.622)scale(.00882)"/><use xlink:href="#a" transform="rotate(27.758 127.416 608.592)scale(.01307)"/><use xlink:href="#a" transform="rotate(-31.353 173.148 -524.516)scale(.01246)"/><use xlink:href="#a" transform="rotate(-81.705 159.546 -166.537)scale(.0069)"/><use xlink:href="#a" transform="rotate(-33.302 174.945 -496.861)scale(.01084)"/><use xlink:href="#a" transform="rotate(254.848 158.617 -108.39)scale(.00622)"/><use xlink:href="#a" transform="rotate(226.122 156.927 -56.537)scale(.00765)"/><use xlink:href="#a" transform="rotate(-42.478 173.482 -385.971)scale(.00612)"/><use xlink:href="#a" transform="rotate(34.01 132.87 511.2)scale(.01282)"/><use xlink:href="#a" transform="rotate(20.522 113.798 863.811)scale(.00864)"/><use xlink:href="#a" transform="rotate(131.28 153.316 79.659)scale(.00878)"/><use xlink:href="#a" transform="rotate(258.894 163.946 -117.837)scale(.01214)"/><use xlink:href="#a" transform="rotate(63.342 142.4 262.011)scale(.01142)"/><use xlink:href="#a" transform="rotate(180.134 156.237 10.874)scale(.00572)"/><use xlink:href="#a" transform="rotate(116.533 150.293 107.91)scale(.01412)"/><use xlink:href="#a" transform="rotate(159.061 153.383 41.16)scale(.00638)"/><use xlink:href="#a" transform="rotate(142.107 151.415 66.302)scale(.00838)"/><use xlink:href="#a" transform="rotate(204.35 158.084 -18.925)scale(.01013)"/><use xlink:href="#a" transform="rotate(220.923 160.246 -41.747)scale(.01309)"/><use xlink:href="#a" transform="rotate(36.009 109.663 487.425)scale(.0059)"/><use xlink:href="#a" transform="rotate(115.496 145.079 112.933)scale(.0087)"/><use xlink:href="#a" transform="rotate(168.037 152.652 33.206)scale(.01037)"/><use xlink:href="#a" transform="rotate(56.595 124.363 301.15)scale(.01408)"/><use xlink:href="#a" transform="rotate(-13.116 306.871 -1307.233)scale(.0074)"/><use xlink:href="#a" transform="rotate(198.649 156.721 -4.978)scale(.0116)"/><use xlink:href="#a" transform="rotate(89.3 134.653 174.503)scale(.01414)"/><use xlink:href="#a" transform="rotate(188.125 154.258 10.617)scale(.00652)"/><use xlink:href="#a" transform="rotate(-20.713 265.805 -804.225)scale(.0128)"/><use xlink:href="#a" transform="rotate(57.882 113.01 296.971)scale(.00677)"/><use xlink:href="#a" transform="rotate(-86.234 176.504 -138.2)scale(.00651)"/><use xlink:href="#a" transform="rotate(119.502 139.931 113.028)scale(.01446)"/><use xlink:href="#a" transform="rotate(177.609 152.125 28.826)scale(.00957)"/><use xlink:href="#a" transform="rotate(-2.334 1363.258 -7363.147)scale(.01458)"/><use xlink:href="#a" transform="rotate(119.779 137.49 115.302)scale(.01094)"/><use xlink:href="#a" transform="rotate(-95.69 177.072 -107.98)scale(.01043)"/><use xlink:href="#a" transform="rotate(29.074 45.846 611.719)scale(.01195)"/><use xlink:href="#a" transform="rotate(81.513 119.8 206.007)scale(.01322)"/><use xlink:href="#a" transform="rotate(150.183 145.196 72.005)scale(.01124)"/><use xlink:href="#a" transform="rotate(143.302 143.555 83.228)scale(.01464)"/><use xlink:href="#a" transform="rotate(164.84 149.41 53.874)scale(.01017)"/><use xlink:href="#a" transform="rotate(175.943 152.44 39.435)scale(.00678)"/><use xlink:href="#a" transform="rotate(240.872 173.344 -55.286)scale(.00576)"/><use xlink:href="#a" transform="rotate(218.369 165.861 -17.882)scale(.00856)"/><use xlink:href="#a" transform="rotate(25.577 1.258 709.806)scale(.0055)"/><use xlink:href="#a" transform="rotate(191.823 157.82 20.334)scale(.00687)"/><use xlink:href="#a" transform="rotate(-57.472 219.255 -242.81)scale(.00671)"/><use xlink:href="#a" transform="rotate(23.376 -18.315 777.694)scale(.0124)"/><use xlink:href="#a" transform="rotate(42.852 60.502 430.192)scale(.00699)"/><use xlink:href="#a" transform="rotate(143.829 143.045 89.309)scale(.00932)"/><use xlink:href="#a" transform="rotate(66.135 96.489 276.272)scale(.00832)"/><use xlink:href="#a" transform="rotate(25.288 -16.722 726.448)scale(.0142)"/><use xlink:href="#a" transform="rotate(-42.251 259.709 -357.523)scale(.01214)"/><use xlink:href="#a" transform="rotate(-26.175 333.035 -623.796)scale(.00773)"/><use xlink:href="#a" transform="rotate(-94.912 194.95 -98.062)scale(.01402)"/><use xlink:href="#a" transform="rotate(175.721 155.254 50.127)scale(.00923)"/><use xlink:href="#a" transform="rotate(195.77 163.325 23.86)scale(.01182)"/><use xlink:href="#a" transform="rotate(134.914 138.83 110.729)scale(.00974)"/><use xlink:href="#a" transform="rotate(135.716 138.414 109.13)scale(.00779)"/><use xlink:href="#a" transform="rotate(100.035 118.821 175.454)scale(.00938)"/><use xlink:href="#a" transform="rotate(171.674 152.096 56.982)scale(.01064)"/><use xlink:href="#a" transform="rotate(172.582 151.494 55.554)scale(.00922)"/><use xlink:href="#a" transform="rotate(81.43 102.285 222.337)scale(.0075)"/><use xlink:href="#a" transform="rotate(33.434 6.062 550.427)scale(.00732)"/><use xlink:href="#a" transform="rotate(253.335 185.05 -67.642)scale(.00563)"/><use xlink:href="#a" transform="rotate(53.757 65.977 341.819)scale(.01013)"/><use xlink:href="#a" transform="rotate(256.348 185.326 -72.677)scale(.00846)"/><use xlink:href="#a" transform="rotate(31.48 -2.27 572.158)scale(.01216)"/><use xlink:href="#a" transform="rotate(20.474 -87.663 861.564)scale(.01275)"/><use xlink:href="#a" transform="rotate(-27.873 322.25 -547.288)scale(.0088)"/><use xlink:href="#a" transform="rotate(212.26 160.07 2.406)scale(.01128)"/><use xlink:href="#a" transform="rotate(189.019 150.03 32.807)scale(.00796)"/><use xlink:href="#a" transform="rotate(-32.24 292.221 -453.094)scale(.01477)"/><use xlink:href="#a" transform="rotate(66.437 79.431 263.245)scale(.0056)"/><use xlink:href="#a" transform="rotate(45.6 42.51 384.626)scale(.00549)"/><use xlink:href="#a" transform="rotate(-6.403 897.085 -2495.74)scale(.01202)"/><use xlink:href="#a" transform="rotate(-59.73 216.648 -203.109)scale(.00728)"/><use xlink:href="#a" transform="rotate(-32.226 286.267 -441.633)scale(.01407)"/><use xlink:href="#a" transform="rotate(184.21 142.633 37.964)scale(.00653)"/><use xlink:href="#a" transform="rotate(240.407 164.955 -37.937)scale(.0079)"/><use xlink:href="#a" transform="rotate(128.922 120.076 109.412)scale(.00929)"/><use xlink:href="#a" transform="rotate(250.287 168.453 -53.599)scale(.01075)"/><use xlink:href="#a" transform="rotate(140.356 123.382 92.142)scale(.00793)"/><use xlink:href="#a" transform="rotate(-76.284 190.325 -131.062)scale(.0076)"/><use xlink:href="#a" transform="rotate(-28.643 298.897 -489.587)scale(.00707)"/><use xlink:href="#a" transform="rotate(171.018 133.2 53.112)scale(.00768)"/><use xlink:href="#a" transform="rotate(-67.098 197.606 -160.103)scale(.00936)"/><use xlink:href="#a" transform="rotate(69.463 75.84 235.29)scale(.0074)"/><use xlink:href="#a" transform="rotate(-73.333 189.129 -136.105)scale(.01025)"/><use xlink:href="#a" transform="rotate(129.418 114.59 104.497)scale(.00989)"/><use xlink:href="#a" transform="rotate(-30.95 277.946 -430.013)scale(.01355)"/><use xlink:href="#a" transform="rotate(52.415 50.025 306.328)scale(.00931)"/><use xlink:href="#a" transform="rotate(39.434 18.603 403.376)scale(.00728)"/><use xlink:href="#a" transform="rotate(98.437 95.442 152.817)scale(.00579)"/><use xlink:href="#a" transform="rotate(-84.178 174.034 -100.575)scale(.00985)"/><use xlink:href="#a" transform="rotate(223.87 145.122 -9.428)scale(.01439)"/><use xlink:href="#a" transform="rotate(-63.39 192.258 -164.508)scale(.00609)"/><use xlink:href="#a" transform="rotate(-44.861 222.458 -262.265)scale(.0135)"/><use xlink:href="#a" transform="rotate(126.011 106.678 104.474)scale(.01378)"/><use xlink:href="#a" transform="rotate(9.62 -335.46 1505.052)scale(.01288)"/><use xlink:href="#a" transform="rotate(-70.545 178.939 -131.837)scale(.01288)"/><use xlink:href="#a" transform="rotate(133.05 106.338 93.123)scale(.01072)"/><use xlink:href="#a" transform="rotate(175.526 120.54 44.648)scale(.00638)"/><use xlink:href="#a" transform="rotate(148.465 111.006 74.263)scale(.01347)"/><use xlink:href="#a" transform="rotate(46.46 30.41 317.94)scale(.00565)"/><use xlink:href="#a" transform="rotate(-27.081 279.283 -452.331)scale(.00932)"/><use xlink:href="#a" transform="rotate(9.848 -317.636 1399.988)scale(.0145)"/><use xlink:href="#a" transform="rotate(103.411 88.37 131.533)scale(.01118)"/><use xlink:href="#a" transform="rotate(7.576 -455.178 1786.134)scale(.00951)"/><use xlink:href="#a" transform="rotate(246.583 141.398 -36.153)scale(.00759)"/><use xlink:href="#a" transform="rotate(194.108 120.488 25.498)scale(.00876)"/><use xlink:href="#a" transform="rotate(226.742 131.53 -9.756)scale(.00635)"/><use xlink:href="#a" transform="rotate(103.235 84.158 129.234)scale(.00793)"/><use xlink:href="#a" transform="rotate(14.753 -182.447 908.934)scale(.00773)"/><use xlink:href="#a" transform="rotate(-96.044 147.769 -60.02)scale(.01173)"/><use xlink:href="#a" transform="rotate(258.93 143.871 -50.291)scale(.0136)"/><use xlink:href="#a" transform="rotate(-8.497 631.82 -1437.415)scale(.00819)"/><use xlink:href="#a" transform="rotate(-30.982 248.523 -349.95)scale(.01477)"/><use xlink:href="#a" transform="rotate(-40.864 213.428 -249.515)scale(.00772)"/><use xlink:href="#a" transform="rotate(87.992 67.934 151.493)scale(.00633)"/><use xlink:href="#a" transform="rotate(152.769 98.474 66.099)scale(.00639)"/><use xlink:href="#a" transform="rotate(90.164 68.57 146.218)scale(.0078)"/><use xlink:href="#a" transform="rotate(67.868 48.553 197.379)scale(.00656)"/><use xlink:href="#a" transform="rotate(163.262 100.492 55.944)scale(.00721)"/><use xlink:href="#a" transform="rotate(-54.011 182.734 -164.489)scale(.00735)"/><use xlink:href="#a" transform="rotate(-69.45 161.631 -108.872)scale(.00906)"/><use xlink:href="#a" transform="rotate(-14.302 417.515 -778.01)scale(.01036)"/><use xlink:href="#a" transform="rotate(177.671 102.604 42.78)scale(.00603)"/><use xlink:href="#a" transform="rotate(9.406 -372.779 1270.19)scale(.01274)"/><use xlink:href="#a" transform="rotate(92.588 64.537 137.083)scale(.0127)"/><use xlink:href="#a" transform="rotate(-80.558 147.684 -75.977)scale(.00986)"/><use xlink:href="#a" transform="rotate(21.37 -111.276 565.21)scale(.00666)"/><use xlink:href="#a" transform="rotate(147.011 87.556 70.174)scale(.00572)"/><use xlink:href="#a" transform="rotate(110.723 71.333 108.746)scale(.0066)"/><use xlink:href="#a" transform="rotate(178.81 98.084 42.414)scale(.0081)"/><use xlink:href="#a" transform="rotate(173.536 95.656 46.976)scale(.01031)"/><use xlink:href="#a" transform="rotate(3.812 -1115.225 2920.773)scale(.00675)"/><use xlink:href="#a" transform="rotate(226.801 113.835 .895)scale(.0114)"/><use xlink:href="#a" transform="rotate(-.615 7624.387 -17541.869)scale(.00628)"/><use xlink:href="#a" transform="rotate(130.289 76.593 85.212)scale(.01254)"/><use xlink:href="#a" transform="rotate(29.221 -60.38 395.712)scale(.0117)"/><use xlink:href="#a" transform="rotate(-18.712 339.966 -516.002)scale(.00586)"/><use xlink:href="#a" transform="rotate(-55.137 169.732 -131.34)scale(.01201)"/><use xlink:href="#a" transform="rotate(199.158 98.468 27.434)scale(.0136)"/><use xlink:href="#a" transform="rotate(-98.265 125.51 -34.185)scale(.01162)"/><use xlink:href="#a" transform="rotate(167.016 84.586 52.062)scale(.0056)"/><use xlink:href="#a" transform="rotate(148.916 77.5 66.721)scale(.00807)"/><use xlink:href="#a" transform="rotate(245.342 114.581 -13.562)scale(.00666)"/><use xlink:href="#a" transform="rotate(182.124 88.613 41.319)scale(.01212)"/><use xlink:href="#a" transform="rotate(-41.342 196.264 -184.604)scale(.00587)"/><use xlink:href="#a" transform="rotate(50.26 -2.191 223.91)scale(.00599)"/><use xlink:href="#a" transform="rotate(-60.175 157.262 -103.102)scale(.00735)"/><use xlink:href="#a" transform="rotate(176.314 83.999 45.969)scale(.01359)"/><use xlink:href="#a" transform="rotate(38.252 -35.762 281.326)scale(.00713)"/><use xlink:href="#a" transform="rotate(-88.343 126.186 -41.671)scale(.00748)"/><use xlink:href="#a" transform="rotate(22.967 -119.94 440.867)scale(.01405)"/><use xlink:href="#a" transform="rotate(10.239 -386.148 942.245)scale(.00556)"/><use xlink:href="#a" transform="rotate(-92.236 121.308 -33.313)scale(.00939)"/><use xlink:href="#a" transform="rotate(199.204 87.49 30.067)scale(.00934)"/><use xlink:href="#a" transform="rotate(-25.585 263.04 -298.494)scale(.01261)"/><use xlink:href="#a" transform="rotate(82.769 31.244 130.909)scale(.01195)"/><use xlink:href="#a" transform="rotate(-88.148 121.247 -35.711)scale(.00558)"/><use xlink:href="#a" transform="rotate(176.572 75.814 45.877)scale(.00785)"/><use xlink:href="#a" transform="rotate(193.257 81.284 34.7)scale(.00608)"/><use xlink:href="#a" transform="rotate(178.496 75.355 44.7)scale(.00744)"/><use xlink:href="#a" transform="rotate(89.449 33.13 118.342)scale(.0139)"/><use xlink:href="#a" transform="rotate(-2.73 1857.391 -3014.958)scale(.00755)"/><use xlink:href="#a" transform="rotate(226.202 91.649 12.76)scale(.00592)"/><use xlink:href="#a" transform="rotate(212.809 85.704 23.582)scale(.01354)"/><use xlink:href="#a" transform="rotate(7.659 -569.157 1101.763)scale(.0065)"/><use xlink:href="#a" transform="rotate(166.803 66.438 52.34)scale(.00814)"/><use xlink:href="#a" transform="rotate(158.607 62.729 57.442)scale(.01013)"/><use xlink:href="#a" transform="rotate(222.976 86.784 17.18)scale(.00689)"/><use xlink:href="#a" transform="rotate(237.085 92.663 6.924)scale(.00548)"/><use xlink:href="#a" transform="rotate(253.073 100.836 -6.029)scale(.0056)"/><use xlink:href="#a" transform="rotate(-15.622 384.393 -446.474)scale(.006)"/><use xlink:href="#a" transform="rotate(61.361 -5.258 156.992)scale(.00616)"/><use xlink:href="#a" transform="rotate(5.978 -763.72 1315.546)scale(.0055)"/><use xlink:href="#a" transform="rotate(-20 313.171 -329.191)scale(.00585)"/><use xlink:href="#a" transform="rotate(-5.534 957.195 -1291.352)scale(.0124)"/><use xlink:href="#a" transform="rotate(38.63 -58.49 227.718)scale(.00755)"/><use xlink:href="#a" transform="rotate(26.867 -115.47 308.425)scale(.01313)"/><use xlink:href="#a" transform="rotate(-34.539 203.794 -155.612)scale(.00831)"/><use xlink:href="#a" transform="rotate(139.736 47.35 67.965)scale(.01346)"/><use xlink:href="#a" transform="rotate(-85.77 108.717 -18.725)scale(.01438)"/><use xlink:href="#a" transform="rotate(-29.415 228.677 -182.217)scale(.00584)"/><use xlink:href="#a" transform="rotate(225.903 78.88 20.718)scale(.01022)"/><use xlink:href="#a" transform="rotate(169.672 55.408 50.641)scale(.00838)"/><use xlink:href="#a" transform="rotate(47.34 -41.654 176.065)scale(.00938)"/><use xlink:href="#a" transform="rotate(158.358 49.609 56.623)scale(.01095)"/><use xlink:href="#a" transform="rotate(222.175 74.17 24.98)scale(.0134)"/><use xlink:href="#a" transform="rotate(172.832 53.102 49.274)scale(.00791)"/><use xlink:href="#a" transform="rotate(150.982 43.637 59.768)scale(.00682)"/><use xlink:href="#a" transform="rotate(-82.39 105.246 -13.569)scale(.01453)"/><use xlink:href="#a" transform="rotate(112.49 23.552 80.847)scale(.00724)"/><use xlink:href="#a" transform="rotate(-75.461 110.526 -21.394)scale(.00576)"/><use xlink:href="#a" transform="rotate(154.215 42.443 57.605)scale(.01126)"/><use xlink:href="#a" transform="rotate(24.54 -150.655 275.16)scale(.01033)"/><use xlink:href="#a" transform="rotate(167.366 45.955 50.89)scale(.01072)"/><use xlink:href="#a" transform="rotate(204.623 59.354 34.486)scale(.0082)"/><use xlink:href="#a" transform="rotate(30.77 -109.117 218.888)scale(.00762)"/><use xlink:href="#a" transform="rotate(78.838 -4.165 102.141)scale(.0088)"/><use xlink:href="#a" transform="rotate(224.898 65.67 25.027)scale(.00547)"/><use xlink:href="#a" transform="rotate(-66.417 113.07 -25.633)scale(.0093)"/><use xlink:href="#a" transform="rotate(157.049 37.909 53.503)scale(.00818)"/><use xlink:href="#a" transform="rotate(15.846 -260.826 363.842)scale(.00936)"/><use xlink:href="#a" transform="rotate(-41.002 159.43 -74.252)scale(.00617)"/><use xlink:href="#a" transform="rotate(-75.431 99.708 -12.865)scale(.00602)"/><use xlink:href="#a" transform="rotate(132.862 25.652 62.354)scale(.00663)"/><use xlink:href="#a" transform="rotate(29.81 -115.754 203.704)scale(.00557)"/><use xlink:href="#a" transform="rotate(-2.646 1874.586 -1778.993)scale(.00663)"/><use xlink:href="#a" transform="rotate(208.092 53.155 32.597)scale(.00554)"/><use xlink:href="#a" transform="rotate(2.8 -1674.818 1724.44)scale(.0069)"/><use xlink:href="#a" transform="rotate(160.156 34.769 50.325)scale(.01371)"/><use xlink:href="#a" transform="rotate(21.872 -171.167 243.408)scale(.01279)"/><use xlink:href="#a" transform="rotate(104.179 7.282 72.298)scale(.00555)"/><use xlink:href="#a" transform="rotate(257.344 72.01 11.63)scale(.00555)"/><use xlink:href="#a" transform="rotate(-64.844 103.038 -16.451)scale(.00844)"/><use xlink:href="#a" transform="rotate(236.578 59.884 22.519)scale(.0097)"/><use xlink:href="#a" transform="rotate(9.53 -443.739 466.378)scale(.01247)"/><use xlink:href="#a" transform="rotate(220.441 51.076 29.35)scale(.01182)"/><use xlink:href="#a" transform="rotate(60.74 -33.491 99.48)scale(.00717)"/><use xlink:href="#a" transform="rotate(101.383 2.078 68.548)scale(.00893)"/><use xlink:href="#a" transform="rotate(170.768 30.617 43.548)scale(.0056)"/><use xlink:href="#a" transform="rotate(146.947 21.845 50.54)scale(.00945)"/><use xlink:href="#a" transform="rotate(52.607 -47.16 104.388)scale(.00772)"/><use xlink:href="#a" transform="rotate(212.359 43.475 31.504)scale(.00656)"/><use xlink:href="#a" transform="rotate(-46.744 122.112 -29.715)scale(.0077)"/><use xlink:href="#a" transform="rotate(-48.282 117.507 -24.638)scale(.01116)"/><use xlink:href="#a" transform="rotate(56.144 -43.042 94.247)scale(.00645)"/><use xlink:href="#a" transform="rotate(233.096 48.803 26.71)scale(.01387)"/><use xlink:href="#a" transform="rotate(212.712 39.684 31.888)scale(.00998)"/><use xlink:href="#a" transform="rotate(-12.623 372.233 -196.807)scale(.00902)"/><use xlink:href="#a" transform="rotate(44.203 -66.542 102.085)scale(.00923)"/><use xlink:href="#a" transform="rotate(136.921 10.955 49.366)scale(.00692)"/><use xlink:href="#a" transform="rotate(196.12 31 36.22)scale(.00668)"/><use xlink:href="#a" transform="rotate(-13.778 341.292 -149.369)scale(.01465)"/><use xlink:href="#a" transform="rotate(16.587 -241.577 193.135)scale(.01053)"/><use xlink:href="#a" transform="rotate(47.213 -67.04 90.62)scale(.0066)"/><use xlink:href="#a" transform="rotate(-11.265 418.305 -169.039)scale(.01195)"/><use xlink:href="#a" transform="rotate(148.643 10.391 46.55)scale(.00726)"/><use xlink:href="#a" transform="rotate(54.11 -57.28 79.944)scale(.00674)"/><use xlink:href="#a" transform="rotate(76.302 -30.077 65.462)scale(.01028)"/><use xlink:href="#a" transform="rotate(-98.049 54.543 25.114)scale(.00557)"/><use xlink:href="#a" transform="rotate(84.054 -25.194 61.404)scale(.01129)"/><use xlink:href="#a" transform="rotate(182.195 19.022 41.537)scale(.00711)"/><use xlink:href="#a" transform="rotate(-47.621 109.415 7.146)scale(.01394)"/><use xlink:href="#a" transform="rotate(259.939 50.898 30.93)scale(.0147)"/><use xlink:href="#a" transform="rotate(-95.892 52.828 29.557)scale(.0057)"/><use xlink:href="#a" transform="rotate(150.728 4.46 46.773)scale(.01386)"/><use xlink:href="#a" transform="rotate(-11.993 408.421 -68.99)scale(.0137)"/><use xlink:href="#a" transform="rotate(147.747 .708 47.015)scale(.01044)"/><use xlink:href="#a" transform="rotate(181.929 12.822 44.058)scale(.01235)"/><use xlink:href="#a" transform="rotate(229.428 30.561 39.375)scale(.00647)"/><use xlink:href="#a" transform="rotate(-24.678 207.11 1.002)scale(.0056)"/><use xlink:href="#a" transform="rotate(151.035 -.74 47.047)scale(.0146)"/><use xlink:href="#a" transform="rotate(144.798 -4.974 47.163)scale(.00764)"/><use xlink:href="#a" transform="rotate(87.467 -37.656 52.297)scale(.00577)"/><use xlink:href="#a" transform="rotate(-68.9 71.425 36.1)scale(.00954)"/><use xlink:href="#a" transform="rotate(-45.023 112.728 32.554)scale(.0105)"/><use xlink:href="#a" transform="rotate(106.277 -27.167 49.2)scale(.00628)"/><use xlink:href="#a" transform="rotate(-85.185 53.882 41.917)scale(.0119)"/><use xlink:href="#a" transform="rotate(167.698 -.105 46.341)scale(.00814)"/><use xlink:href="#a" transform="rotate(45.447 -100.198 52.772)scale(.0098)"/><use xlink:href="#a" transform="rotate(-43.347 112.41 37.95)scale(.0121)"/><use xlink:href="#a" transform="rotate(125.092 -16.824 45.226)scale(.01347)"/><use xlink:href="#a" transform="rotate(213.019 16.323 41.544)scale(.00601)"/><use xlink:href="#a" transform="rotate(166.178 -.702 42.388)scale(.00816)"/><use xlink:href="#a" transform="rotate(-63.72 67.933 37.611)scale(.01357)"/><use xlink:href="#a" transform="rotate(205.957 13.188 39.824)scale(.01166)"/><use xlink:href="#a" transform="rotate(60.307 -60.291 43.581)scale(.01127)"/><use xlink:href="#a" transform="rotate(67.45 -50.056 41.592)scale(.01382)"/><use xlink:href="#a" transform="rotate(96.552 -27.12 39.177)scale(.0137)"/><use xlink:href="#a" transform="rotate(196.313 8.546 35.689)scale(.00742)"/><use xlink:href="#a" transform="rotate(141.23 -8.258 36.253)scale(.00898)"/><use xlink:href="#a" transform="rotate(-3.047 1251.2 -47.694)scale(.00928)"/><use xlink:href="#a" transform="rotate(191.804 7.14 33.958)scale(.01312)"/><use xlink:href="#a" transform="rotate(194.935 7.533 32.628)scale(.0092)"/><use xlink:href="#a" transform="rotate(15.865 -216.654 45.886)scale(.00858)"/><use xlink:href="#a" transform="rotate(61.913 -45.26 33.963)scale(.0135)"/><use xlink:href="#a" transform="rotate(169.311 .765 30.551)scale(.01237)"/><use xlink:href="#a" transform="rotate(-5.4 585.801 -.093)scale(.01118)"/><use xlink:href="#a" transform="rotate(-35.358 88.148 22.323)scale(.00596)"/><use xlink:href="#a" transform="rotate(-46.52 63.572 24.96)scale(.01218)"/><use xlink:href="#a" transform="rotate(-98.49 24.647 25.698)scale(.00957)"/><use xlink:href="#a" transform="rotate(71.773 -30.67 27.697)scale(.01078)"/><use xlink:href="#a" transform="rotate(-96.14 23.766 24.617)scale(.01418)"/><use xlink:href="#a" transform="rotate(131.903 -7.54 24.455)scale(.00815)"/><use xlink:href="#a" transform="rotate(213.101 8.994 22.699)scale(.00577)"/><use xlink:href="#a" transform="rotate(23.11 -99.795 26.673)scale(.01176)"/><use xlink:href="#a" transform="rotate(-79.832 26.917 20.295)scale(.00665)"/><use xlink:href="#a" transform="rotate(30.204 -72.188 25.239)scale(.00661)"/><use xlink:href="#a" transform="rotate(14.718 -149.518 29.777)scale(.00599)"/><use xlink:href="#a" transform="rotate(-2.367 879.9 -2.624)scale(.01374)"/><use xlink:href="#a" transform="rotate(155.845 -1.792 19.183)scale(.00602)"/><use xlink:href="#a" transform="rotate(121.553 -7.13 18.99)scale(.01045)"/><use xlink:href="#a" transform="rotate(109.673 -9.084 18.165)scale(.0102)"/><use xlink:href="#a" transform="rotate(-44.013 39.471 16.18)scale(.0114)"/><use xlink:href="#a" transform="rotate(134.004 -3.756 16.147)scale(.01226)"/><use xlink:href="#a" transform="rotate(107.413 -7.826 15.282)scale(.01)"/><defs><path id="a" fill="#2b2816" d="M215.823 333.963c0-.733.3-1.033.667-.667a.95.95 0 0 1 0 1.334c-.367.366-.667.066-.667-.667M143.424 3.977c4.632-.653 8.099 4.826 5.302 8.382-1.951 2.48-2.551 5.604-1.078 5.604.905.004 11.175 12.34 11.175 13.423 0 1.076-4.344 5.111-6.316 5.868-1.898.728-1.434 2.71.633 2.71.661 0 1.78.924 2.486 2.056 1.284 2.054 1.286 2.054 2.991.057.938-1.1 2.606-2.139 3.706-2.307s2.33-.757 2.734-1.307c.415-.565.741-.238.75.75.018 2.14.447 2.169 3.408.229 1.623-1.063 2.19-2.212 1.884-3.81-1.049-5.489 4.864-5.512 14.402-.058 5.289 3.024 5.527 3.005 7.663-.61 3.023-5.119 9.966-1.694 8.152 4.02-.515 1.623-.183 2.247 1.417 2.666 1.15.3 2.09.945 2.09 1.43.001.485.9.883 2 .883 2.405 0 2.51-.633.446-2.697-1.937-1.936-1.511-6.247.756-7.667 2.444-1.53 3.085-.336 1.976 3.68-.844 3.057-.725 3.569.927 4 1.042.274 1.895 1.215 1.895 2.09.001 2.117 3.922 2.083 5.479-.046 1.634-2.235 4.962-.366 4.996 2.806.022 2.026.585 2.375 4.275 2.641 3.903.283 4.25.113 4.25-2.089q0-2.397 2.547-3.556c5.794-2.64 9.087-.056 7.912 6.206-.627 3.341-.627 3.341 7.125 4.043 13.323 1.209 21.701 9.211 10.916 10.427-1.65.187-3.533.779-4.183 1.316-.772.639-2.504.61-5-.082-4.664-1.295-5.317-1.318-5.317-.18 0 .89 3.547 2.107 7.692 2.639 3.814.489 4.527 1.472 3.864 5.335-1.584 9.224-1.538 9.134-4.694 9.134-1.732 0-2.721-.419-2.362-1 .34-.55.194-1-.324-1-.519 0-1.178-.9-1.466-2-.316-1.208-1.364-2-2.648-2-1.169 0-2.425-.787-2.793-1.75-.688-1.803-.846-2.03-4.339-6.25-2.069-2.5-2.069-2.5-1.491.21.443 2.079.097 2.968-1.49 3.817-3.053 1.634-2.358 6.6.861 6.15 1.27-.178 2.952.21 3.737.862.841.698 2.53.908 4.115.51 2.465-.619 2.57-.53 1.263 1.08-.904 1.113-.968 1.48-.175 1.004 1.207-.725 1.687.683 1.482 4.336-.045.808 1.226 3.249 2.826 5.425 2.411 3.278 2.808 4.595 2.313 7.686-.499 3.124-.251 3.915 1.528 4.868 1.738.93 1.934 1.496 1.067 3.115-.582 1.088-.743 2.489-.358 3.114 1.359 2.199-6.627-.001-11.342-3.124-8.698-5.762-10.731-2.813-8.924 12.947.221 1.925-.023 4.035-.543 4.69-2.291 2.887-.482 6.804 3.201 6.932 1.925.067 3.95.231 4.5.365s1.77.166 2.711.072c2.294-.23 5.828 1.736 5.529 3.076-.429 1.92 7.577 1.339 13.716-.996 3.275-1.246 6.763-2.054 7.75-1.795 1.097.287 1.794-.077 1.794-.937 0-.773-.9-1.407-2-1.407-2.468 0-2.532-1.121-.227-3.967 1.774-2.19 1.774-2.191 3.655-.112 3.099 3.423 8.159.85 5.79-2.944-.993-1.589-.581-2.041 3.321-3.645 2.449-1.007 4.455-2.169 4.457-2.582s.443-.75.979-.75c1.288 0 .183 5.855-1.664 8.817-1.092 1.751-1.167 2.651-.309 3.686 1.283 1.545-.226 5.368-2.692 6.822-.804.474-1.149 1.608-.812 2.669.406 1.279-.025 2.039-1.405 2.477-1.193.378-1.772 1.202-1.445 2.054.599 1.563-1.168 3.716-3.898 4.75-.962.364-1.75 1.619-1.75 2.789 0 2.226-3.33 7.595-5.963 9.615-1.366 1.047-1.342 1.254.215 1.857 1.184.459 2.39-.086 3.717-1.678 2.104-2.526 2.666-1.913 1.038 1.131-.844 1.574-.541 1.954 2 2.512 3.869.85 4.064 4.832.493 10.094-3.324 4.898-3.182 6.036 1.488 11.905 2.188 2.75 5.447 7.129 7.244 9.732 2.93 4.244 6.768 6.38 6.768 3.768 0-.55 1.035-1 2.3-1s2.746-.446 3.29-.99c.62-.62 2.15-.657 4.088-.101 2.392.686 3.469.516 4.728-.744 4.803-4.802 6.925 3.04 2.546 9.405-3.724 5.412-1.48 4.855 3.795-.941 1.786-1.963 3.851-3.336 4.59-3.052.738.282 1.92-.181 2.625-1.031 1.934-2.33 4.935-1.866 6.224.963 1.583 3.475-.177 6.436-7.813 13.14-6.161 5.409-6.161 5.409-3.267 8.303q6.73 6.731-2.936 8.665c-2.37.473-3.292.23-3.762-.995-.888-2.314-2.696-2.009-5.448.92-2.037 2.169-2.206 2.834-1.151 4.523 1.864 2.986.028 5.71-3.506 5.2-4.597-.663-9.708 5.273-8.219 9.547.611 1.753 1.63 3.202 2.264 3.219s.361.49-.606 1.054c-.967.563-2.166.771-2.665.463-.498-.308-1.136-.096-1.417.471-.28.567-.375.457-.21-.244a1.32 1.32 0 0 1 1.594-.969c1.051.249 1.054.018.019-1.229-.82-.989-2.396-1.39-4.419-1.124a92 92 0 0 1-6.144.558c-1.65.081-2.437.374-1.75.651.688.279 1.25 1.087 1.25 1.799s.675 1.854 1.5 2.539c5.107 4.238-.167 9.564-11.856 11.977-5.805 1.198-5.851 1.236-5.25 4.241.333 1.668.606 4.11.606 5.428 0 1.565.84 2.78 2.421 3.5 1.427.65 2.204 1.669 1.892 2.481-1.315 3.427.629 6.545 3.665 5.878 3.965-.871 7.62 1.069 5.906 3.134-.684.825-2.082 1.281-3.105 1.013-1.464-.382-1.732-.077-1.254 1.431.545 1.717.081 1.917-4.459 1.917-5.146 0-6.794-1.89-2.64-3.028 2.787-.763 3.151-3.008.595-3.677-1.452-.379-1.789-.821-.999-1.309 1.624-1.003.253-6.985-1.601-6.986-.782 0-1.421-.392-1.421-.872s-1.851-1.168-4.114-1.53c-2.276-.364-4.845-1.556-5.75-2.669-1.563-1.921-1.645-1.764-1.848 3.531-.199 5.212-.072 5.54 2.143 5.54 5.607 0 3.707 7.564-2.136 8.502-2.087.335-5.28 1.263-7.096 2.062-2.486 1.094-3.803 1.183-5.335.363-2.367-1.266-3.36-.663-2.519 1.53.326.849 1.676 1.543 3.001 1.543 3.904 0 5.075 2.286 3.115 6.077-1.665 3.218-1.666 3.218-13.063 2.607s-11.398-.611-11.398 2.418c0 8.621-10.579 8.949-12.836.398-1.025-3.886-7.44-4.574-7.971-.856-.417 2.928-5.229 3.934-5.933 1.241-.544-2.077-1.366-2.361-2.81-.97-.522.504-2.075 1.066-3.45 1.25-1.71.229-2.602 1.053-2.823 2.609-.261 1.844-.83 2.2-3 1.878-1.472-.218-2.582-.851-2.467-1.405.116-.555-.672-1.807-1.75-2.783-1.881-1.703-1.962-1.698-2.002.131-.024 1.048-1.416 3.03-3.095 4.405a541 541 0 0 0-5.708 4.749c-4.916 4.164-8.422 2.715-9.677-3.999-.385-2.061-.881-3.749-1.102-3.75s-3.649.9-7.619 2c-14.524 4.025-29-2.533-15.77-7.145 1.657-.578 3.013-1.445 3.013-1.928s-1.155-.438-2.566.098c-2.123.807-3.159.524-6-1.643-3.139-2.394-4.983-5.457-2.279-3.787.716.443.883.275.439-.443-1.049-1.697-4.913.576-4.188 2.464.811 2.113-2.281 2.937-3.707.987-1.831-2.504-6.976.008-6.236 3.044 1.341 5.502-5.446 8.159-7.44 2.914-.95-2.498-5.437-1.816-9.523 1.446-1.865 1.489-6.803 1.559-7.292.104-.259-.768-.013-1.108.549-.761.56.346.996.071.973-.61-.161-4.454.444-5.606 3.52-6.697 3.668-1.3 2.102-3.54-3.25-4.647-1.375-.284-3.306-.954-4.29-1.489-.986-.536-2.157-.749-2.603-.473-.448.276-1.667-.136-2.71-.916-1.793-1.341-1.767-1.385.487-.816 1.773.448 2.26.242 1.896-.8-.268-.771-1.228-1.27-2.134-1.108s-1.646-.113-1.646-.61c0-1.368-6.697-8.183-8.04-8.184-1.264 0-.447 5.053.968 5.991 1.274.844.882 7.15-.413 6.653-.657-.252-1.123.469-1.084 1.676.084 2.591-2.923 3.446-3.828 1.089-.357-.929.047-2.752.897-4.05 1.424-2.172 1.405-2.362-.227-2.394-.976-.02-2.897-.658-4.27-1.418-1.696-.939-2.884-1.061-3.702-.382-1.603 1.33-5.582.011-4.95-1.641.545-1.42-1.94-5.524-3.343-5.524-1.258 0-10.008-8.116-10.008-9.282 0-.581 1.664-.708 4.125-.314 3.832.613 4.086.511 3.58-1.429-.45-1.717-.294-1.879.874-.91 2.272 1.886 1.639-.557-.69-2.659-1.16-1.048-2.975-3.744-4.033-5.992-1.69-3.592-9.922-9.936-15.158-11.681-3.332-1.111 3.063-11.87 6.517-10.966 1.767.462 1.998.235 1.38-1.356-1.235-3.177-1.163-3.926.35-3.596 2.291.498 6.055-1.977 6.055-3.984 0-1.079.72-1.831 1.755-1.831 2.437 0 4.522-6.525 2.596-8.124-.743-.616-1.35-1.939-1.35-2.939-.001-1.001-.451-2.097-1-2.437-.55-.34-1-1.518-1-2.618s-.404-1.752-.895-1.448c-.49.303-1.843-1.357-3.005-3.691s-2.66-5.143-3.328-6.243-2.239-3.678-3.493-5.729c-2.852-4.664-2.888-7.741-.126-10.706 1.922-2.063 1.98-2.41.542-3.215-.887-.497-1.358-1.568-1.045-2.382.387-1.012-.573-1.955-3.043-2.987-1.984-.829-3.645-2.064-3.69-2.744-.242-3.637-1.198-7.557-2.465-10.115-.785-1.582-1.159-3.945-.832-5.25.405-1.611.16-2.392-.764-2.435-.746-.035-.333-.475.918-.977 2.606-1.047 2.206-5.5-.687-7.629-4.752-3.496-5.041-3.891-4.456-6.081.33-1.238 1.379-2.25 2.33-2.25.95 0 2.543-.9 3.538-2s2.231-2 2.745-2 1.779-1.012 2.81-2.25c1.615-1.934 1.883-2.003 1.912-.49.018.968-.867 2.53-1.967 3.472-2.538 2.173-2.518 2.899.1 3.584 1.157.303 1.805 1.029 1.442 1.617-.363.587-.445 1.067-.183 1.067.263 0 1.25.298 2.196.66 1.212.464 1.572.243 1.224-.75-.57-1.629 2.992-7.17 4.15-6.454.427.264 1.613-.132 2.636-.879 2.017-1.475.615-4.576-2.069-4.577-1.332 0-4.101-8.453-3.604-11 .162-.825.239-3.222.17-5.326-.108-3.399.22-3.954 2.949-4.984 2.134-.806 3.024-1.774 2.919-3.175-.26-3.456.036-4.654 1-4.058a1.09 1.09 0 0 0 1.502-.347c.313-.507 1.402-.705 2.42-.438 2.56.669 5.59-2.434 4.113-4.214-.807-.972-.795-1.907.043-3.472.63-1.178.9-2.782.6-3.564-.38-.993.2-1.422 1.923-1.422 1.358 0 2.469-.45 2.47-1 0-.55-.437-1-.97-1s-.71-.675-.393-1.5c.33-.861.02-1.5-.73-1.5-1.018 0-1.041-.267-.108-1.2.66-.66 1.2-1.948 1.2-2.862 0-1.277 1.32-1.818 5.684-2.331 3.126-.367 6.276-1.159 7-1.76 1.767-1.466 1.673-3.846-.153-3.847-.894 0-1.243.586-.893 1.5.363.945-.011 1.5-1.011 1.5-1.986 0-1.574-5.786.506-7.103 3.478-2.204-2.762-.68-7.275 1.776-3.573 1.945-5.211 2.374-6.012 1.573-.743-.743-1.913-.79-3.605-.148-4.224 1.606-6.24.29-6.24-4.07 0-4.477 3.34-6.913 15.25-11.124 7.366-2.604 7.512-2.802 5.108-6.871-1.99-3.368-1.188-7.635 1.6-8.52 2.676-.849 9.035.449 9.056 1.848.042 3.128 1.618 3.829 5.793 2.579 4.398-1.318 5.909-3.37 4.09-5.56-.88-1.063-.605-1.805 1.234-3.325 2.036-1.682 2.524-1.753 3.477-.506 1.928 2.52 17.01-1.493 15.954-4.243-.865-2.257 4.422-5.084 5.593-2.991 1.402 2.505 4.122 2.048 7.252-1.219 2.783-2.905 2.783-2.905.625-5.062-3.774-3.774-.756-10.609 4.56-10.326 5.589.297 6.264.495 5.822 1.71-.217.595-.005 1.692.47 2.437 1.046 1.642 5.668-.946 6.598-3.694.309-.914 3.365-3.792 6.79-6.397 3.42-2.6 6.265-4.737 6.328-4.75m65.339 318.986c.582 0 1.06.45 1.06 1s-.198 1-.441 1-.719-.45-1.059-1-.141-.999.44-1m-91.94-7.618c0-.825.45-1.222 1-.882s1 1.294 1 2.119c0 .824-.45 1.221-1 .881s-1-1.293-1-2.118m85.5-1.382c.275 0 .5.225.5.5s-.225.5-.5.5a.5.5 0 0 1-.5-.5c0-.275.225-.5.5-.5m-127.56-8c.582 0 1.06.45 1.06 1s-.198 1-.441 1-.72-.45-1.059-1c-.34-.55-.141-.999.44-1m-2.94-1c.55 0 1 .45 1 1s-.45 1-1 1-1-.45-1-1 .45-1 1-1m60 1.107c0-1.644-2.785-1.984-4.653-.57-1.705 1.292-1.597 1.402 1.403 1.431 1.787.018 3.25-.37 3.25-.861m-45-2.107c.733 0 1.033.3.667.667a.95.95 0 0 1-1.334 0c-.366-.367-.066-.667.667-.667m-9.583.079c1.054-.043 1.644.193 1.312.525s-1.195.368-1.916.079c-.798-.319-.56-.556.604-.604m1.583-3.079c.55 0 1 .45 1 1s-.45 1-1 1-1-.45-1-1 .45-1 1-1m-8.5-1c.825 0 1.5.661 1.5 1.469 0 .894-.586 1.243-1.5.893-.825-.317-1.5-.978-1.5-1.469s.675-.893 1.5-.893m-.5-8c.55 0 1 .198 1 .441s-.45.719-1 1.059-1 .141-1-.441.45-1.059 1-1.059m200.5-6c.825 0 1.5.17 1.5.378 0 .207-.675.938-1.5 1.622-1.229 1.02-1.5.951-1.5-.378 0-.892.675-1.622 1.5-1.622m5-1c.275 0 .5.225.5.5s-.225.5-.5.5a.5.5 0 0 1-.5-.5c0-.275.225-.5.5-.5m-1.808-3.641c.54-1.409.707-1.398 1.549.107 1.058 1.89.425 3.064-1.132 2.102-.561-.349-.749-1.342-.417-2.209m-3.534-.359c0-1.375.227-1.937.504-1.25.278.688.278 1.813 0 2.5-.277.688-.504.125-.504-1.25m2.342-1c.275 0 .5.225.5.5s-.225.5-.5.5a.5.5 0 0 1-.5-.5c0-.275.225-.5.5-.5m-5.844-1.455q-.555-1.444.895-.886c1.68.645 1.794 1.01.554 1.776-.493.305-1.145-.096-1.449-.89m6.844-.545c.275 0 .5.225.5.5s-.225.5-.5.5a.5.5 0 0 1-.5-.5c0-.275.225-.5.5-.5m39.5-3c0-.733.3-1.033.667-.667a.95.95 0 0 1 0 1.334c-.367.366-.667.066-.667-.667m-6-10.441c0-1.757.6-2.015 1.457-.628.317.512.118 1.214-.441 1.56-.559.344-1.016-.075-1.016-.932M39.241 257.57c-2.373-.911-2.69-.758-2.025.975.334.87.607 1.77.607 2s.675.418 1.5.418c1.99 0 1.928-2.622-.082-3.393m255.48-5.607c1.658 0 8.149 6.113 7.54 7.101-1.492 2.413-6.742-.804-7.918-4.851-.379-1.302-.22-2.249.378-2.25m-20.398 4c-.275 0-.5.225-.5.5s.225.5.5.5.5-.225.5-.5-.225-.5-.5-.5m-6-3c-.275 0-.5.225-.5.5s.225.5.5.5.5-.225.5-.5-.225-.5-.5-.5m-1.677-3.667c-.389-2.009-2.386-2.848-3.29-1.385-.88 1.423.242 3.052 2.099 3.052.876 0 1.378-.703 1.191-1.667m2.677.667c-.275 0-.5.225-.5.5s.225.5.5.5.5-.225.5-.5-.225-.5-.5-.5m-245-17c.275 0 .5.225.5.5s-.225.5-.5.5a.5.5 0 0 1-.5-.5c0-.275.225-.5.5-.5m2 0c.275 0 .5.225.5.5s-.225.5-.5.5a.5.5 0 0 1-.5-.5c0-.275.225-.5.5-.5m4-50c-.275 0-.5.225-.5.5s.225.5.5.5.5-.225.5-.5-.225-.5-.5-.5m-4.5 0c.733 0 1.033.3.667.667a.95.95 0 0 1-1.334 0c-.366-.367-.066-.667.667-.667m-1.281-14.918c.165-2.193-1.234-3.676-2.118-2.246-.295.478.026 1.64.713 2.579 1.154 1.578 1.263 1.552 1.405-.333m1.781-2.082c-.275 0-.5.225-.5.5s.225.5.5.5.5-.225.5-.5-.225-.5-.5-.5m251.7-11.799c3.351-3.351 7.363-.019 6.367 5.289-.771 4.111-2.856 4.579-5.624 1.26-2.183-2.616-2.436-4.856-.743-6.549m-277.2 2.799c.733 0 1.033.3.667.667a.95.95 0 0 1-1.334 0c-.366-.367-.066-.667.667-.667m286.094-9c.498 0 .906.9.906 2s-.173 1.999-.383 2-.619-.9-.907-2c-.287-1.1-.115-2 .384-2m-1.594-2c.275 0 .5.225.5.5s-.225.5-.5.5a.5.5 0 0 1-.5-.5c0-.275.225-.5.5-.5m7.882-3c.275 0 .778.45 1.118 1s.393 1 .118 1-.778-.45-1.118-1-.393-1-.118-1M18.68 133.08c.195-.064.119.503-.172 1.261s0 1.909.643 2.557c.9.904.602.968-1.277.276-3.058-1.127-3.74-2.892-1.356-3.51.992-.257 1.965-.52 2.162-.584m8.81-1.45c1.116-1.117 2-.749 2 .833 0 .825-.6 1.5-1.334 1.5-1.419 0-1.77-1.229-.666-2.333m266.273.333c.582 0 1.06.45 1.06 1s-.198 1-.441 1-.719-.45-1.059-1-.141-.999.44-1m2.56 1c.275 0 .5.225.5.5s-.225.5-.5.5a.5.5 0 0 1-.5-.5c0-.275.225-.5.5-.5m-275.5-4c.55 0 1 .675 1 1.5s-.45 1.5-1 1.5-1-.675-1-1.5.45-1.5 1-1.5m282 .128c3.258-1.305 5-1.362 5-.163 0 1.749-3.891 3.196-5.763 2.142-1.557-.876-1.478-1.081.763-1.979m-288.434-3.23c3.127-1.225 4.078-.943 2.037.602-1.044.79-2.364 1.148-2.934.795-.598-.369-.218-.96.896-1.397m276.493-.898c.518 0 .941.45.941 1s-.703 1-1.56 1c-.856 0-1.28-.45-.94-1s1.041-1 1.559-1m-37.559-20c-.275 0-.5.225-.5.5s.225.5.5.5.5-.225.5-.5-.225-.5-.5-.5m-215-3c.275 0 .5.225.5.5s-.225.5-.5.5a.5.5 0 0 1-.5-.5c0-.275.225-.5.5-.5m5-1c.275 0 .5.225.5.5s-.225.5-.5.5a.5.5 0 0 1-.5-.5c0-.275.225-.5.5-.5m-11.25-5.017c1.787-1.093 3.85-1.76 4.582-1.485.732.276 2.082.538 3 .581.999.047 1.176.279.442.576-.673.272-1.452.35-1.73.17-.278-.178-1.215.687-2.081 1.925-1.028 1.467-2.602 2.25-4.52 2.25-3.852 0-3.733-1.546.307-4.017m228.25 3.017c.275 0 .5.225.5.5s-.225.5-.5.5a.5.5 0 0 1-.5-.5c0-.275.225-.5.5-.5m-218-1c.275 0 .5.225.5.5s-.225.5-.5.5a.5.5 0 0 1-.5-.5c0-.275.225-.5.5-.5m12.32-8.171c-.347-2.352-2.271-3.527-3.232-1.972-.907 1.468.44 4.143 2.089 4.143.932 0 1.346-.787 1.143-2.171m184.68-14.829c.275 0 .5.225.5.5s-.225.5-.5.5a.5.5 0 0 1-.5-.5c0-.275.225-.5.5-.5m34.5-2.004c0-.513.675-.721 1.5-.464.825.258 2.25.709 3.167 1.001 1.174.376 1.353.846.607 1.592-1.18 1.18-5.273-.473-5.274-2.129M69.807 71.213c.022-1.797-1.658-1.54-2.39.364-.392 1.023-1.345 1.423-2.606 1.093-1.092-.285-1.987-.16-1.988.278s1.195 1.099 2.655 1.466c2.667.668 4.296-.536 4.33-3.2m174.575-2.25c-.243 0-.719.45-1.059 1s-.141 1 .44 1c.582 0 1.06-.45 1.06-1s-.198-1-.441-1m-3.059-1c-.275 0-.5.225-.5.5s.225.5.5.5.5-.225.5-.5-.225-.5-.5-.5m-97.083-21.92c-1.165.047-1.402.284-.604.603.721.289 1.584.253 1.916-.08.332-.331-.258-.567-1.312-.524m37.583-2.08c-.733 0-1.033.3-.667.667a.95.95 0 0 0 1.334 0c.366-.367.066-.667-.667-.667m-34.478-9.63c-1.136-.435-1.813.026-2.198 1.5-.307 1.172-1.18 2.13-1.941 2.13-.76 0-1.383.45-1.383 1 0 1.52 2.594 1.195 4-.5.685-.825 2.288-1.5 3.563-1.5s2.597-.45 2.937-1-.272-1-1.359-1c-1.088 0-2.717-.283-3.619-.63m-8.398 2.363c-.988-.98-1.102-.865-.56.56.376.986.935 1.54 1.243 1.233s.001-1.114-.683-1.793m21.376-6.733c.275 0 .5.225.5.5s-.225.5-.5.5a.5.5 0 0 1-.5-.5c0-.275.225-.5.5-.5m45.5-1c.733 0 1.033.3.667.667a.95.95 0 0 1-1.334 0c-.366-.367-.066-.667.667-.667m5-4c.55 0 1 .198 1 .44 0 .244-.45.72-1 1.06s-1 .14-1-.441c0-.582.45-1.059 1-1.059m-34.5 0c.275 0 .5.225.5.5s-.225.5-.5.5a.5.5 0 0 1-.5-.5c0-.275.225-.5.5-.5m-3.5-6c.733 0 1.033.3.667.667a.95.95 0 0 1-1.334 0c-.366-.367-.066-.667.667-.667m1-3c0-.733.3-1.033.667-.667a.95.95 0 0 1 0 1.334c-.367.366-.667.066-.667-.667m35-2c.733 0 1.033.3.667.667a.95.95 0 0 1-1.334 0c-.366-.367-.066-.667.667-.667m-31.5-1c.275 0 .5.225.5.5s-.225.5-.5.5a.5.5 0 0 1-.5-.5c0-.275.225-.5.5-.5m-11-2c.275 0 .5.225.5.5s-.225.5-.5.5a.5.5 0 0 1-.5-.5c0-.275.225-.5.5-.5m9.5 0c0-.733.3-1.033.667-.667a.95.95 0 0 1 0 1.334c-.367.366-.667.066-.667-.667m-4.5-1c.275 0 .5.225.5.5s-.225.5-.5.5a.5.5 0 0 1-.5-.5c0-.275.225-.5.5-.5m-38.941-3c.243 0 .441.45.441 1s-.478 1-1.06 1c-.581 0-.78-.45-.44-1s.816-1 1.059-1m-9.559 1c.733 0 1.033.3.667.667a.95.95 0 0 1-1.334 0c-.366-.367-.066-.667.667-.667m44.381-5.652c2.929-2.519 5.619-3.082 5.619-1.177 0 1.726-3.081 4.829-4.795 4.83-.816 0-2.026.74-2.688 1.645-1.062 1.452-1.184 1.375-1.035-.65.093-1.265 1.398-3.356 2.899-4.648" data-figma-scatter="f0.51_w0.06_aj180_sj0.65_r0_s0_sw3" data-figma-scatter-ref="stroke0_206_8133_ref"/></defs></svg>