<svg xmlns="http://www.w3.org/2000/svg" xmlns:xlink="http://www.w3.org/1999/xlink" width="347" height="105" fill="none" viewBox="0 0 347 105"><path fill="#4d3c29" d="M57.755 1.36 2.162 31.66l6.294 70.701 49.3-15.15 58.739 15.15 141.606-15.15 87.061 15.15-8.391-29.038c-6.713-16.16 2.797-42.925 8.391-54.287L278.031 1.36c-15.105 6.06-43.356 14.308-55.594 17.675h-82.865z"/><use xlink:href="#a" transform="rotate(100.269 -10.258 16.926)scale(.01241)"/><use xlink:href="#a" transform="rotate(-70.214 23.233 15.17)scale(.0139)"/><use xlink:href="#a" transform="rotate(-36.632 46.444 9.02)scale(.00864)"/><use xlink:href="#a" transform="rotate(92.397 -9.404 17.838)scale(.00683)"/><use xlink:href="#a" transform="rotate(135.984 -1.142 16.119)scale(.0063)"/><use xlink:href="#a" transform="rotate(79.736 -11.429 19.184)scale(.00572)"/><use xlink:href="#a" transform="rotate(.935 -1537.543 502.63)scale(.01292)"/><use xlink:href="#a" transform="rotate(-38.096 43.109 -1.333)scale(.006)"/><use xlink:href="#a" transform="rotate(200.087 8.864 12.536)scale(.00606)"/><use xlink:href="#a" transform="rotate(-69.456 24.924 4.788)scale(.00817)"/><use xlink:href="#a" transform="rotate(116.254 1.262 17.285)scale(.01158)"/><use xlink:href="#a" transform="rotate(212.936 12.684 10.944)scale(.01461)"/><use xlink:href="#a" transform="rotate(-91.575 20.276 4.311)scale(.01333)"/><use xlink:href="#a" transform="rotate(26.413 -30.157 51.564)scale(.01266)"/><use xlink:href="#a" transform="rotate(-59.419 28.315 -6.286)scale(.01476)"/><use xlink:href="#a" transform="rotate(34.32 -17.358 47.811)scale(.00638)"/><use xlink:href="#a" transform="rotate(29.918 -16.852 54.246)scale(.0135)"/><use xlink:href="#a" transform="rotate(141.308 12.075 14.509)scale(.01259)"/><use xlink:href="#a" transform="rotate(-46.174 33.488 -23.62)scale(.00673)"/><use xlink:href="#a" transform="rotate(-79.192 24.793 -8.079)scale(.01153)"/><use xlink:href="#a" transform="rotate(121.973 13.472 17.014)scale(.01297)"/><use xlink:href="#a" transform="rotate(-25.363 45.588 -62.937)scale(.01225)"/><use xlink:href="#a" transform="rotate(251.387 22.55 -5.112)scale(.0056)"/><use xlink:href="#a" transform="rotate(94.307 14.617 23.492)scale(.01387)"/><use xlink:href="#a" transform="rotate(210.787 21.541 1.793)scale(.01128)"/><use xlink:href="#a" transform="rotate(44.754 9.544 52.969)scale(.00981)"/><use xlink:href="#a" transform="rotate(-65.996 28.218 -24.57)scale(.01148)"/><use xlink:href="#a" transform="rotate(36.228 11.964 68.805)scale(.01268)"/><use xlink:href="#a" transform="rotate(67.537 17.184 37.442)scale(.00548)"/><use xlink:href="#a" transform="rotate(-95.833 26.546 -15.568)scale(.00623)"/><use xlink:href="#a" transform="rotate(-16.637 41.877 -148.839)scale(.01239)"/><use xlink:href="#a" transform="rotate(-37.64 31.732 -64.613)scale(.01126)"/><use xlink:href="#a" transform="rotate(-70.545 28.796 -31.271)scale(.00611)"/><use xlink:href="#a" transform="rotate(184.663 25.942 2.013)scale(.0057)"/><use xlink:href="#a" transform="rotate(140.235 25.745 12.002)scale(.0066)"/><use xlink:href="#a" transform="rotate(186.422 27.145 1.326)scale(.00783)"/><use xlink:href="#a" transform="rotate(-47.338 29.55 -57.196)scale(.01048)"/><use xlink:href="#a" transform="rotate(94.219 27.61 27.208)scale(.0073)"/><use xlink:href="#a" transform="rotate(211.473 29.152 -5.965)scale(.00918)"/><use xlink:href="#a" transform="rotate(201.798 29.304 -4.354)scale(.00574)"/><use xlink:href="#a" transform="rotate(-16.583 31.378 -196.97)scale(.00547)"/><use xlink:href="#a" transform="rotate(-84.742 30.755 -30.493)scale(.00724)"/><use xlink:href="#a" transform="rotate(-45.624 31.555 -67.904)scale(.01446)"/><use xlink:href="#a" transform="rotate(253.746 32.673 -21.371)scale(.00734)"/><use xlink:href="#a" transform="rotate(51.161 32.987 68.05)scale(.01406 .01405)"/><use xlink:href="#a" transform="rotate(210.324 34.84 -5.935)scale(.01353)"/><use xlink:href="#a" transform="rotate(76.663 32.924 45.254)scale(.00545)"/><use xlink:href="#a" transform="rotate(31.718 33.184 122.921)scale(.01333)"/><use xlink:href="#a" transform="rotate(37.237 32.017 107.767)scale(.00783)"/><use xlink:href="#a" transform="rotate(222.897 38.539 -10.475)scale(.01461)"/><use xlink:href="#a" transform="rotate(183.696 38.98 2.459)scale(.0118)"/><use xlink:href="#a" transform="rotate(99.97 38.39 35.728)scale(.01212)"/><use xlink:href="#a" transform="rotate(89.481 39.007 43.41)scale(.0129)"/><use xlink:href="#a" transform="rotate(241.59 43.27 -19.637)scale(.01162)"/><use xlink:href="#a" transform="rotate(64.673 39.52 69.208)scale(.0141)"/><use xlink:href="#a" transform="rotate(-55.54 49.335 -76.097)scale(.0067)"/><use xlink:href="#a" transform="rotate(-3.603 130.612 -1347.67)scale(.01412)"/><use xlink:href="#a" transform="rotate(149.098 44.028 16.693)scale(.00592)"/><use xlink:href="#a" transform="rotate(88.36 41.702 50.394)scale(.00552)"/><use xlink:href="#a" transform="rotate(-90.453 49.97 -38.949)scale(.01322)"/><use xlink:href="#a" transform="rotate(75.135 43.57 65.113)scale(.01366)"/><use xlink:href="#a" transform="rotate(-1.076 473.94 -4998.552)scale(.00998)"/><use xlink:href="#a" transform="rotate(237.13 51.505 -20.437)scale(.0079)"/><use xlink:href="#a" transform="rotate(225.525 51.763 -14.554)scale(.00914)"/><use xlink:href="#a" transform="rotate(208.612 52.279 -6.173)scale(.01333)"/><use xlink:href="#a" transform="rotate(214.884 53.42 -9.402)scale(.01063)"/><use xlink:href="#a" transform="rotate(186.549 52.918 3.519)scale(.00901)"/><use xlink:href="#a" transform="rotate(41.151 40.077 144.844)scale(.01002)"/><use xlink:href="#a" transform="rotate(-3.949 213.295 -1525.387)scale(.00643)"/><use xlink:href="#a" transform="rotate(7.208 -27.107 850.57)scale(.01183)"/><use xlink:href="#a" transform="rotate(-97.846 60.716 -39.761)scale(.01186)"/><use xlink:href="#a" transform="rotate(113.144 53.73 44.134)scale(.01464)"/><use xlink:href="#a" transform="rotate(-70.797 66.241 -72.255)scale(.00601)"/><use xlink:href="#a" transform="rotate(-23.402 88.087 -267.59)scale(.00701)"/><use xlink:href="#a" transform="rotate(37.106 39.133 178.95)scale(.00547)"/><use xlink:href="#a" transform="rotate(-38.472 77.771 -158.663)scale(.00592)"/><use xlink:href="#a" transform="rotate(165.627 59.245 15.437)scale(.01072)"/><use xlink:href="#a" transform="rotate(24.238 28.298 284.299)scale(.00553)"/><use xlink:href="#a" transform="rotate(76.059 51.725 84.452)scale(.0057)"/><use xlink:href="#a" transform="rotate(130.847 58.882 36.013)scale(.01148)"/><use xlink:href="#a" transform="rotate(45.287 45.503 154.952)scale(.00843)"/><use xlink:href="#a" transform="rotate(21.044 23.424 341.489)scale(.0068)"/><use xlink:href="#a" transform="rotate(129.864 59.853 37.726)scale(.00577)"/><use xlink:href="#a" transform="rotate(-93.436 71.298 -50.075)scale(.00946)"/><use xlink:href="#a" transform="rotate(217.34 67.3 -12.78)scale(.00621)"/><use xlink:href="#a" transform="rotate(112.7 59.772 51.68)scale(.00567)"/><use xlink:href="#a" transform="rotate(1.21 -698.624 6129.933)scale(.00612)"/><use xlink:href="#a" transform="rotate(254.871 72.383 -40.65)scale(.0068)"/><use xlink:href="#a" transform="rotate(249.743 72.91 -35.7)scale(.01353)"/><use xlink:href="#a" transform="rotate(-50.563 85.355 -130.824)scale(.01274)"/><use xlink:href="#a" transform="rotate(40.602 46.192 192.994)scale(.00812)"/><use xlink:href="#a" transform="rotate(120.327 64.287 49.162)scale(.00563)"/><use xlink:href="#a" transform="rotate(2.55 -323.912 3103.7)scale(.00845)"/><use xlink:href="#a" transform="rotate(83.303 60.46 88.374)scale(.00611)"/><use xlink:href="#a" transform="rotate(-96.168 79.368 -52.613)scale(.0089)"/><use xlink:href="#a" transform="rotate(215.089 75.557 -11.552)scale(.01452)"/><use xlink:href="#a" transform="rotate(177.275 72.839 11.639)scale(.00574)"/><use xlink:href="#a" transform="rotate(161.747 72.581 22.03)scale(.00951)"/><use xlink:href="#a" transform="rotate(87.206 66.1 87.26)scale(.01157)"/><use xlink:href="#a" transform="rotate(-38.961 100.558 -199.668)scale(.00831)"/><use xlink:href="#a" transform="rotate(64.897 63.809 128.21)scale(.01388)"/><use xlink:href="#a" transform="rotate(200.148 79.017 -3.37)scale(.00842)"/><use xlink:href="#a" transform="rotate(8.053 -44.54 1100.149)scale(.01034)"/><use xlink:href="#a" transform="rotate(191.688 80.426 2.669)scale(.01275)"/><use xlink:href="#a" transform="rotate(-3.231 402.61 -2784.224)scale(.00597)"/><use xlink:href="#a" transform="rotate(196.437 81.776 -1.314)scale(.00773)"/><use xlink:href="#a" transform="rotate(50.409 64.175 179.856)scale(.0138)"/><use xlink:href="#a" transform="rotate(205.361 84.615 -7.751)scale(.01078)"/><use xlink:href="#a" transform="rotate(153.676 81.594 29.644)scale(.01118)"/><use xlink:href="#a" transform="rotate(116.121 78.397 61.806)scale(.00677)"/><use xlink:href="#a" transform="rotate(-49.262 103.766 -171.15)scale(.01157)"/><use xlink:href="#a" transform="rotate(157.422 83.652 26.84)scale(.00605)"/><use xlink:href="#a" transform="rotate(142.945 83.725 38.789)scale(.01118)"/><use xlink:href="#a" transform="rotate(-3.777 358.25 -2592.828)scale(.00774)"/><use xlink:href="#a" transform="rotate(150.022 85.305 33.213)scale(.00727)"/><use xlink:href="#a" transform="rotate(-45.272 109.638 -198.922)scale(.00635)"/><use xlink:href="#a" transform="rotate(1.416 -590.165 7082.127)scale(.01292)"/><use xlink:href="#a" transform="rotate(85.82 79.95 105.485)scale(.00569)"/><use xlink:href="#a" transform="rotate(7.071 -49.162 1451.63)scale(.01013)"/><use xlink:href="#a" transform="rotate(227.467 95.268 -29.255)scale(.00882)"/><use xlink:href="#a" transform="rotate(61.886 78.62 161.584)scale(.0131)"/><use xlink:href="#a" transform="rotate(216.012 95.842 -19.748)scale(.00617)"/><use xlink:href="#a" transform="rotate(172.646 93.136 16.102)scale(.00856)"/><use xlink:href="#a" transform="rotate(28.769 59.358 373.056)scale(.00767)"/><use xlink:href="#a" transform="rotate(189.179 95.993 2.96)scale(.01055)"/><use xlink:href="#a" transform="rotate(142.151 92.57 42.39)scale(.00614)"/><use xlink:href="#a" transform="rotate(168.164 95.243 19.852)scale(.00637)"/><use xlink:href="#a" transform="rotate(140.124 93.328 44.703)scale(.00565)"/><use xlink:href="#a" transform="rotate(10.832 1.919 1023.923)scale(.00673)"/><use xlink:href="#a" transform="rotate(50.05 80.822 217.16)scale(.01416)"/><use xlink:href="#a" transform="rotate(128.269 94.744 57.605)scale(.00761)"/><use xlink:href="#a" transform="rotate(188.83 100.369 2.554)scale(.0075)"/><use xlink:href="#a" transform="rotate(235.306 105.24 -41.41)scale(.01106)"/><use xlink:href="#a" transform="rotate(168.791 100.107 19.845)scale(.00564)"/><use xlink:href="#a" transform="rotate(14.066 30.046 824.34)scale(.00842)"/><use xlink:href="#a" transform="rotate(-16.25 165.423 -698.542)scale(.00715)"/><use xlink:href="#a" transform="rotate(60.222 89.373 185.709)scale(.01382)"/><use xlink:href="#a" transform="rotate(190.476 105.596 1.262)scale(.01295)"/><use xlink:href="#a" transform="rotate(-42.083 128.04 -259.27)scale(.01212)"/><use xlink:href="#a" transform="rotate(14.083 37.012 859.367)scale(.01165)"/><use xlink:href="#a" transform="rotate(-34.407 136.205 -332.51)scale(.0057)"/><use xlink:href="#a" transform="rotate(15.167 40.571 809.913)scale(.00638)"/><use xlink:href="#a" transform="rotate(195.472 109.262 -4.571)scale(.00621)"/><use xlink:href="#a" transform="rotate(-91.247 117.47 -94.92)scale(.00838)"/><use xlink:href="#a" transform="rotate(35.257 84.2 350.307)scale(.01424)"/><use xlink:href="#a" transform="rotate(-59.173 126.33 -182.642)scale(.0065)"/><use xlink:href="#a" transform="rotate(136.257 108.145 54.501)scale(.01107)"/><use xlink:href="#a" transform="rotate(230.946 116.194 -42.8)scale(.0067)"/><use xlink:href="#a" transform="rotate(-7.274 245.14 -1740.326)scale(.01005)"/><use xlink:href="#a" transform="rotate(37.984 89.654 335.416)scale(.00898)"/><use xlink:href="#a" transform="rotate(-90.292 122.46 -102.05)scale(.01461)"/><use xlink:href="#a" transform="rotate(-50.775 132.184 -231.493)scale(.0056)"/><use xlink:href="#a" transform="rotate(138.167 112.474 52.727)scale(.00568)"/><use xlink:href="#a" transform="rotate(-68.455 127.428 -159.539)scale(.01148)"/><use xlink:href="#a" transform="rotate(-51.199 131.95 -232.431)scale(.01276)"/><use xlink:href="#a" transform="rotate(141.267 115.322 49.362)scale(.00546)"/><use xlink:href="#a" transform="rotate(148.139 117.032 41.828)scale(.01051)"/><use xlink:href="#a" transform="rotate(79.054 111.37 151.103)scale(.00761)"/><use xlink:href="#a" transform="rotate(117.072 116.165 80.46)scale(.00823)"/><use xlink:href="#a" transform="rotate(13.435 65.703 1022.217)scale(.007)"/><use xlink:href="#a" transform="rotate(17.984 80.37 766.396)scale(.00556)"/><use xlink:href="#a" transform="rotate(78.69 113.981 154.127)scale(.00594)"/><use xlink:href="#a" transform="rotate(195.718 122.777 -9.656)scale(.00566)"/><use xlink:href="#a" transform="rotate(157.746 121.43 30.948)scale(.00718)"/><use xlink:href="#a" transform="rotate(-24.195 149.245 -562.097)scale(.00762)"/><use xlink:href="#a" transform="rotate(177.299 123.407 9.41)scale(.0055)"/><use xlink:href="#a" transform="rotate(184.151 124.32 1.966)scale(.0069)"/><use xlink:href="#a" transform="rotate(-59.808 133.56 -208.744)scale(.00576)"/><use xlink:href="#a" transform="rotate(27.922 106.843 504.827)scale(.01114)"/><use xlink:href="#a" transform="rotate(-83.47 131.437 -134.17)scale(.00624)"/><use xlink:href="#a" transform="rotate(59.63 118.236 224.61)scale(.00596)"/><use xlink:href="#a" transform="rotate(193.192 128.021 -8.596)scale(.01129)"/><use xlink:href="#a" transform="rotate(47.936 119.174 290.565)scale(.00913)"/><use xlink:href="#a" transform="rotate(147.237 127.788 42.744)scale(.00897)"/><use xlink:href="#a" transform="rotate(107.542 126.334 98.796)scale(.00545)"/><use xlink:href="#a" transform="rotate(-87.349 133.64 -129.303)scale(.01316)"/><use xlink:href="#a" transform="rotate(170.803 130.634 14.793)scale(.0076)"/><use xlink:href="#a" transform="rotate(-65.288 136 -199.272)scale(.00672)"/><use xlink:href="#a" transform="rotate(124.516 131.726 73.131)scale(.01427)"/><use xlink:href="#a" transform="rotate(-90.106 135.424 -128.217)scale(.00612)"/><use xlink:href="#a" transform="rotate(218.879 134.366 -43.291)scale(.00703)"/><use xlink:href="#a" transform="rotate(41.271 129.614 356.2)scale(.00952)"/><use xlink:href="#a" transform="rotate(-35.258 139.405 -416.338)scale(.0143)"/><use xlink:href="#a" transform="rotate(207.723 136.657 -30.43)scale(.01044)"/><use xlink:href="#a" transform="rotate(106.603 135.91 103.412)scale(.00672)"/><use xlink:href="#a" transform="rotate(68.46 136.791 202.361)scale(.01032)"/><use xlink:href="#a" transform="rotate(46.312 136.278 322.318)scale(.00651)"/><use xlink:href="#a" transform="rotate(87.86 138.006 144.443)scale(.00642)"/><use xlink:href="#a" transform="rotate(135.685 139.05 57.686)scale(.00706)"/><use xlink:href="#a" transform="rotate(228.553 139.926 -60.903)scale(.00877)"/><use xlink:href="#a" transform="rotate(-34.043 140.882 -452.139)scale(.01231)"/><use xlink:href="#a" transform="rotate(158.787 142.013 28.448)scale(.0123)"/><use xlink:href="#a" transform="rotate(81.522 141.211 165.763)scale(.00566)"/><use xlink:href="#a" transform="rotate(103.521 142.966 114.132)scale(.0121)"/><use xlink:href="#a" transform="rotate(-91.246 144.993 -137.241)scale(.00682)"/><use xlink:href="#a" transform="rotate(-56.953 146.684 -260.856)scale(.01151)"/><use xlink:href="#a" transform="rotate(116.303 145.375 92.701)scale(.0132)"/><use xlink:href="#a" transform="rotate(150.741 146.117 41.088)scale(.00875)"/><use xlink:href="#a" transform="rotate(112.766 146.286 100.5)scale(.01062)"/><use xlink:href="#a" transform="rotate(77.332 145.55 186.933)scale(.00898)"/><use xlink:href="#a" transform="rotate(168.616 148.612 18.547)scale(.00882)"/><use xlink:href="#a" transform="rotate(28.155 141.264 594.404)scale(.01307)"/><use xlink:href="#a" transform="rotate(-30.955 160.343 -533.52)scale(.01246)"/><use xlink:href="#a" transform="rotate(-81.307 155.065 -170.71)scale(.0069)"/><use xlink:href="#a" transform="rotate(-32.904 162.95 -505.218)scale(.01084)"/><use xlink:href="#a" transform="rotate(255.246 155.501 -112.349)scale(.00622)"/><use xlink:href="#a" transform="rotate(226.52 154.99 -60.44)scale(.00765)"/><use xlink:href="#a" transform="rotate(-42.08 164.175 -392.305)scale(.00612)"/><use xlink:href="#a" transform="rotate(34.408 143.878 500.039)scale(.01282)"/><use xlink:href="#a" transform="rotate(20.92 132.902 841.163)scale(.00864)"/><use xlink:href="#a" transform="rotate(131.678 154.422 75.337)scale(.00878)"/><use xlink:href="#a" transform="rotate(157.483 156.646 37.274)scale(.01214)"/><use xlink:href="#a" transform="rotate(-36.655 172.447 -465.897)scale(.01142)"/><use xlink:href="#a" transform="rotate(81.036 152.601 190.646)scale(.00572)"/><use xlink:href="#a" transform="rotate(18.397 131.204 981.585)scale(.01412)"/><use xlink:href="#a" transform="rotate(61.864 150.865 272.451)scale(.00638)"/><use xlink:href="#a" transform="rotate(45.564 147.83 387.191)scale(.00838)"/><use xlink:href="#a" transform="rotate(108.618 157.905 122.465)scale(.01013)"/><use xlink:href="#a" transform="rotate(126.204 160.29 89.458)scale(.01309)"/><use xlink:href="#a" transform="rotate(-57.874 175.093 -286.05)scale(.0059)"/><use xlink:href="#a" transform="rotate(22.265 131.843 834.575)scale(.0087)"/><use xlink:href="#a" transform="rotate(75.676 156.606 218.49)scale(.01037)"/><use xlink:href="#a" transform="rotate(-34.61 186.559 -517.803)scale(.01408)"/><use xlink:href="#a" transform="rotate(256.741 172.26 -122.645)scale(.0074)"/><use xlink:href="#a" transform="rotate(109.49 162.799 126.158)scale(.0116)"/><use xlink:href="#a" transform="rotate(1.554 -349.942 12295.664)scale(.01414)"/><use xlink:href="#a" transform="rotate(101.594 162.627 146.217)scale(.00652)"/><use xlink:href="#a" transform="rotate(253.966 176.23 -116.996)scale(.0128)"/><use xlink:href="#a" transform="rotate(-26.128 206.821 -721.609)scale(.00677)"/><use xlink:href="#a" transform="rotate(190.7 172.076 -6.346)scale(.00651)"/><use xlink:href="#a" transform="rotate(38.03 149.672 504.942)scale(.01446)"/><use xlink:href="#a" transform="rotate(98.139 165.84 159.243)scale(.00957)"/><use xlink:href="#a" transform="rotate(20.529 122.67 955.611)scale(.01458)"/><use xlink:href="#a" transform="rotate(144.06 169.185 67.666)scale(.01094)"/><use xlink:href="#a" transform="rotate(-69.834 188.528 -231.273)scale(.01043)"/><use xlink:href="#a" transform="rotate(56.951 149.784 327.652)scale(.01195)"/><use xlink:href="#a" transform="rotate(112.153 163.039 129.198)scale(.01322)"/><use xlink:href="#a" transform="rotate(184.057 171.731 9.94)scale(.01124)"/><use xlink:href="#a" transform="rotate(181.234 171.291 15.415)scale(.01464)"/><use xlink:href="#a" transform="rotate(199.355 173.163 -10.949)scale(.01017)"/><use xlink:href="#a" transform="rotate(209.8 174.489 -26.699)scale(.00678)"/><use xlink:href="#a" transform="rotate(-85.764 188.737 -163.09)scale(.00576)"/><use xlink:href="#a" transform="rotate(251.158 182.682 -101.013)scale(.00856)"/><use xlink:href="#a" transform="rotate(57.79 135.209 324.869)scale(.0055)"/><use xlink:href="#a" transform="rotate(223.518 176.94 -46.77)scale(.00687)"/><use xlink:href="#a" transform="rotate(-26.36 253.522 -696.653)scale(.00671)"/><use xlink:href="#a" transform="rotate(53.64 129.735 353.234)scale(.0124)"/><use xlink:href="#a" transform="rotate(72.218 139.66 252.469)scale(.00699)"/><use xlink:href="#a" transform="rotate(172.407 167.459 34.452)scale(.00932)"/><use xlink:href="#a" transform="rotate(93.822 147.496 180.42)scale(.00832)"/><use xlink:href="#a" transform="rotate(51.774 121.477 368.55)scale(.0142)"/><use xlink:href="#a" transform="rotate(-17.277 328.426 -1070.81)scale(.01214)"/><use xlink:href="#a" transform="rotate(-2.43 1368.29 -7841.77)scale(.00773)"/><use xlink:href="#a" transform="rotate(-72.61 203.64 -198.055)scale(.01402)"/><use xlink:href="#a" transform="rotate(196.347 172.013 4.81)scale(.00923)"/><use xlink:href="#a" transform="rotate(214.744 176.982 -22.21)scale(.01182)"/><use xlink:href="#a" transform="rotate(152.042 160.76 71.965)scale(.00974)"/><use xlink:href="#a" transform="rotate(35.054 73.516 558.777)scale(.00779)"/><use xlink:href="#a" transform="rotate(-2.351 1649.23 -8082.202)scale(.00938)"/><use xlink:href="#a" transform="rotate(67.1 121.177 283.803)scale(.01064)"/><use xlink:href="#a" transform="rotate(65.625 118.467 292.117)scale(.00922)"/><use xlink:href="#a" transform="rotate(-27.714 301.464 -642.415)scale(.0075)"/><use xlink:href="#a" transform="rotate(-77.806 209.812 -172.353)scale(.00732)"/><use xlink:href="#a" transform="rotate(140.133 155.808 95.79)scale(.00563)"/><use xlink:href="#a" transform="rotate(-62 226.052 -241.934)scale(.01013)"/><use xlink:href="#a" transform="rotate(137.318 155.028 102.157)scale(.00846)"/><use xlink:href="#a" transform="rotate(-84.238 208.987 -147.24)scale(.01216)"/><use xlink:href="#a" transform="rotate(-95.244 203.252 -114.017)scale(.01275)"/><use xlink:href="#a" transform="rotate(216.409 182.23 -15.947)scale(.0088)"/><use xlink:href="#a" transform="rotate(96.543 135.694 190.498)scale(.01128)"/><use xlink:href="#a" transform="rotate(73.301 116.92 267.813)scale(.00796)"/><use xlink:href="#a" transform="rotate(212.042 182.379 -5.981)scale(.01477)"/><use xlink:href="#a" transform="rotate(-49.28 260.877 -326.887)scale(.0056)"/><use xlink:href="#a" transform="rotate(-70.118 230.327 -198.856)scale(.00549)"/><use xlink:href="#a" transform="rotate(237.88 194.584 -49.517)scale(.01202)"/><use xlink:href="#a" transform="rotate(184.552 172.85 37.74)scale(.00728)"/><use xlink:href="#a" transform="rotate(212.056 184.317 -2.735)scale(.01407)"/><use xlink:href="#a" transform="rotate(68.492 105.249 296.39)scale(.00653)"/><use xlink:href="#a" transform="rotate(124.689 147.89 136.146)scale(.0079)"/><use xlink:href="#a" transform="rotate(13.204 -225.746 1521.773)scale(.00929)"/><use xlink:href="#a" transform="rotate(134.569 152.917 120.002)scale(.01075)"/><use xlink:href="#a" transform="rotate(24.639 -46.258 832.414)scale(.00793)"/><use xlink:href="#a" transform="rotate(167.999 167.455 67.665)scale(.0076)"/><use xlink:href="#a" transform="rotate(215.64 188.443 -4.945)scale(.00707)"/><use xlink:href="#a" transform="rotate(55.3 78.376 378.53)scale(.00768)"/><use xlink:href="#a" transform="rotate(177.185 172.026 55.873)scale(.00936)"/><use xlink:href="#a" transform="rotate(69.736 100.267 298.057)scale(.0074)"/><use xlink:href="#a" transform="rotate(-73.06 240.029 -178.492)scale(.01025)"/><use xlink:href="#a" transform="rotate(129.691 148.03 131.367)scale(.00989)"/><use xlink:href="#a" transform="rotate(-30.678 351.733 -562.678)scale(.01355)"/><use xlink:href="#a" transform="rotate(52.687 69.118 390.562)scale(.00931)"/><use xlink:href="#a" transform="rotate(39.707 30.927 514.838)scale(.00728)"/><use xlink:href="#a" transform="rotate(98.71 125.248 194.217)scale(.00579)"/><use xlink:href="#a" transform="rotate(-83.906 222.594 -133.805)scale(.00985)"/><use xlink:href="#a" transform="rotate(224.143 186.869 -15.618)scale(.01439)"/><use xlink:href="#a" transform="rotate(-63.117 245.833 -217.653)scale(.00609)"/><use xlink:href="#a" transform="rotate(-44.589 284.01 -347.02)scale(.0135)"/><use xlink:href="#a" transform="rotate(126.283 139.79 132.715)scale(.01378)"/><use xlink:href="#a" transform="rotate(9.893 -394.301 1910.669)scale(.01288)"/><use xlink:href="#a" transform="rotate(-70.272 230.456 -176.953)scale(.01288)"/><use xlink:href="#a" transform="rotate(133.323 140.162 118.546)scale(.01072)"/><use xlink:href="#a" transform="rotate(175.799 158.083 55.2)scale(.00638)"/><use xlink:href="#a" transform="rotate(148.738 146.257 93.981)scale(.01347)"/><use xlink:href="#a" transform="rotate(46.732 46.93 413.059)scale(.00565)"/><use xlink:href="#a" transform="rotate(-26.808 358.391 -606.691)scale(.00932)"/><use xlink:href="#a" transform="rotate(10.12 -374.605 1799.491)scale(.0145)"/><use xlink:href="#a" transform="rotate(103.683 118.902 170.221)scale(.01118)"/><use xlink:href="#a" transform="rotate(23.384 -72.788 790.336)scale(.00951)"/><use xlink:href="#a" transform="rotate(-97.61 195.48 -85.37)scale(.00759)"/><use xlink:href="#a" transform="rotate(209.916 166.144 7.86)scale(.00876)"/><use xlink:href="#a" transform="rotate(242.55 181.37 -44.009)scale(.00635)"/><use xlink:href="#a" transform="rotate(119.043 124.783 137.004)scale(.00793)"/><use xlink:href="#a" transform="rotate(30.56 -19.277 598.502)scale(.00773)"/><use xlink:href="#a" transform="rotate(-80.236 206.217 -128.77)scale(.01173)"/><use xlink:href="#a" transform="rotate(-85.262 200.266 -112.555)scale(.0136)"/><use xlink:href="#a" transform="rotate(7.31 -575.28 2358.339)scale(.00819)"/><use xlink:href="#a" transform="rotate(-15.174 490.353 -1049.176)scale(.01477)"/><use xlink:href="#a" transform="rotate(-25.056 353.661 -608.965)scale(.00772)"/><use xlink:href="#a" transform="rotate(103.799 110.241 161.062)scale(.00633)"/><use xlink:href="#a" transform="rotate(168.577 141.257 61.445)scale(.00639)"/><use xlink:href="#a" transform="rotate(105.972 111.003 155.574)scale(.0078)"/><use xlink:href="#a" transform="rotate(83.676 93.76 207.135)scale(.00656)"/><use xlink:href="#a" transform="rotate(179.069 143.804 47.92)scale(.00721)"/><use xlink:href="#a" transform="rotate(-38.203 274.64 -364.57)scale(.00735)"/><use xlink:href="#a" transform="rotate(-53.643 232.234 -233.446)scale(.00906)"/><use xlink:href="#a" transform="rotate(1.506 -3279.973 10750.562)scale(.01036)"/><use xlink:href="#a" transform="rotate(193.479 146.675 29.622)scale(.00603)"/><use xlink:href="#a" transform="rotate(25.213 -57.626 668.273)scale(.01274)"/><use xlink:href="#a" transform="rotate(108.395 108.09 145.986)scale(.0127)"/><use xlink:href="#a" transform="rotate(-64.75 208.865 -170.572)scale(.00986)"/><use xlink:href="#a" transform="rotate(37.178 5.911 452.601)scale(.00666)"/><use xlink:href="#a" transform="rotate(162.818 130.678 66.044)scale(.00572)"/><use xlink:href="#a" transform="rotate(126.53 114.66 113.838)scale(.0066)"/><use xlink:href="#a" transform="rotate(194.618 142.132 28.176)scale(.0081)"/><use xlink:href="#a" transform="rotate(189.344 139.488 34.469)scale(.01031)"/><use xlink:href="#a" transform="rotate(19.62 -119.793 818.976)scale(.00675)"/><use xlink:href="#a" transform="rotate(242.608 160.969 -35.326)scale(.0114)"/><use xlink:href="#a" transform="rotate(15.193 -194.226 1037.432)scale(.00628)"/><use xlink:href="#a" transform="rotate(146.097 120.017 85.13)scale(.01254)"/><use xlink:href="#a" transform="rotate(45.029 28.197 359.019)scale(.0117)"/><use xlink:href="#a" transform="rotate(-2.905 1839.287 -5080.702)scale(.00586)"/><use xlink:href="#a" transform="rotate(-39.33 250.034 -315.47)scale(.01201)"/><use xlink:href="#a" transform="rotate(198.987 136.826 23.428)scale(.0136)"/><use xlink:href="#a" transform="rotate(-98.435 165.37 -64.554)scale(.01162)"/><use xlink:href="#a" transform="rotate(166.845 122.316 58.807)scale(.0056)"/><use xlink:href="#a" transform="rotate(148.746 114.86 79.73)scale(.00807)"/><use xlink:href="#a" transform="rotate(245.171 153.968 -35.47)scale(.00666)"/><use xlink:href="#a" transform="rotate(181.954 126.64 43.028)scale(.01212)"/><use xlink:href="#a" transform="rotate(-41.513 239.713 -281.75)scale(.00587)"/><use xlink:href="#a" transform="rotate(50.089 30.734 308.283)scale(.00599)"/><use xlink:href="#a" transform="rotate(-60.346 198.913 -165.815)scale(.00735)"/><use xlink:href="#a" transform="rotate(176.143 121.912 49.613)scale(.01359)"/><use xlink:href="#a" transform="rotate(38.081 -4.784 394.972)scale(.00713)"/><use xlink:href="#a" transform="rotate(-88.514 166.411 -78.228)scale(.00748)"/><use xlink:href="#a" transform="rotate(22.796 -94.588 634.914)scale(.01405)"/><use xlink:href="#a" transform="rotate(10.068 -381.583 1391.782)scale(.00556)"/><use xlink:href="#a" transform="rotate(-92.406 161.397 -67.322)scale(.00939)"/><use xlink:href="#a" transform="rotate(199.034 125.857 26.06)scale(.00934)"/><use xlink:href="#a" transform="rotate(-25.756 309.699 -460.331)scale(.01261)"/><use xlink:href="#a" transform="rotate(82.598 66.584 176.744)scale(.01195)"/><use xlink:href="#a" transform="rotate(-88.32 161.497 -72.402)scale(.00558)"/><use xlink:href="#a" transform="rotate(176.401 113.733 49.447)scale(.00785)"/><use xlink:href="#a" transform="rotate(193.087 119.532 32.711)scale(.00608)"/><use xlink:href="#a" transform="rotate(178.325 113.312 47.634)scale(.00744)"/><use xlink:href="#a" transform="rotate(89.278 68.76 159.366)scale(.0139)"/><use xlink:href="#a" transform="rotate(-2.901 1880.199 -4335.459)scale(.00755)"/><use xlink:href="#a" transform="rotate(226.031 130.592 -1.006)scale(.00592)"/><use xlink:href="#a" transform="rotate(212.638 124.355 14.83)scale(.01354)"/><use xlink:href="#a" transform="rotate(7.488 -580.543 1709.71)scale(.0065)"/><use xlink:href="#a" transform="rotate(166.632 104.16 59.184)scale(.00814)"/><use xlink:href="#a" transform="rotate(158.436 100.283 67.077)scale(.01013)"/><use xlink:href="#a" transform="rotate(222.806 125.66 4.665)scale(.00689)"/><use xlink:href="#a" transform="rotate(236.914 131.873 -11.284)scale(.00548)"/><use xlink:href="#a" transform="rotate(252.902 140.48 -31.696)scale(.0056)"/><use xlink:href="#a" transform="rotate(-15.792 435.484 -713.21)scale(.006)"/><use xlink:href="#a" transform="rotate(61.19 28.678 224.025)scale(.00616)"/><use xlink:href="#a" transform="rotate(5.807 -795.279 2105.567)scale(.0055)"/><use xlink:href="#a" transform="rotate(-20.171 361.986 -537.633)scale(.00585)"/><use xlink:href="#a" transform="rotate(-5.705 1014.616 -2012.82)scale(.0124)"/><use xlink:href="#a" transform="rotate(38.46 -27.61 339.992)scale(.00755)"/><use xlink:href="#a" transform="rotate(26.697 -88.297 472.856)scale(.01313)"/><use xlink:href="#a" transform="rotate(-34.71 248.483 -274.037)scale(.00831)"/><use xlink:href="#a" transform="rotate(139.565 84.486 84.389)scale(.01346)"/><use xlink:href="#a" transform="rotate(-85.94 149.113 -57.08)scale(.01438)"/><use xlink:href="#a" transform="rotate(-29.585 274.47 -322.654)scale(.00584)"/><use xlink:href="#a" transform="rotate(225.732 117.835 7.084)scale(.01022)"/><use xlink:href="#a" transform="rotate(169.501 93.187 56.54)scale(.00838)"/><use xlink:href="#a" transform="rotate(47.17 -9.31 266.088)scale(.00938)"/><use xlink:href="#a" transform="rotate(158.187 87.153 66.363)scale(.01095)"/><use xlink:href="#a" transform="rotate(222.005 113.047 12.784)scale(.0134)"/><use xlink:href="#a" transform="rotate(172.661 90.946 54.121)scale(.00791)"/><use xlink:href="#a" transform="rotate(150.811 81.02 72.09)scale(.00682)"/><use xlink:href="#a" transform="rotate(-82.56 145.808 -54.412)scale(.01453)"/><use xlink:href="#a" transform="rotate(92.311 46.28 135.021)scale(.00724)"/><use xlink:href="#a" transform="rotate(-95.64 133.606 -33.272)scale(.00576)"/><use xlink:href="#a" transform="rotate(134.037 70.686 86.43)scale(.01126)"/><use xlink:href="#a" transform="rotate(4.362 -1146.941 2357.31)scale(.01033)"/><use xlink:href="#a" transform="rotate(147.188 74.902 74.496)scale(.01072)"/><use xlink:href="#a" transform="rotate(184.445 89.615 45.402)scale(.0082)"/><use xlink:href="#a" transform="rotate(10.592 -425.018 974.662)scale(.00762)"/><use xlink:href="#a" transform="rotate(58.66 1.954 200.354)scale(.0088)"/><use xlink:href="#a" transform="rotate(204.719 96.107 30.173)scale(.00547)"/><use xlink:href="#a" transform="rotate(-86.595 135.783 -39.843)scale(.0093)"/><use xlink:href="#a" transform="rotate(136.871 65.636 82.021)scale(.00818)"/><use xlink:href="#a" transform="rotate(-4.332 1347.55 -2128.246)scale(.00936)"/><use xlink:href="#a" transform="rotate(-61.18 164.267 -89.58)scale(.00617)"/><use xlink:href="#a" transform="rotate(-95.61 126.048 -24.782)scale(.00602)"/><use xlink:href="#a" transform="rotate(112.684 49.945 103.11)scale(.00663)"/><use xlink:href="#a" transform="rotate(9.631 -491.56 1004.65)scale(.00557)"/><use xlink:href="#a" transform="rotate(-22.824 320.4 -346.443)scale(.00663)"/><use xlink:href="#a" transform="rotate(187.913 83.724 43.746)scale(.00554)"/><use xlink:href="#a" transform="rotate(-17.379 396.321 -466.498)scale(.0069)"/><use xlink:href="#a" transform="rotate(139.977 62.283 78.272)scale(.01371)"/><use xlink:href="#a" transform="rotate(1.694 -3170.25 5219.408)scale(.01279)"/><use xlink:href="#a" transform="rotate(84 23.1 134.296)scale(.00555)"/><use xlink:href="#a" transform="rotate(237.165 103.241 8.35)scale(.00555)"/><use xlink:href="#a" transform="rotate(-85.023 129.36 -31.803)scale(.00844)"/><use xlink:href="#a" transform="rotate(216.4 91.656 25.756)scale(.0097)"/><use xlink:href="#a" transform="rotate(-10.649 594.35 -732.647)scale(.01247)"/><use xlink:href="#a" transform="rotate(200.262 82.677 37.798)scale(.01182)"/><use xlink:href="#a" transform="rotate(40.56 -60.25 244.24)scale(.00717)"/><use xlink:href="#a" transform="rotate(81.205 15.114 133.114)scale(.00893)"/><use xlink:href="#a" transform="rotate(150.589 58.457 68.76)scale(.0056)"/><use xlink:href="#a" transform="rotate(126.769 46.513 85.483)scale(.00945)"/><use xlink:href="#a" transform="rotate(32.429 -99.355 287.836)scale(.00772)"/><use xlink:href="#a" transform="rotate(192.181 74.83 43.23)scale(.00656)"/><use xlink:href="#a" transform="rotate(-66.923 143.776 -51.905)scale(.0077)"/><use xlink:href="#a" transform="rotate(-68.46 140.987 -46.958)scale(.01116)"/><use xlink:href="#a" transform="rotate(35.966 -85.754 255.366)scale(.00645)"/><use xlink:href="#a" transform="rotate(212.918 81.753 32.34)scale(.01387)"/><use xlink:href="#a" transform="rotate(192.533 71.338 44.145)scale(.00998)"/><use xlink:href="#a" transform="rotate(-32.802 234.324 -164.663)scale(.00902)"/><use xlink:href="#a" transform="rotate(54.725 -32.037 172.752)scale(.00923)"/><use xlink:href="#a" transform="rotate(147.443 48.81 69.496)scale(.00692)"/><use xlink:href="#a" transform="rotate(206.642 74.769 36.738)scale(.00668)"/><use xlink:href="#a" transform="rotate(-3.256 1811.342 -2067.911)scale(.01465)"/><use xlink:href="#a" transform="rotate(27.109 -146.316 298.737)scale(.01053)"/><use xlink:href="#a" transform="rotate(57.735 -31.477 158.966)scale(.0066)"/><use xlink:href="#a" transform="rotate(-.743 7787.301 -8887.456)scale(.01195)"/><use xlink:href="#a" transform="rotate(179.733 58.609 51.856)scale(.00726)"/><use xlink:href="#a" transform="rotate(85.201 3.15 113.624)scale(.00674)"/><use xlink:href="#a" transform="rotate(107.393 21.037 92.83)scale(.01028)"/><use xlink:href="#a" transform="rotate(-66.958 132.554 -33.255)scale(.00557)"/><use xlink:href="#a" transform="rotate(115.145 24.974 86.17)scale(.01129)"/><use xlink:href="#a" transform="rotate(213.286 70.253 34.7)scale(.00711)"/><use xlink:href="#a" transform="rotate(-16.53 391.95 -312.361)scale(.01394)"/><use xlink:href="#a" transform="rotate(-68.97 124.673 -24.148)scale(.0147)"/><use xlink:href="#a" transform="rotate(-64.802 129.77 -31.18)scale(.0057)"/><use xlink:href="#a" transform="rotate(181.819 53.117 49.647)scale(.01386)"/><use xlink:href="#a" transform="rotate(19.098 -233.224 341.372)scale(.0137)"/><use xlink:href="#a" transform="rotate(178.838 49.488 50.17)scale(.01044)"/><use xlink:href="#a" transform="rotate(213.02 63.3 35.623)scale(.01235)"/><use xlink:href="#a" transform="rotate(-99.481 88.44 9.106)scale(.00647)"/><use xlink:href="#a" transform="rotate(6.413 -804.752 878.883)scale(.0056)"/><use xlink:href="#a" transform="rotate(182.126 48.204 48.422)scale(.0146)"/><use xlink:href="#a" transform="rotate(175.889 44.16 50.11)scale(.00764)"/><use xlink:href="#a" transform="rotate(118.558 17.074 74.501)scale(.00577)"/><use xlink:href="#a" transform="rotate(-37.81 181.34 -78.107)scale(.00954)"/><use xlink:href="#a" transform="rotate(-13.932 424.211 -298.984)scale(.0105)"/><use xlink:href="#a" transform="rotate(137.368 24.91 64.11)scale(.00628)"/><use xlink:href="#a" transform="rotate(-54.094 133.003 -32.02)scale(.0119)"/><use xlink:href="#a" transform="rotate(198.789 49.347 40.726)scale(.00814)"/><use xlink:href="#a" transform="rotate(-24.857 248.887 -131.908)scale(.0098)"/><use xlink:href="#a" transform="rotate(246.349 70.097 22.283)scale(.0121)"/><use xlink:href="#a" transform="rotate(54.788 -47.194 119.215)scale(.01347)"/><use xlink:href="#a" transform="rotate(142.714 22.78 58.966)scale(.00601)"/><use xlink:href="#a" transform="rotate(95.874 -2.917 79.253)scale(.00816)"/><use xlink:href="#a" transform="rotate(225.976 56.1 31.65)scale(.01357)"/><use xlink:href="#a" transform="rotate(135.653 18.08 60.163)scale(.01166)"/><use xlink:href="#a" transform="rotate(-9.997 538.242 -335.29)scale(.01127)"/><use xlink:href="#a" transform="rotate(-2.854 1786.462 -1242.467)scale(.01382)"/><use xlink:href="#a" transform="rotate(26.248 -152.538 178.585)scale(.0137)"/><use xlink:href="#a" transform="rotate(126.009 9.617 60.527)scale(.00742)"/><use xlink:href="#a" transform="rotate(70.926 -29.446 86.754)scale(.00898)"/><use xlink:href="#a" transform="rotate(-73.351 88.43 5.464)scale(.00928)"/><use xlink:href="#a" transform="rotate(121.499 6.193 60.389)scale(.01312)"/><use xlink:href="#a" transform="rotate(93.086 -12.014 70.579)scale(.0092)"/><use xlink:href="#a" transform="rotate(-85.984 74.618 16.192)scale(.00858)"/><use xlink:href="#a" transform="rotate(-39.936 146.642 -24.417)scale(.0135)"/><use xlink:href="#a" transform="rotate(67.462 -38.924 82.41)scale(.01237)"/><use xlink:href="#a" transform="rotate(252.751 57.94 28.542)scale(.01118)"/><use xlink:href="#a" transform="rotate(222.793 41.805 36.465)scale(.00596)"/><use xlink:href="#a" transform="rotate(211.631 36.666 40.095)scale(.01218)"/><use xlink:href="#a" transform="rotate(159.662 15.005 50.349)scale(.00957)"/><use xlink:href="#a" transform="rotate(-30.076 189.994 -29.788)scale(.01078)"/><use xlink:href="#a" transform="rotate(162.01 14.494 50.458)scale(.01418)"/><use xlink:href="#a" transform="rotate(30.054 -150.472 117.667)scale(.00815)"/><use xlink:href="#a" transform="rotate(111.252 -12.057 59.714)scale(.00577)"/><use xlink:href="#a" transform="rotate(-78.738 75.272 26.717)scale(.01176)"/><use xlink:href="#a" transform="rotate(178.319 17.442 47.866)scale(.00665)"/><use xlink:href="#a" transform="rotate(-71.645 82.33 24.926)scale(.00661)"/><use xlink:href="#a" transform="rotate(-87.13 66.276 30.966)scale(.00599)"/><use xlink:href="#a" transform="rotate(255.784 53.016 37.346)scale(.01374)"/><use xlink:href="#a" transform="rotate(53.996 -77.368 76.695)scale(.00602)"/><use xlink:href="#a" transform="rotate(19.704 -256.308 126.39)scale(.01045)"/><use xlink:href="#a" transform="rotate(7.824 -679.002 234.185)scale(.0102)"/><use xlink:href="#a" transform="rotate(214.138 28.204 45.946)scale(.0114)"/><use xlink:href="#a" transform="rotate(32.155 -153.245 86.99)scale(.01226)"/><use xlink:href="#a" transform="rotate(5.564 -981.084 255.278)scale(.01)"/><use xlink:href="#a" transform="rotate(8.15 -673.585 182.751)scale(.00817)"/><use xlink:href="#a" transform="rotate(-40.9 141.547 26.027)scale(.00653)"/><use xlink:href="#a" transform="rotate(62.096 -72.222 64.325)scale(.0056)"/><use xlink:href="#a" transform="rotate(116.556 -21.259 55.369)scale(.0081)"/><use xlink:href="#a" transform="rotate(158.217 -1.057 52.054)scale(.00714)"/><use xlink:href="#a" transform="rotate(52.1 -92.176 63.387)scale(.01457)"/><use xlink:href="#a" transform="rotate(41.328 -126.359 66.447)scale(.00547)"/><use xlink:href="#a" transform="rotate(102.717 -33.463 55.507)scale(.01065)"/><use xlink:href="#a" transform="rotate(128.733 -18.305 53.811)scale(.01263)"/><use xlink:href="#a" transform="rotate(236.791 31.966 49.911)scale(.0124)"/><use xlink:href="#a" transform="rotate(118.857 -23.454 52.352)scale(.0137)"/><use xlink:href="#a" transform="rotate(18.734 -282.55 67.922)scale(.01194)"/><use xlink:href="#a" transform="rotate(-48.605 108.016 41.702)scale(.01027)"/><use xlink:href="#a" transform="rotate(-15.267 349.455 23.084)scale(.00671)"/><use xlink:href="#a" transform="rotate(80.363 -48.513 50.44)scale(.01185)"/><use xlink:href="#a" transform="rotate(253.374 37.648 43.333)scale(.00597)"/><use xlink:href="#a" transform="rotate(153.786 -6.018 46.075)scale(.00729)"/><use xlink:href="#a" transform="rotate(226.238 22.78 43.64)scale(.00909)"/><use xlink:href="#a" transform="rotate(98.298 -32.186 46.476)scale(.01066)"/><use xlink:href="#a" transform="rotate(24.086 -193.284 56.722)scale(.006)"/><use xlink:href="#a" transform="rotate(85.906 -40.257 45.606)scale(.00823)"/><use xlink:href="#a" transform="rotate(37.655 -115.501 50.037)scale(.00723)"/><use xlink:href="#a" transform="rotate(16.23 -274.04 57.825)scale(.011)"/><use xlink:href="#a" transform="rotate(-53.496 80.474 36.614)scale(.014)"/><use xlink:href="#a" transform="rotate(256.76 33.806 37.354)scale(.00783)"/><use xlink:href="#a" transform="rotate(33.14 -120.49 46.166)scale(.01036)"/><use xlink:href="#a" transform="rotate(49.07 -74.084 41.86)scale(.01424)"/><use xlink:href="#a" transform="rotate(-7.353 555.203 .157)scale(.00649)"/><use xlink:href="#a" transform="rotate(212.553 13.607 35.36)scale(.00707)"/><use xlink:href="#a" transform="rotate(-41.747 91.945 31.081)scale(.01192)"/><use xlink:href="#a" transform="rotate(134.532 -10.34 35.333)scale(.01025)"/><use xlink:href="#a" transform="rotate(218.463 14.63 33.359)scale(.01306)"/><use xlink:href="#a" transform="rotate(80.997 -33.448 34.797)scale(.00758)"/><use xlink:href="#a" transform="rotate(-71.526 45.281 29.932)scale(.01148)"/><use xlink:href="#a" transform="rotate(78.594 -32.308 32.816)scale(.01191)"/><use xlink:href="#a" transform="rotate(12.09 -267.58 44.4)scale(.00818)"/><use xlink:href="#a" transform="rotate(196.746 7.378 29.44)scale(.01452)"/><use xlink:href="#a" transform="rotate(-45.328 66.976 24.444)scale(.00765)"/><use xlink:href="#a" transform="rotate(220.703 12.365 26.92)scale(.0074)"/><use xlink:href="#a" transform="rotate(74.148 -30.371 28.331)scale(.01136)"/><use xlink:href="#a" transform="rotate(177.306 2.546 26.197)scale(.01428)"/><use xlink:href="#a" transform="rotate(-56.493 45.956 22.693)scale(.00804)"/><use xlink:href="#a" transform="rotate(-34.817 73.575 21.78)scale(.01215)"/><use xlink:href="#a" transform="rotate(135.643 -6.3 23.49)scale(.00966)"/><use xlink:href="#a" transform="rotate(37.19 -59.126 24.757)scale(.00972)"/><use xlink:href="#a" transform="rotate(248.857 15.906 21.49)scale(.01425)"/><use xlink:href="#a" transform="rotate(196.846 4.985 20.28)scale(.0102)"/><use xlink:href="#a" transform="rotate(126.927 -6.983 19.744)scale(.0088)"/><use xlink:href="#a" transform="rotate(26.5 -73.088 21.875)scale(.00592)"/><use xlink:href="#a" transform="rotate(109.26 -9.492 18.592)scale(.0112)"/><use xlink:href="#a" transform="rotate(-83.254 19.646 16.95)scale(.01016)"/><use xlink:href="#a" transform="rotate(-66.039 24.843 16.909)scale(.01343)"/><defs><path id="a" fill="#2b2816" d="M215.823 333.963c0-.733.3-1.033.667-.667a.95.95 0 0 1 0 1.334c-.367.366-.667.066-.667-.667M143.424 3.977c4.632-.653 8.099 4.826 5.302 8.382-1.951 2.48-2.551 5.604-1.078 5.604.905.004 11.175 12.34 11.175 13.423 0 1.076-4.344 5.111-6.316 5.868-1.898.728-1.434 2.71.633 2.71.661 0 1.78.924 2.486 2.056 1.284 2.054 1.286 2.054 2.991.057.938-1.1 2.606-2.139 3.706-2.307s2.33-.757 2.734-1.307c.415-.565.741-.238.75.75.018 2.14.447 2.169 3.408.229 1.623-1.063 2.19-2.212 1.884-3.81-1.049-5.489 4.864-5.512 14.402-.058 5.289 3.024 5.527 3.005 7.663-.61 3.023-5.119 9.966-1.694 8.152 4.02-.515 1.623-.183 2.247 1.417 2.666 1.15.3 2.09.945 2.09 1.43.001.485.9.883 2 .883 2.405 0 2.51-.633.446-2.697-1.937-1.936-1.511-6.247.756-7.667 2.444-1.53 3.085-.336 1.976 3.68-.844 3.057-.725 3.569.927 4 1.042.274 1.895 1.215 1.895 2.09.001 2.117 3.922 2.083 5.479-.046 1.634-2.235 4.962-.366 4.996 2.806.022 2.026.585 2.375 4.275 2.641 3.903.283 4.25.113 4.25-2.089q0-2.397 2.547-3.556c5.794-2.64 9.087-.056 7.912 6.206-.627 3.341-.627 3.341 7.125 4.043 13.323 1.209 21.701 9.211 10.916 10.427-1.65.187-3.533.779-4.183 1.316-.772.639-2.504.61-5-.082-4.664-1.295-5.317-1.318-5.317-.18 0 .89 3.547 2.107 7.692 2.639 3.814.489 4.527 1.472 3.864 5.335-1.584 9.224-1.538 9.134-4.694 9.134-1.732 0-2.721-.419-2.362-1 .34-.55.194-1-.324-1-.519 0-1.178-.9-1.466-2-.316-1.208-1.364-2-2.648-2-1.169 0-2.425-.787-2.793-1.75-.688-1.803-.846-2.03-4.339-6.25-2.069-2.5-2.069-2.5-1.491.21.443 2.079.097 2.968-1.49 3.817-3.053 1.634-2.358 6.6.861 6.15 1.27-.178 2.952.21 3.737.862.841.698 2.53.908 4.115.51 2.465-.619 2.57-.53 1.263 1.08-.904 1.113-.968 1.48-.175 1.004 1.207-.725 1.687.683 1.482 4.336-.045.808 1.226 3.249 2.826 5.425 2.411 3.278 2.808 4.595 2.313 7.686-.499 3.124-.251 3.915 1.528 4.868 1.738.93 1.934 1.496 1.067 3.115-.582 1.088-.743 2.489-.358 3.114 1.359 2.199-6.627-.001-11.342-3.124-8.698-5.762-10.731-2.813-8.924 12.947.221 1.925-.023 4.035-.543 4.69-2.291 2.887-.482 6.804 3.201 6.932 1.925.067 3.95.231 4.5.365s1.77.166 2.711.072c2.294-.23 5.828 1.736 5.529 3.076-.429 1.92 7.577 1.339 13.716-.996 3.275-1.246 6.763-2.054 7.75-1.795 1.097.287 1.794-.077 1.794-.937 0-.773-.9-1.407-2-1.407-2.468 0-2.532-1.121-.227-3.967 1.774-2.19 1.774-2.191 3.655-.112 3.099 3.423 8.159.85 5.79-2.944-.993-1.589-.581-2.041 3.321-3.645 2.449-1.007 4.455-2.169 4.457-2.582s.443-.75.979-.75c1.288 0 .183 5.855-1.664 8.817-1.092 1.751-1.167 2.651-.309 3.686 1.283 1.545-.226 5.368-2.692 6.822-.804.474-1.149 1.608-.812 2.669.406 1.279-.025 2.039-1.405 2.477-1.193.378-1.772 1.202-1.445 2.054.599 1.563-1.168 3.716-3.898 4.75-.962.364-1.75 1.619-1.75 2.789 0 2.226-3.33 7.595-5.963 9.615-1.366 1.047-1.342 1.254.215 1.857 1.184.459 2.39-.086 3.717-1.678 2.104-2.526 2.666-1.913 1.038 1.131-.844 1.574-.541 1.954 2 2.512 3.869.85 4.064 4.832.493 10.094-3.324 4.898-3.182 6.036 1.488 11.905 2.188 2.75 5.447 7.129 7.244 9.732 2.93 4.244 6.768 6.38 6.768 3.768 0-.55 1.035-1 2.3-1s2.746-.446 3.29-.99c.62-.62 2.15-.657 4.088-.101 2.392.686 3.469.516 4.728-.744 4.803-4.802 6.925 3.04 2.546 9.405-3.724 5.412-1.48 4.855 3.795-.941 1.786-1.963 3.851-3.336 4.59-3.052.738.282 1.92-.181 2.625-1.031 1.934-2.33 4.935-1.866 6.224.963 1.583 3.475-.177 6.436-7.813 13.14-6.161 5.409-6.161 5.409-3.267 8.303q6.73 6.731-2.936 8.665c-2.37.473-3.292.23-3.762-.995-.888-2.314-2.696-2.009-5.448.92-2.037 2.169-2.206 2.834-1.151 4.523 1.864 2.986.028 5.71-3.506 5.2-4.597-.663-9.708 5.273-8.219 9.547.611 1.753 1.63 3.202 2.264 3.219s.361.49-.606 1.054c-.967.563-2.166.771-2.665.463-.498-.308-1.136-.096-1.417.471-.28.567-.375.457-.21-.244a1.32 1.32 0 0 1 1.594-.969c1.051.249 1.054.018.019-1.229-.82-.989-2.396-1.39-4.419-1.124a92 92 0 0 1-6.144.558c-1.65.081-2.437.374-1.75.651.688.279 1.25 1.087 1.25 1.799s.675 1.854 1.5 2.539c5.107 4.238-.167 9.564-11.856 11.977-5.805 1.198-5.851 1.236-5.25 4.241.333 1.668.606 4.11.606 5.428 0 1.565.84 2.78 2.421 3.5 1.427.65 2.204 1.669 1.892 2.481-1.315 3.427.629 6.545 3.665 5.878 3.965-.871 7.62 1.069 5.906 3.134-.684.825-2.082 1.281-3.105 1.013-1.464-.382-1.732-.077-1.254 1.431.545 1.717.081 1.917-4.459 1.917-5.146 0-6.794-1.89-2.64-3.028 2.787-.763 3.151-3.008.595-3.677-1.452-.379-1.789-.821-.999-1.309 1.624-1.003.253-6.985-1.601-6.986-.782 0-1.421-.392-1.421-.872s-1.851-1.168-4.114-1.53c-2.276-.364-4.845-1.556-5.75-2.669-1.563-1.921-1.645-1.764-1.848 3.531-.199 5.212-.072 5.54 2.143 5.54 5.607 0 3.707 7.564-2.136 8.502-2.087.335-5.28 1.263-7.096 2.062-2.486 1.094-3.803 1.183-5.335.363-2.367-1.266-3.36-.663-2.519 1.53.326.849 1.676 1.543 3.001 1.543 3.904 0 5.075 2.286 3.115 6.077-1.665 3.218-1.666 3.218-13.063 2.607s-11.398-.611-11.398 2.418c0 8.621-10.579 8.949-12.836.398-1.025-3.886-7.44-4.574-7.971-.856-.417 2.928-5.229 3.934-5.933 1.241-.544-2.077-1.366-2.361-2.81-.97-.522.504-2.075 1.066-3.45 1.25-1.71.229-2.602 1.053-2.823 2.609-.261 1.844-.83 2.2-3 1.878-1.472-.218-2.582-.851-2.467-1.405.116-.555-.672-1.807-1.75-2.783-1.881-1.703-1.962-1.698-2.002.131-.024 1.048-1.416 3.03-3.095 4.405a541 541 0 0 0-5.708 4.749c-4.916 4.164-8.422 2.715-9.677-3.999-.385-2.061-.881-3.749-1.102-3.75s-3.649.9-7.619 2c-14.524 4.025-29-2.533-15.77-7.145 1.657-.578 3.013-1.445 3.013-1.928s-1.155-.438-2.566.098c-2.123.807-3.159.524-6-1.643-3.139-2.394-4.983-5.457-2.279-3.787.716.443.883.275.439-.443-1.049-1.697-4.913.576-4.188 2.464.811 2.113-2.281 2.937-3.707.987-1.831-2.504-6.976.008-6.236 3.044 1.341 5.502-5.446 8.159-7.44 2.914-.95-2.498-5.437-1.816-9.523 1.446-1.865 1.489-6.803 1.559-7.292.104-.259-.768-.013-1.108.549-.761.56.346.996.071.973-.61-.161-4.454.444-5.606 3.52-6.697 3.668-1.3 2.102-3.54-3.25-4.647-1.375-.284-3.306-.954-4.29-1.489-.986-.536-2.157-.749-2.603-.473-.448.276-1.667-.136-2.71-.916-1.793-1.341-1.767-1.385.487-.816 1.773.448 2.26.242 1.896-.8-.268-.771-1.228-1.27-2.134-1.108s-1.646-.113-1.646-.61c0-1.368-6.697-8.183-8.04-8.184-1.264 0-.447 5.053.968 5.991 1.274.844.882 7.15-.413 6.653-.657-.252-1.123.469-1.084 1.676.084 2.591-2.923 3.446-3.828 1.089-.357-.929.047-2.752.897-4.05 1.424-2.172 1.405-2.362-.227-2.394-.976-.02-2.897-.658-4.27-1.418-1.696-.939-2.884-1.061-3.702-.382-1.603 1.33-5.582.011-4.95-1.641.545-1.42-1.94-5.524-3.343-5.524-1.258 0-10.008-8.116-10.008-9.282 0-.581 1.664-.708 4.125-.314 3.832.613 4.086.511 3.58-1.429-.45-1.717-.294-1.879.874-.91 2.272 1.886 1.639-.557-.69-2.659-1.16-1.048-2.975-3.744-4.033-5.992-1.69-3.592-9.922-9.936-15.158-11.681-3.332-1.111 3.063-11.87 6.517-10.966 1.767.462 1.998.235 1.38-1.356-1.235-3.177-1.163-3.926.35-3.596 2.291.498 6.055-1.977 6.055-3.984 0-1.079.72-1.831 1.755-1.831 2.437 0 4.522-6.525 2.596-8.124-.743-.616-1.35-1.939-1.35-2.939-.001-1.001-.451-2.097-1-2.437-.55-.34-1-1.518-1-2.618s-.404-1.752-.895-1.448c-.49.303-1.843-1.357-3.005-3.691s-2.66-5.143-3.328-6.243-2.239-3.678-3.493-5.729c-2.852-4.664-2.888-7.741-.126-10.706 1.922-2.063 1.98-2.41.542-3.215-.887-.497-1.358-1.568-1.045-2.382.387-1.012-.573-1.955-3.043-2.987-1.984-.829-3.645-2.064-3.69-2.744-.242-3.637-1.198-7.557-2.465-10.115-.785-1.582-1.159-3.945-.832-5.25.405-1.611.16-2.392-.764-2.435-.746-.035-.333-.475.918-.977 2.606-1.047 2.206-5.5-.687-7.629-4.752-3.496-5.041-3.891-4.456-6.081.33-1.238 1.379-2.25 2.33-2.25.95 0 2.543-.9 3.538-2s2.231-2 2.745-2 1.779-1.012 2.81-2.25c1.615-1.934 1.883-2.003 1.912-.49.018.968-.867 2.53-1.967 3.472-2.538 2.173-2.518 2.899.1 3.584 1.157.303 1.805 1.029 1.442 1.617-.363.587-.445 1.067-.183 1.067.263 0 1.25.298 2.196.66 1.212.464 1.572.243 1.224-.75-.57-1.629 2.992-7.17 4.15-6.454.427.264 1.613-.132 2.636-.879 2.017-1.475.615-4.576-2.069-4.577-1.332 0-4.101-8.453-3.604-11 .162-.825.239-3.222.17-5.326-.108-3.399.22-3.954 2.949-4.984 2.134-.806 3.024-1.774 2.919-3.175-.26-3.456.036-4.654 1-4.058a1.09 1.09 0 0 0 1.502-.347c.313-.507 1.402-.705 2.42-.438 2.56.669 5.59-2.434 4.113-4.214-.807-.972-.795-1.907.043-3.472.63-1.178.9-2.782.6-3.564-.38-.993.2-1.422 1.923-1.422 1.358 0 2.469-.45 2.47-1 0-.55-.437-1-.97-1s-.71-.675-.393-1.5c.33-.861.02-1.5-.73-1.5-1.018 0-1.041-.267-.108-1.2.66-.66 1.2-1.948 1.2-2.862 0-1.277 1.32-1.818 5.684-2.331 3.126-.367 6.276-1.159 7-1.76 1.767-1.466 1.673-3.846-.153-3.847-.894 0-1.243.586-.893 1.5.363.945-.011 1.5-1.011 1.5-1.986 0-1.574-5.786.506-7.103 3.478-2.204-2.762-.68-7.275 1.776-3.573 1.945-5.211 2.374-6.012 1.573-.743-.743-1.913-.79-3.605-.148-4.224 1.606-6.24.29-6.24-4.07 0-4.477 3.34-6.913 15.25-11.124 7.366-2.604 7.512-2.802 5.108-6.871-1.99-3.368-1.188-7.635 1.6-8.52 2.676-.849 9.035.449 9.056 1.848.042 3.128 1.618 3.829 5.793 2.579 4.398-1.318 5.909-3.37 4.09-5.56-.88-1.063-.605-1.805 1.234-3.325 2.036-1.682 2.524-1.753 3.477-.506 1.928 2.52 17.01-1.493 15.954-4.243-.865-2.257 4.422-5.084 5.593-2.991 1.402 2.505 4.122 2.048 7.252-1.219 2.783-2.905 2.783-2.905.625-5.062-3.774-3.774-.756-10.609 4.56-10.326 5.589.297 6.264.495 5.822 1.71-.217.595-.005 1.692.47 2.437 1.046 1.642 5.668-.946 6.598-3.694.309-.914 3.365-3.792 6.79-6.397 3.42-2.6 6.265-4.737 6.328-4.75m65.339 318.986c.582 0 1.06.45 1.06 1s-.198 1-.441 1-.719-.45-1.059-1-.141-.999.44-1m-91.94-7.618c0-.825.45-1.222 1-.882s1 1.294 1 2.119c0 .824-.45 1.221-1 .881s-1-1.293-1-2.118m85.5-1.382c.275 0 .5.225.5.5s-.225.5-.5.5a.5.5 0 0 1-.5-.5c0-.275.225-.5.5-.5m-127.56-8c.582 0 1.06.45 1.06 1s-.198 1-.441 1-.72-.45-1.059-1c-.34-.55-.141-.999.44-1m-2.94-1c.55 0 1 .45 1 1s-.45 1-1 1-1-.45-1-1 .45-1 1-1m60 1.107c0-1.644-2.785-1.984-4.653-.57-1.705 1.292-1.597 1.402 1.403 1.431 1.787.018 3.25-.37 3.25-.861m-45-2.107c.733 0 1.033.3.667.667a.95.95 0 0 1-1.334 0c-.366-.367-.066-.667.667-.667m-9.583.079c1.054-.043 1.644.193 1.312.525s-1.195.368-1.916.079c-.798-.319-.56-.556.604-.604m1.583-3.079c.55 0 1 .45 1 1s-.45 1-1 1-1-.45-1-1 .45-1 1-1m-8.5-1c.825 0 1.5.661 1.5 1.469 0 .894-.586 1.243-1.5.893-.825-.317-1.5-.978-1.5-1.469s.675-.893 1.5-.893m-.5-8c.55 0 1 .198 1 .441s-.45.719-1 1.059-1 .141-1-.441.45-1.059 1-1.059m200.5-6c.825 0 1.5.17 1.5.378 0 .207-.675.938-1.5 1.622-1.229 1.02-1.5.951-1.5-.378 0-.892.675-1.622 1.5-1.622m5-1c.275 0 .5.225.5.5s-.225.5-.5.5a.5.5 0 0 1-.5-.5c0-.275.225-.5.5-.5m-1.808-3.641c.54-1.409.707-1.398 1.549.107 1.058 1.89.425 3.064-1.132 2.102-.561-.349-.749-1.342-.417-2.209m-3.534-.359c0-1.375.227-1.937.504-1.25.278.688.278 1.813 0 2.5-.277.688-.504.125-.504-1.25m2.342-1c.275 0 .5.225.5.5s-.225.5-.5.5a.5.5 0 0 1-.5-.5c0-.275.225-.5.5-.5m-5.844-1.455q-.555-1.444.895-.886c1.68.645 1.794 1.01.554 1.776-.493.305-1.145-.096-1.449-.89m6.844-.545c.275 0 .5.225.5.5s-.225.5-.5.5a.5.5 0 0 1-.5-.5c0-.275.225-.5.5-.5m39.5-3c0-.733.3-1.033.667-.667a.95.95 0 0 1 0 1.334c-.367.366-.667.066-.667-.667m-6-10.441c0-1.757.6-2.015 1.457-.628.317.512.118 1.214-.441 1.56-.559.344-1.016-.075-1.016-.932M39.241 257.57c-2.373-.911-2.69-.758-2.025.975.334.87.607 1.77.607 2s.675.418 1.5.418c1.99 0 1.928-2.622-.082-3.393m255.48-5.607c1.658 0 8.149 6.113 7.54 7.101-1.492 2.413-6.742-.804-7.918-4.851-.379-1.302-.22-2.249.378-2.25m-20.398 4c-.275 0-.5.225-.5.5s.225.5.5.5.5-.225.5-.5-.225-.5-.5-.5m-6-3c-.275 0-.5.225-.5.5s.225.5.5.5.5-.225.5-.5-.225-.5-.5-.5m-1.677-3.667c-.389-2.009-2.386-2.848-3.29-1.385-.88 1.423.242 3.052 2.099 3.052.876 0 1.378-.703 1.191-1.667m2.677.667c-.275 0-.5.225-.5.5s.225.5.5.5.5-.225.5-.5-.225-.5-.5-.5m-245-17c.275 0 .5.225.5.5s-.225.5-.5.5a.5.5 0 0 1-.5-.5c0-.275.225-.5.5-.5m2 0c.275 0 .5.225.5.5s-.225.5-.5.5a.5.5 0 0 1-.5-.5c0-.275.225-.5.5-.5m4-50c-.275 0-.5.225-.5.5s.225.5.5.5.5-.225.5-.5-.225-.5-.5-.5m-4.5 0c.733 0 1.033.3.667.667a.95.95 0 0 1-1.334 0c-.366-.367-.066-.667.667-.667m-1.281-14.918c.165-2.193-1.234-3.676-2.118-2.246-.295.478.026 1.64.713 2.579 1.154 1.578 1.263 1.552 1.405-.333m1.781-2.082c-.275 0-.5.225-.5.5s.225.5.5.5.5-.225.5-.5-.225-.5-.5-.5m251.7-11.799c3.351-3.351 7.363-.019 6.367 5.289-.771 4.111-2.856 4.579-5.624 1.26-2.183-2.616-2.436-4.856-.743-6.549m-277.2 2.799c.733 0 1.033.3.667.667a.95.95 0 0 1-1.334 0c-.366-.367-.066-.667.667-.667m286.094-9c.498 0 .906.9.906 2s-.173 1.999-.383 2-.619-.9-.907-2c-.287-1.1-.115-2 .384-2m-1.594-2c.275 0 .5.225.5.5s-.225.5-.5.5a.5.5 0 0 1-.5-.5c0-.275.225-.5.5-.5m7.882-3c.275 0 .778.45 1.118 1s.393 1 .118 1-.778-.45-1.118-1-.393-1-.118-1M18.68 133.08c.195-.064.119.503-.172 1.261s0 1.909.643 2.557c.9.904.602.968-1.277.276-3.058-1.127-3.74-2.892-1.356-3.51.992-.257 1.965-.52 2.162-.584m8.81-1.45c1.116-1.117 2-.749 2 .833 0 .825-.6 1.5-1.334 1.5-1.419 0-1.77-1.229-.666-2.333m266.273.333c.582 0 1.06.45 1.06 1s-.198 1-.441 1-.719-.45-1.059-1-.141-.999.44-1m2.56 1c.275 0 .5.225.5.5s-.225.5-.5.5a.5.5 0 0 1-.5-.5c0-.275.225-.5.5-.5m-275.5-4c.55 0 1 .675 1 1.5s-.45 1.5-1 1.5-1-.675-1-1.5.45-1.5 1-1.5m282 .128c3.258-1.305 5-1.362 5-.163 0 1.749-3.891 3.196-5.763 2.142-1.557-.876-1.478-1.081.763-1.979m-288.434-3.23c3.127-1.225 4.078-.943 2.037.602-1.044.79-2.364 1.148-2.934.795-.598-.369-.218-.96.896-1.397m276.493-.898c.518 0 .941.45.941 1s-.703 1-1.56 1c-.856 0-1.28-.45-.94-1s1.041-1 1.559-1m-37.559-20c-.275 0-.5.225-.5.5s.225.5.5.5.5-.225.5-.5-.225-.5-.5-.5m-215-3c.275 0 .5.225.5.5s-.225.5-.5.5a.5.5 0 0 1-.5-.5c0-.275.225-.5.5-.5m5-1c.275 0 .5.225.5.5s-.225.5-.5.5a.5.5 0 0 1-.5-.5c0-.275.225-.5.5-.5m-11.25-5.017c1.787-1.093 3.85-1.76 4.582-1.485.732.276 2.082.538 3 .581.999.047 1.176.279.442.576-.673.272-1.452.35-1.73.17-.278-.178-1.215.687-2.081 1.925-1.028 1.467-2.602 2.25-4.52 2.25-3.852 0-3.733-1.546.307-4.017m228.25 3.017c.275 0 .5.225.5.5s-.225.5-.5.5a.5.5 0 0 1-.5-.5c0-.275.225-.5.5-.5m-218-1c.275 0 .5.225.5.5s-.225.5-.5.5a.5.5 0 0 1-.5-.5c0-.275.225-.5.5-.5m12.32-8.171c-.347-2.352-2.271-3.527-3.232-1.972-.907 1.468.44 4.143 2.089 4.143.932 0 1.346-.787 1.143-2.171m184.68-14.829c.275 0 .5.225.5.5s-.225.5-.5.5a.5.5 0 0 1-.5-.5c0-.275.225-.5.5-.5m34.5-2.004c0-.513.675-.721 1.5-.464.825.258 2.25.709 3.167 1.001 1.174.376 1.353.846.607 1.592-1.18 1.18-5.273-.473-5.274-2.129M69.807 71.213c.022-1.797-1.658-1.54-2.39.364-.392 1.023-1.345 1.423-2.606 1.093-1.092-.285-1.987-.16-1.988.278s1.195 1.099 2.655 1.466c2.667.668 4.296-.536 4.33-3.2m174.575-2.25c-.243 0-.719.45-1.059 1s-.141 1 .44 1c.582 0 1.06-.45 1.06-1s-.198-1-.441-1m-3.059-1c-.275 0-.5.225-.5.5s.225.5.5.5.5-.225.5-.5-.225-.5-.5-.5m-97.083-21.92c-1.165.047-1.402.284-.604.603.721.289 1.584.253 1.916-.08.332-.331-.258-.567-1.312-.524m37.583-2.08c-.733 0-1.033.3-.667.667a.95.95 0 0 0 1.334 0c.366-.367.066-.667-.667-.667m-34.478-9.63c-1.136-.435-1.813.026-2.198 1.5-.307 1.172-1.18 2.13-1.941 2.13-.76 0-1.383.45-1.383 1 0 1.52 2.594 1.195 4-.5.685-.825 2.288-1.5 3.563-1.5s2.597-.45 2.937-1-.272-1-1.359-1c-1.088 0-2.717-.283-3.619-.63m-8.398 2.363c-.988-.98-1.102-.865-.56.56.376.986.935 1.54 1.243 1.233s.001-1.114-.683-1.793m21.376-6.733c.275 0 .5.225.5.5s-.225.5-.5.5a.5.5 0 0 1-.5-.5c0-.275.225-.5.5-.5m45.5-1c.733 0 1.033.3.667.667a.95.95 0 0 1-1.334 0c-.366-.367-.066-.667.667-.667m5-4c.55 0 1 .198 1 .44 0 .244-.45.72-1 1.06s-1 .14-1-.441c0-.582.45-1.059 1-1.059m-34.5 0c.275 0 .5.225.5.5s-.225.5-.5.5a.5.5 0 0 1-.5-.5c0-.275.225-.5.5-.5m-3.5-6c.733 0 1.033.3.667.667a.95.95 0 0 1-1.334 0c-.366-.367-.066-.667.667-.667m1-3c0-.733.3-1.033.667-.667a.95.95 0 0 1 0 1.334c-.367.366-.667.066-.667-.667m35-2c.733 0 1.033.3.667.667a.95.95 0 0 1-1.334 0c-.366-.367-.066-.667.667-.667m-31.5-1c.275 0 .5.225.5.5s-.225.5-.5.5a.5.5 0 0 1-.5-.5c0-.275.225-.5.5-.5m-11-2c.275 0 .5.225.5.5s-.225.5-.5.5a.5.5 0 0 1-.5-.5c0-.275.225-.5.5-.5m9.5 0c0-.733.3-1.033.667-.667a.95.95 0 0 1 0 1.334c-.367.366-.667.066-.667-.667m-4.5-1c.275 0 .5.225.5.5s-.225.5-.5.5a.5.5 0 0 1-.5-.5c0-.275.225-.5.5-.5m-38.941-3c.243 0 .441.45.441 1s-.478 1-1.06 1c-.581 0-.78-.45-.44-1s.816-1 1.059-1m-9.559 1c.733 0 1.033.3.667.667a.95.95 0 0 1-1.334 0c-.366-.367-.066-.667.667-.667m44.381-5.652c2.929-2.519 5.619-3.082 5.619-1.177 0 1.726-3.081 4.829-4.795 4.83-.816 0-2.026.74-2.688 1.645-1.062 1.452-1.184 1.375-1.035-.65.093-1.265 1.398-3.356 2.899-4.648" data-figma-scatter="f0.51_w0.06_aj180_sj0.65_r0_s0_sw3" data-figma-scatter-ref="stroke0_239_8897_ref"/></defs></svg>