<svg xmlns="http://www.w3.org/2000/svg" xmlns:xlink="http://www.w3.org/1999/xlink" width="460" height="48" fill="none" viewBox="0 0 460 48"><path fill="#e0cea5" fill-opacity=".56" d="M36.016 2.34 1.854 11.155v3.01l6.684 12.47-6.684 15.48 128.482 3.225 183.439-3.225 135.166 3.225-11.14-12.9 20.053-18.275-8.913-11.825-111.4 4.945c-40.104-.788-132.641-1.892-181.955 0C122.315 8.317 62.01 4.418 36.016 2.34"/><use xlink:href="#a" transform="rotate(-78.64 7.564 5.987)scale(.0084)"/><use xlink:href="#a" transform="rotate(180.678 2.982 6.522)scale(.01382)"/><use xlink:href="#a" transform="rotate(51.678 -6.368 9.95)scale(.00595)"/><use xlink:href="#a" transform="rotate(84.893 -1.05 8.522)scale(.0076)"/><use xlink:href="#a" transform="rotate(200.129 4.898 4.678)scale(.00556)"/><use xlink:href="#a" transform="rotate(116.849 2.883 7.783)scale(.01074)"/><use xlink:href="#a" transform="rotate(-18.619 27.627 -21.034)scale(.011)"/><use xlink:href="#a" transform="rotate(23.828 -11.48 30.53)scale(.00636)"/><use xlink:href="#a" transform="rotate(-40.69 16.24 -10.429)scale(.01095)"/><use xlink:href="#a" transform="rotate(96.377 5.483 10.559)scale(.00939)"/><use xlink:href="#a" transform="rotate(247.664 10.96 -.423)scale(.0103)"/><use xlink:href="#a" transform="rotate(194.492 9.703 2.875)scale(.00552)"/><use xlink:href="#a" transform="rotate(-44.129 16.67 -17.461)scale(.00872)"/><use xlink:href="#a" transform="rotate(-66.472 14.56 -10.957)scale(.00562)"/><use xlink:href="#a" transform="rotate(239.877 12.973 -1.488)scale(.0122)"/><use xlink:href="#a" transform="rotate(189.77 13.07 2.965)scale(.0141)"/><use xlink:href="#a" transform="rotate(-43.392 18.335 -27.393)scale(.00614)"/><use xlink:href="#a" transform="rotate(83.096 11.719 17.215)scale(.00728)"/><use xlink:href="#a" transform="rotate(194.406 14.653 1.3)scale(.00806)"/><use xlink:href="#a" transform="rotate(93.669 14.243 15.72)scale(.01023)"/><use xlink:href="#a" transform="rotate(232.668 16.357 -4.87)scale(.00567)"/><use xlink:href="#a" transform="rotate(148.893 15.848 6.542)scale(.00655)"/><use xlink:href="#a" transform="rotate(12.069 6.873 150.088)scale(.00727)"/><use xlink:href="#a" transform="rotate(40.198 14.908 46.383)scale(.007)"/><use xlink:href="#a" transform="rotate(178.483 18.35 2.438)scale(.01046)"/><use xlink:href="#a" transform="rotate(98.488 19.662 17.333)scale(.01433)"/><use xlink:href="#a" transform="rotate(52.362 18.296 40.119)scale(.00598)"/><use xlink:href="#a" transform="rotate(64.112 19.312 32.7)scale(.0069)"/><use xlink:href="#a" transform="rotate(97.526 20.05 19.372)scale(.00578)"/><use xlink:href="#a" transform="rotate(249.957 22.348 -11.783)scale(.0114)"/><use xlink:href="#a" transform="rotate(207.345 22.59 -3.19)scale(.00622)"/><use xlink:href="#a" transform="rotate(76.582 21.426 29.702)scale(.00545)"/><use xlink:href="#a" transform="rotate(27.127 20.534 94.271)scale(.00857)"/><use xlink:href="#a" transform="rotate(176.099 24.737 3.377)scale(.01203)"/><use xlink:href="#a" transform="rotate(38.603 21.36 70.827)scale(.00554)"/><use xlink:href="#a" transform="rotate(181.841 25.654 1.829)scale(.0073)"/><use xlink:href="#a" transform="rotate(-29.17 29.094 -92.263)scale(.0143)"/><use xlink:href="#a" transform="rotate(135.282 27.983 13.669)scale(.01397)"/><use xlink:href="#a" transform="rotate(-32.498 31.985 -90.447)scale(.0123)"/><use xlink:href="#a" transform="rotate(84.563 29.016 34.075)scale(.01188)"/><use xlink:href="#a" transform="rotate(164.067 30.868 6.955)scale(.0107)"/><use xlink:href="#a" transform="rotate(-48.49 34.728 -64.407)scale(.00814)"/><use xlink:href="#a" transform="rotate(-79.893 34.162 -33.427)scale(.01303)"/><use xlink:href="#a" transform="rotate(-85.814 35.073 -31.457)scale(.00826)"/><use xlink:href="#a" transform="rotate(33.616 30.284 111.004)scale(.01155)"/><use xlink:href="#a" transform="rotate(-19.297 42.726 -193.462)scale(.01307)"/><use xlink:href="#a" transform="rotate(124.943 34.949 21.032)scale(.00655)"/><use xlink:href="#a" transform="rotate(83.62 34.883 42.632)scale(.00924)"/><use xlink:href="#a" transform="rotate(145.305 37.716 14.941)scale(.0143)"/><use xlink:href="#a" transform="rotate(83.676 37.045 44.926)scale(.01064)"/><use xlink:href="#a" transform="rotate(-75.348 41.945 -46.363)scale(.00604)"/><use xlink:href="#a" transform="rotate(-77.386 42.444 -44.514)scale(.0113)"/><use xlink:href="#a" transform="rotate(165.302 41.181 8.832)scale(.01219)"/><use xlink:href="#a" transform="rotate(73.943 39.203 57.368)scale(.00838)"/><use xlink:href="#a" transform="rotate(-88.881 44.909 -38.19)scale(.01152)"/><use xlink:href="#a" transform="rotate(8.184 17.138 592.974)scale(.01025)"/><use xlink:href="#a" transform="rotate(132.003 43.99 22.965)scale(.01151)"/><use xlink:href="#a" transform="rotate(28.115 36.412 179.538)scale(.00775)"/><use xlink:href="#a" transform="rotate(250.071 47.43 -28.025)scale(.00593)"/><use xlink:href="#a" transform="rotate(55.444 42.577 89.723)scale(.01005)"/><use xlink:href="#a" transform="rotate(28.727 38.198 183.437)scale(.00729)"/><use xlink:href="#a" transform="rotate(247.198 49.479 -27.343)scale(.0069)"/><use xlink:href="#a" transform="rotate(14.78 33.899 366.657)scale(.01299)"/><use xlink:href="#a" transform="rotate(78.545 47.047 62.982)scale(.01027)"/><use xlink:href="#a" transform="rotate(191.267 50.59 -1.124)scale(.00704)"/><use xlink:href="#a" transform="rotate(-90.773 53.483 -45.274)scale(.0078)"/><use xlink:href="#a" transform="rotate(215.157 52.521 -12.121)scale(.00852)"/><use xlink:href="#a" transform="rotate(115.566 51.487 36.347)scale(.01204)"/><use xlink:href="#a" transform="rotate(95.767 50.635 50.908)scale(.00579)"/><use xlink:href="#a" transform="rotate(248.002 55.857 -31.166)scale(.0104)"/><use xlink:href="#a" transform="rotate(193.016 55.401 -1.882)scale(.0111)"/><use xlink:href="#a" transform="rotate(-76.812 59.168 -63.97)scale(.01213)"/><use xlink:href="#a" transform="rotate(-46.473 63.117 -125.101)scale(.00691)"/><use xlink:href="#a" transform="rotate(50.066 51.217 123.92)scale(.00766)"/><use xlink:href="#a" transform="rotate(93.187 54.857 57.608)scale(.00622)"/><use xlink:href="#a" transform="rotate(35.363 51.445 183.115)scale(.0132)"/><use xlink:href="#a" transform="rotate(212.526 60.85 -12.318)scale(.01323)"/><use xlink:href="#a" transform="rotate(159.186 60.718 15.484)scale(.0126)"/><use xlink:href="#a" transform="rotate(.472 -671.423 14670.596)scale(.00622)"/><use xlink:href="#a" transform="rotate(-5.249 126.85 -1324.683)scale(.00713)"/><use xlink:href="#a" transform="rotate(78.289 59.958 79.823)scale(.01106)"/><use xlink:href="#a" transform="rotate(208.014 65.029 -10.662)scale(.0137)"/><use xlink:href="#a" transform="rotate(174.44 65.148 7.619)scale(.01153)"/><use xlink:href="#a" transform="rotate(180.951 66.102 3.998)scale(.01032)"/><use xlink:href="#a" transform="rotate(179.788 66.843 4.599)scale(.00955)"/><use xlink:href="#a" transform="rotate(-69.663 71.71 -90.673)scale(.0086)"/><use xlink:href="#a" transform="rotate(183.265 68.545 2.664)scale(.01042)"/><use xlink:href="#a" transform="rotate(26.71 58.136 289.338)scale(.01247)"/><use xlink:href="#a" transform="rotate(-30.268 81.423 -249.84)scale(.008)"/><use xlink:href="#a" transform="rotate(188.659 71.583 -.336)scale(.01318)"/><use xlink:href="#a" transform="rotate(104.998 69.278 58.477)scale(.00695)"/><use xlink:href="#a" transform="rotate(48.579 64.9 162.056)scale(.00616)"/><use xlink:href="#a" transform="rotate(242.184 74.63 -39.007)scale(.00582)"/><use xlink:href="#a" transform="rotate(241.185 75.591 -37.686)scale(.0127)"/><use xlink:href="#a" transform="rotate(-57.668 80.05 -128.604)scale(.00736)"/><use xlink:href="#a" transform="rotate(-59.377 80.12 -124.158)scale(.01415)"/><use xlink:href="#a" transform="rotate(72.965 72.104 105.634)scale(.0073)"/><use xlink:href="#a" transform="rotate(6.65 32.588 1301.988)scale(.01332)"/><use xlink:href="#a" transform="rotate(198.061 78.288 -7.923)scale(.00632)"/><use xlink:href="#a" transform="rotate(251.719 80.617 -51.564)scale(.00671)"/><use xlink:href="#a" transform="rotate(-84.874 82.244 -80.84)scale(.00722)"/><use xlink:href="#a" transform="rotate(60.19 74.653 139.506)scale(.00861)"/><use xlink:href="#a" transform="rotate(244.89 82.02 -46.307)scale(.00585)"/><use xlink:href="#a" transform="rotate(34.793 72.14 258.063)scale(.00912)"/><use xlink:href="#a" transform="rotate(209.953 82.656 -17.036)scale(.01088)"/><use xlink:href="#a" transform="rotate(167.064 82.114 13.307)scale(.00739)"/><use xlink:href="#a" transform="rotate(-92.72 85.825 -73.962)scale(.00692)"/><use xlink:href="#a" transform="rotate(30.789 73.487 303.385)scale(.00723)"/><use xlink:href="#a" transform="rotate(92.54 82.002 83.676)scale(.01003)"/><use xlink:href="#a" transform="rotate(-59.486 89.991 -142.632)scale(.0079)"/><use xlink:href="#a" transform="rotate(53.095 80.481 173.296)scale(.00902)"/><use xlink:href="#a" transform="rotate(203.433 87.689 -13.062)scale(.01324)"/><use xlink:href="#a" transform="rotate(31.444 78.816 310.676)scale(.00971)"/><use xlink:href="#a" transform="rotate(179.397 88.254 4.337)scale(.00637)"/><use xlink:href="#a" transform="rotate(-46.82 95.356 -198.95)scale(.0056)"/><use xlink:href="#a" transform="rotate(136.65 88.303 38.92)scale(.00721)"/><use xlink:href="#a" transform="rotate(68.799 86.028 133.545)scale(.00709)"/><use xlink:href="#a" transform="rotate(221.393 92.023 -29.37)scale(.01203)"/><use xlink:href="#a" transform="rotate(-58.517 96.436 -157.559)scale(.00629)"/><use xlink:href="#a" transform="rotate(-.74 533.339 -14085.26)scale(.00562)"/><use xlink:href="#a" transform="rotate(235.996 94.349 -44.168)scale(.01149)"/><use xlink:href="#a" transform="rotate(-51.912 98.583 -184.67)scale(.01422)"/><use xlink:href="#a" transform="rotate(128.864 93.347 48.504)scale(.00659)"/><use xlink:href="#a" transform="rotate(168.555 95.766 13.733)scale(.01324)"/><use xlink:href="#a" transform="rotate(-40.485 103.42 -254.495)scale(.00607)"/><use xlink:href="#a" transform="rotate(-19.641 112.568 -549.285)scale(.00581)"/><use xlink:href="#a" transform="rotate(-18.685 111.118 -579.154)scale(.01195)"/><use xlink:href="#a" transform="rotate(203.782 99.292 -16.247)scale(.01112)"/><use xlink:href="#a" transform="rotate(-68.042 103.037 -141.086)scale(.01023)"/><use xlink:href="#a" transform="rotate(18.91 85.423 597.62)scale(.00827)"/><use xlink:href="#a" transform="rotate(224.975 101.957 -37.338)scale(.00829)"/><use xlink:href="#a" transform="rotate(219.735 103.085 -31.783)scale(.01468)"/><use xlink:href="#a" transform="rotate(-37.188 110.082 -297.89)scale(.00805)"/><use xlink:href="#a" transform="rotate(39.148 96.208 291.22)scale(.00758)"/><use xlink:href="#a" transform="rotate(177.431 103.76 5.92)scale(.0057)"/><use xlink:href="#a" transform="rotate(49.544 99.285 227.662)scale(.00869)"/><use xlink:href="#a" transform="rotate(5.17 61.224 2302.29)scale(.014)"/><use xlink:href="#a" transform="rotate(73.532 104.748 144.674)scale(.01432)"/><use xlink:href="#a" transform="rotate(96.631 105.575 98.583)scale(.00873)"/><use xlink:href="#a" transform="rotate(6.136 59.196 2002.946)scale(.00574)"/><use xlink:href="#a" transform="rotate(237.045 110.162 -54.692)scale(.00701)"/><use xlink:href="#a" transform="rotate(-63.874 113.378 -169.023)scale(.01242)"/><use xlink:href="#a" transform="rotate(197.411 110.622 -13.072)scale(.00577)"/><use xlink:href="#a" transform="rotate(-58.163 115.325 -193.717)scale(.00614)"/><use xlink:href="#a" transform="rotate(93.046 108.684 108.118)scale(.00558)"/><use xlink:href="#a" transform="rotate(-17.776 126.143 -701.88)scale(.01302)"/><use xlink:href="#a" transform="rotate(19.935 99.277 639.426)scale(.00867)"/><use xlink:href="#a" transform="rotate(-86.554 116.306 -115.819)scale(.0064)"/><use xlink:href="#a" transform="rotate(101.418 113.246 96.515)scale(.01316)"/><use xlink:href="#a" transform="rotate(-95.822 117.893 -98.584)scale(.01283)"/><use xlink:href="#a" transform="rotate(-6.105 156.016 -2152.647)scale(.01143)"/><use xlink:href="#a" transform="rotate(251.137 119.446 -78.69)scale(.01323)"/><use xlink:href="#a" transform="rotate(113.939 116.477 79.87)scale(.00566)"/><use xlink:href="#a" transform="rotate(103.726 117.798 96.332)scale(.0118)"/><use xlink:href="#a" transform="rotate(164.073 119.374 20.245)scale(.00624)"/><use xlink:href="#a" transform="rotate(-81.414 123.5 -134.013)scale(.01315)"/><use xlink:href="#a" transform="rotate(172.982 122.05 11.653)scale(.01297)"/><use xlink:href="#a" transform="rotate(77.655 121.193 154.745)scale(.01474)"/><use xlink:href="#a" transform="rotate(189.606 124.604 -6.11)scale(.01248)"/><use xlink:href="#a" transform="rotate(171.707 125.063 12.946)scale(.0105)"/><use xlink:href="#a" transform="rotate(37.247 117.616 373.267)scale(.00556)"/><use xlink:href="#a" transform="rotate(-67.353 129.98 -184.037)scale(.00565)"/><use xlink:href="#a" transform="rotate(120.617 126.217 75.739)scale(.01353)"/><use xlink:href="#a" transform="rotate(-13.535 149.362 -1063.171)scale(.00662)"/><use xlink:href="#a" transform="rotate(51.911 122.504 264.985)scale(.00578)"/><use xlink:href="#a" transform="rotate(176.089 129.352 8.627)scale(.01242)"/><use xlink:href="#a" transform="rotate(3.811 66.349 3864.721)scale(.01225)"/><use xlink:href="#a" transform="rotate(195.459 131.724 -13.402)scale(.01197)"/><use xlink:href="#a" transform="rotate(-25.584 141.956 -570.517)scale(.01184)"/><use xlink:href="#a" transform="rotate(169.402 133.339 16.402)scale(.01291)"/><use xlink:href="#a" transform="rotate(-53.785 139.088 -258.17)scale(.00553)"/><use xlink:href="#a" transform="rotate(-38.39 141.982 -378.794)scale(.0068)"/><use xlink:href="#a" transform="matrix(-.00894 0 0 -.00894 270.277 8.018)"/><use xlink:href="#a" transform="rotate(125.437 135.21 73.53)scale(.01256)"/><use xlink:href="#a" transform="rotate(42.343 130.983 353.748)scale(.0104)"/><use xlink:href="#a" transform="rotate(-3.202 233.374 -4878.193)scale(.0059)"/><use xlink:href="#a" transform="rotate(82.797 135.12 159.04)scale(.00696)"/><use xlink:href="#a" transform="rotate(87.191 136.928 148.524)scale(.0125)"/><use xlink:href="#a" transform="rotate(117.262 138.203 88.373)scale(.00796)"/><use xlink:href="#a" transform="rotate(15.798 120.214 1007.366)scale(.00553)"/><use xlink:href="#a" transform="rotate(92.62 137.99 137.128)scale(.0055)"/><use xlink:href="#a" transform="rotate(-73.762 144.742 -183.024)scale(.00635)"/><use xlink:href="#a" transform="rotate(225.591 143.19 -54.919)scale(.01006)"/><use xlink:href="#a" transform="rotate(-13.86 161.398 -1158.243)scale(.01169)"/><use xlink:href="#a" transform="rotate(41.118 136.435 383.669)scale(.00698)"/><use xlink:href="#a" transform="rotate(-51.972 149.572 -288.92)scale(.01071)"/><use xlink:href="#a" transform="rotate(253.415 147.217 -103.206)scale(.00845)"/><use xlink:href="#a" transform="rotate(199.896 146.298 -21.403)scale(.00739)"/><use xlink:href="#a" transform="rotate(216.055 147.947 -42.681)scale(.01397)"/><use xlink:href="#a" transform="rotate(117.431 146.856 93.2)scale(.01257)"/><use xlink:href="#a" transform="rotate(-62.822 153.158 -237.683)scale(.0059)"/><use xlink:href="#a" transform="rotate(182.65 149.186 .562)scale(.00727)"/><use xlink:href="#a" transform="rotate(215.973 150.691 -44.168)scale(.00798)"/><use xlink:href="#a" transform="rotate(219.186 151.312 -49.216)scale(.00682)"/><use xlink:href="#a" transform="rotate(26.971 140.66 628.312)scale(.0099)"/><use xlink:href="#a" transform="rotate(236.671 153.308 -77.187)scale(.0077)"/><use xlink:href="#a" transform="rotate(208.935 153.165 -34.976)scale(.00745)"/><use xlink:href="#a" transform="rotate(185.872 153.005 -3.868)scale(.0058)"/><use xlink:href="#a" transform="rotate(-98.026 156.085 -128.08)scale(.00936)"/><use xlink:href="#a" transform="rotate(-97.089 156.944 -130.852)scale(.01056)"/><use xlink:href="#a" transform="rotate(139.729 154.066 60.343)scale(.00647)"/><use xlink:href="#a" transform="rotate(-58.269 160.691 -273.198)scale(.00762)"/><use xlink:href="#a" transform="rotate(208.005 156.915 -34.753)scale(.0057)"/><use xlink:href="#a" transform="rotate(216.242 157.756 -46.934)scale(.00737)"/><use xlink:href="#a" transform="rotate(144.033 157.44 55.125)scale(.01319)"/><use xlink:href="#a" transform="rotate(5.725 110.963 3147.284)scale(.01245)"/><use xlink:href="#a" transform="rotate(60.958 154.792 273.174)scale(.00726)"/><use xlink:href="#a" transform="rotate(-64.876 164.804 -245.403)scale(.0113)"/><use xlink:href="#a" transform="rotate(255.834 163.492 -120.283)scale(.00843)"/><use xlink:href="#a" transform="rotate(85.31 160.11 178.858)scale(.0144)"/><use xlink:href="#a" transform="rotate(204.097 163.732 -30.349)scale(.00818)"/><use xlink:href="#a" transform="rotate(-46.645 170.592 -372.939)scale(.00654)"/><use xlink:href="#a" transform="rotate(45.404 158.283 393.972)scale(.01096)"/><use xlink:href="#a" transform="rotate(47.502 159.871 376.733)scale(.0115)"/><use xlink:href="#a" transform="rotate(25.481 154.177 733.456)scale(.00964)"/><use xlink:href="#a" transform="rotate(-83.441 170.305 -181.378)scale(.01001)"/><use xlink:href="#a" transform="rotate(135.783 166.681 71.99)scale(.00826)"/><use xlink:href="#a" transform="rotate(115.829 166.377 109.102)scale(.0064)"/><use xlink:href="#a" transform="rotate(106.588 166.472 129.166)scale(.00555)"/><use xlink:href="#a" transform="rotate(-32.2 179.053 -577.848)scale(.01116)"/><use xlink:href="#a" transform="rotate(234.848 171.984 -83.494)scale(.0086)"/><use xlink:href="#a" transform="rotate(96.639 168.21 155.459)scale(.00637)"/><use xlink:href="#a" transform="rotate(248.21 173.494 -111.422)scale(.00547)"/><use xlink:href="#a" transform="rotate(86.083 170.447 187.3)scale(.01398)"/><use xlink:href="#a" transform="rotate(-60.028 178.076 -293.427)scale(.00943)"/><use xlink:href="#a" transform="rotate(-89.908 176.953 -168.715)scale(.00996)"/><use xlink:href="#a" transform="rotate(195.974 175.888 -19.89)scale(.0133)"/><use xlink:href="#a" transform="rotate(4.8 118.794 4170.196)scale(.01099)"/><use xlink:href="#a" transform="rotate(-40.639 183.689 -470.163)scale(.00938)"/><use xlink:href="#a" transform="rotate(-30.181 187.648 -650.682)scale(.0065)"/><use xlink:href="#a" transform="rotate(80.567 176.213 212.755)scale(.01197)"/><use xlink:href="#a" transform="rotate(-73.464 182.774 -233.953)scale(.01238)"/><use xlink:href="#a" transform="rotate(67.653 175.95 270.942)scale(.00582)"/><use xlink:href="#a" transform="rotate(57.055 176.35 333.884)scale(.00784)"/><use xlink:href="#a" transform="rotate(222.127 182.784 -65.102)scale(.01215)"/><use xlink:href="#a" transform="rotate(-72.991 185.66 -241.26)scale(.00684)"/><use xlink:href="#a" transform="rotate(104.239 181.424 145.16)scale(.00944)"/><use xlink:href="#a" transform="rotate(129.45 182.3 89.65)scale(.00551)"/><use xlink:href="#a" transform="rotate(107.929 183.113 136.877)scale(.01085)"/><use xlink:href="#a" transform="rotate(244.501 186.805 -112.062)scale(.01093)"/><use xlink:href="#a" transform="rotate(35.25 181.573 584.787)scale(.01396)"/><use xlink:href="#a" transform="rotate(-99.746 189.027 -153.308)scale(.00674)"/><use xlink:href="#a" transform="rotate(193.925 188.327 -19.127)scale(.01055)"/><use xlink:href="#a" transform="rotate(75.57 186.43 245.157)scale(.00997)"/><use xlink:href="#a" transform="rotate(110.08 188.568 135.258)scale(.0112)"/><use xlink:href="#a" transform="rotate(-42.934 195.593 -477.353)scale(.0089)"/><use xlink:href="#a" transform="rotate(168.147 190.647 22.856)scale(.00563)"/><use xlink:href="#a" transform="rotate(222.711 192.785 -70.656)scale(.01184)"/><use xlink:href="#a" transform="rotate(191.19 193.374 -15.038)scale(.0129)"/><use xlink:href="#a" transform="rotate(-37.034 199.271 -570.67)scale(.01026)"/><use xlink:href="#a" transform="rotate(120.358 193.741 113.979)scale(.00932)"/><use xlink:href="#a" transform="rotate(161.672 195.457 34.65)scale(.01108)"/><use xlink:href="#a" transform="rotate(-74.235 198.609 -254.589)scale(.00704)"/><use xlink:href="#a" transform="rotate(72.885 194.048 267.904)scale(.0066)"/><use xlink:href="#a" transform="rotate(-84.019 199.306 -214.316)scale(.0109)"/><use xlink:href="#a" transform="rotate(194.889 198.433 -22.809)scale(.00743)"/><use xlink:href="#a" transform="rotate(83.092 196.585 225.91)scale(.006)"/><use xlink:href="#a" transform="rotate(242.594 200.368 -117.495)scale(.00762)"/><use xlink:href="#a" transform="rotate(62.21 198.357 332.322)scale(.01144)"/><use xlink:href="#a" transform="rotate(210.249 201.395 -51.038)scale(.00767)"/><use xlink:href="#a" transform="rotate(-87.11 203.113 -208.054)scale(.00664)"/><use xlink:href="#a" transform="rotate(121.07 202.066 116.582)scale(.0123)"/><use xlink:href="#a" transform="rotate(-14.48 211.388 -1584.046)scale(.01404)"/><use xlink:href="#a" transform="rotate(224.342 205.291 -79.567)scale(.01148)"/><use xlink:href="#a" transform="rotate(123.532 205.108 112.501)scale(.01122)"/><use xlink:href="#a" transform="rotate(9.166 195.539 2557.227)scale(.01386)"/><use xlink:href="#a" transform="rotate(-82.635 208.949 -231.823)scale(.0075)"/><use xlink:href="#a" transform="rotate(209.51 208.41 -51.839)scale(.00857)"/><use xlink:href="#a" transform="rotate(112.027 208.517 142.578)scale(.01125)"/><use xlink:href="#a" transform="rotate(59.458 207.17 367.433)scale(.00656)"/><use xlink:href="#a" transform="rotate(-37.448 213.982 -614.344)scale(.00567)"/><use xlink:href="#a" transform="rotate(165.711 210.272 28.534)scale(.00586)"/><use xlink:href="#a" transform="rotate(-73.151 212.8 -280.332)scale(.00797)"/><use xlink:href="#a" transform="rotate(-28.165 216.32 -837.168)scale(.00687)"/><use xlink:href="#a" transform="rotate(-97.228 213.21 -183.939)scale(.0057)"/><use xlink:href="#a" transform="rotate(111 211.932 147.714)scale(.0066)"/><use xlink:href="#a" transform="rotate(-53.495 215.538 -418.543)scale(.0079)"/><use xlink:href="#a" transform="rotate(43.015 212.844 542.319)scale(.0121)"/><use xlink:href="#a" transform="rotate(12.186 203.298 2005.982)scale(.00546)"/><use xlink:href="#a" transform="rotate(172.414 215.609 16.498)scale(.00883)"/><use xlink:href="#a" transform="rotate(87.552 216.826 226.791)scale(.01452)"/><use xlink:href="#a" transform="rotate(255.655 218.38 -165.248)scale(.01183)"/><use xlink:href="#a" transform="rotate(139.513 217.81 82.028)scale(.00545)"/><use xlink:href="#a" transform="rotate(-21.125 221.812 -1163.85)scale(.01193)"/><use xlink:href="#a" transform="rotate(81.682 218.593 254.904)scale(.00575)"/><use xlink:href="#a" transform="rotate(-82.436 221.417 -247.44)scale(.01247)"/><use xlink:href="#a" transform="rotate(240.443 222.307 -125.56)scale(.01439)"/><use xlink:href="#a" transform="rotate(206.015 222.782 -49.21)scale(.00803)"/><use xlink:href="#a" transform="rotate(140.586 222.808 81.406)scale(.00623)"/><use xlink:href="#a" transform="rotate(.554 206.809 46006.323)scale(.01276)"/><use xlink:href="#a" transform="rotate(210.879 225.397 -59.512)scale(.01136)"/><use xlink:href="#a" transform="rotate(-52.229 227.703 -455.53)scale(.00676)"/><use xlink:href="#a" transform="rotate(239.393 227.299 -124.256)scale(.0147)"/><use xlink:href="#a" transform="rotate(112.62 225.412 154.308)scale(.01119)"/><use xlink:href="#a" transform="rotate(92.88 225.037 219.766)scale(.0139)"/><use xlink:href="#a" transform="rotate(-30.348 243.496 -830.414)scale(.00598)"/><use xlink:href="#a" transform="rotate(141.529 226.552 84.982)scale(.00724)"/><use xlink:href="#a" transform="rotate(144.918 227.034 78.274)scale(.0086)"/><use xlink:href="#a" transform="rotate(233.137 231.69 -107.219)scale(.00629)"/><use xlink:href="#a" transform="rotate(232.611 232.555 -104.728)scale(.01172)"/><use xlink:href="#a" transform="rotate(44.823 213.187 560.341)scale(.00973)"/><use xlink:href="#a" transform="rotate(-18.876 271.992 -1357.262)scale(.00986)"/><use xlink:href="#a" transform="rotate(169.326 227.157 30.169)scale(.0059)"/><use xlink:href="#a" transform="rotate(-80.606 237.46 -257.94)scale(.00552)"/><use xlink:href="#a" transform="rotate(-55.34 243.615 -421.303)scale(.00763)"/><use xlink:href="#a" transform="rotate(-83.117 236.894 -243.365)scale(.01117)"/><use xlink:href="#a" transform="rotate(145.804 223.362 80.257)scale(.00992)"/><use xlink:href="#a" transform="rotate(232.739 230.535 -99.378)scale(.0101)"/><use xlink:href="#a" transform="rotate(-24.01 274.672 -1038.436)scale(.00952)"/><use xlink:href="#a" transform="rotate(108.524 216.75 173.291)scale(.0133)"/><use xlink:href="#a" transform="rotate(62.745 204.816 377.325)scale(.01467)"/><use xlink:href="#a" transform="rotate(36.923 184.048 677.287)scale(.00682)"/><use xlink:href="#a" transform="rotate(188.784 223.31 -2.088)scale(.01148)"/><use xlink:href="#a" transform="rotate(146.136 217.123 81.974)scale(.00617)"/><use xlink:href="#a" transform="rotate(182.036 221.252 11.34)scale(.00564)"/><use xlink:href="#a" transform="rotate(-42.803 257.232 -542.984)scale(.01062)"/><use xlink:href="#a" transform="rotate(104.308 208.355 186.417)scale(.00758)"/><use xlink:href="#a" transform="rotate(-14.83 338.103 -1658.995)scale(.0098)"/><use xlink:href="#a" transform="rotate(97.142 206.687 210.793)scale(.01302)"/><use xlink:href="#a" transform="rotate(33.41 165.689 748.956)scale(.0133)"/><use xlink:href="#a" transform="rotate(-90.526 239.405 -198.084)scale(.01417)"/><use xlink:href="#a" transform="rotate(47.425 180.948 522.841)scale(.01378)"/><use xlink:href="#a" transform="rotate(-17.463 348.48 -1419.601)scale(.01438)"/><use xlink:href="#a" transform="rotate(232.663 233.738 -88.63)scale(.00623)"/><use xlink:href="#a" transform="rotate(139.279 217.181 105.484)scale(.01466)"/><use xlink:href="#a" transform="rotate(156.676 220.718 69.423)scale(.01017)"/><use xlink:href="#a" transform="rotate(210.257 230.56 -37.143)scale(.00684)"/><use xlink:href="#a" transform="rotate(-53.368 268.131 -420.273)scale(.00653)"/><use xlink:href="#a" transform="rotate(-20.192 347.304 -1225.882)scale(.00648)"/><use xlink:href="#a" transform="rotate(226.648 232.456 -71.654)scale(.01258)"/><use xlink:href="#a" transform="rotate(109.398 206.752 179.471)scale(.0116)"/><use xlink:href="#a" transform="rotate(195.732 224.175 -6.433)scale(.0146)"/><use xlink:href="#a" transform="rotate(-36.995 284.303 -627.983)scale(.01185)"/><use xlink:href="#a" transform="rotate(58.337 179.257 413.004)scale(.00696)"/><use xlink:href="#a" transform="rotate(149.242 212.052 82.824)scale(.00644)"/><use xlink:href="#a" transform="rotate(203.307 222.27 -20.839)scale(.01328)"/><use xlink:href="#a" transform="rotate(191.81 218.848 1.089)scale(.00967)"/><use xlink:href="#a" transform="rotate(-42.422 271.86 -529.724)scale(.0073)"/><use xlink:href="#a" transform="rotate(223.311 223.764 -61.878)scale(.00733)"/><use xlink:href="#a" transform="rotate(23.818 110.409 1035.197)scale(.00572)"/><use xlink:href="#a" transform="rotate(155.35 209.145 69.42)scale(.00554)"/><use xlink:href="#a" transform="rotate(-2.793 1105.485 -8686.771)scale(.00752)"/><use xlink:href="#a" transform="rotate(74.926 185.463 298.828)scale(.0143)"/><use xlink:href="#a" transform="rotate(169.939 209.747 41.44)scale(.00589)"/><use xlink:href="#a" transform="rotate(-9.816 464.484 -2422.859)scale(.0075)"/><use xlink:href="#a" transform="rotate(-73.909 239.003 -253.63)scale(.01451)"/><use xlink:href="#a" transform="rotate(236.642 221.129 -89.096)scale(.00821)"/><use xlink:href="#a" transform="rotate(253.314 224.843 -131.431)scale(.00798)"/><use xlink:href="#a" transform="rotate(246.148 222.176 -111.404)scale(.00956)"/><use xlink:href="#a" transform="rotate(-42.201 262.943 -510.3)scale(.00948)"/><use xlink:href="#a" transform="rotate(213.851 213.035 -39.7)scale(.00738)"/><use xlink:href="#a" transform="rotate(-80.852 230.973 -216.952)scale(.00985)"/><use xlink:href="#a" transform="rotate(5.34 -258.87 4395.475)scale(.00653)"/><use xlink:href="#a" transform="rotate(194.323 207.177 -2.853)scale(.0061)"/><use xlink:href="#a" transform="rotate(73.978 175.32 292.043)scale(.00714)"/><use xlink:href="#a" transform="rotate(91.843 182.337 218.65)scale(.00593)"/><use xlink:href="#a" transform="rotate(222.515 211.339 -54.794)scale(.01413)"/><use xlink:href="#a" transform="rotate(-13.244 388.216 -1705.847)scale(.00623)"/><use xlink:href="#a" transform="rotate(47.534 152.537 476.832)scale(.00767)"/><use xlink:href="#a" transform="rotate(119.006 188.559 140.142)scale(.01403)"/><use xlink:href="#a" transform="rotate(-60.829 235.883 -314.977)scale(.0074)"/><use xlink:href="#a" transform="rotate(177.716 198.508 26.95)scale(.01094)"/><use xlink:href="#a" transform="rotate(145.243 191.073 84.113)scale(.00573)"/><use xlink:href="#a" transform="rotate(78.023 171.192 264.747)scale(.0094)"/><use xlink:href="#a" transform="rotate(98.683 178.05 190.506)scale(.00566)"/><use xlink:href="#a" transform="rotate(-35.396 263.042 -587.713)scale(.00852)"/><use xlink:href="#a" transform="rotate(23.277 92.643 964.239)scale(.0102)"/><use xlink:href="#a" transform="rotate(-94.224 214.391 -157.296)scale(.00646)"/><use xlink:href="#a" transform="rotate(249.385 208.658 -109.982)scale(.01344)"/><use xlink:href="#a" transform="rotate(16.685 51.743 1325.418)scale(.0134)"/><use xlink:href="#a" transform="rotate(75.29 164.552 269.477)scale(.00996)"/><use xlink:href="#a" transform="rotate(234.884 202.05 -76.152)scale(.00648)"/><use xlink:href="#a" transform="rotate(67.688 158.688 304.751)scale(.00706)"/><use xlink:href="#a" transform="rotate(252 205.261 -114.366)scale(.00872)"/><use xlink:href="#a" transform="rotate(121.268 177.7 128.21)scale(.01272)"/><use xlink:href="#a" transform="rotate(97.402 170.13 186.381)scale(.0126)"/><use xlink:href="#a" transform="rotate(39 127.019 547.451)scale(.00605)"/><use xlink:href="#a" transform="rotate(-95.345 205.587 -145.394)scale(.0126)"/><use xlink:href="#a" transform="rotate(7.87 -122.475 2703.391)scale(.00625)"/><use xlink:href="#a" transform="rotate(180.319 185.003 21.728)scale(.00707)"/><use xlink:href="#a" transform="rotate(-26.765 270.917 -743.958)scale(.01344)"/><use xlink:href="#a" transform="rotate(56.703 143.927 359.895)scale(.0055)"/><use xlink:href="#a" transform="rotate(96.57 164.332 184.128)scale(.0105)"/><use xlink:href="#a" transform="rotate(218.79 189.35 -40.794)scale(.01233)"/><use xlink:href="#a" transform="rotate(184.64 181.701 14.92)scale(.00628)"/><use xlink:href="#a" transform="rotate(83.65 156.739 222.533)scale(.00661)"/><use xlink:href="#a" transform="rotate(238.643 191.581 -78.254)scale(.0067)"/><use xlink:href="#a" transform="rotate(166.488 176.745 43.329)scale(.00697)"/><use xlink:href="#a" transform="rotate(214.278 185.224 -31.82)scale(.01333)"/><use xlink:href="#a" transform="rotate(134.217 169.234 96.869)scale(.01418)"/><use xlink:href="#a" transform="rotate(144.285 169.741 78.658)scale(.00878)"/><use xlink:href="#a" transform="rotate(190.138 177.656 7.008)scale(.01204)"/><use xlink:href="#a" transform="rotate(142.35 167.787 81.392)scale(.01101)"/><use xlink:href="#a" transform="rotate(222.799 181.938 -45.272)scale(.00895)"/><use xlink:href="#a" transform="rotate(1.484 -1382.96 13218.006)scale(.01446)"/><use xlink:href="#a" transform="rotate(193.425 174.423 2.487)scale(.01388)"/><use xlink:href="#a" transform="rotate(40.227 115.639 483.069)scale(.01357)"/><use xlink:href="#a" transform="rotate(18.947 44.105 1031.781)scale(.00552)"/><use xlink:href="#a" transform="rotate(108.402 154.163 142.92)scale(.00738)"/><use xlink:href="#a" transform="rotate(18.624 40.974 1042.919)scale(.00577)"/><use xlink:href="#a" transform="rotate(162.785 164.789 47.032)scale(.00656)"/><use xlink:href="#a" transform="rotate(40.617 111.312 471.084)scale(.0073)"/><use xlink:href="#a" transform="rotate(-.874 2885.722 -21714.721)scale(.0063)"/><use xlink:href="#a" transform="rotate(198.981 169.878 -5.077)scale(.0131)"/><use xlink:href="#a" transform="rotate(-73.784 192.327 -195.536)scale(.01174)"/><use xlink:href="#a" transform="rotate(32.327 92.524 584.734)scale(.00597)"/><use xlink:href="#a" transform="rotate(-69.03 193.797 -214.669)scale(.00649)"/><use xlink:href="#a" transform="rotate(134.951 154.53 89.005)scale(.00634)"/><use xlink:href="#a" transform="rotate(-91.603 182.37 -133.78)scale(.01418)"/><use xlink:href="#a" transform="rotate(128.814 151.451 98.57)scale(.00575)"/><use xlink:href="#a" transform="rotate(-70.012 189.916 -205.047)scale(.0124)"/><use xlink:href="#a" transform="rotate(45.943 111.59 396.294)scale(.00678)"/><use xlink:href="#a" transform="rotate(231.541 169.302 -53.603)scale(.01419)"/><use xlink:href="#a" transform="rotate(234.231 168.665 -58.225)scale(.01067)"/><use xlink:href="#a" transform="rotate(57.483 119.885 306.446)scale(.00641)"/><use xlink:href="#a" transform="rotate(210.78 162.417 -21.008)scale(.00914)"/><use xlink:href="#a" transform="rotate(95.934 137.607 161.28)scale(.008)"/><use xlink:href="#a" transform="rotate(36.584 93.501 488.05)scale(.00715)"/><use xlink:href="#a" transform="rotate(-18.855 274.68 -896.958)scale(.01477)"/><use xlink:href="#a" transform="rotate(22.03 48.073 804.563)scale(.00677)"/><use xlink:href="#a" transform="rotate(-62.93 186.658 -226.793)scale(.00548)"/><use xlink:href="#a" transform="rotate(18.882 32.05 928.14)scale(.01276)"/><use xlink:href="#a" transform="rotate(-36.096 213.3 -436.124)scale(.0141)"/><use xlink:href="#a" transform="rotate(243.81 163.119 -70.69)scale(.00877)"/><use xlink:href="#a" transform="rotate(39.225 92.179 437.663)scale(.00927)"/><use xlink:href="#a" transform="rotate(144.619 142.4 68.943)scale(.01002)"/><use xlink:href="#a" transform="rotate(50.802 104.177 331.129)scale(.00594)"/><use xlink:href="#a" transform="rotate(126.367 136.934 95.793)scale(.00654)"/><use xlink:href="#a" transform="rotate(-14.445 306.789 -1122.722)scale(.01217)"/><use xlink:href="#a" transform="rotate(-15.85 294.716 -1019.425)scale(.00544)"/><use xlink:href="#a" transform="rotate(211.49 151.368 -17.94)scale(.01454)"/><use xlink:href="#a" transform="rotate(188.817 145.893 11.045)scale(.0099)"/><use xlink:href="#a" transform="rotate(-86.497 165.18 -128.661)scale(.01036)"/><use xlink:href="#a" transform="rotate(-74.882 169.676 -162.79)scale(.00662)"/><use xlink:href="#a" transform="rotate(169.752 140.236 34.806)scale(.00975)"/><use xlink:href="#a" transform="rotate(29.41 61.824 555.562)scale(.00687)"/><use xlink:href="#a" transform="rotate(159.563 136.916 47.058)scale(.0081)"/><use xlink:href="#a" transform="rotate(56.443 101.379 280.4)scale(.0075)"/><use xlink:href="#a" transform="rotate(5.632 -282.975 2830.224)scale(.00709)"/><use xlink:href="#a" transform="rotate(227.194 147.778 -38.215)scale(.00633)"/><use xlink:href="#a" transform="rotate(180.433 138.452 21.853)scale(.01212)"/><use xlink:href="#a" transform="rotate(5.093 -325.797 3074.055)scale(.0093)"/><use xlink:href="#a" transform="rotate(3.826 -479.304 4057.343)scale(.01084)"/><use xlink:href="#a" transform="rotate(214.701 141.973 -20.05)scale(.00672)"/><use xlink:href="#a" transform="rotate(-96.18 153.782 -98.21)scale(.00568)"/><use xlink:href="#a" transform="rotate(-56.886 172.855 -223.735)scale(.00807)"/><use xlink:href="#a" transform="rotate(49.655 88.987 308.473)scale(.00848)"/><use xlink:href="#a" transform="rotate(177.475 132.839 25.456)scale(.01237)"/><use xlink:href="#a" transform="rotate(202.193 136.247 -3.132)scale(.0111)"/><use xlink:href="#a" transform="rotate(138.196 123.367 71.828)scale(.01017)"/><use xlink:href="#a" transform="rotate(169.219 128.332 34.306)scale(.00763)"/><use xlink:href="#a" transform="rotate(-70.263 159.516 -160.67)scale(.00623)"/><use xlink:href="#a" transform="rotate(67.621 98.206 213.002)scale(.00974)"/><use xlink:href="#a" transform="rotate(159.221 124.416 45.506)scale(.00637)"/><use xlink:href="#a" transform="rotate(-71.168 156.897 -154.213)scale(.00948)"/><use xlink:href="#a" transform="rotate(-46.906 174.948 -266.903)scale(.00976)"/><use xlink:href="#a" transform="rotate(155.445 121.663 49.55)scale(.00826)"/><use xlink:href="#a" transform="rotate(144.649 118.858 61.97)scale(.0084)"/><use xlink:href="#a" transform="rotate(196.077 127.765 4.776)scale(.00686)"/><use xlink:href="#a" transform="rotate(173.371 123.192 29.772)scale(.01133)"/><use xlink:href="#a" transform="rotate(224.932 132.032 -27.821)scale(.00985)"/><use xlink:href="#a" transform="rotate(-97.06 141.049 -85.182)scale(.00625)"/><use xlink:href="#a" transform="rotate(143.294 115.407 62.746)scale(.01433)"/><use xlink:href="#a" transform="rotate(-67.973 151.713 -153.992)scale(.01123)"/><use xlink:href="#a" transform="rotate(254.963 135.897 -68.322)scale(.00948)"/><use xlink:href="#a" transform="rotate(75.636 91.595 174.268)scale(.00554)"/><use xlink:href="#a" transform="rotate(215.855 125.404 -15.691)scale(.00662)"/><use xlink:href="#a" transform="rotate(215.794 124.802 -15.617)scale(.0059)"/><use xlink:href="#a" transform="rotate(220.672 125.385 -20.126)scale(.01269)"/><use xlink:href="#a" transform="rotate(90.77 95.648 136.082)scale(.00746)"/><use xlink:href="#a" transform="rotate(-71.64 144.992 -135.38)scale(.01128)"/><use xlink:href="#a" transform="rotate(195.669 117.993 7.392)scale(.0126)"/><use xlink:href="#a" transform="rotate(62.106 78.333 209.758)scale(.00577)"/><use xlink:href="#a" transform="rotate(-21.442 226.415 -571.037)scale(.00597)"/><use xlink:href="#a" transform="rotate(195.262 115.774 7.615)scale(.00916)"/><use xlink:href="#a" transform="rotate(224.494 120.838 -22.988)scale(.00617)"/><use xlink:href="#a" transform="rotate(-38.152 173.11 -297.264)scale(.0064)"/><use xlink:href="#a" transform="rotate(183.84 111.974 19.302)scale(.01215)"/><use xlink:href="#a" transform="rotate(-41.207 165.717 -264.299)scale(.01388)"/><use xlink:href="#a" transform="rotate(211.647 115.004 -7.504)scale(.01212)"/><use xlink:href="#a" transform="rotate(37.134 44.48 340.053)scale(.00816)"/><use xlink:href="#a" transform="rotate(-98.916 125.507 -68.404)scale(.00591)"/><use xlink:href="#a" transform="rotate(90.714 85.452 126.858)scale(.00571)"/><use xlink:href="#a" transform="rotate(258.177 123.431 -61.908)scale(.0122)"/><use xlink:href="#a" transform="rotate(159.725 101.658 41.508)scale(.01178)"/><use xlink:href="#a" transform="rotate(91.624 83.687 122.719)scale(.00902)"/><use xlink:href="#a" transform="rotate(-75.776 130.765 -108.124)scale(.01045)"/><use xlink:href="#a" transform="rotate(-8.803 379.833 -1294.18)scale(.008)"/><use xlink:href="#a" transform="rotate(-80.299 127.358 -97.152)scale(.00615)"/><use xlink:href="#a" transform="rotate(-60.786 137.167 -146.296)scale(.01431)"/><use xlink:href="#a" transform="rotate(72.318 71.177 158.083)scale(.00846)"/><use xlink:href="#a" transform="rotate(159.356 96.033 41.12)scale(.0144)"/><use xlink:href="#a" transform="rotate(136.32 89.992 61.798)scale(.01071)"/><use xlink:href="#a" transform="rotate(40.014 39.11 286.357)scale(.0108)"/><use xlink:href="#a" transform="rotate(116.288 83.89 82.008)scale(.01444)"/><use xlink:href="#a" transform="rotate(105.742 79.827 93.954)scale(.0144)"/><use xlink:href="#a" transform="rotate(13.906 -80.248 782.2)scale(.01056)"/><use xlink:href="#a" transform="rotate(128.742 83.09 67.06)scale(.00932)"/><use xlink:href="#a" transform="rotate(-87.217 114.836 -71.65)scale(.01402)"/><use xlink:href="#a" transform="rotate(58.96 52.95 182.442)scale(.0063)"/><use xlink:href="#a" transform="rotate(34.158 20.838 314.37)scale(.0077)"/><use xlink:href="#a" transform="rotate(228.384 99.936 -16.404)scale(.01214)"/><use xlink:href="#a" transform="rotate(248.988 103.936 -36.463)scale(.01392)"/><use xlink:href="#a" transform="rotate(-5.92 496.575 -1638.966)scale(.01423)"/><use xlink:href="#a" transform="rotate(-27.591 174.911 -324.838)scale(.00895)"/><use xlink:href="#a" transform="rotate(-31.866 161.406 -272.548)scale(.01087)"/><use xlink:href="#a" transform="rotate(136.421 76.967 56.812)scale(.01403)"/><use xlink:href="#a" transform="rotate(65.152 50.731 152.102)scale(.01089)"/><use xlink:href="#a" transform="rotate(-43.613 137.27 -181.044)scale(.00903)"/><use xlink:href="#a" transform="rotate(36.07 15.168 272.58)scale(.00622)"/><use xlink:href="#a" transform="rotate(122.389 70.306 67.372)scale(.01218)"/><use xlink:href="#a" transform="rotate(194.653 83.576 12.644)scale(.00547)"/><use xlink:href="#a" transform="rotate(25.421 -13.742 371.219)scale(.01335)"/><use xlink:href="#a" transform="rotate(157.781 75.272 38.619)scale(.01249)"/><use xlink:href="#a" transform="rotate(13.998 -97.474 647.84)scale(.0101)"/><use xlink:href="#a" transform="rotate(192.605 79.855 14.836)scale(.00981)"/><use xlink:href="#a" transform="rotate(38.206 13.567 240.408)scale(.00867)"/><use xlink:href="#a" transform="rotate(213.269 82.403 .992)scale(.00856)"/><use xlink:href="#a" transform="rotate(70.411 45.316 127.182)scale(.01455)"/><use xlink:href="#a" transform="rotate(164.93 71.01 32.792)scale(.00734)"/><use xlink:href="#a" transform="rotate(115.481 59.988 68.772)scale(.01348)"/><use xlink:href="#a" transform="rotate(126.477 61.295 59.062)scale(.00981)"/><use xlink:href="#a" transform="rotate(242.422 84.654 -18.52)scale(.01202)"/><use xlink:href="#a" transform="rotate(198.901 73.983 11.542)scale(.00626)"/><use xlink:href="#a" transform="rotate(116.247 56.097 65.917)scale(.00672)"/><use xlink:href="#a" transform="rotate(3.267 -686.523 2384.328)scale(.01364)"/><use xlink:href="#a" transform="rotate(206.685 73.502 8.1)scale(.01335)"/><use xlink:href="#a" transform="rotate(101.794 48.922 76.863)scale(.00597)"/><use xlink:href="#a" transform="rotate(103.772 49.597 74.45)scale(.0104)"/><use xlink:href="#a" transform="rotate(153.425 60.376 38.442)scale(.00595)"/><use xlink:href="#a" transform="rotate(97.399 45.62 79.555)scale(.00605)"/><use xlink:href="#a" transform="rotate(-66.667 98.405 -73.569)scale(.00587)"/><use xlink:href="#a" transform="rotate(1.39 -1737.553 5192.817)scale(.00964)"/><use xlink:href="#a" transform="matrix(.006 -.00363 .00363 .006 124 44.842)"/><use xlink:href="#a" transform="rotate(44.82 10.658 171.589)scale(.01183)"/><use xlink:href="#a" transform="rotate(162.216 58.558 32.92)scale(.01084)"/><use xlink:href="#a" transform="rotate(29.868 -21.399 247.283)scale(.00656)"/><use xlink:href="#a" transform="rotate(61.486 23.427 122.692)scale(.00635)"/><use xlink:href="#a" transform="rotate(9.698 -199.37 715.424)scale(.00657)"/><use xlink:href="#a" transform="rotate(-25.63 154.818 -230.404)scale(.0102)"/><use xlink:href="#a" transform="rotate(-68.563 90.423 -60.746)scale(.00794)"/><use xlink:href="#a" transform="rotate(-33.634 130.177 -164.097)scale(.00732)"/><use xlink:href="#a" transform="rotate(44.46 3.383 160.273)scale(.00633)"/><use xlink:href="#a" transform="rotate(183.88 57.496 21.47)scale(.01042)"/><use xlink:href="#a" transform="rotate(240.139 68.387 -7.52)scale(.01358)"/><use xlink:href="#a" transform="rotate(-92.578 75.255 -27.442)scale(.0109)"/><use xlink:href="#a" transform="rotate(110.563 39.117 59.29)scale(.01131)"/><use xlink:href="#a" transform="rotate(217.868 60.251 5.235)scale(.007)"/><use xlink:href="#a" transform="rotate(85.367 29.643 77.882)scale(.01473)"/><use xlink:href="#a" transform="rotate(207.86 56.329 10.36)scale(.00584)"/><use xlink:href="#a" transform="rotate(218.586 58.154 6.228)scale(.01137)"/><use xlink:href="#a" transform="rotate(146.323 42.916 37.465)scale(.00608)"/><use xlink:href="#a" transform="rotate(59.863 12.649 105.163)scale(.01296)"/><use xlink:href="#a" transform="rotate(251.28 63.33 -9.407)scale(.0147)"/><use xlink:href="#a" transform="rotate(-14.442 217.372 -337.366)scale(.00669)"/><use xlink:href="#a" transform="rotate(229.221 56.046 2.268)scale(.0083)"/><use xlink:href="#a" transform="rotate(123.204 34.21 46.785)scale(.01151)"/><use xlink:href="#a" transform="rotate(-83.877 68.353 -25.273)scale(.00862)"/><use xlink:href="#a" transform="rotate(140.268 36.432 38.398)scale(.013)"/><use xlink:href="#a" transform="rotate(161.143 39.193 29.54)scale(.00745)"/><use xlink:href="#a" transform="rotate(226.605 51.37 5.752)scale(.01262)"/><use xlink:href="#a" transform="rotate(238.018 52.919 .292)scale(.00616)"/><use xlink:href="#a" transform="rotate(253.293 56.33 -5.968)scale(.01165)"/><use xlink:href="#a" transform="rotate(29.55 -39.52 165.928)scale(.01325)"/><use xlink:href="#a" transform="rotate(41.345 -17.26 120.615)scale(.01056)"/><use xlink:href="#a" transform="rotate(172.154 36.466 25.556)scale(.01435)"/><use xlink:href="#a" transform="rotate(199.957 40.137 16.253)scale(.00636)"/><use xlink:href="#a" transform="rotate(119.602 23.548 42.715)scale(.008)"/><use xlink:href="#a" transform="rotate(47.088 -13.629 100.555)scale(.0076)"/><use xlink:href="#a" transform="rotate(-32.714 105.43 -88.217)scale(.01344)"/><use xlink:href="#a" transform="rotate(204.975 38.265 15.822)scale(.01232)"/><use xlink:href="#a" transform="rotate(67.334 .662 69.3)scale(.0076)"/><use xlink:href="#a" transform="rotate(162.277 28.55 27.196)scale(.00809)"/><use xlink:href="#a" transform="rotate(54.89 -8.48 79.14)scale(.01343)"/><use xlink:href="#a" transform="rotate(84.885 7.716 53.597)scale(.01408)"/><use xlink:href="#a" transform="rotate(77.924 2.993 56.391)scale(.00881)"/><use xlink:href="#a" transform="rotate(245.311 41.596 5.939)scale(.0123)"/><use xlink:href="#a" transform="rotate(223.028 35.406 12.565)scale(.01119)"/><use xlink:href="#a" transform="rotate(125.696 15.406 35.096)scale(.00793)"/><use xlink:href="#a" transform="rotate(41.195 -29.352 85.98)scale(.01088)"/><use xlink:href="#a" transform="rotate(156.363 20.542 27.393)scale(.01311)"/><use xlink:href="#a" transform="rotate(122.912 11.969 34.328)scale(.00606)"/><use xlink:href="#a" transform="rotate(-66.512 54.839 -10.102)scale(.01043)"/><use xlink:href="#a" transform="rotate(214.028 28.54 15.669)scale(.00562)"/><use xlink:href="#a" transform="rotate(-17.668 154.095 -104.645)scale(.01276)"/><use xlink:href="#a" transform="rotate(92.18 1.269 40.553)scale(.01371)"/><use xlink:href="#a" transform="rotate(256.991 36.186 7.366)scale(.00553)"/><use xlink:href="#a" transform="rotate(173.143 17.685 23)scale(.00595)"/><use xlink:href="#a" transform="rotate(42.554 -34.31 65.79)scale(.0105)"/><use xlink:href="#a" transform="rotate(.483 -4922.29 3936.176)scale(.00683)"/><use xlink:href="#a" transform="rotate(-31.79 89.838 -32.95)scale(.00866)"/><use xlink:href="#a" transform="rotate(49.286 -28.955 55.023)scale(.00708)"/><use xlink:href="#a" transform="rotate(108.337 1.15 32.516)scale(.01162)"/><use xlink:href="#a" transform="rotate(-55.039 54.785 -4.724)scale(.00543)"/><use xlink:href="#a" transform="rotate(-95.488 33.234 9.759)scale(.00582)"/><use xlink:href="#a" transform="rotate(-37.685 73.563 -12.642)scale(.01276)"/><use xlink:href="#a" transform="rotate(-6.992 355.387 -171.113)scale(.00562)"/><use xlink:href="#a" transform="rotate(12.86 -165.674 113.082)scale(.01472)"/><use xlink:href="#a" transform="rotate(-64.673 43.938 5.785)scale(.00548)"/><use xlink:href="#a" transform="rotate(26.624 -74.35 59.226)scale(.01306)"/><use xlink:href="#a" transform="rotate(10.891 -201.105 101.797)scale(.0136)"/><use xlink:href="#a" transform="rotate(93.463 -10.734 28.502)scale(.00889)"/><use xlink:href="#a" transform="rotate(173.199 6.708 22.63)scale(.01316)"/><use xlink:href="#a" transform="rotate(-34.678 71.437 6.636)scale(.01166)"/><use xlink:href="#a" transform="rotate(45.203 -42.178 30.934)scale(.01415)"/><use xlink:href="#a" transform="rotate(36.928 -56.993 31.454)scale(.00706)"/><use xlink:href="#a" transform="rotate(99.677 -13.247 23.863)scale(.0088)"/><use xlink:href="#a" transform="rotate(114.807 -9.333 22.934)scale(.01418)"/><use xlink:href="#a" transform="rotate(190.108 3.755 21.644)scale(.00805)"/><use xlink:href="#a" transform="rotate(121.502 -8.61 21.749)scale(.01362)"/><use xlink:href="#a" transform="rotate(-84.929 22.946 19.832)scale(.01118)"/><use xlink:href="#a" transform="rotate(-5.633 378.578 -8.543)scale(.00564)"/><use xlink:href="#a" transform="rotate(-5.768 349.034 -4.82)scale(.01092)"/><use xlink:href="#a" transform="rotate(-30.218 66.619 11.132)scale(.006)"/><use xlink:href="#a" transform="rotate(104.359 -8.92 19.347)scale(.01119)"/><use xlink:href="#a" transform="rotate(116.047 -6.118 18.384)scale(.00827)"/><use xlink:href="#a" transform="rotate(98.664 -8.188 18.556)scale(.0119)"/><use xlink:href="#a" transform="rotate(109.794 -4.602 17.496)scale(.01363)"/><use xlink:href="#a" transform="rotate(-76.951 20.784 10.902)scale(.01442)"/><use xlink:href="#a" transform="rotate(195.498 6.109 12.744)scale(.00593)"/><use xlink:href="#a" transform="rotate(182.908 4.77 12.823)scale(.0092)"/><use xlink:href="#a" transform="rotate(239.4 10.17 10.826)scale(.00945)"/><use xlink:href="#a" transform="rotate(146.42 1.208 12.3)scale(.01435)"/><use xlink:href="#a" transform="rotate(257.013 10.223 9.393)scale(.01097)"/><use xlink:href="#a" transform="rotate(122.087 -1.387 10.335)scale(.01236)"/><use xlink:href="#a" transform="rotate(31.738 -24.837 12.102)scale(.00625)"/><use xlink:href="#a" transform="rotate(227.067 4.85 8.247)scale(.00937)"/><use xlink:href="#a" transform="rotate(213.272 3.543 7.746)scale(.01143)"/><use xlink:href="#a" transform="rotate(81.66 -5.068 7.118)scale(.00554)"/><use xlink:href="#a" transform="rotate(211.878 2.868 5.967)scale(.00607)"/><defs><path id="a" fill="#000" d="M215.823 333.963c0-.733.3-1.033.667-.667a.95.95 0 0 1 0 1.334c-.367.366-.667.066-.667-.667M143.424 3.977c4.632-.653 8.099 4.826 5.302 8.382-1.951 2.48-2.551 5.604-1.078 5.604.905.004 11.175 12.34 11.175 13.423 0 1.076-4.344 5.111-6.316 5.868-1.898.728-1.434 2.71.633 2.71.661 0 1.78.924 2.486 2.056 1.284 2.054 1.286 2.054 2.991.057.938-1.1 2.606-2.139 3.706-2.307s2.33-.757 2.734-1.307c.415-.565.741-.238.75.75.018 2.14.447 2.169 3.408.229 1.623-1.063 2.19-2.212 1.884-3.81-1.049-5.489 4.864-5.512 14.402-.058 5.289 3.024 5.527 3.005 7.663-.61 3.023-5.119 9.966-1.694 8.152 4.02-.515 1.623-.183 2.247 1.417 2.666 1.15.3 2.09.945 2.09 1.43.001.485.9.883 2 .883 2.405 0 2.51-.633.446-2.697-1.937-1.936-1.511-6.247.756-7.667 2.444-1.53 3.085-.336 1.976 3.68-.844 3.057-.725 3.569.927 4 1.042.274 1.895 1.215 1.895 2.09.001 2.117 3.922 2.083 5.479-.046 1.634-2.235 4.962-.366 4.996 2.806.022 2.026.585 2.375 4.275 2.641 3.903.283 4.25.113 4.25-2.089q0-2.397 2.547-3.556c5.794-2.64 9.087-.056 7.912 6.206-.627 3.341-.627 3.341 7.125 4.043 13.323 1.209 21.701 9.211 10.916 10.427-1.65.187-3.533.779-4.183 1.316-.772.639-2.504.61-5-.082-4.664-1.295-5.317-1.318-5.317-.18 0 .89 3.547 2.107 7.692 2.639 3.814.489 4.527 1.472 3.864 5.335-1.584 9.224-1.538 9.134-4.694 9.134-1.732 0-2.721-.419-2.362-1 .34-.55.194-1-.324-1-.519 0-1.178-.9-1.466-2-.316-1.208-1.364-2-2.648-2-1.169 0-2.425-.787-2.793-1.75-.688-1.803-.846-2.03-4.339-6.25-2.069-2.5-2.069-2.5-1.491.21.443 2.079.097 2.968-1.49 3.817-3.053 1.634-2.358 6.6.861 6.15 1.27-.178 2.952.21 3.737.862.841.698 2.53.908 4.115.51 2.465-.619 2.57-.53 1.263 1.08-.904 1.113-.968 1.48-.175 1.004 1.207-.725 1.687.683 1.482 4.336-.045.808 1.226 3.249 2.826 5.425 2.411 3.278 2.808 4.595 2.313 7.686-.499 3.124-.251 3.915 1.528 4.868 1.738.93 1.934 1.496 1.067 3.115-.582 1.088-.743 2.489-.358 3.114 1.359 2.199-6.627-.001-11.342-3.124-8.698-5.762-10.731-2.813-8.924 12.947.221 1.925-.023 4.035-.543 4.69-2.291 2.887-.482 6.804 3.201 6.932 1.925.067 3.95.231 4.5.365s1.77.166 2.711.072c2.294-.23 5.828 1.736 5.529 3.076-.429 1.92 7.577 1.339 13.716-.996 3.275-1.246 6.763-2.054 7.75-1.795 1.097.287 1.794-.077 1.794-.937 0-.773-.9-1.407-2-1.407-2.468 0-2.532-1.121-.227-3.967 1.774-2.19 1.774-2.191 3.655-.112 3.099 3.423 8.159.85 5.79-2.944-.993-1.589-.581-2.041 3.321-3.645 2.449-1.007 4.455-2.169 4.457-2.582s.443-.75.979-.75c1.288 0 .183 5.855-1.664 8.817-1.092 1.751-1.167 2.651-.309 3.686 1.283 1.545-.226 5.368-2.692 6.822-.804.474-1.149 1.608-.812 2.669.406 1.279-.025 2.039-1.405 2.477-1.193.378-1.772 1.202-1.445 2.054.599 1.563-1.168 3.716-3.898 4.75-.962.364-1.75 1.619-1.75 2.789 0 2.226-3.33 7.595-5.963 9.615-1.366 1.047-1.342 1.254.215 1.857 1.184.459 2.39-.086 3.717-1.678 2.104-2.526 2.666-1.913 1.038 1.131-.844 1.574-.541 1.954 2 2.512 3.869.85 4.064 4.832.493 10.094-3.324 4.898-3.182 6.036 1.488 11.905 2.188 2.75 5.447 7.129 7.244 9.732 2.93 4.244 6.768 6.38 6.768 3.768 0-.55 1.035-1 2.3-1s2.746-.446 3.29-.99c.62-.62 2.15-.657 4.088-.101 2.392.686 3.469.516 4.728-.744 4.803-4.802 6.925 3.04 2.546 9.405-3.724 5.412-1.48 4.855 3.795-.941 1.786-1.963 3.851-3.336 4.59-3.052.738.282 1.92-.181 2.625-1.031 1.934-2.33 4.935-1.866 6.224.963 1.583 3.475-.177 6.436-7.813 13.14-6.161 5.409-6.161 5.409-3.267 8.303q6.73 6.731-2.936 8.665c-2.37.473-3.292.23-3.762-.995-.888-2.314-2.696-2.009-5.448.92-2.037 2.169-2.206 2.834-1.151 4.523 1.864 2.986.028 5.71-3.506 5.2-4.597-.663-9.708 5.273-8.219 9.547.611 1.753 1.63 3.202 2.264 3.219s.361.49-.606 1.054c-.967.563-2.166.771-2.665.463-.498-.308-1.136-.096-1.417.471-.28.567-.375.457-.21-.244a1.32 1.32 0 0 1 1.594-.969c1.051.249 1.054.018.019-1.229-.82-.989-2.396-1.39-4.419-1.124a92 92 0 0 1-6.144.558c-1.65.081-2.437.374-1.75.651.688.279 1.25 1.087 1.25 1.799s.675 1.854 1.5 2.539c5.107 4.238-.167 9.564-11.856 11.977-5.805 1.198-5.851 1.236-5.25 4.241.333 1.668.606 4.11.606 5.428 0 1.565.84 2.78 2.421 3.5 1.427.65 2.204 1.669 1.892 2.481-1.315 3.427.629 6.545 3.665 5.878 3.965-.871 7.62 1.069 5.906 3.134-.684.825-2.082 1.281-3.105 1.013-1.464-.382-1.732-.077-1.254 1.431.545 1.717.081 1.917-4.459 1.917-5.146 0-6.794-1.89-2.64-3.028 2.787-.763 3.151-3.008.595-3.677-1.452-.379-1.789-.821-.999-1.309 1.624-1.003.253-6.985-1.601-6.986-.782 0-1.421-.392-1.421-.872s-1.851-1.168-4.114-1.53c-2.276-.364-4.845-1.556-5.75-2.669-1.563-1.921-1.645-1.764-1.848 3.531-.199 5.212-.072 5.54 2.143 5.54 5.607 0 3.707 7.564-2.136 8.502-2.087.335-5.28 1.263-7.096 2.062-2.486 1.094-3.803 1.183-5.335.363-2.367-1.266-3.36-.663-2.519 1.53.326.849 1.676 1.543 3.001 1.543 3.904 0 5.075 2.286 3.115 6.077-1.665 3.218-1.666 3.218-13.063 2.607s-11.398-.611-11.398 2.418c0 8.621-10.579 8.949-12.836.398-1.025-3.886-7.44-4.574-7.971-.856-.417 2.928-5.229 3.934-5.933 1.241-.544-2.077-1.366-2.361-2.81-.97-.522.504-2.075 1.066-3.45 1.25-1.71.229-2.602 1.053-2.823 2.609-.261 1.844-.83 2.2-3 1.878-1.472-.218-2.582-.851-2.467-1.405.116-.555-.672-1.807-1.75-2.783-1.881-1.703-1.962-1.698-2.002.131-.024 1.048-1.416 3.03-3.095 4.405a541 541 0 0 0-5.708 4.749c-4.916 4.164-8.422 2.715-9.677-3.999-.385-2.061-.881-3.749-1.102-3.75s-3.649.9-7.619 2c-14.524 4.025-29-2.533-15.77-7.145 1.657-.578 3.013-1.445 3.013-1.928s-1.155-.438-2.566.098c-2.123.807-3.159.524-6-1.643-3.139-2.394-4.983-5.457-2.279-3.787.716.443.883.275.439-.443-1.049-1.697-4.913.576-4.188 2.464.811 2.113-2.281 2.937-3.707.987-1.831-2.504-6.976.008-6.236 3.044 1.341 5.502-5.446 8.159-7.44 2.914-.95-2.498-5.437-1.816-9.523 1.446-1.865 1.489-6.803 1.559-7.292.104-.259-.768-.013-1.108.549-.761.56.346.996.071.973-.61-.161-4.454.444-5.606 3.52-6.697 3.668-1.3 2.102-3.54-3.25-4.647-1.375-.284-3.306-.954-4.29-1.489-.986-.536-2.157-.749-2.603-.473-.448.276-1.667-.136-2.71-.916-1.793-1.341-1.767-1.385.487-.816 1.773.448 2.26.242 1.896-.8-.268-.771-1.228-1.27-2.134-1.108s-1.646-.113-1.646-.61c0-1.368-6.697-8.183-8.04-8.184-1.264 0-.447 5.053.968 5.991 1.274.844.882 7.15-.413 6.653-.657-.252-1.123.469-1.084 1.676.084 2.591-2.923 3.446-3.828 1.089-.357-.929.047-2.752.897-4.05 1.424-2.172 1.405-2.362-.227-2.394-.976-.02-2.897-.658-4.27-1.418-1.696-.939-2.884-1.061-3.702-.382-1.603 1.33-5.582.011-4.95-1.641.545-1.42-1.94-5.524-3.343-5.524-1.258 0-10.008-8.116-10.008-9.282 0-.581 1.664-.708 4.125-.314 3.832.613 4.086.511 3.58-1.429-.45-1.717-.294-1.879.874-.91 2.272 1.886 1.639-.557-.69-2.659-1.16-1.048-2.975-3.744-4.033-5.992-1.69-3.592-9.922-9.936-15.158-11.681-3.332-1.111 3.063-11.87 6.517-10.966 1.767.462 1.998.235 1.38-1.356-1.235-3.177-1.163-3.926.35-3.596 2.291.498 6.055-1.977 6.055-3.984 0-1.079.72-1.831 1.755-1.831 2.437 0 4.522-6.525 2.596-8.124-.743-.616-1.35-1.939-1.35-2.939-.001-1.001-.451-2.097-1-2.437-.55-.34-1-1.518-1-2.618s-.404-1.752-.895-1.448c-.49.303-1.843-1.357-3.005-3.691s-2.66-5.143-3.328-6.243-2.239-3.678-3.493-5.729c-2.852-4.664-2.888-7.741-.126-10.706 1.922-2.063 1.98-2.41.542-3.215-.887-.497-1.358-1.568-1.045-2.382.387-1.012-.573-1.955-3.043-2.987-1.984-.829-3.645-2.064-3.69-2.744-.242-3.637-1.198-7.557-2.465-10.115-.785-1.582-1.159-3.945-.832-5.25.405-1.611.16-2.392-.764-2.435-.746-.035-.333-.475.918-.977 2.606-1.047 2.206-5.5-.687-7.629-4.752-3.496-5.041-3.891-4.456-6.081.33-1.238 1.379-2.25 2.33-2.25.95 0 2.543-.9 3.538-2s2.231-2 2.745-2 1.779-1.012 2.81-2.25c1.615-1.934 1.883-2.003 1.912-.49.018.968-.867 2.53-1.967 3.472-2.538 2.173-2.518 2.899.1 3.584 1.157.303 1.805 1.029 1.442 1.617-.363.587-.445 1.067-.183 1.067.263 0 1.25.298 2.196.66 1.212.464 1.572.243 1.224-.75-.57-1.629 2.992-7.17 4.15-6.454.427.264 1.613-.132 2.636-.879 2.017-1.475.615-4.576-2.069-4.577-1.332 0-4.101-8.453-3.604-11 .162-.825.239-3.222.17-5.326-.108-3.399.22-3.954 2.949-4.984 2.134-.806 3.024-1.774 2.919-3.175-.26-3.456.036-4.654 1-4.058a1.09 1.09 0 0 0 1.502-.347c.313-.507 1.402-.705 2.42-.438 2.56.669 5.59-2.434 4.113-4.214-.807-.972-.795-1.907.043-3.472.63-1.178.9-2.782.6-3.564-.38-.993.2-1.422 1.923-1.422 1.358 0 2.469-.45 2.47-1 0-.55-.437-1-.97-1s-.71-.675-.393-1.5c.33-.861.02-1.5-.73-1.5-1.018 0-1.041-.267-.108-1.2.66-.66 1.2-1.948 1.2-2.862 0-1.277 1.32-1.818 5.684-2.331 3.126-.367 6.276-1.159 7-1.76 1.767-1.466 1.673-3.846-.153-3.847-.894 0-1.243.586-.893 1.5.363.945-.011 1.5-1.011 1.5-1.986 0-1.574-5.786.506-7.103 3.478-2.204-2.762-.68-7.275 1.776-3.573 1.945-5.211 2.374-6.012 1.573-.743-.743-1.913-.79-3.605-.148-4.224 1.606-6.24.29-6.24-4.07 0-4.477 3.34-6.913 15.25-11.124 7.366-2.604 7.512-2.802 5.108-6.871-1.99-3.368-1.188-7.635 1.6-8.52 2.676-.849 9.035.449 9.056 1.848.042 3.128 1.618 3.829 5.793 2.579 4.398-1.318 5.909-3.37 4.09-5.56-.88-1.063-.605-1.805 1.234-3.325 2.036-1.682 2.524-1.753 3.477-.506 1.928 2.52 17.01-1.493 15.954-4.243-.865-2.257 4.422-5.084 5.593-2.991 1.402 2.505 4.122 2.048 7.252-1.219 2.783-2.905 2.783-2.905.625-5.062-3.774-3.774-.756-10.609 4.56-10.326 5.589.297 6.264.495 5.822 1.71-.217.595-.005 1.692.47 2.437 1.046 1.642 5.668-.946 6.598-3.694.309-.914 3.365-3.792 6.79-6.397 3.42-2.6 6.265-4.737 6.328-4.75m65.339 318.986c.582 0 1.06.45 1.06 1s-.198 1-.441 1-.719-.45-1.059-1-.141-.999.44-1m-91.94-7.618c0-.825.45-1.222 1-.882s1 1.294 1 2.119c0 .824-.45 1.221-1 .881s-1-1.293-1-2.118m85.5-1.382c.275 0 .5.225.5.5s-.225.5-.5.5a.5.5 0 0 1-.5-.5c0-.275.225-.5.5-.5m-127.56-8c.582 0 1.06.45 1.06 1s-.198 1-.441 1-.72-.45-1.059-1c-.34-.55-.141-.999.44-1m-2.94-1c.55 0 1 .45 1 1s-.45 1-1 1-1-.45-1-1 .45-1 1-1m60 1.107c0-1.644-2.785-1.984-4.653-.57-1.705 1.292-1.597 1.402 1.403 1.431 1.787.018 3.25-.37 3.25-.861m-45-2.107c.733 0 1.033.3.667.667a.95.95 0 0 1-1.334 0c-.366-.367-.066-.667.667-.667m-9.583.079c1.054-.043 1.644.193 1.312.525s-1.195.368-1.916.079c-.798-.319-.56-.556.604-.604m1.583-3.079c.55 0 1 .45 1 1s-.45 1-1 1-1-.45-1-1 .45-1 1-1m-8.5-1c.825 0 1.5.661 1.5 1.469 0 .894-.586 1.243-1.5.893-.825-.317-1.5-.978-1.5-1.469s.675-.893 1.5-.893m-.5-8c.55 0 1 .198 1 .441s-.45.719-1 1.059-1 .141-1-.441.45-1.059 1-1.059m200.5-6c.825 0 1.5.17 1.5.378 0 .207-.675.938-1.5 1.622-1.229 1.02-1.5.951-1.5-.378 0-.892.675-1.622 1.5-1.622m5-1c.275 0 .5.225.5.5s-.225.5-.5.5a.5.5 0 0 1-.5-.5c0-.275.225-.5.5-.5m-1.808-3.641c.54-1.409.707-1.398 1.549.107 1.058 1.89.425 3.064-1.132 2.102-.561-.349-.749-1.342-.417-2.209m-3.534-.359c0-1.375.227-1.937.504-1.25.278.688.278 1.813 0 2.5-.277.688-.504.125-.504-1.25m2.342-1c.275 0 .5.225.5.5s-.225.5-.5.5a.5.5 0 0 1-.5-.5c0-.275.225-.5.5-.5m-5.844-1.455q-.555-1.444.895-.886c1.68.645 1.794 1.01.554 1.776-.493.305-1.145-.096-1.449-.89m6.844-.545c.275 0 .5.225.5.5s-.225.5-.5.5a.5.5 0 0 1-.5-.5c0-.275.225-.5.5-.5m39.5-3c0-.733.3-1.033.667-.667a.95.95 0 0 1 0 1.334c-.367.366-.667.066-.667-.667m-6-10.441c0-1.757.6-2.015 1.457-.628.317.512.118 1.214-.441 1.56-.559.344-1.016-.075-1.016-.932M39.241 257.57c-2.373-.911-2.69-.758-2.025.975.334.87.607 1.77.607 2s.675.418 1.5.418c1.99 0 1.928-2.622-.082-3.393m255.48-5.607c1.658 0 8.149 6.113 7.54 7.101-1.492 2.413-6.742-.804-7.918-4.851-.379-1.302-.22-2.249.378-2.25m-20.398 4c-.275 0-.5.225-.5.5s.225.5.5.5.5-.225.5-.5-.225-.5-.5-.5m-6-3c-.275 0-.5.225-.5.5s.225.5.5.5.5-.225.5-.5-.225-.5-.5-.5m-1.677-3.667c-.389-2.009-2.386-2.848-3.29-1.385-.88 1.423.242 3.052 2.099 3.052.876 0 1.378-.703 1.191-1.667m2.677.667c-.275 0-.5.225-.5.5s.225.5.5.5.5-.225.5-.5-.225-.5-.5-.5m-245-17c.275 0 .5.225.5.5s-.225.5-.5.5a.5.5 0 0 1-.5-.5c0-.275.225-.5.5-.5m2 0c.275 0 .5.225.5.5s-.225.5-.5.5a.5.5 0 0 1-.5-.5c0-.275.225-.5.5-.5m4-50c-.275 0-.5.225-.5.5s.225.5.5.5.5-.225.5-.5-.225-.5-.5-.5m-4.5 0c.733 0 1.033.3.667.667a.95.95 0 0 1-1.334 0c-.366-.367-.066-.667.667-.667m-1.281-14.918c.165-2.193-1.234-3.676-2.118-2.246-.295.478.026 1.64.713 2.579 1.154 1.578 1.263 1.552 1.405-.333m1.781-2.082c-.275 0-.5.225-.5.5s.225.5.5.5.5-.225.5-.5-.225-.5-.5-.5m251.7-11.799c3.351-3.351 7.363-.019 6.367 5.289-.771 4.111-2.856 4.579-5.624 1.26-2.183-2.616-2.436-4.856-.743-6.549m-277.2 2.799c.733 0 1.033.3.667.667a.95.95 0 0 1-1.334 0c-.366-.367-.066-.667.667-.667m286.094-9c.498 0 .906.9.906 2s-.173 1.999-.383 2-.619-.9-.907-2c-.287-1.1-.115-2 .384-2m-1.594-2c.275 0 .5.225.5.5s-.225.5-.5.5a.5.5 0 0 1-.5-.5c0-.275.225-.5.5-.5m7.882-3c.275 0 .778.45 1.118 1s.393 1 .118 1-.778-.45-1.118-1-.393-1-.118-1M18.68 133.08c.195-.064.119.503-.172 1.261s0 1.909.643 2.557c.9.904.602.968-1.277.276-3.058-1.127-3.74-2.892-1.356-3.51.992-.257 1.965-.52 2.162-.584m8.81-1.45c1.116-1.117 2-.749 2 .833 0 .825-.6 1.5-1.334 1.5-1.419 0-1.77-1.229-.666-2.333m266.273.333c.582 0 1.06.45 1.06 1s-.198 1-.441 1-.719-.45-1.059-1-.141-.999.44-1m2.56 1c.275 0 .5.225.5.5s-.225.5-.5.5a.5.5 0 0 1-.5-.5c0-.275.225-.5.5-.5m-275.5-4c.55 0 1 .675 1 1.5s-.45 1.5-1 1.5-1-.675-1-1.5.45-1.5 1-1.5m282 .128c3.258-1.305 5-1.362 5-.163 0 1.749-3.891 3.196-5.763 2.142-1.557-.876-1.478-1.081.763-1.979m-288.434-3.23c3.127-1.225 4.078-.943 2.037.602-1.044.79-2.364 1.148-2.934.795-.598-.369-.218-.96.896-1.397m276.493-.898c.518 0 .941.45.941 1s-.703 1-1.56 1c-.856 0-1.28-.45-.94-1s1.041-1 1.559-1m-37.559-20c-.275 0-.5.225-.5.5s.225.5.5.5.5-.225.5-.5-.225-.5-.5-.5m-215-3c.275 0 .5.225.5.5s-.225.5-.5.5a.5.5 0 0 1-.5-.5c0-.275.225-.5.5-.5m5-1c.275 0 .5.225.5.5s-.225.5-.5.5a.5.5 0 0 1-.5-.5c0-.275.225-.5.5-.5m-11.25-5.017c1.787-1.093 3.85-1.76 4.582-1.485.732.276 2.082.538 3 .581.999.047 1.176.279.442.576-.673.272-1.452.35-1.73.17-.278-.178-1.215.687-2.081 1.925-1.028 1.467-2.602 2.25-4.52 2.25-3.852 0-3.733-1.546.307-4.017m228.25 3.017c.275 0 .5.225.5.5s-.225.5-.5.5a.5.5 0 0 1-.5-.5c0-.275.225-.5.5-.5m-218-1c.275 0 .5.225.5.5s-.225.5-.5.5a.5.5 0 0 1-.5-.5c0-.275.225-.5.5-.5m12.32-8.171c-.347-2.352-2.271-3.527-3.232-1.972-.907 1.468.44 4.143 2.089 4.143.932 0 1.346-.787 1.143-2.171m184.68-14.829c.275 0 .5.225.5.5s-.225.5-.5.5a.5.5 0 0 1-.5-.5c0-.275.225-.5.5-.5m34.5-2.004c0-.513.675-.721 1.5-.464.825.258 2.25.709 3.167 1.001 1.174.376 1.353.846.607 1.592-1.18 1.18-5.273-.473-5.274-2.129M69.807 71.213c.022-1.797-1.658-1.54-2.39.364-.392 1.023-1.345 1.423-2.606 1.093-1.092-.285-1.987-.16-1.988.278s1.195 1.099 2.655 1.466c2.667.668 4.296-.536 4.33-3.2m174.575-2.25c-.243 0-.719.45-1.059 1s-.141 1 .44 1c.582 0 1.06-.45 1.06-1s-.198-1-.441-1m-3.059-1c-.275 0-.5.225-.5.5s.225.5.5.5.5-.225.5-.5-.225-.5-.5-.5m-97.083-21.92c-1.165.047-1.402.284-.604.603.721.289 1.584.253 1.916-.08.332-.331-.258-.567-1.312-.524m37.583-2.08c-.733 0-1.033.3-.667.667a.95.95 0 0 0 1.334 0c.366-.367.066-.667-.667-.667m-34.478-9.63c-1.136-.435-1.813.026-2.198 1.5-.307 1.172-1.18 2.13-1.941 2.13-.76 0-1.383.45-1.383 1 0 1.52 2.594 1.195 4-.5.685-.825 2.288-1.5 3.563-1.5s2.597-.45 2.937-1-.272-1-1.359-1c-1.088 0-2.717-.283-3.619-.63m-8.398 2.363c-.988-.98-1.102-.865-.56.56.376.986.935 1.54 1.243 1.233s.001-1.114-.683-1.793m21.376-6.733c.275 0 .5.225.5.5s-.225.5-.5.5a.5.5 0 0 1-.5-.5c0-.275.225-.5.5-.5m45.5-1c.733 0 1.033.3.667.667a.95.95 0 0 1-1.334 0c-.366-.367-.066-.667.667-.667m5-4c.55 0 1 .198 1 .44 0 .244-.45.72-1 1.06s-1 .14-1-.441c0-.582.45-1.059 1-1.059m-34.5 0c.275 0 .5.225.5.5s-.225.5-.5.5a.5.5 0 0 1-.5-.5c0-.275.225-.5.5-.5m-3.5-6c.733 0 1.033.3.667.667a.95.95 0 0 1-1.334 0c-.366-.367-.066-.667.667-.667m1-3c0-.733.3-1.033.667-.667a.95.95 0 0 1 0 1.334c-.367.366-.667.066-.667-.667m35-2c.733 0 1.033.3.667.667a.95.95 0 0 1-1.334 0c-.366-.367-.066-.667.667-.667m-31.5-1c.275 0 .5.225.5.5s-.225.5-.5.5a.5.5 0 0 1-.5-.5c0-.275.225-.5.5-.5m-11-2c.275 0 .5.225.5.5s-.225.5-.5.5a.5.5 0 0 1-.5-.5c0-.275.225-.5.5-.5m9.5 0c0-.733.3-1.033.667-.667a.95.95 0 0 1 0 1.334c-.367.366-.667.066-.667-.667m-4.5-1c.275 0 .5.225.5.5s-.225.5-.5.5a.5.5 0 0 1-.5-.5c0-.275.225-.5.5-.5m-38.941-3c.243 0 .441.45.441 1s-.478 1-1.06 1c-.581 0-.78-.45-.44-1s.816-1 1.059-1m-9.559 1c.733 0 1.033.3.667.667a.95.95 0 0 1-1.334 0c-.366-.367-.066-.667.667-.667m44.381-5.652c2.929-2.519 5.619-3.082 5.619-1.177 0 1.726-3.081 4.829-4.795 4.83-.816 0-2.026.74-2.688 1.645-1.062 1.452-1.184 1.375-1.035-.65.093-1.265 1.398-3.356 2.899-4.648" data-figma-scatter="f0.51_w0.06_aj180_sj0.65_r0_s17656661811333049531_sw3" data-figma-scatter-ref="stroke0_206_8037_ref"/></defs></svg>