<svg xmlns="http://www.w3.org/2000/svg" xmlns:xlink="http://www.w3.org/1999/xlink" width="195" height="44" fill="none" viewBox="0 0 195 44"><path fill="#e0cea5" fill-opacity=".56" d="m178.251 1.159 14.385 8.405v2.87l-2.815 11.89 2.815 14.76-54.098 3.075L61.3 39.084 4.388 42.159l4.69-12.3L.637 12.434 4.388 1.159l46.906 4.715c16.886-.752 55.849-1.804 76.612 0 14.009.984 39.401-2.734 50.345-4.715"/><use xlink:href="#a" transform="rotate(94.47 91.871 94.756)scale(-.0056 .0056)"/><use xlink:href="#a" transform="matrix(.0089 .0024 .0024 -.0089 189.699 10.064)"/><use xlink:href="#a" transform="rotate(144.152 94.205 34.556)scale(.00397 -.00397)"/><use xlink:href="#a" transform="rotate(110.937 92.293 68.683)scale(.00507 -.00507)"/><use xlink:href="#a" transform="rotate(175.7 94.265 7.65)scale(-.0037 .0037)"/><use xlink:href="#a" transform="rotate(78.981 89.73 116.7)scale(.00716 -.00716)"/><use xlink:href="#a" transform="rotate(34.449 84.587 308.273)scale(-.00733 .00733)"/><use xlink:href="#a" transform="rotate(172.002 93.44 9.208)scale(.00424 -.00424)"/><use xlink:href="#a" transform="rotate(56.52 88.2 177.394)scale(-.0073 .0073)"/><use xlink:href="#a" transform="rotate(99.453 90.444 79.859)scale(.00626 -.00626)"/><use xlink:href="#a" transform="rotate(128.166 90.61 47.772)scale(-.00687 .00687)"/><use xlink:href="#a" transform="rotate(181.338 91.325 1.23)scale(-.00368 .00368)"/><use xlink:href="#a" transform="rotate(59.959 88.476 161.31)scale(-.00581 .00581)"/><use xlink:href="#a" transform="rotate(82.302 89.186 106.288)scale(-.00374 .00374)"/><use xlink:href="#a" transform="rotate(135.953 89.491 38.953)scale(-.00814 .00814)"/><use xlink:href="#a" transform="rotate(6.06 57.7 1683.608)scale(.0094 -.0094)"/><use xlink:href="#a" transform="rotate(-120.778 90.3 -50.203)scale(.0041 -.0041)"/><use xlink:href="#a" transform="matrix(.00148 .00462 .00462 -.00148 177.051 .685)"/><use xlink:href="#a" transform="rotate(141.12 88.092 32.569)scale(-.00537 .00537)"/><use xlink:href="#a" transform="matrix(.0032 .00603 .00603 -.0032 174.689 1.02)"/><use xlink:href="#a" transform="rotate(103.247 86.95 70.852)scale(-.00378 .00378)"/><use xlink:href="#a" transform="rotate(187.147 87.02 -4.217)scale(-.00437 .00437)"/><use xlink:href="#a" transform="rotate(144.103 86.92 28.607)scale(.00485 -.00485)"/><use xlink:href="#a" transform="matrix(-.00205 .00419 .00419 .00205 172.784 1)"/><use xlink:href="#a" transform="rotate(157.976 85.425 18.569)scale(-.00697 .00697)"/><use xlink:href="#a" transform="rotate(77.172 83.693 106.47)scale(.00956 -.00956)"/><use xlink:href="#a" transform="matrix(-.0022 .00333 .00333 .0022 169.516 1.638)"/><use xlink:href="#a" transform="rotate(111.695 83.722 58.003)scale(.0046 -.0046)"/><use xlink:href="#a" transform="rotate(78.339 82.323 104.033)scale(.00385 -.00385)"/><use xlink:href="#a" transform="rotate(105.99 82.452 65.62)scale(-.0076 .0076)"/><use xlink:href="#a" transform="rotate(148.687 82.529 25.303)scale(-.00415 .00415)"/><use xlink:href="#a" transform="matrix(-.0006 .00358 .00358 .0006 165.264 2.5)"/><use xlink:href="#a" transform="matrix(-.0049 .00294 .00294 .0049 165.284 1.856)"/><use xlink:href="#a" transform="rotate(180.17 81.275 2.253)scale(-.00802 .00802)"/><use xlink:href="#a" transform="rotate(137.761 80.93 32.854)scale(.0037 -.0037)"/><use xlink:href="#a" transform="rotate(174.593 80.624 6.024)scale(-.00487 .00487)"/><use xlink:href="#a" transform="rotate(25.726 74.995 358.575)scale(-.00953 .00953)"/><use xlink:href="#a" transform="matrix(.00698 .00616 .00616 -.00698 157.262 4.14)"/><use xlink:href="#a" transform="rotate(29.384 73.14 306.544)scale(-.0082 .0082)"/><use xlink:href="#a" transform="matrix(-.00034 .00791 .00791 .00034 155.4 3.076)"/><use xlink:href="#a" transform="rotate(193.132 77.303 -6.22)scale(-.00713 .00713)"/><use xlink:href="#a" transform="rotate(45.823 72.362 186.435)scale(-.00542 .00542)"/><use xlink:href="#a" transform="rotate(77.385 73.822 99.647)scale(-.00869 .00869)"/><use xlink:href="#a" transform="rotate(83.473 73.302 88.665)scale(-.0055 .0055)"/><use xlink:href="#a" transform="rotate(144.207 75.09 25.989)scale(.0077 -.0077)"/><use xlink:href="#a" transform="rotate(17.335 62.175 498.543)scale(-.00871 .00871)"/><use xlink:href="#a" transform="rotate(53.278 68.72 149.52)scale(.00437 -.00437)"/><use xlink:href="#a" transform="rotate(94.755 71.383 69.619)scale(.00616 -.00616)"/><use xlink:href="#a" transform="matrix(.00796 .00523 .00523 -.00796 144.152 6)"/><use xlink:href="#a" transform="rotate(95.22 69.985 67.79)scale(.0071 -.0071)"/><use xlink:href="#a" transform="rotate(74.443 68.403 98.392)scale(-.00402 .00402)"/><use xlink:href="#a" transform="rotate(76.7 68.131 94.646)scale(-.00753 .00753)"/><use xlink:href="#a" transform="rotate(14.33 42.987 560.808)scale(.00813 -.00813)"/><use xlink:href="#a" transform="rotate(105.992 68.2 55.114)scale(.00559 -.00559)"/><use xlink:href="#a" transform="rotate(89.133 66.774 75.062)scale(-.00768 .00768)"/><use xlink:href="#a" transform="rotate(172.445 69.478 6.89)scale(.00683 -.00683)"/><use xlink:href="#a" transform="rotate(49.04 61.2 151.254)scale(.00768 -.00768)"/><use xlink:href="#a" transform="matrix(-.00462 .00232 .00232 .00462 136.39 4.827)"/><use xlink:href="#a" transform="rotate(-68.314 72.833 -96.56)scale(.00396 -.00396)"/><use xlink:href="#a" transform="matrix(-.004 .00537 .00537 .004 134.134 4.582)"/><use xlink:href="#a" transform="rotate(153.888 66.321 17.945)scale(.00486 -.00486)"/><use xlink:href="#a" transform="rotate(115.833 64.259 45.256)scale(-.0046 .0046)"/><use xlink:href="#a" transform="rotate(168.898 66.105 8.61)scale(.00866 -.00866)"/><use xlink:href="#a" transform="rotate(-74 67.83 -83.54)scale(-.00685 .00685)"/><use xlink:href="#a" transform="rotate(174.018 64.121 6.764)scale(-.0047 .0047)"/><use xlink:href="#a" transform="rotate(96.785 61.574 60.79)scale(-.0052 .0052)"/><use xlink:href="#a" transform="rotate(152.177 62.727 19.26)scale(-.00568 .00568)"/><use xlink:href="#a" transform="rotate(71.3 58.912 89.427)scale(.00803 -.00803)"/><use xlink:href="#a" transform="rotate(90.725 59.927 64.12)scale(.00386 -.00386)"/><use xlink:href="#a" transform="rotate(118.173 60.341 41.058)scale(-.00693 .00693)"/><use xlink:href="#a" transform="rotate(172.765 60.938 7.286)scale(-.0074 .0074)"/><use xlink:href="#a" transform="rotate(82.199 58.001 74.136)scale(-.00809 .00809)"/><use xlink:href="#a" transform="rotate(-128.444 62.37 -26.72)scale(.0046 -.0046)"/><use xlink:href="#a" transform="matrix(-.0036 .00362 .00362 .0036 120.178 4.2)"/><use xlink:href="#a" transform="matrix(-.0001 .00414 .00414 .0001 118.741 4.71)"/><use xlink:href="#a" transform="rotate(149.015 58.945 18.148)scale(.0088 -.0088)"/><use xlink:href="#a" transform="rotate(151.49 57.246 18.372)scale(-.00882 .00882)"/><use xlink:href="#a" transform="rotate(24.493 43.16 264.683)scale(.0084 -.0084)"/><use xlink:href="#a" transform="rotate(-177.032 57.615 .734)scale(.00415 -.00415)"/><use xlink:href="#a" transform="rotate(8.523 27.57 770.836)scale(-.00476 .00476)"/><use xlink:href="#a" transform="rotate(104.762 54.53 44.823)scale(.00738 -.00738)"/><use xlink:href="#a" transform="rotate(154.739 54.488 15.973)scale(-.00913 .00913)"/><use xlink:href="#a" transform="rotate(8.012 11.23 777.362)scale(.00769 -.00769)"/><use xlink:href="#a" transform="rotate(181.243 53.793 2.48)scale(-.00688 .00688)"/><use xlink:href="#a" transform="rotate(182.17 53.298 1.99)scale(-.00637 .00637)"/><use xlink:href="#a" transform="rotate(71.407 50.084 77.703)scale(-.00573 .00573)"/><use xlink:href="#a" transform="rotate(178.252 52.155 3.86)scale(-.00695 .00695)"/><use xlink:href="#a" transform="rotate(154.53 52.07 13.423)scale(.00831 -.00831)"/><use xlink:href="#a" transform="rotate(31.257 43.882 188.738)scale(-.00534 .00534)"/><use xlink:href="#a" transform="rotate(172.063 50.118 6.822)scale(-.00878 .00878)"/><use xlink:href="#a" transform="rotate(75.465 47.102 66.712)scale(.00464 -.00464)"/><use xlink:href="#a" transform="rotate(131.71 49.098 24.43)scale(.0041 -.0041)"/><use xlink:href="#a" transform="rotate(117.943 48.103 32.871)scale(-.00388 .00388)"/><use xlink:href="#a" transform="rotate(118.686 47.453 32.745)scale(-.00847 .00847)"/><use xlink:href="#a" transform="rotate(57.247 44.501 92.702)scale(-.0049 .0049)"/><use xlink:href="#a" transform="rotate(58.63 44.426 90.09)scale(-.00943 .00943)"/><use xlink:href="#a" transform="rotate(105.94 45.726 37.47)scale(.00487 -.00487)"/><use xlink:href="#a" transform="matrix(-.0088 .00125 .00125 .0088 94.96 3.268)"/><use xlink:href="#a" transform="rotate(160.127 45.601 11.028)scale(-.00422 .00422)"/><use xlink:href="#a" transform="matrix(.00125 -.0043 -.0043 -.00125 92.435 5.887)"/><use xlink:href="#a" transform="rotate(82.42 42.85 55.333)scale(-.00481 .00481)"/><use xlink:href="#a" transform="matrix(-.00264 .0051 .0051 .00264 89.846 3.704)"/><use xlink:href="#a" transform="matrix(.0015 -.0036 -.0036 -.0015 89.82 5.662)"/><use xlink:href="#a" transform="rotate(142.84 43.82 16.665)scale(.00608 -.00608)"/><use xlink:href="#a" transform="rotate(147.71 42.637 15.89)scale(-.00726 .00726)"/><use xlink:href="#a" transform="matrix(.00484 .0009 .0009 -.00484 85.564 5.558)"/><use xlink:href="#a" transform="rotate(90.423 40.38 45.804)scale(-.00461 .00461)"/><use xlink:href="#a" transform="matrix(-.00404 .00263 .00263 .00404 85.145 3.74)"/><use xlink:href="#a" transform="rotate(85.19 39.18 47.032)scale(.00669 -.00669)"/><use xlink:href="#a" transform="rotate(57.23 37.3 79.767)scale(-.00527 .00527)"/><use xlink:href="#a" transform="rotate(124.66 39.913 23.285)scale(.00601 -.00601)"/><use xlink:href="#a" transform="matrix(.00795 -.00382 -.00382 -.00795 80.14 7.06)"/><use xlink:href="#a" transform="matrix(-.00539 .00359 .00359 .00539 79.802 3.525)"/><use xlink:href="#a" transform="rotate(178.38 38.937 3.43)scale(-.00425 .00425)"/><use xlink:href="#a" transform="rotate(44.599 33.273 98.64)scale(-.00373 .00373)"/><use xlink:href="#a" transform="rotate(41.128 31.312 104.004)scale(.0048 -.0048)"/><use xlink:href="#a" transform="rotate(108.98 36.542 29.118)scale(.00473 -.00473)"/><use xlink:href="#a" transform="matrix(.0058 -.00553 -.00553 -.0058 75.379 6.99)"/><use xlink:href="#a" transform="rotate(56.293 32.684 73.09)scale(-.0042 .0042)"/><use xlink:href="#a" transform="matrix(-.00375 .0001 .0001 .00375 74.316 4.543)"/><use xlink:href="#a" transform="rotate(121.773 34.652 23.89)scale(-.00766 .00766)"/><use xlink:href="#a" transform="rotate(49.672 31.026 82.122)scale(-.00948 .00948)"/><use xlink:href="#a" transform="matrix(.00289 .0033 .0033 -.00289 69.166 5.106)"/><use xlink:href="#a" transform="matrix(.00871 .0014 .0014 -.00871 67.43 6.465)"/><use xlink:href="#a" transform="rotate(-141.786 35.359 -9.4)scale(.00405 -.00405)"/><use xlink:href="#a" transform="matrix(-.0037 -.00116 -.00116 .0037 68.162 4.894)"/><use xlink:href="#a" transform="rotate(-163.606 34.31 -2.715)scale(.00796 -.00796)"/><use xlink:href="#a" transform="rotate(-26.091 47.54 -135.78)scale(.00741 -.00741)"/><use xlink:href="#a" transform="rotate(65.713 28.128 53.586)scale(-.00682 .00682)"/><use xlink:href="#a" transform="matrix(-.00514 .002 .002 .00514 63.393 4.214)"/><use xlink:href="#a" transform="rotate(132.66 29.532 16.978)scale(-.00553 .00553)"/><use xlink:href="#a" transform="rotate(137.872 28.815 15.537)scale(-.00979 .00979)"/><use xlink:href="#a" transform="rotate(34.764 21.934 99.507)scale(-.00537 .00537)"/><use xlink:href="#a" transform="matrix(-.00378 .00336 .00336 .00378 58.625 4.455)"/><use xlink:href="#a" transform="matrix(.0038 0 0 -.0038 57.197 6.216)"/><use xlink:href="#a" transform="rotate(-52.038 32.9 -56.04)scale(-.00579 .00579)"/><use xlink:href="#a" transform="rotate(172.292 28.398 3.921)scale(.00933 -.00933)"/><use xlink:href="#a" transform="matrix(-.00229 .00927 .00927 .00229 53.011 3.753)"/><use xlink:href="#a" transform="matrix(.00094 .00575 .00575 -.00094 51.813 5.07)"/><use xlink:href="#a" transform="rotate(171.155 26.117 4.567)scale(.00383 -.00383)"/><use xlink:href="#a" transform="rotate(120.203 23.84 18.37)scale(-.00467 .00467)"/><use xlink:href="#a" transform="rotate(69.426 21.309 40.902)scale(-.00828 .00828)"/><use xlink:href="#a" transform="rotate(168.165 24.087 5.782)scale(-.00385 .00385)"/><use xlink:href="#a" transform="rotate(63.754 20.113 42.791)scale(-.0041 .0041)"/><use xlink:href="#a" transform="rotate(92.56 21.391 25.12)scale(.00372 -.00372)"/><use xlink:href="#a" transform="rotate(23.405 12.87 120.364)scale(-.00868 .00868)"/><use xlink:href="#a" transform="rotate(165.72 22.976 5.01)scale(.00578 -.00578)"/><use xlink:href="#a" transform="rotate(92.227 19.957 24.945)scale(-.00426 .00426)"/><use xlink:href="#a" transform="rotate(84.278 18.998 25.308)scale(.00878 -.00878)"/><use xlink:href="#a" transform="rotate(101.547 19.032 21.157)scale(-.00855 .00855)"/><use xlink:href="#a" transform="rotate(-168.143 21.5 -.334)scale(.00762 -.00762)"/><use xlink:href="#a" transform="rotate(114.642 18.145 16.277)scale(-.00882 .00882)"/><use xlink:href="#a" transform="rotate(71.86 16.03 28.284)scale(.00377 -.00377)"/><use xlink:href="#a" transform="matrix(.00108 .0078 .0078 -.00108 36.273 3.364)"/><use xlink:href="#a" transform="rotate(21.763 5.458 95.68)scale(.00416 -.00416)"/><use xlink:href="#a" transform="rotate(87.27 15.612 22.368)scale(-.00877 .00877)"/><use xlink:href="#a" transform="rotate(192.9 16.567 .84)scale(-.00864 .00864)"/><use xlink:href="#a" transform="matrix(-.00308 .00933 .00933 .00308 31.656 1.892)"/><use xlink:href="#a" transform="rotate(176.329 14.884 3.143)scale(-.00832 .00832)"/><use xlink:href="#a" transform="rotate(194.249 14.555 .49)scale(-.007 .007)"/><use xlink:href="#a" transform="rotate(148.724 14.236 5.475)scale(.0037 -.0037)"/><use xlink:href="#a" transform="rotate(73.334 11.922 21.613)scale(-.00377 .00377)"/><use xlink:href="#a" transform="matrix(.00376 .0082 .0082 -.00376 25.372 2.856)"/><use xlink:href="#a" transform="rotate(19.552 5.259 80.327)scale(-.00442 .00442)"/><use xlink:href="#a" transform="matrix(-.00268 .00277 .00277 .00268 25.536 2.48)"/><use xlink:href="#a" transform="rotate(189.955 11.684 1.213)scale(-.00828 .00828)"/><use xlink:href="#a" transform="rotate(-177.746 12.312 .624)scale(.00817 -.00817)"/><use xlink:href="#a" transform="matrix(.00788 -.0013 -.0013 -.00788 20.796 4.45)"/><use xlink:href="#a" transform="rotate(31.689 7.09 40.52)scale(-.0079 .0079)"/><use xlink:href="#a" transform="rotate(196.724 8.975 .498)scale(-.0086 .0086)"/><use xlink:href="#a" transform="rotate(59.926 7.095 17.863)scale(-.00369 .00369)"/><use xlink:href="#a" transform="rotate(44.542 6.19 23.89)scale(-.00453 .00453)"/><use xlink:href="#a" transform="rotate(186.216 7.856 1.26)scale(-.00596 .00596)"/><use xlink:href="#a" transform="matrix(.0041 .0073 .0073 -.0041 13.53 1.794)"/><use xlink:href="#a" transform="matrix(-.0056 .0041 .0041 .0056 14.381 .584)"/><use xlink:href="#a" transform="rotate(-170.586 7.061 .151)scale(.00393 -.00393)"/><use xlink:href="#a" transform="rotate(103.425 5.599 5.218)scale(.00464 -.00464)"/><use xlink:href="#a" transform="rotate(99.046 4.967 4.604)scale(.00834 -.00834)"/><use xlink:href="#a" transform="rotate(68.991 3.637 7.35)scale(.0053 -.0053)"/><use xlink:href="#a" transform="rotate(170.466 5.003 .902)scale(.00368 -.00368)"/><use xlink:href="#a" transform="rotate(93.651 3.77 4.415)scale(.00367 -.00367)"/><use xlink:href="#a" transform="rotate(80.043 3.346 6.484)scale(-.00423 .00423)"/><use xlink:href="#a" transform="rotate(140.702 3.091 2.84)scale(-.0067 .0067)"/><use xlink:href="#a" transform="rotate(-159.83 3.98 -.47)scale(.0078 -.0078)"/><use xlink:href="#a" transform="rotate(145.206 2.66 .924)scale(.00465 -.00465)"/><use xlink:href="#a" transform="rotate(160.977 2.556 .339)scale(.00714 -.00714)"/><use xlink:href="#a" transform="rotate(-144.395 3.03 .201)scale(.00563 -.00563)"/><use xlink:href="#a" transform="rotate(89.135 .29 4.334)scale(-.00493 .00493)"/><use xlink:href="#a" transform="rotate(72.992 -.925 6.24)scale(-.00931 .00931)"/><use xlink:href="#a" transform="rotate(171.636 .603 3.703)scale(-.00838 .00838)"/><use xlink:href="#a" transform="matrix(-.0039 .00055 .00055 .0039 3.146 5.935)"/><use xlink:href="#a" transform="rotate(-73.56 7.061 2.218)scale(.00484 -.00484)"/><use xlink:href="#a" transform="rotate(73.13 -4.29 6.541)scale(-.00532 .00532)"/><use xlink:href="#a" transform="rotate(69.927 -5.325 6.645)scale(-.00454 .00454)"/><use xlink:href="#a" transform="rotate(262.155 4.03 4.328)scale(-.0066 .0066)"/><use xlink:href="#a" transform="rotate(52.468 -9.85 7.875)scale(-.00513 .00513)"/><use xlink:href="#a" transform="rotate(-99.784 6.121 5.29)scale(.00497 -.00497)"/><use xlink:href="#a" transform="rotate(-76.711 8.86 5.719)scale(.00386 -.00386)"/><use xlink:href="#a" transform="rotate(162.939 -.06 5.965)scale(.00624 -.00624)"/><use xlink:href="#a" transform="rotate(162.017 .077 6.43)scale(.00704 -.00704)"/><use xlink:href="#a" transform="rotate(-74.787 11.427 6.432)scale(.00432 -.00432)"/><use xlink:href="#a" transform="rotate(123.221 -2.968 7.71)scale(.00508 -.00508)"/><use xlink:href="#a" transform="rotate(-143.041 4.392 7.456)scale(.0038 -.0038)"/><use xlink:href="#a" transform="matrix(-.0043 -.00236 -.00236 .0043 3.83 16.567)"/><use xlink:href="#a" transform="rotate(100.958 -5.91 11.62)scale(-.0088 .0088)"/><use xlink:href="#a" transform="rotate(239.286 6.335 8.794)scale(-.0083 .0083)"/><use xlink:href="#a" transform="rotate(184.07 2.114 10.41)scale(-.00484 .00484)"/><use xlink:href="#a" transform="rotate(-50.08 23.028 4.56)scale(-.00753 .00753)"/><use xlink:href="#a" transform="matrix(-.00552 .00105 .00105 .00552 6.11 20.948)"/><use xlink:href="#a" transform="rotate(159.771 .277 13.06)scale(-.0096 .0096)"/><use xlink:href="#a" transform="rotate(-138.994 8.359 10.7)scale(.00546 -.00546)"/><use xlink:href="#a" transform="rotate(-68.238 21.001 7.373)scale(-.00436 .00436)"/><use xlink:href="#a" transform="rotate(199.731 5.18 12.84)scale(-.0073 .0073)"/><use xlink:href="#a" transform="matrix(.0073 .00233 .00233 -.0073 6.09 27.952)"/><use xlink:href="#a" transform="matrix(.00494 .0041 .0041 -.00494 6.74 28.298)"/><use xlink:href="#a" transform="matrix(-.0057 .00347 .00347 .0057 9.009 27.625)"/><use xlink:href="#a" transform="rotate(-23.832 78.37 -4.758)scale(.0055 -.0055)"/><use xlink:href="#a" transform="rotate(176.14 3.538 15.928)scale(-.00426 .00426)"/><use xlink:href="#a" transform="rotate(185.397 4.613 15.787)scale(-.0037 .0037)"/><use xlink:href="#a" transform="rotate(-39.468 46.656 3.794)scale(-.00744 .00744)"/><use xlink:href="#a" transform="matrix(-.0034 -.0046 -.0046 .0034 9.02 33.463)"/><use xlink:href="#a" transform="matrix(.00416 .00086 .00086 -.00416 6.72 34.67)"/><use xlink:href="#a" transform="matrix(-.0028 -.00235 -.00235 .0028 8.116 34.629)"/><use xlink:href="#a" transform="rotate(22.25 -90.54 30.398)scale(.00932 -.00932)"/><use xlink:href="#a" transform="rotate(168.36 1.754 18.2)scale(.00629 -.00629)"/><use xlink:href="#a" transform="rotate(-161.76 6.683 18.015)scale(.00664 -.00664)"/><use xlink:href="#a" transform="rotate(-87.641 24.605 16.718)scale(.00887 -.00887)"/><use xlink:href="#a" transform="matrix(-.00171 .00712 .00712 .00171 4.137 38.94)"/><use xlink:href="#a" transform="matrix(-.00536 .00322 .00322 .00536 4.886 39.987)"/><use xlink:href="#a" transform="matrix(.00395 .0018 .0018 -.00395 3.568 42.528)"/><use xlink:href="#a" transform="rotate(-86.201 26.691 18.173)scale(.00798 -.00798)"/><use xlink:href="#a" transform="rotate(247.83 16.407 18.9)scale(-.00825 .00825)"/><use xlink:href="#a" transform="rotate(-73.288 32.86 15.744)scale(.00388 -.00388)"/><use xlink:href="#a" transform="rotate(-62.689 39.99 14.177)scale(.00523 -.00523)"/><use xlink:href="#a" transform="matrix(-.00544 .006 .006 .00544 9.64 39.859)"/><use xlink:href="#a" transform="matrix(.00176 .0042 .0042 -.00176 9.823 41.428)"/><use xlink:href="#a" transform="rotate(70.127 -23.636 30.47)scale(-.0063 .0063)"/><use xlink:href="#a" transform="matrix(-.0026 -.0026 -.0026 .0026 13.407 41.75)"/><use xlink:href="#a" transform="rotate(66.437 -24.775 32.627)scale(-.00724 .00724)"/><use xlink:href="#a" transform="rotate(109.865 -7.1 24.91)scale(.00729 -.00729)"/><use xlink:href="#a" transform="rotate(-40.885 66.695 .545)scale(.0093 -.0093)"/><use xlink:href="#a" transform="rotate(94.112 -10.67 27.995)scale(.0045 -.0045)"/><use xlink:href="#a" transform="rotate(160.44 5.97 21.633)scale(.00703 -.00703)"/><use xlink:href="#a" transform="rotate(-81.205 34.98 9.525)scale(.00664 -.00664)"/><use xlink:href="#a" transform="rotate(64.286 -22.156 38.455)scale(-.00746 .00746)"/><use xlink:href="#a" transform="rotate(37.3 -51.237 50.619)scale(.00593 -.00593)"/><use xlink:href="#a" transform="matrix(-.00373 -.0004 -.0004 .00373 23.054 40.65)"/><use xlink:href="#a" transform="rotate(131.655 2.805 24.813)scale(.0079 -.0079)"/><use xlink:href="#a" transform="rotate(163.176 9.918 21.533)scale(.0086 -.0086)"/><use xlink:href="#a" transform="rotate(31.4 -61.228 64.13)scale(.00684 -.00684)"/><use xlink:href="#a" transform="rotate(54.008 -26.18 48.6)scale(-.00622 .00622)"/><use xlink:href="#a" transform="matrix(-.0072 -.00162 -.00162 .0072 29.668 39.987)"/><use xlink:href="#a" transform="rotate(68.6 -15.487 40.862)scale(.0047 -.0047)"/><use xlink:href="#a" transform="rotate(-78.52 40.698 2.089)scale(.0044 -.0044)"/><use xlink:href="#a" transform="rotate(78.385 -9.705 38.052)scale(.00726 -.00726)"/><use xlink:href="#a" transform="rotate(159.477 12.624 22.774)scale(.00495 -.00495)"/><use xlink:href="#a" transform="rotate(-88.726 37.792 3.595)scale(.004 -.004)"/><use xlink:href="#a" transform="rotate(111.772 3.106 30.925)scale(.00508 -.00508)"/><use xlink:href="#a" transform="rotate(112.156 3.414 32.966)scale(-.00763 .00763)"/><use xlink:href="#a" transform="matrix(-.00414 .003 .003 .00414 35.746 39.222)"/><use xlink:href="#a" transform="rotate(81.475 -5.417 40.597)scale(.00443 -.00443)"/><use xlink:href="#a" transform="rotate(-126.704 29.86 10.459)scale(.0082 -.0082)"/><use xlink:href="#a" transform="matrix(.00925 .00144 .00144 -.00925 37.13 41.623)"/><use xlink:href="#a" transform="matrix(-.00492 .00586 .00586 .00492 40.11 38.33)"/><use xlink:href="#a" transform="rotate(-129.167 31.21 9.842)scale(.00748 -.00748)"/><use xlink:href="#a" transform="rotate(165.2 18.218 23.644)scale(-.00924 .00924)"/><use xlink:href="#a" transform="rotate(77 -3.145 46.757)scale(.005 -.005)"/><use xlink:href="#a" transform="rotate(144.855 16.488 26.514)scale(.00572 -.00572)"/><use xlink:href="#a" transform="rotate(62.339 -9.518 59.722)scale(-.0075 .0075)"/><use xlink:href="#a" transform="rotate(-65.092 55.676 -16.8)scale(.00437 -.00437)"/><use xlink:href="#a" transform="matrix(.00321 .002 .002 -.00321 46.922 40.015)"/><use xlink:href="#a" transform="rotate(-171.345 26.06 17.774)scale(.0039 -.0039)"/><use xlink:href="#a" transform="matrix(.00203 .0049 .0049 -.00203 48.028 39.177)"/><use xlink:href="#a" transform="rotate(202.53 28.512 15.195)scale(-.00458 .00458)"/><use xlink:href="#a" transform="matrix(-.0001 .0038 .0038 .0001 50.09 39.075)"/><use xlink:href="#a" transform="rotate(63.365 -6.18 62.399)scale(-.0044 .0044)"/><use xlink:href="#a" transform="rotate(227.861 34.24 8.436)scale(-.00527 .00527)"/><use xlink:href="#a" transform="rotate(131.35 17.38 32.739)scale(-.00806 .00806)"/><use xlink:href="#a" transform="rotate(162.18 23.798 24.294)scale(-.00364 .00364)"/><use xlink:href="#a" transform="rotate(-178.048 28.359 18.78)scale(.00589 -.00589)"/><use xlink:href="#a" transform="rotate(86.813 7.394 51.166)scale(-.00968 .00968)"/><use xlink:href="#a" transform="matrix(-.0012 .0078 .0078 .0012 56.708 37.787)"/><use xlink:href="#a" transform="rotate(34.852 -32.476 114.51)scale(-.00363 .00363)"/><use xlink:href="#a" transform="rotate(15.49 -118.33 233.75)scale(.00795 -.00795)"/><use xlink:href="#a" transform="rotate(92.684 11.688 49.15)scale(-.00383 .00383)"/><use xlink:href="#a" transform="rotate(82.174 8.378 53.43)scale(.00831 -.00831)"/><use xlink:href="#a" transform="matrix(-.0047 .00836 .00836 .0047 62.586 37.005)"/><use xlink:href="#a" transform="matrix(-.0048 .00237 .00237 .0048 64.849 38.062)"/><use xlink:href="#a" transform="rotate(-140.848 40.05 7.734)scale(.00416 -.00416)"/><use xlink:href="#a" transform="rotate(179.184 32.323 20.638)scale(-.0085 .0085)"/><use xlink:href="#a" transform="rotate(148.859 28.801 28.234)scale(.00758 -.00758)"/><use xlink:href="#a" transform="matrix(-.00135 .0043 .0043 .00135 68.15 38.563)"/><use xlink:href="#a" transform="rotate(175.883 34.982 20.139)scale(.0098 -.0098)"/><use xlink:href="#a" transform="rotate(122.656 24.576 40.187)scale(-.00746 .00746)"/><use xlink:href="#a" transform="rotate(142.396 29.109 33.181)scale(-.00927 .00927)"/><use xlink:href="#a" transform="rotate(85.624 15.53 58.888)scale(.00398 -.00398)"/><use xlink:href="#a" transform="rotate(93.747 18.654 55.504)scale(-.00483 .00483)"/><use xlink:href="#a" transform="rotate(90.358 17.999 58.229)scale(-.00573 .00573)"/><use xlink:href="#a" transform="rotate(2.139 -1008.8 2079.67)scale(-.0042 .0042)"/><use xlink:href="#a" transform="rotate(-177.336 39.72 18.28)scale(.00782 -.00782)"/><use xlink:href="#a" transform="rotate(95.111 21.072 54.683)scale(.00649 -.00649)"/><use xlink:href="#a" transform="rotate(158.81 36.454 26.687)scale(.00657 -.00657)"/><use xlink:href="#a" transform="rotate(150.608 34.718 30.882)scale(-.00394 .00394)"/><use xlink:href="#a" transform="matrix(-.0028 -.0024 -.0024 .0028 81.847 39.91)"/><use xlink:href="#a" transform="rotate(-164.725 44.013 14.13)scale(.00509 -.00509)"/><use xlink:href="#a" transform="rotate(-136.949 50.12 3.281)scale(.00745 -.00745)"/><use xlink:href="#a" transform="rotate(174.13 40.428 22.769)scale(-.00661 .00661)"/><use xlink:href="#a" transform="rotate(87.195 21.584 65.784)scale(-.00674 .00674)"/><use xlink:href="#a" transform="matrix(-.0061 .00175 .00175 .0061 86.84 38.733)"/><use xlink:href="#a" transform="rotate(211.41 48.424 8.37)scale(-.00887 .00887)"/><use xlink:href="#a" transform="matrix(.00217 .00954 .00954 -.00217 87 39.071)"/><use xlink:href="#a" transform="matrix(-.00102 .00443 .00443 .00102 89.572 39.36)"/><use xlink:href="#a" transform="rotate(131.15 36.121 41.724)scale(-.00766 .00766)"/><use xlink:href="#a" transform="rotate(173.798 44.665 22.978)scale(-.00411 .00411)"/><use xlink:href="#a" transform="matrix(.0028 -.00252 -.00252 -.0028 92.76 41.266)"/><use xlink:href="#a" transform="rotate(-177.262 47.924 18.442)scale(.00708 -.00708)"/><use xlink:href="#a" transform="matrix(.0041 .00294 .00294 -.0041 93.543 40.662)"/><use xlink:href="#a" transform="rotate(154.765 43.714 30.286)scale(.00654 -.00654)"/><use xlink:href="#a" transform="rotate(134.325 39.517 41.732)scale(-.00868 .00868)"/><use xlink:href="#a" transform="rotate(198.058 51.574 13.049)scale(-.00887 .00887)"/><use xlink:href="#a" transform="rotate(141.993 43.45 36.499)scale(.00945 -.00945)"/><use xlink:href="#a" transform="rotate(184.042 50.677 19.25)scale(-.00919 .00919)"/><use xlink:href="#a" transform="rotate(68.93 21.425 93.5)scale(.00959 -.00959)"/><use xlink:href="#a" transform="rotate(178.804 52.21 20.616)scale(.00415 -.00415)"/><use xlink:href="#a" transform="rotate(92.188 33.036 72.668)scale(-.00977 .00977)"/><use xlink:href="#a" transform="rotate(-105.21 70 -20.447)scale(.00678 -.00678)"/><use xlink:href="#a" transform="rotate(153.39 48.7 33.69)scale(-.00456 .00456)"/><use xlink:href="#a" transform="rotate(57.015 16.703 121.341)scale(-.00436 .00436)"/><use xlink:href="#a" transform="rotate(-156.161 59.31 8.664)scale(.00432 -.00432)"/><use xlink:href="#a" transform="rotate(136.998 46.596 43.194)scale(-.00839 .00839)"/><use xlink:href="#a" transform="rotate(74.248 28.387 92.73)scale(.00773 -.00773)"/><use xlink:href="#a" transform="rotate(167.915 53.598 27.458)scale(-.00974 .00974)"/><use xlink:href="#a" transform="rotate(40.642 2.734 177.511)scale(-.0079 .0079)"/><use xlink:href="#a" transform="rotate(125.31 47.223 49.952)scale(.00464 -.00464)"/><use xlink:href="#a" transform="rotate(214.405 64.053 2.945)scale(-.0043 .0043)"/><use xlink:href="#a" transform="rotate(160.34 54.479 31.719)scale(-.00885 .00885)"/><use xlink:href="#a" transform="rotate(171.837 57.328 25.527)scale(-.00645 .00645)"/><use xlink:href="#a" transform="rotate(46.069 11.707 162.581)scale(-.00486 .00486)"/><use xlink:href="#a" transform="rotate(140.336 52.447 42.975)scale(-.00489 .00489)"/><use xlink:href="#a" transform="rotate(159.829 57.1 31.121)scale(.00382 -.00382)"/><use xlink:href="#a" transform="rotate(208.296 65.696 5.64)scale(-.0037 .0037)"/><use xlink:href="#a" transform="rotate(-173.56 62.808 16.904)scale(.00501 -.00501)"/><use xlink:href="#a" transform="rotate(108.721 47.078 63.797)scale(.00954 -.00954)"/><use xlink:href="#a" transform="rotate(193.707 64.516 13.628)scale(-.00392 .00392)"/><use xlink:href="#a" transform="rotate(-166.537 65.661 13.066)scale(.005 -.005)"/><use xlink:href="#a" transform="rotate(77.555 37.598 101.52)scale(-.00968 .00968)"/><use xlink:href="#a" transform="matrix(.0033 -.00437 -.00437 -.0033 128.161 43.1)"/><use xlink:href="#a" transform="rotate(110.332 49.771 66.48)scale(-.00532 .00532)"/><use xlink:href="#a" transform="rotate(117.499 52.006 61.2)scale(-.00637 .00637)"/><use xlink:href="#a" transform="rotate(-134.152 75.04 -7.062)scale(.00632 -.00632)"/><use xlink:href="#a" transform="rotate(149.796 59.99 39.204)scale(-.00492 .00492)"/><use xlink:href="#a" transform="rotate(84.498 43.446 95.148)scale(-.00656 .00656)"/><use xlink:href="#a" transform="rotate(178.306 66.888 21.595)scale(.00435 -.00435)"/><use xlink:href="#a" transform="matrix(.004 -.00075 -.00075 -.004 133.87 42.812)"/><use xlink:href="#a" transform="rotate(109.668 52.86 67.956)scale(.00476 -.00476)"/><use xlink:href="#a" transform="rotate(91.804 47.534 86.227)scale(.00396 -.00396)"/><use xlink:href="#a" transform="rotate(141.132 60.56 46.293)scale(-.00942 .00942)"/><use xlink:href="#a" transform="rotate(-163.11 72.573 10.563)scale(.00415 -.00415)"/><use xlink:href="#a" transform="rotate(130.58 59.965 52.389)scale(.00512 -.00512)"/><use xlink:href="#a" transform="rotate(59.108 32.38 142.387)scale(.00935 -.00935)"/><use xlink:href="#a" transform="rotate(58.942 33.823 147.092)scale(-.00493 .00493)"/><use xlink:href="#a" transform="rotate(180.398 70.616 21.377)scale(-.0073 .0073)"/><use xlink:href="#a" transform="rotate(212.87 77.371 .05)scale(-.00382 .00382)"/><use xlink:href="#a" transform="rotate(100.09 54.523 80.358)scale(.00627 -.00627)"/><use xlink:href="#a" transform="matrix(.0007 .0037 .0037 -.0007 144.141 41.337)"/><use xlink:href="#a" transform="rotate(33.51 4.456 264.858)scale(-.00568 .00568)"/><use xlink:href="#a" transform="rotate(154.837 69.114 36.585)scale(.0068 -.0068)"/><use xlink:href="#a" transform="rotate(92.338 53.844 92.346)scale(-.0043 .0043)"/><use xlink:href="#a" transform="rotate(108.728 59.287 75.337)scale(-.00896 .00896)"/><use xlink:href="#a" transform="rotate(161.429 72.324 32.136)scale(.00893 -.00893)"/><use xlink:href="#a" transform="rotate(102.824 59.292 80.218)scale(.00664 -.00664)"/><use xlink:href="#a" transform="rotate(123.23 64.856 62.456)scale(-.00432 .00432)"/><use xlink:href="#a" transform="matrix(-.00164 .0044 .0044 .00164 152.7 40.38)"/><use xlink:href="#a" transform="rotate(106.113 61.38 79.418)scale(-.00581 .00581)"/><use xlink:href="#a" transform="rotate(56.845 38.97 161.998)scale(.00848 -.00848)"/><use xlink:href="#a" transform="rotate(80.711 54.016 111.18)scale(.0084 -.0084)"/><use xlink:href="#a" transform="rotate(139.113 71.387 49.444)scale(.00404 -.00404)"/><use xlink:href="#a" transform="rotate(93.459 60.017 96.562)scale(-.0084 .0084)"/><use xlink:href="#a" transform="matrix(-.0041 .0007 .0007 .0041 160.295 40.117)"/><use xlink:href="#a" transform="rotate(177.794 79.47 22.359)scale(-.00471 .00471)"/><use xlink:href="#a" transform="rotate(-155.121 86.205 1.987)scale(.00896 -.00896)"/><use xlink:href="#a" transform="rotate(121.41 70.032 65.527)scale(.00367 -.00367)"/><use xlink:href="#a" transform="rotate(81.543 58.002 114.003)scale(.007 -.007)"/><use xlink:href="#a" transform="rotate(139.324 74.47 51.779)scale(-.00822 .00822)"/><use xlink:href="#a" transform="rotate(173.474 81.448 25.443)scale(-.00418 .00418)"/><use xlink:href="#a" transform="rotate(94.463 64.504 96.663)scale(.0044 -.0044)"/><use xlink:href="#a" transform="rotate(119.47 71.696 69.636)scale(-.00447 .00447)"/><use xlink:href="#a" transform="rotate(191.626 85.68 12.082)scale(-.00465 .00465)"/><use xlink:href="#a" transform="rotate(143.836 77.512 48.817)scale(-.00888 .00888)"/><use xlink:href="#a" transform="rotate(43.897 34.063 229.3)scale(.00946 -.00946)"/><use xlink:href="#a" transform="rotate(33.829 18.598 300.873)scale(.00586 -.00586)"/><use xlink:href="#a" transform="rotate(167.975 83.871 29.913)scale(-.00803 .00803)"/><use xlink:href="#a" transform="rotate(215.763 92.89 -7.638)scale(-.00734 .00734)"/><use xlink:href="#a" transform="rotate(135.315 79.232 56.847)scale(-.00596 .00596)"/><use xlink:href="#a" transform="rotate(176.63 88.585 21.728)scale(.00964 -.00964)"/><use xlink:href="#a" transform="rotate(164.688 85.868 32.756)scale(-.00925 .00925)"/><use xlink:href="#a" transform="rotate(137.887 82.74 53.496)scale(.00905 -.00905)"/><use xlink:href="#a" transform="rotate(159.166 87.074 36.164)scale(.00368 -.00368)"/><use xlink:href="#a" transform="matrix(.0017 .00462 .00462 -.0017 180.63 39.134)"/><use xlink:href="#a" transform="rotate(159.49 87.871 35.99)scale(.00384 -.00384)"/><use xlink:href="#a" transform="rotate(195.328 93.8 7.758)scale(-.00438 .00438)"/><use xlink:href="#a" transform="rotate(137.496 84.46 55.034)scale(.00487 -.00487)"/><use xlink:href="#a" transform="rotate(178.987 92.475 20.216)scale(.0042 -.0042)"/><use xlink:href="#a" transform="rotate(159.133 88.632 37.727)scale(-.00873 .00873)"/><use xlink:href="#a" transform="rotate(71.897 66.644 150.213)scale(-.00782 .00782)"/><use xlink:href="#a" transform="matrix(-.0033 .00224 .00224 .0033 188.22 38.48)"/><use xlink:href="#a" transform="rotate(67.143 64.902 162.781)scale(-.00432 .00432)"/><use xlink:href="#a" transform="matrix(.00308 .0029 .0029 -.00308 188.472 39.388)"/><use xlink:href="#a" transform="rotate(89.716 75.607 116.953)scale(-.00945 .00945)"/><use xlink:href="#a" transform="matrix(.0025 .0029 .0029 -.0025 190.808 39.19)"/><use xlink:href="#a" transform="matrix(-.0072 .00406 .00406 .0072 193.155 37.144)"/><use xlink:href="#a" transform="rotate(34.628 34.4 325.938)scale(.00452 -.00452)"/><use xlink:href="#a" transform="rotate(29.03 27.349 393.563)scale(-.00946 .00946)"/><use xlink:href="#a" transform="rotate(26.341 22.138 430.938)scale(-.00711 .00711)"/><use xlink:href="#a" transform="matrix(.004 .00151 .00151 -.004 190.841 34.968)"/><use xlink:href="#a" transform="rotate(47.418 58.03 236.535)scale(-.0061 .0061)"/><use xlink:href="#a" transform="rotate(162.263 92.82 31.827)scale(-.00533 .00533)"/><use xlink:href="#a" transform="rotate(41.614 52.906 266.13)scale(.00477 -.00477)"/><use xlink:href="#a" transform="rotate(97.053 82.005 98.261)scale(.00985 -.00985)"/><use xlink:href="#a" transform="rotate(56.167 67.335 192.484)scale(.00451 -.00451)"/><use xlink:href="#a" transform="rotate(141.127 90.43 47.68)scale(.00365 -.00365)"/><use xlink:href="#a" transform="rotate(59.316 70.183 179.282)scale(.0085 -.0085)"/><use xlink:href="#a" transform="rotate(114.294 86.892 73.38)scale(.0094 -.0094)"/><use xlink:href="#a" transform="rotate(-165.613 97.179 .157)scale(.00585 -.00585)"/><use xlink:href="#a" transform="matrix(.0028 .00551 .00551 -.0028 188.529 23.79)"/><use xlink:href="#a" transform="rotate(137.69 90.195 49.104)scale(-.00668 .00668)"/><use xlink:href="#a" transform="rotate(51.508 71.68 207.42)scale(.00396 -.00396)"/><use xlink:href="#a" transform="rotate(155.943 92.67 31.557)scale(-.00436 .00436)"/><use xlink:href="#a" transform="rotate(116.755 89.251 67.94)scale(.00811 -.00811)"/><use xlink:href="#a" transform="rotate(118.159 89.644 66.49)scale(.00363 -.00363)"/><use xlink:href="#a" transform="rotate(70.82 82.859 145.658)scale(-.0097 .0097)"/><use xlink:href="#a" transform="rotate(93.492 87.566 99.716)scale(-.0066 .0066)"/><use xlink:href="#a" transform="rotate(-171.194 97.065 .163)scale(.0069 -.0069)"/><use xlink:href="#a" transform="matrix(-.0044 .00022 .00022 .0044 192.7 14.495)"/><use xlink:href="#a" transform="matrix(.0025 -.006 -.006 -.0025 192.853 15.788)"/><use xlink:href="#a" transform="rotate(72.9 86.95 136.136)scale(.00458 -.00458)"/><use xlink:href="#a" transform="rotate(122.746 92.59 59.54)scale(-.0054 .0054)"/><use xlink:href="#a" transform="rotate(32.55 75.04 333.893)scale(.005 -.005)"/><use xlink:href="#a" transform="rotate(83.36 90.075 112.84)scale(.00473 -.00473)"/><use xlink:href="#a" transform="rotate(41.799 83.468 258.607)scale(-.00422 .00422)"/><use xlink:href="#a" transform="rotate(88.56 91.417 104.873)scale(-.00808 .00808)"/><defs><path id="a" fill="#000" d="M215.823 333.963c0-.733.3-1.033.667-.667a.95.95 0 0 1 0 1.334c-.367.366-.667.066-.667-.667M143.424 3.977c4.632-.653 8.099 4.826 5.302 8.382-1.951 2.48-2.551 5.604-1.078 5.604.905.004 11.175 12.34 11.175 13.423 0 1.076-4.344 5.111-6.316 5.868-1.898.728-1.434 2.71.633 2.71.661 0 1.78.924 2.486 2.056 1.284 2.054 1.286 2.054 2.991.057.938-1.1 2.606-2.139 3.706-2.307s2.33-.757 2.734-1.307c.415-.565.741-.238.75.75.018 2.14.447 2.169 3.408.229 1.623-1.063 2.19-2.212 1.884-3.81-1.049-5.489 4.864-5.512 14.402-.058 5.289 3.024 5.527 3.005 7.663-.61 3.023-5.119 9.966-1.694 8.152 4.02-.515 1.623-.183 2.247 1.417 2.666 1.15.3 2.09.945 2.09 1.43.001.485.9.883 2 .883 2.405 0 2.51-.633.446-2.697-1.937-1.936-1.511-6.247.756-7.667 2.444-1.53 3.085-.336 1.976 3.68-.844 3.057-.725 3.569.927 4 1.042.274 1.895 1.215 1.895 2.09.001 2.117 3.922 2.083 5.479-.046 1.634-2.235 4.962-.366 4.996 2.806.022 2.026.585 2.375 4.275 2.641 3.903.283 4.25.113 4.25-2.089q0-2.397 2.547-3.556c5.794-2.64 9.087-.056 7.912 6.206-.627 3.341-.627 3.341 7.125 4.043 13.323 1.209 21.701 9.211 10.916 10.427-1.65.187-3.533.779-4.183 1.316-.772.639-2.504.61-5-.082-4.664-1.295-5.317-1.318-5.317-.18 0 .89 3.547 2.107 7.692 2.639 3.814.489 4.527 1.472 3.864 5.335-1.584 9.224-1.538 9.134-4.694 9.134-1.732 0-2.721-.419-2.362-1 .34-.55.194-1-.324-1-.519 0-1.178-.9-1.466-2-.316-1.208-1.364-2-2.648-2-1.169 0-2.425-.787-2.793-1.75-.688-1.803-.846-2.03-4.339-6.25-2.069-2.5-2.069-2.5-1.491.21.443 2.079.097 2.968-1.49 3.817-3.053 1.634-2.358 6.6.861 6.15 1.27-.178 2.952.21 3.737.862.841.698 2.53.908 4.115.51 2.465-.619 2.57-.53 1.263 1.08-.904 1.113-.968 1.48-.175 1.004 1.207-.725 1.687.683 1.482 4.336-.045.808 1.226 3.249 2.826 5.425 2.411 3.278 2.808 4.595 2.313 7.686-.499 3.124-.251 3.915 1.528 4.868 1.738.93 1.934 1.496 1.067 3.115-.582 1.088-.743 2.489-.358 3.114 1.359 2.199-6.627-.001-11.342-3.124-8.698-5.762-10.731-2.813-8.924 12.947.221 1.925-.023 4.035-.543 4.69-2.291 2.887-.482 6.804 3.201 6.932 1.925.067 3.95.231 4.5.365s1.77.166 2.711.072c2.294-.23 5.828 1.736 5.529 3.076-.429 1.92 7.577 1.339 13.716-.996 3.275-1.246 6.763-2.054 7.75-1.795 1.097.287 1.794-.077 1.794-.937 0-.773-.9-1.407-2-1.407-2.468 0-2.532-1.121-.227-3.967 1.774-2.19 1.774-2.191 3.655-.112 3.099 3.423 8.159.85 5.79-2.944-.993-1.589-.581-2.041 3.321-3.645 2.449-1.007 4.455-2.169 4.457-2.582s.443-.75.979-.75c1.288 0 .183 5.855-1.664 8.817-1.092 1.751-1.167 2.651-.309 3.686 1.283 1.545-.226 5.368-2.692 6.822-.804.474-1.149 1.608-.812 2.669.406 1.279-.025 2.039-1.405 2.477-1.193.378-1.772 1.202-1.445 2.054.599 1.563-1.168 3.716-3.898 4.75-.962.364-1.75 1.619-1.75 2.789 0 2.226-3.33 7.595-5.963 9.615-1.366 1.047-1.342 1.254.215 1.857 1.184.459 2.39-.086 3.717-1.678 2.104-2.526 2.666-1.913 1.038 1.131-.844 1.574-.541 1.954 2 2.512 3.869.85 4.064 4.832.493 10.094-3.324 4.898-3.182 6.036 1.488 11.905 2.188 2.75 5.447 7.129 7.244 9.732 2.93 4.244 6.768 6.38 6.768 3.768 0-.55 1.035-1 2.3-1s2.746-.446 3.29-.99c.62-.62 2.15-.657 4.088-.101 2.392.686 3.469.516 4.728-.744 4.803-4.802 6.925 3.04 2.546 9.405-3.724 5.412-1.48 4.855 3.795-.941 1.786-1.963 3.851-3.336 4.59-3.052.738.282 1.92-.181 2.625-1.031 1.934-2.33 4.935-1.866 6.224.963 1.583 3.475-.177 6.436-7.813 13.14-6.161 5.409-6.161 5.409-3.267 8.303q6.73 6.731-2.936 8.665c-2.37.473-3.292.23-3.762-.995-.888-2.314-2.696-2.009-5.448.92-2.037 2.169-2.206 2.834-1.151 4.523 1.864 2.986.028 5.71-3.506 5.2-4.597-.663-9.708 5.273-8.219 9.547.611 1.753 1.63 3.202 2.264 3.219s.361.49-.606 1.054c-.967.563-2.166.771-2.665.463-.498-.308-1.136-.096-1.417.471-.28.567-.375.457-.21-.244a1.32 1.32 0 0 1 1.594-.969c1.051.249 1.054.018.019-1.229-.82-.989-2.396-1.39-4.419-1.124a92 92 0 0 1-6.144.558c-1.65.081-2.437.374-1.75.651.688.279 1.25 1.087 1.25 1.799s.675 1.854 1.5 2.539c5.107 4.238-.167 9.564-11.856 11.977-5.805 1.198-5.851 1.236-5.25 4.241.333 1.668.606 4.11.606 5.428 0 1.565.84 2.78 2.421 3.5 1.427.65 2.204 1.669 1.892 2.481-1.315 3.427.629 6.545 3.665 5.878 3.965-.871 7.62 1.069 5.906 3.134-.684.825-2.082 1.281-3.105 1.013-1.464-.382-1.732-.077-1.254 1.431.545 1.717.081 1.917-4.459 1.917-5.146 0-6.794-1.89-2.64-3.028 2.787-.763 3.151-3.008.595-3.677-1.452-.379-1.789-.821-.999-1.309 1.624-1.003.253-6.985-1.601-6.986-.782 0-1.421-.392-1.421-.872s-1.851-1.168-4.114-1.53c-2.276-.364-4.845-1.556-5.75-2.669-1.563-1.921-1.645-1.764-1.848 3.531-.199 5.212-.072 5.54 2.143 5.54 5.607 0 3.707 7.564-2.136 8.502-2.087.335-5.28 1.263-7.096 2.062-2.486 1.094-3.803 1.183-5.335.363-2.367-1.266-3.36-.663-2.519 1.53.326.849 1.676 1.543 3.001 1.543 3.904 0 5.075 2.286 3.115 6.077-1.665 3.218-1.666 3.218-13.063 2.607s-11.398-.611-11.398 2.418c0 8.621-10.579 8.949-12.836.398-1.025-3.886-7.44-4.574-7.971-.856-.417 2.928-5.229 3.934-5.933 1.241-.544-2.077-1.366-2.361-2.81-.97-.522.504-2.075 1.066-3.45 1.25-1.71.229-2.602 1.053-2.823 2.609-.261 1.844-.83 2.2-3 1.878-1.472-.218-2.582-.851-2.467-1.405.116-.555-.672-1.807-1.75-2.783-1.881-1.703-1.962-1.698-2.002.131-.024 1.048-1.416 3.03-3.095 4.405a541 541 0 0 0-5.708 4.749c-4.916 4.164-8.422 2.715-9.677-3.999-.385-2.061-.881-3.749-1.102-3.75s-3.649.9-7.619 2c-14.524 4.025-29-2.533-15.77-7.145 1.657-.578 3.013-1.445 3.013-1.928s-1.155-.438-2.566.098c-2.123.807-3.159.524-6-1.643-3.139-2.394-4.983-5.457-2.279-3.787.716.443.883.275.439-.443-1.049-1.697-4.913.576-4.188 2.464.811 2.113-2.281 2.937-3.707.987-1.831-2.504-6.976.008-6.236 3.044 1.341 5.502-5.446 8.159-7.44 2.914-.95-2.498-5.437-1.816-9.523 1.446-1.865 1.489-6.803 1.559-7.292.104-.259-.768-.013-1.108.549-.761.56.346.996.071.973-.61-.161-4.454.444-5.606 3.52-6.697 3.668-1.3 2.102-3.54-3.25-4.647-1.375-.284-3.306-.954-4.29-1.489-.986-.536-2.157-.749-2.603-.473-.448.276-1.667-.136-2.71-.916-1.793-1.341-1.767-1.385.487-.816 1.773.448 2.26.242 1.896-.8-.268-.771-1.228-1.27-2.134-1.108s-1.646-.113-1.646-.61c0-1.368-6.697-8.183-8.04-8.184-1.264 0-.447 5.053.968 5.991 1.274.844.882 7.15-.413 6.653-.657-.252-1.123.469-1.084 1.676.084 2.591-2.923 3.446-3.828 1.089-.357-.929.047-2.752.897-4.05 1.424-2.172 1.405-2.362-.227-2.394-.976-.02-2.897-.658-4.27-1.418-1.696-.939-2.884-1.061-3.702-.382-1.603 1.33-5.582.011-4.95-1.641.545-1.42-1.94-5.524-3.343-5.524-1.258 0-10.008-8.116-10.008-9.282 0-.581 1.664-.708 4.125-.314 3.832.613 4.086.511 3.58-1.429-.45-1.717-.294-1.879.874-.91 2.272 1.886 1.639-.557-.69-2.659-1.16-1.048-2.975-3.744-4.033-5.992-1.69-3.592-9.922-9.936-15.158-11.681-3.332-1.111 3.063-11.87 6.517-10.966 1.767.462 1.998.235 1.38-1.356-1.235-3.177-1.163-3.926.35-3.596 2.291.498 6.055-1.977 6.055-3.984 0-1.079.72-1.831 1.755-1.831 2.437 0 4.522-6.525 2.596-8.124-.743-.616-1.35-1.939-1.35-2.939-.001-1.001-.451-2.097-1-2.437-.55-.34-1-1.518-1-2.618s-.404-1.752-.895-1.448c-.49.303-1.843-1.357-3.005-3.691s-2.66-5.143-3.328-6.243-2.239-3.678-3.493-5.729c-2.852-4.664-2.888-7.741-.126-10.706 1.922-2.063 1.98-2.41.542-3.215-.887-.497-1.358-1.568-1.045-2.382.387-1.012-.573-1.955-3.043-2.987-1.984-.829-3.645-2.064-3.69-2.744-.242-3.637-1.198-7.557-2.465-10.115-.785-1.582-1.159-3.945-.832-5.25.405-1.611.16-2.392-.764-2.435-.746-.035-.333-.475.918-.977 2.606-1.047 2.206-5.5-.687-7.629-4.752-3.496-5.041-3.891-4.456-6.081.33-1.238 1.379-2.25 2.33-2.25.95 0 2.543-.9 3.538-2s2.231-2 2.745-2 1.779-1.012 2.81-2.25c1.615-1.934 1.883-2.003 1.912-.49.018.968-.867 2.53-1.967 3.472-2.538 2.173-2.518 2.899.1 3.584 1.157.303 1.805 1.029 1.442 1.617-.363.587-.445 1.067-.183 1.067.263 0 1.25.298 2.196.66 1.212.464 1.572.243 1.224-.75-.57-1.629 2.992-7.17 4.15-6.454.427.264 1.613-.132 2.636-.879 2.017-1.475.615-4.576-2.069-4.577-1.332 0-4.101-8.453-3.604-11 .162-.825.239-3.222.17-5.326-.108-3.399.22-3.954 2.949-4.984 2.134-.806 3.024-1.774 2.919-3.175-.26-3.456.036-4.654 1-4.058a1.09 1.09 0 0 0 1.502-.347c.313-.507 1.402-.705 2.42-.438 2.56.669 5.59-2.434 4.113-4.214-.807-.972-.795-1.907.043-3.472.63-1.178.9-2.782.6-3.564-.38-.993.2-1.422 1.923-1.422 1.358 0 2.469-.45 2.47-1 0-.55-.437-1-.97-1s-.71-.675-.393-1.5c.33-.861.02-1.5-.73-1.5-1.018 0-1.041-.267-.108-1.2.66-.66 1.2-1.948 1.2-2.862 0-1.277 1.32-1.818 5.684-2.331 3.126-.367 6.276-1.159 7-1.76 1.767-1.466 1.673-3.846-.153-3.847-.894 0-1.243.586-.893 1.5.363.945-.011 1.5-1.011 1.5-1.986 0-1.574-5.786.506-7.103 3.478-2.204-2.762-.68-7.275 1.776-3.573 1.945-5.211 2.374-6.012 1.573-.743-.743-1.913-.79-3.605-.148-4.224 1.606-6.24.29-6.24-4.07 0-4.477 3.34-6.913 15.25-11.124 7.366-2.604 7.512-2.802 5.108-6.871-1.99-3.368-1.188-7.635 1.6-8.52 2.676-.849 9.035.449 9.056 1.848.042 3.128 1.618 3.829 5.793 2.579 4.398-1.318 5.909-3.37 4.09-5.56-.88-1.063-.605-1.805 1.234-3.325 2.036-1.682 2.524-1.753 3.477-.506 1.928 2.52 17.01-1.493 15.954-4.243-.865-2.257 4.422-5.084 5.593-2.991 1.402 2.505 4.122 2.048 7.252-1.219 2.783-2.905 2.783-2.905.625-5.062-3.774-3.774-.756-10.609 4.56-10.326 5.589.297 6.264.495 5.822 1.71-.217.595-.005 1.692.47 2.437 1.046 1.642 5.668-.946 6.598-3.694.309-.914 3.365-3.792 6.79-6.397 3.42-2.6 6.265-4.737 6.328-4.75m65.339 318.986c.582 0 1.06.45 1.06 1s-.198 1-.441 1-.719-.45-1.059-1-.141-.999.44-1m-91.94-7.618c0-.825.45-1.222 1-.882s1 1.294 1 2.119c0 .824-.45 1.221-1 .881s-1-1.293-1-2.118m85.5-1.382c.275 0 .5.225.5.5s-.225.5-.5.5a.5.5 0 0 1-.5-.5c0-.275.225-.5.5-.5m-127.56-8c.582 0 1.06.45 1.06 1s-.198 1-.441 1-.72-.45-1.059-1c-.34-.55-.141-.999.44-1m-2.94-1c.55 0 1 .45 1 1s-.45 1-1 1-1-.45-1-1 .45-1 1-1m60 1.107c0-1.644-2.785-1.984-4.653-.57-1.705 1.292-1.597 1.402 1.403 1.431 1.787.018 3.25-.37 3.25-.861m-45-2.107c.733 0 1.033.3.667.667a.95.95 0 0 1-1.334 0c-.366-.367-.066-.667.667-.667m-9.583.079c1.054-.043 1.644.193 1.312.525s-1.195.368-1.916.079c-.798-.319-.56-.556.604-.604m1.583-3.079c.55 0 1 .45 1 1s-.45 1-1 1-1-.45-1-1 .45-1 1-1m-8.5-1c.825 0 1.5.661 1.5 1.469 0 .894-.586 1.243-1.5.893-.825-.317-1.5-.978-1.5-1.469s.675-.893 1.5-.893m-.5-8c.55 0 1 .198 1 .441s-.45.719-1 1.059-1 .141-1-.441.45-1.059 1-1.059m200.5-6c.825 0 1.5.17 1.5.378 0 .207-.675.938-1.5 1.622-1.229 1.02-1.5.951-1.5-.378 0-.892.675-1.622 1.5-1.622m5-1c.275 0 .5.225.5.5s-.225.5-.5.5a.5.5 0 0 1-.5-.5c0-.275.225-.5.5-.5m-1.808-3.641c.54-1.409.707-1.398 1.549.107 1.058 1.89.425 3.064-1.132 2.102-.561-.349-.749-1.342-.417-2.209m-3.534-.359c0-1.375.227-1.937.504-1.25.278.688.278 1.813 0 2.5-.277.688-.504.125-.504-1.25m2.342-1c.275 0 .5.225.5.5s-.225.5-.5.5a.5.5 0 0 1-.5-.5c0-.275.225-.5.5-.5m-5.844-1.455q-.555-1.444.895-.886c1.68.645 1.794 1.01.554 1.776-.493.305-1.145-.096-1.449-.89m6.844-.545c.275 0 .5.225.5.5s-.225.5-.5.5a.5.5 0 0 1-.5-.5c0-.275.225-.5.5-.5m39.5-3c0-.733.3-1.033.667-.667a.95.95 0 0 1 0 1.334c-.367.366-.667.066-.667-.667m-6-10.441c0-1.757.6-2.015 1.457-.628.317.512.118 1.214-.441 1.56-.559.344-1.016-.075-1.016-.932M39.241 257.57c-2.373-.911-2.69-.758-2.025.975.334.87.607 1.77.607 2s.675.418 1.5.418c1.99 0 1.928-2.622-.082-3.393m255.48-5.607c1.658 0 8.149 6.113 7.54 7.101-1.492 2.413-6.742-.804-7.918-4.851-.379-1.302-.22-2.249.378-2.25m-20.398 4c-.275 0-.5.225-.5.5s.225.5.5.5.5-.225.5-.5-.225-.5-.5-.5m-6-3c-.275 0-.5.225-.5.5s.225.5.5.5.5-.225.5-.5-.225-.5-.5-.5m-1.677-3.667c-.389-2.009-2.386-2.848-3.29-1.385-.88 1.423.242 3.052 2.099 3.052.876 0 1.378-.703 1.191-1.667m2.677.667c-.275 0-.5.225-.5.5s.225.5.5.5.5-.225.5-.5-.225-.5-.5-.5m-245-17c.275 0 .5.225.5.5s-.225.5-.5.5a.5.5 0 0 1-.5-.5c0-.275.225-.5.5-.5m2 0c.275 0 .5.225.5.5s-.225.5-.5.5a.5.5 0 0 1-.5-.5c0-.275.225-.5.5-.5m4-50c-.275 0-.5.225-.5.5s.225.5.5.5.5-.225.5-.5-.225-.5-.5-.5m-4.5 0c.733 0 1.033.3.667.667a.95.95 0 0 1-1.334 0c-.366-.367-.066-.667.667-.667m-1.281-14.918c.165-2.193-1.234-3.676-2.118-2.246-.295.478.026 1.64.713 2.579 1.154 1.578 1.263 1.552 1.405-.333m1.781-2.082c-.275 0-.5.225-.5.5s.225.5.5.5.5-.225.5-.5-.225-.5-.5-.5m251.7-11.799c3.351-3.351 7.363-.019 6.367 5.289-.771 4.111-2.856 4.579-5.624 1.26-2.183-2.616-2.436-4.856-.743-6.549m-277.2 2.799c.733 0 1.033.3.667.667a.95.95 0 0 1-1.334 0c-.366-.367-.066-.667.667-.667m286.094-9c.498 0 .906.9.906 2s-.173 1.999-.383 2-.619-.9-.907-2c-.287-1.1-.115-2 .384-2m-1.594-2c.275 0 .5.225.5.5s-.225.5-.5.5a.5.5 0 0 1-.5-.5c0-.275.225-.5.5-.5m7.882-3c.275 0 .778.45 1.118 1s.393 1 .118 1-.778-.45-1.118-1-.393-1-.118-1M18.68 133.08c.195-.064.119.503-.172 1.261s0 1.909.643 2.557c.9.904.602.968-1.277.276-3.058-1.127-3.74-2.892-1.356-3.51.992-.257 1.965-.52 2.162-.584m8.81-1.45c1.116-1.117 2-.749 2 .833 0 .825-.6 1.5-1.334 1.5-1.419 0-1.77-1.229-.666-2.333m266.273.333c.582 0 1.06.45 1.06 1s-.198 1-.441 1-.719-.45-1.059-1-.141-.999.44-1m2.56 1c.275 0 .5.225.5.5s-.225.5-.5.5a.5.5 0 0 1-.5-.5c0-.275.225-.5.5-.5m-275.5-4c.55 0 1 .675 1 1.5s-.45 1.5-1 1.5-1-.675-1-1.5.45-1.5 1-1.5m282 .128c3.258-1.305 5-1.362 5-.163 0 1.749-3.891 3.196-5.763 2.142-1.557-.876-1.478-1.081.763-1.979m-288.434-3.23c3.127-1.225 4.078-.943 2.037.602-1.044.79-2.364 1.148-2.934.795-.598-.369-.218-.96.896-1.397m276.493-.898c.518 0 .941.45.941 1s-.703 1-1.56 1c-.856 0-1.28-.45-.94-1s1.041-1 1.559-1m-37.559-20c-.275 0-.5.225-.5.5s.225.5.5.5.5-.225.5-.5-.225-.5-.5-.5m-215-3c.275 0 .5.225.5.5s-.225.5-.5.5a.5.5 0 0 1-.5-.5c0-.275.225-.5.5-.5m5-1c.275 0 .5.225.5.5s-.225.5-.5.5a.5.5 0 0 1-.5-.5c0-.275.225-.5.5-.5m-11.25-5.017c1.787-1.093 3.85-1.76 4.582-1.485.732.276 2.082.538 3 .581.999.047 1.176.279.442.576-.673.272-1.452.35-1.73.17-.278-.178-1.215.687-2.081 1.925-1.028 1.467-2.602 2.25-4.52 2.25-3.852 0-3.733-1.546.307-4.017m228.25 3.017c.275 0 .5.225.5.5s-.225.5-.5.5a.5.5 0 0 1-.5-.5c0-.275.225-.5.5-.5m-218-1c.275 0 .5.225.5.5s-.225.5-.5.5a.5.5 0 0 1-.5-.5c0-.275.225-.5.5-.5m12.32-8.171c-.347-2.352-2.271-3.527-3.232-1.972-.907 1.468.44 4.143 2.089 4.143.932 0 1.346-.787 1.143-2.171m184.68-14.829c.275 0 .5.225.5.5s-.225.5-.5.5a.5.5 0 0 1-.5-.5c0-.275.225-.5.5-.5m34.5-2.004c0-.513.675-.721 1.5-.464.825.258 2.25.709 3.167 1.001 1.174.376 1.353.846.607 1.592-1.18 1.18-5.273-.473-5.274-2.129M69.807 71.213c.022-1.797-1.658-1.54-2.39.364-.392 1.023-1.345 1.423-2.606 1.093-1.092-.285-1.987-.16-1.988.278s1.195 1.099 2.655 1.466c2.667.668 4.296-.536 4.33-3.2m174.575-2.25c-.243 0-.719.45-1.059 1s-.141 1 .44 1c.582 0 1.06-.45 1.06-1s-.198-1-.441-1m-3.059-1c-.275 0-.5.225-.5.5s.225.5.5.5.5-.225.5-.5-.225-.5-.5-.5m-97.083-21.92c-1.165.047-1.402.284-.604.603.721.289 1.584.253 1.916-.08.332-.331-.258-.567-1.312-.524m37.583-2.08c-.733 0-1.033.3-.667.667a.95.95 0 0 0 1.334 0c.366-.367.066-.667-.667-.667m-34.478-9.63c-1.136-.435-1.813.026-2.198 1.5-.307 1.172-1.18 2.13-1.941 2.13-.76 0-1.383.45-1.383 1 0 1.52 2.594 1.195 4-.5.685-.825 2.288-1.5 3.563-1.5s2.597-.45 2.937-1-.272-1-1.359-1c-1.088 0-2.717-.283-3.619-.63m-8.398 2.363c-.988-.98-1.102-.865-.56.56.376.986.935 1.54 1.243 1.233s.001-1.114-.683-1.793m21.376-6.733c.275 0 .5.225.5.5s-.225.5-.5.5a.5.5 0 0 1-.5-.5c0-.275.225-.5.5-.5m45.5-1c.733 0 1.033.3.667.667a.95.95 0 0 1-1.334 0c-.366-.367-.066-.667.667-.667m5-4c.55 0 1 .198 1 .44 0 .244-.45.72-1 1.06s-1 .14-1-.441c0-.582.45-1.059 1-1.059m-34.5 0c.275 0 .5.225.5.5s-.225.5-.5.5a.5.5 0 0 1-.5-.5c0-.275.225-.5.5-.5m-3.5-6c.733 0 1.033.3.667.667a.95.95 0 0 1-1.334 0c-.366-.367-.066-.667.667-.667m1-3c0-.733.3-1.033.667-.667a.95.95 0 0 1 0 1.334c-.367.366-.667.066-.667-.667m35-2c.733 0 1.033.3.667.667a.95.95 0 0 1-1.334 0c-.366-.367-.066-.667.667-.667m-31.5-1c.275 0 .5.225.5.5s-.225.5-.5.5a.5.5 0 0 1-.5-.5c0-.275.225-.5.5-.5m-11-2c.275 0 .5.225.5.5s-.225.5-.5.5a.5.5 0 0 1-.5-.5c0-.275.225-.5.5-.5m9.5 0c0-.733.3-1.033.667-.667a.95.95 0 0 1 0 1.334c-.367.366-.667.066-.667-.667m-4.5-1c.275 0 .5.225.5.5s-.225.5-.5.5a.5.5 0 0 1-.5-.5c0-.275.225-.5.5-.5m-38.941-3c.243 0 .441.45.441 1s-.478 1-1.06 1c-.581 0-.78-.45-.44-1s.816-1 1.059-1m-9.559 1c.733 0 1.033.3.667.667a.95.95 0 0 1-1.334 0c-.366-.367-.066-.667.667-.667m44.381-5.652c2.929-2.519 5.619-3.082 5.619-1.177 0 1.726-3.081 4.829-4.795 4.83-.816 0-2.026.74-2.688 1.645-1.062 1.452-1.184 1.375-1.035-.65.093-1.265 1.398-3.356 2.899-4.648" data-figma-scatter="f0.51_w0.06_aj180_sj0.65_r0_s17656661811333049531_sw2" data-figma-scatter-ref="stroke0_206_8038_ref"/></defs></svg>